M48
; DRILL file {KiCad 5.1.10-88a1d61d58~89~ubuntu20.04.1} date Thu Jul  8 20:05:23 2021
; FORMAT={-:-/ absolute / metric / decimal}
; #@! TF.CreationDate,2021-07-08T20:05:23-04:00
; #@! TF.GenerationSoftware,Kicad,Pcbnew,5.1.10-88a1d61d58~89~ubuntu20.04.1
; #@! TF.FileFunction,Plated,1,2,PTH
FMAT,2
METRIC
T1C0.300
T2C0.700
T3C0.800
T4C0.900
T5C1.000
T6C1.200
%
G90
G05
T1
X146.431Y-115.892
T2
X95.2Y-117.971
X95.2Y-122.821
X96.368Y-108.585
X99.898Y-111.709
X100.203Y-119.38
X100.203Y-121.666
X101.752Y-108.382
X104.605Y-105.262
X106.934Y-121.412
X109.347Y-96.393
X109.576Y-109.042
X110.617Y-118.745
X111.633Y-114.046
X112.141Y-121.793
X114.998Y-110.236
X116.713Y-117.665
X117.919Y-116.649
X117.919Y-118.808
X119.57Y-122.301
X119.634Y-120.142
X120.65Y-102.997
X121.349Y-120.015
X126.619Y-108.902
X127.381Y-106.617
X128.46Y-105.474
X128.778Y-101.219
X130.556Y-109.728
X130.556Y-111.252
X132.08Y-109.728
X132.08Y-111.252
X132.715Y-121.92
X134.112Y-116.84
X134.683Y-122.428
X135.7Y-114.49
X135.788Y-98.019
X135.788Y-100.152
X136.207Y-115.951
T3
X92.837Y-95.186
X95.337Y-95.186
T4
X96.393Y-105.029
X97.98Y-121.856
X99.06Y-113.665
X99.365Y-100.965
X99.873Y-106.655
X100.584Y-124.333
X101.282Y-110.363
X102.311Y-101.117
X102.489Y-96.266
X102.718Y-104.013
X104.775Y-94.869
X105.664Y-117.856
X108.712Y-106.807
X109.22Y-111.887
X111.506Y-116.586
X111.697Y-125.349
X112.459Y-106.68
X114.554Y-103.378
X114.935Y-114.935
X116.84Y-100.584
X119.761Y-113.157
X121.412Y-107.95
X123.19Y-102.108
X123.266Y-119.177
X123.507Y-109.664
X124.562Y-117.475
X125.044Y-120.244
X125.095Y-102.108
X127.191Y-124.46
X127.305Y-120.269
X129.184Y-120.244
X130.81Y-97.663
X131.115Y-120.244
X133.35Y-119.761
X134.569Y-102.184
X138.278Y-115.392
X138.748Y-110.934
X138.786Y-102.083
X139.37Y-117.221
X139.37Y-121.336
X139.421Y-119.278
X140.144Y-110.934
X140.36Y-115.545
X141.63Y-121.996
X141.707Y-125.425
X143.815Y-111.277
X145.229Y-115.892
X145.796Y-93.472
X145.796Y-96.012
X145.796Y-98.552
X145.796Y-100.965
X145.796Y-103.632
X145.796Y-106.172
X145.796Y-108.585
X145.796Y-111.252
X145.859Y-120.396
X145.859Y-122.936
X145.859Y-125.349
X145.898Y-118.186
T6
X94.488Y-101.6
X94.488Y-105.1
X94.488Y-108.6
X94.488Y-112.1
T5
X92.52Y-116.771G85X92.52Y-116.771
G05
X92.52Y-124.021G85X92.52Y-124.021
G05
T0
M30
