M48
; DRILL file {KiCad 5.1.10-88a1d61d58~88~ubuntu20.04.1} date Fri Jul  2 10:57:34 2021
; FORMAT={-:-/ absolute / metric / decimal}
; #@! TF.CreationDate,2021-07-02T10:57:34-04:00
; #@! TF.GenerationSoftware,Kicad,Pcbnew,5.1.10-88a1d61d58~88~ubuntu20.04.1
; #@! TF.FileFunction,Plated,1,2,PTH
FMAT,2
METRIC
T1C0.300
T2C0.700
T3C0.800
T4C0.900
T5C1.000
T6C1.200
%
G90
G05
T1
X56.261Y11.108
T2
X5.03Y9.029
X5.03Y4.179
X8.89Y16.129
X10.033Y7.62
X10.033Y5.334
X10.541Y19.685
X16.51Y21.463
X16.764Y5.588
X19.177Y30.607
X19.304Y19.304
X20.447Y8.255
X21.463Y12.954
X21.971Y5.207
X23.622Y16.764
X27.686Y9.017
X28.448Y3.048
X29.083Y7.874
X32.258Y7.874
X34.417Y24.638
X35.814Y28.448
X36.83Y17.526
X37.084Y22.606
X37.211Y19.812
X37.973Y21.336
X39.751Y10.16
X40.386Y17.272
X40.386Y15.748
X41.91Y17.272
X41.91Y15.748
X42.291Y11.049
X42.926Y20.701
X44.958Y13.208
X49.657Y11.43
X49.784Y20.828
X49.784Y17.399
X49.784Y15.748
T3
X3.81Y31.75
X6.31Y31.75
T4
X6.096Y18.415
X6.223Y21.971
X8.89Y13.335
X10.414Y2.667
X11.557Y16.764
X12.319Y30.734
X12.446Y20.447
X14.478Y15.875
X14.605Y32.131
X15.494Y9.144
X21.336Y10.414
X24.384Y23.622
X24.765Y12.065
X26.67Y26.416
X29.591Y13.843
X30.48Y5.334
X32.385Y22.098
X32.385Y18.923
X34.544Y15.621
X35.687Y9.017
X41.783Y5.334
X42.799Y26.035
X43.942Y5.334
X48.26Y8.636
X49.53Y5.969
X54.61Y33.528
X54.61Y30.988
X54.61Y28.448
X54.61Y25.908
X54.61Y23.368
X54.61Y20.828
X54.61Y18.288
X54.61Y15.748
X54.61Y11.684
X54.61Y9.144
X54.61Y6.604
X54.61Y4.064
X54.61Y1.524
T6
X4.318Y25.4
X4.318Y21.9
X4.318Y18.4
X4.318Y14.9
T5
X2.35Y10.229G85X2.35Y10.229
G05
X2.35Y2.979G85X2.35Y2.979
G05
T0
M30
