G04 #@! TF.GenerationSoftware,KiCad,Pcbnew,5.1.10-88a1d61d58~89~ubuntu20.04.1*
G04 #@! TF.CreationDate,2021-07-08T20:05:20-04:00*
G04 #@! TF.ProjectId,ESP8285-WLED,45535038-3238-4352-9d57-4c45442e6b69,rev?*
G04 #@! TF.SameCoordinates,Original*
G04 #@! TF.FileFunction,Copper,L2,Bot*
G04 #@! TF.FilePolarity,Positive*
%FSLAX46Y46*%
G04 Gerber Fmt 4.6, Leading zero omitted, Abs format (unit mm)*
G04 Created by KiCad (PCBNEW 5.1.10-88a1d61d58~89~ubuntu20.04.1) date 2021-07-08 20:05:20*
%MOMM*%
%LPD*%
G01*
G04 APERTURE LIST*
G04 #@! TA.AperFunction,ComponentPad*
%ADD10R,0.500000X0.900000*%
G04 #@! TD*
G04 #@! TA.AperFunction,ComponentPad*
%ADD11O,3.000000X2.000000*%
G04 #@! TD*
G04 #@! TA.AperFunction,ComponentPad*
%ADD12O,2.000000X1.000000*%
G04 #@! TD*
G04 #@! TA.AperFunction,ComponentPad*
%ADD13C,2.400000*%
G04 #@! TD*
G04 #@! TA.AperFunction,ComponentPad*
%ADD14R,2.400000X2.400000*%
G04 #@! TD*
G04 #@! TA.AperFunction,ComponentPad*
%ADD15C,1.600000*%
G04 #@! TD*
G04 #@! TA.AperFunction,ComponentPad*
%ADD16R,1.600000X1.600000*%
G04 #@! TD*
G04 #@! TA.AperFunction,ViaPad*
%ADD17C,1.200000*%
G04 #@! TD*
G04 #@! TA.AperFunction,ViaPad*
%ADD18C,1.600000*%
G04 #@! TD*
G04 #@! TA.AperFunction,Conductor*
%ADD19C,0.500000*%
G04 #@! TD*
G04 #@! TA.AperFunction,Conductor*
%ADD20C,0.350000*%
G04 #@! TD*
G04 #@! TA.AperFunction,Conductor*
%ADD21C,0.250000*%
G04 #@! TD*
G04 #@! TA.AperFunction,Conductor*
%ADD22C,0.254000*%
G04 #@! TD*
G04 #@! TA.AperFunction,Conductor*
%ADD23C,0.050000*%
G04 #@! TD*
G04 #@! TA.AperFunction,Conductor*
%ADD24C,0.025400*%
G04 #@! TD*
G04 APERTURE END LIST*
D10*
G04 #@! TO.P,AE1,2*
G04 #@! TO.N,GND*
X146431000Y-115892000D03*
G04 #@! TD*
D11*
G04 #@! TO.P,J2,6*
G04 #@! TO.N,Net-(J2-Pad6)*
X92520000Y-116771000D03*
D12*
X95200000Y-117971000D03*
X95200000Y-122821000D03*
D11*
X92520000Y-124021000D03*
G04 #@! TD*
D13*
G04 #@! TO.P,J1,4*
G04 #@! TO.N,GND*
X94488000Y-112100000D03*
G04 #@! TO.P,J1,3*
G04 #@! TO.N,Net-(J1-Pad3)*
X94488000Y-108600000D03*
G04 #@! TO.P,J1,2*
G04 #@! TO.N,+12V*
X94488000Y-105100000D03*
D14*
G04 #@! TO.P,J1,1*
G04 #@! TO.N,+5V*
X94488000Y-101600000D03*
G04 #@! TD*
D15*
G04 #@! TO.P,C3,2*
G04 #@! TO.N,GND*
X95337000Y-95186500D03*
D16*
G04 #@! TO.P,C3,1*
G04 #@! TO.N,+12V*
X92837000Y-95186500D03*
G04 #@! TD*
D17*
G04 #@! TO.N,GND*
X130556000Y-111252000D03*
X132080000Y-111252000D03*
X132080000Y-109728000D03*
X130556000Y-109728000D03*
X106934000Y-121412000D03*
D18*
X145796000Y-111252000D03*
X145796000Y-108585000D03*
X145796000Y-100965000D03*
X145796000Y-98552000D03*
X145859500Y-122936000D03*
X145859500Y-125349000D03*
X145796000Y-96012000D03*
X145796000Y-93472000D03*
X104775000Y-94869000D03*
X102489000Y-96266000D03*
X116840000Y-100584000D03*
X119761000Y-113157000D03*
X114935000Y-114935000D03*
X111506000Y-116586000D03*
X105664000Y-117856000D03*
X100584000Y-124333000D03*
X99060000Y-113665000D03*
X114554000Y-103378000D03*
X141706600Y-125425200D03*
X101282500Y-110363000D03*
X108712000Y-106807000D03*
X112458500Y-106680000D03*
X109220000Y-111887000D03*
X130810000Y-97663000D03*
X123190000Y-102108000D03*
X125095000Y-102108000D03*
X131114800Y-120243600D03*
X123266200Y-119176800D03*
X124561600Y-117475000D03*
X129184400Y-120243600D03*
X111696500Y-125349000D03*
X97980500Y-121856500D03*
X127304800Y-120269000D03*
X125044200Y-120243600D03*
X127190500Y-124460000D03*
X139369800Y-121335800D03*
X133350000Y-119761000D03*
X123507500Y-109664500D03*
X121412000Y-107950000D03*
X145796000Y-106172000D03*
X145796000Y-103632000D03*
X138785600Y-102082600D03*
X138747500Y-110934500D03*
X145229000Y-115892000D03*
X145859500Y-120396000D03*
X145897600Y-118186200D03*
X134569200Y-102184200D03*
X143814800Y-111277400D03*
X140360400Y-115544600D03*
X138277600Y-115392200D03*
X139420600Y-119278400D03*
X139369800Y-117221000D03*
X141630400Y-121996200D03*
X102311200Y-101117400D03*
X99872800Y-106654600D03*
X99364800Y-100965000D03*
X102717600Y-104013000D03*
X140144500Y-110934500D03*
G04 #@! TO.N,+12V*
X96393000Y-105029000D03*
D17*
G04 #@! TO.N,+3V3*
X112141000Y-121793000D03*
X110617000Y-118745000D03*
X111633000Y-114046000D03*
X114998500Y-110236000D03*
X134112000Y-116840000D03*
X132715000Y-121920000D03*
X121348500Y-120015000D03*
X135699500Y-114490500D03*
X135788400Y-100152200D03*
X117919500Y-116649500D03*
X135788400Y-98018600D03*
G04 #@! TO.N,+5V*
X99898200Y-111709200D03*
G04 #@! TO.N,Net-(J1-Pad3)*
X109575600Y-109042200D03*
X101752400Y-108381800D03*
X96367600Y-108585000D03*
G04 #@! TO.N,/RST*
X134683500Y-122428000D03*
X136207500Y-115951000D03*
G04 #@! TO.N,/GPIO0*
X128778000Y-101219000D03*
X116713000Y-117665500D03*
X126619000Y-108902500D03*
X128460500Y-105473500D03*
X119570500Y-122301000D03*
G04 #@! TO.N,/D-*
X100203000Y-119380000D03*
X100203000Y-121666000D03*
G04 #@! TO.N,/CUTXD*
X119634000Y-120142000D03*
X117919500Y-118808500D03*
G04 #@! TO.N,WLED*
X127381000Y-106616500D03*
X120650000Y-102997000D03*
G04 #@! TO.N,/5VOUT*
X109347000Y-96393000D03*
X104605000Y-105262500D03*
G04 #@! TD*
D19*
G04 #@! TO.N,+12V*
X96353288Y-105068709D02*
X96344082Y-105076263D01*
X92065963Y-97234673D02*
X91985630Y-97384964D01*
X93404018Y-105082128D02*
X93585463Y-105100000D01*
X92698759Y-96413180D02*
X92631305Y-96539377D01*
X92184374Y-104351101D02*
X92300038Y-104492038D01*
X91997136Y-104038713D02*
X92083082Y-104199507D01*
X94387555Y-105100000D02*
X94191184Y-105100000D01*
X92268748Y-96961249D02*
X92160639Y-97092980D01*
X91837702Y-97872619D02*
X91821000Y-98042211D01*
X92795057Y-96144045D02*
X92753519Y-96280977D01*
X91821000Y-103335534D02*
X91838870Y-103516979D01*
X96289600Y-105098832D02*
X96277748Y-105100000D01*
X91874439Y-103695797D02*
X91927364Y-103870269D01*
X93050728Y-104993634D02*
X93225200Y-105046559D01*
X96312675Y-105093051D02*
X96301279Y-105096508D01*
X94784250Y-105100000D02*
X94586750Y-105100000D01*
X92551806Y-96658356D02*
X92461028Y-96768969D01*
X93994814Y-105100000D02*
X93798443Y-105100000D01*
X92721490Y-104837915D02*
X92882283Y-104923861D01*
X92428959Y-104620959D02*
X92569896Y-104736623D01*
X95179250Y-105100000D02*
X94981750Y-105100000D01*
X92837000Y-95861295D02*
X92822974Y-96003700D01*
X96334180Y-105082879D02*
X96323678Y-105088493D01*
X91920416Y-97542406D02*
X91870948Y-97705481D01*
X96289600Y-105098832D02*
X96301279Y-105096508D01*
X92065963Y-97234673D02*
X92160639Y-97092980D01*
X91838870Y-103516979D02*
X91874439Y-103695797D01*
X92721490Y-104837915D02*
X92569896Y-104736623D01*
X92631305Y-96539377D02*
X92551806Y-96658356D01*
X94784250Y-105100000D02*
X94981750Y-105100000D01*
X94191184Y-105100000D02*
X93994814Y-105100000D01*
X96344082Y-105076263D02*
X96334180Y-105082879D01*
X91837702Y-97872619D02*
X91870948Y-97705481D01*
X92184374Y-104351101D02*
X92083082Y-104199507D01*
X93404018Y-105082128D02*
X93225200Y-105046559D01*
X92795057Y-96144045D02*
X92822974Y-96003700D01*
X93050728Y-104993634D02*
X92882283Y-104923861D01*
X96312675Y-105093051D02*
X96323678Y-105088493D01*
X91985630Y-97384964D02*
X91920416Y-97542406D01*
X91997136Y-104038713D02*
X91927364Y-103870269D01*
X92698759Y-96413180D02*
X92753519Y-96280977D01*
X94387555Y-105100000D02*
X94586750Y-105100000D01*
X96353288Y-105068709D02*
X96393000Y-105029000D01*
X96277748Y-105100000D02*
X95179250Y-105100000D01*
X92837000Y-95861295D02*
X92837000Y-95186500D01*
X92268748Y-96961249D02*
X92461028Y-96768969D01*
X91821000Y-98042211D02*
X91821000Y-103335534D01*
X92300038Y-104492038D02*
X92428959Y-104620959D01*
X93585463Y-105100000D02*
X93798443Y-105100000D01*
G04 #@! TO.N,+3V3*
X135663983Y-114490500D02*
X135656488Y-114491237D01*
X118020292Y-116653913D02*
X118034706Y-116658285D01*
X133569448Y-121790087D02*
X133489744Y-121832689D01*
X133231126Y-121911141D02*
X133141186Y-121920000D01*
D20*
X111098896Y-119271045D02*
X111149103Y-119364977D01*
D19*
X134169116Y-116091144D02*
X134140696Y-116184834D01*
D20*
X110972154Y-119100154D02*
X111039722Y-119182486D01*
D19*
X134252736Y-115914344D02*
X134206583Y-116000690D01*
X121347761Y-119971988D02*
X121348500Y-119979483D01*
X121337672Y-119943794D02*
X121341222Y-119950436D01*
X134112000Y-117097968D02*
X134112000Y-117201155D01*
D20*
X111252000Y-120349937D02*
X111266615Y-120498330D01*
D19*
X134764295Y-120611822D02*
X134668740Y-120728257D01*
X134156149Y-117847943D02*
X134199873Y-117992082D01*
X134112000Y-116891593D02*
X134112000Y-116994780D01*
X118074430Y-116679518D02*
X118086074Y-116689074D01*
D20*
X114893427Y-110778262D02*
X114859982Y-110819015D01*
D19*
X121328711Y-119931711D02*
X121333489Y-119937533D01*
X135049735Y-119472286D02*
X135064500Y-119622186D01*
X135064500Y-119772811D02*
X135049735Y-119922711D01*
X134918983Y-120353742D02*
X134847979Y-120486582D01*
X118048623Y-116664050D02*
X118061907Y-116671150D01*
X134112000Y-116684197D02*
X134112000Y-116785344D01*
X134112000Y-116481904D02*
X134112000Y-116583051D01*
X135634936Y-114497774D02*
X135628294Y-114501324D01*
X134668740Y-118666740D02*
X134764296Y-118783175D01*
X135020350Y-120070443D02*
X134976625Y-120214582D01*
D20*
X114983046Y-110588780D02*
X114967742Y-110639228D01*
D19*
X133714454Y-121682543D02*
X133644593Y-121739877D01*
X121344105Y-119957395D02*
X121346292Y-119964602D01*
X134369241Y-115757255D02*
X134307130Y-115832938D01*
X134847979Y-118908415D02*
X134918983Y-119041255D01*
D20*
X111241559Y-119669762D02*
X111252000Y-119775757D01*
D19*
X134976625Y-119180415D02*
X135020350Y-119324554D01*
D20*
X111396052Y-120925029D02*
X111466343Y-121056533D01*
X114947568Y-110687934D02*
X114922716Y-110734428D01*
X111189862Y-119463378D02*
X111220780Y-119565300D01*
D19*
X134412201Y-118389322D02*
X134507757Y-118505757D01*
X134121596Y-116280860D02*
X134112000Y-116378296D01*
X134257514Y-118131242D02*
X134328518Y-118264082D01*
D20*
X114998500Y-110484608D02*
X114993332Y-110537074D01*
D19*
X135649102Y-114492706D02*
X135641895Y-114494892D01*
X135622033Y-114505508D02*
X135616211Y-114510286D01*
D20*
X111295705Y-120644577D02*
X111338990Y-120787267D01*
D19*
X134112000Y-117550311D02*
X134126763Y-117700211D01*
X118005520Y-116650976D02*
X117990530Y-116649500D01*
X133406248Y-121867274D02*
X133319765Y-121893509D01*
D20*
X111549184Y-121180515D02*
X111643779Y-121295779D01*
D19*
X134112000Y-116684197D02*
X134112000Y-116583051D01*
X135049735Y-119472286D02*
X135020350Y-119324554D01*
D20*
X114983046Y-110588780D02*
X114993332Y-110537074D01*
X111466343Y-121056533D02*
X111549184Y-121180515D01*
D19*
X134412201Y-118389322D02*
X134328518Y-118264082D01*
X135628294Y-114501324D02*
X135622033Y-114505508D01*
X121347761Y-119971988D02*
X121346292Y-119964602D01*
X121337672Y-119943794D02*
X121333489Y-119937533D01*
X133231126Y-121911141D02*
X133319765Y-121893509D01*
X133569448Y-121790087D02*
X133644593Y-121739877D01*
X134140696Y-116184834D02*
X134121596Y-116280860D01*
D20*
X114893427Y-110778262D02*
X114922716Y-110734428D01*
D19*
X134156149Y-117847943D02*
X134126763Y-117700211D01*
X118020292Y-116653913D02*
X118005520Y-116650976D01*
X134252736Y-115914344D02*
X134307130Y-115832938D01*
D20*
X111098896Y-119271045D02*
X111039722Y-119182486D01*
D19*
X134764295Y-120611822D02*
X134847979Y-120486582D01*
D20*
X111266615Y-120498330D02*
X111295705Y-120644577D01*
X111241559Y-119669762D02*
X111220780Y-119565300D01*
D19*
X135656488Y-114491237D02*
X135649102Y-114492706D01*
X134764296Y-118783175D02*
X134847979Y-118908415D01*
X135049735Y-119922711D02*
X135020350Y-120070443D01*
X118074430Y-116679518D02*
X118061907Y-116671150D01*
X134112000Y-117097968D02*
X134112000Y-116994780D01*
X133489744Y-121832689D02*
X133406248Y-121867274D01*
X134112000Y-116891593D02*
X134112000Y-116785344D01*
X121341222Y-119950436D02*
X121344105Y-119957395D01*
D20*
X114967742Y-110639228D02*
X114947568Y-110687934D01*
D19*
X134169116Y-116091144D02*
X134206583Y-116000690D01*
X134918983Y-120353742D02*
X134976625Y-120214582D01*
D20*
X111149103Y-119364977D02*
X111189862Y-119463378D01*
D19*
X134918983Y-119041255D02*
X134976625Y-119180415D01*
D20*
X111396052Y-120925029D02*
X111338990Y-120787267D01*
D19*
X135634936Y-114497774D02*
X135641895Y-114494892D01*
X118034706Y-116658285D02*
X118048623Y-116664050D01*
X134199873Y-117992082D02*
X134257514Y-118131242D01*
D20*
X110972154Y-119100154D02*
X110617000Y-118745000D01*
X111252000Y-120349937D02*
X111252000Y-119775757D01*
X111643779Y-121295779D02*
X112141000Y-121793000D01*
X114859982Y-110819015D02*
X111633000Y-114046000D01*
X114998500Y-110484608D02*
X114998500Y-110236000D01*
D19*
X135663983Y-114490500D02*
X135699500Y-114490500D01*
X134369241Y-115757255D02*
X135616211Y-114510286D01*
X134112000Y-116481904D02*
X134112000Y-116378296D01*
X121348500Y-119979483D02*
X121348500Y-120015000D01*
X118086074Y-116689074D02*
X121328711Y-119931711D01*
X117990530Y-116649500D02*
X117919500Y-116649500D01*
X134112000Y-117201155D02*
X134112000Y-117550311D01*
X134668740Y-118666740D02*
X134507757Y-118505757D01*
X135064500Y-119622186D02*
X135064500Y-119772811D01*
X134668740Y-120728257D02*
X133714454Y-121682543D01*
X133141186Y-121920000D02*
X132715000Y-121920000D01*
D21*
X135788400Y-100152200D02*
X135788400Y-98018600D01*
D19*
G04 #@! TO.N,+5V*
X97641414Y-102546882D02*
X97731787Y-102715958D01*
X97129519Y-101982094D02*
X97277717Y-102103717D01*
X98014400Y-109149858D02*
X98110863Y-109467854D01*
X98579298Y-110344235D02*
X98790111Y-110601111D01*
X97805154Y-102893081D02*
X97860806Y-103076541D01*
X96252425Y-101618791D02*
X96061633Y-101600000D01*
X97413280Y-102239280D02*
X97534903Y-102387477D01*
X97898208Y-103264572D02*
X97917000Y-103455364D01*
X97917000Y-108493232D02*
X97949571Y-108823937D01*
X98238031Y-109774865D02*
X98394679Y-110067933D01*
X96801037Y-101785210D02*
X96970115Y-101875584D01*
X96440456Y-101656192D02*
X96623916Y-101711844D01*
X97641414Y-102546882D02*
X97534903Y-102387477D01*
X96252425Y-101618791D02*
X96440456Y-101656192D01*
X97129519Y-101982094D02*
X96970115Y-101875584D01*
X97860806Y-103076541D02*
X97898208Y-103264572D01*
X98579298Y-110344235D02*
X98394679Y-110067933D01*
X98014400Y-109149858D02*
X97949571Y-108823937D01*
X96801037Y-101785210D02*
X96623916Y-101711844D01*
X97731787Y-102715958D02*
X97805154Y-102893081D01*
X98110863Y-109467854D02*
X98238031Y-109774865D01*
X97277717Y-102103717D02*
X97413280Y-102239280D01*
X97917000Y-103455364D02*
X97917000Y-108493232D01*
X96061633Y-101600000D02*
X94488000Y-101600000D01*
X98790111Y-110601111D02*
X99898200Y-111709200D01*
D20*
G04 #@! TO.N,Net-(J1-Pad3)*
X102764952Y-109031342D02*
X102875187Y-109042200D01*
X96359209Y-108593388D02*
X96357264Y-108594984D01*
X101814371Y-108393807D02*
X101819029Y-108397629D01*
X96350628Y-108598531D02*
X96348221Y-108599261D01*
X96355173Y-108596382D02*
X96352954Y-108597568D01*
X102350288Y-108882972D02*
X102447976Y-108935188D01*
X101804048Y-108387619D02*
X101809361Y-108390459D01*
X101792717Y-108383565D02*
X101798482Y-108385314D01*
X102550313Y-108977577D02*
X102656311Y-109009732D01*
X101786807Y-108382390D02*
X101780811Y-108381800D01*
X96345753Y-108599753D02*
X96343249Y-108600000D01*
X102172561Y-108751161D02*
X102258187Y-108821432D01*
X96348221Y-108599261D02*
X96345753Y-108599753D01*
X102350288Y-108882972D02*
X102258187Y-108821432D01*
X101792717Y-108383565D02*
X101786807Y-108382390D01*
X101814371Y-108393807D02*
X101809361Y-108390459D01*
X96357264Y-108594984D02*
X96355173Y-108596382D01*
X102764952Y-109031342D02*
X102656311Y-109009732D01*
X96350628Y-108598531D02*
X96352954Y-108597568D01*
X102447976Y-108935188D02*
X102550313Y-108977577D01*
X101804048Y-108387619D02*
X101798482Y-108385314D01*
X102875187Y-109042200D02*
X109575600Y-109042200D01*
X101780811Y-108381800D02*
X101752400Y-108381800D01*
X101819029Y-108397629D02*
X102172561Y-108751161D01*
D19*
X96343249Y-108600000D02*
X94488000Y-108600000D01*
D20*
X96359209Y-108593388D02*
X96367600Y-108585000D01*
D21*
G04 #@! TO.N,/RST*
X135437588Y-115960364D02*
X135407012Y-115969640D01*
X135511139Y-118493139D02*
X135571950Y-118567237D01*
X134791758Y-121715957D02*
X134756256Y-121782377D01*
X135377492Y-115981867D02*
X135349312Y-115996929D01*
X135191500Y-117817316D02*
X135200895Y-117912712D01*
X135402129Y-121049267D02*
X135287264Y-121189232D01*
X134690881Y-121997892D02*
X134683500Y-122072842D01*
X135382547Y-118351260D02*
X135443358Y-118425358D01*
X135194631Y-116228427D02*
X135191500Y-116260226D01*
X135500726Y-115951000D02*
X135468927Y-115954131D01*
X135753603Y-119005786D02*
X135763000Y-119101182D01*
X134881377Y-121595120D02*
X134833600Y-121653337D01*
X135709928Y-120398487D02*
X135657367Y-120571754D01*
X135625206Y-118646940D02*
X135670393Y-118731478D01*
X135763000Y-120040709D02*
X135745252Y-120220902D01*
X135210140Y-116166512D02*
X135200865Y-116197088D01*
X135275452Y-116057545D02*
X135255182Y-116082244D01*
X135707076Y-118820040D02*
X135734902Y-118911770D01*
X135219595Y-118006727D02*
X135247421Y-118098457D01*
X135588077Y-120739034D02*
X135502723Y-120898718D01*
X134727436Y-121851957D02*
X134705574Y-121924027D01*
X135284104Y-118187019D02*
X135329291Y-118271557D01*
X135322745Y-116014681D02*
X135298045Y-116034951D01*
X135237429Y-116108813D02*
X135222367Y-116136992D01*
X135571950Y-118567237D02*
X135625206Y-118646940D01*
X135753603Y-119005786D02*
X135734902Y-118911770D01*
X135349312Y-115996929D02*
X135322745Y-116014681D01*
X134690881Y-121997892D02*
X134705574Y-121924027D01*
X134791758Y-121715957D02*
X134833600Y-121653337D01*
X135200895Y-117912712D02*
X135219595Y-118006727D01*
X135402129Y-121049267D02*
X135502723Y-120898718D01*
X135437588Y-115960364D02*
X135468927Y-115954131D01*
X135382547Y-118351260D02*
X135329291Y-118271557D01*
X135255182Y-116082244D02*
X135237429Y-116108813D01*
X135194631Y-116228427D02*
X135200865Y-116197088D01*
X135709928Y-120398487D02*
X135745252Y-120220902D01*
X135670393Y-118731478D02*
X135707076Y-118820040D01*
X135407012Y-115969640D02*
X135377492Y-115981867D01*
X135210140Y-116166512D02*
X135222367Y-116136992D01*
X135657367Y-120571754D02*
X135588077Y-120739034D01*
X135247421Y-118098457D02*
X135284104Y-118187019D01*
X134756256Y-121782377D02*
X134727436Y-121851957D01*
X134683500Y-122072842D02*
X134683500Y-122428000D01*
X135287264Y-121189232D02*
X134881377Y-121595120D01*
X135763000Y-119101182D02*
X135763000Y-120040709D01*
X135511139Y-118493139D02*
X135443358Y-118425358D01*
X135191500Y-117817316D02*
X135191500Y-116260226D01*
X135275452Y-116057545D02*
X135298045Y-116034951D01*
X135500726Y-115951000D02*
X136207500Y-115951000D01*
D20*
G04 #@! TO.N,/GPIO0*
X128503994Y-105531864D02*
X128482352Y-105603210D01*
X116713000Y-118624420D02*
X116732930Y-118826785D01*
X128905000Y-104751967D02*
X128897691Y-104826164D01*
X128467807Y-105676333D02*
X128460500Y-105750530D01*
X128085245Y-107410153D02*
X127965801Y-107555697D01*
X128874378Y-101324208D02*
X128884419Y-101342994D01*
X128849030Y-101290030D02*
X128862543Y-101306496D01*
X116909444Y-119408677D02*
X117005300Y-119588011D01*
X128756406Y-105167256D02*
X128709108Y-105224888D01*
X128460500Y-106361390D02*
X128442044Y-106548765D01*
X128832972Y-105039514D02*
X128797827Y-105105266D01*
X128278604Y-107087553D02*
X128189849Y-107253603D01*
X119569761Y-122257988D02*
X119570500Y-122265483D01*
X128883146Y-104899287D02*
X128861504Y-104970632D01*
X128405312Y-106733429D02*
X128350657Y-106913603D01*
X128902912Y-101403951D02*
X128905000Y-101425150D01*
X119550711Y-122217711D02*
X119555488Y-122223533D01*
X116772601Y-119026223D02*
X116831628Y-119220811D01*
X128892572Y-101362674D02*
X128898756Y-101383058D01*
X128567670Y-105397231D02*
X128532525Y-105462983D01*
X119559672Y-122229794D02*
X119563222Y-122236436D01*
X119566105Y-122243395D02*
X119568292Y-122250602D01*
X128656388Y-105277609D02*
X128609091Y-105335241D01*
X117118272Y-119757085D02*
X117247272Y-119914272D01*
X128085245Y-107410153D02*
X128189849Y-107253603D01*
X117005300Y-119588011D02*
X117118272Y-119757085D01*
X119555488Y-122223533D02*
X119559672Y-122229794D01*
X128567670Y-105397231D02*
X128609091Y-105335241D01*
X128482352Y-105603210D02*
X128467807Y-105676333D01*
X128874378Y-101324208D02*
X128862543Y-101306496D01*
X116732930Y-118826785D02*
X116772601Y-119026223D01*
X119569761Y-122257988D02*
X119568292Y-122250602D01*
X128442044Y-106548765D02*
X128405312Y-106733429D01*
X128756406Y-105167256D02*
X128797827Y-105105266D01*
X128897691Y-104826164D02*
X128883146Y-104899287D01*
X128902912Y-101403951D02*
X128898756Y-101383058D01*
X128884419Y-101342994D02*
X128892572Y-101362674D01*
X128503994Y-105531864D02*
X128532525Y-105462983D01*
X116909444Y-119408677D02*
X116831628Y-119220811D01*
X119563222Y-122236436D02*
X119566105Y-122243395D01*
X128832972Y-105039514D02*
X128861504Y-104970632D01*
X128278604Y-107087553D02*
X128350657Y-106913603D01*
X128709108Y-105224888D02*
X128656388Y-105277609D01*
X128849030Y-101290030D02*
X128778000Y-101219000D01*
X128905000Y-104751967D02*
X128905000Y-101425150D01*
X127965801Y-107555697D02*
X126619000Y-108902500D01*
X128460500Y-105750530D02*
X128460500Y-106361390D01*
X116713000Y-118624420D02*
X116713000Y-117665500D01*
X119550711Y-122217711D02*
X117247272Y-119914272D01*
X119570500Y-122265483D02*
X119570500Y-122301000D01*
G04 #@! TO.N,/D-*
X100203000Y-119380000D02*
X100203000Y-121666000D01*
G04 #@! TO.N,/CUTXD*
X118306872Y-118852153D02*
X118346724Y-118873454D01*
X118384296Y-118898559D02*
X118419226Y-118927226D01*
X118177562Y-118812928D02*
X118132592Y-118808500D01*
X118221882Y-118821744D02*
X118265123Y-118834861D01*
X118177562Y-118812928D02*
X118221882Y-118821744D01*
X118346724Y-118873454D02*
X118384296Y-118898559D01*
X118306872Y-118852153D02*
X118265123Y-118834861D01*
X118419226Y-118927226D02*
X119634000Y-120142000D01*
X118132592Y-118808500D02*
X117919500Y-118808500D01*
G04 #@! TO.N,WLED*
X123734297Y-103520968D02*
X123993748Y-103599671D01*
X122122833Y-103434191D02*
X122197030Y-103441500D01*
X121345787Y-103018852D02*
X121417132Y-103040494D01*
X121978365Y-103398004D02*
X122049710Y-103419646D01*
X121486014Y-103069025D02*
X121551766Y-103104170D01*
X121613756Y-103145591D02*
X121671388Y-103192888D01*
X121272664Y-103004307D02*
X121198467Y-102997000D01*
X121724109Y-103245609D02*
X121781741Y-103292906D01*
X123468381Y-103468074D02*
X123198561Y-103441500D01*
X124708781Y-103981863D02*
X124918364Y-104153864D01*
X121843731Y-103334327D02*
X121909483Y-103369472D01*
X124244237Y-103703427D02*
X124483348Y-103831234D01*
X121781741Y-103292906D02*
X121843731Y-103334327D01*
X124708781Y-103981863D02*
X124483348Y-103831234D01*
X123734297Y-103520968D02*
X123468381Y-103468074D01*
X121551766Y-103104170D02*
X121613756Y-103145591D01*
X121345787Y-103018852D02*
X121272664Y-103004307D01*
X122122833Y-103434191D02*
X122049710Y-103419646D01*
X123993748Y-103599671D02*
X124244237Y-103703427D01*
X121978365Y-103398004D02*
X121909483Y-103369472D01*
X121417132Y-103040494D02*
X121486014Y-103069025D01*
X124918364Y-104153864D02*
X127381000Y-106616500D01*
X122197030Y-103441500D02*
X123198561Y-103441500D01*
X121671388Y-103192888D02*
X121724109Y-103245609D01*
X121198467Y-102997000D02*
X120650000Y-102997000D01*
D19*
G04 #@! TO.N,/5VOUT*
X106707312Y-99818105D02*
X106680000Y-100095420D01*
X106410794Y-101448799D02*
X106279436Y-101694552D01*
X104728022Y-103649581D02*
X104666808Y-103851377D01*
X104908126Y-103268782D02*
X104808720Y-103454758D01*
X106598322Y-100924695D02*
X106517433Y-101191353D01*
X104625669Y-104058201D02*
X104605000Y-104268062D01*
X107412152Y-98327845D02*
X107235374Y-98543249D01*
X105159060Y-102930436D02*
X105025282Y-103093445D01*
X106680000Y-100374077D02*
X106652686Y-100651392D01*
X106124623Y-101926247D02*
X105947845Y-102141652D01*
X107080561Y-98774944D02*
X106949203Y-99020698D01*
X106842565Y-99278144D02*
X106761675Y-99544802D01*
X106279436Y-101694552D02*
X106124623Y-101926247D01*
X104908126Y-103268782D02*
X105025282Y-103093445D01*
X107235374Y-98543249D02*
X107080561Y-98774944D01*
X106598322Y-100924695D02*
X106652686Y-100651392D01*
X104666808Y-103851377D02*
X104625669Y-104058201D01*
X106707312Y-99818105D02*
X106761675Y-99544802D01*
X104728022Y-103649581D02*
X104808720Y-103454758D01*
X106410794Y-101448799D02*
X106517433Y-101191353D01*
X106949203Y-99020698D02*
X106842565Y-99278144D01*
X107412152Y-98327845D02*
X109347000Y-96393000D01*
X106680000Y-100095420D02*
X106680000Y-100374077D01*
X105159060Y-102930436D02*
X105947845Y-102141652D01*
X104605000Y-104268062D02*
X104605000Y-105262500D01*
G04 #@! TD*
D22*
G04 #@! TO.N,GND*
X146558000Y-126248000D02*
X90922000Y-126248000D01*
X90922000Y-125354017D01*
X91055888Y-125463896D01*
X91355908Y-125624260D01*
X91681449Y-125723012D01*
X91935159Y-125748000D01*
X93104841Y-125748000D01*
X93358551Y-125723012D01*
X93684092Y-125624260D01*
X93984112Y-125463896D01*
X94247082Y-125248082D01*
X94462896Y-124985112D01*
X94623260Y-124685092D01*
X94722012Y-124359551D01*
X94752697Y-124048000D01*
X95760268Y-124048000D01*
X95940534Y-124030245D01*
X96171824Y-123960084D01*
X96384983Y-123846149D01*
X96571817Y-123692817D01*
X96725149Y-123505983D01*
X96839084Y-123292824D01*
X96909245Y-123061534D01*
X96932936Y-122821000D01*
X96909245Y-122580466D01*
X96839084Y-122349176D01*
X96725149Y-122136017D01*
X96571817Y-121949183D01*
X96384983Y-121795851D01*
X96171824Y-121681916D01*
X95940534Y-121611755D01*
X95760268Y-121594000D01*
X94639732Y-121594000D01*
X94459466Y-121611755D01*
X94228176Y-121681916D01*
X94015017Y-121795851D01*
X93828183Y-121949183D01*
X93674851Y-122136017D01*
X93560916Y-122349176D01*
X93552249Y-122377746D01*
X93358551Y-122318988D01*
X93104841Y-122294000D01*
X91935159Y-122294000D01*
X91681449Y-122318988D01*
X91355908Y-122417740D01*
X91055888Y-122578104D01*
X90922000Y-122687983D01*
X90922000Y-119249302D01*
X98876000Y-119249302D01*
X98876000Y-119510698D01*
X98926996Y-119767072D01*
X99027028Y-120008570D01*
X99061737Y-120060515D01*
X99074491Y-120084883D01*
X99094482Y-120120594D01*
X99148551Y-120211102D01*
X99162417Y-120233389D01*
X99213941Y-120312964D01*
X99215539Y-120315420D01*
X99256200Y-120377666D01*
X99278127Y-120414083D01*
X99285717Y-120429240D01*
X99288235Y-120435999D01*
X99292171Y-120452164D01*
X99297599Y-120493921D01*
X99298700Y-120522999D01*
X99297599Y-120552077D01*
X99292171Y-120593835D01*
X99288235Y-120610000D01*
X99285717Y-120616759D01*
X99278127Y-120631916D01*
X99256200Y-120668333D01*
X99215539Y-120730579D01*
X99213941Y-120733035D01*
X99162417Y-120812610D01*
X99148551Y-120834897D01*
X99094482Y-120925405D01*
X99074489Y-120961119D01*
X99061733Y-120985491D01*
X99027028Y-121037430D01*
X98926996Y-121278928D01*
X98876000Y-121535302D01*
X98876000Y-121796698D01*
X98926996Y-122053072D01*
X99027028Y-122294570D01*
X99172252Y-122511913D01*
X99357087Y-122696748D01*
X99574430Y-122841972D01*
X99815928Y-122942004D01*
X100072302Y-122993000D01*
X100333698Y-122993000D01*
X100590072Y-122942004D01*
X100831570Y-122841972D01*
X101048913Y-122696748D01*
X101233748Y-122511913D01*
X101378972Y-122294570D01*
X101479004Y-122053072D01*
X101530000Y-121796698D01*
X101530000Y-121535302D01*
X101479004Y-121278928D01*
X101378972Y-121037430D01*
X101344262Y-120985483D01*
X101331507Y-120961114D01*
X101311517Y-120925405D01*
X101257448Y-120834897D01*
X101243582Y-120812610D01*
X101192058Y-120733035D01*
X101190460Y-120730579D01*
X101149799Y-120668333D01*
X101127872Y-120631916D01*
X101120282Y-120616759D01*
X101117764Y-120610000D01*
X101113828Y-120593835D01*
X101108400Y-120552078D01*
X101107299Y-120523000D01*
X101108400Y-120493921D01*
X101113828Y-120452164D01*
X101117764Y-120435999D01*
X101120282Y-120429240D01*
X101127872Y-120414083D01*
X101149799Y-120377666D01*
X101190460Y-120315420D01*
X101192058Y-120312964D01*
X101243582Y-120233389D01*
X101257448Y-120211102D01*
X101311517Y-120120594D01*
X101331506Y-120084887D01*
X101344260Y-120060520D01*
X101378972Y-120008570D01*
X101479004Y-119767072D01*
X101530000Y-119510698D01*
X101530000Y-119249302D01*
X101479004Y-118992928D01*
X101378972Y-118751430D01*
X101287346Y-118614302D01*
X109290000Y-118614302D01*
X109290000Y-118875698D01*
X109340996Y-119132072D01*
X109441028Y-119373570D01*
X109586252Y-119590913D01*
X109771087Y-119775748D01*
X109988430Y-119920972D01*
X110229928Y-120021004D01*
X110294506Y-120033849D01*
X110334254Y-120044948D01*
X110350000Y-120048783D01*
X110350000Y-120394243D01*
X110351599Y-120410481D01*
X110373301Y-120630832D01*
X110373303Y-120630841D01*
X110373303Y-120630843D01*
X110413491Y-120832881D01*
X110419684Y-120864017D01*
X110485321Y-121080390D01*
X110488694Y-121091508D01*
X110542686Y-121221859D01*
X110596425Y-121354437D01*
X110637808Y-121461943D01*
X110670493Y-121552242D01*
X110697437Y-121631816D01*
X110721698Y-121707988D01*
X110746149Y-121787951D01*
X110772287Y-121874220D01*
X110773582Y-121878448D01*
X110802994Y-121973439D01*
X110805625Y-121981761D01*
X110840252Y-122089020D01*
X110843615Y-122099179D01*
X110856408Y-122136898D01*
X110864996Y-122180072D01*
X110965028Y-122421570D01*
X111110252Y-122638913D01*
X111295087Y-122823748D01*
X111512430Y-122968972D01*
X111753928Y-123069004D01*
X112010302Y-123120000D01*
X112271698Y-123120000D01*
X112528072Y-123069004D01*
X112769570Y-122968972D01*
X112986913Y-122823748D01*
X113171748Y-122638913D01*
X113316972Y-122421570D01*
X113417004Y-122180072D01*
X113468000Y-121923698D01*
X113468000Y-121662302D01*
X113417004Y-121405928D01*
X113316972Y-121164430D01*
X113171748Y-120947087D01*
X112986913Y-120762252D01*
X112769570Y-120617028D01*
X112528072Y-120516996D01*
X112449526Y-120501372D01*
X112435883Y-120497375D01*
X112378064Y-120482979D01*
X112277741Y-120462326D01*
X112244792Y-120456331D01*
X112177981Y-120445757D01*
X112171728Y-120425144D01*
X112159929Y-120365826D01*
X112154000Y-120305629D01*
X112154000Y-119731450D01*
X112153959Y-119731028D01*
X112148523Y-119675842D01*
X112140948Y-119598934D01*
X112140947Y-119598931D01*
X112135345Y-119542059D01*
X112134871Y-119537245D01*
X112134363Y-119534693D01*
X112128671Y-119478279D01*
X112128013Y-119472030D01*
X112112947Y-119334620D01*
X112111598Y-119323151D01*
X112096738Y-119204977D01*
X112094289Y-119187265D01*
X112078560Y-119082971D01*
X112074618Y-119059459D01*
X112056946Y-118963693D01*
X112051519Y-118937079D01*
X112030829Y-118844488D01*
X112024677Y-118819105D01*
X111999895Y-118724336D01*
X111994261Y-118704002D01*
X111964312Y-118601701D01*
X111960168Y-118588046D01*
X111923978Y-118472861D01*
X111921590Y-118465402D01*
X111903106Y-118408715D01*
X111893004Y-118357928D01*
X111792972Y-118116430D01*
X111647748Y-117899087D01*
X111462913Y-117714252D01*
X111245570Y-117569028D01*
X111162942Y-117534802D01*
X115386000Y-117534802D01*
X115386000Y-117796198D01*
X115436996Y-118052572D01*
X115537028Y-118294070D01*
X115563920Y-118334317D01*
X115579037Y-118364485D01*
X115586918Y-118379758D01*
X115637601Y-118475202D01*
X115641960Y-118483288D01*
X115687100Y-118565762D01*
X115723556Y-118633160D01*
X115750106Y-118685514D01*
X115770328Y-118730397D01*
X115788748Y-118778456D01*
X115808503Y-118840624D01*
X115830803Y-118925882D01*
X115856858Y-119045969D01*
X115896577Y-119245651D01*
X115896579Y-119245657D01*
X115896579Y-119245658D01*
X115981329Y-119525044D01*
X115981333Y-119525053D01*
X115981333Y-119525054D01*
X116093059Y-119794788D01*
X116093062Y-119794793D01*
X116093065Y-119794801D01*
X116230694Y-120052286D01*
X116230700Y-120052296D01*
X116392903Y-120295050D01*
X116407605Y-120312964D01*
X116578125Y-120520744D01*
X116578132Y-120520752D01*
X118104003Y-122046624D01*
X118162962Y-122110297D01*
X118186071Y-122140489D01*
X118191743Y-122149969D01*
X118191762Y-122150012D01*
X118194310Y-122158329D01*
X118201330Y-122191486D01*
X118212134Y-122258052D01*
X118226299Y-122349010D01*
X118229601Y-122368474D01*
X118248498Y-122471361D01*
X118255890Y-122506652D01*
X118272121Y-122575588D01*
X118294496Y-122688072D01*
X118394528Y-122929570D01*
X118539752Y-123146913D01*
X118724587Y-123331748D01*
X118941930Y-123476972D01*
X119183428Y-123577004D01*
X119439802Y-123628000D01*
X119701198Y-123628000D01*
X119957572Y-123577004D01*
X120199070Y-123476972D01*
X120416413Y-123331748D01*
X120601248Y-123146913D01*
X120746472Y-122929570D01*
X120846504Y-122688072D01*
X120897500Y-122431698D01*
X120897500Y-122170302D01*
X120846504Y-121913928D01*
X120794883Y-121789302D01*
X131388000Y-121789302D01*
X131388000Y-122050698D01*
X131438996Y-122307072D01*
X131539028Y-122548570D01*
X131684252Y-122765913D01*
X131869087Y-122950748D01*
X132086430Y-123095972D01*
X132327928Y-123196004D01*
X132584302Y-123247000D01*
X132845698Y-123247000D01*
X133102072Y-123196004D01*
X133343570Y-123095972D01*
X133396901Y-123060338D01*
X133462858Y-123025271D01*
X133488917Y-123011640D01*
X133507528Y-123056570D01*
X133652752Y-123273913D01*
X133837587Y-123458748D01*
X134054930Y-123603972D01*
X134296428Y-123704004D01*
X134552802Y-123755000D01*
X134814198Y-123755000D01*
X135070572Y-123704004D01*
X135312070Y-123603972D01*
X135529413Y-123458748D01*
X135714248Y-123273913D01*
X135859472Y-123056570D01*
X135957908Y-122818925D01*
X136123000Y-122818925D01*
X136123000Y-123031075D01*
X136164389Y-123239149D01*
X136245575Y-123435151D01*
X136363440Y-123611547D01*
X136513453Y-123761560D01*
X136608397Y-123825000D01*
X136513453Y-123888440D01*
X136363440Y-124038453D01*
X136245575Y-124214849D01*
X136164389Y-124410851D01*
X136123000Y-124618925D01*
X136123000Y-124831075D01*
X136164389Y-125039149D01*
X136245575Y-125235151D01*
X136363440Y-125411547D01*
X136513453Y-125561560D01*
X136689849Y-125679425D01*
X136885851Y-125760611D01*
X137093925Y-125802000D01*
X137306075Y-125802000D01*
X137514149Y-125760611D01*
X137710151Y-125679425D01*
X137886547Y-125561560D01*
X138036560Y-125411547D01*
X138154425Y-125235151D01*
X138235611Y-125039149D01*
X138277000Y-124831075D01*
X138277000Y-124618925D01*
X138235611Y-124410851D01*
X138154425Y-124214849D01*
X138036560Y-124038453D01*
X137886547Y-123888440D01*
X137791603Y-123825000D01*
X137886547Y-123761560D01*
X138036560Y-123611547D01*
X138154425Y-123435151D01*
X138235611Y-123239149D01*
X138277000Y-123031075D01*
X138277000Y-122818925D01*
X138235611Y-122610851D01*
X138154425Y-122414849D01*
X138036560Y-122238453D01*
X137886547Y-122088440D01*
X137710151Y-121970575D01*
X137514149Y-121889389D01*
X137306075Y-121848000D01*
X137093925Y-121848000D01*
X136885851Y-121889389D01*
X136689849Y-121970575D01*
X136513453Y-122088440D01*
X136363440Y-122238453D01*
X136245575Y-122414849D01*
X136164389Y-122610851D01*
X136123000Y-122818925D01*
X135957908Y-122818925D01*
X135959504Y-122815072D01*
X136010500Y-122558698D01*
X136010500Y-122297302D01*
X135959504Y-122040928D01*
X135866063Y-121815342D01*
X135919313Y-121762092D01*
X135919318Y-121762086D01*
X135919321Y-121762083D01*
X136087287Y-121557414D01*
X136109011Y-121524901D01*
X136234386Y-121337266D01*
X136281711Y-121248728D01*
X136359200Y-121103758D01*
X136359215Y-121103724D01*
X136392955Y-121022268D01*
X136407333Y-120987558D01*
X136407333Y-120987557D01*
X136460528Y-120859135D01*
X136477453Y-120803340D01*
X136537389Y-120605764D01*
X136561927Y-120482407D01*
X136561927Y-120482402D01*
X136564932Y-120467298D01*
X136578088Y-120401157D01*
X136589045Y-120346072D01*
X136589493Y-120341529D01*
X136600639Y-120228360D01*
X136601374Y-120220903D01*
X136602671Y-120207733D01*
X136602672Y-120207730D01*
X136614579Y-120086832D01*
X136614999Y-120082572D01*
X136614999Y-120082571D01*
X136615000Y-120082561D01*
X136615000Y-119059330D01*
X136614999Y-119059320D01*
X136614999Y-119059310D01*
X136608941Y-118997812D01*
X136602672Y-118934161D01*
X136602670Y-118934155D01*
X136597396Y-118880614D01*
X136588298Y-118834879D01*
X136562366Y-118704505D01*
X136562364Y-118704498D01*
X136510240Y-118532668D01*
X136509979Y-118532038D01*
X136441524Y-118366770D01*
X136441521Y-118366763D01*
X136441517Y-118366755D01*
X136356872Y-118208397D01*
X136353907Y-118203959D01*
X136257109Y-118059092D01*
X136257107Y-118059090D01*
X136257104Y-118059085D01*
X136206560Y-117997498D01*
X136177319Y-117961867D01*
X136177317Y-117961866D01*
X136143191Y-117920283D01*
X136143187Y-117920278D01*
X136075407Y-117852498D01*
X136067706Y-117843114D01*
X136060957Y-117833014D01*
X136055232Y-117822303D01*
X136050584Y-117811083D01*
X136047057Y-117799455D01*
X136044691Y-117787557D01*
X136043500Y-117775468D01*
X136043500Y-117271376D01*
X136076802Y-117278000D01*
X136338198Y-117278000D01*
X136594572Y-117227004D01*
X136836070Y-117126972D01*
X137053413Y-116981748D01*
X137238248Y-116796913D01*
X137383472Y-116579570D01*
X137483504Y-116338072D01*
X137534500Y-116081698D01*
X137534500Y-115820302D01*
X137483504Y-115563928D01*
X137383472Y-115322430D01*
X137238248Y-115105087D01*
X137053413Y-114920252D01*
X136977150Y-114869295D01*
X137026500Y-114621198D01*
X137026500Y-114359802D01*
X136975504Y-114103428D01*
X136875472Y-113861930D01*
X136730248Y-113644587D01*
X136545413Y-113459752D01*
X136328070Y-113314528D01*
X136086572Y-113214496D01*
X135830198Y-113163500D01*
X135568802Y-113163500D01*
X135312428Y-113214496D01*
X135070930Y-113314528D01*
X134853587Y-113459752D01*
X134668752Y-113644587D01*
X134523528Y-113861930D01*
X134444521Y-114052670D01*
X134432298Y-114082103D01*
X134431325Y-114084528D01*
X134423496Y-114103428D01*
X134423164Y-114105097D01*
X134388397Y-114194795D01*
X134386468Y-114199826D01*
X134355438Y-114281677D01*
X134331210Y-114342645D01*
X134312690Y-114384050D01*
X134296606Y-114414532D01*
X134277163Y-114445359D01*
X134246752Y-114486231D01*
X134198052Y-114543164D01*
X134120515Y-114624295D01*
X133644462Y-115100348D01*
X133644457Y-115100354D01*
X133644455Y-115100356D01*
X133628356Y-115119973D01*
X133596178Y-115153419D01*
X133573169Y-115178484D01*
X133478782Y-115286259D01*
X133452297Y-115318304D01*
X133376056Y-115416119D01*
X133348492Y-115453933D01*
X133286312Y-115545271D01*
X133261394Y-115584515D01*
X133209186Y-115672859D01*
X133190437Y-115706599D01*
X133144117Y-115795431D01*
X133133274Y-115817098D01*
X133088752Y-115909900D01*
X133085482Y-115916811D01*
X133040104Y-116014005D01*
X132991982Y-116114620D01*
X132964589Y-116168686D01*
X132936028Y-116211430D01*
X132835996Y-116452928D01*
X132785000Y-116709302D01*
X132785000Y-116970698D01*
X132835996Y-117227072D01*
X132936028Y-117468570D01*
X132954191Y-117495753D01*
X132965444Y-117519574D01*
X133003536Y-117605008D01*
X133035051Y-117680402D01*
X133063340Y-117752461D01*
X133091545Y-117827871D01*
X133122235Y-117911860D01*
X133122580Y-117912801D01*
X133156987Y-118006562D01*
X133159091Y-118012223D01*
X133198725Y-118117515D01*
X133201926Y-118125862D01*
X133249225Y-118246978D01*
X133252911Y-118256229D01*
X133277078Y-118315695D01*
X133278874Y-118321616D01*
X133278875Y-118321618D01*
X133373086Y-118549064D01*
X133373253Y-118549468D01*
X133421521Y-118639772D01*
X133421522Y-118639774D01*
X133455796Y-118703895D01*
X133488303Y-118764711D01*
X133489510Y-118766970D01*
X133626520Y-118972020D01*
X133626525Y-118972026D01*
X133764455Y-119140094D01*
X133782978Y-119162664D01*
X133943961Y-119323647D01*
X133978616Y-119365874D01*
X134008971Y-119411303D01*
X134034719Y-119459475D01*
X134055628Y-119509954D01*
X134071488Y-119562234D01*
X134082144Y-119615812D01*
X134087500Y-119670183D01*
X134087500Y-119724814D01*
X134082144Y-119779185D01*
X134071488Y-119832763D01*
X134055628Y-119885043D01*
X134034719Y-119935522D01*
X134008969Y-119983696D01*
X133978619Y-120029119D01*
X133943963Y-120071347D01*
X133292455Y-120722856D01*
X133102072Y-120643996D01*
X132845698Y-120593000D01*
X132584302Y-120593000D01*
X132327928Y-120643996D01*
X132086430Y-120744028D01*
X131869087Y-120889252D01*
X131684252Y-121074087D01*
X131539028Y-121291430D01*
X131438996Y-121532928D01*
X131388000Y-121789302D01*
X120794883Y-121789302D01*
X120746472Y-121672430D01*
X120601248Y-121455087D01*
X120416413Y-121270252D01*
X120375201Y-121242715D01*
X120479913Y-121172748D01*
X120565126Y-121087535D01*
X120719930Y-121190972D01*
X120961428Y-121291004D01*
X121217802Y-121342000D01*
X121479198Y-121342000D01*
X121735572Y-121291004D01*
X121977070Y-121190972D01*
X122194413Y-121045748D01*
X122379248Y-120860913D01*
X122524472Y-120643570D01*
X122624504Y-120402072D01*
X122675500Y-120145698D01*
X122675500Y-119884302D01*
X122624504Y-119627928D01*
X122524472Y-119386430D01*
X122379248Y-119169087D01*
X122194413Y-118984252D01*
X121977070Y-118839028D01*
X121786364Y-118760035D01*
X121756892Y-118747796D01*
X121754477Y-118746827D01*
X121735572Y-118738996D01*
X121733901Y-118738664D01*
X121644198Y-118703895D01*
X121639166Y-118701966D01*
X121557346Y-118670948D01*
X121496352Y-118646710D01*
X121454950Y-118628192D01*
X121424459Y-118612103D01*
X121393637Y-118592663D01*
X121352765Y-118562252D01*
X121295832Y-118513552D01*
X121214708Y-118436021D01*
X119524844Y-116746158D01*
X119443212Y-116660984D01*
X119389661Y-116599081D01*
X119353801Y-116552070D01*
X119328528Y-116513789D01*
X119306477Y-116475028D01*
X119281719Y-116425556D01*
X119250419Y-116357793D01*
X119212161Y-116273478D01*
X119207884Y-116264226D01*
X119162818Y-116168497D01*
X119153966Y-116150351D01*
X119126825Y-116096622D01*
X119095472Y-116020930D01*
X118950248Y-115803587D01*
X118765413Y-115618752D01*
X118548070Y-115473528D01*
X118306572Y-115373496D01*
X118050198Y-115322500D01*
X117788802Y-115322500D01*
X117532428Y-115373496D01*
X117290930Y-115473528D01*
X117073587Y-115618752D01*
X116888752Y-115803587D01*
X116743528Y-116020930D01*
X116643496Y-116262428D01*
X116628364Y-116338500D01*
X116582302Y-116338500D01*
X116325928Y-116389496D01*
X116084430Y-116489528D01*
X115867087Y-116634752D01*
X115682252Y-116819587D01*
X115537028Y-117036930D01*
X115436996Y-117278428D01*
X115386000Y-117534802D01*
X111162942Y-117534802D01*
X111004072Y-117468996D01*
X110747698Y-117418000D01*
X110486302Y-117418000D01*
X110229928Y-117468996D01*
X109988430Y-117569028D01*
X109771087Y-117714252D01*
X109586252Y-117899087D01*
X109441028Y-118116430D01*
X109340996Y-118357928D01*
X109290000Y-118614302D01*
X101287346Y-118614302D01*
X101233748Y-118534087D01*
X101048913Y-118349252D01*
X100831570Y-118204028D01*
X100590072Y-118103996D01*
X100333698Y-118053000D01*
X100072302Y-118053000D01*
X99815928Y-118103996D01*
X99574430Y-118204028D01*
X99357087Y-118349252D01*
X99172252Y-118534087D01*
X99027028Y-118751430D01*
X98926996Y-118992928D01*
X98876000Y-119249302D01*
X90922000Y-119249302D01*
X90922000Y-118104017D01*
X91055888Y-118213896D01*
X91355908Y-118374260D01*
X91681449Y-118473012D01*
X91935159Y-118498000D01*
X93104841Y-118498000D01*
X93358551Y-118473012D01*
X93552249Y-118414254D01*
X93560916Y-118442824D01*
X93674851Y-118655983D01*
X93828183Y-118842817D01*
X94015017Y-118996149D01*
X94228176Y-119110084D01*
X94459466Y-119180245D01*
X94639732Y-119198000D01*
X95760268Y-119198000D01*
X95940534Y-119180245D01*
X96171824Y-119110084D01*
X96384983Y-118996149D01*
X96571817Y-118842817D01*
X96725149Y-118655983D01*
X96839084Y-118442824D01*
X96909245Y-118211534D01*
X96932936Y-117971000D01*
X96909245Y-117730466D01*
X96839084Y-117499176D01*
X96725149Y-117286017D01*
X96571817Y-117099183D01*
X96384983Y-116945851D01*
X96171824Y-116831916D01*
X95940534Y-116761755D01*
X95760268Y-116744000D01*
X94752697Y-116744000D01*
X94722012Y-116432449D01*
X94623260Y-116106908D01*
X94462896Y-115806888D01*
X94247082Y-115543918D01*
X93984112Y-115328104D01*
X93684092Y-115167740D01*
X93358551Y-115068988D01*
X93104841Y-115044000D01*
X91935159Y-115044000D01*
X91681449Y-115068988D01*
X91355908Y-115167740D01*
X91055888Y-115328104D01*
X90922000Y-115437983D01*
X90922000Y-113456955D01*
X93375704Y-113456955D01*
X93494369Y-113761941D01*
X93837689Y-113923855D01*
X94206002Y-114015680D01*
X94585150Y-114033885D01*
X94960566Y-113977774D01*
X95134556Y-113915302D01*
X110306000Y-113915302D01*
X110306000Y-114176698D01*
X110356996Y-114433072D01*
X110457028Y-114674570D01*
X110602252Y-114891913D01*
X110787087Y-115076748D01*
X111004430Y-115221972D01*
X111245928Y-115322004D01*
X111502302Y-115373000D01*
X111763698Y-115373000D01*
X112020072Y-115322004D01*
X112261570Y-115221972D01*
X112478913Y-115076748D01*
X112663748Y-114891913D01*
X112808972Y-114674570D01*
X112909004Y-114433072D01*
X112921193Y-114371795D01*
X112929406Y-114345541D01*
X112940520Y-114306156D01*
X112966286Y-114203924D01*
X112972239Y-114178364D01*
X112992074Y-114085664D01*
X112992683Y-114082790D01*
X113007946Y-114010022D01*
X113018189Y-113968778D01*
X113023543Y-113952685D01*
X113026538Y-113946132D01*
X113035182Y-113931923D01*
X113060877Y-113898550D01*
X113122000Y-113832619D01*
X115059700Y-111894918D01*
X115155907Y-111803654D01*
X115230375Y-111740615D01*
X115296724Y-111690469D01*
X115364263Y-111644009D01*
X115439837Y-111594481D01*
X115445236Y-111590908D01*
X115524810Y-111537740D01*
X115549544Y-111520461D01*
X115628760Y-111462638D01*
X115666352Y-111433260D01*
X115747660Y-111365305D01*
X115788527Y-111328434D01*
X115874375Y-111244872D01*
X115911116Y-111206392D01*
X115961031Y-111150130D01*
X116029248Y-111081913D01*
X116174472Y-110864570D01*
X116274504Y-110623072D01*
X116325500Y-110366698D01*
X116325500Y-110105302D01*
X116274504Y-109848928D01*
X116174472Y-109607430D01*
X116029248Y-109390087D01*
X115844413Y-109205252D01*
X115627070Y-109060028D01*
X115385572Y-108959996D01*
X115129198Y-108909000D01*
X114867802Y-108909000D01*
X114611428Y-108959996D01*
X114369930Y-109060028D01*
X114152587Y-109205252D01*
X113967752Y-109390087D01*
X113822528Y-109607430D01*
X113722496Y-109848928D01*
X113671500Y-110105302D01*
X113671500Y-110366698D01*
X113722496Y-110623072D01*
X113730278Y-110641860D01*
X113736335Y-110667042D01*
X111846373Y-112557006D01*
X111780455Y-112618116D01*
X111747075Y-112643816D01*
X111732865Y-112652461D01*
X111726307Y-112655459D01*
X111710223Y-112660810D01*
X111668976Y-112671053D01*
X111596208Y-112686316D01*
X111593334Y-112686925D01*
X111500634Y-112706760D01*
X111475068Y-112712715D01*
X111372836Y-112738482D01*
X111333449Y-112749597D01*
X111307206Y-112757807D01*
X111245928Y-112769996D01*
X111004430Y-112870028D01*
X110787087Y-113015252D01*
X110602252Y-113200087D01*
X110457028Y-113417430D01*
X110356996Y-113658928D01*
X110306000Y-113915302D01*
X95134556Y-113915302D01*
X95317821Y-113849500D01*
X95481631Y-113761941D01*
X95600296Y-113456955D01*
X94488000Y-112344659D01*
X93375704Y-113456955D01*
X90922000Y-113456955D01*
X90922000Y-112197150D01*
X92554115Y-112197150D01*
X92610226Y-112572566D01*
X92738500Y-112929821D01*
X92826059Y-113093631D01*
X93131045Y-113212296D01*
X94243341Y-112100000D01*
X94732659Y-112100000D01*
X95844955Y-113212296D01*
X96149941Y-113093631D01*
X96311855Y-112750311D01*
X96403680Y-112381998D01*
X96421885Y-112002850D01*
X96365774Y-111627434D01*
X96237500Y-111270179D01*
X96149941Y-111106369D01*
X95844955Y-110987704D01*
X94732659Y-112100000D01*
X94243341Y-112100000D01*
X93131045Y-110987704D01*
X92826059Y-111106369D01*
X92664145Y-111449689D01*
X92572320Y-111818002D01*
X92554115Y-112197150D01*
X90922000Y-112197150D01*
X90922000Y-103915497D01*
X90925575Y-103933470D01*
X90933246Y-103958758D01*
X90990373Y-104147081D01*
X91006368Y-104199811D01*
X91108466Y-104446295D01*
X91112875Y-104456940D01*
X91208585Y-104636000D01*
X91244073Y-104702394D01*
X91392051Y-104923858D01*
X91398697Y-104933804D01*
X91568927Y-105141229D01*
X91575259Y-105148945D01*
X91578468Y-105152154D01*
X91731583Y-105336944D01*
X91739318Y-105346124D01*
X91923374Y-105560935D01*
X91937622Y-105577073D01*
X92101708Y-105757480D01*
X92124397Y-105781319D01*
X92276836Y-105934390D01*
X92308465Y-105964303D01*
X92457582Y-106097101D01*
X92495388Y-106128543D01*
X92649505Y-106248136D01*
X92687404Y-106275636D01*
X92854847Y-106389089D01*
X92886376Y-106409288D01*
X93075468Y-106523665D01*
X93097198Y-106536300D01*
X93316263Y-106658669D01*
X93328359Y-106665276D01*
X93496319Y-106754963D01*
X93575223Y-106807685D01*
X93677380Y-106850000D01*
X93575223Y-106892315D01*
X93259609Y-107103201D01*
X92991201Y-107371609D01*
X92780315Y-107687223D01*
X92635053Y-108037915D01*
X92561000Y-108410207D01*
X92561000Y-108789793D01*
X92635053Y-109162085D01*
X92780315Y-109512777D01*
X92991201Y-109828391D01*
X93259609Y-110096799D01*
X93575223Y-110307685D01*
X93669111Y-110346575D01*
X93658179Y-110350500D01*
X93494369Y-110438059D01*
X93375704Y-110743045D01*
X94488000Y-111855341D01*
X95600296Y-110743045D01*
X95481631Y-110438059D01*
X95296646Y-110350818D01*
X95400777Y-110307685D01*
X95716391Y-110096799D01*
X95960487Y-109852703D01*
X95980528Y-109861004D01*
X96236902Y-109912000D01*
X96498298Y-109912000D01*
X96754672Y-109861004D01*
X96996170Y-109760972D01*
X97148036Y-109659498D01*
X97189864Y-109797388D01*
X97191717Y-109801861D01*
X97353767Y-110193085D01*
X97353771Y-110193093D01*
X97537642Y-110537092D01*
X97555670Y-110570820D01*
X97793616Y-110926932D01*
X97793621Y-110926938D01*
X98037341Y-111223911D01*
X98065332Y-111258018D01*
X98359438Y-111552124D01*
X98430350Y-111626692D01*
X98471717Y-111675936D01*
X98494749Y-111708055D01*
X98507234Y-111729152D01*
X98517043Y-111749697D01*
X98529580Y-111782108D01*
X98547234Y-111835889D01*
X98570938Y-111914132D01*
X98571587Y-111916262D01*
X98600816Y-112011686D01*
X98605692Y-112026998D01*
X98612530Y-112047679D01*
X98622196Y-112096272D01*
X98722228Y-112337770D01*
X98867452Y-112555113D01*
X99052287Y-112739948D01*
X99269630Y-112885172D01*
X99511128Y-112985204D01*
X99767502Y-113036200D01*
X100028898Y-113036200D01*
X100285272Y-112985204D01*
X100526770Y-112885172D01*
X100744113Y-112739948D01*
X100928948Y-112555113D01*
X101074172Y-112337770D01*
X101174204Y-112096272D01*
X101225200Y-111839898D01*
X101225200Y-111578502D01*
X101174204Y-111322128D01*
X101074172Y-111080630D01*
X100928948Y-110863287D01*
X100744113Y-110678452D01*
X100526770Y-110533228D01*
X100285272Y-110433196D01*
X100236679Y-110423530D01*
X100215998Y-110416692D01*
X100200686Y-110411816D01*
X100105262Y-110382587D01*
X100103132Y-110381938D01*
X100024889Y-110358234D01*
X99971108Y-110340580D01*
X99938697Y-110328043D01*
X99918152Y-110318234D01*
X99897055Y-110305749D01*
X99864936Y-110282717D01*
X99815692Y-110241350D01*
X99741124Y-110170438D01*
X99514891Y-109944205D01*
X99364976Y-109761533D01*
X99233689Y-109565049D01*
X99122293Y-109356641D01*
X99031861Y-109138318D01*
X98963263Y-108912179D01*
X98917162Y-108680411D01*
X98894000Y-108445243D01*
X98894000Y-108251102D01*
X100425400Y-108251102D01*
X100425400Y-108512498D01*
X100476396Y-108768872D01*
X100576428Y-109010370D01*
X100721652Y-109227713D01*
X100906487Y-109412548D01*
X101123830Y-109557772D01*
X101365328Y-109657804D01*
X101450932Y-109674832D01*
X101537381Y-109698011D01*
X101546595Y-109700417D01*
X101660102Y-109729263D01*
X101671277Y-109732009D01*
X101771753Y-109755857D01*
X101783818Y-109758612D01*
X101876482Y-109778946D01*
X101887525Y-109781280D01*
X101977595Y-109799584D01*
X101985598Y-109801163D01*
X102078294Y-109818920D01*
X102082181Y-109819654D01*
X102182721Y-109838347D01*
X102182773Y-109838357D01*
X102295146Y-109859241D01*
X102423515Y-109883591D01*
X102575726Y-109913373D01*
X102632437Y-109924654D01*
X102657509Y-109927123D01*
X102698362Y-109931147D01*
X102698364Y-109931148D01*
X102744136Y-109935656D01*
X102830862Y-109944199D01*
X102830870Y-109944199D01*
X102830880Y-109944200D01*
X108371842Y-109944200D01*
X108461678Y-109947600D01*
X108503435Y-109953028D01*
X108519600Y-109956964D01*
X108526359Y-109959482D01*
X108541516Y-109967072D01*
X108577933Y-109988999D01*
X108640179Y-110029660D01*
X108642635Y-110031258D01*
X108722210Y-110082782D01*
X108744497Y-110096648D01*
X108835005Y-110150717D01*
X108870714Y-110170707D01*
X108895083Y-110183462D01*
X108947030Y-110218172D01*
X109188528Y-110318204D01*
X109444902Y-110369200D01*
X109706298Y-110369200D01*
X109962672Y-110318204D01*
X110204170Y-110218172D01*
X110421513Y-110072948D01*
X110606348Y-109888113D01*
X110751572Y-109670770D01*
X110851604Y-109429272D01*
X110902600Y-109172898D01*
X110902600Y-108911502D01*
X110851604Y-108655128D01*
X110751572Y-108413630D01*
X110606348Y-108196287D01*
X110421513Y-108011452D01*
X110204170Y-107866228D01*
X109962672Y-107766196D01*
X109706298Y-107715200D01*
X109444902Y-107715200D01*
X109188528Y-107766196D01*
X108947030Y-107866228D01*
X108895091Y-107900933D01*
X108870719Y-107913689D01*
X108835005Y-107933682D01*
X108744497Y-107987751D01*
X108722210Y-108001617D01*
X108642635Y-108053141D01*
X108640179Y-108054739D01*
X108577933Y-108095400D01*
X108541516Y-108117327D01*
X108526359Y-108124917D01*
X108519600Y-108127435D01*
X108503435Y-108131371D01*
X108461677Y-108136799D01*
X108371834Y-108140200D01*
X103067588Y-108140200D01*
X103040054Y-108045093D01*
X103035938Y-108032604D01*
X103028404Y-107994728D01*
X102928372Y-107753230D01*
X102783148Y-107535887D01*
X102598313Y-107351052D01*
X102380970Y-107205828D01*
X102139472Y-107105796D01*
X101883098Y-107054800D01*
X101621702Y-107054800D01*
X101365328Y-107105796D01*
X101123830Y-107205828D01*
X100906487Y-107351052D01*
X100721652Y-107535887D01*
X100576428Y-107753230D01*
X100476396Y-107994728D01*
X100425400Y-108251102D01*
X98894000Y-108251102D01*
X98894000Y-105131802D01*
X103278000Y-105131802D01*
X103278000Y-105393198D01*
X103328996Y-105649572D01*
X103429028Y-105891070D01*
X103574252Y-106108413D01*
X103759087Y-106293248D01*
X103976430Y-106438472D01*
X104217928Y-106538504D01*
X104474302Y-106589500D01*
X104735698Y-106589500D01*
X104992072Y-106538504D01*
X105233570Y-106438472D01*
X105450913Y-106293248D01*
X105635748Y-106108413D01*
X105780972Y-105891070D01*
X105881004Y-105649572D01*
X105932000Y-105393198D01*
X105932000Y-105131802D01*
X105881004Y-104875428D01*
X105780972Y-104633930D01*
X105750670Y-104588580D01*
X105741674Y-104570983D01*
X105730269Y-104549564D01*
X105682199Y-104462808D01*
X105678578Y-104456350D01*
X105637929Y-104384718D01*
X105611733Y-104336142D01*
X105600245Y-104311529D01*
X105597342Y-104303469D01*
X105596097Y-104298259D01*
X105593853Y-104279806D01*
X105592996Y-104235369D01*
X105596047Y-104187713D01*
X105615672Y-104089053D01*
X105649021Y-103979115D01*
X105692982Y-103872982D01*
X105747137Y-103771666D01*
X105810963Y-103676143D01*
X105883845Y-103587337D01*
X106604881Y-102866302D01*
X119323000Y-102866302D01*
X119323000Y-103127698D01*
X119373996Y-103384072D01*
X119474028Y-103625570D01*
X119619252Y-103842913D01*
X119804087Y-104027748D01*
X120021430Y-104172972D01*
X120262928Y-104273004D01*
X120519302Y-104324000D01*
X120780698Y-104324000D01*
X121037072Y-104273004D01*
X121278570Y-104172972D01*
X121327845Y-104140048D01*
X121354895Y-104125292D01*
X121381429Y-104109988D01*
X121499265Y-104172972D01*
X121523367Y-104185855D01*
X121674118Y-104248298D01*
X121674129Y-104248301D01*
X121674133Y-104248303D01*
X121830276Y-104295668D01*
X121830284Y-104295670D01*
X121990319Y-104327503D01*
X122014617Y-104329896D01*
X122020201Y-104330446D01*
X122020207Y-104330448D01*
X122112870Y-104339575D01*
X122152697Y-104343498D01*
X122152703Y-104343498D01*
X122152723Y-104343500D01*
X123154254Y-104343500D01*
X123335871Y-104361387D01*
X123514865Y-104396991D01*
X123689517Y-104449971D01*
X123858118Y-104519808D01*
X124019069Y-104605838D01*
X124170812Y-104707229D01*
X124311886Y-104823006D01*
X125892013Y-106403133D01*
X125953116Y-106469043D01*
X125978814Y-106502420D01*
X125987460Y-106516633D01*
X125990456Y-106523187D01*
X125995810Y-106539279D01*
X126006052Y-106580522D01*
X126021315Y-106653290D01*
X126021925Y-106656170D01*
X126041761Y-106748871D01*
X126047713Y-106774425D01*
X126073479Y-106876657D01*
X126084595Y-106916048D01*
X126092809Y-106942304D01*
X126104996Y-107003572D01*
X126205028Y-107245070D01*
X126350252Y-107462413D01*
X126457862Y-107570023D01*
X126358836Y-107594982D01*
X126319449Y-107606097D01*
X126293206Y-107614307D01*
X126231928Y-107626496D01*
X125990430Y-107726528D01*
X125773087Y-107871752D01*
X125588252Y-108056587D01*
X125443028Y-108273930D01*
X125342996Y-108515428D01*
X125292000Y-108771802D01*
X125292000Y-109033198D01*
X125342996Y-109289572D01*
X125443028Y-109531070D01*
X125588252Y-109748413D01*
X125773087Y-109933248D01*
X125990430Y-110078472D01*
X126231928Y-110178504D01*
X126488302Y-110229500D01*
X126749698Y-110229500D01*
X127006072Y-110178504D01*
X127247570Y-110078472D01*
X127464913Y-109933248D01*
X127649748Y-109748413D01*
X127794972Y-109531070D01*
X127895004Y-109289572D01*
X127907193Y-109228295D01*
X127915406Y-109202041D01*
X127926520Y-109162656D01*
X127952286Y-109060424D01*
X127958239Y-109034864D01*
X127978074Y-108942164D01*
X127978683Y-108939290D01*
X127993946Y-108866522D01*
X128004189Y-108825278D01*
X128009543Y-108809185D01*
X128012538Y-108802632D01*
X128021182Y-108788423D01*
X128046877Y-108755050D01*
X128108000Y-108689119D01*
X128634941Y-108162177D01*
X128634946Y-108162171D01*
X128634950Y-108162167D01*
X128709120Y-108071789D01*
X128719415Y-108059245D01*
X128719415Y-108059244D01*
X128801578Y-107959128D01*
X128810613Y-107948119D01*
X128950284Y-107739087D01*
X128964457Y-107717876D01*
X129094984Y-107473675D01*
X129112897Y-107430429D01*
X129200950Y-107217851D01*
X129200951Y-107217848D01*
X129200955Y-107217838D01*
X129281333Y-106952866D01*
X129281336Y-106952856D01*
X129299777Y-106860147D01*
X129325808Y-106741619D01*
X129348012Y-106659486D01*
X129367688Y-106600467D01*
X129386220Y-106554782D01*
X129407327Y-106510636D01*
X129435979Y-106457223D01*
X129475754Y-106387143D01*
X129523629Y-106302793D01*
X129530253Y-106290865D01*
X129582427Y-106194784D01*
X129592536Y-106175482D01*
X129608347Y-106144162D01*
X129636472Y-106102070D01*
X129736504Y-105860572D01*
X129760090Y-105741997D01*
X129783407Y-105637935D01*
X129790876Y-105599868D01*
X129811127Y-105479778D01*
X129817289Y-105434661D01*
X129828489Y-105327787D01*
X129831876Y-105280842D01*
X129835807Y-105181781D01*
X129836284Y-105141229D01*
X129834725Y-105044581D01*
X129833806Y-105017922D01*
X129828538Y-104918285D01*
X129827944Y-104908349D01*
X129820910Y-104802750D01*
X129814125Y-104690197D01*
X129809095Y-104566045D01*
X129807000Y-104415143D01*
X129807000Y-102426920D01*
X129810570Y-102316595D01*
X129817820Y-102249793D01*
X129826573Y-102205397D01*
X129837187Y-102168860D01*
X129853728Y-102124542D01*
X129881165Y-102060152D01*
X129917077Y-101977850D01*
X129924394Y-101960468D01*
X129962195Y-101867316D01*
X129975112Y-101833031D01*
X130012195Y-101726540D01*
X130025764Y-101683271D01*
X130033532Y-101655495D01*
X130054004Y-101606072D01*
X130105000Y-101349698D01*
X130105000Y-101088302D01*
X130054004Y-100831928D01*
X129953972Y-100590430D01*
X129808748Y-100373087D01*
X129623913Y-100188252D01*
X129406570Y-100043028D01*
X129165072Y-99942996D01*
X128908698Y-99892000D01*
X128647302Y-99892000D01*
X128390928Y-99942996D01*
X128149430Y-100043028D01*
X127932087Y-100188252D01*
X127747252Y-100373087D01*
X127602028Y-100590430D01*
X127501996Y-100831928D01*
X127451000Y-101088302D01*
X127451000Y-101349698D01*
X127501996Y-101606072D01*
X127602028Y-101847570D01*
X127747252Y-102064913D01*
X127794675Y-102112336D01*
X127813603Y-102135431D01*
X127832589Y-102157668D01*
X127899536Y-102232962D01*
X127906361Y-102240532D01*
X127962589Y-102302013D01*
X127997279Y-102341680D01*
X127998173Y-102342847D01*
X127999866Y-102354570D01*
X128003001Y-102430229D01*
X128003000Y-104226035D01*
X127956802Y-104245804D01*
X127831930Y-104297528D01*
X127614587Y-104442752D01*
X127429752Y-104627587D01*
X127284528Y-104844930D01*
X127184496Y-105086428D01*
X127174971Y-105134315D01*
X127167633Y-105127513D01*
X125524844Y-103484724D01*
X125524432Y-103484386D01*
X125246755Y-103256501D01*
X125246748Y-103256496D01*
X125246744Y-103256493D01*
X124947631Y-103056633D01*
X124947622Y-103056627D01*
X124630360Y-102887048D01*
X124630353Y-102887045D01*
X124630351Y-102887044D01*
X124297994Y-102749377D01*
X124297991Y-102749376D01*
X124297981Y-102749372D01*
X123953732Y-102644946D01*
X123953724Y-102644944D01*
X123600896Y-102574762D01*
X123600888Y-102574761D01*
X123600882Y-102574760D01*
X123288106Y-102543956D01*
X123242868Y-102539500D01*
X122293620Y-102539500D01*
X122277868Y-102523748D01*
X122249857Y-102500760D01*
X122151726Y-102420226D01*
X122151725Y-102420225D01*
X122113394Y-102394613D01*
X122028379Y-102322746D01*
X122023045Y-102318281D01*
X121940876Y-102250158D01*
X121927736Y-102239519D01*
X121850527Y-102178481D01*
X121829392Y-102162391D01*
X121752249Y-102105859D01*
X121725606Y-102087236D01*
X121643637Y-102032626D01*
X121615844Y-102015004D01*
X121524152Y-101959738D01*
X121499386Y-101945467D01*
X121393080Y-101886962D01*
X121373500Y-101876572D01*
X121323242Y-101850877D01*
X121278570Y-101821028D01*
X121037072Y-101720996D01*
X120780698Y-101670000D01*
X120519302Y-101670000D01*
X120262928Y-101720996D01*
X120021430Y-101821028D01*
X119804087Y-101966252D01*
X119619252Y-102151087D01*
X119474028Y-102368430D01*
X119373996Y-102609928D01*
X119323000Y-102866302D01*
X106604881Y-102866302D01*
X106672624Y-102798560D01*
X106758958Y-102693361D01*
X106910301Y-102508949D01*
X106910306Y-102508942D01*
X107118446Y-102197437D01*
X107132822Y-102170541D01*
X107284080Y-101887558D01*
X107295056Y-101867024D01*
X107438427Y-101520899D01*
X107438428Y-101520897D01*
X107438433Y-101520884D01*
X107547185Y-101162374D01*
X107563908Y-101078300D01*
X107620275Y-100794928D01*
X107621650Y-100780967D01*
X107656999Y-100422081D01*
X107656999Y-100422079D01*
X107657000Y-100422069D01*
X107657000Y-100143405D01*
X107674902Y-99961634D01*
X107710539Y-99782476D01*
X107763564Y-99607678D01*
X107833467Y-99438918D01*
X107919570Y-99277830D01*
X108021055Y-99125947D01*
X108136930Y-98984753D01*
X109189915Y-97931770D01*
X109236044Y-97887902D01*
X134461400Y-97887902D01*
X134461400Y-98149298D01*
X134512396Y-98405672D01*
X134612428Y-98647170D01*
X134652228Y-98706735D01*
X134666371Y-98733111D01*
X134694920Y-98781726D01*
X134753765Y-98873581D01*
X134776942Y-98907600D01*
X134834460Y-98987089D01*
X134843570Y-98999404D01*
X134892535Y-99064154D01*
X134907742Y-99085400D01*
X134892535Y-99106645D01*
X134843570Y-99171395D01*
X134834460Y-99183710D01*
X134776942Y-99263199D01*
X134753765Y-99297218D01*
X134694920Y-99389073D01*
X134666370Y-99437690D01*
X134652226Y-99464068D01*
X134612428Y-99523630D01*
X134512396Y-99765128D01*
X134461400Y-100021502D01*
X134461400Y-100282898D01*
X134512396Y-100539272D01*
X134612428Y-100780770D01*
X134757652Y-100998113D01*
X134942487Y-101182948D01*
X135159830Y-101328172D01*
X135401328Y-101428204D01*
X135657702Y-101479200D01*
X135919098Y-101479200D01*
X136175472Y-101428204D01*
X136416970Y-101328172D01*
X136634313Y-101182948D01*
X136819148Y-100998113D01*
X136964372Y-100780770D01*
X137064404Y-100539272D01*
X137115400Y-100282898D01*
X137115400Y-100021502D01*
X137064404Y-99765128D01*
X136964372Y-99523630D01*
X136924571Y-99464063D01*
X136910427Y-99437686D01*
X136881879Y-99389073D01*
X136823034Y-99297218D01*
X136799857Y-99263199D01*
X136742339Y-99183710D01*
X136733229Y-99171395D01*
X136684264Y-99106645D01*
X136669057Y-99085400D01*
X136684264Y-99064154D01*
X136733229Y-98999404D01*
X136742339Y-98987089D01*
X136799857Y-98907600D01*
X136823034Y-98873581D01*
X136881879Y-98781726D01*
X136910425Y-98733116D01*
X136924567Y-98706743D01*
X136964372Y-98647170D01*
X137064404Y-98405672D01*
X137115400Y-98149298D01*
X137115400Y-97887902D01*
X137064404Y-97631528D01*
X136964372Y-97390030D01*
X136819148Y-97172687D01*
X136794045Y-97147584D01*
X136885851Y-97185611D01*
X137093925Y-97227000D01*
X137306075Y-97227000D01*
X137514149Y-97185611D01*
X137710151Y-97104425D01*
X137886547Y-96986560D01*
X138036560Y-96836547D01*
X138154425Y-96660151D01*
X138235611Y-96464149D01*
X138277000Y-96256075D01*
X138277000Y-96043925D01*
X138235611Y-95835851D01*
X138154425Y-95639849D01*
X138036560Y-95463453D01*
X137886547Y-95313440D01*
X137791603Y-95250000D01*
X137886547Y-95186560D01*
X138036560Y-95036547D01*
X138154425Y-94860151D01*
X138235611Y-94664149D01*
X138277000Y-94456075D01*
X138277000Y-94243925D01*
X138235611Y-94035851D01*
X138154425Y-93839849D01*
X138036560Y-93663453D01*
X137886547Y-93513440D01*
X137710151Y-93395575D01*
X137514149Y-93314389D01*
X137306075Y-93273000D01*
X137093925Y-93273000D01*
X136885851Y-93314389D01*
X136689849Y-93395575D01*
X136513453Y-93513440D01*
X136363440Y-93663453D01*
X136245575Y-93839849D01*
X136164389Y-94035851D01*
X136123000Y-94243925D01*
X136123000Y-94456075D01*
X136164389Y-94664149D01*
X136245575Y-94860151D01*
X136363440Y-95036547D01*
X136513453Y-95186560D01*
X136608397Y-95250000D01*
X136513453Y-95313440D01*
X136363440Y-95463453D01*
X136245575Y-95639849D01*
X136164389Y-95835851D01*
X136123000Y-96043925D01*
X136123000Y-96256075D01*
X136164389Y-96464149D01*
X136245575Y-96660151D01*
X136348573Y-96814297D01*
X136175472Y-96742596D01*
X135919098Y-96691600D01*
X135657702Y-96691600D01*
X135401328Y-96742596D01*
X135159830Y-96842628D01*
X134942487Y-96987852D01*
X134757652Y-97172687D01*
X134612428Y-97390030D01*
X134512396Y-97631528D01*
X134461400Y-97887902D01*
X109236044Y-97887902D01*
X109264493Y-97860848D01*
X109313724Y-97819491D01*
X109345868Y-97796441D01*
X109366951Y-97783964D01*
X109387489Y-97774159D01*
X109419901Y-97761621D01*
X109473735Y-97743950D01*
X109551933Y-97720259D01*
X109554055Y-97719613D01*
X109649479Y-97690385D01*
X109664791Y-97685509D01*
X109685470Y-97678671D01*
X109734072Y-97669004D01*
X109975570Y-97568972D01*
X110192913Y-97423748D01*
X110377748Y-97238913D01*
X110522972Y-97021570D01*
X110623004Y-96780072D01*
X110674000Y-96523698D01*
X110674000Y-96262302D01*
X110623004Y-96005928D01*
X110522972Y-95764430D01*
X110377748Y-95547087D01*
X110192913Y-95362252D01*
X109975570Y-95217028D01*
X109734072Y-95116996D01*
X109477698Y-95066000D01*
X109216302Y-95066000D01*
X108959928Y-95116996D01*
X108718430Y-95217028D01*
X108501087Y-95362252D01*
X108316252Y-95547087D01*
X108171028Y-95764430D01*
X108070996Y-96005928D01*
X108061329Y-96054529D01*
X108054494Y-96075199D01*
X108049617Y-96090513D01*
X108020388Y-96185937D01*
X108019740Y-96188065D01*
X107996049Y-96266263D01*
X107978379Y-96320093D01*
X107965843Y-96352501D01*
X107956034Y-96373045D01*
X107943549Y-96394142D01*
X107920517Y-96426261D01*
X107879143Y-96475514D01*
X107808228Y-96550085D01*
X106789352Y-97568960D01*
X106687368Y-97670943D01*
X106451142Y-97958786D01*
X106449691Y-97960554D01*
X106241551Y-98272059D01*
X106241548Y-98272065D01*
X106064942Y-98602471D01*
X106064940Y-98602476D01*
X105921569Y-98948601D01*
X105913189Y-98976228D01*
X105812813Y-99307120D01*
X105812811Y-99307130D01*
X105739722Y-99674574D01*
X105734747Y-99725090D01*
X105716408Y-99911297D01*
X105703000Y-100047428D01*
X105703000Y-100326087D01*
X105685096Y-100507864D01*
X105649460Y-100687015D01*
X105596435Y-100861817D01*
X105526533Y-101030573D01*
X105440425Y-101191668D01*
X105338942Y-101343548D01*
X105223068Y-101484742D01*
X104434281Y-102273529D01*
X104434276Y-102273535D01*
X104239605Y-102510742D01*
X104239603Y-102510746D01*
X104239599Y-102510750D01*
X104069116Y-102765897D01*
X104059560Y-102783776D01*
X103924459Y-103036531D01*
X103924456Y-103036537D01*
X103924456Y-103036538D01*
X103854324Y-103205853D01*
X103807023Y-103320048D01*
X103718094Y-103613208D01*
X103717943Y-103613707D01*
X103658578Y-103912164D01*
X103658078Y-103914680D01*
X103653400Y-103962176D01*
X103639766Y-104081903D01*
X103626567Y-104168215D01*
X103613847Y-104230454D01*
X103601747Y-104275652D01*
X103588907Y-104313600D01*
X103572035Y-104355086D01*
X103547210Y-104408925D01*
X103511934Y-104480428D01*
X103467103Y-104569677D01*
X103464690Y-104574525D01*
X103453343Y-104597540D01*
X103429028Y-104633930D01*
X103328996Y-104875428D01*
X103278000Y-105131802D01*
X98894000Y-105131802D01*
X98894000Y-103407371D01*
X98893873Y-103406075D01*
X98885399Y-103320048D01*
X98879863Y-103263839D01*
X98879863Y-103263838D01*
X98871481Y-103178740D01*
X98865798Y-103121038D01*
X98811935Y-102850256D01*
X98809668Y-102838860D01*
X98726153Y-102563547D01*
X98726150Y-102563539D01*
X98616050Y-102297736D01*
X98614717Y-102295242D01*
X98480427Y-102044002D01*
X98480426Y-102044000D01*
X98480423Y-102043995D01*
X98320585Y-101804781D01*
X98309093Y-101790777D01*
X98147342Y-101593685D01*
X98138059Y-101582373D01*
X97934624Y-101378938D01*
X97914744Y-101362623D01*
X97712222Y-101196417D01*
X97712218Y-101196415D01*
X97712214Y-101196411D01*
X97473001Y-101036574D01*
X97362201Y-100977351D01*
X97315835Y-100952568D01*
X97050576Y-100808931D01*
X96830131Y-100686309D01*
X96641837Y-100578968D01*
X96473896Y-100481568D01*
X96418517Y-100449319D01*
X96418517Y-100400000D01*
X96404480Y-100257483D01*
X96362910Y-100120443D01*
X96295403Y-99994147D01*
X96204554Y-99883446D01*
X96093853Y-99792597D01*
X95967557Y-99725090D01*
X95830517Y-99683520D01*
X95688000Y-99669483D01*
X93288000Y-99669483D01*
X93145483Y-99683520D01*
X93008443Y-99725090D01*
X92882147Y-99792597D01*
X92798000Y-99861654D01*
X92798000Y-98090197D01*
X92805293Y-98016142D01*
X92819810Y-97943161D01*
X92841414Y-97871941D01*
X92869890Y-97803193D01*
X92904975Y-97737554D01*
X92946320Y-97675678D01*
X92993528Y-97618155D01*
X93185807Y-97425876D01*
X93219385Y-97384961D01*
X93337482Y-97241060D01*
X93337484Y-97241057D01*
X93337489Y-97241051D01*
X93341181Y-97235525D01*
X93401239Y-97161557D01*
X93408017Y-97153081D01*
X93522303Y-97007950D01*
X93532213Y-96995072D01*
X93627904Y-96867802D01*
X93640883Y-96849983D01*
X93722211Y-96734698D01*
X93737115Y-96712730D01*
X93740999Y-96706774D01*
X93779517Y-96702980D01*
X93916557Y-96661410D01*
X94042853Y-96593903D01*
X94153554Y-96503054D01*
X94244403Y-96392353D01*
X94289465Y-96308049D01*
X94374789Y-96393373D01*
X94510726Y-96257436D01*
X94580820Y-96521618D01*
X94855818Y-96643488D01*
X95149308Y-96709366D01*
X95450011Y-96716722D01*
X95746371Y-96665271D01*
X96026998Y-96556992D01*
X96093180Y-96521618D01*
X96163275Y-96257434D01*
X95337000Y-95431159D01*
X95322858Y-95445301D01*
X95078199Y-95200642D01*
X95092341Y-95186500D01*
X95581659Y-95186500D01*
X96407934Y-96012775D01*
X96672118Y-95942680D01*
X96793988Y-95667682D01*
X96859866Y-95374192D01*
X96867222Y-95073489D01*
X96815771Y-94777129D01*
X96707492Y-94496502D01*
X96672118Y-94430320D01*
X96407934Y-94360225D01*
X95581659Y-95186500D01*
X95092341Y-95186500D01*
X95078199Y-95172358D01*
X95322858Y-94927699D01*
X95337000Y-94941841D01*
X96163275Y-94115566D01*
X96093180Y-93851382D01*
X95818182Y-93729512D01*
X95524692Y-93663634D01*
X95223989Y-93656278D01*
X94927629Y-93707729D01*
X94647002Y-93816008D01*
X94580820Y-93851382D01*
X94510726Y-94115564D01*
X94374789Y-93979627D01*
X94289465Y-94064951D01*
X94244403Y-93980647D01*
X94153554Y-93869946D01*
X94042853Y-93779097D01*
X93916557Y-93711590D01*
X93779517Y-93670020D01*
X93637000Y-93655983D01*
X92037000Y-93655983D01*
X91894483Y-93670020D01*
X91757443Y-93711590D01*
X91631147Y-93779097D01*
X91520446Y-93869946D01*
X91429597Y-93980647D01*
X91362090Y-94106943D01*
X91320520Y-94243983D01*
X91306483Y-94386500D01*
X91306483Y-95986500D01*
X91320520Y-96129017D01*
X91362090Y-96266057D01*
X91429597Y-96392353D01*
X91450668Y-96418029D01*
X91374962Y-96510277D01*
X91374959Y-96510282D01*
X91374957Y-96510284D01*
X91264049Y-96676270D01*
X91226952Y-96731789D01*
X91101371Y-96966732D01*
X91101366Y-96966744D01*
X91101365Y-96966746D01*
X91086697Y-97002158D01*
X91063701Y-97057677D01*
X91007468Y-97193436D01*
X90999417Y-97212873D01*
X90932294Y-97434151D01*
X90922084Y-97467807D01*
X90922000Y-97468229D01*
X90922000Y-92192000D01*
X146558000Y-92192000D01*
X146558000Y-126248000D01*
G04 #@! TA.AperFunction,Conductor*
D23*
G36*
X146558000Y-126248000D02*
G01*
X90922000Y-126248000D01*
X90922000Y-125354017D01*
X91055888Y-125463896D01*
X91355908Y-125624260D01*
X91681449Y-125723012D01*
X91935159Y-125748000D01*
X93104841Y-125748000D01*
X93358551Y-125723012D01*
X93684092Y-125624260D01*
X93984112Y-125463896D01*
X94247082Y-125248082D01*
X94462896Y-124985112D01*
X94623260Y-124685092D01*
X94722012Y-124359551D01*
X94752697Y-124048000D01*
X95760268Y-124048000D01*
X95940534Y-124030245D01*
X96171824Y-123960084D01*
X96384983Y-123846149D01*
X96571817Y-123692817D01*
X96725149Y-123505983D01*
X96839084Y-123292824D01*
X96909245Y-123061534D01*
X96932936Y-122821000D01*
X96909245Y-122580466D01*
X96839084Y-122349176D01*
X96725149Y-122136017D01*
X96571817Y-121949183D01*
X96384983Y-121795851D01*
X96171824Y-121681916D01*
X95940534Y-121611755D01*
X95760268Y-121594000D01*
X94639732Y-121594000D01*
X94459466Y-121611755D01*
X94228176Y-121681916D01*
X94015017Y-121795851D01*
X93828183Y-121949183D01*
X93674851Y-122136017D01*
X93560916Y-122349176D01*
X93552249Y-122377746D01*
X93358551Y-122318988D01*
X93104841Y-122294000D01*
X91935159Y-122294000D01*
X91681449Y-122318988D01*
X91355908Y-122417740D01*
X91055888Y-122578104D01*
X90922000Y-122687983D01*
X90922000Y-119249302D01*
X98876000Y-119249302D01*
X98876000Y-119510698D01*
X98926996Y-119767072D01*
X99027028Y-120008570D01*
X99061737Y-120060515D01*
X99074491Y-120084883D01*
X99094482Y-120120594D01*
X99148551Y-120211102D01*
X99162417Y-120233389D01*
X99213941Y-120312964D01*
X99215539Y-120315420D01*
X99256200Y-120377666D01*
X99278127Y-120414083D01*
X99285717Y-120429240D01*
X99288235Y-120435999D01*
X99292171Y-120452164D01*
X99297599Y-120493921D01*
X99298700Y-120522999D01*
X99297599Y-120552077D01*
X99292171Y-120593835D01*
X99288235Y-120610000D01*
X99285717Y-120616759D01*
X99278127Y-120631916D01*
X99256200Y-120668333D01*
X99215539Y-120730579D01*
X99213941Y-120733035D01*
X99162417Y-120812610D01*
X99148551Y-120834897D01*
X99094482Y-120925405D01*
X99074489Y-120961119D01*
X99061733Y-120985491D01*
X99027028Y-121037430D01*
X98926996Y-121278928D01*
X98876000Y-121535302D01*
X98876000Y-121796698D01*
X98926996Y-122053072D01*
X99027028Y-122294570D01*
X99172252Y-122511913D01*
X99357087Y-122696748D01*
X99574430Y-122841972D01*
X99815928Y-122942004D01*
X100072302Y-122993000D01*
X100333698Y-122993000D01*
X100590072Y-122942004D01*
X100831570Y-122841972D01*
X101048913Y-122696748D01*
X101233748Y-122511913D01*
X101378972Y-122294570D01*
X101479004Y-122053072D01*
X101530000Y-121796698D01*
X101530000Y-121535302D01*
X101479004Y-121278928D01*
X101378972Y-121037430D01*
X101344262Y-120985483D01*
X101331507Y-120961114D01*
X101311517Y-120925405D01*
X101257448Y-120834897D01*
X101243582Y-120812610D01*
X101192058Y-120733035D01*
X101190460Y-120730579D01*
X101149799Y-120668333D01*
X101127872Y-120631916D01*
X101120282Y-120616759D01*
X101117764Y-120610000D01*
X101113828Y-120593835D01*
X101108400Y-120552078D01*
X101107299Y-120523000D01*
X101108400Y-120493921D01*
X101113828Y-120452164D01*
X101117764Y-120435999D01*
X101120282Y-120429240D01*
X101127872Y-120414083D01*
X101149799Y-120377666D01*
X101190460Y-120315420D01*
X101192058Y-120312964D01*
X101243582Y-120233389D01*
X101257448Y-120211102D01*
X101311517Y-120120594D01*
X101331506Y-120084887D01*
X101344260Y-120060520D01*
X101378972Y-120008570D01*
X101479004Y-119767072D01*
X101530000Y-119510698D01*
X101530000Y-119249302D01*
X101479004Y-118992928D01*
X101378972Y-118751430D01*
X101287346Y-118614302D01*
X109290000Y-118614302D01*
X109290000Y-118875698D01*
X109340996Y-119132072D01*
X109441028Y-119373570D01*
X109586252Y-119590913D01*
X109771087Y-119775748D01*
X109988430Y-119920972D01*
X110229928Y-120021004D01*
X110294506Y-120033849D01*
X110334254Y-120044948D01*
X110350000Y-120048783D01*
X110350000Y-120394243D01*
X110351599Y-120410481D01*
X110373301Y-120630832D01*
X110373303Y-120630841D01*
X110373303Y-120630843D01*
X110413491Y-120832881D01*
X110419684Y-120864017D01*
X110485321Y-121080390D01*
X110488694Y-121091508D01*
X110542686Y-121221859D01*
X110596425Y-121354437D01*
X110637808Y-121461943D01*
X110670493Y-121552242D01*
X110697437Y-121631816D01*
X110721698Y-121707988D01*
X110746149Y-121787951D01*
X110772287Y-121874220D01*
X110773582Y-121878448D01*
X110802994Y-121973439D01*
X110805625Y-121981761D01*
X110840252Y-122089020D01*
X110843615Y-122099179D01*
X110856408Y-122136898D01*
X110864996Y-122180072D01*
X110965028Y-122421570D01*
X111110252Y-122638913D01*
X111295087Y-122823748D01*
X111512430Y-122968972D01*
X111753928Y-123069004D01*
X112010302Y-123120000D01*
X112271698Y-123120000D01*
X112528072Y-123069004D01*
X112769570Y-122968972D01*
X112986913Y-122823748D01*
X113171748Y-122638913D01*
X113316972Y-122421570D01*
X113417004Y-122180072D01*
X113468000Y-121923698D01*
X113468000Y-121662302D01*
X113417004Y-121405928D01*
X113316972Y-121164430D01*
X113171748Y-120947087D01*
X112986913Y-120762252D01*
X112769570Y-120617028D01*
X112528072Y-120516996D01*
X112449526Y-120501372D01*
X112435883Y-120497375D01*
X112378064Y-120482979D01*
X112277741Y-120462326D01*
X112244792Y-120456331D01*
X112177981Y-120445757D01*
X112171728Y-120425144D01*
X112159929Y-120365826D01*
X112154000Y-120305629D01*
X112154000Y-119731450D01*
X112153959Y-119731028D01*
X112148523Y-119675842D01*
X112140948Y-119598934D01*
X112140947Y-119598931D01*
X112135345Y-119542059D01*
X112134871Y-119537245D01*
X112134363Y-119534693D01*
X112128671Y-119478279D01*
X112128013Y-119472030D01*
X112112947Y-119334620D01*
X112111598Y-119323151D01*
X112096738Y-119204977D01*
X112094289Y-119187265D01*
X112078560Y-119082971D01*
X112074618Y-119059459D01*
X112056946Y-118963693D01*
X112051519Y-118937079D01*
X112030829Y-118844488D01*
X112024677Y-118819105D01*
X111999895Y-118724336D01*
X111994261Y-118704002D01*
X111964312Y-118601701D01*
X111960168Y-118588046D01*
X111923978Y-118472861D01*
X111921590Y-118465402D01*
X111903106Y-118408715D01*
X111893004Y-118357928D01*
X111792972Y-118116430D01*
X111647748Y-117899087D01*
X111462913Y-117714252D01*
X111245570Y-117569028D01*
X111162942Y-117534802D01*
X115386000Y-117534802D01*
X115386000Y-117796198D01*
X115436996Y-118052572D01*
X115537028Y-118294070D01*
X115563920Y-118334317D01*
X115579037Y-118364485D01*
X115586918Y-118379758D01*
X115637601Y-118475202D01*
X115641960Y-118483288D01*
X115687100Y-118565762D01*
X115723556Y-118633160D01*
X115750106Y-118685514D01*
X115770328Y-118730397D01*
X115788748Y-118778456D01*
X115808503Y-118840624D01*
X115830803Y-118925882D01*
X115856858Y-119045969D01*
X115896577Y-119245651D01*
X115896579Y-119245657D01*
X115896579Y-119245658D01*
X115981329Y-119525044D01*
X115981333Y-119525053D01*
X115981333Y-119525054D01*
X116093059Y-119794788D01*
X116093062Y-119794793D01*
X116093065Y-119794801D01*
X116230694Y-120052286D01*
X116230700Y-120052296D01*
X116392903Y-120295050D01*
X116407605Y-120312964D01*
X116578125Y-120520744D01*
X116578132Y-120520752D01*
X118104003Y-122046624D01*
X118162962Y-122110297D01*
X118186071Y-122140489D01*
X118191743Y-122149969D01*
X118191762Y-122150012D01*
X118194310Y-122158329D01*
X118201330Y-122191486D01*
X118212134Y-122258052D01*
X118226299Y-122349010D01*
X118229601Y-122368474D01*
X118248498Y-122471361D01*
X118255890Y-122506652D01*
X118272121Y-122575588D01*
X118294496Y-122688072D01*
X118394528Y-122929570D01*
X118539752Y-123146913D01*
X118724587Y-123331748D01*
X118941930Y-123476972D01*
X119183428Y-123577004D01*
X119439802Y-123628000D01*
X119701198Y-123628000D01*
X119957572Y-123577004D01*
X120199070Y-123476972D01*
X120416413Y-123331748D01*
X120601248Y-123146913D01*
X120746472Y-122929570D01*
X120846504Y-122688072D01*
X120897500Y-122431698D01*
X120897500Y-122170302D01*
X120846504Y-121913928D01*
X120794883Y-121789302D01*
X131388000Y-121789302D01*
X131388000Y-122050698D01*
X131438996Y-122307072D01*
X131539028Y-122548570D01*
X131684252Y-122765913D01*
X131869087Y-122950748D01*
X132086430Y-123095972D01*
X132327928Y-123196004D01*
X132584302Y-123247000D01*
X132845698Y-123247000D01*
X133102072Y-123196004D01*
X133343570Y-123095972D01*
X133396901Y-123060338D01*
X133462858Y-123025271D01*
X133488917Y-123011640D01*
X133507528Y-123056570D01*
X133652752Y-123273913D01*
X133837587Y-123458748D01*
X134054930Y-123603972D01*
X134296428Y-123704004D01*
X134552802Y-123755000D01*
X134814198Y-123755000D01*
X135070572Y-123704004D01*
X135312070Y-123603972D01*
X135529413Y-123458748D01*
X135714248Y-123273913D01*
X135859472Y-123056570D01*
X135957908Y-122818925D01*
X136123000Y-122818925D01*
X136123000Y-123031075D01*
X136164389Y-123239149D01*
X136245575Y-123435151D01*
X136363440Y-123611547D01*
X136513453Y-123761560D01*
X136608397Y-123825000D01*
X136513453Y-123888440D01*
X136363440Y-124038453D01*
X136245575Y-124214849D01*
X136164389Y-124410851D01*
X136123000Y-124618925D01*
X136123000Y-124831075D01*
X136164389Y-125039149D01*
X136245575Y-125235151D01*
X136363440Y-125411547D01*
X136513453Y-125561560D01*
X136689849Y-125679425D01*
X136885851Y-125760611D01*
X137093925Y-125802000D01*
X137306075Y-125802000D01*
X137514149Y-125760611D01*
X137710151Y-125679425D01*
X137886547Y-125561560D01*
X138036560Y-125411547D01*
X138154425Y-125235151D01*
X138235611Y-125039149D01*
X138277000Y-124831075D01*
X138277000Y-124618925D01*
X138235611Y-124410851D01*
X138154425Y-124214849D01*
X138036560Y-124038453D01*
X137886547Y-123888440D01*
X137791603Y-123825000D01*
X137886547Y-123761560D01*
X138036560Y-123611547D01*
X138154425Y-123435151D01*
X138235611Y-123239149D01*
X138277000Y-123031075D01*
X138277000Y-122818925D01*
X138235611Y-122610851D01*
X138154425Y-122414849D01*
X138036560Y-122238453D01*
X137886547Y-122088440D01*
X137710151Y-121970575D01*
X137514149Y-121889389D01*
X137306075Y-121848000D01*
X137093925Y-121848000D01*
X136885851Y-121889389D01*
X136689849Y-121970575D01*
X136513453Y-122088440D01*
X136363440Y-122238453D01*
X136245575Y-122414849D01*
X136164389Y-122610851D01*
X136123000Y-122818925D01*
X135957908Y-122818925D01*
X135959504Y-122815072D01*
X136010500Y-122558698D01*
X136010500Y-122297302D01*
X135959504Y-122040928D01*
X135866063Y-121815342D01*
X135919313Y-121762092D01*
X135919318Y-121762086D01*
X135919321Y-121762083D01*
X136087287Y-121557414D01*
X136109011Y-121524901D01*
X136234386Y-121337266D01*
X136281711Y-121248728D01*
X136359200Y-121103758D01*
X136359215Y-121103724D01*
X136392955Y-121022268D01*
X136407333Y-120987558D01*
X136407333Y-120987557D01*
X136460528Y-120859135D01*
X136477453Y-120803340D01*
X136537389Y-120605764D01*
X136561927Y-120482407D01*
X136561927Y-120482402D01*
X136564932Y-120467298D01*
X136578088Y-120401157D01*
X136589045Y-120346072D01*
X136589493Y-120341529D01*
X136600639Y-120228360D01*
X136601374Y-120220903D01*
X136602671Y-120207733D01*
X136602672Y-120207730D01*
X136614579Y-120086832D01*
X136614999Y-120082572D01*
X136614999Y-120082571D01*
X136615000Y-120082561D01*
X136615000Y-119059330D01*
X136614999Y-119059320D01*
X136614999Y-119059310D01*
X136608941Y-118997812D01*
X136602672Y-118934161D01*
X136602670Y-118934155D01*
X136597396Y-118880614D01*
X136588298Y-118834879D01*
X136562366Y-118704505D01*
X136562364Y-118704498D01*
X136510240Y-118532668D01*
X136509979Y-118532038D01*
X136441524Y-118366770D01*
X136441521Y-118366763D01*
X136441517Y-118366755D01*
X136356872Y-118208397D01*
X136353907Y-118203959D01*
X136257109Y-118059092D01*
X136257107Y-118059090D01*
X136257104Y-118059085D01*
X136206560Y-117997498D01*
X136177319Y-117961867D01*
X136177317Y-117961866D01*
X136143191Y-117920283D01*
X136143187Y-117920278D01*
X136075407Y-117852498D01*
X136067706Y-117843114D01*
X136060957Y-117833014D01*
X136055232Y-117822303D01*
X136050584Y-117811083D01*
X136047057Y-117799455D01*
X136044691Y-117787557D01*
X136043500Y-117775468D01*
X136043500Y-117271376D01*
X136076802Y-117278000D01*
X136338198Y-117278000D01*
X136594572Y-117227004D01*
X136836070Y-117126972D01*
X137053413Y-116981748D01*
X137238248Y-116796913D01*
X137383472Y-116579570D01*
X137483504Y-116338072D01*
X137534500Y-116081698D01*
X137534500Y-115820302D01*
X137483504Y-115563928D01*
X137383472Y-115322430D01*
X137238248Y-115105087D01*
X137053413Y-114920252D01*
X136977150Y-114869295D01*
X137026500Y-114621198D01*
X137026500Y-114359802D01*
X136975504Y-114103428D01*
X136875472Y-113861930D01*
X136730248Y-113644587D01*
X136545413Y-113459752D01*
X136328070Y-113314528D01*
X136086572Y-113214496D01*
X135830198Y-113163500D01*
X135568802Y-113163500D01*
X135312428Y-113214496D01*
X135070930Y-113314528D01*
X134853587Y-113459752D01*
X134668752Y-113644587D01*
X134523528Y-113861930D01*
X134444521Y-114052670D01*
X134432298Y-114082103D01*
X134431325Y-114084528D01*
X134423496Y-114103428D01*
X134423164Y-114105097D01*
X134388397Y-114194795D01*
X134386468Y-114199826D01*
X134355438Y-114281677D01*
X134331210Y-114342645D01*
X134312690Y-114384050D01*
X134296606Y-114414532D01*
X134277163Y-114445359D01*
X134246752Y-114486231D01*
X134198052Y-114543164D01*
X134120515Y-114624295D01*
X133644462Y-115100348D01*
X133644457Y-115100354D01*
X133644455Y-115100356D01*
X133628356Y-115119973D01*
X133596178Y-115153419D01*
X133573169Y-115178484D01*
X133478782Y-115286259D01*
X133452297Y-115318304D01*
X133376056Y-115416119D01*
X133348492Y-115453933D01*
X133286312Y-115545271D01*
X133261394Y-115584515D01*
X133209186Y-115672859D01*
X133190437Y-115706599D01*
X133144117Y-115795431D01*
X133133274Y-115817098D01*
X133088752Y-115909900D01*
X133085482Y-115916811D01*
X133040104Y-116014005D01*
X132991982Y-116114620D01*
X132964589Y-116168686D01*
X132936028Y-116211430D01*
X132835996Y-116452928D01*
X132785000Y-116709302D01*
X132785000Y-116970698D01*
X132835996Y-117227072D01*
X132936028Y-117468570D01*
X132954191Y-117495753D01*
X132965444Y-117519574D01*
X133003536Y-117605008D01*
X133035051Y-117680402D01*
X133063340Y-117752461D01*
X133091545Y-117827871D01*
X133122235Y-117911860D01*
X133122580Y-117912801D01*
X133156987Y-118006562D01*
X133159091Y-118012223D01*
X133198725Y-118117515D01*
X133201926Y-118125862D01*
X133249225Y-118246978D01*
X133252911Y-118256229D01*
X133277078Y-118315695D01*
X133278874Y-118321616D01*
X133278875Y-118321618D01*
X133373086Y-118549064D01*
X133373253Y-118549468D01*
X133421521Y-118639772D01*
X133421522Y-118639774D01*
X133455796Y-118703895D01*
X133488303Y-118764711D01*
X133489510Y-118766970D01*
X133626520Y-118972020D01*
X133626525Y-118972026D01*
X133764455Y-119140094D01*
X133782978Y-119162664D01*
X133943961Y-119323647D01*
X133978616Y-119365874D01*
X134008971Y-119411303D01*
X134034719Y-119459475D01*
X134055628Y-119509954D01*
X134071488Y-119562234D01*
X134082144Y-119615812D01*
X134087500Y-119670183D01*
X134087500Y-119724814D01*
X134082144Y-119779185D01*
X134071488Y-119832763D01*
X134055628Y-119885043D01*
X134034719Y-119935522D01*
X134008969Y-119983696D01*
X133978619Y-120029119D01*
X133943963Y-120071347D01*
X133292455Y-120722856D01*
X133102072Y-120643996D01*
X132845698Y-120593000D01*
X132584302Y-120593000D01*
X132327928Y-120643996D01*
X132086430Y-120744028D01*
X131869087Y-120889252D01*
X131684252Y-121074087D01*
X131539028Y-121291430D01*
X131438996Y-121532928D01*
X131388000Y-121789302D01*
X120794883Y-121789302D01*
X120746472Y-121672430D01*
X120601248Y-121455087D01*
X120416413Y-121270252D01*
X120375201Y-121242715D01*
X120479913Y-121172748D01*
X120565126Y-121087535D01*
X120719930Y-121190972D01*
X120961428Y-121291004D01*
X121217802Y-121342000D01*
X121479198Y-121342000D01*
X121735572Y-121291004D01*
X121977070Y-121190972D01*
X122194413Y-121045748D01*
X122379248Y-120860913D01*
X122524472Y-120643570D01*
X122624504Y-120402072D01*
X122675500Y-120145698D01*
X122675500Y-119884302D01*
X122624504Y-119627928D01*
X122524472Y-119386430D01*
X122379248Y-119169087D01*
X122194413Y-118984252D01*
X121977070Y-118839028D01*
X121786364Y-118760035D01*
X121756892Y-118747796D01*
X121754477Y-118746827D01*
X121735572Y-118738996D01*
X121733901Y-118738664D01*
X121644198Y-118703895D01*
X121639166Y-118701966D01*
X121557346Y-118670948D01*
X121496352Y-118646710D01*
X121454950Y-118628192D01*
X121424459Y-118612103D01*
X121393637Y-118592663D01*
X121352765Y-118562252D01*
X121295832Y-118513552D01*
X121214708Y-118436021D01*
X119524844Y-116746158D01*
X119443212Y-116660984D01*
X119389661Y-116599081D01*
X119353801Y-116552070D01*
X119328528Y-116513789D01*
X119306477Y-116475028D01*
X119281719Y-116425556D01*
X119250419Y-116357793D01*
X119212161Y-116273478D01*
X119207884Y-116264226D01*
X119162818Y-116168497D01*
X119153966Y-116150351D01*
X119126825Y-116096622D01*
X119095472Y-116020930D01*
X118950248Y-115803587D01*
X118765413Y-115618752D01*
X118548070Y-115473528D01*
X118306572Y-115373496D01*
X118050198Y-115322500D01*
X117788802Y-115322500D01*
X117532428Y-115373496D01*
X117290930Y-115473528D01*
X117073587Y-115618752D01*
X116888752Y-115803587D01*
X116743528Y-116020930D01*
X116643496Y-116262428D01*
X116628364Y-116338500D01*
X116582302Y-116338500D01*
X116325928Y-116389496D01*
X116084430Y-116489528D01*
X115867087Y-116634752D01*
X115682252Y-116819587D01*
X115537028Y-117036930D01*
X115436996Y-117278428D01*
X115386000Y-117534802D01*
X111162942Y-117534802D01*
X111004072Y-117468996D01*
X110747698Y-117418000D01*
X110486302Y-117418000D01*
X110229928Y-117468996D01*
X109988430Y-117569028D01*
X109771087Y-117714252D01*
X109586252Y-117899087D01*
X109441028Y-118116430D01*
X109340996Y-118357928D01*
X109290000Y-118614302D01*
X101287346Y-118614302D01*
X101233748Y-118534087D01*
X101048913Y-118349252D01*
X100831570Y-118204028D01*
X100590072Y-118103996D01*
X100333698Y-118053000D01*
X100072302Y-118053000D01*
X99815928Y-118103996D01*
X99574430Y-118204028D01*
X99357087Y-118349252D01*
X99172252Y-118534087D01*
X99027028Y-118751430D01*
X98926996Y-118992928D01*
X98876000Y-119249302D01*
X90922000Y-119249302D01*
X90922000Y-118104017D01*
X91055888Y-118213896D01*
X91355908Y-118374260D01*
X91681449Y-118473012D01*
X91935159Y-118498000D01*
X93104841Y-118498000D01*
X93358551Y-118473012D01*
X93552249Y-118414254D01*
X93560916Y-118442824D01*
X93674851Y-118655983D01*
X93828183Y-118842817D01*
X94015017Y-118996149D01*
X94228176Y-119110084D01*
X94459466Y-119180245D01*
X94639732Y-119198000D01*
X95760268Y-119198000D01*
X95940534Y-119180245D01*
X96171824Y-119110084D01*
X96384983Y-118996149D01*
X96571817Y-118842817D01*
X96725149Y-118655983D01*
X96839084Y-118442824D01*
X96909245Y-118211534D01*
X96932936Y-117971000D01*
X96909245Y-117730466D01*
X96839084Y-117499176D01*
X96725149Y-117286017D01*
X96571817Y-117099183D01*
X96384983Y-116945851D01*
X96171824Y-116831916D01*
X95940534Y-116761755D01*
X95760268Y-116744000D01*
X94752697Y-116744000D01*
X94722012Y-116432449D01*
X94623260Y-116106908D01*
X94462896Y-115806888D01*
X94247082Y-115543918D01*
X93984112Y-115328104D01*
X93684092Y-115167740D01*
X93358551Y-115068988D01*
X93104841Y-115044000D01*
X91935159Y-115044000D01*
X91681449Y-115068988D01*
X91355908Y-115167740D01*
X91055888Y-115328104D01*
X90922000Y-115437983D01*
X90922000Y-113456955D01*
X93375704Y-113456955D01*
X93494369Y-113761941D01*
X93837689Y-113923855D01*
X94206002Y-114015680D01*
X94585150Y-114033885D01*
X94960566Y-113977774D01*
X95134556Y-113915302D01*
X110306000Y-113915302D01*
X110306000Y-114176698D01*
X110356996Y-114433072D01*
X110457028Y-114674570D01*
X110602252Y-114891913D01*
X110787087Y-115076748D01*
X111004430Y-115221972D01*
X111245928Y-115322004D01*
X111502302Y-115373000D01*
X111763698Y-115373000D01*
X112020072Y-115322004D01*
X112261570Y-115221972D01*
X112478913Y-115076748D01*
X112663748Y-114891913D01*
X112808972Y-114674570D01*
X112909004Y-114433072D01*
X112921193Y-114371795D01*
X112929406Y-114345541D01*
X112940520Y-114306156D01*
X112966286Y-114203924D01*
X112972239Y-114178364D01*
X112992074Y-114085664D01*
X112992683Y-114082790D01*
X113007946Y-114010022D01*
X113018189Y-113968778D01*
X113023543Y-113952685D01*
X113026538Y-113946132D01*
X113035182Y-113931923D01*
X113060877Y-113898550D01*
X113122000Y-113832619D01*
X115059700Y-111894918D01*
X115155907Y-111803654D01*
X115230375Y-111740615D01*
X115296724Y-111690469D01*
X115364263Y-111644009D01*
X115439837Y-111594481D01*
X115445236Y-111590908D01*
X115524810Y-111537740D01*
X115549544Y-111520461D01*
X115628760Y-111462638D01*
X115666352Y-111433260D01*
X115747660Y-111365305D01*
X115788527Y-111328434D01*
X115874375Y-111244872D01*
X115911116Y-111206392D01*
X115961031Y-111150130D01*
X116029248Y-111081913D01*
X116174472Y-110864570D01*
X116274504Y-110623072D01*
X116325500Y-110366698D01*
X116325500Y-110105302D01*
X116274504Y-109848928D01*
X116174472Y-109607430D01*
X116029248Y-109390087D01*
X115844413Y-109205252D01*
X115627070Y-109060028D01*
X115385572Y-108959996D01*
X115129198Y-108909000D01*
X114867802Y-108909000D01*
X114611428Y-108959996D01*
X114369930Y-109060028D01*
X114152587Y-109205252D01*
X113967752Y-109390087D01*
X113822528Y-109607430D01*
X113722496Y-109848928D01*
X113671500Y-110105302D01*
X113671500Y-110366698D01*
X113722496Y-110623072D01*
X113730278Y-110641860D01*
X113736335Y-110667042D01*
X111846373Y-112557006D01*
X111780455Y-112618116D01*
X111747075Y-112643816D01*
X111732865Y-112652461D01*
X111726307Y-112655459D01*
X111710223Y-112660810D01*
X111668976Y-112671053D01*
X111596208Y-112686316D01*
X111593334Y-112686925D01*
X111500634Y-112706760D01*
X111475068Y-112712715D01*
X111372836Y-112738482D01*
X111333449Y-112749597D01*
X111307206Y-112757807D01*
X111245928Y-112769996D01*
X111004430Y-112870028D01*
X110787087Y-113015252D01*
X110602252Y-113200087D01*
X110457028Y-113417430D01*
X110356996Y-113658928D01*
X110306000Y-113915302D01*
X95134556Y-113915302D01*
X95317821Y-113849500D01*
X95481631Y-113761941D01*
X95600296Y-113456955D01*
X94488000Y-112344659D01*
X93375704Y-113456955D01*
X90922000Y-113456955D01*
X90922000Y-112197150D01*
X92554115Y-112197150D01*
X92610226Y-112572566D01*
X92738500Y-112929821D01*
X92826059Y-113093631D01*
X93131045Y-113212296D01*
X94243341Y-112100000D01*
X94732659Y-112100000D01*
X95844955Y-113212296D01*
X96149941Y-113093631D01*
X96311855Y-112750311D01*
X96403680Y-112381998D01*
X96421885Y-112002850D01*
X96365774Y-111627434D01*
X96237500Y-111270179D01*
X96149941Y-111106369D01*
X95844955Y-110987704D01*
X94732659Y-112100000D01*
X94243341Y-112100000D01*
X93131045Y-110987704D01*
X92826059Y-111106369D01*
X92664145Y-111449689D01*
X92572320Y-111818002D01*
X92554115Y-112197150D01*
X90922000Y-112197150D01*
X90922000Y-103915497D01*
X90925575Y-103933470D01*
X90933246Y-103958758D01*
X90990373Y-104147081D01*
X91006368Y-104199811D01*
X91108466Y-104446295D01*
X91112875Y-104456940D01*
X91208585Y-104636000D01*
X91244073Y-104702394D01*
X91392051Y-104923858D01*
X91398697Y-104933804D01*
X91568927Y-105141229D01*
X91575259Y-105148945D01*
X91578468Y-105152154D01*
X91731583Y-105336944D01*
X91739318Y-105346124D01*
X91923374Y-105560935D01*
X91937622Y-105577073D01*
X92101708Y-105757480D01*
X92124397Y-105781319D01*
X92276836Y-105934390D01*
X92308465Y-105964303D01*
X92457582Y-106097101D01*
X92495388Y-106128543D01*
X92649505Y-106248136D01*
X92687404Y-106275636D01*
X92854847Y-106389089D01*
X92886376Y-106409288D01*
X93075468Y-106523665D01*
X93097198Y-106536300D01*
X93316263Y-106658669D01*
X93328359Y-106665276D01*
X93496319Y-106754963D01*
X93575223Y-106807685D01*
X93677380Y-106850000D01*
X93575223Y-106892315D01*
X93259609Y-107103201D01*
X92991201Y-107371609D01*
X92780315Y-107687223D01*
X92635053Y-108037915D01*
X92561000Y-108410207D01*
X92561000Y-108789793D01*
X92635053Y-109162085D01*
X92780315Y-109512777D01*
X92991201Y-109828391D01*
X93259609Y-110096799D01*
X93575223Y-110307685D01*
X93669111Y-110346575D01*
X93658179Y-110350500D01*
X93494369Y-110438059D01*
X93375704Y-110743045D01*
X94488000Y-111855341D01*
X95600296Y-110743045D01*
X95481631Y-110438059D01*
X95296646Y-110350818D01*
X95400777Y-110307685D01*
X95716391Y-110096799D01*
X95960487Y-109852703D01*
X95980528Y-109861004D01*
X96236902Y-109912000D01*
X96498298Y-109912000D01*
X96754672Y-109861004D01*
X96996170Y-109760972D01*
X97148036Y-109659498D01*
X97189864Y-109797388D01*
X97191717Y-109801861D01*
X97353767Y-110193085D01*
X97353771Y-110193093D01*
X97537642Y-110537092D01*
X97555670Y-110570820D01*
X97793616Y-110926932D01*
X97793621Y-110926938D01*
X98037341Y-111223911D01*
X98065332Y-111258018D01*
X98359438Y-111552124D01*
X98430350Y-111626692D01*
X98471717Y-111675936D01*
X98494749Y-111708055D01*
X98507234Y-111729152D01*
X98517043Y-111749697D01*
X98529580Y-111782108D01*
X98547234Y-111835889D01*
X98570938Y-111914132D01*
X98571587Y-111916262D01*
X98600816Y-112011686D01*
X98605692Y-112026998D01*
X98612530Y-112047679D01*
X98622196Y-112096272D01*
X98722228Y-112337770D01*
X98867452Y-112555113D01*
X99052287Y-112739948D01*
X99269630Y-112885172D01*
X99511128Y-112985204D01*
X99767502Y-113036200D01*
X100028898Y-113036200D01*
X100285272Y-112985204D01*
X100526770Y-112885172D01*
X100744113Y-112739948D01*
X100928948Y-112555113D01*
X101074172Y-112337770D01*
X101174204Y-112096272D01*
X101225200Y-111839898D01*
X101225200Y-111578502D01*
X101174204Y-111322128D01*
X101074172Y-111080630D01*
X100928948Y-110863287D01*
X100744113Y-110678452D01*
X100526770Y-110533228D01*
X100285272Y-110433196D01*
X100236679Y-110423530D01*
X100215998Y-110416692D01*
X100200686Y-110411816D01*
X100105262Y-110382587D01*
X100103132Y-110381938D01*
X100024889Y-110358234D01*
X99971108Y-110340580D01*
X99938697Y-110328043D01*
X99918152Y-110318234D01*
X99897055Y-110305749D01*
X99864936Y-110282717D01*
X99815692Y-110241350D01*
X99741124Y-110170438D01*
X99514891Y-109944205D01*
X99364976Y-109761533D01*
X99233689Y-109565049D01*
X99122293Y-109356641D01*
X99031861Y-109138318D01*
X98963263Y-108912179D01*
X98917162Y-108680411D01*
X98894000Y-108445243D01*
X98894000Y-108251102D01*
X100425400Y-108251102D01*
X100425400Y-108512498D01*
X100476396Y-108768872D01*
X100576428Y-109010370D01*
X100721652Y-109227713D01*
X100906487Y-109412548D01*
X101123830Y-109557772D01*
X101365328Y-109657804D01*
X101450932Y-109674832D01*
X101537381Y-109698011D01*
X101546595Y-109700417D01*
X101660102Y-109729263D01*
X101671277Y-109732009D01*
X101771753Y-109755857D01*
X101783818Y-109758612D01*
X101876482Y-109778946D01*
X101887525Y-109781280D01*
X101977595Y-109799584D01*
X101985598Y-109801163D01*
X102078294Y-109818920D01*
X102082181Y-109819654D01*
X102182721Y-109838347D01*
X102182773Y-109838357D01*
X102295146Y-109859241D01*
X102423515Y-109883591D01*
X102575726Y-109913373D01*
X102632437Y-109924654D01*
X102657509Y-109927123D01*
X102698362Y-109931147D01*
X102698364Y-109931148D01*
X102744136Y-109935656D01*
X102830862Y-109944199D01*
X102830870Y-109944199D01*
X102830880Y-109944200D01*
X108371842Y-109944200D01*
X108461678Y-109947600D01*
X108503435Y-109953028D01*
X108519600Y-109956964D01*
X108526359Y-109959482D01*
X108541516Y-109967072D01*
X108577933Y-109988999D01*
X108640179Y-110029660D01*
X108642635Y-110031258D01*
X108722210Y-110082782D01*
X108744497Y-110096648D01*
X108835005Y-110150717D01*
X108870714Y-110170707D01*
X108895083Y-110183462D01*
X108947030Y-110218172D01*
X109188528Y-110318204D01*
X109444902Y-110369200D01*
X109706298Y-110369200D01*
X109962672Y-110318204D01*
X110204170Y-110218172D01*
X110421513Y-110072948D01*
X110606348Y-109888113D01*
X110751572Y-109670770D01*
X110851604Y-109429272D01*
X110902600Y-109172898D01*
X110902600Y-108911502D01*
X110851604Y-108655128D01*
X110751572Y-108413630D01*
X110606348Y-108196287D01*
X110421513Y-108011452D01*
X110204170Y-107866228D01*
X109962672Y-107766196D01*
X109706298Y-107715200D01*
X109444902Y-107715200D01*
X109188528Y-107766196D01*
X108947030Y-107866228D01*
X108895091Y-107900933D01*
X108870719Y-107913689D01*
X108835005Y-107933682D01*
X108744497Y-107987751D01*
X108722210Y-108001617D01*
X108642635Y-108053141D01*
X108640179Y-108054739D01*
X108577933Y-108095400D01*
X108541516Y-108117327D01*
X108526359Y-108124917D01*
X108519600Y-108127435D01*
X108503435Y-108131371D01*
X108461677Y-108136799D01*
X108371834Y-108140200D01*
X103067588Y-108140200D01*
X103040054Y-108045093D01*
X103035938Y-108032604D01*
X103028404Y-107994728D01*
X102928372Y-107753230D01*
X102783148Y-107535887D01*
X102598313Y-107351052D01*
X102380970Y-107205828D01*
X102139472Y-107105796D01*
X101883098Y-107054800D01*
X101621702Y-107054800D01*
X101365328Y-107105796D01*
X101123830Y-107205828D01*
X100906487Y-107351052D01*
X100721652Y-107535887D01*
X100576428Y-107753230D01*
X100476396Y-107994728D01*
X100425400Y-108251102D01*
X98894000Y-108251102D01*
X98894000Y-105131802D01*
X103278000Y-105131802D01*
X103278000Y-105393198D01*
X103328996Y-105649572D01*
X103429028Y-105891070D01*
X103574252Y-106108413D01*
X103759087Y-106293248D01*
X103976430Y-106438472D01*
X104217928Y-106538504D01*
X104474302Y-106589500D01*
X104735698Y-106589500D01*
X104992072Y-106538504D01*
X105233570Y-106438472D01*
X105450913Y-106293248D01*
X105635748Y-106108413D01*
X105780972Y-105891070D01*
X105881004Y-105649572D01*
X105932000Y-105393198D01*
X105932000Y-105131802D01*
X105881004Y-104875428D01*
X105780972Y-104633930D01*
X105750670Y-104588580D01*
X105741674Y-104570983D01*
X105730269Y-104549564D01*
X105682199Y-104462808D01*
X105678578Y-104456350D01*
X105637929Y-104384718D01*
X105611733Y-104336142D01*
X105600245Y-104311529D01*
X105597342Y-104303469D01*
X105596097Y-104298259D01*
X105593853Y-104279806D01*
X105592996Y-104235369D01*
X105596047Y-104187713D01*
X105615672Y-104089053D01*
X105649021Y-103979115D01*
X105692982Y-103872982D01*
X105747137Y-103771666D01*
X105810963Y-103676143D01*
X105883845Y-103587337D01*
X106604881Y-102866302D01*
X119323000Y-102866302D01*
X119323000Y-103127698D01*
X119373996Y-103384072D01*
X119474028Y-103625570D01*
X119619252Y-103842913D01*
X119804087Y-104027748D01*
X120021430Y-104172972D01*
X120262928Y-104273004D01*
X120519302Y-104324000D01*
X120780698Y-104324000D01*
X121037072Y-104273004D01*
X121278570Y-104172972D01*
X121327845Y-104140048D01*
X121354895Y-104125292D01*
X121381429Y-104109988D01*
X121499265Y-104172972D01*
X121523367Y-104185855D01*
X121674118Y-104248298D01*
X121674129Y-104248301D01*
X121674133Y-104248303D01*
X121830276Y-104295668D01*
X121830284Y-104295670D01*
X121990319Y-104327503D01*
X122014617Y-104329896D01*
X122020201Y-104330446D01*
X122020207Y-104330448D01*
X122112870Y-104339575D01*
X122152697Y-104343498D01*
X122152703Y-104343498D01*
X122152723Y-104343500D01*
X123154254Y-104343500D01*
X123335871Y-104361387D01*
X123514865Y-104396991D01*
X123689517Y-104449971D01*
X123858118Y-104519808D01*
X124019069Y-104605838D01*
X124170812Y-104707229D01*
X124311886Y-104823006D01*
X125892013Y-106403133D01*
X125953116Y-106469043D01*
X125978814Y-106502420D01*
X125987460Y-106516633D01*
X125990456Y-106523187D01*
X125995810Y-106539279D01*
X126006052Y-106580522D01*
X126021315Y-106653290D01*
X126021925Y-106656170D01*
X126041761Y-106748871D01*
X126047713Y-106774425D01*
X126073479Y-106876657D01*
X126084595Y-106916048D01*
X126092809Y-106942304D01*
X126104996Y-107003572D01*
X126205028Y-107245070D01*
X126350252Y-107462413D01*
X126457862Y-107570023D01*
X126358836Y-107594982D01*
X126319449Y-107606097D01*
X126293206Y-107614307D01*
X126231928Y-107626496D01*
X125990430Y-107726528D01*
X125773087Y-107871752D01*
X125588252Y-108056587D01*
X125443028Y-108273930D01*
X125342996Y-108515428D01*
X125292000Y-108771802D01*
X125292000Y-109033198D01*
X125342996Y-109289572D01*
X125443028Y-109531070D01*
X125588252Y-109748413D01*
X125773087Y-109933248D01*
X125990430Y-110078472D01*
X126231928Y-110178504D01*
X126488302Y-110229500D01*
X126749698Y-110229500D01*
X127006072Y-110178504D01*
X127247570Y-110078472D01*
X127464913Y-109933248D01*
X127649748Y-109748413D01*
X127794972Y-109531070D01*
X127895004Y-109289572D01*
X127907193Y-109228295D01*
X127915406Y-109202041D01*
X127926520Y-109162656D01*
X127952286Y-109060424D01*
X127958239Y-109034864D01*
X127978074Y-108942164D01*
X127978683Y-108939290D01*
X127993946Y-108866522D01*
X128004189Y-108825278D01*
X128009543Y-108809185D01*
X128012538Y-108802632D01*
X128021182Y-108788423D01*
X128046877Y-108755050D01*
X128108000Y-108689119D01*
X128634941Y-108162177D01*
X128634946Y-108162171D01*
X128634950Y-108162167D01*
X128709120Y-108071789D01*
X128719415Y-108059245D01*
X128719415Y-108059244D01*
X128801578Y-107959128D01*
X128810613Y-107948119D01*
X128950284Y-107739087D01*
X128964457Y-107717876D01*
X129094984Y-107473675D01*
X129112897Y-107430429D01*
X129200950Y-107217851D01*
X129200951Y-107217848D01*
X129200955Y-107217838D01*
X129281333Y-106952866D01*
X129281336Y-106952856D01*
X129299777Y-106860147D01*
X129325808Y-106741619D01*
X129348012Y-106659486D01*
X129367688Y-106600467D01*
X129386220Y-106554782D01*
X129407327Y-106510636D01*
X129435979Y-106457223D01*
X129475754Y-106387143D01*
X129523629Y-106302793D01*
X129530253Y-106290865D01*
X129582427Y-106194784D01*
X129592536Y-106175482D01*
X129608347Y-106144162D01*
X129636472Y-106102070D01*
X129736504Y-105860572D01*
X129760090Y-105741997D01*
X129783407Y-105637935D01*
X129790876Y-105599868D01*
X129811127Y-105479778D01*
X129817289Y-105434661D01*
X129828489Y-105327787D01*
X129831876Y-105280842D01*
X129835807Y-105181781D01*
X129836284Y-105141229D01*
X129834725Y-105044581D01*
X129833806Y-105017922D01*
X129828538Y-104918285D01*
X129827944Y-104908349D01*
X129820910Y-104802750D01*
X129814125Y-104690197D01*
X129809095Y-104566045D01*
X129807000Y-104415143D01*
X129807000Y-102426920D01*
X129810570Y-102316595D01*
X129817820Y-102249793D01*
X129826573Y-102205397D01*
X129837187Y-102168860D01*
X129853728Y-102124542D01*
X129881165Y-102060152D01*
X129917077Y-101977850D01*
X129924394Y-101960468D01*
X129962195Y-101867316D01*
X129975112Y-101833031D01*
X130012195Y-101726540D01*
X130025764Y-101683271D01*
X130033532Y-101655495D01*
X130054004Y-101606072D01*
X130105000Y-101349698D01*
X130105000Y-101088302D01*
X130054004Y-100831928D01*
X129953972Y-100590430D01*
X129808748Y-100373087D01*
X129623913Y-100188252D01*
X129406570Y-100043028D01*
X129165072Y-99942996D01*
X128908698Y-99892000D01*
X128647302Y-99892000D01*
X128390928Y-99942996D01*
X128149430Y-100043028D01*
X127932087Y-100188252D01*
X127747252Y-100373087D01*
X127602028Y-100590430D01*
X127501996Y-100831928D01*
X127451000Y-101088302D01*
X127451000Y-101349698D01*
X127501996Y-101606072D01*
X127602028Y-101847570D01*
X127747252Y-102064913D01*
X127794675Y-102112336D01*
X127813603Y-102135431D01*
X127832589Y-102157668D01*
X127899536Y-102232962D01*
X127906361Y-102240532D01*
X127962589Y-102302013D01*
X127997279Y-102341680D01*
X127998173Y-102342847D01*
X127999866Y-102354570D01*
X128003001Y-102430229D01*
X128003000Y-104226035D01*
X127956802Y-104245804D01*
X127831930Y-104297528D01*
X127614587Y-104442752D01*
X127429752Y-104627587D01*
X127284528Y-104844930D01*
X127184496Y-105086428D01*
X127174971Y-105134315D01*
X127167633Y-105127513D01*
X125524844Y-103484724D01*
X125524432Y-103484386D01*
X125246755Y-103256501D01*
X125246748Y-103256496D01*
X125246744Y-103256493D01*
X124947631Y-103056633D01*
X124947622Y-103056627D01*
X124630360Y-102887048D01*
X124630353Y-102887045D01*
X124630351Y-102887044D01*
X124297994Y-102749377D01*
X124297991Y-102749376D01*
X124297981Y-102749372D01*
X123953732Y-102644946D01*
X123953724Y-102644944D01*
X123600896Y-102574762D01*
X123600888Y-102574761D01*
X123600882Y-102574760D01*
X123288106Y-102543956D01*
X123242868Y-102539500D01*
X122293620Y-102539500D01*
X122277868Y-102523748D01*
X122249857Y-102500760D01*
X122151726Y-102420226D01*
X122151725Y-102420225D01*
X122113394Y-102394613D01*
X122028379Y-102322746D01*
X122023045Y-102318281D01*
X121940876Y-102250158D01*
X121927736Y-102239519D01*
X121850527Y-102178481D01*
X121829392Y-102162391D01*
X121752249Y-102105859D01*
X121725606Y-102087236D01*
X121643637Y-102032626D01*
X121615844Y-102015004D01*
X121524152Y-101959738D01*
X121499386Y-101945467D01*
X121393080Y-101886962D01*
X121373500Y-101876572D01*
X121323242Y-101850877D01*
X121278570Y-101821028D01*
X121037072Y-101720996D01*
X120780698Y-101670000D01*
X120519302Y-101670000D01*
X120262928Y-101720996D01*
X120021430Y-101821028D01*
X119804087Y-101966252D01*
X119619252Y-102151087D01*
X119474028Y-102368430D01*
X119373996Y-102609928D01*
X119323000Y-102866302D01*
X106604881Y-102866302D01*
X106672624Y-102798560D01*
X106758958Y-102693361D01*
X106910301Y-102508949D01*
X106910306Y-102508942D01*
X107118446Y-102197437D01*
X107132822Y-102170541D01*
X107284080Y-101887558D01*
X107295056Y-101867024D01*
X107438427Y-101520899D01*
X107438428Y-101520897D01*
X107438433Y-101520884D01*
X107547185Y-101162374D01*
X107563908Y-101078300D01*
X107620275Y-100794928D01*
X107621650Y-100780967D01*
X107656999Y-100422081D01*
X107656999Y-100422079D01*
X107657000Y-100422069D01*
X107657000Y-100143405D01*
X107674902Y-99961634D01*
X107710539Y-99782476D01*
X107763564Y-99607678D01*
X107833467Y-99438918D01*
X107919570Y-99277830D01*
X108021055Y-99125947D01*
X108136930Y-98984753D01*
X109189915Y-97931770D01*
X109236044Y-97887902D01*
X134461400Y-97887902D01*
X134461400Y-98149298D01*
X134512396Y-98405672D01*
X134612428Y-98647170D01*
X134652228Y-98706735D01*
X134666371Y-98733111D01*
X134694920Y-98781726D01*
X134753765Y-98873581D01*
X134776942Y-98907600D01*
X134834460Y-98987089D01*
X134843570Y-98999404D01*
X134892535Y-99064154D01*
X134907742Y-99085400D01*
X134892535Y-99106645D01*
X134843570Y-99171395D01*
X134834460Y-99183710D01*
X134776942Y-99263199D01*
X134753765Y-99297218D01*
X134694920Y-99389073D01*
X134666370Y-99437690D01*
X134652226Y-99464068D01*
X134612428Y-99523630D01*
X134512396Y-99765128D01*
X134461400Y-100021502D01*
X134461400Y-100282898D01*
X134512396Y-100539272D01*
X134612428Y-100780770D01*
X134757652Y-100998113D01*
X134942487Y-101182948D01*
X135159830Y-101328172D01*
X135401328Y-101428204D01*
X135657702Y-101479200D01*
X135919098Y-101479200D01*
X136175472Y-101428204D01*
X136416970Y-101328172D01*
X136634313Y-101182948D01*
X136819148Y-100998113D01*
X136964372Y-100780770D01*
X137064404Y-100539272D01*
X137115400Y-100282898D01*
X137115400Y-100021502D01*
X137064404Y-99765128D01*
X136964372Y-99523630D01*
X136924571Y-99464063D01*
X136910427Y-99437686D01*
X136881879Y-99389073D01*
X136823034Y-99297218D01*
X136799857Y-99263199D01*
X136742339Y-99183710D01*
X136733229Y-99171395D01*
X136684264Y-99106645D01*
X136669057Y-99085400D01*
X136684264Y-99064154D01*
X136733229Y-98999404D01*
X136742339Y-98987089D01*
X136799857Y-98907600D01*
X136823034Y-98873581D01*
X136881879Y-98781726D01*
X136910425Y-98733116D01*
X136924567Y-98706743D01*
X136964372Y-98647170D01*
X137064404Y-98405672D01*
X137115400Y-98149298D01*
X137115400Y-97887902D01*
X137064404Y-97631528D01*
X136964372Y-97390030D01*
X136819148Y-97172687D01*
X136794045Y-97147584D01*
X136885851Y-97185611D01*
X137093925Y-97227000D01*
X137306075Y-97227000D01*
X137514149Y-97185611D01*
X137710151Y-97104425D01*
X137886547Y-96986560D01*
X138036560Y-96836547D01*
X138154425Y-96660151D01*
X138235611Y-96464149D01*
X138277000Y-96256075D01*
X138277000Y-96043925D01*
X138235611Y-95835851D01*
X138154425Y-95639849D01*
X138036560Y-95463453D01*
X137886547Y-95313440D01*
X137791603Y-95250000D01*
X137886547Y-95186560D01*
X138036560Y-95036547D01*
X138154425Y-94860151D01*
X138235611Y-94664149D01*
X138277000Y-94456075D01*
X138277000Y-94243925D01*
X138235611Y-94035851D01*
X138154425Y-93839849D01*
X138036560Y-93663453D01*
X137886547Y-93513440D01*
X137710151Y-93395575D01*
X137514149Y-93314389D01*
X137306075Y-93273000D01*
X137093925Y-93273000D01*
X136885851Y-93314389D01*
X136689849Y-93395575D01*
X136513453Y-93513440D01*
X136363440Y-93663453D01*
X136245575Y-93839849D01*
X136164389Y-94035851D01*
X136123000Y-94243925D01*
X136123000Y-94456075D01*
X136164389Y-94664149D01*
X136245575Y-94860151D01*
X136363440Y-95036547D01*
X136513453Y-95186560D01*
X136608397Y-95250000D01*
X136513453Y-95313440D01*
X136363440Y-95463453D01*
X136245575Y-95639849D01*
X136164389Y-95835851D01*
X136123000Y-96043925D01*
X136123000Y-96256075D01*
X136164389Y-96464149D01*
X136245575Y-96660151D01*
X136348573Y-96814297D01*
X136175472Y-96742596D01*
X135919098Y-96691600D01*
X135657702Y-96691600D01*
X135401328Y-96742596D01*
X135159830Y-96842628D01*
X134942487Y-96987852D01*
X134757652Y-97172687D01*
X134612428Y-97390030D01*
X134512396Y-97631528D01*
X134461400Y-97887902D01*
X109236044Y-97887902D01*
X109264493Y-97860848D01*
X109313724Y-97819491D01*
X109345868Y-97796441D01*
X109366951Y-97783964D01*
X109387489Y-97774159D01*
X109419901Y-97761621D01*
X109473735Y-97743950D01*
X109551933Y-97720259D01*
X109554055Y-97719613D01*
X109649479Y-97690385D01*
X109664791Y-97685509D01*
X109685470Y-97678671D01*
X109734072Y-97669004D01*
X109975570Y-97568972D01*
X110192913Y-97423748D01*
X110377748Y-97238913D01*
X110522972Y-97021570D01*
X110623004Y-96780072D01*
X110674000Y-96523698D01*
X110674000Y-96262302D01*
X110623004Y-96005928D01*
X110522972Y-95764430D01*
X110377748Y-95547087D01*
X110192913Y-95362252D01*
X109975570Y-95217028D01*
X109734072Y-95116996D01*
X109477698Y-95066000D01*
X109216302Y-95066000D01*
X108959928Y-95116996D01*
X108718430Y-95217028D01*
X108501087Y-95362252D01*
X108316252Y-95547087D01*
X108171028Y-95764430D01*
X108070996Y-96005928D01*
X108061329Y-96054529D01*
X108054494Y-96075199D01*
X108049617Y-96090513D01*
X108020388Y-96185937D01*
X108019740Y-96188065D01*
X107996049Y-96266263D01*
X107978379Y-96320093D01*
X107965843Y-96352501D01*
X107956034Y-96373045D01*
X107943549Y-96394142D01*
X107920517Y-96426261D01*
X107879143Y-96475514D01*
X107808228Y-96550085D01*
X106789352Y-97568960D01*
X106687368Y-97670943D01*
X106451142Y-97958786D01*
X106449691Y-97960554D01*
X106241551Y-98272059D01*
X106241548Y-98272065D01*
X106064942Y-98602471D01*
X106064940Y-98602476D01*
X105921569Y-98948601D01*
X105913189Y-98976228D01*
X105812813Y-99307120D01*
X105812811Y-99307130D01*
X105739722Y-99674574D01*
X105734747Y-99725090D01*
X105716408Y-99911297D01*
X105703000Y-100047428D01*
X105703000Y-100326087D01*
X105685096Y-100507864D01*
X105649460Y-100687015D01*
X105596435Y-100861817D01*
X105526533Y-101030573D01*
X105440425Y-101191668D01*
X105338942Y-101343548D01*
X105223068Y-101484742D01*
X104434281Y-102273529D01*
X104434276Y-102273535D01*
X104239605Y-102510742D01*
X104239603Y-102510746D01*
X104239599Y-102510750D01*
X104069116Y-102765897D01*
X104059560Y-102783776D01*
X103924459Y-103036531D01*
X103924456Y-103036537D01*
X103924456Y-103036538D01*
X103854324Y-103205853D01*
X103807023Y-103320048D01*
X103718094Y-103613208D01*
X103717943Y-103613707D01*
X103658578Y-103912164D01*
X103658078Y-103914680D01*
X103653400Y-103962176D01*
X103639766Y-104081903D01*
X103626567Y-104168215D01*
X103613847Y-104230454D01*
X103601747Y-104275652D01*
X103588907Y-104313600D01*
X103572035Y-104355086D01*
X103547210Y-104408925D01*
X103511934Y-104480428D01*
X103467103Y-104569677D01*
X103464690Y-104574525D01*
X103453343Y-104597540D01*
X103429028Y-104633930D01*
X103328996Y-104875428D01*
X103278000Y-105131802D01*
X98894000Y-105131802D01*
X98894000Y-103407371D01*
X98893873Y-103406075D01*
X98885399Y-103320048D01*
X98879863Y-103263839D01*
X98879863Y-103263838D01*
X98871481Y-103178740D01*
X98865798Y-103121038D01*
X98811935Y-102850256D01*
X98809668Y-102838860D01*
X98726153Y-102563547D01*
X98726150Y-102563539D01*
X98616050Y-102297736D01*
X98614717Y-102295242D01*
X98480427Y-102044002D01*
X98480426Y-102044000D01*
X98480423Y-102043995D01*
X98320585Y-101804781D01*
X98309093Y-101790777D01*
X98147342Y-101593685D01*
X98138059Y-101582373D01*
X97934624Y-101378938D01*
X97914744Y-101362623D01*
X97712222Y-101196417D01*
X97712218Y-101196415D01*
X97712214Y-101196411D01*
X97473001Y-101036574D01*
X97362201Y-100977351D01*
X97315835Y-100952568D01*
X97050576Y-100808931D01*
X96830131Y-100686309D01*
X96641837Y-100578968D01*
X96473896Y-100481568D01*
X96418517Y-100449319D01*
X96418517Y-100400000D01*
X96404480Y-100257483D01*
X96362910Y-100120443D01*
X96295403Y-99994147D01*
X96204554Y-99883446D01*
X96093853Y-99792597D01*
X95967557Y-99725090D01*
X95830517Y-99683520D01*
X95688000Y-99669483D01*
X93288000Y-99669483D01*
X93145483Y-99683520D01*
X93008443Y-99725090D01*
X92882147Y-99792597D01*
X92798000Y-99861654D01*
X92798000Y-98090197D01*
X92805293Y-98016142D01*
X92819810Y-97943161D01*
X92841414Y-97871941D01*
X92869890Y-97803193D01*
X92904975Y-97737554D01*
X92946320Y-97675678D01*
X92993528Y-97618155D01*
X93185807Y-97425876D01*
X93219385Y-97384961D01*
X93337482Y-97241060D01*
X93337484Y-97241057D01*
X93337489Y-97241051D01*
X93341181Y-97235525D01*
X93401239Y-97161557D01*
X93408017Y-97153081D01*
X93522303Y-97007950D01*
X93532213Y-96995072D01*
X93627904Y-96867802D01*
X93640883Y-96849983D01*
X93722211Y-96734698D01*
X93737115Y-96712730D01*
X93740999Y-96706774D01*
X93779517Y-96702980D01*
X93916557Y-96661410D01*
X94042853Y-96593903D01*
X94153554Y-96503054D01*
X94244403Y-96392353D01*
X94289465Y-96308049D01*
X94374789Y-96393373D01*
X94510726Y-96257436D01*
X94580820Y-96521618D01*
X94855818Y-96643488D01*
X95149308Y-96709366D01*
X95450011Y-96716722D01*
X95746371Y-96665271D01*
X96026998Y-96556992D01*
X96093180Y-96521618D01*
X96163275Y-96257434D01*
X95337000Y-95431159D01*
X95322858Y-95445301D01*
X95078199Y-95200642D01*
X95092341Y-95186500D01*
X95581659Y-95186500D01*
X96407934Y-96012775D01*
X96672118Y-95942680D01*
X96793988Y-95667682D01*
X96859866Y-95374192D01*
X96867222Y-95073489D01*
X96815771Y-94777129D01*
X96707492Y-94496502D01*
X96672118Y-94430320D01*
X96407934Y-94360225D01*
X95581659Y-95186500D01*
X95092341Y-95186500D01*
X95078199Y-95172358D01*
X95322858Y-94927699D01*
X95337000Y-94941841D01*
X96163275Y-94115566D01*
X96093180Y-93851382D01*
X95818182Y-93729512D01*
X95524692Y-93663634D01*
X95223989Y-93656278D01*
X94927629Y-93707729D01*
X94647002Y-93816008D01*
X94580820Y-93851382D01*
X94510726Y-94115564D01*
X94374789Y-93979627D01*
X94289465Y-94064951D01*
X94244403Y-93980647D01*
X94153554Y-93869946D01*
X94042853Y-93779097D01*
X93916557Y-93711590D01*
X93779517Y-93670020D01*
X93637000Y-93655983D01*
X92037000Y-93655983D01*
X91894483Y-93670020D01*
X91757443Y-93711590D01*
X91631147Y-93779097D01*
X91520446Y-93869946D01*
X91429597Y-93980647D01*
X91362090Y-94106943D01*
X91320520Y-94243983D01*
X91306483Y-94386500D01*
X91306483Y-95986500D01*
X91320520Y-96129017D01*
X91362090Y-96266057D01*
X91429597Y-96392353D01*
X91450668Y-96418029D01*
X91374962Y-96510277D01*
X91374959Y-96510282D01*
X91374957Y-96510284D01*
X91264049Y-96676270D01*
X91226952Y-96731789D01*
X91101371Y-96966732D01*
X91101366Y-96966744D01*
X91101365Y-96966746D01*
X91086697Y-97002158D01*
X91063701Y-97057677D01*
X91007468Y-97193436D01*
X90999417Y-97212873D01*
X90932294Y-97434151D01*
X90922084Y-97467807D01*
X90922000Y-97468229D01*
X90922000Y-92192000D01*
X146558000Y-92192000D01*
X146558000Y-126248000D01*
G37*
G04 #@! TD.AperFunction*
G04 #@! TD*
D24*
G04 #@! TO.N,+12V*
X93536064Y-95548761D02*
X93456059Y-95707620D01*
X93383168Y-95850967D01*
X93317084Y-95976886D01*
X93253641Y-96091153D01*
X93188583Y-96199705D01*
X93117650Y-96308479D01*
X93036553Y-96423437D01*
X92941073Y-96550426D01*
X92826910Y-96695401D01*
X92697928Y-96854257D01*
X92330327Y-96552573D01*
X92404143Y-96445621D01*
X92405417Y-96443284D01*
X92450144Y-96335740D01*
X92450997Y-96332612D01*
X92465010Y-96231828D01*
X92465038Y-96228548D01*
X92453349Y-96132261D01*
X92452750Y-96129658D01*
X92420371Y-96035606D01*
X92419673Y-96033963D01*
X92371617Y-95939881D01*
X92371153Y-95939050D01*
X92312433Y-95842674D01*
X92312295Y-95842453D01*
X92248003Y-95741646D01*
X92183285Y-95634380D01*
X92127105Y-95526133D01*
X92843047Y-94804870D01*
X93536064Y-95548761D01*
G04 #@! TA.AperFunction,Conductor*
D23*
G36*
X93536064Y-95548761D02*
G01*
X93456059Y-95707620D01*
X93383168Y-95850967D01*
X93317084Y-95976886D01*
X93253641Y-96091153D01*
X93188583Y-96199705D01*
X93117650Y-96308479D01*
X93036553Y-96423437D01*
X92941073Y-96550426D01*
X92826910Y-96695401D01*
X92697928Y-96854257D01*
X92330327Y-96552573D01*
X92404143Y-96445621D01*
X92405417Y-96443284D01*
X92450144Y-96335740D01*
X92450997Y-96332612D01*
X92465010Y-96231828D01*
X92465038Y-96228548D01*
X92453349Y-96132261D01*
X92452750Y-96129658D01*
X92420371Y-96035606D01*
X92419673Y-96033963D01*
X92371617Y-95939881D01*
X92371153Y-95939050D01*
X92312433Y-95842674D01*
X92312295Y-95842453D01*
X92248003Y-95741646D01*
X92183285Y-95634380D01*
X92127105Y-95526133D01*
X92843047Y-94804870D01*
X93536064Y-95548761D01*
G37*
G04 #@! TD.AperFunction*
G04 #@! TD*
D24*
G04 #@! TO.N,+12V*
X95069335Y-105119970D02*
X93926296Y-106146011D01*
X93676857Y-106012815D01*
X93458140Y-105890641D01*
X93269495Y-105776534D01*
X93102655Y-105663490D01*
X92949206Y-105544416D01*
X92800704Y-105412165D01*
X92648718Y-105259549D01*
X92484962Y-105079505D01*
X92301102Y-104864922D01*
X92096954Y-104618542D01*
X92464716Y-104316728D01*
X92603369Y-104454787D01*
X92606044Y-104456822D01*
X92749701Y-104538648D01*
X92751975Y-104539663D01*
X92753622Y-104540091D01*
X92895894Y-104567052D01*
X92898374Y-104567273D01*
X92899887Y-104567169D01*
X93042522Y-104548737D01*
X93045359Y-104548031D01*
X93190107Y-104493676D01*
X93191709Y-104492944D01*
X93340321Y-104412139D01*
X93341055Y-104411708D01*
X93495279Y-104313923D01*
X93495412Y-104313837D01*
X93656806Y-104208668D01*
X93826936Y-104105682D01*
X93999718Y-104018230D01*
X95069335Y-105119970D01*
G04 #@! TA.AperFunction,Conductor*
D23*
G36*
X95069335Y-105119970D02*
G01*
X93926296Y-106146011D01*
X93676857Y-106012815D01*
X93458140Y-105890641D01*
X93269495Y-105776534D01*
X93102655Y-105663490D01*
X92949206Y-105544416D01*
X92800704Y-105412165D01*
X92648718Y-105259549D01*
X92484962Y-105079505D01*
X92301102Y-104864922D01*
X92096954Y-104618542D01*
X92464716Y-104316728D01*
X92603369Y-104454787D01*
X92606044Y-104456822D01*
X92749701Y-104538648D01*
X92751975Y-104539663D01*
X92753622Y-104540091D01*
X92895894Y-104567052D01*
X92898374Y-104567273D01*
X92899887Y-104567169D01*
X93042522Y-104548737D01*
X93045359Y-104548031D01*
X93190107Y-104493676D01*
X93191709Y-104492944D01*
X93340321Y-104412139D01*
X93341055Y-104411708D01*
X93495279Y-104313923D01*
X93495412Y-104313837D01*
X93656806Y-104208668D01*
X93826936Y-104105682D01*
X93999718Y-104018230D01*
X95069335Y-105119970D01*
G37*
G04 #@! TD.AperFunction*
G04 #@! TD*
D24*
G04 #@! TO.N,+12V*
X96773202Y-104995477D02*
X96105291Y-105761628D01*
X95961029Y-105702087D01*
X95830834Y-105640179D01*
X95716107Y-105580512D01*
X95610149Y-105524358D01*
X95609829Y-105524195D01*
X95506305Y-105473031D01*
X95505559Y-105472692D01*
X95397846Y-105427848D01*
X95396767Y-105427455D01*
X95278240Y-105390262D01*
X95277018Y-105389944D01*
X95141056Y-105361731D01*
X95139888Y-105361545D01*
X94979865Y-105343642D01*
X94978870Y-105343570D01*
X94800448Y-105337710D01*
X94800448Y-104862243D01*
X94966520Y-104856164D01*
X94967651Y-104856072D01*
X95117111Y-104837136D01*
X95118480Y-104836886D01*
X95245008Y-104806508D01*
X95246482Y-104806058D01*
X95355991Y-104765207D01*
X95357338Y-104764614D01*
X95455742Y-104714255D01*
X95456740Y-104713685D01*
X95549954Y-104654787D01*
X95550506Y-104654418D01*
X95644443Y-104587948D01*
X95644572Y-104587855D01*
X95745033Y-104514861D01*
X95857824Y-104436382D01*
X95981515Y-104358005D01*
X96773202Y-104995477D01*
G04 #@! TA.AperFunction,Conductor*
D23*
G36*
X96773202Y-104995477D02*
G01*
X96105291Y-105761628D01*
X95961029Y-105702087D01*
X95830834Y-105640179D01*
X95716107Y-105580512D01*
X95610149Y-105524358D01*
X95609829Y-105524195D01*
X95506305Y-105473031D01*
X95505559Y-105472692D01*
X95397846Y-105427848D01*
X95396767Y-105427455D01*
X95278240Y-105390262D01*
X95277018Y-105389944D01*
X95141056Y-105361731D01*
X95139888Y-105361545D01*
X94979865Y-105343642D01*
X94978870Y-105343570D01*
X94800448Y-105337710D01*
X94800448Y-104862243D01*
X94966520Y-104856164D01*
X94967651Y-104856072D01*
X95117111Y-104837136D01*
X95118480Y-104836886D01*
X95245008Y-104806508D01*
X95246482Y-104806058D01*
X95355991Y-104765207D01*
X95357338Y-104764614D01*
X95455742Y-104714255D01*
X95456740Y-104713685D01*
X95549954Y-104654787D01*
X95550506Y-104654418D01*
X95644443Y-104587948D01*
X95644572Y-104587855D01*
X95745033Y-104514861D01*
X95857824Y-104436382D01*
X95981515Y-104358005D01*
X96773202Y-104995477D01*
G37*
G04 #@! TD.AperFunction*
G04 #@! TD*
D24*
G04 #@! TO.N,+12V*
X95655622Y-104830159D02*
X95657024Y-104831179D01*
X95686459Y-104849663D01*
X95687241Y-104850116D01*
X95731934Y-104873931D01*
X95732748Y-104874329D01*
X95789584Y-104899588D01*
X95790585Y-104899982D01*
X95856446Y-104922798D01*
X95857760Y-104923176D01*
X95929532Y-104939663D01*
X95931310Y-104939940D01*
X96005874Y-104946212D01*
X96008271Y-104946187D01*
X96082513Y-104938357D01*
X96085532Y-104937658D01*
X96156334Y-104911840D01*
X96159553Y-104910106D01*
X96214999Y-104868947D01*
X96550770Y-105204744D01*
X96456936Y-105280028D01*
X96343065Y-105338190D01*
X96223812Y-105375229D01*
X96104054Y-105395059D01*
X95988789Y-105401624D01*
X95882993Y-105398919D01*
X95791686Y-105390973D01*
X95719720Y-105381819D01*
X95672250Y-105375544D01*
X95670082Y-105375444D01*
X95653498Y-105376102D01*
X93966623Y-105100000D01*
X95649024Y-104824630D01*
X95655622Y-104830159D01*
G04 #@! TA.AperFunction,Conductor*
D23*
G36*
X95655622Y-104830159D02*
G01*
X95657024Y-104831179D01*
X95686459Y-104849663D01*
X95687241Y-104850116D01*
X95731934Y-104873931D01*
X95732748Y-104874329D01*
X95789584Y-104899588D01*
X95790585Y-104899982D01*
X95856446Y-104922798D01*
X95857760Y-104923176D01*
X95929532Y-104939663D01*
X95931310Y-104939940D01*
X96005874Y-104946212D01*
X96008271Y-104946187D01*
X96082513Y-104938357D01*
X96085532Y-104937658D01*
X96156334Y-104911840D01*
X96159553Y-104910106D01*
X96214999Y-104868947D01*
X96550770Y-105204744D01*
X96456936Y-105280028D01*
X96343065Y-105338190D01*
X96223812Y-105375229D01*
X96104054Y-105395059D01*
X95988789Y-105401624D01*
X95882993Y-105398919D01*
X95791686Y-105390973D01*
X95719720Y-105381819D01*
X95672250Y-105375544D01*
X95670082Y-105375444D01*
X95653498Y-105376102D01*
X93966623Y-105100000D01*
X95649024Y-104824630D01*
X95655622Y-104830159D01*
G37*
G04 #@! TD.AperFunction*
G04 #@! TD*
D24*
G04 #@! TO.N,+3V3*
X111177578Y-118569726D02*
X111218290Y-118694582D01*
X111254450Y-118809672D01*
X111284299Y-118911632D01*
X111308985Y-119006032D01*
X111329570Y-119098155D01*
X111347162Y-119193484D01*
X111362835Y-119297410D01*
X111377669Y-119415380D01*
X111392708Y-119552540D01*
X111407776Y-119701871D01*
X111083754Y-119733788D01*
X111066505Y-119640043D01*
X111065740Y-119637462D01*
X111032014Y-119556419D01*
X111030369Y-119553573D01*
X110983758Y-119492756D01*
X110981413Y-119490408D01*
X110923397Y-119445859D01*
X110921107Y-119444458D01*
X110853165Y-119412215D01*
X110851511Y-119411568D01*
X110775122Y-119387673D01*
X110774225Y-119387428D01*
X110690869Y-119367920D01*
X110690642Y-119367869D01*
X110601946Y-119348821D01*
X110509694Y-119326355D01*
X110423561Y-119299170D01*
X110421094Y-118542607D01*
X111177578Y-118569726D01*
G04 #@! TA.AperFunction,Conductor*
D23*
G36*
X111177578Y-118569726D02*
G01*
X111218290Y-118694582D01*
X111254450Y-118809672D01*
X111284299Y-118911632D01*
X111308985Y-119006032D01*
X111329570Y-119098155D01*
X111347162Y-119193484D01*
X111362835Y-119297410D01*
X111377669Y-119415380D01*
X111392708Y-119552540D01*
X111407776Y-119701871D01*
X111083754Y-119733788D01*
X111066505Y-119640043D01*
X111065740Y-119637462D01*
X111032014Y-119556419D01*
X111030369Y-119553573D01*
X110983758Y-119492756D01*
X110981413Y-119490408D01*
X110923397Y-119445859D01*
X110921107Y-119444458D01*
X110853165Y-119412215D01*
X110851511Y-119411568D01*
X110775122Y-119387673D01*
X110774225Y-119387428D01*
X110690869Y-119367920D01*
X110690642Y-119367869D01*
X110601946Y-119348821D01*
X110509694Y-119326355D01*
X110423561Y-119299170D01*
X110421094Y-118542607D01*
X111177578Y-118569726D01*
G37*
G04 #@! TD.AperFunction*
G04 #@! TD*
D24*
G04 #@! TO.N,+3V3*
X133023817Y-121415607D02*
X133096247Y-121450792D01*
X133096381Y-121450857D01*
X133165870Y-121483615D01*
X133166475Y-121483881D01*
X133233719Y-121511398D01*
X133234916Y-121511819D01*
X133300759Y-121531357D01*
X133302672Y-121531768D01*
X133367960Y-121540587D01*
X133370556Y-121540669D01*
X133436133Y-121536030D01*
X133439024Y-121535484D01*
X133505735Y-121514645D01*
X133508312Y-121513513D01*
X133577001Y-121473737D01*
X133578914Y-121472379D01*
X133641497Y-121418599D01*
X133977631Y-121754733D01*
X133866799Y-121862822D01*
X133761492Y-121959218D01*
X133667093Y-122038742D01*
X133579838Y-122105136D01*
X133495949Y-122162141D01*
X133411568Y-122213529D01*
X133322935Y-122262994D01*
X133226185Y-122314286D01*
X133226185Y-122314287D01*
X133117784Y-122370989D01*
X133117708Y-122371028D01*
X133001663Y-122432724D01*
X132433592Y-121932299D01*
X132955652Y-121384411D01*
X133023817Y-121415607D01*
G04 #@! TA.AperFunction,Conductor*
D23*
G36*
X133023817Y-121415607D02*
G01*
X133096247Y-121450792D01*
X133096381Y-121450857D01*
X133165870Y-121483615D01*
X133166475Y-121483881D01*
X133233719Y-121511398D01*
X133234916Y-121511819D01*
X133300759Y-121531357D01*
X133302672Y-121531768D01*
X133367960Y-121540587D01*
X133370556Y-121540669D01*
X133436133Y-121536030D01*
X133439024Y-121535484D01*
X133505735Y-121514645D01*
X133508312Y-121513513D01*
X133577001Y-121473737D01*
X133578914Y-121472379D01*
X133641497Y-121418599D01*
X133977631Y-121754733D01*
X133866799Y-121862822D01*
X133761492Y-121959218D01*
X133667093Y-122038742D01*
X133579838Y-122105136D01*
X133495949Y-122162141D01*
X133411568Y-122213529D01*
X133322935Y-122262994D01*
X133226185Y-122314286D01*
X133226185Y-122314287D01*
X133117784Y-122370989D01*
X133117708Y-122371028D01*
X133001663Y-122432724D01*
X132433592Y-121932299D01*
X132955652Y-121384411D01*
X133023817Y-121415607D01*
G37*
G04 #@! TD.AperFunction*
G04 #@! TD*
D24*
G04 #@! TO.N,+3V3*
X134573007Y-115890507D02*
X134518338Y-115955053D01*
X134516871Y-115957196D01*
X134478555Y-116027693D01*
X134477414Y-116030592D01*
X134459808Y-116098992D01*
X134459407Y-116102140D01*
X134459312Y-116169318D01*
X134459590Y-116171978D01*
X134473807Y-116238811D01*
X134474342Y-116240639D01*
X134499673Y-116308001D01*
X134500126Y-116309059D01*
X134533372Y-116377825D01*
X134533605Y-116378282D01*
X134571555Y-116449307D01*
X134610921Y-116523294D01*
X134644631Y-116593065D01*
X134103042Y-117121536D01*
X133595858Y-116559392D01*
X133655562Y-116441554D01*
X133655690Y-116441294D01*
X133708872Y-116330101D01*
X133708923Y-116329994D01*
X133755731Y-116229737D01*
X133800096Y-116137262D01*
X133846168Y-116048905D01*
X133898003Y-115961192D01*
X133959720Y-115870534D01*
X134035489Y-115773325D01*
X134129438Y-115666050D01*
X134236877Y-115554376D01*
X134573007Y-115890507D01*
G04 #@! TA.AperFunction,Conductor*
D23*
G36*
X134573007Y-115890507D02*
G01*
X134518338Y-115955053D01*
X134516871Y-115957196D01*
X134478555Y-116027693D01*
X134477414Y-116030592D01*
X134459808Y-116098992D01*
X134459407Y-116102140D01*
X134459312Y-116169318D01*
X134459590Y-116171978D01*
X134473807Y-116238811D01*
X134474342Y-116240639D01*
X134499673Y-116308001D01*
X134500126Y-116309059D01*
X134533372Y-116377825D01*
X134533605Y-116378282D01*
X134571555Y-116449307D01*
X134610921Y-116523294D01*
X134644631Y-116593065D01*
X134103042Y-117121536D01*
X133595858Y-116559392D01*
X133655562Y-116441554D01*
X133655690Y-116441294D01*
X133708872Y-116330101D01*
X133708923Y-116329994D01*
X133755731Y-116229737D01*
X133800096Y-116137262D01*
X133846168Y-116048905D01*
X133898003Y-115961192D01*
X133959720Y-115870534D01*
X134035489Y-115773325D01*
X134129438Y-115666050D01*
X134236877Y-115554376D01*
X134573007Y-115890507D01*
G37*
G04 #@! TD.AperFunction*
G04 #@! TD*
D24*
G04 #@! TO.N,+3V3*
X111581785Y-120927182D02*
X111582924Y-120929048D01*
X111642748Y-121010369D01*
X111644528Y-121012324D01*
X111709894Y-121070582D01*
X111712111Y-121072166D01*
X111783102Y-121112158D01*
X111785184Y-121113095D01*
X111861879Y-121139622D01*
X111863342Y-121140032D01*
X111945823Y-121157892D01*
X111946525Y-121158024D01*
X112034871Y-121172015D01*
X112034872Y-121172015D01*
X112128881Y-121186893D01*
X112228397Y-121207380D01*
X112325389Y-121235797D01*
X112340176Y-121992176D01*
X111583393Y-121977381D01*
X111544159Y-121861704D01*
X111509571Y-121754568D01*
X111480186Y-121659663D01*
X111453717Y-121572301D01*
X111453708Y-121572269D01*
X111427841Y-121487679D01*
X111427797Y-121487539D01*
X111400262Y-121401085D01*
X111400190Y-121400866D01*
X111368690Y-121307837D01*
X111368603Y-121307587D01*
X111330845Y-121203274D01*
X111330755Y-121203035D01*
X111284444Y-121082726D01*
X111284362Y-121082517D01*
X111231939Y-120953184D01*
X111532704Y-120828606D01*
X111581785Y-120927182D01*
G04 #@! TA.AperFunction,Conductor*
D23*
G36*
X111581785Y-120927182D02*
G01*
X111582924Y-120929048D01*
X111642748Y-121010369D01*
X111644528Y-121012324D01*
X111709894Y-121070582D01*
X111712111Y-121072166D01*
X111783102Y-121112158D01*
X111785184Y-121113095D01*
X111861879Y-121139622D01*
X111863342Y-121140032D01*
X111945823Y-121157892D01*
X111946525Y-121158024D01*
X112034871Y-121172015D01*
X112034872Y-121172015D01*
X112128881Y-121186893D01*
X112228397Y-121207380D01*
X112325389Y-121235797D01*
X112340176Y-121992176D01*
X111583393Y-121977381D01*
X111544159Y-121861704D01*
X111509571Y-121754568D01*
X111480186Y-121659663D01*
X111453717Y-121572301D01*
X111453708Y-121572269D01*
X111427841Y-121487679D01*
X111427797Y-121487539D01*
X111400262Y-121401085D01*
X111400190Y-121400866D01*
X111368690Y-121307837D01*
X111368603Y-121307587D01*
X111330845Y-121203274D01*
X111330755Y-121203035D01*
X111284444Y-121082726D01*
X111284362Y-121082517D01*
X111231939Y-120953184D01*
X111532704Y-120828606D01*
X111581785Y-120927182D01*
G37*
G04 #@! TD.AperFunction*
G04 #@! TD*
D24*
G04 #@! TO.N,+3V3*
X112580573Y-113328621D02*
X112495815Y-113420046D01*
X112495065Y-113420932D01*
X112424752Y-113512254D01*
X112423965Y-113513401D01*
X112372311Y-113598308D01*
X112371610Y-113599629D01*
X112334516Y-113680780D01*
X112334016Y-113682051D01*
X112307385Y-113762104D01*
X112307110Y-113763052D01*
X112286842Y-113844663D01*
X112286738Y-113845117D01*
X112268736Y-113930944D01*
X112248961Y-114023367D01*
X112223338Y-114125030D01*
X112190379Y-114230385D01*
X111433825Y-114245176D01*
X111448614Y-113488622D01*
X111553968Y-113455662D01*
X111655632Y-113430038D01*
X111748054Y-113410263D01*
X111833881Y-113392261D01*
X111834335Y-113392157D01*
X111915946Y-113371889D01*
X111916894Y-113371614D01*
X111996946Y-113344982D01*
X111998217Y-113344482D01*
X112079369Y-113307388D01*
X112080690Y-113306687D01*
X112165597Y-113255033D01*
X112166744Y-113254246D01*
X112258066Y-113183933D01*
X112258952Y-113183184D01*
X112350379Y-113098427D01*
X112580573Y-113328621D01*
G04 #@! TA.AperFunction,Conductor*
D23*
G36*
X112580573Y-113328621D02*
G01*
X112495815Y-113420046D01*
X112495065Y-113420932D01*
X112424752Y-113512254D01*
X112423965Y-113513401D01*
X112372311Y-113598308D01*
X112371610Y-113599629D01*
X112334516Y-113680780D01*
X112334016Y-113682051D01*
X112307385Y-113762104D01*
X112307110Y-113763052D01*
X112286842Y-113844663D01*
X112286738Y-113845117D01*
X112268736Y-113930944D01*
X112248961Y-114023367D01*
X112223338Y-114125030D01*
X112190379Y-114230385D01*
X111433825Y-114245176D01*
X111448614Y-113488622D01*
X111553968Y-113455662D01*
X111655632Y-113430038D01*
X111748054Y-113410263D01*
X111833881Y-113392261D01*
X111834335Y-113392157D01*
X111915946Y-113371889D01*
X111916894Y-113371614D01*
X111996946Y-113344982D01*
X111998217Y-113344482D01*
X112079369Y-113307388D01*
X112080690Y-113306687D01*
X112165597Y-113255033D01*
X112166744Y-113254246D01*
X112258066Y-113183933D01*
X112258952Y-113183184D01*
X112350379Y-113098427D01*
X112580573Y-113328621D01*
G37*
G04 #@! TD.AperFunction*
G04 #@! TD*
D24*
G04 #@! TO.N,+3V3*
X115444551Y-110617695D02*
X115358104Y-110715135D01*
X115272928Y-110798043D01*
X115192314Y-110865418D01*
X115113647Y-110922840D01*
X115034289Y-110975864D01*
X114952004Y-111029790D01*
X114951767Y-111029949D01*
X114864130Y-111090235D01*
X114863671Y-111090566D01*
X114768330Y-111162623D01*
X114767781Y-111163062D01*
X114662284Y-111252369D01*
X114661750Y-111252848D01*
X114552625Y-111356367D01*
X114322409Y-111126151D01*
X114385635Y-111055981D01*
X114386646Y-111054703D01*
X114438067Y-110980345D01*
X114439084Y-110978590D01*
X114473030Y-110907421D01*
X114473824Y-110905278D01*
X114492696Y-110835721D01*
X114493089Y-110833524D01*
X114499289Y-110764002D01*
X114499318Y-110762147D01*
X114495245Y-110691081D01*
X114495105Y-110689789D01*
X114483161Y-110615604D01*
X114483023Y-110614885D01*
X114465609Y-110536001D01*
X114465556Y-110535769D01*
X114445091Y-110450684D01*
X114425950Y-110366512D01*
X115065973Y-109962524D01*
X115444551Y-110617695D01*
G04 #@! TA.AperFunction,Conductor*
D23*
G36*
X115444551Y-110617695D02*
G01*
X115358104Y-110715135D01*
X115272928Y-110798043D01*
X115192314Y-110865418D01*
X115113647Y-110922840D01*
X115034289Y-110975864D01*
X114952004Y-111029790D01*
X114951767Y-111029949D01*
X114864130Y-111090235D01*
X114863671Y-111090566D01*
X114768330Y-111162623D01*
X114767781Y-111163062D01*
X114662284Y-111252369D01*
X114661750Y-111252848D01*
X114552625Y-111356367D01*
X114322409Y-111126151D01*
X114385635Y-111055981D01*
X114386646Y-111054703D01*
X114438067Y-110980345D01*
X114439084Y-110978590D01*
X114473030Y-110907421D01*
X114473824Y-110905278D01*
X114492696Y-110835721D01*
X114493089Y-110833524D01*
X114499289Y-110764002D01*
X114499318Y-110762147D01*
X114495245Y-110691081D01*
X114495105Y-110689789D01*
X114483161Y-110615604D01*
X114483023Y-110614885D01*
X114465609Y-110536001D01*
X114465556Y-110535769D01*
X114445091Y-110450684D01*
X114425950Y-110366512D01*
X115065973Y-109962524D01*
X115444551Y-110617695D01*
G37*
G04 #@! TD.AperFunction*
G04 #@! TD*
D24*
G04 #@! TO.N,+3V3*
X135912920Y-114306669D02*
X135841961Y-115060212D01*
X135742930Y-115085223D01*
X135647015Y-115107855D01*
X135646947Y-115107872D01*
X135560256Y-115128833D01*
X135559848Y-115128939D01*
X135479785Y-115151139D01*
X135479021Y-115151377D01*
X135402941Y-115177735D01*
X135401912Y-115178142D01*
X135327173Y-115211578D01*
X135326060Y-115212143D01*
X135250019Y-115255576D01*
X135249003Y-115256222D01*
X135169018Y-115312574D01*
X135168200Y-115313202D01*
X135081627Y-115385391D01*
X135081016Y-115385934D01*
X134994188Y-115468362D01*
X134658164Y-115132338D01*
X134746660Y-115039740D01*
X134747130Y-115039220D01*
X134824914Y-114948286D01*
X134825452Y-114947612D01*
X134887327Y-114864454D01*
X134887880Y-114863648D01*
X134937229Y-114785404D01*
X134937719Y-114784556D01*
X134977923Y-114708363D01*
X134978284Y-114707621D01*
X135012726Y-114630616D01*
X135012935Y-114630121D01*
X135044997Y-114549442D01*
X135045070Y-114549254D01*
X135078101Y-114462125D01*
X135115497Y-114365643D01*
X135157202Y-114265215D01*
X135912920Y-114306669D01*
G04 #@! TA.AperFunction,Conductor*
D23*
G36*
X135912920Y-114306669D02*
G01*
X135841961Y-115060212D01*
X135742930Y-115085223D01*
X135647015Y-115107855D01*
X135646947Y-115107872D01*
X135560256Y-115128833D01*
X135559848Y-115128939D01*
X135479785Y-115151139D01*
X135479021Y-115151377D01*
X135402941Y-115177735D01*
X135401912Y-115178142D01*
X135327173Y-115211578D01*
X135326060Y-115212143D01*
X135250019Y-115255576D01*
X135249003Y-115256222D01*
X135169018Y-115312574D01*
X135168200Y-115313202D01*
X135081627Y-115385391D01*
X135081016Y-115385934D01*
X134994188Y-115468362D01*
X134658164Y-115132338D01*
X134746660Y-115039740D01*
X134747130Y-115039220D01*
X134824914Y-114948286D01*
X134825452Y-114947612D01*
X134887327Y-114864454D01*
X134887880Y-114863648D01*
X134937229Y-114785404D01*
X134937719Y-114784556D01*
X134977923Y-114708363D01*
X134978284Y-114707621D01*
X135012726Y-114630616D01*
X135012935Y-114630121D01*
X135044997Y-114549442D01*
X135045070Y-114549254D01*
X135078101Y-114462125D01*
X135115497Y-114365643D01*
X135157202Y-114265215D01*
X135912920Y-114306669D01*
G37*
G04 #@! TD.AperFunction*
G04 #@! TD*
D24*
G04 #@! TO.N,+3V3*
X120799256Y-119062160D02*
X120799776Y-119062630D01*
X120890710Y-119140414D01*
X120891384Y-119140952D01*
X120974542Y-119202827D01*
X120975348Y-119203380D01*
X121053592Y-119252729D01*
X121054440Y-119253219D01*
X121130634Y-119293423D01*
X121131376Y-119293784D01*
X121208381Y-119328226D01*
X121208876Y-119328435D01*
X121289555Y-119360497D01*
X121289743Y-119360570D01*
X121376871Y-119393600D01*
X121473354Y-119430996D01*
X121573783Y-119472701D01*
X121532332Y-120228419D01*
X120778788Y-120157463D01*
X120753776Y-120058431D01*
X120731143Y-119962516D01*
X120731126Y-119962448D01*
X120710165Y-119875758D01*
X120710059Y-119875350D01*
X120687859Y-119795286D01*
X120687621Y-119794522D01*
X120661263Y-119718442D01*
X120660856Y-119717413D01*
X120627419Y-119642673D01*
X120626854Y-119641560D01*
X120583420Y-119565520D01*
X120582774Y-119564505D01*
X120526423Y-119484519D01*
X120525795Y-119483700D01*
X120453605Y-119397127D01*
X120453062Y-119396516D01*
X120370635Y-119309688D01*
X120706659Y-118973664D01*
X120799256Y-119062160D01*
G04 #@! TA.AperFunction,Conductor*
D23*
G36*
X120799256Y-119062160D02*
G01*
X120799776Y-119062630D01*
X120890710Y-119140414D01*
X120891384Y-119140952D01*
X120974542Y-119202827D01*
X120975348Y-119203380D01*
X121053592Y-119252729D01*
X121054440Y-119253219D01*
X121130634Y-119293423D01*
X121131376Y-119293784D01*
X121208381Y-119328226D01*
X121208876Y-119328435D01*
X121289555Y-119360497D01*
X121289743Y-119360570D01*
X121376871Y-119393600D01*
X121473354Y-119430996D01*
X121573783Y-119472701D01*
X121532332Y-120228419D01*
X120778788Y-120157463D01*
X120753776Y-120058431D01*
X120731143Y-119962516D01*
X120731126Y-119962448D01*
X120710165Y-119875758D01*
X120710059Y-119875350D01*
X120687859Y-119795286D01*
X120687621Y-119794522D01*
X120661263Y-119718442D01*
X120660856Y-119717413D01*
X120627419Y-119642673D01*
X120626854Y-119641560D01*
X120583420Y-119565520D01*
X120582774Y-119564505D01*
X120526423Y-119484519D01*
X120525795Y-119483700D01*
X120453605Y-119397127D01*
X120453062Y-119396516D01*
X120370635Y-119309688D01*
X120706659Y-118973664D01*
X120799256Y-119062160D01*
G37*
G04 #@! TD.AperFunction*
G04 #@! TD*
D24*
G04 #@! TO.N,+3V3*
X118493654Y-116483734D02*
X118538582Y-116579171D01*
X118577834Y-116665676D01*
X118577870Y-116665754D01*
X118614959Y-116746050D01*
X118615131Y-116746408D01*
X118653646Y-116823371D01*
X118653964Y-116823967D01*
X118697514Y-116900517D01*
X118697954Y-116901234D01*
X118750151Y-116980295D01*
X118750652Y-116981001D01*
X118815103Y-117065493D01*
X118815596Y-117066099D01*
X118895914Y-117158946D01*
X118896350Y-117159425D01*
X118987540Y-117254571D01*
X118651512Y-117590599D01*
X118567988Y-117511621D01*
X118567326Y-117511038D01*
X118483290Y-117441971D01*
X118482393Y-117441297D01*
X118404333Y-117387941D01*
X118403208Y-117387255D01*
X118328638Y-117346925D01*
X118327390Y-117346336D01*
X118253824Y-117316346D01*
X118252653Y-117315934D01*
X118177606Y-117293599D01*
X118176709Y-117293367D01*
X118097695Y-117276003D01*
X118097176Y-117275900D01*
X118011710Y-117260821D01*
X118011558Y-117260795D01*
X117917187Y-117245322D01*
X117820284Y-117228325D01*
X117692862Y-116482236D01*
X118443313Y-116384078D01*
X118493654Y-116483734D01*
G04 #@! TA.AperFunction,Conductor*
D23*
G36*
X118493654Y-116483734D02*
G01*
X118538582Y-116579171D01*
X118577834Y-116665676D01*
X118577870Y-116665754D01*
X118614959Y-116746050D01*
X118615131Y-116746408D01*
X118653646Y-116823371D01*
X118653964Y-116823967D01*
X118697514Y-116900517D01*
X118697954Y-116901234D01*
X118750151Y-116980295D01*
X118750652Y-116981001D01*
X118815103Y-117065493D01*
X118815596Y-117066099D01*
X118895914Y-117158946D01*
X118896350Y-117159425D01*
X118987540Y-117254571D01*
X118651512Y-117590599D01*
X118567988Y-117511621D01*
X118567326Y-117511038D01*
X118483290Y-117441971D01*
X118482393Y-117441297D01*
X118404333Y-117387941D01*
X118403208Y-117387255D01*
X118328638Y-117346925D01*
X118327390Y-117346336D01*
X118253824Y-117316346D01*
X118252653Y-117315934D01*
X118177606Y-117293599D01*
X118176709Y-117293367D01*
X118097695Y-117276003D01*
X118097176Y-117275900D01*
X118011710Y-117260821D01*
X118011558Y-117260795D01*
X117917187Y-117245322D01*
X117820284Y-117228325D01*
X117692862Y-116482236D01*
X118443313Y-116384078D01*
X118493654Y-116483734D01*
G37*
G04 #@! TD.AperFunction*
G04 #@! TD*
D24*
G04 #@! TO.N,+3V3*
X134636474Y-117103710D02*
X134593177Y-117185430D01*
X134544668Y-117265856D01*
X134497584Y-117340235D01*
X134497444Y-117340461D01*
X134454569Y-117411437D01*
X134454131Y-117412225D01*
X134418168Y-117482595D01*
X134417541Y-117484035D01*
X134391129Y-117556694D01*
X134390572Y-117558751D01*
X134376354Y-117636591D01*
X134376147Y-117638964D01*
X134376762Y-117724878D01*
X134376978Y-117727118D01*
X134395067Y-117824001D01*
X134395545Y-117825812D01*
X134429851Y-117925257D01*
X133990767Y-118107127D01*
X133938212Y-117977807D01*
X133890977Y-117856855D01*
X133851397Y-117751706D01*
X133817000Y-117657973D01*
X133785391Y-117571468D01*
X133785357Y-117571378D01*
X133754097Y-117487801D01*
X133754024Y-117487609D01*
X133720684Y-117402685D01*
X133720580Y-117402428D01*
X133682724Y-117311862D01*
X133682605Y-117311588D01*
X133637796Y-117211088D01*
X133637680Y-117210835D01*
X133587223Y-117104025D01*
X134112000Y-116558322D01*
X134636474Y-117103710D01*
G04 #@! TA.AperFunction,Conductor*
D23*
G36*
X134636474Y-117103710D02*
G01*
X134593177Y-117185430D01*
X134544668Y-117265856D01*
X134497584Y-117340235D01*
X134497444Y-117340461D01*
X134454569Y-117411437D01*
X134454131Y-117412225D01*
X134418168Y-117482595D01*
X134417541Y-117484035D01*
X134391129Y-117556694D01*
X134390572Y-117558751D01*
X134376354Y-117636591D01*
X134376147Y-117638964D01*
X134376762Y-117724878D01*
X134376978Y-117727118D01*
X134395067Y-117824001D01*
X134395545Y-117825812D01*
X134429851Y-117925257D01*
X133990767Y-118107127D01*
X133938212Y-117977807D01*
X133890977Y-117856855D01*
X133851397Y-117751706D01*
X133817000Y-117657973D01*
X133785391Y-117571468D01*
X133785357Y-117571378D01*
X133754097Y-117487801D01*
X133754024Y-117487609D01*
X133720684Y-117402685D01*
X133720580Y-117402428D01*
X133682724Y-117311862D01*
X133682605Y-117311588D01*
X133637796Y-117211088D01*
X133637680Y-117210835D01*
X133587223Y-117104025D01*
X134112000Y-116558322D01*
X134636474Y-117103710D01*
G37*
G04 #@! TD.AperFunction*
G04 #@! TD*
D24*
G04 #@! TO.N,+3V3*
X135907104Y-99101550D02*
X135907248Y-99102954D01*
X135925426Y-99217626D01*
X135925795Y-99219256D01*
X135954266Y-99315044D01*
X135954875Y-99316675D01*
X135992143Y-99398786D01*
X135992843Y-99400113D01*
X136037416Y-99473756D01*
X136037954Y-99474572D01*
X136088336Y-99544955D01*
X136088533Y-99545223D01*
X136143151Y-99617449D01*
X136200376Y-99696533D01*
X136258767Y-99787680D01*
X136312841Y-99888525D01*
X135788400Y-100433878D01*
X135263959Y-99888525D01*
X135318035Y-99787675D01*
X135376423Y-99696533D01*
X135433648Y-99617449D01*
X135488266Y-99545223D01*
X135488463Y-99544955D01*
X135538845Y-99474572D01*
X135539383Y-99473756D01*
X135583956Y-99400113D01*
X135584656Y-99398786D01*
X135621924Y-99316675D01*
X135622533Y-99315044D01*
X135651004Y-99219256D01*
X135651373Y-99217626D01*
X135669551Y-99102954D01*
X135669695Y-99101550D01*
X135675529Y-98974900D01*
X135901271Y-98974900D01*
X135907104Y-99101550D01*
G04 #@! TA.AperFunction,Conductor*
D23*
G36*
X135907104Y-99101550D02*
G01*
X135907248Y-99102954D01*
X135925426Y-99217626D01*
X135925795Y-99219256D01*
X135954266Y-99315044D01*
X135954875Y-99316675D01*
X135992143Y-99398786D01*
X135992843Y-99400113D01*
X136037416Y-99473756D01*
X136037954Y-99474572D01*
X136088336Y-99544955D01*
X136088533Y-99545223D01*
X136143151Y-99617449D01*
X136200376Y-99696533D01*
X136258767Y-99787680D01*
X136312841Y-99888525D01*
X135788400Y-100433878D01*
X135263959Y-99888525D01*
X135318035Y-99787675D01*
X135376423Y-99696533D01*
X135433648Y-99617449D01*
X135488266Y-99545223D01*
X135488463Y-99544955D01*
X135538845Y-99474572D01*
X135539383Y-99473756D01*
X135583956Y-99400113D01*
X135584656Y-99398786D01*
X135621924Y-99316675D01*
X135622533Y-99315044D01*
X135651004Y-99219256D01*
X135651373Y-99217626D01*
X135669551Y-99102954D01*
X135669695Y-99101550D01*
X135675529Y-98974900D01*
X135901271Y-98974900D01*
X135907104Y-99101550D01*
G37*
G04 #@! TD.AperFunction*
G04 #@! TD*
D24*
G04 #@! TO.N,+3V3*
X136312841Y-98282275D02*
X136258767Y-98383119D01*
X136200376Y-98474266D01*
X136143151Y-98553350D01*
X136088533Y-98625576D01*
X136088336Y-98625844D01*
X136037954Y-98696227D01*
X136037416Y-98697043D01*
X135992843Y-98770686D01*
X135992143Y-98772013D01*
X135954875Y-98854124D01*
X135954266Y-98855755D01*
X135925795Y-98951543D01*
X135925426Y-98953173D01*
X135907248Y-99067845D01*
X135907104Y-99069249D01*
X135901271Y-99195900D01*
X135675529Y-99195900D01*
X135669695Y-99069249D01*
X135669551Y-99067845D01*
X135651373Y-98953173D01*
X135651004Y-98951543D01*
X135622533Y-98855755D01*
X135621924Y-98854124D01*
X135584656Y-98772013D01*
X135583956Y-98770686D01*
X135539383Y-98697043D01*
X135538845Y-98696227D01*
X135488463Y-98625844D01*
X135488266Y-98625576D01*
X135433648Y-98553350D01*
X135376423Y-98474266D01*
X135318035Y-98383124D01*
X135263959Y-98282275D01*
X135788400Y-97736922D01*
X136312841Y-98282275D01*
G04 #@! TA.AperFunction,Conductor*
D23*
G36*
X136312841Y-98282275D02*
G01*
X136258767Y-98383119D01*
X136200376Y-98474266D01*
X136143151Y-98553350D01*
X136088533Y-98625576D01*
X136088336Y-98625844D01*
X136037954Y-98696227D01*
X136037416Y-98697043D01*
X135992843Y-98770686D01*
X135992143Y-98772013D01*
X135954875Y-98854124D01*
X135954266Y-98855755D01*
X135925795Y-98951543D01*
X135925426Y-98953173D01*
X135907248Y-99067845D01*
X135907104Y-99069249D01*
X135901271Y-99195900D01*
X135675529Y-99195900D01*
X135669695Y-99069249D01*
X135669551Y-99067845D01*
X135651373Y-98953173D01*
X135651004Y-98951543D01*
X135622533Y-98855755D01*
X135621924Y-98854124D01*
X135584656Y-98772013D01*
X135583956Y-98770686D01*
X135539383Y-98697043D01*
X135538845Y-98696227D01*
X135488463Y-98625844D01*
X135488266Y-98625576D01*
X135433648Y-98553350D01*
X135376423Y-98474266D01*
X135318035Y-98383124D01*
X135263959Y-98282275D01*
X135788400Y-97736922D01*
X136312841Y-98282275D01*
G37*
G04 #@! TD.AperFunction*
G04 #@! TD*
D24*
G04 #@! TO.N,+5V*
X95247152Y-100650570D02*
X95451811Y-100755649D01*
X95629613Y-100850969D01*
X95790564Y-100940790D01*
X95944829Y-101029454D01*
X96102289Y-101121149D01*
X96102308Y-101121160D01*
X96273062Y-101220192D01*
X96273144Y-101220239D01*
X96467158Y-101330841D01*
X96467274Y-101330907D01*
X96694576Y-101457343D01*
X96694703Y-101457412D01*
X96954212Y-101597935D01*
X96729961Y-102017480D01*
X96514585Y-101925211D01*
X96511900Y-101924398D01*
X96316283Y-101888109D01*
X96312863Y-101887944D01*
X96140756Y-101902968D01*
X96137485Y-101903697D01*
X95981933Y-101960777D01*
X95979649Y-101961886D01*
X95833694Y-102051765D01*
X95832472Y-102052620D01*
X95689158Y-102166043D01*
X95688730Y-102166397D01*
X95541185Y-102294033D01*
X95382692Y-102426433D01*
X95206492Y-102554273D01*
X95013034Y-102664272D01*
X93906322Y-101600000D01*
X95013445Y-100535333D01*
X95247152Y-100650570D01*
G04 #@! TA.AperFunction,Conductor*
D23*
G36*
X95247152Y-100650570D02*
G01*
X95451811Y-100755649D01*
X95629613Y-100850969D01*
X95790564Y-100940790D01*
X95944829Y-101029454D01*
X96102289Y-101121149D01*
X96102308Y-101121160D01*
X96273062Y-101220192D01*
X96273144Y-101220239D01*
X96467158Y-101330841D01*
X96467274Y-101330907D01*
X96694576Y-101457343D01*
X96694703Y-101457412D01*
X96954212Y-101597935D01*
X96729961Y-102017480D01*
X96514585Y-101925211D01*
X96511900Y-101924398D01*
X96316283Y-101888109D01*
X96312863Y-101887944D01*
X96140756Y-101902968D01*
X96137485Y-101903697D01*
X95981933Y-101960777D01*
X95979649Y-101961886D01*
X95833694Y-102051765D01*
X95832472Y-102052620D01*
X95689158Y-102166043D01*
X95688730Y-102166397D01*
X95541185Y-102294033D01*
X95382692Y-102426433D01*
X95206492Y-102554273D01*
X95013034Y-102664272D01*
X93906322Y-101600000D01*
X95013445Y-100535333D01*
X95247152Y-100650570D01*
G37*
G04 #@! TD.AperFunction*
G04 #@! TD*
D24*
G04 #@! TO.N,+5V*
X99322182Y-110792808D02*
X99322765Y-110793329D01*
X99410470Y-110867005D01*
X99411238Y-110867602D01*
X99491937Y-110925470D01*
X99492870Y-110926078D01*
X99569265Y-110971289D01*
X99570261Y-110971821D01*
X99645056Y-111007530D01*
X99645946Y-111007914D01*
X99721844Y-111037273D01*
X99722465Y-111037495D01*
X99802168Y-111063657D01*
X99802447Y-111063744D01*
X99888622Y-111089852D01*
X99983911Y-111119040D01*
X100082583Y-111151666D01*
X100097376Y-111908376D01*
X99340666Y-111893583D01*
X99308040Y-111794911D01*
X99278852Y-111699622D01*
X99252744Y-111613447D01*
X99252657Y-111613168D01*
X99226495Y-111533465D01*
X99226273Y-111532844D01*
X99196914Y-111456946D01*
X99196530Y-111456056D01*
X99160821Y-111381261D01*
X99160289Y-111380265D01*
X99115078Y-111303870D01*
X99114470Y-111302937D01*
X99056602Y-111222238D01*
X99056005Y-111221470D01*
X98982329Y-111133765D01*
X98981808Y-111133182D01*
X98897704Y-111044743D01*
X99233743Y-110708704D01*
X99322182Y-110792808D01*
G04 #@! TA.AperFunction,Conductor*
D23*
G36*
X99322182Y-110792808D02*
G01*
X99322765Y-110793329D01*
X99410470Y-110867005D01*
X99411238Y-110867602D01*
X99491937Y-110925470D01*
X99492870Y-110926078D01*
X99569265Y-110971289D01*
X99570261Y-110971821D01*
X99645056Y-111007530D01*
X99645946Y-111007914D01*
X99721844Y-111037273D01*
X99722465Y-111037495D01*
X99802168Y-111063657D01*
X99802447Y-111063744D01*
X99888622Y-111089852D01*
X99983911Y-111119040D01*
X100082583Y-111151666D01*
X100097376Y-111908376D01*
X99340666Y-111893583D01*
X99308040Y-111794911D01*
X99278852Y-111699622D01*
X99252744Y-111613447D01*
X99252657Y-111613168D01*
X99226495Y-111533465D01*
X99226273Y-111532844D01*
X99196914Y-111456946D01*
X99196530Y-111456056D01*
X99160821Y-111381261D01*
X99160289Y-111380265D01*
X99115078Y-111303870D01*
X99114470Y-111302937D01*
X99056602Y-111222238D01*
X99056005Y-111221470D01*
X98982329Y-111133765D01*
X98981808Y-111133182D01*
X98897704Y-111044743D01*
X99233743Y-110708704D01*
X99322182Y-110792808D01*
G37*
G04 #@! TD.AperFunction*
G04 #@! TD*
D24*
G04 #@! TO.N,Net-(J1-Pad3)*
X102329659Y-108251237D02*
X102357234Y-108346486D01*
X102380067Y-108437250D01*
X102380101Y-108437383D01*
X102402507Y-108522553D01*
X102402748Y-108523361D01*
X102429056Y-108601794D01*
X102429687Y-108603332D01*
X102464286Y-108674114D01*
X102465584Y-108676221D01*
X102512862Y-108738436D01*
X102514924Y-108740575D01*
X102579269Y-108793309D01*
X102581699Y-108794875D01*
X102667499Y-108837214D01*
X102669718Y-108838061D01*
X102770006Y-108865934D01*
X102706494Y-109185233D01*
X102563536Y-109157261D01*
X102563464Y-109157247D01*
X102431581Y-109132231D01*
X102431535Y-109132223D01*
X102317933Y-109111110D01*
X102217393Y-109092417D01*
X102124889Y-109074697D01*
X102034918Y-109056413D01*
X101942480Y-109036128D01*
X101842192Y-109012325D01*
X101728870Y-108983526D01*
X101605787Y-108950524D01*
X101540329Y-108196414D01*
X102296027Y-108160498D01*
X102329659Y-108251237D01*
G04 #@! TA.AperFunction,Conductor*
D23*
G36*
X102329659Y-108251237D02*
G01*
X102357234Y-108346486D01*
X102380067Y-108437250D01*
X102380101Y-108437383D01*
X102402507Y-108522553D01*
X102402748Y-108523361D01*
X102429056Y-108601794D01*
X102429687Y-108603332D01*
X102464286Y-108674114D01*
X102465584Y-108676221D01*
X102512862Y-108738436D01*
X102514924Y-108740575D01*
X102579269Y-108793309D01*
X102581699Y-108794875D01*
X102667499Y-108837214D01*
X102669718Y-108838061D01*
X102770006Y-108865934D01*
X102706494Y-109185233D01*
X102563536Y-109157261D01*
X102563464Y-109157247D01*
X102431581Y-109132231D01*
X102431535Y-109132223D01*
X102317933Y-109111110D01*
X102217393Y-109092417D01*
X102124889Y-109074697D01*
X102034918Y-109056413D01*
X101942480Y-109036128D01*
X101842192Y-109012325D01*
X101728870Y-108983526D01*
X101605787Y-108950524D01*
X101540329Y-108196414D01*
X102296027Y-108160498D01*
X102329659Y-108251237D01*
G37*
G04 #@! TD.AperFunction*
G04 #@! TD*
D24*
G04 #@! TO.N,Net-(J1-Pad3)*
X109857278Y-109042200D02*
X109311855Y-109566708D01*
X109214057Y-109515519D01*
X109124042Y-109461745D01*
X109044709Y-109410377D01*
X108971290Y-109362418D01*
X108970896Y-109362171D01*
X108898857Y-109318795D01*
X108897992Y-109318319D01*
X108822555Y-109280544D01*
X108821303Y-109279999D01*
X108737691Y-109248846D01*
X108736262Y-109248408D01*
X108639698Y-109224894D01*
X108638330Y-109224639D01*
X108524036Y-109209784D01*
X108522879Y-109209687D01*
X108398300Y-109204972D01*
X108398300Y-108879428D01*
X108522879Y-108874712D01*
X108524036Y-108874615D01*
X108638330Y-108859760D01*
X108639698Y-108859505D01*
X108736262Y-108835991D01*
X108737691Y-108835553D01*
X108821303Y-108804400D01*
X108822555Y-108803855D01*
X108897992Y-108766080D01*
X108898857Y-108765604D01*
X108970896Y-108722228D01*
X108971290Y-108721981D01*
X109044709Y-108674022D01*
X109124042Y-108622654D01*
X109214057Y-108568880D01*
X109311855Y-108517692D01*
X109857278Y-109042200D01*
G04 #@! TA.AperFunction,Conductor*
D23*
G36*
X109857278Y-109042200D02*
G01*
X109311855Y-109566708D01*
X109214057Y-109515519D01*
X109124042Y-109461745D01*
X109044709Y-109410377D01*
X108971290Y-109362418D01*
X108970896Y-109362171D01*
X108898857Y-109318795D01*
X108897992Y-109318319D01*
X108822555Y-109280544D01*
X108821303Y-109279999D01*
X108737691Y-109248846D01*
X108736262Y-109248408D01*
X108639698Y-109224894D01*
X108638330Y-109224639D01*
X108524036Y-109209784D01*
X108522879Y-109209687D01*
X108398300Y-109204972D01*
X108398300Y-108879428D01*
X108522879Y-108874712D01*
X108524036Y-108874615D01*
X108638330Y-108859760D01*
X108639698Y-108859505D01*
X108736262Y-108835991D01*
X108737691Y-108835553D01*
X108821303Y-108804400D01*
X108822555Y-108803855D01*
X108897992Y-108766080D01*
X108898857Y-108765604D01*
X108970896Y-108722228D01*
X108971290Y-108721981D01*
X109044709Y-108674022D01*
X109124042Y-108622654D01*
X109214057Y-108568880D01*
X109311855Y-108517692D01*
X109857278Y-109042200D01*
G37*
G04 #@! TD.AperFunction*
G04 #@! TD*
D24*
G04 #@! TO.N,Net-(J1-Pad3)*
X96649191Y-108578012D02*
X96116837Y-109116005D01*
X96020401Y-109070533D01*
X95929205Y-109025135D01*
X95847055Y-108983914D01*
X95846807Y-108983793D01*
X95769477Y-108947069D01*
X95768905Y-108946814D01*
X95692168Y-108914910D01*
X95691305Y-108914588D01*
X95610896Y-108887806D01*
X95609867Y-108887511D01*
X95521523Y-108866153D01*
X95520490Y-108865948D01*
X95419945Y-108850318D01*
X95419032Y-108850210D01*
X95302024Y-108840610D01*
X95301287Y-108840571D01*
X95175949Y-108837598D01*
X95175949Y-108362388D01*
X95298492Y-108359344D01*
X95299269Y-108359301D01*
X95413928Y-108349410D01*
X95414895Y-108349289D01*
X95513387Y-108333104D01*
X95514492Y-108332872D01*
X95600921Y-108310638D01*
X95602030Y-108310298D01*
X95680498Y-108282261D01*
X95681439Y-108281881D01*
X95756048Y-108248286D01*
X95756691Y-108247975D01*
X95831545Y-108209068D01*
X95831853Y-108208902D01*
X95911055Y-108164927D01*
X95911067Y-108164920D01*
X95998605Y-108116188D01*
X96090796Y-108067084D01*
X96649191Y-108578012D01*
G04 #@! TA.AperFunction,Conductor*
D23*
G36*
X96649191Y-108578012D02*
G01*
X96116837Y-109116005D01*
X96020401Y-109070533D01*
X95929205Y-109025135D01*
X95847055Y-108983914D01*
X95846807Y-108983793D01*
X95769477Y-108947069D01*
X95768905Y-108946814D01*
X95692168Y-108914910D01*
X95691305Y-108914588D01*
X95610896Y-108887806D01*
X95609867Y-108887511D01*
X95521523Y-108866153D01*
X95520490Y-108865948D01*
X95419945Y-108850318D01*
X95419032Y-108850210D01*
X95302024Y-108840610D01*
X95301287Y-108840571D01*
X95175949Y-108837598D01*
X95175949Y-108362388D01*
X95298492Y-108359344D01*
X95299269Y-108359301D01*
X95413928Y-108349410D01*
X95414895Y-108349289D01*
X95513387Y-108333104D01*
X95514492Y-108332872D01*
X95600921Y-108310638D01*
X95602030Y-108310298D01*
X95680498Y-108282261D01*
X95681439Y-108281881D01*
X95756048Y-108248286D01*
X95756691Y-108247975D01*
X95831545Y-108209068D01*
X95831853Y-108208902D01*
X95911055Y-108164927D01*
X95911067Y-108164920D01*
X95998605Y-108116188D01*
X96090796Y-108067084D01*
X96649191Y-108578012D01*
G37*
G04 #@! TD.AperFunction*
G04 #@! TD*
D24*
G04 #@! TO.N,Net-(J1-Pad3)*
X95662080Y-108359416D02*
X95662679Y-108359845D01*
X95690047Y-108378261D01*
X95690599Y-108378612D01*
X95732497Y-108403769D01*
X95733188Y-108404155D01*
X95786662Y-108431891D01*
X95787579Y-108432321D01*
X95849671Y-108458475D01*
X95850938Y-108458931D01*
X95918692Y-108479343D01*
X95920482Y-108479744D01*
X95990941Y-108490253D01*
X95993456Y-108490376D01*
X96063663Y-108486821D01*
X96066947Y-108486215D01*
X96133946Y-108464435D01*
X96136227Y-108463437D01*
X96137481Y-108462634D01*
X96189540Y-108424840D01*
X96525214Y-108760634D01*
X96436496Y-108829912D01*
X96327438Y-108880189D01*
X96212671Y-108908041D01*
X96097031Y-108917803D01*
X95985484Y-108913865D01*
X95883044Y-108900690D01*
X95794706Y-108882793D01*
X95725442Y-108864707D01*
X95680050Y-108850933D01*
X95679970Y-108850909D01*
X95663499Y-108846029D01*
X95661722Y-108845639D01*
X93976070Y-108600000D01*
X95656445Y-108355130D01*
X95662080Y-108359416D01*
G04 #@! TA.AperFunction,Conductor*
D23*
G36*
X95662080Y-108359416D02*
G01*
X95662679Y-108359845D01*
X95690047Y-108378261D01*
X95690599Y-108378612D01*
X95732497Y-108403769D01*
X95733188Y-108404155D01*
X95786662Y-108431891D01*
X95787579Y-108432321D01*
X95849671Y-108458475D01*
X95850938Y-108458931D01*
X95918692Y-108479343D01*
X95920482Y-108479744D01*
X95990941Y-108490253D01*
X95993456Y-108490376D01*
X96063663Y-108486821D01*
X96066947Y-108486215D01*
X96133946Y-108464435D01*
X96136227Y-108463437D01*
X96137481Y-108462634D01*
X96189540Y-108424840D01*
X96525214Y-108760634D01*
X96436496Y-108829912D01*
X96327438Y-108880189D01*
X96212671Y-108908041D01*
X96097031Y-108917803D01*
X95985484Y-108913865D01*
X95883044Y-108900690D01*
X95794706Y-108882793D01*
X95725442Y-108864707D01*
X95680050Y-108850933D01*
X95679970Y-108850909D01*
X95663499Y-108846029D01*
X95661722Y-108845639D01*
X93976070Y-108600000D01*
X95656445Y-108355130D01*
X95662080Y-108359416D01*
G37*
G04 #@! TD.AperFunction*
G04 #@! TD*
D24*
G04 #@! TO.N,/RST*
X135184913Y-121451694D02*
X135124717Y-121521640D01*
X135123340Y-121523582D01*
X135080228Y-121598384D01*
X135079066Y-121601077D01*
X135057451Y-121673142D01*
X135056931Y-121676182D01*
X135053538Y-121746847D01*
X135053690Y-121749507D01*
X135065244Y-121820108D01*
X135065692Y-121821962D01*
X135088919Y-121893837D01*
X135089314Y-121894895D01*
X135120939Y-121969382D01*
X135121129Y-121969807D01*
X135157844Y-122048171D01*
X135196324Y-122131640D01*
X135229921Y-122213297D01*
X134657754Y-122708499D01*
X134185291Y-122117415D01*
X134258457Y-122004047D01*
X134331798Y-121906629D01*
X134402900Y-121826761D01*
X134474112Y-121758738D01*
X134547853Y-121696849D01*
X134626494Y-121635449D01*
X134712218Y-121569013D01*
X134712437Y-121568839D01*
X134807294Y-121491914D01*
X134807661Y-121491605D01*
X134913912Y-121398575D01*
X134914327Y-121398195D01*
X135025254Y-121292035D01*
X135184913Y-121451694D01*
G04 #@! TA.AperFunction,Conductor*
D23*
G36*
X135184913Y-121451694D02*
G01*
X135124717Y-121521640D01*
X135123340Y-121523582D01*
X135080228Y-121598384D01*
X135079066Y-121601077D01*
X135057451Y-121673142D01*
X135056931Y-121676182D01*
X135053538Y-121746847D01*
X135053690Y-121749507D01*
X135065244Y-121820108D01*
X135065692Y-121821962D01*
X135088919Y-121893837D01*
X135089314Y-121894895D01*
X135120939Y-121969382D01*
X135121129Y-121969807D01*
X135157844Y-122048171D01*
X135196324Y-122131640D01*
X135229921Y-122213297D01*
X134657754Y-122708499D01*
X134185291Y-122117415D01*
X134258457Y-122004047D01*
X134331798Y-121906629D01*
X134402900Y-121826761D01*
X134474112Y-121758738D01*
X134547853Y-121696849D01*
X134626494Y-121635449D01*
X134712218Y-121569013D01*
X134712437Y-121568839D01*
X134807294Y-121491914D01*
X134807661Y-121491605D01*
X134913912Y-121398575D01*
X134914327Y-121398195D01*
X135025254Y-121292035D01*
X135184913Y-121451694D01*
G37*
G04 #@! TD.AperFunction*
G04 #@! TD*
D24*
G04 #@! TO.N,/RST*
X136489178Y-115951000D02*
X135943979Y-116475293D01*
X135871429Y-116434329D01*
X135787293Y-116377420D01*
X135702066Y-116315091D01*
X135618847Y-116253811D01*
X135618515Y-116253575D01*
X135540274Y-116199748D01*
X135539355Y-116199172D01*
X135468966Y-116159135D01*
X135466710Y-116158128D01*
X135407016Y-116138193D01*
X135404588Y-116137640D01*
X135401228Y-116137662D01*
X135355071Y-116144141D01*
X135352651Y-116144727D01*
X135350392Y-116145774D01*
X135348381Y-116147242D01*
X135346723Y-116149036D01*
X135316944Y-116188240D01*
X135315639Y-116190361D01*
X135314774Y-116192695D01*
X135314471Y-116194224D01*
X135305398Y-116261465D01*
X135080105Y-116261465D01*
X135090639Y-116108573D01*
X135123467Y-115974659D01*
X135175686Y-115867207D01*
X135245601Y-115780729D01*
X135331858Y-115709955D01*
X135433064Y-115649978D01*
X135547497Y-115596082D01*
X135673362Y-115543438D01*
X135808487Y-115487278D01*
X135808858Y-115487117D01*
X135943370Y-115426122D01*
X136489178Y-115951000D01*
G04 #@! TA.AperFunction,Conductor*
D23*
G36*
X136489178Y-115951000D02*
G01*
X135943979Y-116475293D01*
X135871429Y-116434329D01*
X135787293Y-116377420D01*
X135702066Y-116315091D01*
X135618847Y-116253811D01*
X135618515Y-116253575D01*
X135540274Y-116199748D01*
X135539355Y-116199172D01*
X135468966Y-116159135D01*
X135466710Y-116158128D01*
X135407016Y-116138193D01*
X135404588Y-116137640D01*
X135401228Y-116137662D01*
X135355071Y-116144141D01*
X135352651Y-116144727D01*
X135350392Y-116145774D01*
X135348381Y-116147242D01*
X135346723Y-116149036D01*
X135316944Y-116188240D01*
X135315639Y-116190361D01*
X135314774Y-116192695D01*
X135314471Y-116194224D01*
X135305398Y-116261465D01*
X135080105Y-116261465D01*
X135090639Y-116108573D01*
X135123467Y-115974659D01*
X135175686Y-115867207D01*
X135245601Y-115780729D01*
X135331858Y-115709955D01*
X135433064Y-115649978D01*
X135547497Y-115596082D01*
X135673362Y-115543438D01*
X135808487Y-115487278D01*
X135808858Y-115487117D01*
X135943370Y-115426122D01*
X136489178Y-115951000D01*
G37*
G04 #@! TD.AperFunction*
G04 #@! TD*
D24*
G04 #@! TO.N,/GPIO0*
X129069600Y-104585979D02*
X129069609Y-104586317D01*
X129075322Y-104727333D01*
X129075335Y-104727583D01*
X129082679Y-104849404D01*
X129082684Y-104849484D01*
X129089876Y-104957451D01*
X129095126Y-105056746D01*
X129096675Y-105152798D01*
X129092774Y-105251097D01*
X129081658Y-105357175D01*
X129061532Y-105476524D01*
X129032505Y-105606070D01*
X128280396Y-105690074D01*
X128225851Y-104935252D01*
X128300703Y-104903221D01*
X128379831Y-104871614D01*
X128379943Y-104871569D01*
X128454046Y-104841148D01*
X128454632Y-104840889D01*
X128522458Y-104808960D01*
X128523573Y-104808366D01*
X128584012Y-104772178D01*
X128585609Y-104771046D01*
X128637551Y-104727848D01*
X128639350Y-104726014D01*
X128681683Y-104673056D01*
X128683199Y-104670648D01*
X128714812Y-104605181D01*
X128715711Y-104602682D01*
X128735493Y-104521954D01*
X128735828Y-104519809D01*
X128741851Y-104432892D01*
X129067475Y-104432892D01*
X129069600Y-104585979D01*
G04 #@! TA.AperFunction,Conductor*
D23*
G36*
X129069600Y-104585979D02*
G01*
X129069609Y-104586317D01*
X129075322Y-104727333D01*
X129075335Y-104727583D01*
X129082679Y-104849404D01*
X129082684Y-104849484D01*
X129089876Y-104957451D01*
X129095126Y-105056746D01*
X129096675Y-105152798D01*
X129092774Y-105251097D01*
X129081658Y-105357175D01*
X129061532Y-105476524D01*
X129032505Y-105606070D01*
X128280396Y-105690074D01*
X128225851Y-104935252D01*
X128300703Y-104903221D01*
X128379831Y-104871614D01*
X128379943Y-104871569D01*
X128454046Y-104841148D01*
X128454632Y-104840889D01*
X128522458Y-104808960D01*
X128523573Y-104808366D01*
X128584012Y-104772178D01*
X128585609Y-104771046D01*
X128637551Y-104727848D01*
X128639350Y-104726014D01*
X128681683Y-104673056D01*
X128683199Y-104670648D01*
X128714812Y-104605181D01*
X128715711Y-104602682D01*
X128735493Y-104521954D01*
X128735828Y-104519809D01*
X128741851Y-104432892D01*
X129067475Y-104432892D01*
X129069600Y-104585979D01*
G37*
G04 #@! TD.AperFunction*
G04 #@! TD*
D24*
G04 #@! TO.N,/GPIO0*
X129345946Y-101367669D02*
X129313506Y-101483661D01*
X129276657Y-101589478D01*
X129239041Y-101682176D01*
X129201946Y-101767189D01*
X129201902Y-101767289D01*
X129166736Y-101849816D01*
X129166522Y-101850354D01*
X129134708Y-101935595D01*
X129134410Y-101936493D01*
X129107304Y-102029798D01*
X129107040Y-102030884D01*
X129086000Y-102137604D01*
X129085834Y-102138691D01*
X129072215Y-102264177D01*
X129072148Y-102265136D01*
X129067705Y-102402450D01*
X128742185Y-102402450D01*
X128737395Y-102286864D01*
X128737276Y-102285575D01*
X128721857Y-102178806D01*
X128721528Y-102177237D01*
X128696674Y-102087335D01*
X128696077Y-102085649D01*
X128662479Y-102008491D01*
X128661688Y-102006966D01*
X128620038Y-101938428D01*
X128619270Y-101937305D01*
X128570259Y-101873263D01*
X128569734Y-101872620D01*
X128514053Y-101808951D01*
X128513865Y-101808741D01*
X128452265Y-101741386D01*
X128385547Y-101666350D01*
X128319930Y-101586287D01*
X128719310Y-100943505D01*
X129345946Y-101367669D01*
G04 #@! TA.AperFunction,Conductor*
D23*
G36*
X129345946Y-101367669D02*
G01*
X129313506Y-101483661D01*
X129276657Y-101589478D01*
X129239041Y-101682176D01*
X129201946Y-101767189D01*
X129201902Y-101767289D01*
X129166736Y-101849816D01*
X129166522Y-101850354D01*
X129134708Y-101935595D01*
X129134410Y-101936493D01*
X129107304Y-102029798D01*
X129107040Y-102030884D01*
X129086000Y-102137604D01*
X129085834Y-102138691D01*
X129072215Y-102264177D01*
X129072148Y-102265136D01*
X129067705Y-102402450D01*
X128742185Y-102402450D01*
X128737395Y-102286864D01*
X128737276Y-102285575D01*
X128721857Y-102178806D01*
X128721528Y-102177237D01*
X128696674Y-102087335D01*
X128696077Y-102085649D01*
X128662479Y-102008491D01*
X128661688Y-102006966D01*
X128620038Y-101938428D01*
X128619270Y-101937305D01*
X128570259Y-101873263D01*
X128569734Y-101872620D01*
X128514053Y-101808951D01*
X128513865Y-101808741D01*
X128452265Y-101741386D01*
X128385547Y-101666350D01*
X128319930Y-101586287D01*
X128719310Y-100943505D01*
X129345946Y-101367669D01*
G37*
G04 #@! TD.AperFunction*
G04 #@! TD*
D24*
G04 #@! TO.N,/GPIO0*
X127566573Y-108185121D02*
X127481815Y-108276546D01*
X127481065Y-108277432D01*
X127410752Y-108368754D01*
X127409965Y-108369901D01*
X127358311Y-108454808D01*
X127357610Y-108456129D01*
X127320516Y-108537280D01*
X127320016Y-108538551D01*
X127293385Y-108618604D01*
X127293110Y-108619552D01*
X127272842Y-108701163D01*
X127272738Y-108701617D01*
X127254736Y-108787444D01*
X127234961Y-108879867D01*
X127209338Y-108981530D01*
X127176379Y-109086885D01*
X126419825Y-109101676D01*
X126434614Y-108345122D01*
X126539968Y-108312162D01*
X126641632Y-108286538D01*
X126734054Y-108266763D01*
X126819881Y-108248761D01*
X126820335Y-108248657D01*
X126901946Y-108228389D01*
X126902894Y-108228114D01*
X126982946Y-108201482D01*
X126984217Y-108200982D01*
X127065369Y-108163888D01*
X127066690Y-108163187D01*
X127151597Y-108111533D01*
X127152744Y-108110746D01*
X127244066Y-108040433D01*
X127244952Y-108039684D01*
X127336379Y-107954927D01*
X127566573Y-108185121D01*
G04 #@! TA.AperFunction,Conductor*
D23*
G36*
X127566573Y-108185121D02*
G01*
X127481815Y-108276546D01*
X127481065Y-108277432D01*
X127410752Y-108368754D01*
X127409965Y-108369901D01*
X127358311Y-108454808D01*
X127357610Y-108456129D01*
X127320516Y-108537280D01*
X127320016Y-108538551D01*
X127293385Y-108618604D01*
X127293110Y-108619552D01*
X127272842Y-108701163D01*
X127272738Y-108701617D01*
X127254736Y-108787444D01*
X127234961Y-108879867D01*
X127209338Y-108981530D01*
X127176379Y-109086885D01*
X126419825Y-109101676D01*
X126434614Y-108345122D01*
X126539968Y-108312162D01*
X126641632Y-108286538D01*
X126734054Y-108266763D01*
X126819881Y-108248761D01*
X126820335Y-108248657D01*
X126901946Y-108228389D01*
X126902894Y-108228114D01*
X126982946Y-108201482D01*
X126984217Y-108200982D01*
X127065369Y-108163888D01*
X127066690Y-108163187D01*
X127151597Y-108111533D01*
X127152744Y-108110746D01*
X127244066Y-108040433D01*
X127244952Y-108039684D01*
X127336379Y-107954927D01*
X127566573Y-108185121D01*
G37*
G04 #@! TD.AperFunction*
G04 #@! TD*
D24*
G04 #@! TO.N,/GPIO0*
X128985106Y-105737347D02*
X128932299Y-105841951D01*
X128880267Y-105937771D01*
X128832450Y-106022019D01*
X128788389Y-106099650D01*
X128788243Y-106099916D01*
X128747516Y-106175839D01*
X128747249Y-106176364D01*
X128709370Y-106255591D01*
X128709059Y-106256295D01*
X128673547Y-106343837D01*
X128673268Y-106344594D01*
X128639640Y-106445464D01*
X128639428Y-106446167D01*
X128607201Y-106565375D01*
X128607057Y-106565965D01*
X128578419Y-106696364D01*
X128293700Y-106639730D01*
X128293700Y-106526607D01*
X128276901Y-106442155D01*
X128277280Y-106402876D01*
X128277139Y-106400858D01*
X128262952Y-106306872D01*
X128262458Y-106304798D01*
X128235362Y-106222463D01*
X128234647Y-106220733D01*
X128196979Y-106145726D01*
X128196339Y-106144599D01*
X128150435Y-106072598D01*
X128150098Y-106072097D01*
X128098296Y-105998779D01*
X128043128Y-105920101D01*
X127986937Y-105831806D01*
X127936066Y-105737168D01*
X128460500Y-105191822D01*
X128985106Y-105737347D01*
G04 #@! TA.AperFunction,Conductor*
D23*
G36*
X128985106Y-105737347D02*
G01*
X128932299Y-105841951D01*
X128880267Y-105937771D01*
X128832450Y-106022019D01*
X128788389Y-106099650D01*
X128788243Y-106099916D01*
X128747516Y-106175839D01*
X128747249Y-106176364D01*
X128709370Y-106255591D01*
X128709059Y-106256295D01*
X128673547Y-106343837D01*
X128673268Y-106344594D01*
X128639640Y-106445464D01*
X128639428Y-106446167D01*
X128607201Y-106565375D01*
X128607057Y-106565965D01*
X128578419Y-106696364D01*
X128293700Y-106639730D01*
X128293700Y-106526607D01*
X128276901Y-106442155D01*
X128277280Y-106402876D01*
X128277139Y-106400858D01*
X128262952Y-106306872D01*
X128262458Y-106304798D01*
X128235362Y-106222463D01*
X128234647Y-106220733D01*
X128196979Y-106145726D01*
X128196339Y-106144599D01*
X128150435Y-106072598D01*
X128150098Y-106072097D01*
X128098296Y-105998779D01*
X128043128Y-105920101D01*
X127986937Y-105831806D01*
X127936066Y-105737168D01*
X128460500Y-105191822D01*
X128985106Y-105737347D01*
G37*
G04 #@! TD.AperFunction*
G04 #@! TD*
D24*
G04 #@! TO.N,/GPIO0*
X117237406Y-117929139D02*
X117186111Y-118023623D01*
X117128686Y-118111457D01*
X117071708Y-118189430D01*
X117017629Y-118261985D01*
X117017309Y-118262436D01*
X116968937Y-118333601D01*
X116968270Y-118334697D01*
X116928139Y-118408870D01*
X116927359Y-118410613D01*
X116898007Y-118492193D01*
X116897440Y-118494343D01*
X116881401Y-118587727D01*
X116881218Y-118589855D01*
X116881030Y-118699443D01*
X116881152Y-118701223D01*
X116897691Y-118819537D01*
X116578419Y-118883045D01*
X116550434Y-118754061D01*
X116550310Y-118753540D01*
X116519361Y-118635216D01*
X116519178Y-118634584D01*
X116487285Y-118534219D01*
X116487040Y-118533520D01*
X116453579Y-118446218D01*
X116453299Y-118445546D01*
X116417645Y-118366409D01*
X116417393Y-118365882D01*
X116378919Y-118290014D01*
X116378763Y-118289716D01*
X116336845Y-118212220D01*
X116336814Y-118212164D01*
X116290880Y-118128240D01*
X116240277Y-118032947D01*
X116188374Y-117929367D01*
X116713000Y-117383822D01*
X117237406Y-117929139D01*
G04 #@! TA.AperFunction,Conductor*
D23*
G36*
X117237406Y-117929139D02*
G01*
X117186111Y-118023623D01*
X117128686Y-118111457D01*
X117071708Y-118189430D01*
X117017629Y-118261985D01*
X117017309Y-118262436D01*
X116968937Y-118333601D01*
X116968270Y-118334697D01*
X116928139Y-118408870D01*
X116927359Y-118410613D01*
X116898007Y-118492193D01*
X116897440Y-118494343D01*
X116881401Y-118587727D01*
X116881218Y-118589855D01*
X116881030Y-118699443D01*
X116881152Y-118701223D01*
X116897691Y-118819537D01*
X116578419Y-118883045D01*
X116550434Y-118754061D01*
X116550310Y-118753540D01*
X116519361Y-118635216D01*
X116519178Y-118634584D01*
X116487285Y-118534219D01*
X116487040Y-118533520D01*
X116453579Y-118446218D01*
X116453299Y-118445546D01*
X116417645Y-118366409D01*
X116417393Y-118365882D01*
X116378919Y-118290014D01*
X116378763Y-118289716D01*
X116336845Y-118212220D01*
X116336814Y-118212164D01*
X116290880Y-118128240D01*
X116240277Y-118032947D01*
X116188374Y-117929367D01*
X116713000Y-117383822D01*
X117237406Y-117929139D01*
G37*
G04 #@! TD.AperFunction*
G04 #@! TD*
D24*
G04 #@! TO.N,/GPIO0*
X118971094Y-121401437D02*
X118971910Y-121402135D01*
X119066398Y-121476302D01*
X119067437Y-121477036D01*
X119154861Y-121532496D01*
X119156037Y-121533157D01*
X119239171Y-121574248D01*
X119240282Y-121574733D01*
X119321903Y-121605789D01*
X119322704Y-121606063D01*
X119405586Y-121631420D01*
X119405922Y-121631518D01*
X119492757Y-121655488D01*
X119586202Y-121682370D01*
X119688926Y-121716444D01*
X119795774Y-121758852D01*
X119754332Y-122514419D01*
X119000943Y-122443477D01*
X118975971Y-122337423D01*
X118957165Y-122235031D01*
X118942680Y-122142015D01*
X118942667Y-122141934D01*
X118928693Y-122055837D01*
X118928582Y-122055241D01*
X118911293Y-121973589D01*
X118911011Y-121972501D01*
X118886556Y-121892659D01*
X118886039Y-121891266D01*
X118850570Y-121810599D01*
X118849842Y-121809190D01*
X118799506Y-121725065D01*
X118798693Y-121723867D01*
X118729641Y-121633650D01*
X118728875Y-121632740D01*
X118645560Y-121542763D01*
X118875736Y-121312587D01*
X118971094Y-121401437D01*
G04 #@! TA.AperFunction,Conductor*
D23*
G36*
X118971094Y-121401437D02*
G01*
X118971910Y-121402135D01*
X119066398Y-121476302D01*
X119067437Y-121477036D01*
X119154861Y-121532496D01*
X119156037Y-121533157D01*
X119239171Y-121574248D01*
X119240282Y-121574733D01*
X119321903Y-121605789D01*
X119322704Y-121606063D01*
X119405586Y-121631420D01*
X119405922Y-121631518D01*
X119492757Y-121655488D01*
X119586202Y-121682370D01*
X119688926Y-121716444D01*
X119795774Y-121758852D01*
X119754332Y-122514419D01*
X119000943Y-122443477D01*
X118975971Y-122337423D01*
X118957165Y-122235031D01*
X118942680Y-122142015D01*
X118942667Y-122141934D01*
X118928693Y-122055837D01*
X118928582Y-122055241D01*
X118911293Y-121973589D01*
X118911011Y-121972501D01*
X118886556Y-121892659D01*
X118886039Y-121891266D01*
X118850570Y-121810599D01*
X118849842Y-121809190D01*
X118799506Y-121725065D01*
X118798693Y-121723867D01*
X118729641Y-121633650D01*
X118728875Y-121632740D01*
X118645560Y-121542763D01*
X118875736Y-121312587D01*
X118971094Y-121401437D01*
G37*
G04 #@! TD.AperFunction*
G04 #@! TD*
D24*
G04 #@! TO.N,/D-*
X100727508Y-119643745D02*
X100676319Y-119741542D01*
X100622545Y-119831557D01*
X100571177Y-119910890D01*
X100523218Y-119984309D01*
X100522971Y-119984703D01*
X100479595Y-120056742D01*
X100479119Y-120057607D01*
X100441344Y-120133044D01*
X100440799Y-120134296D01*
X100409646Y-120217908D01*
X100409208Y-120219337D01*
X100385694Y-120315901D01*
X100385439Y-120317269D01*
X100370584Y-120431563D01*
X100370487Y-120432720D01*
X100365772Y-120557300D01*
X100040228Y-120557300D01*
X100035512Y-120432720D01*
X100035415Y-120431563D01*
X100020560Y-120317269D01*
X100020305Y-120315901D01*
X99996791Y-120219337D01*
X99996353Y-120217908D01*
X99965200Y-120134296D01*
X99964655Y-120133044D01*
X99926880Y-120057607D01*
X99926404Y-120056742D01*
X99883028Y-119984703D01*
X99882781Y-119984309D01*
X99834822Y-119910890D01*
X99783454Y-119831557D01*
X99729680Y-119741542D01*
X99678492Y-119643745D01*
X100203000Y-119098322D01*
X100727508Y-119643745D01*
G04 #@! TA.AperFunction,Conductor*
D23*
G36*
X100727508Y-119643745D02*
G01*
X100676319Y-119741542D01*
X100622545Y-119831557D01*
X100571177Y-119910890D01*
X100523218Y-119984309D01*
X100522971Y-119984703D01*
X100479595Y-120056742D01*
X100479119Y-120057607D01*
X100441344Y-120133044D01*
X100440799Y-120134296D01*
X100409646Y-120217908D01*
X100409208Y-120219337D01*
X100385694Y-120315901D01*
X100385439Y-120317269D01*
X100370584Y-120431563D01*
X100370487Y-120432720D01*
X100365772Y-120557300D01*
X100040228Y-120557300D01*
X100035512Y-120432720D01*
X100035415Y-120431563D01*
X100020560Y-120317269D01*
X100020305Y-120315901D01*
X99996791Y-120219337D01*
X99996353Y-120217908D01*
X99965200Y-120134296D01*
X99964655Y-120133044D01*
X99926880Y-120057607D01*
X99926404Y-120056742D01*
X99883028Y-119984703D01*
X99882781Y-119984309D01*
X99834822Y-119910890D01*
X99783454Y-119831557D01*
X99729680Y-119741542D01*
X99678492Y-119643745D01*
X100203000Y-119098322D01*
X100727508Y-119643745D01*
G37*
G04 #@! TD.AperFunction*
G04 #@! TD*
D24*
G04 #@! TO.N,/D-*
X100370487Y-120613279D02*
X100370584Y-120614436D01*
X100385439Y-120728730D01*
X100385694Y-120730098D01*
X100409208Y-120826662D01*
X100409646Y-120828091D01*
X100440799Y-120911703D01*
X100441344Y-120912955D01*
X100479119Y-120988392D01*
X100479595Y-120989257D01*
X100522971Y-121061296D01*
X100523218Y-121061690D01*
X100571150Y-121135067D01*
X100622545Y-121214442D01*
X100676319Y-121304457D01*
X100727508Y-121402255D01*
X100203000Y-121947678D01*
X99678492Y-121402255D01*
X99729680Y-121304457D01*
X99783454Y-121214442D01*
X99834822Y-121135109D01*
X99882781Y-121061690D01*
X99883028Y-121061296D01*
X99926404Y-120989257D01*
X99926880Y-120988392D01*
X99964655Y-120912955D01*
X99965200Y-120911703D01*
X99996353Y-120828091D01*
X99996791Y-120826662D01*
X100020305Y-120730098D01*
X100020560Y-120728730D01*
X100035415Y-120614436D01*
X100035512Y-120613279D01*
X100040228Y-120488700D01*
X100365772Y-120488700D01*
X100370487Y-120613279D01*
G04 #@! TA.AperFunction,Conductor*
D23*
G36*
X100370487Y-120613279D02*
G01*
X100370584Y-120614436D01*
X100385439Y-120728730D01*
X100385694Y-120730098D01*
X100409208Y-120826662D01*
X100409646Y-120828091D01*
X100440799Y-120911703D01*
X100441344Y-120912955D01*
X100479119Y-120988392D01*
X100479595Y-120989257D01*
X100522971Y-121061296D01*
X100523218Y-121061690D01*
X100571150Y-121135067D01*
X100622545Y-121214442D01*
X100676319Y-121304457D01*
X100727508Y-121402255D01*
X100203000Y-121947678D01*
X99678492Y-121402255D01*
X99729680Y-121304457D01*
X99783454Y-121214442D01*
X99834822Y-121135109D01*
X99882781Y-121061690D01*
X99883028Y-121061296D01*
X99926404Y-120989257D01*
X99926880Y-120988392D01*
X99964655Y-120912955D01*
X99965200Y-120911703D01*
X99996353Y-120828091D01*
X99996791Y-120826662D01*
X100020305Y-120730098D01*
X100020560Y-120728730D01*
X100035415Y-120614436D01*
X100035512Y-120613279D01*
X100040228Y-120488700D01*
X100365772Y-120488700D01*
X100370487Y-120613279D01*
G37*
G04 #@! TD.AperFunction*
G04 #@! TD*
D24*
G04 #@! TO.N,/CUTXD*
X119008046Y-119279184D02*
X119008932Y-119279933D01*
X119100254Y-119350246D01*
X119101401Y-119351033D01*
X119186309Y-119402687D01*
X119187630Y-119403388D01*
X119268781Y-119440482D01*
X119270052Y-119440982D01*
X119350104Y-119467613D01*
X119351052Y-119467888D01*
X119432663Y-119488156D01*
X119433117Y-119488260D01*
X119518944Y-119506262D01*
X119611367Y-119526038D01*
X119713031Y-119551661D01*
X119818386Y-119584621D01*
X119833176Y-120341176D01*
X119076621Y-120326386D01*
X119043661Y-120221031D01*
X119018038Y-120119367D01*
X118998262Y-120026944D01*
X118980260Y-119941117D01*
X118980156Y-119940663D01*
X118959888Y-119859052D01*
X118959613Y-119858104D01*
X118932982Y-119778052D01*
X118932482Y-119776781D01*
X118895388Y-119695630D01*
X118894687Y-119694309D01*
X118843033Y-119609401D01*
X118842246Y-119608254D01*
X118771933Y-119516932D01*
X118771184Y-119516046D01*
X118686427Y-119424620D01*
X118916620Y-119194427D01*
X119008046Y-119279184D01*
G04 #@! TA.AperFunction,Conductor*
D23*
G36*
X119008046Y-119279184D02*
G01*
X119008932Y-119279933D01*
X119100254Y-119350246D01*
X119101401Y-119351033D01*
X119186309Y-119402687D01*
X119187630Y-119403388D01*
X119268781Y-119440482D01*
X119270052Y-119440982D01*
X119350104Y-119467613D01*
X119351052Y-119467888D01*
X119432663Y-119488156D01*
X119433117Y-119488260D01*
X119518944Y-119506262D01*
X119611367Y-119526038D01*
X119713031Y-119551661D01*
X119818386Y-119584621D01*
X119833176Y-120341176D01*
X119076621Y-120326386D01*
X119043661Y-120221031D01*
X119018038Y-120119367D01*
X118998262Y-120026944D01*
X118980260Y-119941117D01*
X118980156Y-119940663D01*
X118959888Y-119859052D01*
X118959613Y-119858104D01*
X118932982Y-119778052D01*
X118932482Y-119776781D01*
X118895388Y-119695630D01*
X118894687Y-119694309D01*
X118843033Y-119609401D01*
X118842246Y-119608254D01*
X118771933Y-119516932D01*
X118771184Y-119516046D01*
X118686427Y-119424620D01*
X118916620Y-119194427D01*
X119008046Y-119279184D01*
G37*
G04 #@! TD.AperFunction*
G04 #@! TD*
D24*
G04 #@! TO.N,/CUTXD*
X118423446Y-118485757D02*
X118498034Y-118575584D01*
X118558229Y-118659674D01*
X118609469Y-118740741D01*
X118657140Y-118821450D01*
X118657168Y-118821497D01*
X118706522Y-118904244D01*
X118706761Y-118904628D01*
X118763063Y-118991800D01*
X118763468Y-118992390D01*
X118832080Y-119086534D01*
X118832582Y-119087179D01*
X118918866Y-119190845D01*
X118919394Y-119191441D01*
X119020235Y-119298204D01*
X118790023Y-119528416D01*
X118716824Y-119462109D01*
X118715614Y-119461140D01*
X118638857Y-119407041D01*
X118637197Y-119406051D01*
X118564052Y-119369667D01*
X118562027Y-119368868D01*
X118490710Y-119347593D01*
X118488630Y-119347158D01*
X118417353Y-119338385D01*
X118415607Y-119338291D01*
X118342585Y-119339413D01*
X118341393Y-119339488D01*
X118264839Y-119347897D01*
X118264221Y-119347980D01*
X118182350Y-119361070D01*
X118182221Y-119361092D01*
X118093376Y-119376234D01*
X118004556Y-119389513D01*
X117652177Y-118719726D01*
X118335091Y-118393856D01*
X118423446Y-118485757D01*
G04 #@! TA.AperFunction,Conductor*
D23*
G36*
X118423446Y-118485757D02*
G01*
X118498034Y-118575584D01*
X118558229Y-118659674D01*
X118609469Y-118740741D01*
X118657140Y-118821450D01*
X118657168Y-118821497D01*
X118706522Y-118904244D01*
X118706761Y-118904628D01*
X118763063Y-118991800D01*
X118763468Y-118992390D01*
X118832080Y-119086534D01*
X118832582Y-119087179D01*
X118918866Y-119190845D01*
X118919394Y-119191441D01*
X119020235Y-119298204D01*
X118790023Y-119528416D01*
X118716824Y-119462109D01*
X118715614Y-119461140D01*
X118638857Y-119407041D01*
X118637197Y-119406051D01*
X118564052Y-119369667D01*
X118562027Y-119368868D01*
X118490710Y-119347593D01*
X118488630Y-119347158D01*
X118417353Y-119338385D01*
X118415607Y-119338291D01*
X118342585Y-119339413D01*
X118341393Y-119339488D01*
X118264839Y-119347897D01*
X118264221Y-119347980D01*
X118182350Y-119361070D01*
X118182221Y-119361092D01*
X118093376Y-119376234D01*
X118004556Y-119389513D01*
X117652177Y-118719726D01*
X118335091Y-118393856D01*
X118423446Y-118485757D01*
G37*
G04 #@! TD.AperFunction*
G04 #@! TD*
D24*
G04 #@! TO.N,WLED*
X121036616Y-102535105D02*
X121142510Y-102593383D01*
X121233760Y-102648382D01*
X121315234Y-102702663D01*
X121391973Y-102758899D01*
X121468877Y-102819696D01*
X121550900Y-102887698D01*
X121642869Y-102965442D01*
X121642881Y-102965452D01*
X121749652Y-103055490D01*
X121749730Y-103055556D01*
X121866421Y-103152358D01*
X121659861Y-103404056D01*
X121584491Y-103351344D01*
X121582365Y-103350143D01*
X121503716Y-103315231D01*
X121500868Y-103314350D01*
X121426976Y-103300714D01*
X121423886Y-103300527D01*
X121353152Y-103304906D01*
X121350552Y-103305341D01*
X121281378Y-103324472D01*
X121279625Y-103325099D01*
X121210410Y-103355722D01*
X121209442Y-103356200D01*
X121138587Y-103395052D01*
X121138228Y-103395257D01*
X121064189Y-103439045D01*
X120985584Y-103484382D01*
X120908642Y-103524012D01*
X120368337Y-102994277D01*
X120918938Y-102474941D01*
X121036616Y-102535105D01*
G04 #@! TA.AperFunction,Conductor*
D23*
G36*
X121036616Y-102535105D02*
G01*
X121142510Y-102593383D01*
X121233760Y-102648382D01*
X121315234Y-102702663D01*
X121391973Y-102758899D01*
X121468877Y-102819696D01*
X121550900Y-102887698D01*
X121642869Y-102965442D01*
X121642881Y-102965452D01*
X121749652Y-103055490D01*
X121749730Y-103055556D01*
X121866421Y-103152358D01*
X121659861Y-103404056D01*
X121584491Y-103351344D01*
X121582365Y-103350143D01*
X121503716Y-103315231D01*
X121500868Y-103314350D01*
X121426976Y-103300714D01*
X121423886Y-103300527D01*
X121353152Y-103304906D01*
X121350552Y-103305341D01*
X121281378Y-103324472D01*
X121279625Y-103325099D01*
X121210410Y-103355722D01*
X121209442Y-103356200D01*
X121138587Y-103395052D01*
X121138228Y-103395257D01*
X121064189Y-103439045D01*
X120985584Y-103484382D01*
X120908642Y-103524012D01*
X120368337Y-102994277D01*
X120918938Y-102474941D01*
X121036616Y-102535105D01*
G37*
G04 #@! TD.AperFunction*
G04 #@! TD*
D24*
G04 #@! TO.N,WLED*
X126755046Y-105753684D02*
X126755932Y-105754433D01*
X126847254Y-105824746D01*
X126848401Y-105825533D01*
X126933309Y-105877187D01*
X126934630Y-105877888D01*
X127015781Y-105914982D01*
X127017052Y-105915482D01*
X127097104Y-105942113D01*
X127098052Y-105942388D01*
X127179663Y-105962656D01*
X127180117Y-105962760D01*
X127265944Y-105980762D01*
X127358367Y-106000538D01*
X127460031Y-106026161D01*
X127565386Y-106059121D01*
X127580176Y-106815676D01*
X126823621Y-106800886D01*
X126790661Y-106695531D01*
X126765038Y-106593867D01*
X126745262Y-106501444D01*
X126727260Y-106415617D01*
X126727156Y-106415163D01*
X126706888Y-106333552D01*
X126706613Y-106332604D01*
X126679982Y-106252552D01*
X126679482Y-106251281D01*
X126642388Y-106170130D01*
X126641687Y-106168809D01*
X126590033Y-106083901D01*
X126589246Y-106082754D01*
X126518933Y-105991432D01*
X126518184Y-105990546D01*
X126433427Y-105899120D01*
X126663620Y-105668927D01*
X126755046Y-105753684D01*
G04 #@! TA.AperFunction,Conductor*
D23*
G36*
X126755046Y-105753684D02*
G01*
X126755932Y-105754433D01*
X126847254Y-105824746D01*
X126848401Y-105825533D01*
X126933309Y-105877187D01*
X126934630Y-105877888D01*
X127015781Y-105914982D01*
X127017052Y-105915482D01*
X127097104Y-105942113D01*
X127098052Y-105942388D01*
X127179663Y-105962656D01*
X127180117Y-105962760D01*
X127265944Y-105980762D01*
X127358367Y-106000538D01*
X127460031Y-106026161D01*
X127565386Y-106059121D01*
X127580176Y-106815676D01*
X126823621Y-106800886D01*
X126790661Y-106695531D01*
X126765038Y-106593867D01*
X126745262Y-106501444D01*
X126727260Y-106415617D01*
X126727156Y-106415163D01*
X126706888Y-106333552D01*
X126706613Y-106332604D01*
X126679982Y-106252552D01*
X126679482Y-106251281D01*
X126642388Y-106170130D01*
X126641687Y-106168809D01*
X126590033Y-106083901D01*
X126589246Y-106082754D01*
X126518933Y-105991432D01*
X126518184Y-105990546D01*
X126433427Y-105899120D01*
X126663620Y-105668927D01*
X126755046Y-105753684D01*
G37*
G04 #@! TD.AperFunction*
G04 #@! TD*
D24*
G04 #@! TO.N,/5VOUT*
X109531382Y-96950534D02*
X109432698Y-96983163D01*
X109337422Y-97012346D01*
X109251247Y-97038454D01*
X109250968Y-97038541D01*
X109171265Y-97064704D01*
X109170644Y-97064926D01*
X109094746Y-97094285D01*
X109093856Y-97094669D01*
X109019061Y-97130377D01*
X109018065Y-97130909D01*
X108941670Y-97176121D01*
X108940737Y-97176729D01*
X108860038Y-97234596D01*
X108859270Y-97235193D01*
X108771565Y-97308869D01*
X108770982Y-97309390D01*
X108682542Y-97393494D01*
X108346504Y-97057455D01*
X108430608Y-96969015D01*
X108431129Y-96968432D01*
X108504805Y-96880727D01*
X108505402Y-96879959D01*
X108563270Y-96799260D01*
X108563878Y-96798327D01*
X108609089Y-96721932D01*
X108609621Y-96720936D01*
X108645330Y-96646141D01*
X108645714Y-96645251D01*
X108675073Y-96569354D01*
X108675295Y-96568733D01*
X108701458Y-96489030D01*
X108701545Y-96488751D01*
X108727653Y-96402577D01*
X108756841Y-96307288D01*
X108789467Y-96208617D01*
X109546176Y-96193825D01*
X109531382Y-96950534D01*
G04 #@! TA.AperFunction,Conductor*
D23*
G36*
X109531382Y-96950534D02*
G01*
X109432698Y-96983163D01*
X109337422Y-97012346D01*
X109251247Y-97038454D01*
X109250968Y-97038541D01*
X109171265Y-97064704D01*
X109170644Y-97064926D01*
X109094746Y-97094285D01*
X109093856Y-97094669D01*
X109019061Y-97130377D01*
X109018065Y-97130909D01*
X108941670Y-97176121D01*
X108940737Y-97176729D01*
X108860038Y-97234596D01*
X108859270Y-97235193D01*
X108771565Y-97308869D01*
X108770982Y-97309390D01*
X108682542Y-97393494D01*
X108346504Y-97057455D01*
X108430608Y-96969015D01*
X108431129Y-96968432D01*
X108504805Y-96880727D01*
X108505402Y-96879959D01*
X108563270Y-96799260D01*
X108563878Y-96798327D01*
X108609089Y-96721932D01*
X108609621Y-96720936D01*
X108645330Y-96646141D01*
X108645714Y-96645251D01*
X108675073Y-96569354D01*
X108675295Y-96568733D01*
X108701458Y-96489030D01*
X108701545Y-96488751D01*
X108727653Y-96402577D01*
X108756841Y-96307288D01*
X108789467Y-96208617D01*
X109546176Y-96193825D01*
X109531382Y-96950534D01*
G37*
G04 #@! TD.AperFunction*
G04 #@! TD*
D24*
G04 #@! TO.N,/5VOUT*
X104860486Y-104099430D02*
X104852874Y-104218313D01*
X104852850Y-104219369D01*
X104855003Y-104331071D01*
X104855094Y-104332359D01*
X104866798Y-104428600D01*
X104867053Y-104430020D01*
X104887311Y-104514765D01*
X104887715Y-104516116D01*
X104915529Y-104593331D01*
X104915969Y-104594398D01*
X104950343Y-104668050D01*
X104950673Y-104668707D01*
X104990609Y-104742760D01*
X104990742Y-104743000D01*
X105035180Y-104821309D01*
X105083149Y-104907883D01*
X105129572Y-104998688D01*
X104605000Y-105544178D01*
X104080332Y-104998589D01*
X104128098Y-104901705D01*
X104174086Y-104810153D01*
X104174126Y-104810071D01*
X104214797Y-104727631D01*
X104214941Y-104727330D01*
X104250736Y-104649702D01*
X104250967Y-104649168D01*
X104282328Y-104572056D01*
X104282594Y-104571342D01*
X104309965Y-104490446D01*
X104310203Y-104489660D01*
X104334024Y-104400682D01*
X104334199Y-104399941D01*
X104354914Y-104298582D01*
X104355025Y-104297959D01*
X104373076Y-104179921D01*
X104373140Y-104179438D01*
X104387555Y-104052852D01*
X104860486Y-104099430D01*
G04 #@! TA.AperFunction,Conductor*
D23*
G36*
X104860486Y-104099430D02*
G01*
X104852874Y-104218313D01*
X104852850Y-104219369D01*
X104855003Y-104331071D01*
X104855094Y-104332359D01*
X104866798Y-104428600D01*
X104867053Y-104430020D01*
X104887311Y-104514765D01*
X104887715Y-104516116D01*
X104915529Y-104593331D01*
X104915969Y-104594398D01*
X104950343Y-104668050D01*
X104950673Y-104668707D01*
X104990609Y-104742760D01*
X104990742Y-104743000D01*
X105035180Y-104821309D01*
X105083149Y-104907883D01*
X105129572Y-104998688D01*
X104605000Y-105544178D01*
X104080332Y-104998589D01*
X104128098Y-104901705D01*
X104174086Y-104810153D01*
X104174126Y-104810071D01*
X104214797Y-104727631D01*
X104214941Y-104727330D01*
X104250736Y-104649702D01*
X104250967Y-104649168D01*
X104282328Y-104572056D01*
X104282594Y-104571342D01*
X104309965Y-104490446D01*
X104310203Y-104489660D01*
X104334024Y-104400682D01*
X104334199Y-104399941D01*
X104354914Y-104298582D01*
X104355025Y-104297959D01*
X104373076Y-104179921D01*
X104373140Y-104179438D01*
X104387555Y-104052852D01*
X104860486Y-104099430D01*
G37*
G04 #@! TD.AperFunction*
G04 #@! TD*
M02*
