G04 #@! TF.GenerationSoftware,KiCad,Pcbnew,5.1.10-88a1d61d58~88~ubuntu20.04.1*
G04 #@! TF.CreationDate,2021-07-02T10:57:31-04:00*
G04 #@! TF.ProjectId,ESP8285-WLED,45535038-3238-4352-9d57-4c45442e6b69,rev?*
G04 #@! TF.SameCoordinates,PX55fe290PY791ddc0*
G04 #@! TF.FileFunction,Copper,L1,Top*
G04 #@! TF.FilePolarity,Positive*
%FSLAX46Y46*%
G04 Gerber Fmt 4.6, Leading zero omitted, Abs format (unit mm)*
G04 Created by KiCad (PCBNEW 5.1.10-88a1d61d58~88~ubuntu20.04.1) date 2021-07-02 10:57:31*
%MOMM*%
%LPD*%
G01*
G04 APERTURE LIST*
G04 #@! TA.AperFunction,NonConductor*
%ADD10C,0.200000*%
G04 #@! TD*
G04 #@! TA.AperFunction,EtchedComponent*
%ADD11C,0.050000*%
G04 #@! TD*
G04 #@! TA.AperFunction,ConnectorPad*
%ADD12R,0.500000X0.500000*%
G04 #@! TD*
G04 #@! TA.AperFunction,ComponentPad*
%ADD13R,0.500000X0.900000*%
G04 #@! TD*
G04 #@! TA.AperFunction,SMDPad,CuDef*
%ADD14R,1.400000X1.200000*%
G04 #@! TD*
G04 #@! TA.AperFunction,SMDPad,CuDef*
%ADD15R,1.100000X0.510000*%
G04 #@! TD*
G04 #@! TA.AperFunction,SMDPad,CuDef*
%ADD16R,1.560000X0.650000*%
G04 #@! TD*
G04 #@! TA.AperFunction,SMDPad,CuDef*
%ADD17R,1.900000X0.800000*%
G04 #@! TD*
G04 #@! TA.AperFunction,SMDPad,CuDef*
%ADD18R,3.450000X3.450000*%
G04 #@! TD*
G04 #@! TA.AperFunction,SMDPad,CuDef*
%ADD19R,1.500000X0.400000*%
G04 #@! TD*
G04 #@! TA.AperFunction,SMDPad,CuDef*
%ADD20R,3.600000X1.500000*%
G04 #@! TD*
G04 #@! TA.AperFunction,ComponentPad*
%ADD21O,3.000000X2.000000*%
G04 #@! TD*
G04 #@! TA.AperFunction,ComponentPad*
%ADD22O,2.000000X1.000000*%
G04 #@! TD*
G04 #@! TA.AperFunction,SMDPad,CuDef*
%ADD23R,1.600000X0.500000*%
G04 #@! TD*
G04 #@! TA.AperFunction,SMDPad,CuDef*
%ADD24R,1.000000X1.400000*%
G04 #@! TD*
G04 #@! TA.AperFunction,ComponentPad*
%ADD25C,2.400000*%
G04 #@! TD*
G04 #@! TA.AperFunction,ComponentPad*
%ADD26R,2.400000X2.400000*%
G04 #@! TD*
G04 #@! TA.AperFunction,SMDPad,CuDef*
%ADD27R,1.000000X1.000000*%
G04 #@! TD*
G04 #@! TA.AperFunction,ComponentPad*
%ADD28C,1.600000*%
G04 #@! TD*
G04 #@! TA.AperFunction,ComponentPad*
%ADD29R,1.600000X1.600000*%
G04 #@! TD*
G04 #@! TA.AperFunction,ViaPad*
%ADD30C,1.200000*%
G04 #@! TD*
G04 #@! TA.AperFunction,ViaPad*
%ADD31C,1.600000*%
G04 #@! TD*
G04 #@! TA.AperFunction,Conductor*
%ADD32C,0.250000*%
G04 #@! TD*
G04 #@! TA.AperFunction,Conductor*
%ADD33C,0.500000*%
G04 #@! TD*
G04 #@! TA.AperFunction,Conductor*
%ADD34C,0.350000*%
G04 #@! TD*
G04 #@! TA.AperFunction,Conductor*
%ADD35C,0.254000*%
G04 #@! TD*
G04 #@! TA.AperFunction,Conductor*
%ADD36C,0.050000*%
G04 #@! TD*
G04 APERTURE END LIST*
D10*
X39949619Y2722620D02*
X39616285Y3198810D01*
X39378190Y2722620D02*
X39378190Y3722620D01*
X39759142Y3722620D01*
X39854380Y3675000D01*
X39902000Y3627381D01*
X39949619Y3532143D01*
X39949619Y3389286D01*
X39902000Y3294048D01*
X39854380Y3246429D01*
X39759142Y3198810D01*
X39378190Y3198810D01*
X40378190Y3246429D02*
X40711523Y3246429D01*
X40854380Y2722620D02*
X40378190Y2722620D01*
X40378190Y3722620D01*
X40854380Y3722620D01*
X41235333Y2770239D02*
X41378190Y2722620D01*
X41616285Y2722620D01*
X41711523Y2770239D01*
X41759142Y2817858D01*
X41806761Y2913096D01*
X41806761Y3008334D01*
X41759142Y3103572D01*
X41711523Y3151191D01*
X41616285Y3198810D01*
X41425809Y3246429D01*
X41330571Y3294048D01*
X41282952Y3341667D01*
X41235333Y3436905D01*
X41235333Y3532143D01*
X41282952Y3627381D01*
X41330571Y3675000D01*
X41425809Y3722620D01*
X41663904Y3722620D01*
X41806761Y3675000D01*
X42235333Y3246429D02*
X42568666Y3246429D01*
X42711523Y2722620D02*
X42235333Y2722620D01*
X42235333Y3722620D01*
X42711523Y3722620D01*
X42997238Y3722620D02*
X43568666Y3722620D01*
X43282952Y2722620D02*
X43282952Y3722620D01*
X39838523Y31821429D02*
X39505190Y31821429D01*
X39505190Y31297620D02*
X39505190Y32297620D01*
X39981380Y32297620D01*
X40838523Y31297620D02*
X40362333Y31297620D01*
X40362333Y32297620D01*
X41124238Y31583334D02*
X41600428Y31583334D01*
X41029000Y31297620D02*
X41362333Y32297620D01*
X41695666Y31297620D01*
X41981380Y31345239D02*
X42124238Y31297620D01*
X42362333Y31297620D01*
X42457571Y31345239D01*
X42505190Y31392858D01*
X42552809Y31488096D01*
X42552809Y31583334D01*
X42505190Y31678572D01*
X42457571Y31726191D01*
X42362333Y31773810D01*
X42171857Y31821429D01*
X42076619Y31869048D01*
X42029000Y31916667D01*
X41981380Y32011905D01*
X41981380Y32107143D01*
X42029000Y32202381D01*
X42076619Y32250000D01*
X42171857Y32297620D01*
X42409952Y32297620D01*
X42552809Y32250000D01*
X42981380Y31297620D02*
X42981380Y32297620D01*
X42981380Y31821429D02*
X43552809Y31821429D01*
X43552809Y31297620D02*
X43552809Y32297620D01*
D11*
G04 #@! TO.C,AE1*
G36*
X58771000Y15658000D02*
G01*
X58771000Y17658000D01*
X61411000Y17658000D01*
X61411000Y20358000D01*
X58771000Y20358000D01*
X58771000Y22358000D01*
X61411000Y22358000D01*
X61411000Y25058000D01*
X56971000Y25058000D01*
X56971000Y24558000D01*
X60911000Y24558000D01*
X60911000Y22858000D01*
X58271000Y22858000D01*
X58271000Y19858000D01*
X60911000Y19858000D01*
X60911000Y18158000D01*
X58271000Y18158000D01*
X58271000Y15158000D01*
X60911000Y15158000D01*
X60911000Y13458000D01*
X56011000Y13458000D01*
X56011000Y12958000D01*
X60911000Y12958000D01*
X60911000Y11558000D01*
X56011000Y11558000D01*
X56011000Y10658000D01*
X56254215Y10658000D01*
X56254215Y10960417D01*
X56206605Y10970258D01*
X56164203Y10994326D01*
X56131419Y11032269D01*
X56127065Y11040181D01*
X56114957Y11082844D01*
X56115700Y11131363D01*
X56128600Y11176878D01*
X56139213Y11195489D01*
X56174447Y11229132D01*
X56219632Y11249691D01*
X56269158Y11256222D01*
X56317417Y11247782D01*
X56349643Y11230888D01*
X56382313Y11195628D01*
X56402408Y11150318D01*
X56408982Y11100733D01*
X56401092Y11052647D01*
X56384186Y11019755D01*
X56347416Y10984815D01*
X56302622Y10965153D01*
X56254215Y10960417D01*
X56254215Y10658000D01*
X61411000Y10658000D01*
X61411000Y15658000D01*
X58771000Y15658000D01*
G37*
G04 #@! TD*
G04 #@! TO.P,J3,1*
G04 #@! TO.N,Net-(J3-Pad1)*
G04 #@! TA.AperFunction,SMDPad,CuDef*
G36*
G01*
X51578000Y10386000D02*
X51578000Y9886000D01*
G75*
G02*
X51328000Y9636000I-250000J0D01*
G01*
X50828000Y9636000D01*
G75*
G02*
X50578000Y9886000I0J250000D01*
G01*
X50578000Y10386000D01*
G75*
G02*
X50828000Y10636000I250000J0D01*
G01*
X51328000Y10636000D01*
G75*
G02*
X51578000Y10386000I0J-250000D01*
G01*
G37*
G04 #@! TD.AperFunction*
G04 #@! TO.P,J3,2*
G04 #@! TO.N,GND*
G04 #@! TA.AperFunction,SMDPad,CuDef*
G36*
G01*
X50078000Y9486000D02*
X50078000Y7786000D01*
G75*
G02*
X49828000Y7536000I-250000J0D01*
G01*
X49328000Y7536000D01*
G75*
G02*
X49078000Y7786000I0J250000D01*
G01*
X49078000Y9486000D01*
G75*
G02*
X49328000Y9736000I250000J0D01*
G01*
X49828000Y9736000D01*
G75*
G02*
X50078000Y9486000I0J-250000D01*
G01*
G37*
G04 #@! TD.AperFunction*
G04 #@! TA.AperFunction,SMDPad,CuDef*
G36*
G01*
X53078000Y9486000D02*
X53078000Y7786000D01*
G75*
G02*
X52828000Y7536000I-250000J0D01*
G01*
X52328000Y7536000D01*
G75*
G02*
X52078000Y7786000I0J250000D01*
G01*
X52078000Y9486000D01*
G75*
G02*
X52328000Y9736000I250000J0D01*
G01*
X52828000Y9736000D01*
G75*
G02*
X53078000Y9486000I0J-250000D01*
G01*
G37*
G04 #@! TD.AperFunction*
G04 #@! TD*
D12*
G04 #@! TO.P,AE1,1*
G04 #@! TO.N,Net-(AE1-Pad1)*
X56261000Y13208000D03*
D13*
G04 #@! TO.P,AE1,2*
G04 #@! TO.N,GND*
X56261000Y11108000D03*
G04 #@! TD*
G04 #@! TO.P,R17,2*
G04 #@! TO.N,+3V3*
G04 #@! TA.AperFunction,SMDPad,CuDef*
G36*
G01*
X35833500Y26971000D02*
X35833500Y26496000D01*
G75*
G02*
X35596000Y26258500I-237500J0D01*
G01*
X35096000Y26258500D01*
G75*
G02*
X34858500Y26496000I0J237500D01*
G01*
X34858500Y26971000D01*
G75*
G02*
X35096000Y27208500I237500J0D01*
G01*
X35596000Y27208500D01*
G75*
G02*
X35833500Y26971000I0J-237500D01*
G01*
G37*
G04 #@! TD.AperFunction*
G04 #@! TO.P,R17,1*
G04 #@! TO.N,Net-(D4-Pad2)*
G04 #@! TA.AperFunction,SMDPad,CuDef*
G36*
G01*
X37658500Y26971000D02*
X37658500Y26496000D01*
G75*
G02*
X37421000Y26258500I-237500J0D01*
G01*
X36921000Y26258500D01*
G75*
G02*
X36683500Y26496000I0J237500D01*
G01*
X36683500Y26971000D01*
G75*
G02*
X36921000Y27208500I237500J0D01*
G01*
X37421000Y27208500D01*
G75*
G02*
X37658500Y26971000I0J-237500D01*
G01*
G37*
G04 #@! TD.AperFunction*
G04 #@! TD*
G04 #@! TO.P,D4,2*
G04 #@! TO.N,Net-(D4-Pad2)*
G04 #@! TA.AperFunction,SMDPad,CuDef*
G36*
G01*
X39538000Y26946000D02*
X39538000Y26521000D01*
G75*
G02*
X39325500Y26308500I-212500J0D01*
G01*
X38525500Y26308500D01*
G75*
G02*
X38313000Y26521000I0J212500D01*
G01*
X38313000Y26946000D01*
G75*
G02*
X38525500Y27158500I212500J0D01*
G01*
X39325500Y27158500D01*
G75*
G02*
X39538000Y26946000I0J-212500D01*
G01*
G37*
G04 #@! TD.AperFunction*
G04 #@! TO.P,D4,1*
G04 #@! TO.N,/GPIO2*
G04 #@! TA.AperFunction,SMDPad,CuDef*
G36*
G01*
X41163000Y26946000D02*
X41163000Y26521000D01*
G75*
G02*
X40950500Y26308500I-212500J0D01*
G01*
X40150500Y26308500D01*
G75*
G02*
X39938000Y26521000I0J212500D01*
G01*
X39938000Y26946000D01*
G75*
G02*
X40150500Y27158500I212500J0D01*
G01*
X40950500Y27158500D01*
G75*
G02*
X41163000Y26946000I0J-212500D01*
G01*
G37*
G04 #@! TD.AperFunction*
G04 #@! TD*
D14*
G04 #@! TO.P,Y1,4*
G04 #@! TO.N,GND*
X39710000Y8904500D03*
G04 #@! TO.P,Y1,3*
G04 #@! TO.N,/XI*
X41910000Y8904500D03*
G04 #@! TO.P,Y1,2*
G04 #@! TO.N,GND*
X41910000Y7204500D03*
G04 #@! TO.P,Y1,1*
G04 #@! TO.N,/XO*
X39710000Y7204500D03*
G04 #@! TD*
G04 #@! TO.P,U5,0*
G04 #@! TO.N,GND*
G04 #@! TA.AperFunction,SMDPad,CuDef*
G36*
G01*
X15639000Y4350500D02*
X15639000Y6825500D01*
G75*
G02*
X16201500Y7388000I562500J0D01*
G01*
X17326500Y7388000D01*
G75*
G02*
X17889000Y6825500I0J-562500D01*
G01*
X17889000Y4350500D01*
G75*
G02*
X17326500Y3788000I-562500J0D01*
G01*
X16201500Y3788000D01*
G75*
G02*
X15639000Y4350500I0J562500D01*
G01*
G37*
G04 #@! TD.AperFunction*
D15*
G04 #@! TO.P,U5,10*
G04 #@! TO.N,+3V3*
X19314000Y7588000D03*
G04 #@! TO.P,U5,9*
G04 #@! TO.N,/CUTXD*
X19314000Y6588000D03*
G04 #@! TO.P,U5,5*
G04 #@! TO.N,N/C*
X14214000Y3588000D03*
G04 #@! TO.P,U5,8*
G04 #@! TO.N,/URXD*
X19314000Y5588000D03*
G04 #@! TO.P,U5,7*
G04 #@! TO.N,+3V3*
X19314000Y4588000D03*
G04 #@! TO.P,U5,6*
G04 #@! TO.N,/RTS*
X19314000Y3588000D03*
G04 #@! TO.P,U5,4*
G04 #@! TO.N,/DTR*
X14214000Y4588000D03*
G04 #@! TO.P,U5,3*
G04 #@! TO.N,GND*
X14214000Y5588000D03*
G04 #@! TO.P,U5,2*
G04 #@! TO.N,/D-*
X14214000Y6588000D03*
G04 #@! TO.P,U5,1*
G04 #@! TO.N,/D+*
X14214000Y7588000D03*
G04 #@! TD*
D16*
G04 #@! TO.P,U4,5*
G04 #@! TO.N,Net-(R9-Pad2)*
X27765000Y21897000D03*
G04 #@! TO.P,U4,6*
G04 #@! TO.N,+5V*
X27765000Y20947000D03*
G04 #@! TO.P,U4,4*
G04 #@! TO.N,Net-(R10-Pad2)*
X27765000Y22847000D03*
G04 #@! TO.P,U4,3*
G04 #@! TO.N,WLED*
X30465000Y22847000D03*
G04 #@! TO.P,U4,2*
G04 #@! TO.N,GND*
X30465000Y21897000D03*
G04 #@! TO.P,U4,1*
G04 #@! TO.N,+3V3*
X30465000Y20947000D03*
G04 #@! TD*
D17*
G04 #@! TO.P,U3,3*
G04 #@! TO.N,+5V*
X21765000Y14920000D03*
G04 #@! TO.P,U3,2*
G04 #@! TO.N,+3V3*
X24765000Y15870000D03*
G04 #@! TO.P,U3,1*
G04 #@! TO.N,GND*
X24765000Y13970000D03*
G04 #@! TD*
D18*
G04 #@! TO.P,U2,33*
G04 #@! TO.N,GND*
X41148000Y16510000D03*
G04 #@! TO.P,U2,32*
G04 #@! TO.N,/RST*
G04 #@! TA.AperFunction,SMDPad,CuDef*
G36*
G01*
X43023000Y14447500D02*
X43023000Y13697500D01*
G75*
G02*
X42960500Y13635000I-62500J0D01*
G01*
X42835500Y13635000D01*
G75*
G02*
X42773000Y13697500I0J62500D01*
G01*
X42773000Y14447500D01*
G75*
G02*
X42835500Y14510000I62500J0D01*
G01*
X42960500Y14510000D01*
G75*
G02*
X43023000Y14447500I0J-62500D01*
G01*
G37*
G04 #@! TD.AperFunction*
G04 #@! TO.P,U2,31*
G04 #@! TO.N,/RES12K*
G04 #@! TA.AperFunction,SMDPad,CuDef*
G36*
G01*
X42523000Y14447500D02*
X42523000Y13697500D01*
G75*
G02*
X42460500Y13635000I-62500J0D01*
G01*
X42335500Y13635000D01*
G75*
G02*
X42273000Y13697500I0J62500D01*
G01*
X42273000Y14447500D01*
G75*
G02*
X42335500Y14510000I62500J0D01*
G01*
X42460500Y14510000D01*
G75*
G02*
X42523000Y14447500I0J-62500D01*
G01*
G37*
G04 #@! TD.AperFunction*
G04 #@! TO.P,U2,30*
G04 #@! TO.N,+3V3*
G04 #@! TA.AperFunction,SMDPad,CuDef*
G36*
G01*
X42023000Y14447500D02*
X42023000Y13697500D01*
G75*
G02*
X41960500Y13635000I-62500J0D01*
G01*
X41835500Y13635000D01*
G75*
G02*
X41773000Y13697500I0J62500D01*
G01*
X41773000Y14447500D01*
G75*
G02*
X41835500Y14510000I62500J0D01*
G01*
X41960500Y14510000D01*
G75*
G02*
X42023000Y14447500I0J-62500D01*
G01*
G37*
G04 #@! TD.AperFunction*
G04 #@! TO.P,U2,29*
G04 #@! TA.AperFunction,SMDPad,CuDef*
G36*
G01*
X41523000Y14447500D02*
X41523000Y13697500D01*
G75*
G02*
X41460500Y13635000I-62500J0D01*
G01*
X41335500Y13635000D01*
G75*
G02*
X41273000Y13697500I0J62500D01*
G01*
X41273000Y14447500D01*
G75*
G02*
X41335500Y14510000I62500J0D01*
G01*
X41460500Y14510000D01*
G75*
G02*
X41523000Y14447500I0J-62500D01*
G01*
G37*
G04 #@! TD.AperFunction*
G04 #@! TO.P,U2,28*
G04 #@! TO.N,/XI*
G04 #@! TA.AperFunction,SMDPad,CuDef*
G36*
G01*
X41023000Y14447500D02*
X41023000Y13697500D01*
G75*
G02*
X40960500Y13635000I-62500J0D01*
G01*
X40835500Y13635000D01*
G75*
G02*
X40773000Y13697500I0J62500D01*
G01*
X40773000Y14447500D01*
G75*
G02*
X40835500Y14510000I62500J0D01*
G01*
X40960500Y14510000D01*
G75*
G02*
X41023000Y14447500I0J-62500D01*
G01*
G37*
G04 #@! TD.AperFunction*
G04 #@! TO.P,U2,27*
G04 #@! TO.N,/XO*
G04 #@! TA.AperFunction,SMDPad,CuDef*
G36*
G01*
X40523000Y14447500D02*
X40523000Y13697500D01*
G75*
G02*
X40460500Y13635000I-62500J0D01*
G01*
X40335500Y13635000D01*
G75*
G02*
X40273000Y13697500I0J62500D01*
G01*
X40273000Y14447500D01*
G75*
G02*
X40335500Y14510000I62500J0D01*
G01*
X40460500Y14510000D01*
G75*
G02*
X40523000Y14447500I0J-62500D01*
G01*
G37*
G04 #@! TD.AperFunction*
G04 #@! TO.P,U2,26*
G04 #@! TO.N,/UTXD*
G04 #@! TA.AperFunction,SMDPad,CuDef*
G36*
G01*
X40023000Y14447500D02*
X40023000Y13697500D01*
G75*
G02*
X39960500Y13635000I-62500J0D01*
G01*
X39835500Y13635000D01*
G75*
G02*
X39773000Y13697500I0J62500D01*
G01*
X39773000Y14447500D01*
G75*
G02*
X39835500Y14510000I62500J0D01*
G01*
X39960500Y14510000D01*
G75*
G02*
X40023000Y14447500I0J-62500D01*
G01*
G37*
G04 #@! TD.AperFunction*
G04 #@! TO.P,U2,25*
G04 #@! TO.N,/URXD*
G04 #@! TA.AperFunction,SMDPad,CuDef*
G36*
G01*
X39523000Y14447500D02*
X39523000Y13697500D01*
G75*
G02*
X39460500Y13635000I-62500J0D01*
G01*
X39335500Y13635000D01*
G75*
G02*
X39273000Y13697500I0J62500D01*
G01*
X39273000Y14447500D01*
G75*
G02*
X39335500Y14510000I62500J0D01*
G01*
X39460500Y14510000D01*
G75*
G02*
X39523000Y14447500I0J-62500D01*
G01*
G37*
G04 #@! TD.AperFunction*
G04 #@! TO.P,U2,24*
G04 #@! TO.N,N/C*
G04 #@! TA.AperFunction,SMDPad,CuDef*
G36*
G01*
X39148000Y14822500D02*
X39148000Y14697500D01*
G75*
G02*
X39085500Y14635000I-62500J0D01*
G01*
X38335500Y14635000D01*
G75*
G02*
X38273000Y14697500I0J62500D01*
G01*
X38273000Y14822500D01*
G75*
G02*
X38335500Y14885000I62500J0D01*
G01*
X39085500Y14885000D01*
G75*
G02*
X39148000Y14822500I0J-62500D01*
G01*
G37*
G04 #@! TD.AperFunction*
G04 #@! TO.P,U2,23*
G04 #@! TA.AperFunction,SMDPad,CuDef*
G36*
G01*
X39148000Y15322500D02*
X39148000Y15197500D01*
G75*
G02*
X39085500Y15135000I-62500J0D01*
G01*
X38335500Y15135000D01*
G75*
G02*
X38273000Y15197500I0J62500D01*
G01*
X38273000Y15322500D01*
G75*
G02*
X38335500Y15385000I62500J0D01*
G01*
X39085500Y15385000D01*
G75*
G02*
X39148000Y15322500I0J-62500D01*
G01*
G37*
G04 #@! TD.AperFunction*
G04 #@! TO.P,U2,22*
G04 #@! TA.AperFunction,SMDPad,CuDef*
G36*
G01*
X39148000Y15822500D02*
X39148000Y15697500D01*
G75*
G02*
X39085500Y15635000I-62500J0D01*
G01*
X38335500Y15635000D01*
G75*
G02*
X38273000Y15697500I0J62500D01*
G01*
X38273000Y15822500D01*
G75*
G02*
X38335500Y15885000I62500J0D01*
G01*
X39085500Y15885000D01*
G75*
G02*
X39148000Y15822500I0J-62500D01*
G01*
G37*
G04 #@! TD.AperFunction*
G04 #@! TO.P,U2,21*
G04 #@! TA.AperFunction,SMDPad,CuDef*
G36*
G01*
X39148000Y16322500D02*
X39148000Y16197500D01*
G75*
G02*
X39085500Y16135000I-62500J0D01*
G01*
X38335500Y16135000D01*
G75*
G02*
X38273000Y16197500I0J62500D01*
G01*
X38273000Y16322500D01*
G75*
G02*
X38335500Y16385000I62500J0D01*
G01*
X39085500Y16385000D01*
G75*
G02*
X39148000Y16322500I0J-62500D01*
G01*
G37*
G04 #@! TD.AperFunction*
G04 #@! TO.P,U2,20*
G04 #@! TA.AperFunction,SMDPad,CuDef*
G36*
G01*
X39148000Y16822500D02*
X39148000Y16697500D01*
G75*
G02*
X39085500Y16635000I-62500J0D01*
G01*
X38335500Y16635000D01*
G75*
G02*
X38273000Y16697500I0J62500D01*
G01*
X38273000Y16822500D01*
G75*
G02*
X38335500Y16885000I62500J0D01*
G01*
X39085500Y16885000D01*
G75*
G02*
X39148000Y16822500I0J-62500D01*
G01*
G37*
G04 #@! TD.AperFunction*
G04 #@! TO.P,U2,19*
G04 #@! TA.AperFunction,SMDPad,CuDef*
G36*
G01*
X39148000Y17322500D02*
X39148000Y17197500D01*
G75*
G02*
X39085500Y17135000I-62500J0D01*
G01*
X38335500Y17135000D01*
G75*
G02*
X38273000Y17197500I0J62500D01*
G01*
X38273000Y17322500D01*
G75*
G02*
X38335500Y17385000I62500J0D01*
G01*
X39085500Y17385000D01*
G75*
G02*
X39148000Y17322500I0J-62500D01*
G01*
G37*
G04 #@! TD.AperFunction*
G04 #@! TO.P,U2,18*
G04 #@! TA.AperFunction,SMDPad,CuDef*
G36*
G01*
X39148000Y17822500D02*
X39148000Y17697500D01*
G75*
G02*
X39085500Y17635000I-62500J0D01*
G01*
X38335500Y17635000D01*
G75*
G02*
X38273000Y17697500I0J62500D01*
G01*
X38273000Y17822500D01*
G75*
G02*
X38335500Y17885000I62500J0D01*
G01*
X39085500Y17885000D01*
G75*
G02*
X39148000Y17822500I0J-62500D01*
G01*
G37*
G04 #@! TD.AperFunction*
G04 #@! TO.P,U2,17*
G04 #@! TO.N,+3V3*
G04 #@! TA.AperFunction,SMDPad,CuDef*
G36*
G01*
X39148000Y18322500D02*
X39148000Y18197500D01*
G75*
G02*
X39085500Y18135000I-62500J0D01*
G01*
X38335500Y18135000D01*
G75*
G02*
X38273000Y18197500I0J62500D01*
G01*
X38273000Y18322500D01*
G75*
G02*
X38335500Y18385000I62500J0D01*
G01*
X39085500Y18385000D01*
G75*
G02*
X39148000Y18322500I0J-62500D01*
G01*
G37*
G04 #@! TD.AperFunction*
G04 #@! TO.P,U2,16*
G04 #@! TO.N,WLED*
G04 #@! TA.AperFunction,SMDPad,CuDef*
G36*
G01*
X39523000Y19322500D02*
X39523000Y18572500D01*
G75*
G02*
X39460500Y18510000I-62500J0D01*
G01*
X39335500Y18510000D01*
G75*
G02*
X39273000Y18572500I0J62500D01*
G01*
X39273000Y19322500D01*
G75*
G02*
X39335500Y19385000I62500J0D01*
G01*
X39460500Y19385000D01*
G75*
G02*
X39523000Y19322500I0J-62500D01*
G01*
G37*
G04 #@! TD.AperFunction*
G04 #@! TO.P,U2,15*
G04 #@! TO.N,/GPIO0*
G04 #@! TA.AperFunction,SMDPad,CuDef*
G36*
G01*
X40023000Y19322500D02*
X40023000Y18572500D01*
G75*
G02*
X39960500Y18510000I-62500J0D01*
G01*
X39835500Y18510000D01*
G75*
G02*
X39773000Y18572500I0J62500D01*
G01*
X39773000Y19322500D01*
G75*
G02*
X39835500Y19385000I62500J0D01*
G01*
X39960500Y19385000D01*
G75*
G02*
X40023000Y19322500I0J-62500D01*
G01*
G37*
G04 #@! TD.AperFunction*
G04 #@! TO.P,U2,14*
G04 #@! TO.N,/GPIO2*
G04 #@! TA.AperFunction,SMDPad,CuDef*
G36*
G01*
X40523000Y19322500D02*
X40523000Y18572500D01*
G75*
G02*
X40460500Y18510000I-62500J0D01*
G01*
X40335500Y18510000D01*
G75*
G02*
X40273000Y18572500I0J62500D01*
G01*
X40273000Y19322500D01*
G75*
G02*
X40335500Y19385000I62500J0D01*
G01*
X40460500Y19385000D01*
G75*
G02*
X40523000Y19322500I0J-62500D01*
G01*
G37*
G04 #@! TD.AperFunction*
G04 #@! TO.P,U2,13*
G04 #@! TO.N,/GPIO15*
G04 #@! TA.AperFunction,SMDPad,CuDef*
G36*
G01*
X41023000Y19322500D02*
X41023000Y18572500D01*
G75*
G02*
X40960500Y18510000I-62500J0D01*
G01*
X40835500Y18510000D01*
G75*
G02*
X40773000Y18572500I0J62500D01*
G01*
X40773000Y19322500D01*
G75*
G02*
X40835500Y19385000I62500J0D01*
G01*
X40960500Y19385000D01*
G75*
G02*
X41023000Y19322500I0J-62500D01*
G01*
G37*
G04 #@! TD.AperFunction*
G04 #@! TO.P,U2,12*
G04 #@! TO.N,N/C*
G04 #@! TA.AperFunction,SMDPad,CuDef*
G36*
G01*
X41523000Y19322500D02*
X41523000Y18572500D01*
G75*
G02*
X41460500Y18510000I-62500J0D01*
G01*
X41335500Y18510000D01*
G75*
G02*
X41273000Y18572500I0J62500D01*
G01*
X41273000Y19322500D01*
G75*
G02*
X41335500Y19385000I62500J0D01*
G01*
X41460500Y19385000D01*
G75*
G02*
X41523000Y19322500I0J-62500D01*
G01*
G37*
G04 #@! TD.AperFunction*
G04 #@! TO.P,U2,11*
G04 #@! TO.N,+3V3*
G04 #@! TA.AperFunction,SMDPad,CuDef*
G36*
G01*
X42023000Y19322500D02*
X42023000Y18572500D01*
G75*
G02*
X41960500Y18510000I-62500J0D01*
G01*
X41835500Y18510000D01*
G75*
G02*
X41773000Y18572500I0J62500D01*
G01*
X41773000Y19322500D01*
G75*
G02*
X41835500Y19385000I62500J0D01*
G01*
X41960500Y19385000D01*
G75*
G02*
X42023000Y19322500I0J-62500D01*
G01*
G37*
G04 #@! TD.AperFunction*
G04 #@! TO.P,U2,10*
G04 #@! TO.N,N/C*
G04 #@! TA.AperFunction,SMDPad,CuDef*
G36*
G01*
X42523000Y19322500D02*
X42523000Y18572500D01*
G75*
G02*
X42460500Y18510000I-62500J0D01*
G01*
X42335500Y18510000D01*
G75*
G02*
X42273000Y18572500I0J62500D01*
G01*
X42273000Y19322500D01*
G75*
G02*
X42335500Y19385000I62500J0D01*
G01*
X42460500Y19385000D01*
G75*
G02*
X42523000Y19322500I0J-62500D01*
G01*
G37*
G04 #@! TD.AperFunction*
G04 #@! TO.P,U2,9*
G04 #@! TA.AperFunction,SMDPad,CuDef*
G36*
G01*
X43023000Y19322500D02*
X43023000Y18572500D01*
G75*
G02*
X42960500Y18510000I-62500J0D01*
G01*
X42835500Y18510000D01*
G75*
G02*
X42773000Y18572500I0J62500D01*
G01*
X42773000Y19322500D01*
G75*
G02*
X42835500Y19385000I62500J0D01*
G01*
X42960500Y19385000D01*
G75*
G02*
X43023000Y19322500I0J-62500D01*
G01*
G37*
G04 #@! TD.AperFunction*
G04 #@! TO.P,U2,8*
G04 #@! TA.AperFunction,SMDPad,CuDef*
G36*
G01*
X44023000Y18322500D02*
X44023000Y18197500D01*
G75*
G02*
X43960500Y18135000I-62500J0D01*
G01*
X43210500Y18135000D01*
G75*
G02*
X43148000Y18197500I0J62500D01*
G01*
X43148000Y18322500D01*
G75*
G02*
X43210500Y18385000I62500J0D01*
G01*
X43960500Y18385000D01*
G75*
G02*
X44023000Y18322500I0J-62500D01*
G01*
G37*
G04 #@! TD.AperFunction*
G04 #@! TO.P,U2,7*
G04 #@! TO.N,/EN*
G04 #@! TA.AperFunction,SMDPad,CuDef*
G36*
G01*
X44023000Y17822500D02*
X44023000Y17697500D01*
G75*
G02*
X43960500Y17635000I-62500J0D01*
G01*
X43210500Y17635000D01*
G75*
G02*
X43148000Y17697500I0J62500D01*
G01*
X43148000Y17822500D01*
G75*
G02*
X43210500Y17885000I62500J0D01*
G01*
X43960500Y17885000D01*
G75*
G02*
X44023000Y17822500I0J-62500D01*
G01*
G37*
G04 #@! TD.AperFunction*
G04 #@! TO.P,U2,6*
G04 #@! TO.N,N/C*
G04 #@! TA.AperFunction,SMDPad,CuDef*
G36*
G01*
X44023000Y17322500D02*
X44023000Y17197500D01*
G75*
G02*
X43960500Y17135000I-62500J0D01*
G01*
X43210500Y17135000D01*
G75*
G02*
X43148000Y17197500I0J62500D01*
G01*
X43148000Y17322500D01*
G75*
G02*
X43210500Y17385000I62500J0D01*
G01*
X43960500Y17385000D01*
G75*
G02*
X44023000Y17322500I0J-62500D01*
G01*
G37*
G04 #@! TD.AperFunction*
G04 #@! TO.P,U2,5*
G04 #@! TA.AperFunction,SMDPad,CuDef*
G36*
G01*
X44023000Y16822500D02*
X44023000Y16697500D01*
G75*
G02*
X43960500Y16635000I-62500J0D01*
G01*
X43210500Y16635000D01*
G75*
G02*
X43148000Y16697500I0J62500D01*
G01*
X43148000Y16822500D01*
G75*
G02*
X43210500Y16885000I62500J0D01*
G01*
X43960500Y16885000D01*
G75*
G02*
X44023000Y16822500I0J-62500D01*
G01*
G37*
G04 #@! TD.AperFunction*
G04 #@! TO.P,U2,4*
G04 #@! TO.N,Net-(C13-Pad2)*
G04 #@! TA.AperFunction,SMDPad,CuDef*
G36*
G01*
X44023000Y16322500D02*
X44023000Y16197500D01*
G75*
G02*
X43960500Y16135000I-62500J0D01*
G01*
X43210500Y16135000D01*
G75*
G02*
X43148000Y16197500I0J62500D01*
G01*
X43148000Y16322500D01*
G75*
G02*
X43210500Y16385000I62500J0D01*
G01*
X43960500Y16385000D01*
G75*
G02*
X44023000Y16322500I0J-62500D01*
G01*
G37*
G04 #@! TD.AperFunction*
G04 #@! TO.P,U2,3*
G04 #@! TA.AperFunction,SMDPad,CuDef*
G36*
G01*
X44023000Y15822500D02*
X44023000Y15697500D01*
G75*
G02*
X43960500Y15635000I-62500J0D01*
G01*
X43210500Y15635000D01*
G75*
G02*
X43148000Y15697500I0J62500D01*
G01*
X43148000Y15822500D01*
G75*
G02*
X43210500Y15885000I62500J0D01*
G01*
X43960500Y15885000D01*
G75*
G02*
X44023000Y15822500I0J-62500D01*
G01*
G37*
G04 #@! TD.AperFunction*
G04 #@! TO.P,U2,2*
G04 #@! TO.N,/ANT_LNA*
G04 #@! TA.AperFunction,SMDPad,CuDef*
G36*
G01*
X44023000Y15322500D02*
X44023000Y15197500D01*
G75*
G02*
X43960500Y15135000I-62500J0D01*
G01*
X43210500Y15135000D01*
G75*
G02*
X43148000Y15197500I0J62500D01*
G01*
X43148000Y15322500D01*
G75*
G02*
X43210500Y15385000I62500J0D01*
G01*
X43960500Y15385000D01*
G75*
G02*
X44023000Y15322500I0J-62500D01*
G01*
G37*
G04 #@! TD.AperFunction*
G04 #@! TO.P,U2,1*
G04 #@! TO.N,+3V3*
G04 #@! TA.AperFunction,SMDPad,CuDef*
G36*
G01*
X44023000Y14822500D02*
X44023000Y14697500D01*
G75*
G02*
X43960500Y14635000I-62500J0D01*
G01*
X43210500Y14635000D01*
G75*
G02*
X43148000Y14697500I0J62500D01*
G01*
X43148000Y14822500D01*
G75*
G02*
X43210500Y14885000I62500J0D01*
G01*
X43960500Y14885000D01*
G75*
G02*
X44023000Y14822500I0J-62500D01*
G01*
G37*
G04 #@! TD.AperFunction*
G04 #@! TD*
D16*
G04 #@! TO.P,U1,5*
G04 #@! TO.N,/12VIN*
X19472000Y27544000D03*
G04 #@! TO.P,U1,6*
G04 #@! TO.N,/SW*
X19472000Y26594000D03*
G04 #@! TO.P,U1,4*
G04 #@! TO.N,/BEN*
X19472000Y28494000D03*
G04 #@! TO.P,U1,3*
G04 #@! TO.N,/FB*
X22172000Y28494000D03*
G04 #@! TO.P,U1,2*
G04 #@! TO.N,GND*
X22172000Y27544000D03*
G04 #@! TO.P,U1,1*
G04 #@! TO.N,/BS*
X22172000Y26594000D03*
G04 #@! TD*
G04 #@! TO.P,SW2,2*
G04 #@! TO.N,GND*
G04 #@! TA.AperFunction,SMDPad,CuDef*
G36*
G01*
X48768000Y31231000D02*
X48768000Y32269000D01*
G75*
G02*
X49149000Y32650000I381000J0D01*
G01*
X49911000Y32650000D01*
G75*
G02*
X50292000Y32269000I0J-381000D01*
G01*
X50292000Y31231000D01*
G75*
G02*
X49911000Y30850000I-381000J0D01*
G01*
X49149000Y30850000D01*
G75*
G02*
X48768000Y31231000I0J381000D01*
G01*
G37*
G04 #@! TD.AperFunction*
G04 #@! TO.P,SW2,1*
G04 #@! TO.N,/GPIO0*
G04 #@! TA.AperFunction,SMDPad,CuDef*
G36*
G01*
X43768000Y31231000D02*
X43768000Y32269000D01*
G75*
G02*
X44149000Y32650000I381000J0D01*
G01*
X44911000Y32650000D01*
G75*
G02*
X45292000Y32269000I0J-381000D01*
G01*
X45292000Y31231000D01*
G75*
G02*
X44911000Y30850000I-381000J0D01*
G01*
X44149000Y30850000D01*
G75*
G02*
X43768000Y31231000I0J381000D01*
G01*
G37*
G04 #@! TD.AperFunction*
G04 #@! TD*
G04 #@! TO.P,SW1,2*
G04 #@! TO.N,GND*
G04 #@! TA.AperFunction,SMDPad,CuDef*
G36*
G01*
X45292000Y3694000D02*
X45292000Y2656000D01*
G75*
G02*
X44911000Y2275000I-381000J0D01*
G01*
X44149000Y2275000D01*
G75*
G02*
X43768000Y2656000I0J381000D01*
G01*
X43768000Y3694000D01*
G75*
G02*
X44149000Y4075000I381000J0D01*
G01*
X44911000Y4075000D01*
G75*
G02*
X45292000Y3694000I0J-381000D01*
G01*
G37*
G04 #@! TD.AperFunction*
G04 #@! TO.P,SW1,1*
G04 #@! TO.N,/RST*
G04 #@! TA.AperFunction,SMDPad,CuDef*
G36*
G01*
X50292000Y3694000D02*
X50292000Y2656000D01*
G75*
G02*
X49911000Y2275000I-381000J0D01*
G01*
X49149000Y2275000D01*
G75*
G02*
X48768000Y2656000I0J381000D01*
G01*
X48768000Y3694000D01*
G75*
G02*
X49149000Y4075000I381000J0D01*
G01*
X49911000Y4075000D01*
G75*
G02*
X50292000Y3694000I0J-381000D01*
G01*
G37*
G04 #@! TD.AperFunction*
G04 #@! TD*
G04 #@! TO.P,R16,2*
G04 #@! TO.N,Net-(AE1-Pad1)*
G04 #@! TA.AperFunction,SMDPad,CuDef*
G36*
G01*
X54122500Y13478500D02*
X54122500Y13953500D01*
G75*
G02*
X54360000Y14191000I237500J0D01*
G01*
X54860000Y14191000D01*
G75*
G02*
X55097500Y13953500I0J-237500D01*
G01*
X55097500Y13478500D01*
G75*
G02*
X54860000Y13241000I-237500J0D01*
G01*
X54360000Y13241000D01*
G75*
G02*
X54122500Y13478500I0J237500D01*
G01*
G37*
G04 #@! TD.AperFunction*
G04 #@! TO.P,R16,1*
G04 #@! TO.N,Net-(C15-Pad1)*
G04 #@! TA.AperFunction,SMDPad,CuDef*
G36*
G01*
X52297500Y13478500D02*
X52297500Y13953500D01*
G75*
G02*
X52535000Y14191000I237500J0D01*
G01*
X53035000Y14191000D01*
G75*
G02*
X53272500Y13953500I0J-237500D01*
G01*
X53272500Y13478500D01*
G75*
G02*
X53035000Y13241000I-237500J0D01*
G01*
X52535000Y13241000D01*
G75*
G02*
X52297500Y13478500I0J237500D01*
G01*
G37*
G04 #@! TD.AperFunction*
G04 #@! TD*
G04 #@! TO.P,R15,2*
G04 #@! TO.N,Net-(J3-Pad1)*
G04 #@! TA.AperFunction,SMDPad,CuDef*
G36*
G01*
X50816500Y12171500D02*
X51291500Y12171500D01*
G75*
G02*
X51529000Y11934000I0J-237500D01*
G01*
X51529000Y11434000D01*
G75*
G02*
X51291500Y11196500I-237500J0D01*
G01*
X50816500Y11196500D01*
G75*
G02*
X50579000Y11434000I0J237500D01*
G01*
X50579000Y11934000D01*
G75*
G02*
X50816500Y12171500I237500J0D01*
G01*
G37*
G04 #@! TD.AperFunction*
G04 #@! TO.P,R15,1*
G04 #@! TO.N,Net-(C15-Pad1)*
G04 #@! TA.AperFunction,SMDPad,CuDef*
G36*
G01*
X50816500Y13996500D02*
X51291500Y13996500D01*
G75*
G02*
X51529000Y13759000I0J-237500D01*
G01*
X51529000Y13259000D01*
G75*
G02*
X51291500Y13021500I-237500J0D01*
G01*
X50816500Y13021500D01*
G75*
G02*
X50579000Y13259000I0J237500D01*
G01*
X50579000Y13759000D01*
G75*
G02*
X50816500Y13996500I237500J0D01*
G01*
G37*
G04 #@! TD.AperFunction*
G04 #@! TD*
G04 #@! TO.P,R14,2*
G04 #@! TO.N,Net-(J2-Pad6)*
G04 #@! TA.AperFunction,SMDPad,CuDef*
G36*
G01*
X7382500Y2472500D02*
X7857500Y2472500D01*
G75*
G02*
X8095000Y2235000I0J-237500D01*
G01*
X8095000Y1735000D01*
G75*
G02*
X7857500Y1497500I-237500J0D01*
G01*
X7382500Y1497500D01*
G75*
G02*
X7145000Y1735000I0J237500D01*
G01*
X7145000Y2235000D01*
G75*
G02*
X7382500Y2472500I237500J0D01*
G01*
G37*
G04 #@! TD.AperFunction*
G04 #@! TO.P,R14,1*
G04 #@! TO.N,GND*
G04 #@! TA.AperFunction,SMDPad,CuDef*
G36*
G01*
X7382500Y4297500D02*
X7857500Y4297500D01*
G75*
G02*
X8095000Y4060000I0J-237500D01*
G01*
X8095000Y3560000D01*
G75*
G02*
X7857500Y3322500I-237500J0D01*
G01*
X7382500Y3322500D01*
G75*
G02*
X7145000Y3560000I0J237500D01*
G01*
X7145000Y4060000D01*
G75*
G02*
X7382500Y4297500I237500J0D01*
G01*
G37*
G04 #@! TD.AperFunction*
G04 #@! TD*
G04 #@! TO.P,R13,2*
G04 #@! TO.N,+3V3*
G04 #@! TA.AperFunction,SMDPad,CuDef*
G36*
G01*
X40623500Y23816500D02*
X40148500Y23816500D01*
G75*
G02*
X39911000Y24054000I0J237500D01*
G01*
X39911000Y24554000D01*
G75*
G02*
X40148500Y24791500I237500J0D01*
G01*
X40623500Y24791500D01*
G75*
G02*
X40861000Y24554000I0J-237500D01*
G01*
X40861000Y24054000D01*
G75*
G02*
X40623500Y23816500I-237500J0D01*
G01*
G37*
G04 #@! TD.AperFunction*
G04 #@! TO.P,R13,1*
G04 #@! TO.N,/GPIO2*
G04 #@! TA.AperFunction,SMDPad,CuDef*
G36*
G01*
X40623500Y21991500D02*
X40148500Y21991500D01*
G75*
G02*
X39911000Y22229000I0J237500D01*
G01*
X39911000Y22729000D01*
G75*
G02*
X40148500Y22966500I237500J0D01*
G01*
X40623500Y22966500D01*
G75*
G02*
X40861000Y22729000I0J-237500D01*
G01*
X40861000Y22229000D01*
G75*
G02*
X40623500Y21991500I-237500J0D01*
G01*
G37*
G04 #@! TD.AperFunction*
G04 #@! TD*
G04 #@! TO.P,R12,2*
G04 #@! TO.N,+3V3*
G04 #@! TA.AperFunction,SMDPad,CuDef*
G36*
G01*
X38972500Y23816500D02*
X38497500Y23816500D01*
G75*
G02*
X38260000Y24054000I0J237500D01*
G01*
X38260000Y24554000D01*
G75*
G02*
X38497500Y24791500I237500J0D01*
G01*
X38972500Y24791500D01*
G75*
G02*
X39210000Y24554000I0J-237500D01*
G01*
X39210000Y24054000D01*
G75*
G02*
X38972500Y23816500I-237500J0D01*
G01*
G37*
G04 #@! TD.AperFunction*
G04 #@! TO.P,R12,1*
G04 #@! TO.N,/GPIO0*
G04 #@! TA.AperFunction,SMDPad,CuDef*
G36*
G01*
X38972500Y21991500D02*
X38497500Y21991500D01*
G75*
G02*
X38260000Y22229000I0J237500D01*
G01*
X38260000Y22729000D01*
G75*
G02*
X38497500Y22966500I237500J0D01*
G01*
X38972500Y22966500D01*
G75*
G02*
X39210000Y22729000I0J-237500D01*
G01*
X39210000Y22229000D01*
G75*
G02*
X38972500Y21991500I-237500J0D01*
G01*
G37*
G04 #@! TD.AperFunction*
G04 #@! TD*
G04 #@! TO.P,R11,2*
G04 #@! TO.N,/GPIO15*
G04 #@! TA.AperFunction,SMDPad,CuDef*
G36*
G01*
X42434500Y22966500D02*
X42909500Y22966500D01*
G75*
G02*
X43147000Y22729000I0J-237500D01*
G01*
X43147000Y22229000D01*
G75*
G02*
X42909500Y21991500I-237500J0D01*
G01*
X42434500Y21991500D01*
G75*
G02*
X42197000Y22229000I0J237500D01*
G01*
X42197000Y22729000D01*
G75*
G02*
X42434500Y22966500I237500J0D01*
G01*
G37*
G04 #@! TD.AperFunction*
G04 #@! TO.P,R11,1*
G04 #@! TO.N,GND*
G04 #@! TA.AperFunction,SMDPad,CuDef*
G36*
G01*
X42434500Y24791500D02*
X42909500Y24791500D01*
G75*
G02*
X43147000Y24554000I0J-237500D01*
G01*
X43147000Y24054000D01*
G75*
G02*
X42909500Y23816500I-237500J0D01*
G01*
X42434500Y23816500D01*
G75*
G02*
X42197000Y24054000I0J237500D01*
G01*
X42197000Y24554000D01*
G75*
G02*
X42434500Y24791500I237500J0D01*
G01*
G37*
G04 #@! TD.AperFunction*
G04 #@! TD*
G04 #@! TO.P,R10,2*
G04 #@! TO.N,Net-(R10-Pad2)*
G04 #@! TA.AperFunction,SMDPad,CuDef*
G36*
G01*
X9254500Y19197500D02*
X8779500Y19197500D01*
G75*
G02*
X8542000Y19435000I0J237500D01*
G01*
X8542000Y19935000D01*
G75*
G02*
X8779500Y20172500I237500J0D01*
G01*
X9254500Y20172500D01*
G75*
G02*
X9492000Y19935000I0J-237500D01*
G01*
X9492000Y19435000D01*
G75*
G02*
X9254500Y19197500I-237500J0D01*
G01*
G37*
G04 #@! TD.AperFunction*
G04 #@! TO.P,R10,1*
G04 #@! TO.N,Net-(J1-Pad3)*
G04 #@! TA.AperFunction,SMDPad,CuDef*
G36*
G01*
X9254500Y17372500D02*
X8779500Y17372500D01*
G75*
G02*
X8542000Y17610000I0J237500D01*
G01*
X8542000Y18110000D01*
G75*
G02*
X8779500Y18347500I237500J0D01*
G01*
X9254500Y18347500D01*
G75*
G02*
X9492000Y18110000I0J-237500D01*
G01*
X9492000Y17610000D01*
G75*
G02*
X9254500Y17372500I-237500J0D01*
G01*
G37*
G04 #@! TD.AperFunction*
G04 #@! TD*
G04 #@! TO.P,R9,2*
G04 #@! TO.N,Net-(R9-Pad2)*
G04 #@! TA.AperFunction,SMDPad,CuDef*
G36*
G01*
X26602500Y19414500D02*
X26602500Y18939500D01*
G75*
G02*
X26365000Y18702000I-237500J0D01*
G01*
X25865000Y18702000D01*
G75*
G02*
X25627500Y18939500I0J237500D01*
G01*
X25627500Y19414500D01*
G75*
G02*
X25865000Y19652000I237500J0D01*
G01*
X26365000Y19652000D01*
G75*
G02*
X26602500Y19414500I0J-237500D01*
G01*
G37*
G04 #@! TD.AperFunction*
G04 #@! TO.P,R9,1*
G04 #@! TO.N,+5V*
G04 #@! TA.AperFunction,SMDPad,CuDef*
G36*
G01*
X28427500Y19414500D02*
X28427500Y18939500D01*
G75*
G02*
X28190000Y18702000I-237500J0D01*
G01*
X27690000Y18702000D01*
G75*
G02*
X27452500Y18939500I0J237500D01*
G01*
X27452500Y19414500D01*
G75*
G02*
X27690000Y19652000I237500J0D01*
G01*
X28190000Y19652000D01*
G75*
G02*
X28427500Y19414500I0J-237500D01*
G01*
G37*
G04 #@! TD.AperFunction*
G04 #@! TD*
G04 #@! TO.P,R8,2*
G04 #@! TO.N,/5VOUT*
G04 #@! TA.AperFunction,SMDPad,CuDef*
G36*
G01*
X18775500Y18144500D02*
X18775500Y17669500D01*
G75*
G02*
X18538000Y17432000I-237500J0D01*
G01*
X18038000Y17432000D01*
G75*
G02*
X17800500Y17669500I0J237500D01*
G01*
X17800500Y18144500D01*
G75*
G02*
X18038000Y18382000I237500J0D01*
G01*
X18538000Y18382000D01*
G75*
G02*
X18775500Y18144500I0J-237500D01*
G01*
G37*
G04 #@! TD.AperFunction*
G04 #@! TO.P,R8,1*
G04 #@! TO.N,+5V*
G04 #@! TA.AperFunction,SMDPad,CuDef*
G36*
G01*
X20600500Y18144500D02*
X20600500Y17669500D01*
G75*
G02*
X20363000Y17432000I-237500J0D01*
G01*
X19863000Y17432000D01*
G75*
G02*
X19625500Y17669500I0J237500D01*
G01*
X19625500Y18144500D01*
G75*
G02*
X19863000Y18382000I237500J0D01*
G01*
X20363000Y18382000D01*
G75*
G02*
X20600500Y18144500I0J-237500D01*
G01*
G37*
G04 #@! TD.AperFunction*
G04 #@! TD*
G04 #@! TO.P,R7,2*
G04 #@! TO.N,/UTXD*
G04 #@! TA.AperFunction,SMDPad,CuDef*
G36*
G01*
X24301000Y7636500D02*
X24301000Y8111500D01*
G75*
G02*
X24538500Y8349000I237500J0D01*
G01*
X25038500Y8349000D01*
G75*
G02*
X25276000Y8111500I0J-237500D01*
G01*
X25276000Y7636500D01*
G75*
G02*
X25038500Y7399000I-237500J0D01*
G01*
X24538500Y7399000D01*
G75*
G02*
X24301000Y7636500I0J237500D01*
G01*
G37*
G04 #@! TD.AperFunction*
G04 #@! TO.P,R7,1*
G04 #@! TO.N,/CUTXD*
G04 #@! TA.AperFunction,SMDPad,CuDef*
G36*
G01*
X22476000Y7636500D02*
X22476000Y8111500D01*
G75*
G02*
X22713500Y8349000I237500J0D01*
G01*
X23213500Y8349000D01*
G75*
G02*
X23451000Y8111500I0J-237500D01*
G01*
X23451000Y7636500D01*
G75*
G02*
X23213500Y7399000I-237500J0D01*
G01*
X22713500Y7399000D01*
G75*
G02*
X22476000Y7636500I0J237500D01*
G01*
G37*
G04 #@! TD.AperFunction*
G04 #@! TD*
G04 #@! TO.P,R6,2*
G04 #@! TO.N,+3V3*
G04 #@! TA.AperFunction,SMDPad,CuDef*
G36*
G01*
X48153500Y18812500D02*
X48153500Y19287500D01*
G75*
G02*
X48391000Y19525000I237500J0D01*
G01*
X48891000Y19525000D01*
G75*
G02*
X49128500Y19287500I0J-237500D01*
G01*
X49128500Y18812500D01*
G75*
G02*
X48891000Y18575000I-237500J0D01*
G01*
X48391000Y18575000D01*
G75*
G02*
X48153500Y18812500I0J237500D01*
G01*
G37*
G04 #@! TD.AperFunction*
G04 #@! TO.P,R6,1*
G04 #@! TO.N,/EN*
G04 #@! TA.AperFunction,SMDPad,CuDef*
G36*
G01*
X46328500Y18812500D02*
X46328500Y19287500D01*
G75*
G02*
X46566000Y19525000I237500J0D01*
G01*
X47066000Y19525000D01*
G75*
G02*
X47303500Y19287500I0J-237500D01*
G01*
X47303500Y18812500D01*
G75*
G02*
X47066000Y18575000I-237500J0D01*
G01*
X46566000Y18575000D01*
G75*
G02*
X46328500Y18812500I0J237500D01*
G01*
G37*
G04 #@! TD.AperFunction*
G04 #@! TD*
G04 #@! TO.P,R5,2*
G04 #@! TO.N,GND*
G04 #@! TA.AperFunction,SMDPad,CuDef*
G36*
G01*
X24527500Y26880000D02*
X25002500Y26880000D01*
G75*
G02*
X25240000Y26642500I0J-237500D01*
G01*
X25240000Y26142500D01*
G75*
G02*
X25002500Y25905000I-237500J0D01*
G01*
X24527500Y25905000D01*
G75*
G02*
X24290000Y26142500I0J237500D01*
G01*
X24290000Y26642500D01*
G75*
G02*
X24527500Y26880000I237500J0D01*
G01*
G37*
G04 #@! TD.AperFunction*
G04 #@! TO.P,R5,1*
G04 #@! TO.N,/FB*
G04 #@! TA.AperFunction,SMDPad,CuDef*
G36*
G01*
X24527500Y28705000D02*
X25002500Y28705000D01*
G75*
G02*
X25240000Y28467500I0J-237500D01*
G01*
X25240000Y27967500D01*
G75*
G02*
X25002500Y27730000I-237500J0D01*
G01*
X24527500Y27730000D01*
G75*
G02*
X24290000Y27967500I0J237500D01*
G01*
X24290000Y28467500D01*
G75*
G02*
X24527500Y28705000I237500J0D01*
G01*
G37*
G04 #@! TD.AperFunction*
G04 #@! TD*
G04 #@! TO.P,R4,2*
G04 #@! TO.N,/FB*
G04 #@! TA.AperFunction,SMDPad,CuDef*
G36*
G01*
X22142000Y31766500D02*
X22142000Y32241500D01*
G75*
G02*
X22379500Y32479000I237500J0D01*
G01*
X22879500Y32479000D01*
G75*
G02*
X23117000Y32241500I0J-237500D01*
G01*
X23117000Y31766500D01*
G75*
G02*
X22879500Y31529000I-237500J0D01*
G01*
X22379500Y31529000D01*
G75*
G02*
X22142000Y31766500I0J237500D01*
G01*
G37*
G04 #@! TD.AperFunction*
G04 #@! TO.P,R4,1*
G04 #@! TO.N,/5VOUT*
G04 #@! TA.AperFunction,SMDPad,CuDef*
G36*
G01*
X20317000Y31766500D02*
X20317000Y32241500D01*
G75*
G02*
X20554500Y32479000I237500J0D01*
G01*
X21054500Y32479000D01*
G75*
G02*
X21292000Y32241500I0J-237500D01*
G01*
X21292000Y31766500D01*
G75*
G02*
X21054500Y31529000I-237500J0D01*
G01*
X20554500Y31529000D01*
G75*
G02*
X20317000Y31766500I0J237500D01*
G01*
G37*
G04 #@! TD.AperFunction*
G04 #@! TD*
G04 #@! TO.P,R3,2*
G04 #@! TO.N,/BEN*
G04 #@! TA.AperFunction,SMDPad,CuDef*
G36*
G01*
X17509500Y29357500D02*
X17034500Y29357500D01*
G75*
G02*
X16797000Y29595000I0J237500D01*
G01*
X16797000Y30095000D01*
G75*
G02*
X17034500Y30332500I237500J0D01*
G01*
X17509500Y30332500D01*
G75*
G02*
X17747000Y30095000I0J-237500D01*
G01*
X17747000Y29595000D01*
G75*
G02*
X17509500Y29357500I-237500J0D01*
G01*
G37*
G04 #@! TD.AperFunction*
G04 #@! TO.P,R3,1*
G04 #@! TO.N,/12VIN*
G04 #@! TA.AperFunction,SMDPad,CuDef*
G36*
G01*
X17509500Y27532500D02*
X17034500Y27532500D01*
G75*
G02*
X16797000Y27770000I0J237500D01*
G01*
X16797000Y28270000D01*
G75*
G02*
X17034500Y28507500I237500J0D01*
G01*
X17509500Y28507500D01*
G75*
G02*
X17747000Y28270000I0J-237500D01*
G01*
X17747000Y27770000D01*
G75*
G02*
X17509500Y27532500I-237500J0D01*
G01*
G37*
G04 #@! TD.AperFunction*
G04 #@! TD*
G04 #@! TO.P,R2,2*
G04 #@! TO.N,+3V3*
G04 #@! TA.AperFunction,SMDPad,CuDef*
G36*
G01*
X48153500Y11192500D02*
X48153500Y11667500D01*
G75*
G02*
X48391000Y11905000I237500J0D01*
G01*
X48891000Y11905000D01*
G75*
G02*
X49128500Y11667500I0J-237500D01*
G01*
X49128500Y11192500D01*
G75*
G02*
X48891000Y10955000I-237500J0D01*
G01*
X48391000Y10955000D01*
G75*
G02*
X48153500Y11192500I0J237500D01*
G01*
G37*
G04 #@! TD.AperFunction*
G04 #@! TO.P,R2,1*
G04 #@! TO.N,/RST*
G04 #@! TA.AperFunction,SMDPad,CuDef*
G36*
G01*
X46328500Y11192500D02*
X46328500Y11667500D01*
G75*
G02*
X46566000Y11905000I237500J0D01*
G01*
X47066000Y11905000D01*
G75*
G02*
X47303500Y11667500I0J-237500D01*
G01*
X47303500Y11192500D01*
G75*
G02*
X47066000Y10955000I-237500J0D01*
G01*
X46566000Y10955000D01*
G75*
G02*
X46328500Y11192500I0J237500D01*
G01*
G37*
G04 #@! TD.AperFunction*
G04 #@! TD*
G04 #@! TO.P,R1,2*
G04 #@! TO.N,GND*
G04 #@! TA.AperFunction,SMDPad,CuDef*
G36*
G01*
X45355500Y7679500D02*
X45830500Y7679500D01*
G75*
G02*
X46068000Y7442000I0J-237500D01*
G01*
X46068000Y6942000D01*
G75*
G02*
X45830500Y6704500I-237500J0D01*
G01*
X45355500Y6704500D01*
G75*
G02*
X45118000Y6942000I0J237500D01*
G01*
X45118000Y7442000D01*
G75*
G02*
X45355500Y7679500I237500J0D01*
G01*
G37*
G04 #@! TD.AperFunction*
G04 #@! TO.P,R1,1*
G04 #@! TO.N,/RES12K*
G04 #@! TA.AperFunction,SMDPad,CuDef*
G36*
G01*
X45355500Y9504500D02*
X45830500Y9504500D01*
G75*
G02*
X46068000Y9267000I0J-237500D01*
G01*
X46068000Y8767000D01*
G75*
G02*
X45830500Y8529500I-237500J0D01*
G01*
X45355500Y8529500D01*
G75*
G02*
X45118000Y8767000I0J237500D01*
G01*
X45118000Y9267000D01*
G75*
G02*
X45355500Y9504500I237500J0D01*
G01*
G37*
G04 #@! TD.AperFunction*
G04 #@! TD*
D19*
G04 #@! TO.P,Q1,6*
G04 #@! TO.N,/RST*
X26095000Y4079000D03*
G04 #@! TO.P,Q1,5*
G04 #@! TO.N,/RTS*
X26095000Y3429000D03*
G04 #@! TO.P,Q1,4*
G04 #@! TO.N,/DTR*
X26095000Y2779000D03*
G04 #@! TO.P,Q1,3*
G04 #@! TO.N,/GPIO0*
X23435000Y2779000D03*
G04 #@! TO.P,Q1,2*
G04 #@! TO.N,/DTR*
X23435000Y3429000D03*
G04 #@! TO.P,Q1,1*
G04 #@! TO.N,/RTS*
X23435000Y4079000D03*
G04 #@! TD*
G04 #@! TO.P,L2,2*
G04 #@! TO.N,Net-(C13-Pad2)*
G04 #@! TA.AperFunction,SMDPad,CuDef*
G36*
G01*
X47388000Y15985500D02*
X47388000Y15510500D01*
G75*
G02*
X47150500Y15273000I-237500J0D01*
G01*
X46575500Y15273000D01*
G75*
G02*
X46338000Y15510500I0J237500D01*
G01*
X46338000Y15985500D01*
G75*
G02*
X46575500Y16223000I237500J0D01*
G01*
X47150500Y16223000D01*
G75*
G02*
X47388000Y15985500I0J-237500D01*
G01*
G37*
G04 #@! TD.AperFunction*
G04 #@! TO.P,L2,1*
G04 #@! TO.N,+3V3*
G04 #@! TA.AperFunction,SMDPad,CuDef*
G36*
G01*
X49138000Y15985500D02*
X49138000Y15510500D01*
G75*
G02*
X48900500Y15273000I-237500J0D01*
G01*
X48325500Y15273000D01*
G75*
G02*
X48088000Y15510500I0J237500D01*
G01*
X48088000Y15985500D01*
G75*
G02*
X48325500Y16223000I237500J0D01*
G01*
X48900500Y16223000D01*
G75*
G02*
X49138000Y15985500I0J-237500D01*
G01*
G37*
G04 #@! TD.AperFunction*
G04 #@! TD*
D20*
G04 #@! TO.P,L1,2*
G04 #@! TO.N,/5VOUT*
X15875000Y22860000D03*
G04 #@! TO.P,L1,1*
G04 #@! TO.N,/SW*
X15875000Y25910000D03*
G04 #@! TD*
D21*
G04 #@! TO.P,J2,6*
G04 #@! TO.N,Net-(J2-Pad6)*
X2350000Y10229000D03*
D22*
X5030000Y9029000D03*
X5030000Y4179000D03*
D23*
G04 #@! TO.P,J2,1*
G04 #@! TO.N,Net-(F2-Pad2)*
X5550000Y7904000D03*
G04 #@! TO.P,J2,2*
G04 #@! TO.N,/D-*
X5550000Y7254000D03*
G04 #@! TO.P,J2,5*
G04 #@! TO.N,GND*
X5550000Y5304000D03*
G04 #@! TO.P,J2,4*
G04 #@! TO.N,N/C*
X5550000Y5954000D03*
G04 #@! TO.P,J2,3*
G04 #@! TO.N,/D+*
X5550000Y6604000D03*
D21*
G04 #@! TO.P,J2,6*
G04 #@! TO.N,Net-(J2-Pad6)*
X2350000Y2979000D03*
D24*
X800000Y8304000D03*
X800000Y4904000D03*
G04 #@! TD*
D25*
G04 #@! TO.P,J1,4*
G04 #@! TO.N,GND*
X4318000Y14900000D03*
G04 #@! TO.P,J1,3*
G04 #@! TO.N,Net-(J1-Pad3)*
X4318000Y18400000D03*
G04 #@! TO.P,J1,2*
G04 #@! TO.N,+12V*
X4318000Y21900000D03*
D26*
G04 #@! TO.P,J1,1*
G04 #@! TO.N,+5V*
X4318000Y25400000D03*
G04 #@! TD*
G04 #@! TO.P,F2,2*
G04 #@! TO.N,Net-(F2-Pad2)*
G04 #@! TA.AperFunction,SMDPad,CuDef*
G36*
G01*
X9189000Y11413500D02*
X9189000Y10938500D01*
G75*
G02*
X8951500Y10701000I-237500J0D01*
G01*
X8376500Y10701000D01*
G75*
G02*
X8139000Y10938500I0J237500D01*
G01*
X8139000Y11413500D01*
G75*
G02*
X8376500Y11651000I237500J0D01*
G01*
X8951500Y11651000D01*
G75*
G02*
X9189000Y11413500I0J-237500D01*
G01*
G37*
G04 #@! TD.AperFunction*
G04 #@! TO.P,F2,1*
G04 #@! TO.N,Net-(D3-Pad2)*
G04 #@! TA.AperFunction,SMDPad,CuDef*
G36*
G01*
X10939000Y11413500D02*
X10939000Y10938500D01*
G75*
G02*
X10701500Y10701000I-237500J0D01*
G01*
X10126500Y10701000D01*
G75*
G02*
X9889000Y10938500I0J237500D01*
G01*
X9889000Y11413500D01*
G75*
G02*
X10126500Y11651000I237500J0D01*
G01*
X10701500Y11651000D01*
G75*
G02*
X10939000Y11413500I0J-237500D01*
G01*
G37*
G04 #@! TD.AperFunction*
G04 #@! TD*
G04 #@! TO.P,F1,2*
G04 #@! TO.N,Net-(D2-Pad2)*
G04 #@! TA.AperFunction,SMDPad,CuDef*
G36*
G01*
X9254500Y23210000D02*
X8779500Y23210000D01*
G75*
G02*
X8542000Y23447500I0J237500D01*
G01*
X8542000Y24022500D01*
G75*
G02*
X8779500Y24260000I237500J0D01*
G01*
X9254500Y24260000D01*
G75*
G02*
X9492000Y24022500I0J-237500D01*
G01*
X9492000Y23447500D01*
G75*
G02*
X9254500Y23210000I-237500J0D01*
G01*
G37*
G04 #@! TD.AperFunction*
G04 #@! TO.P,F1,1*
G04 #@! TO.N,+12V*
G04 #@! TA.AperFunction,SMDPad,CuDef*
G36*
G01*
X9254500Y21460000D02*
X8779500Y21460000D01*
G75*
G02*
X8542000Y21697500I0J237500D01*
G01*
X8542000Y22272500D01*
G75*
G02*
X8779500Y22510000I237500J0D01*
G01*
X9254500Y22510000D01*
G75*
G02*
X9492000Y22272500I0J-237500D01*
G01*
X9492000Y21697500D01*
G75*
G02*
X9254500Y21460000I-237500J0D01*
G01*
G37*
G04 #@! TD.AperFunction*
G04 #@! TD*
D27*
G04 #@! TO.P,D3,2*
G04 #@! TO.N,Net-(D3-Pad2)*
X12232000Y11176000D03*
G04 #@! TO.P,D3,1*
G04 #@! TO.N,+5V*
X14732000Y11176000D03*
G04 #@! TD*
G04 #@! TO.P,D2,2*
G04 #@! TO.N,Net-(D2-Pad2)*
X9017000Y26075000D03*
G04 #@! TO.P,D2,1*
G04 #@! TO.N,/12VIN*
X9017000Y28575000D03*
G04 #@! TD*
G04 #@! TO.P,D1,2*
G04 #@! TO.N,GND*
X22225000Y22225000D03*
G04 #@! TO.P,D1,1*
G04 #@! TO.N,/SW*
X19725000Y22225000D03*
G04 #@! TD*
G04 #@! TO.P,C17,2*
G04 #@! TO.N,GND*
G04 #@! TA.AperFunction,SMDPad,CuDef*
G36*
G01*
X18116500Y9635500D02*
X18116500Y9160500D01*
G75*
G02*
X17879000Y8923000I-237500J0D01*
G01*
X17279000Y8923000D01*
G75*
G02*
X17041500Y9160500I0J237500D01*
G01*
X17041500Y9635500D01*
G75*
G02*
X17279000Y9873000I237500J0D01*
G01*
X17879000Y9873000D01*
G75*
G02*
X18116500Y9635500I0J-237500D01*
G01*
G37*
G04 #@! TD.AperFunction*
G04 #@! TO.P,C17,1*
G04 #@! TO.N,+3V3*
G04 #@! TA.AperFunction,SMDPad,CuDef*
G36*
G01*
X19841500Y9635500D02*
X19841500Y9160500D01*
G75*
G02*
X19604000Y8923000I-237500J0D01*
G01*
X19004000Y8923000D01*
G75*
G02*
X18766500Y9160500I0J237500D01*
G01*
X18766500Y9635500D01*
G75*
G02*
X19004000Y9873000I237500J0D01*
G01*
X19604000Y9873000D01*
G75*
G02*
X19841500Y9635500I0J-237500D01*
G01*
G37*
G04 #@! TD.AperFunction*
G04 #@! TD*
G04 #@! TO.P,C15,2*
G04 #@! TO.N,/ANT_LNA*
G04 #@! TA.AperFunction,SMDPad,CuDef*
G36*
G01*
X47400500Y14080500D02*
X47400500Y13605500D01*
G75*
G02*
X47163000Y13368000I-237500J0D01*
G01*
X46563000Y13368000D01*
G75*
G02*
X46325500Y13605500I0J237500D01*
G01*
X46325500Y14080500D01*
G75*
G02*
X46563000Y14318000I237500J0D01*
G01*
X47163000Y14318000D01*
G75*
G02*
X47400500Y14080500I0J-237500D01*
G01*
G37*
G04 #@! TD.AperFunction*
G04 #@! TO.P,C15,1*
G04 #@! TO.N,Net-(C15-Pad1)*
G04 #@! TA.AperFunction,SMDPad,CuDef*
G36*
G01*
X49125500Y14080500D02*
X49125500Y13605500D01*
G75*
G02*
X48888000Y13368000I-237500J0D01*
G01*
X48288000Y13368000D01*
G75*
G02*
X48050500Y13605500I0J237500D01*
G01*
X48050500Y14080500D01*
G75*
G02*
X48288000Y14318000I237500J0D01*
G01*
X48888000Y14318000D01*
G75*
G02*
X49125500Y14080500I0J-237500D01*
G01*
G37*
G04 #@! TD.AperFunction*
G04 #@! TD*
G04 #@! TO.P,C14,2*
G04 #@! TO.N,+3V3*
G04 #@! TA.AperFunction,SMDPad,CuDef*
G36*
G01*
X35223500Y20336500D02*
X35223500Y20811500D01*
G75*
G02*
X35461000Y21049000I237500J0D01*
G01*
X36061000Y21049000D01*
G75*
G02*
X36298500Y20811500I0J-237500D01*
G01*
X36298500Y20336500D01*
G75*
G02*
X36061000Y20099000I-237500J0D01*
G01*
X35461000Y20099000D01*
G75*
G02*
X35223500Y20336500I0J237500D01*
G01*
G37*
G04 #@! TD.AperFunction*
G04 #@! TO.P,C14,1*
G04 #@! TO.N,GND*
G04 #@! TA.AperFunction,SMDPad,CuDef*
G36*
G01*
X33498500Y20336500D02*
X33498500Y20811500D01*
G75*
G02*
X33736000Y21049000I237500J0D01*
G01*
X34336000Y21049000D01*
G75*
G02*
X34573500Y20811500I0J-237500D01*
G01*
X34573500Y20336500D01*
G75*
G02*
X34336000Y20099000I-237500J0D01*
G01*
X33736000Y20099000D01*
G75*
G02*
X33498500Y20336500I0J237500D01*
G01*
G37*
G04 #@! TD.AperFunction*
G04 #@! TD*
G04 #@! TO.P,C13,2*
G04 #@! TO.N,Net-(C13-Pad2)*
G04 #@! TA.AperFunction,SMDPad,CuDef*
G36*
G01*
X47400500Y17636500D02*
X47400500Y17161500D01*
G75*
G02*
X47163000Y16924000I-237500J0D01*
G01*
X46563000Y16924000D01*
G75*
G02*
X46325500Y17161500I0J237500D01*
G01*
X46325500Y17636500D01*
G75*
G02*
X46563000Y17874000I237500J0D01*
G01*
X47163000Y17874000D01*
G75*
G02*
X47400500Y17636500I0J-237500D01*
G01*
G37*
G04 #@! TD.AperFunction*
G04 #@! TO.P,C13,1*
G04 #@! TO.N,GND*
G04 #@! TA.AperFunction,SMDPad,CuDef*
G36*
G01*
X49125500Y17636500D02*
X49125500Y17161500D01*
G75*
G02*
X48888000Y16924000I-237500J0D01*
G01*
X48288000Y16924000D01*
G75*
G02*
X48050500Y17161500I0J237500D01*
G01*
X48050500Y17636500D01*
G75*
G02*
X48288000Y17874000I237500J0D01*
G01*
X48888000Y17874000D01*
G75*
G02*
X49125500Y17636500I0J-237500D01*
G01*
G37*
G04 #@! TD.AperFunction*
G04 #@! TD*
G04 #@! TO.P,C12,2*
G04 #@! TO.N,+3V3*
G04 #@! TA.AperFunction,SMDPad,CuDef*
G36*
G01*
X35223500Y18685500D02*
X35223500Y19160500D01*
G75*
G02*
X35461000Y19398000I237500J0D01*
G01*
X36061000Y19398000D01*
G75*
G02*
X36298500Y19160500I0J-237500D01*
G01*
X36298500Y18685500D01*
G75*
G02*
X36061000Y18448000I-237500J0D01*
G01*
X35461000Y18448000D01*
G75*
G02*
X35223500Y18685500I0J237500D01*
G01*
G37*
G04 #@! TD.AperFunction*
G04 #@! TO.P,C12,1*
G04 #@! TO.N,GND*
G04 #@! TA.AperFunction,SMDPad,CuDef*
G36*
G01*
X33498500Y18685500D02*
X33498500Y19160500D01*
G75*
G02*
X33736000Y19398000I237500J0D01*
G01*
X34336000Y19398000D01*
G75*
G02*
X34573500Y19160500I0J-237500D01*
G01*
X34573500Y18685500D01*
G75*
G02*
X34336000Y18448000I-237500J0D01*
G01*
X33736000Y18448000D01*
G75*
G02*
X33498500Y18685500I0J237500D01*
G01*
G37*
G04 #@! TD.AperFunction*
G04 #@! TD*
G04 #@! TO.P,C11,2*
G04 #@! TO.N,/EN*
G04 #@! TA.AperFunction,SMDPad,CuDef*
G36*
G01*
X47403500Y21065500D02*
X47403500Y20590500D01*
G75*
G02*
X47166000Y20353000I-237500J0D01*
G01*
X46566000Y20353000D01*
G75*
G02*
X46328500Y20590500I0J237500D01*
G01*
X46328500Y21065500D01*
G75*
G02*
X46566000Y21303000I237500J0D01*
G01*
X47166000Y21303000D01*
G75*
G02*
X47403500Y21065500I0J-237500D01*
G01*
G37*
G04 #@! TD.AperFunction*
G04 #@! TO.P,C11,1*
G04 #@! TO.N,GND*
G04 #@! TA.AperFunction,SMDPad,CuDef*
G36*
G01*
X49128500Y21065500D02*
X49128500Y20590500D01*
G75*
G02*
X48891000Y20353000I-237500J0D01*
G01*
X48291000Y20353000D01*
G75*
G02*
X48053500Y20590500I0J237500D01*
G01*
X48053500Y21065500D01*
G75*
G02*
X48291000Y21303000I237500J0D01*
G01*
X48891000Y21303000D01*
G75*
G02*
X49128500Y21065500I0J-237500D01*
G01*
G37*
G04 #@! TD.AperFunction*
G04 #@! TD*
G04 #@! TO.P,C10,2*
G04 #@! TO.N,+3V3*
G04 #@! TA.AperFunction,SMDPad,CuDef*
G36*
G01*
X35573500Y22131000D02*
X35573500Y23081000D01*
G75*
G02*
X35823500Y23331000I250000J0D01*
G01*
X36498500Y23331000D01*
G75*
G02*
X36748500Y23081000I0J-250000D01*
G01*
X36748500Y22131000D01*
G75*
G02*
X36498500Y21881000I-250000J0D01*
G01*
X35823500Y21881000D01*
G75*
G02*
X35573500Y22131000I0J250000D01*
G01*
G37*
G04 #@! TD.AperFunction*
G04 #@! TO.P,C10,1*
G04 #@! TO.N,GND*
G04 #@! TA.AperFunction,SMDPad,CuDef*
G36*
G01*
X33498500Y22131000D02*
X33498500Y23081000D01*
G75*
G02*
X33748500Y23331000I250000J0D01*
G01*
X34423500Y23331000D01*
G75*
G02*
X34673500Y23081000I0J-250000D01*
G01*
X34673500Y22131000D01*
G75*
G02*
X34423500Y21881000I-250000J0D01*
G01*
X33748500Y21881000D01*
G75*
G02*
X33498500Y22131000I0J250000D01*
G01*
G37*
G04 #@! TD.AperFunction*
G04 #@! TD*
G04 #@! TO.P,C9,2*
G04 #@! TO.N,GND*
G04 #@! TA.AperFunction,SMDPad,CuDef*
G36*
G01*
X15080000Y29427500D02*
X14130000Y29427500D01*
G75*
G02*
X13880000Y29677500I0J250000D01*
G01*
X13880000Y30352500D01*
G75*
G02*
X14130000Y30602500I250000J0D01*
G01*
X15080000Y30602500D01*
G75*
G02*
X15330000Y30352500I0J-250000D01*
G01*
X15330000Y29677500D01*
G75*
G02*
X15080000Y29427500I-250000J0D01*
G01*
G37*
G04 #@! TD.AperFunction*
G04 #@! TO.P,C9,1*
G04 #@! TO.N,/12VIN*
G04 #@! TA.AperFunction,SMDPad,CuDef*
G36*
G01*
X15080000Y27352500D02*
X14130000Y27352500D01*
G75*
G02*
X13880000Y27602500I0J250000D01*
G01*
X13880000Y28277500D01*
G75*
G02*
X14130000Y28527500I250000J0D01*
G01*
X15080000Y28527500D01*
G75*
G02*
X15330000Y28277500I0J-250000D01*
G01*
X15330000Y27602500D01*
G75*
G02*
X15080000Y27352500I-250000J0D01*
G01*
G37*
G04 #@! TD.AperFunction*
G04 #@! TD*
G04 #@! TO.P,C8,2*
G04 #@! TO.N,+3V3*
G04 #@! TA.AperFunction,SMDPad,CuDef*
G36*
G01*
X27780000Y15287500D02*
X26830000Y15287500D01*
G75*
G02*
X26580000Y15537500I0J250000D01*
G01*
X26580000Y16212500D01*
G75*
G02*
X26830000Y16462500I250000J0D01*
G01*
X27780000Y16462500D01*
G75*
G02*
X28030000Y16212500I0J-250000D01*
G01*
X28030000Y15537500D01*
G75*
G02*
X27780000Y15287500I-250000J0D01*
G01*
G37*
G04 #@! TD.AperFunction*
G04 #@! TO.P,C8,1*
G04 #@! TO.N,GND*
G04 #@! TA.AperFunction,SMDPad,CuDef*
G36*
G01*
X27780000Y13212500D02*
X26830000Y13212500D01*
G75*
G02*
X26580000Y13462500I0J250000D01*
G01*
X26580000Y14137500D01*
G75*
G02*
X26830000Y14387500I250000J0D01*
G01*
X27780000Y14387500D01*
G75*
G02*
X28030000Y14137500I0J-250000D01*
G01*
X28030000Y13462500D01*
G75*
G02*
X27780000Y13212500I-250000J0D01*
G01*
G37*
G04 #@! TD.AperFunction*
G04 #@! TD*
G04 #@! TO.P,C7,2*
G04 #@! TO.N,GND*
G04 #@! TA.AperFunction,SMDPad,CuDef*
G36*
G01*
X15065500Y20922000D02*
X15065500Y19972000D01*
G75*
G02*
X14815500Y19722000I-250000J0D01*
G01*
X14140500Y19722000D01*
G75*
G02*
X13890500Y19972000I0J250000D01*
G01*
X13890500Y20922000D01*
G75*
G02*
X14140500Y21172000I250000J0D01*
G01*
X14815500Y21172000D01*
G75*
G02*
X15065500Y20922000I0J-250000D01*
G01*
G37*
G04 #@! TD.AperFunction*
G04 #@! TO.P,C7,1*
G04 #@! TO.N,/5VOUT*
G04 #@! TA.AperFunction,SMDPad,CuDef*
G36*
G01*
X17140500Y20922000D02*
X17140500Y19972000D01*
G75*
G02*
X16890500Y19722000I-250000J0D01*
G01*
X16215500Y19722000D01*
G75*
G02*
X15965500Y19972000I0J250000D01*
G01*
X15965500Y20922000D01*
G75*
G02*
X16215500Y21172000I250000J0D01*
G01*
X16890500Y21172000D01*
G75*
G02*
X17140500Y20922000I0J-250000D01*
G01*
G37*
G04 #@! TD.AperFunction*
G04 #@! TD*
G04 #@! TO.P,C6,2*
G04 #@! TO.N,GND*
G04 #@! TA.AperFunction,SMDPad,CuDef*
G36*
G01*
X15065500Y18636000D02*
X15065500Y17686000D01*
G75*
G02*
X14815500Y17436000I-250000J0D01*
G01*
X14140500Y17436000D01*
G75*
G02*
X13890500Y17686000I0J250000D01*
G01*
X13890500Y18636000D01*
G75*
G02*
X14140500Y18886000I250000J0D01*
G01*
X14815500Y18886000D01*
G75*
G02*
X15065500Y18636000I0J-250000D01*
G01*
G37*
G04 #@! TD.AperFunction*
G04 #@! TO.P,C6,1*
G04 #@! TO.N,/5VOUT*
G04 #@! TA.AperFunction,SMDPad,CuDef*
G36*
G01*
X17140500Y18636000D02*
X17140500Y17686000D01*
G75*
G02*
X16890500Y17436000I-250000J0D01*
G01*
X16215500Y17436000D01*
G75*
G02*
X15965500Y17686000I0J250000D01*
G01*
X15965500Y18636000D01*
G75*
G02*
X16215500Y18886000I250000J0D01*
G01*
X16890500Y18886000D01*
G75*
G02*
X17140500Y18636000I0J-250000D01*
G01*
G37*
G04 #@! TD.AperFunction*
G04 #@! TD*
G04 #@! TO.P,C5,2*
G04 #@! TO.N,/FB*
G04 #@! TA.AperFunction,SMDPad,CuDef*
G36*
G01*
X22042000Y29861500D02*
X22042000Y30336500D01*
G75*
G02*
X22279500Y30574000I237500J0D01*
G01*
X22879500Y30574000D01*
G75*
G02*
X23117000Y30336500I0J-237500D01*
G01*
X23117000Y29861500D01*
G75*
G02*
X22879500Y29624000I-237500J0D01*
G01*
X22279500Y29624000D01*
G75*
G02*
X22042000Y29861500I0J237500D01*
G01*
G37*
G04 #@! TD.AperFunction*
G04 #@! TO.P,C5,1*
G04 #@! TO.N,/5VOUT*
G04 #@! TA.AperFunction,SMDPad,CuDef*
G36*
G01*
X20317000Y29861500D02*
X20317000Y30336500D01*
G75*
G02*
X20554500Y30574000I237500J0D01*
G01*
X21154500Y30574000D01*
G75*
G02*
X21392000Y30336500I0J-237500D01*
G01*
X21392000Y29861500D01*
G75*
G02*
X21154500Y29624000I-237500J0D01*
G01*
X20554500Y29624000D01*
G75*
G02*
X20317000Y29861500I0J237500D01*
G01*
G37*
G04 #@! TD.AperFunction*
G04 #@! TD*
G04 #@! TO.P,C4,2*
G04 #@! TO.N,/BS*
G04 #@! TA.AperFunction,SMDPad,CuDef*
G36*
G01*
X20899000Y24019500D02*
X20899000Y24494500D01*
G75*
G02*
X21136500Y24732000I237500J0D01*
G01*
X21736500Y24732000D01*
G75*
G02*
X21974000Y24494500I0J-237500D01*
G01*
X21974000Y24019500D01*
G75*
G02*
X21736500Y23782000I-237500J0D01*
G01*
X21136500Y23782000D01*
G75*
G02*
X20899000Y24019500I0J237500D01*
G01*
G37*
G04 #@! TD.AperFunction*
G04 #@! TO.P,C4,1*
G04 #@! TO.N,/SW*
G04 #@! TA.AperFunction,SMDPad,CuDef*
G36*
G01*
X19174000Y24019500D02*
X19174000Y24494500D01*
G75*
G02*
X19411500Y24732000I237500J0D01*
G01*
X20011500Y24732000D01*
G75*
G02*
X20249000Y24494500I0J-237500D01*
G01*
X20249000Y24019500D01*
G75*
G02*
X20011500Y23782000I-237500J0D01*
G01*
X19411500Y23782000D01*
G75*
G02*
X19174000Y24019500I0J237500D01*
G01*
G37*
G04 #@! TD.AperFunction*
G04 #@! TD*
D28*
G04 #@! TO.P,C3,2*
G04 #@! TO.N,GND*
X6310000Y31750000D03*
D29*
G04 #@! TO.P,C3,1*
G04 #@! TO.N,+12V*
X3810000Y31750000D03*
G04 #@! TD*
G04 #@! TO.P,C2,2*
G04 #@! TO.N,GND*
G04 #@! TA.AperFunction,SMDPad,CuDef*
G36*
G01*
X43704500Y7779500D02*
X44179500Y7779500D01*
G75*
G02*
X44417000Y7542000I0J-237500D01*
G01*
X44417000Y6942000D01*
G75*
G02*
X44179500Y6704500I-237500J0D01*
G01*
X43704500Y6704500D01*
G75*
G02*
X43467000Y6942000I0J237500D01*
G01*
X43467000Y7542000D01*
G75*
G02*
X43704500Y7779500I237500J0D01*
G01*
G37*
G04 #@! TD.AperFunction*
G04 #@! TO.P,C2,1*
G04 #@! TO.N,/XI*
G04 #@! TA.AperFunction,SMDPad,CuDef*
G36*
G01*
X43704500Y9504500D02*
X44179500Y9504500D01*
G75*
G02*
X44417000Y9267000I0J-237500D01*
G01*
X44417000Y8667000D01*
G75*
G02*
X44179500Y8429500I-237500J0D01*
G01*
X43704500Y8429500D01*
G75*
G02*
X43467000Y8667000I0J237500D01*
G01*
X43467000Y9267000D01*
G75*
G02*
X43704500Y9504500I237500J0D01*
G01*
G37*
G04 #@! TD.AperFunction*
G04 #@! TD*
G04 #@! TO.P,C1,2*
G04 #@! TO.N,/XO*
G04 #@! TA.AperFunction,SMDPad,CuDef*
G36*
G01*
X37227500Y7779500D02*
X37702500Y7779500D01*
G75*
G02*
X37940000Y7542000I0J-237500D01*
G01*
X37940000Y6942000D01*
G75*
G02*
X37702500Y6704500I-237500J0D01*
G01*
X37227500Y6704500D01*
G75*
G02*
X36990000Y6942000I0J237500D01*
G01*
X36990000Y7542000D01*
G75*
G02*
X37227500Y7779500I237500J0D01*
G01*
G37*
G04 #@! TD.AperFunction*
G04 #@! TO.P,C1,1*
G04 #@! TO.N,GND*
G04 #@! TA.AperFunction,SMDPad,CuDef*
G36*
G01*
X37227500Y9504500D02*
X37702500Y9504500D01*
G75*
G02*
X37940000Y9267000I0J-237500D01*
G01*
X37940000Y8667000D01*
G75*
G02*
X37702500Y8429500I-237500J0D01*
G01*
X37227500Y8429500D01*
G75*
G02*
X36990000Y8667000I0J237500D01*
G01*
X36990000Y9267000D01*
G75*
G02*
X37227500Y9504500I237500J0D01*
G01*
G37*
G04 #@! TD.AperFunction*
G04 #@! TD*
D30*
G04 #@! TO.N,GND*
X40386000Y15748000D03*
X41910000Y15748000D03*
X41910000Y17272000D03*
X40386000Y17272000D03*
X16764000Y5588000D03*
D31*
X54610000Y15748000D03*
X54610000Y18288000D03*
X54610000Y20828000D03*
X54610000Y23368000D03*
X54610000Y25908000D03*
X54610000Y28448000D03*
X54610000Y11684000D03*
X54610000Y6604000D03*
X54610000Y4064000D03*
X54610000Y1524000D03*
X54610000Y30988000D03*
X54610000Y33528000D03*
X54610000Y9144000D03*
D30*
X49784000Y17399000D03*
X49784000Y20828000D03*
D31*
X14478000Y15875000D03*
X14605000Y32131000D03*
X12319000Y30734000D03*
X26670000Y26416000D03*
X42799000Y26035000D03*
X41783000Y5334000D03*
X43942000Y5334000D03*
X35687000Y9017000D03*
X32385000Y22098000D03*
X32385000Y18923000D03*
X34544000Y15621000D03*
X29591000Y13843000D03*
X24765000Y12065000D03*
X21336000Y10414000D03*
X15494000Y9144000D03*
X10414000Y2667000D03*
X8890000Y13335000D03*
X11557000Y16764000D03*
X48260000Y8636000D03*
X49530000Y5969000D03*
X30480000Y5334000D03*
X24384000Y23622000D03*
X12446000Y20447000D03*
D30*
X39751000Y10160000D03*
D31*
G04 #@! TO.N,+12V*
X6223000Y21971000D03*
D30*
G04 #@! TO.N,+3V3*
X21971000Y5207000D03*
X20447000Y8255000D03*
X42291000Y11049000D03*
X44958000Y13208000D03*
X37084000Y22606000D03*
X49657000Y11430000D03*
X49784000Y15748000D03*
X42926000Y20701000D03*
X21463000Y12954000D03*
X23622000Y16764000D03*
G04 #@! TO.N,+5V*
X8890000Y16129000D03*
D31*
G04 #@! TO.N,Net-(J1-Pad3)*
X6096000Y18415000D03*
D30*
G04 #@! TO.N,/GPIO0*
X28448000Y3048000D03*
X27686000Y9017000D03*
X36830000Y17526000D03*
X37973000Y21336000D03*
X35814000Y28448000D03*
G04 #@! TO.N,/UTXD*
X32258000Y7874000D03*
X29083000Y7874000D03*
G04 #@! TO.N,Net-(R10-Pad2)*
X19304000Y19304000D03*
X10541000Y19685000D03*
G04 #@! TO.N,/D-*
X10033000Y7620000D03*
X10033000Y5334000D03*
G04 #@! TO.N,WLED*
X34417000Y24638000D03*
X37211000Y19812000D03*
G04 #@! TO.N,/5VOUT*
X19177000Y30607000D03*
X16510000Y21463000D03*
G04 #@! TD*
D32*
G04 #@! TO.N,Net-(AE1-Pad1)*
X54610000Y13716000D02*
X55118000Y13208000D01*
X55118000Y13208000D02*
X56261000Y13208000D01*
D33*
G04 #@! TO.N,GND*
X22172000Y27544000D02*
X23510000Y27544000D01*
X24661500Y26392500D02*
X24765000Y26392500D01*
X23510000Y27544000D02*
X24661500Y26392500D01*
X5550000Y5304000D02*
X7015000Y5304000D01*
X7620000Y4699000D02*
X7620000Y3810000D01*
X7015000Y5304000D02*
X7620000Y4699000D01*
D32*
X39710000Y8904500D02*
X39990500Y8904500D01*
X41690500Y7204500D02*
X41910000Y7204500D01*
X39990500Y8904500D02*
X41690500Y7204500D01*
D34*
X32184000Y21897000D02*
X32385000Y22098000D01*
X30465000Y21897000D02*
X32184000Y21897000D01*
D33*
G04 #@! TO.N,+12V*
X6237000Y21985000D02*
X9017000Y21985000D01*
X6223000Y21971000D02*
X6237000Y21985000D01*
G04 #@! TO.N,+3V3*
X19304000Y9398000D02*
X19812000Y9398000D01*
X19812000Y9398000D02*
X20447000Y8763000D01*
X20161000Y7588000D02*
X19314000Y7588000D01*
X20447000Y7874000D02*
X20161000Y7588000D01*
D34*
X19314000Y4588000D02*
X19828000Y4588000D01*
X19828000Y4588000D02*
X20066000Y4826000D01*
X21590000Y4826000D02*
X21971000Y5207000D01*
X20066000Y4826000D02*
X21590000Y4826000D01*
D33*
X20447000Y8255000D02*
X20447000Y7874000D01*
X20447000Y8763000D02*
X20447000Y8255000D01*
D32*
X41898000Y11442000D02*
X42291000Y11049000D01*
X44958000Y13387500D02*
X43585500Y14760000D01*
X44958000Y13208000D02*
X44958000Y13387500D01*
D33*
X37258000Y24304000D02*
X38735000Y24304000D01*
X38735000Y24304000D02*
X40386000Y24304000D01*
D34*
X35346000Y25360000D02*
X36830000Y23876000D01*
D33*
X36830000Y23876000D02*
X37258000Y24304000D01*
D34*
X35346000Y26733500D02*
X35346000Y25360000D01*
X31242000Y19558000D02*
X30734000Y19050000D01*
X31242000Y20828000D02*
X31242000Y19558000D01*
X31123000Y20947000D02*
X31242000Y20828000D01*
X30465000Y20947000D02*
X31123000Y20947000D01*
X36111000Y22606000D02*
X37084000Y22606000D01*
X48641000Y19050000D02*
X49911000Y19050000D01*
X50165000Y15748000D02*
X49784000Y15748000D01*
X50927000Y16510000D02*
X50165000Y15748000D01*
X50927000Y18034000D02*
X50927000Y16510000D01*
D32*
X48641000Y12192000D02*
X48641000Y11430000D01*
X48260000Y12573000D02*
X48641000Y12192000D01*
X45593000Y12573000D02*
X48260000Y12573000D01*
X44958000Y13208000D02*
X45593000Y12573000D01*
X48641000Y11430000D02*
X49657000Y11430000D01*
X49784000Y15748000D02*
X48613000Y15748000D01*
D34*
X49911000Y19050000D02*
X50419000Y18542000D01*
X50419000Y18542000D02*
X50927000Y18034000D01*
D33*
X27300000Y15870000D02*
X27305000Y15875000D01*
X24765000Y15870000D02*
X27300000Y15870000D01*
X27305000Y15875000D02*
X29210000Y15875000D01*
X30734000Y17399000D02*
X30734000Y19050000D01*
X29210000Y15875000D02*
X30734000Y17399000D01*
X34237000Y17399000D02*
X35814000Y18976000D01*
X30734000Y17399000D02*
X34237000Y17399000D01*
X36161000Y23207000D02*
X36830000Y23876000D01*
X36161000Y22606000D02*
X36161000Y23207000D01*
X35761000Y18923000D02*
X35761000Y20574000D01*
X35761000Y22206000D02*
X36161000Y22606000D01*
X35761000Y20574000D02*
X35761000Y22206000D01*
D32*
X38255000Y18260000D02*
X38710500Y18260000D01*
X37846000Y18669000D02*
X38255000Y18260000D01*
X36830000Y18669000D02*
X37846000Y18669000D01*
X36576000Y18923000D02*
X36830000Y18669000D01*
X35761000Y18923000D02*
X36576000Y18923000D01*
D34*
X50419000Y18923000D02*
X50419000Y18542000D01*
X51181000Y21463000D02*
X51181000Y19685000D01*
X51181000Y19685000D02*
X50419000Y18923000D01*
X42926000Y20701000D02*
X44450000Y22225000D01*
D32*
X41898000Y19673000D02*
X41898000Y18947500D01*
D34*
X50419000Y22225000D02*
X51181000Y21463000D01*
X44450000Y22225000D02*
X50419000Y22225000D01*
D32*
X42926000Y20701000D02*
X41898000Y19673000D01*
D34*
X19304000Y10795000D02*
X21463000Y12954000D01*
X19304000Y9398000D02*
X19304000Y10795000D01*
D32*
X41398000Y14072500D02*
X41398000Y13085000D01*
X41541000Y12942000D02*
X41898000Y12942000D01*
X41398000Y13085000D02*
X41541000Y12942000D01*
X41898000Y12942000D02*
X41898000Y11442000D01*
X41898000Y14072500D02*
X41898000Y12942000D01*
D34*
X24516000Y15870000D02*
X24765000Y15870000D01*
X23622000Y16764000D02*
X24516000Y15870000D01*
D32*
G04 #@! TO.N,/EN*
X43585500Y17760000D02*
X44938000Y17760000D01*
X46228000Y19050000D02*
X46816000Y19050000D01*
X44938000Y17760000D02*
X46228000Y19050000D01*
D34*
X46866000Y19100000D02*
X46816000Y19050000D01*
X46866000Y20828000D02*
X46866000Y19100000D01*
D32*
G04 #@! TO.N,Net-(C13-Pad2)*
X46851000Y15760000D02*
X46863000Y15748000D01*
X46863000Y15748000D02*
X46863000Y17399000D01*
X43585500Y16260000D02*
X44827000Y16260000D01*
X45073000Y16014000D02*
X45073000Y15760000D01*
X44827000Y16260000D02*
X45073000Y16014000D01*
X45073000Y15760000D02*
X46851000Y15760000D01*
X43585500Y15760000D02*
X45073000Y15760000D01*
G04 #@! TO.N,/ANT_LNA*
X43585500Y15260000D02*
X44430000Y15260000D01*
X45847000Y13843000D02*
X46863000Y13843000D01*
X44430000Y15260000D02*
X45847000Y13843000D01*
G04 #@! TO.N,Net-(C15-Pad1)*
X50720000Y13843000D02*
X51054000Y13509000D01*
X48588000Y13843000D02*
X50720000Y13843000D01*
X52578000Y13509000D02*
X52785000Y13716000D01*
X51054000Y13509000D02*
X52578000Y13509000D01*
D33*
G04 #@! TO.N,Net-(D2-Pad2)*
X9017000Y23735000D02*
X9017000Y26075000D01*
G04 #@! TO.N,Net-(D3-Pad2)*
X10414000Y11176000D02*
X12232000Y11176000D01*
G04 #@! TO.N,+5V*
X20113000Y17907000D02*
X20113000Y15574000D01*
X20767000Y14920000D02*
X21765000Y14920000D01*
X20113000Y15574000D02*
X20767000Y14920000D01*
X17023000Y11176000D02*
X20767000Y14920000D01*
X14732000Y11176000D02*
X17023000Y11176000D01*
X14732000Y11176000D02*
X14732000Y12065000D01*
X14732000Y12065000D02*
X12319000Y14478000D01*
X10541000Y14478000D02*
X8890000Y16129000D01*
X12319000Y14478000D02*
X10541000Y14478000D01*
D34*
X20113000Y17907000D02*
X20447000Y17907000D01*
X20447000Y17907000D02*
X21082000Y18542000D01*
X21082000Y18542000D02*
X24511000Y18542000D01*
X24511000Y18542000D02*
X25146000Y17907000D01*
X25146000Y17907000D02*
X27559000Y17907000D01*
X27940000Y18288000D02*
X27940000Y19177000D01*
X27559000Y17907000D02*
X27940000Y18288000D01*
X27940000Y20772000D02*
X27765000Y20947000D01*
X27940000Y19177000D02*
X27940000Y20772000D01*
D33*
G04 #@! TO.N,Net-(F2-Pad2)*
X5550000Y7904000D02*
X6634000Y7904000D01*
X8664000Y9934000D02*
X8664000Y11176000D01*
X6634000Y7904000D02*
X8664000Y9934000D01*
G04 #@! TO.N,Net-(J1-Pad3)*
X6096000Y18415000D02*
X6651000Y17860000D01*
X6651000Y17860000D02*
X9017000Y17860000D01*
G04 #@! TO.N,Net-(J2-Pad6)*
X5030000Y4179000D02*
X5030000Y3098000D01*
X6143000Y1985000D02*
X7620000Y1985000D01*
X5030000Y3098000D02*
X6143000Y1985000D01*
X800000Y8304000D02*
X800000Y4904000D01*
X800000Y8679000D02*
X2350000Y10229000D01*
X800000Y8304000D02*
X800000Y8679000D01*
X800000Y4529000D02*
X2350000Y2979000D01*
X800000Y4904000D02*
X800000Y4529000D01*
D32*
G04 #@! TO.N,Net-(J3-Pad1)*
X51054000Y10160000D02*
X51078000Y10136000D01*
X51054000Y11684000D02*
X51054000Y10160000D01*
G04 #@! TO.N,/RST*
X45085000Y11430000D02*
X46816000Y11430000D01*
X42898000Y13617000D02*
X45085000Y11430000D01*
X42898000Y14072500D02*
X42898000Y13617000D01*
D34*
X46816000Y10334000D02*
X46816000Y11430000D01*
X46816000Y6270000D02*
X46816000Y10334000D01*
X49530000Y3556000D02*
X46816000Y6270000D01*
X49530000Y3175000D02*
X49530000Y3556000D01*
X49530000Y2032000D02*
X49530000Y3175000D01*
X48895000Y1397000D02*
X49530000Y2032000D01*
X28702000Y4699000D02*
X32004000Y1397000D01*
X27305000Y4699000D02*
X28702000Y4699000D01*
X32004000Y1397000D02*
X48895000Y1397000D01*
X26685000Y4079000D02*
X27305000Y4699000D01*
X26095000Y4079000D02*
X26685000Y4079000D01*
G04 #@! TO.N,/RTS*
X25146000Y3429000D02*
X26095000Y3429000D01*
X24496000Y4079000D02*
X25146000Y3429000D01*
X23435000Y4079000D02*
X24496000Y4079000D01*
X20335000Y4079000D02*
X23435000Y4079000D01*
X19844000Y3588000D02*
X20335000Y4079000D01*
X19314000Y3588000D02*
X19844000Y3588000D01*
G04 #@! TO.N,/DTR*
X23435000Y3429000D02*
X24384000Y3429000D01*
X25034000Y2779000D02*
X26095000Y2779000D01*
X24384000Y3429000D02*
X25034000Y2779000D01*
X20955000Y3429000D02*
X23435000Y3429000D01*
X19812000Y2286000D02*
X20955000Y3429000D01*
X12827000Y2667000D02*
X13208000Y2286000D01*
X12827000Y4064000D02*
X12827000Y2667000D01*
X13208000Y2286000D02*
X19812000Y2286000D01*
X13351000Y4588000D02*
X12827000Y4064000D01*
X14214000Y4588000D02*
X13351000Y4588000D01*
D32*
G04 #@! TO.N,/GPIO0*
X38735000Y22352000D02*
X38735000Y22479000D01*
X39898000Y21189000D02*
X38735000Y22352000D01*
X39898000Y18947500D02*
X39898000Y21189000D01*
D34*
X23435000Y2779000D02*
X22845000Y2779000D01*
X22845000Y2779000D02*
X22352000Y2286000D01*
X22352000Y2286000D02*
X22352000Y1905000D01*
X22352000Y1905000D02*
X23114000Y1143000D01*
X26543000Y1143000D02*
X28448000Y3048000D01*
X23114000Y1143000D02*
X26543000Y1143000D01*
X30226000Y9017000D02*
X27686000Y9017000D01*
X36830000Y15621000D02*
X30226000Y9017000D01*
X36830000Y17526000D02*
X36830000Y15621000D01*
X44530000Y29671000D02*
X44530000Y31750000D01*
X43307000Y28448000D02*
X44530000Y29671000D01*
X35814000Y28448000D02*
X43307000Y28448000D01*
X37973000Y21717000D02*
X38735000Y22479000D01*
X37973000Y21336000D02*
X37973000Y21717000D01*
D32*
G04 #@! TO.N,/UTXD*
X29083000Y7874000D02*
X24788500Y7874000D01*
X35687000Y11303000D02*
X32258000Y7874000D01*
X38100000Y11303000D02*
X35687000Y11303000D01*
X39898000Y13101000D02*
X38100000Y11303000D01*
X39898000Y14072500D02*
X39898000Y13101000D01*
D34*
G04 #@! TO.N,Net-(R9-Pad2)*
X26115000Y21416000D02*
X26115000Y19177000D01*
X26596000Y21897000D02*
X26115000Y21416000D01*
X27765000Y21897000D02*
X26596000Y21897000D01*
G04 #@! TO.N,Net-(R10-Pad2)*
X9017000Y19685000D02*
X10541000Y19685000D01*
X24765000Y20193000D02*
X23876000Y19304000D01*
X26416000Y22987000D02*
X24765000Y21336000D01*
X27178000Y22987000D02*
X26416000Y22987000D01*
X27318000Y22847000D02*
X27178000Y22987000D01*
X23876000Y19304000D02*
X19304000Y19304000D01*
X24765000Y21336000D02*
X24765000Y20193000D01*
X27765000Y22847000D02*
X27318000Y22847000D01*
D32*
G04 #@! TO.N,/GPIO15*
X42672000Y21971000D02*
X42672000Y22479000D01*
X40898000Y20197000D02*
X42672000Y21971000D01*
X40898000Y18947500D02*
X40898000Y20197000D01*
G04 #@! TO.N,/GPIO2*
X40398000Y22467000D02*
X40386000Y22479000D01*
X40398000Y18947500D02*
X40398000Y22467000D01*
X40386000Y22479000D02*
X41021000Y22479000D01*
X41021000Y22479000D02*
X41529000Y22987000D01*
X41529000Y22987000D02*
X41529000Y24892000D01*
X40550500Y25870500D02*
X40550500Y26733500D01*
X41529000Y24892000D02*
X40550500Y25870500D01*
G04 #@! TO.N,/URXD*
X39398000Y13617000D02*
X39398000Y14072500D01*
X26924000Y5969000D02*
X28829000Y5969000D01*
X26416000Y6477000D02*
X26924000Y5969000D01*
X21717000Y6477000D02*
X26416000Y6477000D01*
X20828000Y5588000D02*
X21717000Y6477000D01*
X37973000Y12192000D02*
X39398000Y13617000D01*
X35052000Y12192000D02*
X37973000Y12192000D01*
X28829000Y5969000D02*
X35052000Y12192000D01*
X19314000Y5588000D02*
X20828000Y5588000D01*
D34*
G04 #@! TO.N,Net-(D4-Pad2)*
X37171000Y26733500D02*
X38925500Y26733500D01*
D32*
G04 #@! TO.N,/XO*
X37465000Y7242000D02*
X37719000Y7242000D01*
X37502500Y7204500D02*
X37465000Y7242000D01*
X39710000Y7204500D02*
X37502500Y7204500D01*
X39404500Y7204500D02*
X39710000Y7204500D01*
X38481000Y8128000D02*
X39404500Y7204500D01*
X38481000Y10541000D02*
X38481000Y8128000D01*
X40398000Y12458000D02*
X38481000Y10541000D01*
X40398000Y14072500D02*
X40398000Y12458000D01*
G04 #@! TO.N,/XI*
X43879500Y8904500D02*
X43942000Y8967000D01*
X41910000Y8904500D02*
X43879500Y8904500D01*
X41910000Y9144000D02*
X41910000Y8904500D01*
X40898000Y10156000D02*
X41910000Y9144000D01*
X40898000Y14072500D02*
X40898000Y10156000D01*
D34*
G04 #@! TO.N,/D-*
X5550000Y7254000D02*
X8651000Y7254000D01*
X9017000Y7620000D02*
X10033000Y7620000D01*
X8651000Y7254000D02*
X9017000Y7620000D01*
X14198000Y6604000D02*
X14214000Y6588000D01*
X12430000Y6588000D02*
X14214000Y6588000D01*
X11303000Y5461000D02*
X12430000Y6588000D01*
X10160000Y5461000D02*
X11303000Y5461000D01*
X10033000Y5334000D02*
X10160000Y5461000D01*
G04 #@! TO.N,/D+*
X8890000Y6604000D02*
X5550000Y6604000D01*
X9049000Y6445000D02*
X8890000Y6604000D01*
X11017000Y6445000D02*
X9049000Y6445000D01*
X12160000Y7588000D02*
X11017000Y6445000D01*
X14214000Y7588000D02*
X12160000Y7588000D01*
D32*
G04 #@! TO.N,/RES12K*
X42398000Y14072500D02*
X42398000Y12847000D01*
X45593000Y9652000D02*
X45593000Y9017000D01*
X42398000Y12847000D02*
X45593000Y9652000D01*
D34*
G04 #@! TO.N,/CUTXD*
X19314000Y6588000D02*
X20685000Y6588000D01*
X21971000Y7874000D02*
X22963500Y7874000D01*
X20685000Y6588000D02*
X21971000Y7874000D01*
G04 #@! TO.N,WLED*
X30465000Y22847000D02*
X31102000Y22847000D01*
X32893000Y24638000D02*
X34417000Y24638000D01*
X31102000Y22847000D02*
X32893000Y24638000D01*
D32*
X38989000Y19812000D02*
X39398000Y19403000D01*
X39398000Y19403000D02*
X39398000Y18947500D01*
X37211000Y19812000D02*
X38989000Y19812000D01*
D33*
G04 #@! TO.N,/BS*
X22172000Y24712000D02*
X22172000Y26594000D01*
X21717000Y24257000D02*
X22172000Y24712000D01*
X21436500Y24257000D02*
X21717000Y24257000D01*
G04 #@! TO.N,/SW*
X19472000Y24978000D02*
X19685000Y24765000D01*
X19472000Y26594000D02*
X19472000Y24978000D01*
X19685000Y22265000D02*
X19725000Y22225000D01*
X19685000Y24765000D02*
X19685000Y22265000D01*
G04 #@! TO.N,/FB*
X22629500Y30149000D02*
X22579500Y30099000D01*
X22629500Y32004000D02*
X22629500Y30149000D01*
X24488500Y28494000D02*
X24765000Y28217500D01*
X22172000Y28494000D02*
X24488500Y28494000D01*
X22172000Y28494000D02*
X22271000Y28494000D01*
X22579500Y28802500D02*
X22579500Y30099000D01*
X22271000Y28494000D02*
X22579500Y28802500D01*
G04 #@! TO.N,/5VOUT*
X16553000Y20447000D02*
X16553000Y18161000D01*
X16510000Y20490000D02*
X16553000Y20447000D01*
X16510000Y22098000D02*
X16510000Y20490000D01*
X15875000Y22733000D02*
X16510000Y22098000D01*
X15875000Y22860000D02*
X15875000Y22733000D01*
X18034000Y18161000D02*
X18288000Y17907000D01*
X16553000Y18161000D02*
X18034000Y18161000D01*
X19685000Y30099000D02*
X19177000Y30607000D01*
X20854500Y30099000D02*
X19685000Y30099000D01*
X16553000Y21420000D02*
X16510000Y21463000D01*
X16553000Y20447000D02*
X16553000Y21420000D01*
X20804500Y30149000D02*
X20854500Y30099000D01*
X20804500Y32004000D02*
X20804500Y30149000D01*
G04 #@! TO.N,/12VIN*
X17192000Y27940000D02*
X17272000Y28020000D01*
X14605000Y27940000D02*
X17192000Y27940000D01*
X17272000Y28020000D02*
X17573000Y28020000D01*
X18049000Y27544000D02*
X19472000Y27544000D01*
X17573000Y28020000D02*
X18049000Y27544000D01*
X12700000Y27940000D02*
X14605000Y27940000D01*
X12065000Y28575000D02*
X12700000Y27940000D01*
X9017000Y28575000D02*
X12065000Y28575000D01*
G04 #@! TO.N,/BEN*
X18121000Y29845000D02*
X19472000Y28494000D01*
X17272000Y29845000D02*
X18121000Y29845000D01*
G04 #@! TD*
D35*
G04 #@! TO.N,/SW*
X17623741Y26767815D02*
X17708686Y26722411D01*
X17875510Y26671805D01*
X18005523Y26659000D01*
X18005531Y26659000D01*
X18049000Y26654719D01*
X18092469Y26659000D01*
X18392627Y26659000D01*
X18447820Y26629498D01*
X18567518Y26593188D01*
X18692000Y26580928D01*
X20066000Y26580928D01*
X20066000Y21717000D01*
X18669000Y21717000D01*
X18669000Y24892000D01*
X18666560Y24916776D01*
X18659333Y24940601D01*
X18647597Y24962557D01*
X18631803Y24981803D01*
X18612557Y24997597D01*
X18590601Y25009333D01*
X18566776Y25016560D01*
X18542000Y25019000D01*
X13970000Y25019000D01*
X13970000Y26730187D01*
X14130000Y26714428D01*
X15080000Y26714428D01*
X15253254Y26731492D01*
X15419850Y26782028D01*
X15447861Y26797000D01*
X17569139Y26797000D01*
X17623741Y26767815D01*
G04 #@! TA.AperFunction,Conductor*
D36*
G36*
X17623741Y26767815D02*
G01*
X17708686Y26722411D01*
X17875510Y26671805D01*
X18005523Y26659000D01*
X18005531Y26659000D01*
X18049000Y26654719D01*
X18092469Y26659000D01*
X18392627Y26659000D01*
X18447820Y26629498D01*
X18567518Y26593188D01*
X18692000Y26580928D01*
X20066000Y26580928D01*
X20066000Y21717000D01*
X18669000Y21717000D01*
X18669000Y24892000D01*
X18666560Y24916776D01*
X18659333Y24940601D01*
X18647597Y24962557D01*
X18631803Y24981803D01*
X18612557Y24997597D01*
X18590601Y25009333D01*
X18566776Y25016560D01*
X18542000Y25019000D01*
X13970000Y25019000D01*
X13970000Y26730187D01*
X14130000Y26714428D01*
X15080000Y26714428D01*
X15253254Y26731492D01*
X15419850Y26782028D01*
X15447861Y26797000D01*
X17569139Y26797000D01*
X17623741Y26767815D01*
G37*
G04 #@! TD.AperFunction*
G04 #@! TD*
D35*
G04 #@! TO.N,GND*
X53822199Y12673623D02*
X53989556Y12584169D01*
X54171149Y12529083D01*
X54360000Y12510483D01*
X54624912Y12510483D01*
X54642363Y12496161D01*
X54708616Y12460748D01*
X54790376Y12417046D01*
X54950979Y12368328D01*
X55076148Y12356000D01*
X55076150Y12356000D01*
X55117999Y12351878D01*
X55159848Y12356000D01*
X55598563Y12356000D01*
X55605147Y12350597D01*
X55731443Y12283090D01*
X55820175Y12256174D01*
X55804360Y12251399D01*
X55738661Y12232063D01*
X55736400Y12230881D01*
X55733962Y12230145D01*
X55673557Y12198027D01*
X55612922Y12166328D01*
X55610937Y12164732D01*
X55608684Y12163534D01*
X55555646Y12120277D01*
X55502345Y12077422D01*
X55500706Y12075469D01*
X55498731Y12073858D01*
X55455157Y12021186D01*
X55411142Y11968731D01*
X55409912Y11966494D01*
X55408290Y11964533D01*
X55375752Y11904355D01*
X55342789Y11844396D01*
X55342019Y11841970D01*
X55340805Y11839724D01*
X55320553Y11774300D01*
X55299887Y11709152D01*
X55299603Y11706620D01*
X55298849Y11704184D01*
X55291698Y11636151D01*
X55284071Y11568151D01*
X55284037Y11563253D01*
X55284018Y11563075D01*
X55284034Y11562896D01*
X55284000Y11558000D01*
X55284000Y10658000D01*
X55290674Y10589933D01*
X55296877Y10521774D01*
X55297598Y10519326D01*
X55297846Y10516792D01*
X55317601Y10451360D01*
X55336937Y10385661D01*
X55338119Y10383400D01*
X55338855Y10380962D01*
X55370973Y10320557D01*
X55402672Y10259922D01*
X55404268Y10257937D01*
X55405466Y10255684D01*
X55448723Y10202646D01*
X55491578Y10149345D01*
X55493531Y10147706D01*
X55495142Y10145731D01*
X55547814Y10102157D01*
X55600269Y10058142D01*
X55602506Y10056912D01*
X55604467Y10055290D01*
X55664645Y10022752D01*
X55724604Y9989789D01*
X55727030Y9989019D01*
X55729276Y9987805D01*
X55794700Y9967553D01*
X55859848Y9946887D01*
X55862380Y9946603D01*
X55864816Y9945849D01*
X55932849Y9938698D01*
X56000849Y9931071D01*
X56005747Y9931037D01*
X56005925Y9931018D01*
X56006104Y9931034D01*
X56011000Y9931000D01*
X56388000Y9931000D01*
X56388000Y4168892D01*
X56305797Y3970437D01*
X56201000Y3443586D01*
X56201000Y2906414D01*
X56305797Y2379563D01*
X56388000Y2181108D01*
X56388000Y752000D01*
X49530895Y752000D01*
X49535896Y756104D01*
X49564143Y790523D01*
X50136483Y1362862D01*
X50170896Y1391104D01*
X50218107Y1448630D01*
X50283614Y1528451D01*
X50307866Y1573823D01*
X50337827Y1629877D01*
X50528526Y1731807D01*
X50696961Y1870039D01*
X50835193Y2038474D01*
X50937908Y2230641D01*
X51001160Y2439154D01*
X51022517Y2656000D01*
X51022517Y3694000D01*
X51001160Y3910846D01*
X50937908Y4119359D01*
X50835193Y4311526D01*
X50696961Y4479961D01*
X50528526Y4618193D01*
X50336359Y4720908D01*
X50127846Y4784160D01*
X49911000Y4805517D01*
X49556104Y4805517D01*
X47718000Y6643620D01*
X47718000Y7536000D01*
X48347482Y7536000D01*
X48361519Y7393483D01*
X48403089Y7256443D01*
X48470596Y7130146D01*
X48561446Y7019446D01*
X48672146Y6928596D01*
X48798443Y6861089D01*
X48935483Y6819519D01*
X49078000Y6805482D01*
X49223250Y6809000D01*
X49405000Y6990750D01*
X49405000Y8463000D01*
X48532750Y8463000D01*
X48351000Y8281250D01*
X48347482Y7536000D01*
X47718000Y7536000D01*
X47718000Y10481344D01*
X47728500Y10489961D01*
X47853199Y10387623D01*
X48020556Y10298169D01*
X48202149Y10243083D01*
X48391000Y10224483D01*
X48538409Y10224483D01*
X48470596Y10141854D01*
X48403089Y10015557D01*
X48361519Y9878517D01*
X48347482Y9736000D01*
X48351000Y8990750D01*
X48532750Y8809000D01*
X49405000Y8809000D01*
X49405000Y8829000D01*
X49751000Y8829000D01*
X49751000Y8809000D01*
X49771000Y8809000D01*
X49771000Y8463000D01*
X49751000Y8463000D01*
X49751000Y6990750D01*
X49932750Y6809000D01*
X50078000Y6805482D01*
X50220517Y6819519D01*
X50357557Y6861089D01*
X50483854Y6928596D01*
X50552582Y6985000D01*
X51603418Y6985000D01*
X51672146Y6928596D01*
X51798443Y6861089D01*
X51935483Y6819519D01*
X52078000Y6805482D01*
X52223250Y6809000D01*
X52405000Y6990750D01*
X52405000Y8463000D01*
X52751000Y8463000D01*
X52751000Y6990750D01*
X52932750Y6809000D01*
X53078000Y6805482D01*
X53220517Y6819519D01*
X53357557Y6861089D01*
X53483854Y6928596D01*
X53594554Y7019446D01*
X53685404Y7130146D01*
X53752911Y7256443D01*
X53794481Y7393483D01*
X53808518Y7536000D01*
X53805000Y8281250D01*
X53623250Y8463000D01*
X52751000Y8463000D01*
X52405000Y8463000D01*
X52385000Y8463000D01*
X52385000Y8809000D01*
X52405000Y8809000D01*
X52405000Y10281250D01*
X52751000Y10281250D01*
X52751000Y8809000D01*
X53623250Y8809000D01*
X53805000Y8990750D01*
X53808518Y9736000D01*
X53794481Y9878517D01*
X53752911Y10015557D01*
X53685404Y10141854D01*
X53594554Y10252554D01*
X53483854Y10343404D01*
X53357557Y10410911D01*
X53220517Y10452481D01*
X53078000Y10466518D01*
X52932750Y10463000D01*
X52751000Y10281250D01*
X52405000Y10281250D01*
X52308517Y10377733D01*
X52308517Y10386000D01*
X52289677Y10577289D01*
X52233880Y10761228D01*
X52143270Y10930746D01*
X52126055Y10951723D01*
X52185831Y11063556D01*
X52240917Y11245149D01*
X52259517Y11434000D01*
X52259517Y11934000D01*
X52240917Y12122851D01*
X52185831Y12304444D01*
X52096377Y12471801D01*
X51994039Y12596500D01*
X52038997Y12651282D01*
X52164556Y12584169D01*
X52346149Y12529083D01*
X52535000Y12510483D01*
X53035000Y12510483D01*
X53223851Y12529083D01*
X53405444Y12584169D01*
X53572801Y12673623D01*
X53697500Y12775961D01*
X53822199Y12673623D01*
G04 #@! TA.AperFunction,Conductor*
D36*
G36*
X53822199Y12673623D02*
G01*
X53989556Y12584169D01*
X54171149Y12529083D01*
X54360000Y12510483D01*
X54624912Y12510483D01*
X54642363Y12496161D01*
X54708616Y12460748D01*
X54790376Y12417046D01*
X54950979Y12368328D01*
X55076148Y12356000D01*
X55076150Y12356000D01*
X55117999Y12351878D01*
X55159848Y12356000D01*
X55598563Y12356000D01*
X55605147Y12350597D01*
X55731443Y12283090D01*
X55820175Y12256174D01*
X55804360Y12251399D01*
X55738661Y12232063D01*
X55736400Y12230881D01*
X55733962Y12230145D01*
X55673557Y12198027D01*
X55612922Y12166328D01*
X55610937Y12164732D01*
X55608684Y12163534D01*
X55555646Y12120277D01*
X55502345Y12077422D01*
X55500706Y12075469D01*
X55498731Y12073858D01*
X55455157Y12021186D01*
X55411142Y11968731D01*
X55409912Y11966494D01*
X55408290Y11964533D01*
X55375752Y11904355D01*
X55342789Y11844396D01*
X55342019Y11841970D01*
X55340805Y11839724D01*
X55320553Y11774300D01*
X55299887Y11709152D01*
X55299603Y11706620D01*
X55298849Y11704184D01*
X55291698Y11636151D01*
X55284071Y11568151D01*
X55284037Y11563253D01*
X55284018Y11563075D01*
X55284034Y11562896D01*
X55284000Y11558000D01*
X55284000Y10658000D01*
X55290674Y10589933D01*
X55296877Y10521774D01*
X55297598Y10519326D01*
X55297846Y10516792D01*
X55317601Y10451360D01*
X55336937Y10385661D01*
X55338119Y10383400D01*
X55338855Y10380962D01*
X55370973Y10320557D01*
X55402672Y10259922D01*
X55404268Y10257937D01*
X55405466Y10255684D01*
X55448723Y10202646D01*
X55491578Y10149345D01*
X55493531Y10147706D01*
X55495142Y10145731D01*
X55547814Y10102157D01*
X55600269Y10058142D01*
X55602506Y10056912D01*
X55604467Y10055290D01*
X55664645Y10022752D01*
X55724604Y9989789D01*
X55727030Y9989019D01*
X55729276Y9987805D01*
X55794700Y9967553D01*
X55859848Y9946887D01*
X55862380Y9946603D01*
X55864816Y9945849D01*
X55932849Y9938698D01*
X56000849Y9931071D01*
X56005747Y9931037D01*
X56005925Y9931018D01*
X56006104Y9931034D01*
X56011000Y9931000D01*
X56388000Y9931000D01*
X56388000Y4168892D01*
X56305797Y3970437D01*
X56201000Y3443586D01*
X56201000Y2906414D01*
X56305797Y2379563D01*
X56388000Y2181108D01*
X56388000Y752000D01*
X49530895Y752000D01*
X49535896Y756104D01*
X49564143Y790523D01*
X50136483Y1362862D01*
X50170896Y1391104D01*
X50218107Y1448630D01*
X50283614Y1528451D01*
X50307866Y1573823D01*
X50337827Y1629877D01*
X50528526Y1731807D01*
X50696961Y1870039D01*
X50835193Y2038474D01*
X50937908Y2230641D01*
X51001160Y2439154D01*
X51022517Y2656000D01*
X51022517Y3694000D01*
X51001160Y3910846D01*
X50937908Y4119359D01*
X50835193Y4311526D01*
X50696961Y4479961D01*
X50528526Y4618193D01*
X50336359Y4720908D01*
X50127846Y4784160D01*
X49911000Y4805517D01*
X49556104Y4805517D01*
X47718000Y6643620D01*
X47718000Y7536000D01*
X48347482Y7536000D01*
X48361519Y7393483D01*
X48403089Y7256443D01*
X48470596Y7130146D01*
X48561446Y7019446D01*
X48672146Y6928596D01*
X48798443Y6861089D01*
X48935483Y6819519D01*
X49078000Y6805482D01*
X49223250Y6809000D01*
X49405000Y6990750D01*
X49405000Y8463000D01*
X48532750Y8463000D01*
X48351000Y8281250D01*
X48347482Y7536000D01*
X47718000Y7536000D01*
X47718000Y10481344D01*
X47728500Y10489961D01*
X47853199Y10387623D01*
X48020556Y10298169D01*
X48202149Y10243083D01*
X48391000Y10224483D01*
X48538409Y10224483D01*
X48470596Y10141854D01*
X48403089Y10015557D01*
X48361519Y9878517D01*
X48347482Y9736000D01*
X48351000Y8990750D01*
X48532750Y8809000D01*
X49405000Y8809000D01*
X49405000Y8829000D01*
X49751000Y8829000D01*
X49751000Y8809000D01*
X49771000Y8809000D01*
X49771000Y8463000D01*
X49751000Y8463000D01*
X49751000Y6990750D01*
X49932750Y6809000D01*
X50078000Y6805482D01*
X50220517Y6819519D01*
X50357557Y6861089D01*
X50483854Y6928596D01*
X50552582Y6985000D01*
X51603418Y6985000D01*
X51672146Y6928596D01*
X51798443Y6861089D01*
X51935483Y6819519D01*
X52078000Y6805482D01*
X52223250Y6809000D01*
X52405000Y6990750D01*
X52405000Y8463000D01*
X52751000Y8463000D01*
X52751000Y6990750D01*
X52932750Y6809000D01*
X53078000Y6805482D01*
X53220517Y6819519D01*
X53357557Y6861089D01*
X53483854Y6928596D01*
X53594554Y7019446D01*
X53685404Y7130146D01*
X53752911Y7256443D01*
X53794481Y7393483D01*
X53808518Y7536000D01*
X53805000Y8281250D01*
X53623250Y8463000D01*
X52751000Y8463000D01*
X52405000Y8463000D01*
X52385000Y8463000D01*
X52385000Y8809000D01*
X52405000Y8809000D01*
X52405000Y10281250D01*
X52751000Y10281250D01*
X52751000Y8809000D01*
X53623250Y8809000D01*
X53805000Y8990750D01*
X53808518Y9736000D01*
X53794481Y9878517D01*
X53752911Y10015557D01*
X53685404Y10141854D01*
X53594554Y10252554D01*
X53483854Y10343404D01*
X53357557Y10410911D01*
X53220517Y10452481D01*
X53078000Y10466518D01*
X52932750Y10463000D01*
X52751000Y10281250D01*
X52405000Y10281250D01*
X52308517Y10377733D01*
X52308517Y10386000D01*
X52289677Y10577289D01*
X52233880Y10761228D01*
X52143270Y10930746D01*
X52126055Y10951723D01*
X52185831Y11063556D01*
X52240917Y11245149D01*
X52259517Y11434000D01*
X52259517Y11934000D01*
X52240917Y12122851D01*
X52185831Y12304444D01*
X52096377Y12471801D01*
X51994039Y12596500D01*
X52038997Y12651282D01*
X52164556Y12584169D01*
X52346149Y12529083D01*
X52535000Y12510483D01*
X53035000Y12510483D01*
X53223851Y12529083D01*
X53405444Y12584169D01*
X53572801Y12673623D01*
X53697500Y12775961D01*
X53822199Y12673623D01*
G37*
G04 #@! TD.AperFunction*
D35*
X13534436Y11880877D02*
X13515520Y11818517D01*
X13501483Y11676000D01*
X13501483Y10676000D01*
X13515520Y10533483D01*
X13557090Y10396443D01*
X13624597Y10270147D01*
X13715446Y10159446D01*
X13826147Y10068597D01*
X13952443Y10001090D01*
X14089483Y9959520D01*
X14232000Y9945483D01*
X15232000Y9945483D01*
X15374517Y9959520D01*
X15511557Y10001090D01*
X15637853Y10068597D01*
X15748554Y10159446D01*
X15781015Y10199000D01*
X16391413Y10199000D01*
X16366589Y10152557D01*
X16325019Y10015517D01*
X16310982Y9873000D01*
X16314500Y9752750D01*
X16496250Y9571000D01*
X17406000Y9571000D01*
X17406000Y9591000D01*
X17752000Y9591000D01*
X17752000Y9571000D01*
X17772000Y9571000D01*
X17772000Y9225000D01*
X17752000Y9225000D01*
X17752000Y8377750D01*
X17933750Y8196000D01*
X18116500Y8192482D01*
X18127020Y8193518D01*
X18089090Y8122557D01*
X18079218Y8090011D01*
X18031517Y8104481D01*
X17889000Y8118518D01*
X17118750Y8115000D01*
X16937000Y7933250D01*
X16937000Y5761000D01*
X16957000Y5761000D01*
X16957000Y5415000D01*
X16937000Y5415000D01*
X16937000Y5395000D01*
X16591000Y5395000D01*
X16591000Y5415000D01*
X15354250Y5415000D01*
X15309250Y5460000D01*
X15151898Y5460000D01*
X15043557Y5517910D01*
X14906517Y5559480D01*
X14764000Y5573517D01*
X13664000Y5573517D01*
X13521483Y5559480D01*
X13384443Y5517910D01*
X13337993Y5493082D01*
X13306700Y5490000D01*
X13306693Y5490000D01*
X13174177Y5476948D01*
X13004150Y5425371D01*
X12847451Y5341614D01*
X12710104Y5228896D01*
X12681857Y5194477D01*
X12220523Y4733143D01*
X12186104Y4704896D01*
X12073386Y4567548D01*
X11989629Y4410849D01*
X11938052Y4240822D01*
X11925000Y4108306D01*
X11925000Y4108299D01*
X11920637Y4064000D01*
X11925000Y4019700D01*
X11925001Y2711309D01*
X11920637Y2667000D01*
X11938052Y2490178D01*
X11977332Y2360691D01*
X11989630Y2320150D01*
X12073387Y2163451D01*
X12094189Y2138104D01*
X12156280Y2062446D01*
X12186105Y2026104D01*
X12220519Y1997861D01*
X12538853Y1679528D01*
X12567104Y1645104D01*
X12704451Y1532386D01*
X12861150Y1448629D01*
X13031177Y1397052D01*
X13163693Y1384000D01*
X13163700Y1384000D01*
X13207999Y1379637D01*
X13252299Y1384000D01*
X19767701Y1384000D01*
X19812000Y1379637D01*
X19856299Y1384000D01*
X19856307Y1384000D01*
X19988823Y1397052D01*
X20158850Y1448629D01*
X20315549Y1532386D01*
X20452896Y1645104D01*
X20481143Y1679523D01*
X21328621Y2527000D01*
X21482520Y2527000D01*
X21463052Y2462822D01*
X21450000Y2330306D01*
X21450000Y2330299D01*
X21445637Y2286000D01*
X21450000Y2241701D01*
X21450000Y1949299D01*
X21445637Y1905000D01*
X21450000Y1860701D01*
X21450000Y1860693D01*
X21463052Y1728177D01*
X21514629Y1558150D01*
X21598386Y1401451D01*
X21711105Y1264104D01*
X21745518Y1235862D01*
X22229379Y752000D01*
X752000Y752000D01*
X752000Y1645983D01*
X885888Y1536104D01*
X1185908Y1375740D01*
X1511449Y1276988D01*
X1765159Y1252000D01*
X2934841Y1252000D01*
X3188551Y1276988D01*
X3514092Y1375740D01*
X3814112Y1536104D01*
X4077082Y1751918D01*
X4292896Y2014888D01*
X4445648Y2300666D01*
X5418216Y1328098D01*
X5448814Y1290814D01*
X5597582Y1168724D01*
X5767309Y1078003D01*
X5801508Y1067629D01*
X5951474Y1022137D01*
X6143000Y1003273D01*
X6190993Y1008000D01*
X6749806Y1008000D01*
X6844699Y930123D01*
X7012056Y840669D01*
X7193649Y785583D01*
X7382500Y766983D01*
X7857500Y766983D01*
X8046351Y785583D01*
X8227944Y840669D01*
X8395301Y930123D01*
X8541991Y1050509D01*
X8662377Y1197199D01*
X8751831Y1364556D01*
X8806917Y1546149D01*
X8825517Y1735000D01*
X8825517Y2235000D01*
X8806917Y2423851D01*
X8751831Y2605444D01*
X8662377Y2772801D01*
X8623365Y2820337D01*
X8702404Y2916646D01*
X8769911Y3042943D01*
X8811481Y3179983D01*
X8825518Y3322500D01*
X8822000Y3455250D01*
X8640250Y3637000D01*
X7793000Y3637000D01*
X7793000Y3617000D01*
X7447000Y3617000D01*
X7447000Y3637000D01*
X7427000Y3637000D01*
X7427000Y3983000D01*
X7447000Y3983000D01*
X7447000Y4842750D01*
X7793000Y4842750D01*
X7793000Y3983000D01*
X8640250Y3983000D01*
X8822000Y4164750D01*
X8825518Y4297500D01*
X8811481Y4440017D01*
X8769911Y4577057D01*
X8702404Y4703354D01*
X8611554Y4814054D01*
X8500854Y4904904D01*
X8374557Y4972411D01*
X8237517Y5013981D01*
X8095000Y5028018D01*
X7974750Y5024500D01*
X7793000Y4842750D01*
X7447000Y4842750D01*
X7265250Y5024500D01*
X7145000Y5028018D01*
X7056908Y5019342D01*
X6895250Y5181000D01*
X6858699Y5181000D01*
X6866554Y5187446D01*
X6957403Y5298147D01*
X7024910Y5424443D01*
X7066480Y5561483D01*
X7070495Y5602245D01*
X7077000Y5608750D01*
X7073614Y5633917D01*
X7080320Y5702000D01*
X8532518Y5702000D01*
X8545451Y5691386D01*
X8702150Y5607629D01*
X8732594Y5598394D01*
X8706000Y5464698D01*
X8706000Y5203302D01*
X8756996Y4946928D01*
X8857028Y4705430D01*
X9002252Y4488087D01*
X9187087Y4303252D01*
X9404430Y4158028D01*
X9645928Y4057996D01*
X9902302Y4007000D01*
X10163698Y4007000D01*
X10420072Y4057996D01*
X10661570Y4158028D01*
X10878913Y4303252D01*
X11063748Y4488087D01*
X11111131Y4559000D01*
X11258701Y4559000D01*
X11303000Y4554637D01*
X11347299Y4559000D01*
X11347307Y4559000D01*
X11479823Y4572052D01*
X11649850Y4623629D01*
X11806549Y4707386D01*
X11943896Y4820104D01*
X11972143Y4854523D01*
X12803621Y5686000D01*
X13332227Y5686000D01*
X13384443Y5658090D01*
X13521483Y5616520D01*
X13664000Y5602483D01*
X14764000Y5602483D01*
X14906517Y5616520D01*
X15043557Y5658090D01*
X15151898Y5716000D01*
X15309250Y5716000D01*
X15354250Y5761000D01*
X16591000Y5761000D01*
X16591000Y7933250D01*
X16409250Y8115000D01*
X15639000Y8118518D01*
X15496483Y8104481D01*
X15448782Y8090011D01*
X15438910Y8122557D01*
X15371403Y8248853D01*
X15280554Y8359554D01*
X15169853Y8450403D01*
X15043557Y8517910D01*
X14906517Y8559480D01*
X14764000Y8573517D01*
X13664000Y8573517D01*
X13521483Y8559480D01*
X13384443Y8517910D01*
X13332227Y8490000D01*
X12204299Y8490000D01*
X12159999Y8494363D01*
X12115700Y8490000D01*
X12115693Y8490000D01*
X11983177Y8476948D01*
X11813150Y8425371D01*
X11656451Y8341614D01*
X11519104Y8228896D01*
X11490861Y8194482D01*
X11307378Y8010998D01*
X11208972Y8248570D01*
X11063748Y8465913D01*
X10878913Y8650748D01*
X10661570Y8795972D01*
X10420072Y8896004D01*
X10284355Y8923000D01*
X16310982Y8923000D01*
X16325019Y8780483D01*
X16366589Y8643443D01*
X16434096Y8517146D01*
X16524946Y8406446D01*
X16635646Y8315596D01*
X16761943Y8248089D01*
X16898983Y8206519D01*
X17041500Y8192482D01*
X17224250Y8196000D01*
X17406000Y8377750D01*
X17406000Y9225000D01*
X16496250Y9225000D01*
X16314500Y9043250D01*
X16310982Y8923000D01*
X10284355Y8923000D01*
X10163698Y8947000D01*
X9902302Y8947000D01*
X9645928Y8896004D01*
X9404430Y8795972D01*
X9187087Y8650748D01*
X9058604Y8522265D01*
X9016999Y8526363D01*
X8972700Y8522000D01*
X8972693Y8522000D01*
X8840177Y8508948D01*
X8670150Y8457371D01*
X8513451Y8373614D01*
X8376104Y8260896D01*
X8347853Y8226472D01*
X8277381Y8156000D01*
X8267686Y8156000D01*
X9320902Y9209216D01*
X9358186Y9239814D01*
X9480276Y9388582D01*
X9570997Y9558309D01*
X9604877Y9669997D01*
X9626863Y9742474D01*
X9645727Y9934000D01*
X9641000Y9981993D01*
X9641000Y10105668D01*
X9756056Y10044169D01*
X9937649Y9989083D01*
X10126500Y9970483D01*
X10701500Y9970483D01*
X10890351Y9989083D01*
X11071944Y10044169D01*
X11239301Y10133623D01*
X11243106Y10136746D01*
X11326147Y10068597D01*
X11452443Y10001090D01*
X11589483Y9959520D01*
X11732000Y9945483D01*
X12732000Y9945483D01*
X12874517Y9959520D01*
X13011557Y10001090D01*
X13137853Y10068597D01*
X13248554Y10159446D01*
X13339403Y10270147D01*
X13406910Y10396443D01*
X13448480Y10533483D01*
X13462517Y10676000D01*
X13462517Y11676000D01*
X13448480Y11818517D01*
X13406910Y11955557D01*
X13346227Y12069086D01*
X13534436Y11880877D01*
G04 #@! TA.AperFunction,Conductor*
D36*
G36*
X13534436Y11880877D02*
G01*
X13515520Y11818517D01*
X13501483Y11676000D01*
X13501483Y10676000D01*
X13515520Y10533483D01*
X13557090Y10396443D01*
X13624597Y10270147D01*
X13715446Y10159446D01*
X13826147Y10068597D01*
X13952443Y10001090D01*
X14089483Y9959520D01*
X14232000Y9945483D01*
X15232000Y9945483D01*
X15374517Y9959520D01*
X15511557Y10001090D01*
X15637853Y10068597D01*
X15748554Y10159446D01*
X15781015Y10199000D01*
X16391413Y10199000D01*
X16366589Y10152557D01*
X16325019Y10015517D01*
X16310982Y9873000D01*
X16314500Y9752750D01*
X16496250Y9571000D01*
X17406000Y9571000D01*
X17406000Y9591000D01*
X17752000Y9591000D01*
X17752000Y9571000D01*
X17772000Y9571000D01*
X17772000Y9225000D01*
X17752000Y9225000D01*
X17752000Y8377750D01*
X17933750Y8196000D01*
X18116500Y8192482D01*
X18127020Y8193518D01*
X18089090Y8122557D01*
X18079218Y8090011D01*
X18031517Y8104481D01*
X17889000Y8118518D01*
X17118750Y8115000D01*
X16937000Y7933250D01*
X16937000Y5761000D01*
X16957000Y5761000D01*
X16957000Y5415000D01*
X16937000Y5415000D01*
X16937000Y5395000D01*
X16591000Y5395000D01*
X16591000Y5415000D01*
X15354250Y5415000D01*
X15309250Y5460000D01*
X15151898Y5460000D01*
X15043557Y5517910D01*
X14906517Y5559480D01*
X14764000Y5573517D01*
X13664000Y5573517D01*
X13521483Y5559480D01*
X13384443Y5517910D01*
X13337993Y5493082D01*
X13306700Y5490000D01*
X13306693Y5490000D01*
X13174177Y5476948D01*
X13004150Y5425371D01*
X12847451Y5341614D01*
X12710104Y5228896D01*
X12681857Y5194477D01*
X12220523Y4733143D01*
X12186104Y4704896D01*
X12073386Y4567548D01*
X11989629Y4410849D01*
X11938052Y4240822D01*
X11925000Y4108306D01*
X11925000Y4108299D01*
X11920637Y4064000D01*
X11925000Y4019700D01*
X11925001Y2711309D01*
X11920637Y2667000D01*
X11938052Y2490178D01*
X11977332Y2360691D01*
X11989630Y2320150D01*
X12073387Y2163451D01*
X12094189Y2138104D01*
X12156280Y2062446D01*
X12186105Y2026104D01*
X12220519Y1997861D01*
X12538853Y1679528D01*
X12567104Y1645104D01*
X12704451Y1532386D01*
X12861150Y1448629D01*
X13031177Y1397052D01*
X13163693Y1384000D01*
X13163700Y1384000D01*
X13207999Y1379637D01*
X13252299Y1384000D01*
X19767701Y1384000D01*
X19812000Y1379637D01*
X19856299Y1384000D01*
X19856307Y1384000D01*
X19988823Y1397052D01*
X20158850Y1448629D01*
X20315549Y1532386D01*
X20452896Y1645104D01*
X20481143Y1679523D01*
X21328621Y2527000D01*
X21482520Y2527000D01*
X21463052Y2462822D01*
X21450000Y2330306D01*
X21450000Y2330299D01*
X21445637Y2286000D01*
X21450000Y2241701D01*
X21450000Y1949299D01*
X21445637Y1905000D01*
X21450000Y1860701D01*
X21450000Y1860693D01*
X21463052Y1728177D01*
X21514629Y1558150D01*
X21598386Y1401451D01*
X21711105Y1264104D01*
X21745518Y1235862D01*
X22229379Y752000D01*
X752000Y752000D01*
X752000Y1645983D01*
X885888Y1536104D01*
X1185908Y1375740D01*
X1511449Y1276988D01*
X1765159Y1252000D01*
X2934841Y1252000D01*
X3188551Y1276988D01*
X3514092Y1375740D01*
X3814112Y1536104D01*
X4077082Y1751918D01*
X4292896Y2014888D01*
X4445648Y2300666D01*
X5418216Y1328098D01*
X5448814Y1290814D01*
X5597582Y1168724D01*
X5767309Y1078003D01*
X5801508Y1067629D01*
X5951474Y1022137D01*
X6143000Y1003273D01*
X6190993Y1008000D01*
X6749806Y1008000D01*
X6844699Y930123D01*
X7012056Y840669D01*
X7193649Y785583D01*
X7382500Y766983D01*
X7857500Y766983D01*
X8046351Y785583D01*
X8227944Y840669D01*
X8395301Y930123D01*
X8541991Y1050509D01*
X8662377Y1197199D01*
X8751831Y1364556D01*
X8806917Y1546149D01*
X8825517Y1735000D01*
X8825517Y2235000D01*
X8806917Y2423851D01*
X8751831Y2605444D01*
X8662377Y2772801D01*
X8623365Y2820337D01*
X8702404Y2916646D01*
X8769911Y3042943D01*
X8811481Y3179983D01*
X8825518Y3322500D01*
X8822000Y3455250D01*
X8640250Y3637000D01*
X7793000Y3637000D01*
X7793000Y3617000D01*
X7447000Y3617000D01*
X7447000Y3637000D01*
X7427000Y3637000D01*
X7427000Y3983000D01*
X7447000Y3983000D01*
X7447000Y4842750D01*
X7793000Y4842750D01*
X7793000Y3983000D01*
X8640250Y3983000D01*
X8822000Y4164750D01*
X8825518Y4297500D01*
X8811481Y4440017D01*
X8769911Y4577057D01*
X8702404Y4703354D01*
X8611554Y4814054D01*
X8500854Y4904904D01*
X8374557Y4972411D01*
X8237517Y5013981D01*
X8095000Y5028018D01*
X7974750Y5024500D01*
X7793000Y4842750D01*
X7447000Y4842750D01*
X7265250Y5024500D01*
X7145000Y5028018D01*
X7056908Y5019342D01*
X6895250Y5181000D01*
X6858699Y5181000D01*
X6866554Y5187446D01*
X6957403Y5298147D01*
X7024910Y5424443D01*
X7066480Y5561483D01*
X7070495Y5602245D01*
X7077000Y5608750D01*
X7073614Y5633917D01*
X7080320Y5702000D01*
X8532518Y5702000D01*
X8545451Y5691386D01*
X8702150Y5607629D01*
X8732594Y5598394D01*
X8706000Y5464698D01*
X8706000Y5203302D01*
X8756996Y4946928D01*
X8857028Y4705430D01*
X9002252Y4488087D01*
X9187087Y4303252D01*
X9404430Y4158028D01*
X9645928Y4057996D01*
X9902302Y4007000D01*
X10163698Y4007000D01*
X10420072Y4057996D01*
X10661570Y4158028D01*
X10878913Y4303252D01*
X11063748Y4488087D01*
X11111131Y4559000D01*
X11258701Y4559000D01*
X11303000Y4554637D01*
X11347299Y4559000D01*
X11347307Y4559000D01*
X11479823Y4572052D01*
X11649850Y4623629D01*
X11806549Y4707386D01*
X11943896Y4820104D01*
X11972143Y4854523D01*
X12803621Y5686000D01*
X13332227Y5686000D01*
X13384443Y5658090D01*
X13521483Y5616520D01*
X13664000Y5602483D01*
X14764000Y5602483D01*
X14906517Y5616520D01*
X15043557Y5658090D01*
X15151898Y5716000D01*
X15309250Y5716000D01*
X15354250Y5761000D01*
X16591000Y5761000D01*
X16591000Y7933250D01*
X16409250Y8115000D01*
X15639000Y8118518D01*
X15496483Y8104481D01*
X15448782Y8090011D01*
X15438910Y8122557D01*
X15371403Y8248853D01*
X15280554Y8359554D01*
X15169853Y8450403D01*
X15043557Y8517910D01*
X14906517Y8559480D01*
X14764000Y8573517D01*
X13664000Y8573517D01*
X13521483Y8559480D01*
X13384443Y8517910D01*
X13332227Y8490000D01*
X12204299Y8490000D01*
X12159999Y8494363D01*
X12115700Y8490000D01*
X12115693Y8490000D01*
X11983177Y8476948D01*
X11813150Y8425371D01*
X11656451Y8341614D01*
X11519104Y8228896D01*
X11490861Y8194482D01*
X11307378Y8010998D01*
X11208972Y8248570D01*
X11063748Y8465913D01*
X10878913Y8650748D01*
X10661570Y8795972D01*
X10420072Y8896004D01*
X10284355Y8923000D01*
X16310982Y8923000D01*
X16325019Y8780483D01*
X16366589Y8643443D01*
X16434096Y8517146D01*
X16524946Y8406446D01*
X16635646Y8315596D01*
X16761943Y8248089D01*
X16898983Y8206519D01*
X17041500Y8192482D01*
X17224250Y8196000D01*
X17406000Y8377750D01*
X17406000Y9225000D01*
X16496250Y9225000D01*
X16314500Y9043250D01*
X16310982Y8923000D01*
X10284355Y8923000D01*
X10163698Y8947000D01*
X9902302Y8947000D01*
X9645928Y8896004D01*
X9404430Y8795972D01*
X9187087Y8650748D01*
X9058604Y8522265D01*
X9016999Y8526363D01*
X8972700Y8522000D01*
X8972693Y8522000D01*
X8840177Y8508948D01*
X8670150Y8457371D01*
X8513451Y8373614D01*
X8376104Y8260896D01*
X8347853Y8226472D01*
X8277381Y8156000D01*
X8267686Y8156000D01*
X9320902Y9209216D01*
X9358186Y9239814D01*
X9480276Y9388582D01*
X9570997Y9558309D01*
X9604877Y9669997D01*
X9626863Y9742474D01*
X9645727Y9934000D01*
X9641000Y9981993D01*
X9641000Y10105668D01*
X9756056Y10044169D01*
X9937649Y9989083D01*
X10126500Y9970483D01*
X10701500Y9970483D01*
X10890351Y9989083D01*
X11071944Y10044169D01*
X11239301Y10133623D01*
X11243106Y10136746D01*
X11326147Y10068597D01*
X11452443Y10001090D01*
X11589483Y9959520D01*
X11732000Y9945483D01*
X12732000Y9945483D01*
X12874517Y9959520D01*
X13011557Y10001090D01*
X13137853Y10068597D01*
X13248554Y10159446D01*
X13339403Y10270147D01*
X13406910Y10396443D01*
X13448480Y10533483D01*
X13462517Y10676000D01*
X13462517Y11676000D01*
X13448480Y11818517D01*
X13406910Y11955557D01*
X13346227Y12069086D01*
X13534436Y11880877D01*
G37*
G04 #@! TD.AperFunction*
D35*
X37629001Y8774000D02*
X37292000Y8774000D01*
X37292000Y8794000D01*
X36444750Y8794000D01*
X36263000Y8612250D01*
X36259482Y8429500D01*
X36273519Y8286983D01*
X36315089Y8149943D01*
X36382596Y8023646D01*
X36388659Y8016258D01*
X36333169Y7912444D01*
X36278083Y7730851D01*
X36259483Y7542000D01*
X36259483Y6942000D01*
X36278083Y6753149D01*
X36333169Y6571556D01*
X36422623Y6404199D01*
X36543009Y6257509D01*
X36689699Y6137123D01*
X36857056Y6047669D01*
X37038649Y5992583D01*
X37227500Y5973983D01*
X37702500Y5973983D01*
X37891351Y5992583D01*
X38072944Y6047669D01*
X38240301Y6137123D01*
X38375969Y6248464D01*
X38402597Y6198647D01*
X38493446Y6087946D01*
X38604147Y5997097D01*
X38730443Y5929590D01*
X38867483Y5888020D01*
X39010000Y5873983D01*
X40410000Y5873983D01*
X40552517Y5888020D01*
X40689557Y5929590D01*
X40809999Y5993968D01*
X40930443Y5929589D01*
X41067483Y5888019D01*
X41210000Y5873982D01*
X41555250Y5877500D01*
X41737000Y6059250D01*
X41737000Y7031500D01*
X42083000Y7031500D01*
X42083000Y6059250D01*
X42264750Y5877500D01*
X42610000Y5873982D01*
X42752517Y5888019D01*
X42889557Y5929589D01*
X43015854Y5997096D01*
X43107508Y6072315D01*
X43187443Y6029589D01*
X43324483Y5988019D01*
X43467000Y5973982D01*
X43587250Y5977500D01*
X43769000Y6159250D01*
X43769000Y7069000D01*
X44115000Y7069000D01*
X44115000Y6159250D01*
X44296750Y5977500D01*
X44417000Y5973982D01*
X44559517Y5988019D01*
X44696557Y6029589D01*
X44767500Y6067509D01*
X44838443Y6029589D01*
X44975483Y5988019D01*
X45118000Y5973982D01*
X45238250Y5977500D01*
X45420000Y6159250D01*
X45420000Y7019000D01*
X45012250Y7019000D01*
X44962250Y7069000D01*
X44115000Y7069000D01*
X43769000Y7069000D01*
X42921750Y7069000D01*
X42884250Y7031500D01*
X42083000Y7031500D01*
X41737000Y7031500D01*
X41717000Y7031500D01*
X41717000Y7377500D01*
X41737000Y7377500D01*
X41737000Y7397500D01*
X42083000Y7397500D01*
X42083000Y7377500D01*
X43155250Y7377500D01*
X43192750Y7415000D01*
X43769000Y7415000D01*
X43769000Y7435000D01*
X44115000Y7435000D01*
X44115000Y7415000D01*
X44522750Y7415000D01*
X44572750Y7365000D01*
X45420000Y7365000D01*
X45420000Y7385000D01*
X45766000Y7385000D01*
X45766000Y7365000D01*
X45786000Y7365000D01*
X45786000Y7019000D01*
X45766000Y7019000D01*
X45766000Y6159250D01*
X45947750Y5977500D01*
X45962271Y5977075D01*
X45978629Y5923151D01*
X46062386Y5766452D01*
X46175104Y5629104D01*
X46209523Y5600857D01*
X46704479Y5105901D01*
X46519849Y5029425D01*
X46343453Y4911560D01*
X46193440Y4761547D01*
X46075575Y4585151D01*
X45994389Y4389149D01*
X45979351Y4313548D01*
X45966911Y4354557D01*
X45899404Y4480854D01*
X45808554Y4591554D01*
X45697854Y4682404D01*
X45571557Y4749911D01*
X45434517Y4791481D01*
X45292000Y4805518D01*
X44884750Y4802000D01*
X44703000Y4620250D01*
X44703000Y3348000D01*
X45837250Y3348000D01*
X46019000Y3529750D01*
X46020091Y3698801D01*
X46075575Y3564849D01*
X46193440Y3388453D01*
X46343453Y3238440D01*
X46438397Y3175000D01*
X46343453Y3111560D01*
X46193440Y2961547D01*
X46075575Y2785151D01*
X46020091Y2651199D01*
X46019000Y2820250D01*
X45837250Y3002000D01*
X44703000Y3002000D01*
X44703000Y2982000D01*
X44490905Y2982000D01*
X44490905Y4672000D01*
X44305250Y4672000D01*
X44175250Y4802000D01*
X43768000Y4805518D01*
X43625483Y4791481D01*
X43488443Y4749911D01*
X43362146Y4682404D01*
X43349469Y4672000D01*
X38313095Y4672000D01*
X38313095Y2299000D01*
X32377620Y2299000D01*
X29371143Y5305477D01*
X29368071Y5309220D01*
X29434370Y5363630D01*
X29461055Y5396146D01*
X31173477Y7108567D01*
X31227252Y7028087D01*
X31412087Y6843252D01*
X31629430Y6698028D01*
X31870928Y6597996D01*
X32127302Y6547000D01*
X32388698Y6547000D01*
X32645072Y6597996D01*
X32886570Y6698028D01*
X33103913Y6843252D01*
X33288748Y7028087D01*
X33433972Y7245430D01*
X33534004Y7486928D01*
X33585000Y7743302D01*
X33585000Y7996091D01*
X35093409Y9504500D01*
X36259482Y9504500D01*
X36263000Y9321750D01*
X36444750Y9140000D01*
X37292000Y9140000D01*
X37292000Y10049750D01*
X37110250Y10231500D01*
X36990000Y10235018D01*
X36847483Y10220981D01*
X36710443Y10179411D01*
X36584146Y10111904D01*
X36473446Y10021054D01*
X36382596Y9910354D01*
X36315089Y9784057D01*
X36273519Y9647017D01*
X36259482Y9504500D01*
X35093409Y9504500D01*
X36039910Y10451000D01*
X37629000Y10451000D01*
X37629001Y8774000D01*
G04 #@! TA.AperFunction,Conductor*
D36*
G36*
X37629001Y8774000D02*
G01*
X37292000Y8774000D01*
X37292000Y8794000D01*
X36444750Y8794000D01*
X36263000Y8612250D01*
X36259482Y8429500D01*
X36273519Y8286983D01*
X36315089Y8149943D01*
X36382596Y8023646D01*
X36388659Y8016258D01*
X36333169Y7912444D01*
X36278083Y7730851D01*
X36259483Y7542000D01*
X36259483Y6942000D01*
X36278083Y6753149D01*
X36333169Y6571556D01*
X36422623Y6404199D01*
X36543009Y6257509D01*
X36689699Y6137123D01*
X36857056Y6047669D01*
X37038649Y5992583D01*
X37227500Y5973983D01*
X37702500Y5973983D01*
X37891351Y5992583D01*
X38072944Y6047669D01*
X38240301Y6137123D01*
X38375969Y6248464D01*
X38402597Y6198647D01*
X38493446Y6087946D01*
X38604147Y5997097D01*
X38730443Y5929590D01*
X38867483Y5888020D01*
X39010000Y5873983D01*
X40410000Y5873983D01*
X40552517Y5888020D01*
X40689557Y5929590D01*
X40809999Y5993968D01*
X40930443Y5929589D01*
X41067483Y5888019D01*
X41210000Y5873982D01*
X41555250Y5877500D01*
X41737000Y6059250D01*
X41737000Y7031500D01*
X42083000Y7031500D01*
X42083000Y6059250D01*
X42264750Y5877500D01*
X42610000Y5873982D01*
X42752517Y5888019D01*
X42889557Y5929589D01*
X43015854Y5997096D01*
X43107508Y6072315D01*
X43187443Y6029589D01*
X43324483Y5988019D01*
X43467000Y5973982D01*
X43587250Y5977500D01*
X43769000Y6159250D01*
X43769000Y7069000D01*
X44115000Y7069000D01*
X44115000Y6159250D01*
X44296750Y5977500D01*
X44417000Y5973982D01*
X44559517Y5988019D01*
X44696557Y6029589D01*
X44767500Y6067509D01*
X44838443Y6029589D01*
X44975483Y5988019D01*
X45118000Y5973982D01*
X45238250Y5977500D01*
X45420000Y6159250D01*
X45420000Y7019000D01*
X45012250Y7019000D01*
X44962250Y7069000D01*
X44115000Y7069000D01*
X43769000Y7069000D01*
X42921750Y7069000D01*
X42884250Y7031500D01*
X42083000Y7031500D01*
X41737000Y7031500D01*
X41717000Y7031500D01*
X41717000Y7377500D01*
X41737000Y7377500D01*
X41737000Y7397500D01*
X42083000Y7397500D01*
X42083000Y7377500D01*
X43155250Y7377500D01*
X43192750Y7415000D01*
X43769000Y7415000D01*
X43769000Y7435000D01*
X44115000Y7435000D01*
X44115000Y7415000D01*
X44522750Y7415000D01*
X44572750Y7365000D01*
X45420000Y7365000D01*
X45420000Y7385000D01*
X45766000Y7385000D01*
X45766000Y7365000D01*
X45786000Y7365000D01*
X45786000Y7019000D01*
X45766000Y7019000D01*
X45766000Y6159250D01*
X45947750Y5977500D01*
X45962271Y5977075D01*
X45978629Y5923151D01*
X46062386Y5766452D01*
X46175104Y5629104D01*
X46209523Y5600857D01*
X46704479Y5105901D01*
X46519849Y5029425D01*
X46343453Y4911560D01*
X46193440Y4761547D01*
X46075575Y4585151D01*
X45994389Y4389149D01*
X45979351Y4313548D01*
X45966911Y4354557D01*
X45899404Y4480854D01*
X45808554Y4591554D01*
X45697854Y4682404D01*
X45571557Y4749911D01*
X45434517Y4791481D01*
X45292000Y4805518D01*
X44884750Y4802000D01*
X44703000Y4620250D01*
X44703000Y3348000D01*
X45837250Y3348000D01*
X46019000Y3529750D01*
X46020091Y3698801D01*
X46075575Y3564849D01*
X46193440Y3388453D01*
X46343453Y3238440D01*
X46438397Y3175000D01*
X46343453Y3111560D01*
X46193440Y2961547D01*
X46075575Y2785151D01*
X46020091Y2651199D01*
X46019000Y2820250D01*
X45837250Y3002000D01*
X44703000Y3002000D01*
X44703000Y2982000D01*
X44490905Y2982000D01*
X44490905Y4672000D01*
X44305250Y4672000D01*
X44175250Y4802000D01*
X43768000Y4805518D01*
X43625483Y4791481D01*
X43488443Y4749911D01*
X43362146Y4682404D01*
X43349469Y4672000D01*
X38313095Y4672000D01*
X38313095Y2299000D01*
X32377620Y2299000D01*
X29371143Y5305477D01*
X29368071Y5309220D01*
X29434370Y5363630D01*
X29461055Y5396146D01*
X31173477Y7108567D01*
X31227252Y7028087D01*
X31412087Y6843252D01*
X31629430Y6698028D01*
X31870928Y6597996D01*
X32127302Y6547000D01*
X32388698Y6547000D01*
X32645072Y6597996D01*
X32886570Y6698028D01*
X33103913Y6843252D01*
X33288748Y7028087D01*
X33433972Y7245430D01*
X33534004Y7486928D01*
X33585000Y7743302D01*
X33585000Y7996091D01*
X35093409Y9504500D01*
X36259482Y9504500D01*
X36263000Y9321750D01*
X36444750Y9140000D01*
X37292000Y9140000D01*
X37292000Y10049750D01*
X37110250Y10231500D01*
X36990000Y10235018D01*
X36847483Y10220981D01*
X36710443Y10179411D01*
X36584146Y10111904D01*
X36473446Y10021054D01*
X36382596Y9910354D01*
X36315089Y9784057D01*
X36273519Y9647017D01*
X36259482Y9504500D01*
X35093409Y9504500D01*
X36039910Y10451000D01*
X37629000Y10451000D01*
X37629001Y8774000D01*
G37*
G04 #@! TD.AperFunction*
D35*
X40046001Y10212751D02*
X39883000Y10049750D01*
X39883000Y9077500D01*
X39903000Y9077500D01*
X39903000Y8731500D01*
X39883000Y8731500D01*
X39883000Y8711500D01*
X39537000Y8711500D01*
X39537000Y8731500D01*
X39517000Y8731500D01*
X39517000Y9077500D01*
X39537000Y9077500D01*
X39537000Y10049750D01*
X39365830Y10220920D01*
X40046001Y10901091D01*
X40046001Y10212751D01*
G04 #@! TA.AperFunction,Conductor*
D36*
G36*
X40046001Y10212751D02*
G01*
X39883000Y10049750D01*
X39883000Y9077500D01*
X39903000Y9077500D01*
X39903000Y8731500D01*
X39883000Y8731500D01*
X39883000Y8711500D01*
X39537000Y8711500D01*
X39537000Y8731500D01*
X39517000Y8731500D01*
X39517000Y9077500D01*
X39537000Y9077500D01*
X39537000Y10049750D01*
X39365830Y10220920D01*
X40046001Y10901091D01*
X40046001Y10212751D01*
G37*
G04 #@! TD.AperFunction*
D35*
X35553996Y17138928D02*
X35654028Y16897430D01*
X35799252Y16680087D01*
X35928001Y16551338D01*
X35928001Y15994621D01*
X29852380Y9919000D01*
X28660661Y9919000D01*
X28531913Y10047748D01*
X28314570Y10192972D01*
X28073072Y10293004D01*
X27816698Y10344000D01*
X27555302Y10344000D01*
X27298928Y10293004D01*
X27057430Y10192972D01*
X26840087Y10047748D01*
X26655252Y9862913D01*
X26510028Y9645570D01*
X26409996Y9404072D01*
X26359000Y9147698D01*
X26359000Y8886302D01*
X26390886Y8726000D01*
X25780431Y8726000D01*
X25722991Y8795991D01*
X25576301Y8916377D01*
X25408944Y9005831D01*
X25227351Y9060917D01*
X25038500Y9079517D01*
X24538500Y9079517D01*
X24349649Y9060917D01*
X24168056Y9005831D01*
X24000699Y8916377D01*
X23876000Y8814039D01*
X23751301Y8916377D01*
X23583944Y9005831D01*
X23402351Y9060917D01*
X23213500Y9079517D01*
X22713500Y9079517D01*
X22524649Y9060917D01*
X22343056Y9005831D01*
X22175699Y8916377D01*
X22029009Y8795991D01*
X22012805Y8776246D01*
X21971000Y8780364D01*
X21926693Y8776000D01*
X21794177Y8762948D01*
X21686469Y8730275D01*
X21622972Y8883570D01*
X21477748Y9100913D01*
X21292913Y9285748D01*
X21265660Y9303958D01*
X21263276Y9308418D01*
X21141186Y9457186D01*
X21103897Y9487788D01*
X20536784Y10054901D01*
X20506186Y10092186D01*
X20410073Y10171063D01*
X20408877Y10173301D01*
X20288491Y10319991D01*
X20206000Y10387690D01*
X20206000Y10421380D01*
X21411621Y11627000D01*
X21593698Y11627000D01*
X21850072Y11677996D01*
X22091570Y11778028D01*
X22308913Y11923252D01*
X22493748Y12108087D01*
X22638972Y12325430D01*
X22739004Y12566928D01*
X22790000Y12823302D01*
X22790000Y13084698D01*
X22739004Y13341072D01*
X22638972Y13582570D01*
X22500717Y13789483D01*
X22715000Y13789483D01*
X22857517Y13803520D01*
X22994557Y13845090D01*
X23088000Y13895037D01*
X23088000Y13796998D01*
X23269748Y13796998D01*
X23088000Y13615250D01*
X23084482Y13570000D01*
X23098519Y13427483D01*
X23140089Y13290443D01*
X23207596Y13164146D01*
X23298446Y13053446D01*
X23409146Y12962596D01*
X23535443Y12895089D01*
X23672483Y12853519D01*
X23815000Y12839482D01*
X24410250Y12843000D01*
X24592000Y13024750D01*
X24592000Y13797000D01*
X24938000Y13797000D01*
X24938000Y13024750D01*
X25119750Y12843000D01*
X25715000Y12839482D01*
X25857517Y12853519D01*
X25934982Y12877017D01*
X25972596Y12806646D01*
X26063446Y12695946D01*
X26174146Y12605096D01*
X26300443Y12537589D01*
X26437483Y12496019D01*
X26580000Y12481982D01*
X26950250Y12485500D01*
X27132000Y12667250D01*
X27132000Y13627000D01*
X27478000Y13627000D01*
X27478000Y12667250D01*
X27659750Y12485500D01*
X28030000Y12481982D01*
X28172517Y12496019D01*
X28309557Y12537589D01*
X28435854Y12605096D01*
X28546554Y12695946D01*
X28637404Y12806646D01*
X28704911Y12932943D01*
X28746481Y13069983D01*
X28760518Y13212500D01*
X28757000Y13445250D01*
X28575250Y13627000D01*
X27478000Y13627000D01*
X27132000Y13627000D01*
X26430250Y13627000D01*
X26260250Y13797000D01*
X24938000Y13797000D01*
X24592000Y13797000D01*
X24572000Y13797000D01*
X24572000Y14143000D01*
X24592000Y14143000D01*
X24592000Y14163000D01*
X24938000Y14163000D01*
X24938000Y14143000D01*
X25864750Y14143000D01*
X26034750Y13973000D01*
X27132000Y13973000D01*
X27132000Y13993000D01*
X27478000Y13993000D01*
X27478000Y13973000D01*
X28575250Y13973000D01*
X28757000Y14154750D01*
X28760518Y14387500D01*
X28746481Y14530017D01*
X28704911Y14667057D01*
X28637404Y14793354D01*
X28551522Y14898000D01*
X29162007Y14898000D01*
X29210000Y14893273D01*
X29401525Y14912137D01*
X29468244Y14932376D01*
X29585691Y14968003D01*
X29755418Y15058724D01*
X29904186Y15180814D01*
X29934784Y15218098D01*
X31138687Y16422000D01*
X34189007Y16422000D01*
X34237000Y16417273D01*
X34428525Y16436137D01*
X34612691Y16492003D01*
X34782418Y16582724D01*
X34931186Y16704814D01*
X34961784Y16742098D01*
X35521580Y17301894D01*
X35553996Y17138928D01*
G04 #@! TA.AperFunction,Conductor*
D36*
G36*
X35553996Y17138928D02*
G01*
X35654028Y16897430D01*
X35799252Y16680087D01*
X35928001Y16551338D01*
X35928001Y15994621D01*
X29852380Y9919000D01*
X28660661Y9919000D01*
X28531913Y10047748D01*
X28314570Y10192972D01*
X28073072Y10293004D01*
X27816698Y10344000D01*
X27555302Y10344000D01*
X27298928Y10293004D01*
X27057430Y10192972D01*
X26840087Y10047748D01*
X26655252Y9862913D01*
X26510028Y9645570D01*
X26409996Y9404072D01*
X26359000Y9147698D01*
X26359000Y8886302D01*
X26390886Y8726000D01*
X25780431Y8726000D01*
X25722991Y8795991D01*
X25576301Y8916377D01*
X25408944Y9005831D01*
X25227351Y9060917D01*
X25038500Y9079517D01*
X24538500Y9079517D01*
X24349649Y9060917D01*
X24168056Y9005831D01*
X24000699Y8916377D01*
X23876000Y8814039D01*
X23751301Y8916377D01*
X23583944Y9005831D01*
X23402351Y9060917D01*
X23213500Y9079517D01*
X22713500Y9079517D01*
X22524649Y9060917D01*
X22343056Y9005831D01*
X22175699Y8916377D01*
X22029009Y8795991D01*
X22012805Y8776246D01*
X21971000Y8780364D01*
X21926693Y8776000D01*
X21794177Y8762948D01*
X21686469Y8730275D01*
X21622972Y8883570D01*
X21477748Y9100913D01*
X21292913Y9285748D01*
X21265660Y9303958D01*
X21263276Y9308418D01*
X21141186Y9457186D01*
X21103897Y9487788D01*
X20536784Y10054901D01*
X20506186Y10092186D01*
X20410073Y10171063D01*
X20408877Y10173301D01*
X20288491Y10319991D01*
X20206000Y10387690D01*
X20206000Y10421380D01*
X21411621Y11627000D01*
X21593698Y11627000D01*
X21850072Y11677996D01*
X22091570Y11778028D01*
X22308913Y11923252D01*
X22493748Y12108087D01*
X22638972Y12325430D01*
X22739004Y12566928D01*
X22790000Y12823302D01*
X22790000Y13084698D01*
X22739004Y13341072D01*
X22638972Y13582570D01*
X22500717Y13789483D01*
X22715000Y13789483D01*
X22857517Y13803520D01*
X22994557Y13845090D01*
X23088000Y13895037D01*
X23088000Y13796998D01*
X23269748Y13796998D01*
X23088000Y13615250D01*
X23084482Y13570000D01*
X23098519Y13427483D01*
X23140089Y13290443D01*
X23207596Y13164146D01*
X23298446Y13053446D01*
X23409146Y12962596D01*
X23535443Y12895089D01*
X23672483Y12853519D01*
X23815000Y12839482D01*
X24410250Y12843000D01*
X24592000Y13024750D01*
X24592000Y13797000D01*
X24938000Y13797000D01*
X24938000Y13024750D01*
X25119750Y12843000D01*
X25715000Y12839482D01*
X25857517Y12853519D01*
X25934982Y12877017D01*
X25972596Y12806646D01*
X26063446Y12695946D01*
X26174146Y12605096D01*
X26300443Y12537589D01*
X26437483Y12496019D01*
X26580000Y12481982D01*
X26950250Y12485500D01*
X27132000Y12667250D01*
X27132000Y13627000D01*
X27478000Y13627000D01*
X27478000Y12667250D01*
X27659750Y12485500D01*
X28030000Y12481982D01*
X28172517Y12496019D01*
X28309557Y12537589D01*
X28435854Y12605096D01*
X28546554Y12695946D01*
X28637404Y12806646D01*
X28704911Y12932943D01*
X28746481Y13069983D01*
X28760518Y13212500D01*
X28757000Y13445250D01*
X28575250Y13627000D01*
X27478000Y13627000D01*
X27132000Y13627000D01*
X26430250Y13627000D01*
X26260250Y13797000D01*
X24938000Y13797000D01*
X24592000Y13797000D01*
X24572000Y13797000D01*
X24572000Y14143000D01*
X24592000Y14143000D01*
X24592000Y14163000D01*
X24938000Y14163000D01*
X24938000Y14143000D01*
X25864750Y14143000D01*
X26034750Y13973000D01*
X27132000Y13973000D01*
X27132000Y13993000D01*
X27478000Y13993000D01*
X27478000Y13973000D01*
X28575250Y13973000D01*
X28757000Y14154750D01*
X28760518Y14387500D01*
X28746481Y14530017D01*
X28704911Y14667057D01*
X28637404Y14793354D01*
X28551522Y14898000D01*
X29162007Y14898000D01*
X29210000Y14893273D01*
X29401525Y14912137D01*
X29468244Y14932376D01*
X29585691Y14968003D01*
X29755418Y15058724D01*
X29904186Y15180814D01*
X29934784Y15218098D01*
X31138687Y16422000D01*
X34189007Y16422000D01*
X34237000Y16417273D01*
X34428525Y16436137D01*
X34612691Y16492003D01*
X34782418Y16582724D01*
X34931186Y16704814D01*
X34961784Y16742098D01*
X35521580Y17301894D01*
X35553996Y17138928D01*
G37*
G04 #@! TD.AperFunction*
D35*
X56388000Y25488821D02*
X56371142Y25468731D01*
X56369912Y25466494D01*
X56368290Y25464533D01*
X56335752Y25404355D01*
X56302789Y25344396D01*
X56302019Y25341970D01*
X56300805Y25339724D01*
X56280553Y25274300D01*
X56259887Y25209152D01*
X56259603Y25206620D01*
X56258849Y25204184D01*
X56251698Y25136151D01*
X56244071Y25068151D01*
X56244037Y25063253D01*
X56244018Y25063075D01*
X56244034Y25062896D01*
X56244000Y25058000D01*
X56244000Y24558000D01*
X56250674Y24489933D01*
X56256877Y24421774D01*
X56257598Y24419326D01*
X56257846Y24416792D01*
X56277601Y24351360D01*
X56296937Y24285661D01*
X56298119Y24283400D01*
X56298855Y24280962D01*
X56330973Y24220557D01*
X56362672Y24159922D01*
X56364268Y24157937D01*
X56365466Y24155684D01*
X56388000Y24128055D01*
X56388000Y14188517D01*
X56011000Y14188517D01*
X55868483Y14174480D01*
X55805469Y14155365D01*
X55754331Y14323944D01*
X55664877Y14491301D01*
X55544491Y14637991D01*
X55397801Y14758377D01*
X55230444Y14847831D01*
X55048851Y14902917D01*
X54860000Y14921517D01*
X54360000Y14921517D01*
X54171149Y14902917D01*
X53989556Y14847831D01*
X53822199Y14758377D01*
X53697500Y14656039D01*
X53572801Y14758377D01*
X53405444Y14847831D01*
X53223851Y14902917D01*
X53035000Y14921517D01*
X52535000Y14921517D01*
X52346149Y14902917D01*
X52164556Y14847831D01*
X51997199Y14758377D01*
X51850509Y14637991D01*
X51801764Y14578596D01*
X51661944Y14653331D01*
X51480351Y14708417D01*
X51291500Y14727017D01*
X50816500Y14727017D01*
X50627649Y14708417D01*
X50607579Y14702329D01*
X50629913Y14717252D01*
X50814748Y14902087D01*
X50959972Y15119430D01*
X51060004Y15360928D01*
X51061607Y15368987D01*
X51533482Y15840861D01*
X51567896Y15869104D01*
X51605579Y15915020D01*
X51680614Y16006451D01*
X51697547Y16038130D01*
X51764371Y16163150D01*
X51815948Y16333177D01*
X51819590Y16370151D01*
X51833364Y16510000D01*
X51829000Y16554307D01*
X51829000Y17989701D01*
X51833363Y18034001D01*
X51829000Y18078301D01*
X51829000Y18078307D01*
X51815948Y18210823D01*
X51815846Y18211161D01*
X51789993Y18296386D01*
X51764371Y18380850D01*
X51680614Y18537549D01*
X51567896Y18674896D01*
X51533473Y18703146D01*
X51504120Y18732499D01*
X51787482Y19015861D01*
X51821896Y19044104D01*
X51859579Y19090020D01*
X51934614Y19181451D01*
X51943120Y19197364D01*
X52018371Y19338150D01*
X52069948Y19508177D01*
X52083000Y19640693D01*
X52087364Y19685000D01*
X52083000Y19729307D01*
X52083000Y21418693D01*
X52087364Y21463000D01*
X52069948Y21639823D01*
X52055320Y21688046D01*
X52018371Y21809850D01*
X51934614Y21966549D01*
X51887156Y22024377D01*
X51850140Y22069481D01*
X51850138Y22069483D01*
X51821896Y22103896D01*
X51787483Y22132138D01*
X51088143Y22831477D01*
X51059896Y22865896D01*
X50922549Y22978614D01*
X50765850Y23062371D01*
X50595823Y23113948D01*
X50463307Y23127000D01*
X50463299Y23127000D01*
X50419000Y23131363D01*
X50374701Y23127000D01*
X44494299Y23127000D01*
X44449999Y23131363D01*
X44405700Y23127000D01*
X44405693Y23127000D01*
X44273177Y23113948D01*
X44103150Y23062371D01*
X43946451Y22978614D01*
X43859926Y22907605D01*
X43858917Y22917851D01*
X43803831Y23099444D01*
X43714377Y23266801D01*
X43675365Y23314337D01*
X43754404Y23410646D01*
X43821911Y23536943D01*
X43863481Y23673983D01*
X43877518Y23816500D01*
X43874000Y23949250D01*
X43692250Y24131000D01*
X42845000Y24131000D01*
X42845000Y24111000D01*
X42499000Y24111000D01*
X42499000Y24131000D01*
X42479000Y24131000D01*
X42479000Y24477000D01*
X42499000Y24477000D01*
X42499000Y25336750D01*
X42845000Y25336750D01*
X42845000Y24477000D01*
X43692250Y24477000D01*
X43874000Y24658750D01*
X43877518Y24791500D01*
X43863481Y24934017D01*
X43821911Y25071057D01*
X43754404Y25197354D01*
X43663554Y25308054D01*
X43552854Y25398904D01*
X43426557Y25466411D01*
X43289517Y25507981D01*
X43147000Y25522018D01*
X43026750Y25518500D01*
X42845000Y25336750D01*
X42499000Y25336750D01*
X42317250Y25518500D01*
X42197000Y25522018D01*
X42114266Y25513869D01*
X42101860Y25524050D01*
X41686915Y25938995D01*
X41734590Y25997088D01*
X41821734Y26160123D01*
X41875397Y26337027D01*
X41893517Y26521000D01*
X41893517Y26946000D01*
X41875397Y27129973D01*
X41821734Y27306877D01*
X41734590Y27469912D01*
X41672147Y27546000D01*
X43262701Y27546000D01*
X43307000Y27541637D01*
X43351299Y27546000D01*
X43351307Y27546000D01*
X43483823Y27559052D01*
X43653850Y27610629D01*
X43810549Y27694386D01*
X43947896Y27807104D01*
X43976143Y27841523D01*
X45136478Y29001858D01*
X45170896Y29030104D01*
X45283614Y29167451D01*
X45367371Y29324150D01*
X45418948Y29494177D01*
X45432000Y29626693D01*
X45432000Y29626700D01*
X45436363Y29670999D01*
X45432000Y29715299D01*
X45432000Y30255213D01*
X45528526Y30306807D01*
X45696961Y30445039D01*
X45835193Y30613474D01*
X45937908Y30805641D01*
X45953000Y30855392D01*
X45953000Y30743925D01*
X45994389Y30535851D01*
X46075575Y30339849D01*
X46193440Y30163453D01*
X46343453Y30013440D01*
X46519849Y29895575D01*
X46715851Y29814389D01*
X46923925Y29773000D01*
X47136075Y29773000D01*
X47344149Y29814389D01*
X47540151Y29895575D01*
X47716547Y30013440D01*
X47866560Y30163453D01*
X47984425Y30339849D01*
X48065611Y30535851D01*
X48080649Y30611452D01*
X48093089Y30570443D01*
X48160596Y30444146D01*
X48251446Y30333446D01*
X48362146Y30242596D01*
X48488443Y30175089D01*
X48625483Y30133519D01*
X48768000Y30119482D01*
X49175250Y30123000D01*
X49357000Y30304750D01*
X49357000Y31577000D01*
X49703000Y31577000D01*
X49703000Y30304750D01*
X49884750Y30123000D01*
X50292000Y30119482D01*
X50434517Y30133519D01*
X50571557Y30175089D01*
X50697854Y30242596D01*
X50808554Y30333446D01*
X50899404Y30444146D01*
X50966911Y30570443D01*
X51008481Y30707483D01*
X51022518Y30850000D01*
X51019000Y31395250D01*
X50837250Y31577000D01*
X49703000Y31577000D01*
X49357000Y31577000D01*
X48222750Y31577000D01*
X48041000Y31395250D01*
X48039909Y31226199D01*
X47984425Y31360151D01*
X47866560Y31536547D01*
X47716547Y31686560D01*
X47621603Y31750000D01*
X47716547Y31813440D01*
X47866560Y31963453D01*
X47984425Y32139849D01*
X48039909Y32273801D01*
X48041000Y32104750D01*
X48222750Y31923000D01*
X49357000Y31923000D01*
X49357000Y33195250D01*
X49703000Y33195250D01*
X49703000Y31923000D01*
X50837250Y31923000D01*
X51019000Y32104750D01*
X51022518Y32650000D01*
X51008481Y32792517D01*
X50966911Y32929557D01*
X50899404Y33055854D01*
X50808554Y33166554D01*
X50697854Y33257404D01*
X50571557Y33324911D01*
X50434517Y33366481D01*
X50292000Y33380518D01*
X49884750Y33377000D01*
X49703000Y33195250D01*
X49357000Y33195250D01*
X49175250Y33377000D01*
X48768000Y33380518D01*
X48625483Y33366481D01*
X48488443Y33324911D01*
X48362146Y33257404D01*
X48251446Y33166554D01*
X48160596Y33055854D01*
X48093089Y32929557D01*
X48080649Y32888548D01*
X48065611Y32964149D01*
X47984425Y33160151D01*
X47866560Y33336547D01*
X47716547Y33486560D01*
X47540151Y33604425D01*
X47344149Y33685611D01*
X47136075Y33727000D01*
X46923925Y33727000D01*
X46715851Y33685611D01*
X46519849Y33604425D01*
X46343453Y33486560D01*
X46193440Y33336547D01*
X46075575Y33160151D01*
X45994389Y32964149D01*
X45953000Y32756075D01*
X45953000Y32644608D01*
X45937908Y32694359D01*
X45835193Y32886526D01*
X45696961Y33054961D01*
X45528526Y33193193D01*
X45336359Y33295908D01*
X45127846Y33359160D01*
X44911000Y33380517D01*
X44149000Y33380517D01*
X43932154Y33359160D01*
X43723641Y33295908D01*
X43632140Y33247000D01*
X38440095Y33247000D01*
X38440095Y30093000D01*
X43628000Y30093000D01*
X43628000Y30044620D01*
X42933380Y29350000D01*
X36788661Y29350000D01*
X36659913Y29478748D01*
X36442570Y29623972D01*
X36201072Y29724004D01*
X35944698Y29775000D01*
X35683302Y29775000D01*
X35426928Y29724004D01*
X35185430Y29623972D01*
X34968087Y29478748D01*
X34783252Y29293913D01*
X34638028Y29076570D01*
X34537996Y28835072D01*
X34487000Y28578698D01*
X34487000Y28317302D01*
X34537996Y28060928D01*
X34638028Y27819430D01*
X34638463Y27818779D01*
X34558199Y27775877D01*
X34411509Y27655491D01*
X34291123Y27508801D01*
X34201669Y27341444D01*
X34146583Y27159851D01*
X34127983Y26971000D01*
X34127983Y26496000D01*
X34146583Y26307149D01*
X34201669Y26125556D01*
X34287488Y25965000D01*
X34286302Y25965000D01*
X34029928Y25914004D01*
X33788430Y25813972D01*
X33571087Y25668748D01*
X33442339Y25540000D01*
X32937299Y25540000D01*
X32892999Y25544363D01*
X32848699Y25540000D01*
X32848693Y25540000D01*
X32734255Y25528729D01*
X32716176Y25526948D01*
X32653651Y25507981D01*
X32546150Y25475371D01*
X32389451Y25391614D01*
X32252104Y25278896D01*
X32223857Y25244477D01*
X30881897Y23902517D01*
X29685000Y23902517D01*
X29542483Y23888480D01*
X29405443Y23846910D01*
X29279147Y23779403D01*
X29168446Y23688554D01*
X29115000Y23623429D01*
X29061554Y23688554D01*
X28950853Y23779403D01*
X28824557Y23846910D01*
X28687517Y23888480D01*
X28545000Y23902517D01*
X26985000Y23902517D01*
X26847763Y23889000D01*
X26460307Y23889000D01*
X26416000Y23893364D01*
X26371693Y23889000D01*
X26239177Y23875948D01*
X26069150Y23824371D01*
X25928140Y23749000D01*
X25912451Y23740614D01*
X25844046Y23684475D01*
X25775104Y23627896D01*
X25746861Y23593482D01*
X24158523Y22005143D01*
X24124104Y21976896D01*
X24011386Y21839548D01*
X23927629Y21682849D01*
X23876052Y21512822D01*
X23863000Y21380306D01*
X23863000Y21380299D01*
X23858637Y21336000D01*
X23863000Y21291700D01*
X23863001Y20566621D01*
X23502380Y20206000D01*
X20278661Y20206000D01*
X20149913Y20334748D01*
X19932570Y20479972D01*
X19691072Y20580004D01*
X19434698Y20631000D01*
X19173302Y20631000D01*
X18916928Y20580004D01*
X18675430Y20479972D01*
X18458087Y20334748D01*
X18273252Y20149913D01*
X18128028Y19932570D01*
X18027996Y19691072D01*
X17977000Y19434698D01*
X17977000Y19173302D01*
X17984022Y19138000D01*
X17728618Y19138000D01*
X17705770Y19180746D01*
X17604618Y19304000D01*
X17705770Y19427254D01*
X17796380Y19596772D01*
X17852177Y19780711D01*
X17871017Y19972000D01*
X17871017Y20922000D01*
X17852177Y21113289D01*
X17816699Y21230244D01*
X17837000Y21332302D01*
X17837000Y21399430D01*
X17843185Y21401306D01*
X17870340Y21311789D01*
X17937522Y21186100D01*
X18027933Y21075933D01*
X18138100Y20985522D01*
X18263789Y20918340D01*
X18400169Y20876969D01*
X18542000Y20863000D01*
X20193000Y20863000D01*
X20334831Y20876969D01*
X20471211Y20918340D01*
X20596900Y20985522D01*
X20707067Y21075933D01*
X20797478Y21186100D01*
X20864660Y21311789D01*
X20906031Y21448169D01*
X20908576Y21474013D01*
X20941480Y21582483D01*
X20955517Y21725000D01*
X20994482Y21725000D01*
X21008519Y21582483D01*
X21050089Y21445443D01*
X21117596Y21319146D01*
X21208446Y21208446D01*
X21319146Y21117596D01*
X21445443Y21050089D01*
X21582483Y21008519D01*
X21725000Y20994482D01*
X21870250Y20998000D01*
X22052000Y21179750D01*
X22052000Y22052000D01*
X22398000Y22052000D01*
X22398000Y21179750D01*
X22579750Y20998000D01*
X22725000Y20994482D01*
X22867517Y21008519D01*
X23004557Y21050089D01*
X23130854Y21117596D01*
X23241554Y21208446D01*
X23332404Y21319146D01*
X23399911Y21445443D01*
X23441481Y21582483D01*
X23455518Y21725000D01*
X23452000Y21870250D01*
X23270250Y22052000D01*
X22398000Y22052000D01*
X22052000Y22052000D01*
X21179750Y22052000D01*
X20998000Y21870250D01*
X20994482Y21725000D01*
X20955517Y21725000D01*
X20955517Y22725000D01*
X20941480Y22867517D01*
X20920000Y22938328D01*
X20920000Y23078470D01*
X20947649Y23070083D01*
X21078239Y23057221D01*
X21050089Y23004557D01*
X21008519Y22867517D01*
X20994482Y22725000D01*
X20998000Y22579750D01*
X21179750Y22398000D01*
X22052000Y22398000D01*
X22052000Y22418000D01*
X22398000Y22418000D01*
X22398000Y22398000D01*
X23270250Y22398000D01*
X23452000Y22579750D01*
X23455518Y22725000D01*
X23441481Y22867517D01*
X23399911Y23004557D01*
X23332404Y23130854D01*
X23241554Y23241554D01*
X23130854Y23332404D01*
X23004557Y23399911D01*
X22867517Y23441481D01*
X22725000Y23455518D01*
X22579750Y23452000D01*
X22398002Y23270252D01*
X22398002Y23316142D01*
X22420991Y23335009D01*
X22541377Y23481699D01*
X22630831Y23649056D01*
X22685917Y23830649D01*
X22687401Y23845715D01*
X22828902Y23987216D01*
X22866186Y24017814D01*
X22988276Y24166582D01*
X23078997Y24336309D01*
X23134863Y24520475D01*
X23149000Y24664007D01*
X23149000Y24664009D01*
X23153727Y24711999D01*
X23149000Y24759990D01*
X23149000Y25569047D01*
X23231557Y25594090D01*
X23357853Y25661597D01*
X23468554Y25752446D01*
X23559403Y25863147D01*
X23562951Y25869784D01*
X23573519Y25762483D01*
X23615089Y25625443D01*
X23682596Y25499146D01*
X23773446Y25388446D01*
X23884146Y25297596D01*
X24010443Y25230089D01*
X24147483Y25188519D01*
X24290000Y25174482D01*
X24410250Y25178000D01*
X24592000Y25359750D01*
X24592000Y26219500D01*
X24938000Y26219500D01*
X24938000Y25359750D01*
X25119750Y25178000D01*
X25240000Y25174482D01*
X25382517Y25188519D01*
X25519557Y25230089D01*
X25645854Y25297596D01*
X25756554Y25388446D01*
X25847404Y25499146D01*
X25914911Y25625443D01*
X25956481Y25762483D01*
X25970518Y25905000D01*
X25967000Y26037750D01*
X25785250Y26219500D01*
X24938000Y26219500D01*
X24592000Y26219500D01*
X24572000Y26219500D01*
X24572000Y26565500D01*
X24592000Y26565500D01*
X24592000Y26585500D01*
X24938000Y26585500D01*
X24938000Y26565500D01*
X25785250Y26565500D01*
X25967000Y26747250D01*
X25970518Y26880000D01*
X25956481Y27022517D01*
X25914911Y27159557D01*
X25847404Y27285854D01*
X25768365Y27382163D01*
X25807377Y27429699D01*
X25896831Y27597056D01*
X25951917Y27778649D01*
X25970517Y27967500D01*
X25970517Y28467500D01*
X25951917Y28656351D01*
X25896831Y28837944D01*
X25807377Y29005301D01*
X25686991Y29151991D01*
X25540301Y29272377D01*
X25372944Y29361831D01*
X25191351Y29416917D01*
X25002500Y29435517D01*
X24750394Y29435517D01*
X24680025Y29456863D01*
X24536493Y29471000D01*
X24488500Y29475727D01*
X24440507Y29471000D01*
X23763111Y29471000D01*
X23773831Y29491056D01*
X23828917Y29672649D01*
X23847517Y29861500D01*
X23847517Y30336500D01*
X23828917Y30525351D01*
X23773831Y30706944D01*
X23684377Y30874301D01*
X23606500Y30969194D01*
X23606500Y31133806D01*
X23684377Y31228699D01*
X23773831Y31396056D01*
X23828917Y31577649D01*
X23847517Y31766500D01*
X23847517Y32241500D01*
X23828917Y32430351D01*
X23773831Y32611944D01*
X23684377Y32779301D01*
X23563991Y32925991D01*
X23417301Y33046377D01*
X23249944Y33135831D01*
X23068351Y33190917D01*
X22879500Y33209517D01*
X22379500Y33209517D01*
X22190649Y33190917D01*
X22009056Y33135831D01*
X21841699Y33046377D01*
X21717000Y32944039D01*
X21592301Y33046377D01*
X21424944Y33135831D01*
X21243351Y33190917D01*
X21054500Y33209517D01*
X20554500Y33209517D01*
X20365649Y33190917D01*
X20184056Y33135831D01*
X20016699Y33046377D01*
X19870009Y32925991D01*
X19749623Y32779301D01*
X19660169Y32611944D01*
X19605083Y32430351D01*
X19586483Y32241500D01*
X19586483Y31873721D01*
X19564072Y31883004D01*
X19307698Y31934000D01*
X19046302Y31934000D01*
X18789928Y31883004D01*
X18548430Y31782972D01*
X18331087Y31637748D01*
X18146252Y31452913D01*
X18001028Y31235570D01*
X17900996Y30994072D01*
X17898120Y30979616D01*
X17879944Y30989331D01*
X17698351Y31044417D01*
X17509500Y31063017D01*
X17034500Y31063017D01*
X16845649Y31044417D01*
X16664056Y30989331D01*
X16496699Y30899877D01*
X16350009Y30779491D01*
X16229623Y30632801D01*
X16140169Y30465444D01*
X16085083Y30283851D01*
X16066483Y30095000D01*
X16066483Y29595000D01*
X16085083Y29406149D01*
X16140169Y29224556D01*
X16229623Y29057199D01*
X16331961Y28932500D01*
X16319241Y28917000D01*
X15851522Y28917000D01*
X15937404Y29021646D01*
X16004911Y29147943D01*
X16046481Y29284983D01*
X16060518Y29427500D01*
X16057000Y29660250D01*
X15875250Y29842000D01*
X14778000Y29842000D01*
X14778000Y29822000D01*
X14432000Y29822000D01*
X14432000Y29842000D01*
X13334750Y29842000D01*
X13153000Y29660250D01*
X13149482Y29427500D01*
X13163519Y29284983D01*
X13205089Y29147943D01*
X13272596Y29021646D01*
X13358478Y28917000D01*
X13104685Y28917000D01*
X12789784Y29231901D01*
X12759186Y29269186D01*
X12610418Y29391276D01*
X12440691Y29481997D01*
X12256525Y29537863D01*
X12112993Y29552000D01*
X12065000Y29556727D01*
X12017007Y29552000D01*
X10066015Y29552000D01*
X10033554Y29591554D01*
X9922853Y29682403D01*
X9796557Y29749910D01*
X9659517Y29791480D01*
X9517000Y29805517D01*
X8517000Y29805517D01*
X8374483Y29791480D01*
X8237443Y29749910D01*
X8111147Y29682403D01*
X8000446Y29591554D01*
X7909597Y29480853D01*
X7842090Y29354557D01*
X7800520Y29217517D01*
X7786483Y29075000D01*
X7786483Y28075000D01*
X7800520Y27932483D01*
X7842090Y27795443D01*
X7909597Y27669147D01*
X8000446Y27558446D01*
X8111147Y27467597D01*
X8237443Y27400090D01*
X8374483Y27358520D01*
X8517000Y27344483D01*
X9517000Y27344483D01*
X9659517Y27358520D01*
X9796557Y27400090D01*
X9922853Y27467597D01*
X10033554Y27558446D01*
X10066015Y27598000D01*
X11660314Y27598000D01*
X11975212Y27283103D01*
X12005814Y27245814D01*
X12154582Y27123724D01*
X12324309Y27033003D01*
X12358877Y27022517D01*
X12508474Y26977137D01*
X12700000Y26958273D01*
X12747993Y26963000D01*
X13119841Y26963000D01*
X13116000Y26924000D01*
X13116000Y24892000D01*
X13129969Y24750169D01*
X13171340Y24613789D01*
X13238522Y24488100D01*
X13328933Y24377933D01*
X13439100Y24287522D01*
X13564789Y24220340D01*
X13643596Y24196434D01*
X13558446Y24126554D01*
X13467597Y24015853D01*
X13400090Y23889557D01*
X13358520Y23752517D01*
X13344483Y23610000D01*
X13344483Y22110000D01*
X13358520Y21967483D01*
X13400090Y21830443D01*
X13444835Y21746732D01*
X13373946Y21688554D01*
X13283096Y21577854D01*
X13215589Y21451557D01*
X13174019Y21314517D01*
X13159982Y21172000D01*
X13163500Y20801750D01*
X13345250Y20620000D01*
X14305000Y20620000D01*
X14305000Y20640000D01*
X14651000Y20640000D01*
X14651000Y20620000D01*
X14671000Y20620000D01*
X14671000Y20274000D01*
X14651000Y20274000D01*
X14651000Y18334000D01*
X14671000Y18334000D01*
X14671000Y17988000D01*
X14651000Y17988000D01*
X14651000Y16890750D01*
X14832750Y16709000D01*
X15065500Y16705482D01*
X15208017Y16719519D01*
X15345057Y16761089D01*
X15471354Y16828596D01*
X15582054Y16919446D01*
X15593862Y16933834D01*
X15670754Y16870730D01*
X15840272Y16780120D01*
X16024211Y16724323D01*
X16215500Y16705483D01*
X16890500Y16705483D01*
X17081789Y16724323D01*
X17265728Y16780120D01*
X17435246Y16870730D01*
X17464002Y16894329D01*
X17500199Y16864623D01*
X17667556Y16775169D01*
X17849149Y16720083D01*
X18038000Y16701483D01*
X18538000Y16701483D01*
X18726851Y16720083D01*
X18908444Y16775169D01*
X19075801Y16864623D01*
X19136000Y16914028D01*
X19136001Y15622003D01*
X19131273Y15574000D01*
X19150137Y15382475D01*
X19206003Y15198310D01*
X19296725Y15028582D01*
X19378760Y14928622D01*
X19385600Y14920286D01*
X16618314Y12153000D01*
X15781015Y12153000D01*
X15748554Y12192554D01*
X15696996Y12234866D01*
X15694863Y12256525D01*
X15638997Y12440691D01*
X15548276Y12610418D01*
X15426186Y12759186D01*
X15388907Y12789780D01*
X13043784Y15134902D01*
X13013186Y15172186D01*
X12864418Y15294276D01*
X12694691Y15384997D01*
X12510525Y15440863D01*
X12366993Y15455000D01*
X12319000Y15459727D01*
X12271007Y15455000D01*
X10945686Y15455000D01*
X10217000Y16183686D01*
X10217000Y16259698D01*
X10166004Y16516072D01*
X10065972Y16757570D01*
X9947131Y16935428D01*
X10059377Y17072199D01*
X10148831Y17239556D01*
X10203917Y17421149D01*
X10205379Y17436000D01*
X13159982Y17436000D01*
X13174019Y17293483D01*
X13215589Y17156443D01*
X13283096Y17030146D01*
X13373946Y16919446D01*
X13484646Y16828596D01*
X13610943Y16761089D01*
X13747983Y16719519D01*
X13890500Y16705482D01*
X14123250Y16709000D01*
X14305000Y16890750D01*
X14305000Y17988000D01*
X13345250Y17988000D01*
X13163500Y17806250D01*
X13159982Y17436000D01*
X10205379Y17436000D01*
X10222517Y17610000D01*
X10222517Y18110000D01*
X10203917Y18298851D01*
X10171569Y18405487D01*
X10410302Y18358000D01*
X10671698Y18358000D01*
X10928072Y18408996D01*
X11169570Y18509028D01*
X11386913Y18654252D01*
X11571748Y18839087D01*
X11716972Y19056430D01*
X11817004Y19297928D01*
X11868000Y19554302D01*
X11868000Y19722000D01*
X13159982Y19722000D01*
X13174019Y19579483D01*
X13215589Y19442443D01*
X13283096Y19316146D01*
X13293064Y19304000D01*
X13283096Y19291854D01*
X13215589Y19165557D01*
X13174019Y19028517D01*
X13159982Y18886000D01*
X13163500Y18515750D01*
X13345250Y18334000D01*
X14305000Y18334000D01*
X14305000Y20274000D01*
X13345250Y20274000D01*
X13163500Y20092250D01*
X13159982Y19722000D01*
X11868000Y19722000D01*
X11868000Y19815698D01*
X11817004Y20072072D01*
X11716972Y20313570D01*
X11571748Y20530913D01*
X11386913Y20715748D01*
X11169570Y20860972D01*
X10928072Y20961004D01*
X10671698Y21012000D01*
X10410302Y21012000D01*
X10153928Y20961004D01*
X9912430Y20860972D01*
X9758354Y20758022D01*
X9649417Y20816250D01*
X9792301Y20892623D01*
X9938991Y21013009D01*
X10059377Y21159699D01*
X10148831Y21327056D01*
X10203917Y21508649D01*
X10222517Y21697500D01*
X10222517Y22272500D01*
X10203917Y22461351D01*
X10148831Y22642944D01*
X10059377Y22810301D01*
X10018590Y22860000D01*
X10059377Y22909699D01*
X10148831Y23077056D01*
X10203917Y23258649D01*
X10222517Y23447500D01*
X10222517Y24022500D01*
X10203917Y24211351D01*
X10148831Y24392944D01*
X10059377Y24560301D01*
X9994000Y24639963D01*
X9994000Y25025985D01*
X10033554Y25058446D01*
X10124403Y25169147D01*
X10191910Y25295443D01*
X10233480Y25432483D01*
X10247517Y25575000D01*
X10247517Y26575000D01*
X10233480Y26717517D01*
X10191910Y26854557D01*
X10124403Y26980853D01*
X10033554Y27091554D01*
X9922853Y27182403D01*
X9796557Y27249910D01*
X9659517Y27291480D01*
X9517000Y27305517D01*
X8517000Y27305517D01*
X8374483Y27291480D01*
X8237443Y27249910D01*
X8111147Y27182403D01*
X8000446Y27091554D01*
X7909597Y26980853D01*
X7842090Y26854557D01*
X7800520Y26717517D01*
X7786483Y26575000D01*
X7786483Y25575000D01*
X7800520Y25432483D01*
X7842090Y25295443D01*
X7909597Y25169147D01*
X8000446Y25058446D01*
X8040001Y25025985D01*
X8040000Y24639963D01*
X7974623Y24560301D01*
X7885169Y24392944D01*
X7830083Y24211351D01*
X7811483Y24022500D01*
X7811483Y23447500D01*
X7830083Y23258649D01*
X7885169Y23077056D01*
X7946668Y22962000D01*
X7391505Y22962000D01*
X7196406Y23157099D01*
X6946306Y23324210D01*
X6668410Y23439319D01*
X6373396Y23498000D01*
X6072604Y23498000D01*
X5777590Y23439319D01*
X5584042Y23359148D01*
X5546391Y23396799D01*
X5437611Y23469483D01*
X5518000Y23469483D01*
X5660517Y23483520D01*
X5797557Y23525090D01*
X5923853Y23592597D01*
X6034554Y23683446D01*
X6125403Y23794147D01*
X6192910Y23920443D01*
X6234480Y24057483D01*
X6248517Y24200000D01*
X6248517Y26600000D01*
X6234480Y26742517D01*
X6192910Y26879557D01*
X6125403Y27005853D01*
X6034554Y27116554D01*
X5923853Y27207403D01*
X5797557Y27274910D01*
X5660517Y27316480D01*
X5518000Y27330517D01*
X3118000Y27330517D01*
X2975483Y27316480D01*
X2838443Y27274910D01*
X2712147Y27207403D01*
X2601446Y27116554D01*
X2510597Y27005853D01*
X2443090Y26879557D01*
X2401520Y26742517D01*
X2387483Y26600000D01*
X2387483Y24200000D01*
X2401520Y24057483D01*
X2443090Y23920443D01*
X2510597Y23794147D01*
X2601446Y23683446D01*
X2712147Y23592597D01*
X2838443Y23525090D01*
X2975483Y23483520D01*
X3118000Y23469483D01*
X3198389Y23469483D01*
X3089609Y23396799D01*
X2821201Y23128391D01*
X2610315Y22812777D01*
X2465053Y22462085D01*
X2391000Y22089793D01*
X2391000Y21710207D01*
X2465053Y21337915D01*
X2610315Y20987223D01*
X2821201Y20671609D01*
X3089609Y20403201D01*
X3405223Y20192315D01*
X3507380Y20150000D01*
X3405223Y20107685D01*
X3089609Y19896799D01*
X2821201Y19628391D01*
X2610315Y19312777D01*
X2465053Y18962085D01*
X2391000Y18589793D01*
X2391000Y18210207D01*
X2465053Y17837915D01*
X2610315Y17487223D01*
X2821201Y17171609D01*
X3089609Y16903201D01*
X3405223Y16692315D01*
X3499111Y16653425D01*
X3488179Y16649500D01*
X3324369Y16561941D01*
X3205704Y16256955D01*
X4318000Y15144659D01*
X5430296Y16256955D01*
X5311631Y16561941D01*
X5126646Y16649182D01*
X5230777Y16692315D01*
X5546391Y16903201D01*
X5607655Y16964465D01*
X5650590Y16946681D01*
X5945604Y16888000D01*
X6246396Y16888000D01*
X6393281Y16917217D01*
X6459474Y16897137D01*
X6651000Y16878273D01*
X6698993Y16883000D01*
X7797838Y16883000D01*
X7714028Y16757570D01*
X7613996Y16516072D01*
X7563000Y16259698D01*
X7563000Y15998302D01*
X7613996Y15741928D01*
X7714028Y15500430D01*
X7859252Y15283087D01*
X8044087Y15098252D01*
X8261430Y14953028D01*
X8502928Y14852996D01*
X8759302Y14802000D01*
X8835314Y14802000D01*
X9816216Y13821098D01*
X9846814Y13783814D01*
X9995582Y13661724D01*
X10165309Y13571003D01*
X10237913Y13548979D01*
X10349474Y13515137D01*
X10541000Y13496273D01*
X10588993Y13501000D01*
X11914314Y13501000D01*
X13125087Y12290227D01*
X13011557Y12350910D01*
X12874517Y12392480D01*
X12732000Y12406517D01*
X11732000Y12406517D01*
X11589483Y12392480D01*
X11452443Y12350910D01*
X11326147Y12283403D01*
X11243106Y12215254D01*
X11239301Y12218377D01*
X11071944Y12307831D01*
X10890351Y12362917D01*
X10701500Y12381517D01*
X10126500Y12381517D01*
X9937649Y12362917D01*
X9756056Y12307831D01*
X9588699Y12218377D01*
X9539000Y12177590D01*
X9489301Y12218377D01*
X9321944Y12307831D01*
X9140351Y12362917D01*
X8951500Y12381517D01*
X8376500Y12381517D01*
X8187649Y12362917D01*
X8006056Y12307831D01*
X7838699Y12218377D01*
X7692009Y12097991D01*
X7571623Y11951301D01*
X7482169Y11783944D01*
X7427083Y11602351D01*
X7408483Y11413500D01*
X7408483Y10938500D01*
X7427083Y10749649D01*
X7482169Y10568056D01*
X7571623Y10400699D01*
X7651583Y10303269D01*
X6710991Y9362677D01*
X6669084Y9500824D01*
X6555149Y9713983D01*
X6401817Y9900817D01*
X6214983Y10054149D01*
X6001824Y10168084D01*
X5770534Y10238245D01*
X5590268Y10256000D01*
X4582697Y10256000D01*
X4552012Y10567551D01*
X4453260Y10893092D01*
X4292896Y11193112D01*
X4077082Y11456082D01*
X3814112Y11671896D01*
X3514092Y11832260D01*
X3188551Y11931012D01*
X2934841Y11956000D01*
X1765159Y11956000D01*
X1511449Y11931012D01*
X1185908Y11832260D01*
X885888Y11671896D01*
X752000Y11562017D01*
X752000Y13543045D01*
X3205704Y13543045D01*
X3324369Y13238059D01*
X3667689Y13076145D01*
X4036002Y12984320D01*
X4415150Y12966115D01*
X4790566Y13022226D01*
X5147821Y13150500D01*
X5311631Y13238059D01*
X5430296Y13543045D01*
X4318000Y14655341D01*
X3205704Y13543045D01*
X752000Y13543045D01*
X752000Y14802850D01*
X2384115Y14802850D01*
X2440226Y14427434D01*
X2568500Y14070179D01*
X2656059Y13906369D01*
X2961045Y13787704D01*
X4073341Y14900000D01*
X4562659Y14900000D01*
X5674955Y13787704D01*
X5979941Y13906369D01*
X6141855Y14249689D01*
X6233680Y14618002D01*
X6251885Y14997150D01*
X6195774Y15372566D01*
X6067500Y15729821D01*
X5979941Y15893631D01*
X5674955Y16012296D01*
X4562659Y14900000D01*
X4073341Y14900000D01*
X2961045Y16012296D01*
X2656059Y15893631D01*
X2494145Y15550311D01*
X2402320Y15181998D01*
X2384115Y14802850D01*
X752000Y14802850D01*
X752000Y32550000D01*
X2279483Y32550000D01*
X2279483Y30950000D01*
X2293520Y30807483D01*
X2335090Y30670443D01*
X2402597Y30544147D01*
X2493446Y30433446D01*
X2604147Y30342597D01*
X2730443Y30275090D01*
X2867483Y30233520D01*
X3010000Y30219483D01*
X4610000Y30219483D01*
X4752517Y30233520D01*
X4889557Y30275090D01*
X5015853Y30342597D01*
X5126554Y30433446D01*
X5217403Y30544147D01*
X5262465Y30628451D01*
X5347789Y30543127D01*
X5483726Y30679064D01*
X5553820Y30414882D01*
X5828818Y30293012D01*
X6122308Y30227134D01*
X6423011Y30219778D01*
X6719371Y30271229D01*
X6999998Y30379508D01*
X7066180Y30414882D01*
X7115960Y30602500D01*
X13149482Y30602500D01*
X13153000Y30369750D01*
X13334750Y30188000D01*
X14432000Y30188000D01*
X14432000Y31147750D01*
X14778000Y31147750D01*
X14778000Y30188000D01*
X15875250Y30188000D01*
X16057000Y30369750D01*
X16060518Y30602500D01*
X16046481Y30745017D01*
X16004911Y30882057D01*
X15937404Y31008354D01*
X15846554Y31119054D01*
X15735854Y31209904D01*
X15609557Y31277411D01*
X15472517Y31318981D01*
X15330000Y31333018D01*
X14959750Y31329500D01*
X14778000Y31147750D01*
X14432000Y31147750D01*
X14250250Y31329500D01*
X13880000Y31333018D01*
X13737483Y31318981D01*
X13600443Y31277411D01*
X13474146Y31209904D01*
X13363446Y31119054D01*
X13272596Y31008354D01*
X13205089Y30882057D01*
X13163519Y30745017D01*
X13149482Y30602500D01*
X7115960Y30602500D01*
X7136275Y30679066D01*
X6310000Y31505341D01*
X6295858Y31491199D01*
X6051199Y31735858D01*
X6065341Y31750000D01*
X6554659Y31750000D01*
X7380934Y30923725D01*
X7645118Y30993820D01*
X7766988Y31268818D01*
X7832866Y31562308D01*
X7840222Y31863011D01*
X7788771Y32159371D01*
X7680492Y32439998D01*
X7645118Y32506180D01*
X7380934Y32576275D01*
X6554659Y31750000D01*
X6065341Y31750000D01*
X6051199Y31764142D01*
X6295858Y32008801D01*
X6310000Y31994659D01*
X7136275Y32820934D01*
X7066180Y33085118D01*
X6791182Y33206988D01*
X6497692Y33272866D01*
X6196989Y33280222D01*
X5900629Y33228771D01*
X5620002Y33120492D01*
X5553820Y33085118D01*
X5483726Y32820936D01*
X5347789Y32956873D01*
X5262465Y32871549D01*
X5217403Y32955853D01*
X5126554Y33066554D01*
X5015853Y33157403D01*
X4889557Y33224910D01*
X4752517Y33266480D01*
X4610000Y33280517D01*
X3010000Y33280517D01*
X2867483Y33266480D01*
X2730443Y33224910D01*
X2604147Y33157403D01*
X2493446Y33066554D01*
X2402597Y32955853D01*
X2335090Y32829557D01*
X2293520Y32692517D01*
X2279483Y32550000D01*
X752000Y32550000D01*
X752000Y34808000D01*
X56388000Y34808000D01*
X56388000Y25488821D01*
G04 #@! TA.AperFunction,Conductor*
D36*
G36*
X56388000Y25488821D02*
G01*
X56371142Y25468731D01*
X56369912Y25466494D01*
X56368290Y25464533D01*
X56335752Y25404355D01*
X56302789Y25344396D01*
X56302019Y25341970D01*
X56300805Y25339724D01*
X56280553Y25274300D01*
X56259887Y25209152D01*
X56259603Y25206620D01*
X56258849Y25204184D01*
X56251698Y25136151D01*
X56244071Y25068151D01*
X56244037Y25063253D01*
X56244018Y25063075D01*
X56244034Y25062896D01*
X56244000Y25058000D01*
X56244000Y24558000D01*
X56250674Y24489933D01*
X56256877Y24421774D01*
X56257598Y24419326D01*
X56257846Y24416792D01*
X56277601Y24351360D01*
X56296937Y24285661D01*
X56298119Y24283400D01*
X56298855Y24280962D01*
X56330973Y24220557D01*
X56362672Y24159922D01*
X56364268Y24157937D01*
X56365466Y24155684D01*
X56388000Y24128055D01*
X56388000Y14188517D01*
X56011000Y14188517D01*
X55868483Y14174480D01*
X55805469Y14155365D01*
X55754331Y14323944D01*
X55664877Y14491301D01*
X55544491Y14637991D01*
X55397801Y14758377D01*
X55230444Y14847831D01*
X55048851Y14902917D01*
X54860000Y14921517D01*
X54360000Y14921517D01*
X54171149Y14902917D01*
X53989556Y14847831D01*
X53822199Y14758377D01*
X53697500Y14656039D01*
X53572801Y14758377D01*
X53405444Y14847831D01*
X53223851Y14902917D01*
X53035000Y14921517D01*
X52535000Y14921517D01*
X52346149Y14902917D01*
X52164556Y14847831D01*
X51997199Y14758377D01*
X51850509Y14637991D01*
X51801764Y14578596D01*
X51661944Y14653331D01*
X51480351Y14708417D01*
X51291500Y14727017D01*
X50816500Y14727017D01*
X50627649Y14708417D01*
X50607579Y14702329D01*
X50629913Y14717252D01*
X50814748Y14902087D01*
X50959972Y15119430D01*
X51060004Y15360928D01*
X51061607Y15368987D01*
X51533482Y15840861D01*
X51567896Y15869104D01*
X51605579Y15915020D01*
X51680614Y16006451D01*
X51697547Y16038130D01*
X51764371Y16163150D01*
X51815948Y16333177D01*
X51819590Y16370151D01*
X51833364Y16510000D01*
X51829000Y16554307D01*
X51829000Y17989701D01*
X51833363Y18034001D01*
X51829000Y18078301D01*
X51829000Y18078307D01*
X51815948Y18210823D01*
X51815846Y18211161D01*
X51789993Y18296386D01*
X51764371Y18380850D01*
X51680614Y18537549D01*
X51567896Y18674896D01*
X51533473Y18703146D01*
X51504120Y18732499D01*
X51787482Y19015861D01*
X51821896Y19044104D01*
X51859579Y19090020D01*
X51934614Y19181451D01*
X51943120Y19197364D01*
X52018371Y19338150D01*
X52069948Y19508177D01*
X52083000Y19640693D01*
X52087364Y19685000D01*
X52083000Y19729307D01*
X52083000Y21418693D01*
X52087364Y21463000D01*
X52069948Y21639823D01*
X52055320Y21688046D01*
X52018371Y21809850D01*
X51934614Y21966549D01*
X51887156Y22024377D01*
X51850140Y22069481D01*
X51850138Y22069483D01*
X51821896Y22103896D01*
X51787483Y22132138D01*
X51088143Y22831477D01*
X51059896Y22865896D01*
X50922549Y22978614D01*
X50765850Y23062371D01*
X50595823Y23113948D01*
X50463307Y23127000D01*
X50463299Y23127000D01*
X50419000Y23131363D01*
X50374701Y23127000D01*
X44494299Y23127000D01*
X44449999Y23131363D01*
X44405700Y23127000D01*
X44405693Y23127000D01*
X44273177Y23113948D01*
X44103150Y23062371D01*
X43946451Y22978614D01*
X43859926Y22907605D01*
X43858917Y22917851D01*
X43803831Y23099444D01*
X43714377Y23266801D01*
X43675365Y23314337D01*
X43754404Y23410646D01*
X43821911Y23536943D01*
X43863481Y23673983D01*
X43877518Y23816500D01*
X43874000Y23949250D01*
X43692250Y24131000D01*
X42845000Y24131000D01*
X42845000Y24111000D01*
X42499000Y24111000D01*
X42499000Y24131000D01*
X42479000Y24131000D01*
X42479000Y24477000D01*
X42499000Y24477000D01*
X42499000Y25336750D01*
X42845000Y25336750D01*
X42845000Y24477000D01*
X43692250Y24477000D01*
X43874000Y24658750D01*
X43877518Y24791500D01*
X43863481Y24934017D01*
X43821911Y25071057D01*
X43754404Y25197354D01*
X43663554Y25308054D01*
X43552854Y25398904D01*
X43426557Y25466411D01*
X43289517Y25507981D01*
X43147000Y25522018D01*
X43026750Y25518500D01*
X42845000Y25336750D01*
X42499000Y25336750D01*
X42317250Y25518500D01*
X42197000Y25522018D01*
X42114266Y25513869D01*
X42101860Y25524050D01*
X41686915Y25938995D01*
X41734590Y25997088D01*
X41821734Y26160123D01*
X41875397Y26337027D01*
X41893517Y26521000D01*
X41893517Y26946000D01*
X41875397Y27129973D01*
X41821734Y27306877D01*
X41734590Y27469912D01*
X41672147Y27546000D01*
X43262701Y27546000D01*
X43307000Y27541637D01*
X43351299Y27546000D01*
X43351307Y27546000D01*
X43483823Y27559052D01*
X43653850Y27610629D01*
X43810549Y27694386D01*
X43947896Y27807104D01*
X43976143Y27841523D01*
X45136478Y29001858D01*
X45170896Y29030104D01*
X45283614Y29167451D01*
X45367371Y29324150D01*
X45418948Y29494177D01*
X45432000Y29626693D01*
X45432000Y29626700D01*
X45436363Y29670999D01*
X45432000Y29715299D01*
X45432000Y30255213D01*
X45528526Y30306807D01*
X45696961Y30445039D01*
X45835193Y30613474D01*
X45937908Y30805641D01*
X45953000Y30855392D01*
X45953000Y30743925D01*
X45994389Y30535851D01*
X46075575Y30339849D01*
X46193440Y30163453D01*
X46343453Y30013440D01*
X46519849Y29895575D01*
X46715851Y29814389D01*
X46923925Y29773000D01*
X47136075Y29773000D01*
X47344149Y29814389D01*
X47540151Y29895575D01*
X47716547Y30013440D01*
X47866560Y30163453D01*
X47984425Y30339849D01*
X48065611Y30535851D01*
X48080649Y30611452D01*
X48093089Y30570443D01*
X48160596Y30444146D01*
X48251446Y30333446D01*
X48362146Y30242596D01*
X48488443Y30175089D01*
X48625483Y30133519D01*
X48768000Y30119482D01*
X49175250Y30123000D01*
X49357000Y30304750D01*
X49357000Y31577000D01*
X49703000Y31577000D01*
X49703000Y30304750D01*
X49884750Y30123000D01*
X50292000Y30119482D01*
X50434517Y30133519D01*
X50571557Y30175089D01*
X50697854Y30242596D01*
X50808554Y30333446D01*
X50899404Y30444146D01*
X50966911Y30570443D01*
X51008481Y30707483D01*
X51022518Y30850000D01*
X51019000Y31395250D01*
X50837250Y31577000D01*
X49703000Y31577000D01*
X49357000Y31577000D01*
X48222750Y31577000D01*
X48041000Y31395250D01*
X48039909Y31226199D01*
X47984425Y31360151D01*
X47866560Y31536547D01*
X47716547Y31686560D01*
X47621603Y31750000D01*
X47716547Y31813440D01*
X47866560Y31963453D01*
X47984425Y32139849D01*
X48039909Y32273801D01*
X48041000Y32104750D01*
X48222750Y31923000D01*
X49357000Y31923000D01*
X49357000Y33195250D01*
X49703000Y33195250D01*
X49703000Y31923000D01*
X50837250Y31923000D01*
X51019000Y32104750D01*
X51022518Y32650000D01*
X51008481Y32792517D01*
X50966911Y32929557D01*
X50899404Y33055854D01*
X50808554Y33166554D01*
X50697854Y33257404D01*
X50571557Y33324911D01*
X50434517Y33366481D01*
X50292000Y33380518D01*
X49884750Y33377000D01*
X49703000Y33195250D01*
X49357000Y33195250D01*
X49175250Y33377000D01*
X48768000Y33380518D01*
X48625483Y33366481D01*
X48488443Y33324911D01*
X48362146Y33257404D01*
X48251446Y33166554D01*
X48160596Y33055854D01*
X48093089Y32929557D01*
X48080649Y32888548D01*
X48065611Y32964149D01*
X47984425Y33160151D01*
X47866560Y33336547D01*
X47716547Y33486560D01*
X47540151Y33604425D01*
X47344149Y33685611D01*
X47136075Y33727000D01*
X46923925Y33727000D01*
X46715851Y33685611D01*
X46519849Y33604425D01*
X46343453Y33486560D01*
X46193440Y33336547D01*
X46075575Y33160151D01*
X45994389Y32964149D01*
X45953000Y32756075D01*
X45953000Y32644608D01*
X45937908Y32694359D01*
X45835193Y32886526D01*
X45696961Y33054961D01*
X45528526Y33193193D01*
X45336359Y33295908D01*
X45127846Y33359160D01*
X44911000Y33380517D01*
X44149000Y33380517D01*
X43932154Y33359160D01*
X43723641Y33295908D01*
X43632140Y33247000D01*
X38440095Y33247000D01*
X38440095Y30093000D01*
X43628000Y30093000D01*
X43628000Y30044620D01*
X42933380Y29350000D01*
X36788661Y29350000D01*
X36659913Y29478748D01*
X36442570Y29623972D01*
X36201072Y29724004D01*
X35944698Y29775000D01*
X35683302Y29775000D01*
X35426928Y29724004D01*
X35185430Y29623972D01*
X34968087Y29478748D01*
X34783252Y29293913D01*
X34638028Y29076570D01*
X34537996Y28835072D01*
X34487000Y28578698D01*
X34487000Y28317302D01*
X34537996Y28060928D01*
X34638028Y27819430D01*
X34638463Y27818779D01*
X34558199Y27775877D01*
X34411509Y27655491D01*
X34291123Y27508801D01*
X34201669Y27341444D01*
X34146583Y27159851D01*
X34127983Y26971000D01*
X34127983Y26496000D01*
X34146583Y26307149D01*
X34201669Y26125556D01*
X34287488Y25965000D01*
X34286302Y25965000D01*
X34029928Y25914004D01*
X33788430Y25813972D01*
X33571087Y25668748D01*
X33442339Y25540000D01*
X32937299Y25540000D01*
X32892999Y25544363D01*
X32848699Y25540000D01*
X32848693Y25540000D01*
X32734255Y25528729D01*
X32716176Y25526948D01*
X32653651Y25507981D01*
X32546150Y25475371D01*
X32389451Y25391614D01*
X32252104Y25278896D01*
X32223857Y25244477D01*
X30881897Y23902517D01*
X29685000Y23902517D01*
X29542483Y23888480D01*
X29405443Y23846910D01*
X29279147Y23779403D01*
X29168446Y23688554D01*
X29115000Y23623429D01*
X29061554Y23688554D01*
X28950853Y23779403D01*
X28824557Y23846910D01*
X28687517Y23888480D01*
X28545000Y23902517D01*
X26985000Y23902517D01*
X26847763Y23889000D01*
X26460307Y23889000D01*
X26416000Y23893364D01*
X26371693Y23889000D01*
X26239177Y23875948D01*
X26069150Y23824371D01*
X25928140Y23749000D01*
X25912451Y23740614D01*
X25844046Y23684475D01*
X25775104Y23627896D01*
X25746861Y23593482D01*
X24158523Y22005143D01*
X24124104Y21976896D01*
X24011386Y21839548D01*
X23927629Y21682849D01*
X23876052Y21512822D01*
X23863000Y21380306D01*
X23863000Y21380299D01*
X23858637Y21336000D01*
X23863000Y21291700D01*
X23863001Y20566621D01*
X23502380Y20206000D01*
X20278661Y20206000D01*
X20149913Y20334748D01*
X19932570Y20479972D01*
X19691072Y20580004D01*
X19434698Y20631000D01*
X19173302Y20631000D01*
X18916928Y20580004D01*
X18675430Y20479972D01*
X18458087Y20334748D01*
X18273252Y20149913D01*
X18128028Y19932570D01*
X18027996Y19691072D01*
X17977000Y19434698D01*
X17977000Y19173302D01*
X17984022Y19138000D01*
X17728618Y19138000D01*
X17705770Y19180746D01*
X17604618Y19304000D01*
X17705770Y19427254D01*
X17796380Y19596772D01*
X17852177Y19780711D01*
X17871017Y19972000D01*
X17871017Y20922000D01*
X17852177Y21113289D01*
X17816699Y21230244D01*
X17837000Y21332302D01*
X17837000Y21399430D01*
X17843185Y21401306D01*
X17870340Y21311789D01*
X17937522Y21186100D01*
X18027933Y21075933D01*
X18138100Y20985522D01*
X18263789Y20918340D01*
X18400169Y20876969D01*
X18542000Y20863000D01*
X20193000Y20863000D01*
X20334831Y20876969D01*
X20471211Y20918340D01*
X20596900Y20985522D01*
X20707067Y21075933D01*
X20797478Y21186100D01*
X20864660Y21311789D01*
X20906031Y21448169D01*
X20908576Y21474013D01*
X20941480Y21582483D01*
X20955517Y21725000D01*
X20994482Y21725000D01*
X21008519Y21582483D01*
X21050089Y21445443D01*
X21117596Y21319146D01*
X21208446Y21208446D01*
X21319146Y21117596D01*
X21445443Y21050089D01*
X21582483Y21008519D01*
X21725000Y20994482D01*
X21870250Y20998000D01*
X22052000Y21179750D01*
X22052000Y22052000D01*
X22398000Y22052000D01*
X22398000Y21179750D01*
X22579750Y20998000D01*
X22725000Y20994482D01*
X22867517Y21008519D01*
X23004557Y21050089D01*
X23130854Y21117596D01*
X23241554Y21208446D01*
X23332404Y21319146D01*
X23399911Y21445443D01*
X23441481Y21582483D01*
X23455518Y21725000D01*
X23452000Y21870250D01*
X23270250Y22052000D01*
X22398000Y22052000D01*
X22052000Y22052000D01*
X21179750Y22052000D01*
X20998000Y21870250D01*
X20994482Y21725000D01*
X20955517Y21725000D01*
X20955517Y22725000D01*
X20941480Y22867517D01*
X20920000Y22938328D01*
X20920000Y23078470D01*
X20947649Y23070083D01*
X21078239Y23057221D01*
X21050089Y23004557D01*
X21008519Y22867517D01*
X20994482Y22725000D01*
X20998000Y22579750D01*
X21179750Y22398000D01*
X22052000Y22398000D01*
X22052000Y22418000D01*
X22398000Y22418000D01*
X22398000Y22398000D01*
X23270250Y22398000D01*
X23452000Y22579750D01*
X23455518Y22725000D01*
X23441481Y22867517D01*
X23399911Y23004557D01*
X23332404Y23130854D01*
X23241554Y23241554D01*
X23130854Y23332404D01*
X23004557Y23399911D01*
X22867517Y23441481D01*
X22725000Y23455518D01*
X22579750Y23452000D01*
X22398002Y23270252D01*
X22398002Y23316142D01*
X22420991Y23335009D01*
X22541377Y23481699D01*
X22630831Y23649056D01*
X22685917Y23830649D01*
X22687401Y23845715D01*
X22828902Y23987216D01*
X22866186Y24017814D01*
X22988276Y24166582D01*
X23078997Y24336309D01*
X23134863Y24520475D01*
X23149000Y24664007D01*
X23149000Y24664009D01*
X23153727Y24711999D01*
X23149000Y24759990D01*
X23149000Y25569047D01*
X23231557Y25594090D01*
X23357853Y25661597D01*
X23468554Y25752446D01*
X23559403Y25863147D01*
X23562951Y25869784D01*
X23573519Y25762483D01*
X23615089Y25625443D01*
X23682596Y25499146D01*
X23773446Y25388446D01*
X23884146Y25297596D01*
X24010443Y25230089D01*
X24147483Y25188519D01*
X24290000Y25174482D01*
X24410250Y25178000D01*
X24592000Y25359750D01*
X24592000Y26219500D01*
X24938000Y26219500D01*
X24938000Y25359750D01*
X25119750Y25178000D01*
X25240000Y25174482D01*
X25382517Y25188519D01*
X25519557Y25230089D01*
X25645854Y25297596D01*
X25756554Y25388446D01*
X25847404Y25499146D01*
X25914911Y25625443D01*
X25956481Y25762483D01*
X25970518Y25905000D01*
X25967000Y26037750D01*
X25785250Y26219500D01*
X24938000Y26219500D01*
X24592000Y26219500D01*
X24572000Y26219500D01*
X24572000Y26565500D01*
X24592000Y26565500D01*
X24592000Y26585500D01*
X24938000Y26585500D01*
X24938000Y26565500D01*
X25785250Y26565500D01*
X25967000Y26747250D01*
X25970518Y26880000D01*
X25956481Y27022517D01*
X25914911Y27159557D01*
X25847404Y27285854D01*
X25768365Y27382163D01*
X25807377Y27429699D01*
X25896831Y27597056D01*
X25951917Y27778649D01*
X25970517Y27967500D01*
X25970517Y28467500D01*
X25951917Y28656351D01*
X25896831Y28837944D01*
X25807377Y29005301D01*
X25686991Y29151991D01*
X25540301Y29272377D01*
X25372944Y29361831D01*
X25191351Y29416917D01*
X25002500Y29435517D01*
X24750394Y29435517D01*
X24680025Y29456863D01*
X24536493Y29471000D01*
X24488500Y29475727D01*
X24440507Y29471000D01*
X23763111Y29471000D01*
X23773831Y29491056D01*
X23828917Y29672649D01*
X23847517Y29861500D01*
X23847517Y30336500D01*
X23828917Y30525351D01*
X23773831Y30706944D01*
X23684377Y30874301D01*
X23606500Y30969194D01*
X23606500Y31133806D01*
X23684377Y31228699D01*
X23773831Y31396056D01*
X23828917Y31577649D01*
X23847517Y31766500D01*
X23847517Y32241500D01*
X23828917Y32430351D01*
X23773831Y32611944D01*
X23684377Y32779301D01*
X23563991Y32925991D01*
X23417301Y33046377D01*
X23249944Y33135831D01*
X23068351Y33190917D01*
X22879500Y33209517D01*
X22379500Y33209517D01*
X22190649Y33190917D01*
X22009056Y33135831D01*
X21841699Y33046377D01*
X21717000Y32944039D01*
X21592301Y33046377D01*
X21424944Y33135831D01*
X21243351Y33190917D01*
X21054500Y33209517D01*
X20554500Y33209517D01*
X20365649Y33190917D01*
X20184056Y33135831D01*
X20016699Y33046377D01*
X19870009Y32925991D01*
X19749623Y32779301D01*
X19660169Y32611944D01*
X19605083Y32430351D01*
X19586483Y32241500D01*
X19586483Y31873721D01*
X19564072Y31883004D01*
X19307698Y31934000D01*
X19046302Y31934000D01*
X18789928Y31883004D01*
X18548430Y31782972D01*
X18331087Y31637748D01*
X18146252Y31452913D01*
X18001028Y31235570D01*
X17900996Y30994072D01*
X17898120Y30979616D01*
X17879944Y30989331D01*
X17698351Y31044417D01*
X17509500Y31063017D01*
X17034500Y31063017D01*
X16845649Y31044417D01*
X16664056Y30989331D01*
X16496699Y30899877D01*
X16350009Y30779491D01*
X16229623Y30632801D01*
X16140169Y30465444D01*
X16085083Y30283851D01*
X16066483Y30095000D01*
X16066483Y29595000D01*
X16085083Y29406149D01*
X16140169Y29224556D01*
X16229623Y29057199D01*
X16331961Y28932500D01*
X16319241Y28917000D01*
X15851522Y28917000D01*
X15937404Y29021646D01*
X16004911Y29147943D01*
X16046481Y29284983D01*
X16060518Y29427500D01*
X16057000Y29660250D01*
X15875250Y29842000D01*
X14778000Y29842000D01*
X14778000Y29822000D01*
X14432000Y29822000D01*
X14432000Y29842000D01*
X13334750Y29842000D01*
X13153000Y29660250D01*
X13149482Y29427500D01*
X13163519Y29284983D01*
X13205089Y29147943D01*
X13272596Y29021646D01*
X13358478Y28917000D01*
X13104685Y28917000D01*
X12789784Y29231901D01*
X12759186Y29269186D01*
X12610418Y29391276D01*
X12440691Y29481997D01*
X12256525Y29537863D01*
X12112993Y29552000D01*
X12065000Y29556727D01*
X12017007Y29552000D01*
X10066015Y29552000D01*
X10033554Y29591554D01*
X9922853Y29682403D01*
X9796557Y29749910D01*
X9659517Y29791480D01*
X9517000Y29805517D01*
X8517000Y29805517D01*
X8374483Y29791480D01*
X8237443Y29749910D01*
X8111147Y29682403D01*
X8000446Y29591554D01*
X7909597Y29480853D01*
X7842090Y29354557D01*
X7800520Y29217517D01*
X7786483Y29075000D01*
X7786483Y28075000D01*
X7800520Y27932483D01*
X7842090Y27795443D01*
X7909597Y27669147D01*
X8000446Y27558446D01*
X8111147Y27467597D01*
X8237443Y27400090D01*
X8374483Y27358520D01*
X8517000Y27344483D01*
X9517000Y27344483D01*
X9659517Y27358520D01*
X9796557Y27400090D01*
X9922853Y27467597D01*
X10033554Y27558446D01*
X10066015Y27598000D01*
X11660314Y27598000D01*
X11975212Y27283103D01*
X12005814Y27245814D01*
X12154582Y27123724D01*
X12324309Y27033003D01*
X12358877Y27022517D01*
X12508474Y26977137D01*
X12700000Y26958273D01*
X12747993Y26963000D01*
X13119841Y26963000D01*
X13116000Y26924000D01*
X13116000Y24892000D01*
X13129969Y24750169D01*
X13171340Y24613789D01*
X13238522Y24488100D01*
X13328933Y24377933D01*
X13439100Y24287522D01*
X13564789Y24220340D01*
X13643596Y24196434D01*
X13558446Y24126554D01*
X13467597Y24015853D01*
X13400090Y23889557D01*
X13358520Y23752517D01*
X13344483Y23610000D01*
X13344483Y22110000D01*
X13358520Y21967483D01*
X13400090Y21830443D01*
X13444835Y21746732D01*
X13373946Y21688554D01*
X13283096Y21577854D01*
X13215589Y21451557D01*
X13174019Y21314517D01*
X13159982Y21172000D01*
X13163500Y20801750D01*
X13345250Y20620000D01*
X14305000Y20620000D01*
X14305000Y20640000D01*
X14651000Y20640000D01*
X14651000Y20620000D01*
X14671000Y20620000D01*
X14671000Y20274000D01*
X14651000Y20274000D01*
X14651000Y18334000D01*
X14671000Y18334000D01*
X14671000Y17988000D01*
X14651000Y17988000D01*
X14651000Y16890750D01*
X14832750Y16709000D01*
X15065500Y16705482D01*
X15208017Y16719519D01*
X15345057Y16761089D01*
X15471354Y16828596D01*
X15582054Y16919446D01*
X15593862Y16933834D01*
X15670754Y16870730D01*
X15840272Y16780120D01*
X16024211Y16724323D01*
X16215500Y16705483D01*
X16890500Y16705483D01*
X17081789Y16724323D01*
X17265728Y16780120D01*
X17435246Y16870730D01*
X17464002Y16894329D01*
X17500199Y16864623D01*
X17667556Y16775169D01*
X17849149Y16720083D01*
X18038000Y16701483D01*
X18538000Y16701483D01*
X18726851Y16720083D01*
X18908444Y16775169D01*
X19075801Y16864623D01*
X19136000Y16914028D01*
X19136001Y15622003D01*
X19131273Y15574000D01*
X19150137Y15382475D01*
X19206003Y15198310D01*
X19296725Y15028582D01*
X19378760Y14928622D01*
X19385600Y14920286D01*
X16618314Y12153000D01*
X15781015Y12153000D01*
X15748554Y12192554D01*
X15696996Y12234866D01*
X15694863Y12256525D01*
X15638997Y12440691D01*
X15548276Y12610418D01*
X15426186Y12759186D01*
X15388907Y12789780D01*
X13043784Y15134902D01*
X13013186Y15172186D01*
X12864418Y15294276D01*
X12694691Y15384997D01*
X12510525Y15440863D01*
X12366993Y15455000D01*
X12319000Y15459727D01*
X12271007Y15455000D01*
X10945686Y15455000D01*
X10217000Y16183686D01*
X10217000Y16259698D01*
X10166004Y16516072D01*
X10065972Y16757570D01*
X9947131Y16935428D01*
X10059377Y17072199D01*
X10148831Y17239556D01*
X10203917Y17421149D01*
X10205379Y17436000D01*
X13159982Y17436000D01*
X13174019Y17293483D01*
X13215589Y17156443D01*
X13283096Y17030146D01*
X13373946Y16919446D01*
X13484646Y16828596D01*
X13610943Y16761089D01*
X13747983Y16719519D01*
X13890500Y16705482D01*
X14123250Y16709000D01*
X14305000Y16890750D01*
X14305000Y17988000D01*
X13345250Y17988000D01*
X13163500Y17806250D01*
X13159982Y17436000D01*
X10205379Y17436000D01*
X10222517Y17610000D01*
X10222517Y18110000D01*
X10203917Y18298851D01*
X10171569Y18405487D01*
X10410302Y18358000D01*
X10671698Y18358000D01*
X10928072Y18408996D01*
X11169570Y18509028D01*
X11386913Y18654252D01*
X11571748Y18839087D01*
X11716972Y19056430D01*
X11817004Y19297928D01*
X11868000Y19554302D01*
X11868000Y19722000D01*
X13159982Y19722000D01*
X13174019Y19579483D01*
X13215589Y19442443D01*
X13283096Y19316146D01*
X13293064Y19304000D01*
X13283096Y19291854D01*
X13215589Y19165557D01*
X13174019Y19028517D01*
X13159982Y18886000D01*
X13163500Y18515750D01*
X13345250Y18334000D01*
X14305000Y18334000D01*
X14305000Y20274000D01*
X13345250Y20274000D01*
X13163500Y20092250D01*
X13159982Y19722000D01*
X11868000Y19722000D01*
X11868000Y19815698D01*
X11817004Y20072072D01*
X11716972Y20313570D01*
X11571748Y20530913D01*
X11386913Y20715748D01*
X11169570Y20860972D01*
X10928072Y20961004D01*
X10671698Y21012000D01*
X10410302Y21012000D01*
X10153928Y20961004D01*
X9912430Y20860972D01*
X9758354Y20758022D01*
X9649417Y20816250D01*
X9792301Y20892623D01*
X9938991Y21013009D01*
X10059377Y21159699D01*
X10148831Y21327056D01*
X10203917Y21508649D01*
X10222517Y21697500D01*
X10222517Y22272500D01*
X10203917Y22461351D01*
X10148831Y22642944D01*
X10059377Y22810301D01*
X10018590Y22860000D01*
X10059377Y22909699D01*
X10148831Y23077056D01*
X10203917Y23258649D01*
X10222517Y23447500D01*
X10222517Y24022500D01*
X10203917Y24211351D01*
X10148831Y24392944D01*
X10059377Y24560301D01*
X9994000Y24639963D01*
X9994000Y25025985D01*
X10033554Y25058446D01*
X10124403Y25169147D01*
X10191910Y25295443D01*
X10233480Y25432483D01*
X10247517Y25575000D01*
X10247517Y26575000D01*
X10233480Y26717517D01*
X10191910Y26854557D01*
X10124403Y26980853D01*
X10033554Y27091554D01*
X9922853Y27182403D01*
X9796557Y27249910D01*
X9659517Y27291480D01*
X9517000Y27305517D01*
X8517000Y27305517D01*
X8374483Y27291480D01*
X8237443Y27249910D01*
X8111147Y27182403D01*
X8000446Y27091554D01*
X7909597Y26980853D01*
X7842090Y26854557D01*
X7800520Y26717517D01*
X7786483Y26575000D01*
X7786483Y25575000D01*
X7800520Y25432483D01*
X7842090Y25295443D01*
X7909597Y25169147D01*
X8000446Y25058446D01*
X8040001Y25025985D01*
X8040000Y24639963D01*
X7974623Y24560301D01*
X7885169Y24392944D01*
X7830083Y24211351D01*
X7811483Y24022500D01*
X7811483Y23447500D01*
X7830083Y23258649D01*
X7885169Y23077056D01*
X7946668Y22962000D01*
X7391505Y22962000D01*
X7196406Y23157099D01*
X6946306Y23324210D01*
X6668410Y23439319D01*
X6373396Y23498000D01*
X6072604Y23498000D01*
X5777590Y23439319D01*
X5584042Y23359148D01*
X5546391Y23396799D01*
X5437611Y23469483D01*
X5518000Y23469483D01*
X5660517Y23483520D01*
X5797557Y23525090D01*
X5923853Y23592597D01*
X6034554Y23683446D01*
X6125403Y23794147D01*
X6192910Y23920443D01*
X6234480Y24057483D01*
X6248517Y24200000D01*
X6248517Y26600000D01*
X6234480Y26742517D01*
X6192910Y26879557D01*
X6125403Y27005853D01*
X6034554Y27116554D01*
X5923853Y27207403D01*
X5797557Y27274910D01*
X5660517Y27316480D01*
X5518000Y27330517D01*
X3118000Y27330517D01*
X2975483Y27316480D01*
X2838443Y27274910D01*
X2712147Y27207403D01*
X2601446Y27116554D01*
X2510597Y27005853D01*
X2443090Y26879557D01*
X2401520Y26742517D01*
X2387483Y26600000D01*
X2387483Y24200000D01*
X2401520Y24057483D01*
X2443090Y23920443D01*
X2510597Y23794147D01*
X2601446Y23683446D01*
X2712147Y23592597D01*
X2838443Y23525090D01*
X2975483Y23483520D01*
X3118000Y23469483D01*
X3198389Y23469483D01*
X3089609Y23396799D01*
X2821201Y23128391D01*
X2610315Y22812777D01*
X2465053Y22462085D01*
X2391000Y22089793D01*
X2391000Y21710207D01*
X2465053Y21337915D01*
X2610315Y20987223D01*
X2821201Y20671609D01*
X3089609Y20403201D01*
X3405223Y20192315D01*
X3507380Y20150000D01*
X3405223Y20107685D01*
X3089609Y19896799D01*
X2821201Y19628391D01*
X2610315Y19312777D01*
X2465053Y18962085D01*
X2391000Y18589793D01*
X2391000Y18210207D01*
X2465053Y17837915D01*
X2610315Y17487223D01*
X2821201Y17171609D01*
X3089609Y16903201D01*
X3405223Y16692315D01*
X3499111Y16653425D01*
X3488179Y16649500D01*
X3324369Y16561941D01*
X3205704Y16256955D01*
X4318000Y15144659D01*
X5430296Y16256955D01*
X5311631Y16561941D01*
X5126646Y16649182D01*
X5230777Y16692315D01*
X5546391Y16903201D01*
X5607655Y16964465D01*
X5650590Y16946681D01*
X5945604Y16888000D01*
X6246396Y16888000D01*
X6393281Y16917217D01*
X6459474Y16897137D01*
X6651000Y16878273D01*
X6698993Y16883000D01*
X7797838Y16883000D01*
X7714028Y16757570D01*
X7613996Y16516072D01*
X7563000Y16259698D01*
X7563000Y15998302D01*
X7613996Y15741928D01*
X7714028Y15500430D01*
X7859252Y15283087D01*
X8044087Y15098252D01*
X8261430Y14953028D01*
X8502928Y14852996D01*
X8759302Y14802000D01*
X8835314Y14802000D01*
X9816216Y13821098D01*
X9846814Y13783814D01*
X9995582Y13661724D01*
X10165309Y13571003D01*
X10237913Y13548979D01*
X10349474Y13515137D01*
X10541000Y13496273D01*
X10588993Y13501000D01*
X11914314Y13501000D01*
X13125087Y12290227D01*
X13011557Y12350910D01*
X12874517Y12392480D01*
X12732000Y12406517D01*
X11732000Y12406517D01*
X11589483Y12392480D01*
X11452443Y12350910D01*
X11326147Y12283403D01*
X11243106Y12215254D01*
X11239301Y12218377D01*
X11071944Y12307831D01*
X10890351Y12362917D01*
X10701500Y12381517D01*
X10126500Y12381517D01*
X9937649Y12362917D01*
X9756056Y12307831D01*
X9588699Y12218377D01*
X9539000Y12177590D01*
X9489301Y12218377D01*
X9321944Y12307831D01*
X9140351Y12362917D01*
X8951500Y12381517D01*
X8376500Y12381517D01*
X8187649Y12362917D01*
X8006056Y12307831D01*
X7838699Y12218377D01*
X7692009Y12097991D01*
X7571623Y11951301D01*
X7482169Y11783944D01*
X7427083Y11602351D01*
X7408483Y11413500D01*
X7408483Y10938500D01*
X7427083Y10749649D01*
X7482169Y10568056D01*
X7571623Y10400699D01*
X7651583Y10303269D01*
X6710991Y9362677D01*
X6669084Y9500824D01*
X6555149Y9713983D01*
X6401817Y9900817D01*
X6214983Y10054149D01*
X6001824Y10168084D01*
X5770534Y10238245D01*
X5590268Y10256000D01*
X4582697Y10256000D01*
X4552012Y10567551D01*
X4453260Y10893092D01*
X4292896Y11193112D01*
X4077082Y11456082D01*
X3814112Y11671896D01*
X3514092Y11832260D01*
X3188551Y11931012D01*
X2934841Y11956000D01*
X1765159Y11956000D01*
X1511449Y11931012D01*
X1185908Y11832260D01*
X885888Y11671896D01*
X752000Y11562017D01*
X752000Y13543045D01*
X3205704Y13543045D01*
X3324369Y13238059D01*
X3667689Y13076145D01*
X4036002Y12984320D01*
X4415150Y12966115D01*
X4790566Y13022226D01*
X5147821Y13150500D01*
X5311631Y13238059D01*
X5430296Y13543045D01*
X4318000Y14655341D01*
X3205704Y13543045D01*
X752000Y13543045D01*
X752000Y14802850D01*
X2384115Y14802850D01*
X2440226Y14427434D01*
X2568500Y14070179D01*
X2656059Y13906369D01*
X2961045Y13787704D01*
X4073341Y14900000D01*
X4562659Y14900000D01*
X5674955Y13787704D01*
X5979941Y13906369D01*
X6141855Y14249689D01*
X6233680Y14618002D01*
X6251885Y14997150D01*
X6195774Y15372566D01*
X6067500Y15729821D01*
X5979941Y15893631D01*
X5674955Y16012296D01*
X4562659Y14900000D01*
X4073341Y14900000D01*
X2961045Y16012296D01*
X2656059Y15893631D01*
X2494145Y15550311D01*
X2402320Y15181998D01*
X2384115Y14802850D01*
X752000Y14802850D01*
X752000Y32550000D01*
X2279483Y32550000D01*
X2279483Y30950000D01*
X2293520Y30807483D01*
X2335090Y30670443D01*
X2402597Y30544147D01*
X2493446Y30433446D01*
X2604147Y30342597D01*
X2730443Y30275090D01*
X2867483Y30233520D01*
X3010000Y30219483D01*
X4610000Y30219483D01*
X4752517Y30233520D01*
X4889557Y30275090D01*
X5015853Y30342597D01*
X5126554Y30433446D01*
X5217403Y30544147D01*
X5262465Y30628451D01*
X5347789Y30543127D01*
X5483726Y30679064D01*
X5553820Y30414882D01*
X5828818Y30293012D01*
X6122308Y30227134D01*
X6423011Y30219778D01*
X6719371Y30271229D01*
X6999998Y30379508D01*
X7066180Y30414882D01*
X7115960Y30602500D01*
X13149482Y30602500D01*
X13153000Y30369750D01*
X13334750Y30188000D01*
X14432000Y30188000D01*
X14432000Y31147750D01*
X14778000Y31147750D01*
X14778000Y30188000D01*
X15875250Y30188000D01*
X16057000Y30369750D01*
X16060518Y30602500D01*
X16046481Y30745017D01*
X16004911Y30882057D01*
X15937404Y31008354D01*
X15846554Y31119054D01*
X15735854Y31209904D01*
X15609557Y31277411D01*
X15472517Y31318981D01*
X15330000Y31333018D01*
X14959750Y31329500D01*
X14778000Y31147750D01*
X14432000Y31147750D01*
X14250250Y31329500D01*
X13880000Y31333018D01*
X13737483Y31318981D01*
X13600443Y31277411D01*
X13474146Y31209904D01*
X13363446Y31119054D01*
X13272596Y31008354D01*
X13205089Y30882057D01*
X13163519Y30745017D01*
X13149482Y30602500D01*
X7115960Y30602500D01*
X7136275Y30679066D01*
X6310000Y31505341D01*
X6295858Y31491199D01*
X6051199Y31735858D01*
X6065341Y31750000D01*
X6554659Y31750000D01*
X7380934Y30923725D01*
X7645118Y30993820D01*
X7766988Y31268818D01*
X7832866Y31562308D01*
X7840222Y31863011D01*
X7788771Y32159371D01*
X7680492Y32439998D01*
X7645118Y32506180D01*
X7380934Y32576275D01*
X6554659Y31750000D01*
X6065341Y31750000D01*
X6051199Y31764142D01*
X6295858Y32008801D01*
X6310000Y31994659D01*
X7136275Y32820934D01*
X7066180Y33085118D01*
X6791182Y33206988D01*
X6497692Y33272866D01*
X6196989Y33280222D01*
X5900629Y33228771D01*
X5620002Y33120492D01*
X5553820Y33085118D01*
X5483726Y32820936D01*
X5347789Y32956873D01*
X5262465Y32871549D01*
X5217403Y32955853D01*
X5126554Y33066554D01*
X5015853Y33157403D01*
X4889557Y33224910D01*
X4752517Y33266480D01*
X4610000Y33280517D01*
X3010000Y33280517D01*
X2867483Y33266480D01*
X2730443Y33224910D01*
X2604147Y33157403D01*
X2493446Y33066554D01*
X2402597Y32955853D01*
X2335090Y32829557D01*
X2293520Y32692517D01*
X2279483Y32550000D01*
X752000Y32550000D01*
X752000Y34808000D01*
X56388000Y34808000D01*
X56388000Y25488821D01*
G37*
G04 #@! TD.AperFunction*
D35*
X41321000Y16683000D02*
X41341000Y16683000D01*
X41341000Y16337000D01*
X41321000Y16337000D01*
X41321000Y16317000D01*
X40975000Y16317000D01*
X40975000Y16337000D01*
X40955000Y16337000D01*
X40955000Y16683000D01*
X40975000Y16683000D01*
X40975000Y16703000D01*
X41321000Y16703000D01*
X41321000Y16683000D01*
G04 #@! TA.AperFunction,Conductor*
D36*
G36*
X41321000Y16683000D02*
G01*
X41341000Y16683000D01*
X41341000Y16337000D01*
X41321000Y16337000D01*
X41321000Y16317000D01*
X40975000Y16317000D01*
X40975000Y16337000D01*
X40955000Y16337000D01*
X40955000Y16683000D01*
X40975000Y16683000D01*
X40975000Y16703000D01*
X41321000Y16703000D01*
X41321000Y16683000D01*
G37*
G04 #@! TD.AperFunction*
D35*
X50025000Y17660380D02*
X50025001Y17053059D01*
X49914698Y17075000D01*
X49821750Y17075000D01*
X49670750Y17226000D01*
X48761000Y17226000D01*
X48761000Y17206000D01*
X48415000Y17206000D01*
X48415000Y17226000D01*
X48395000Y17226000D01*
X48395000Y17572000D01*
X48415000Y17572000D01*
X48415000Y17592000D01*
X48761000Y17592000D01*
X48761000Y17572000D01*
X49670750Y17572000D01*
X49852500Y17753750D01*
X49854749Y17830631D01*
X50025000Y17660380D01*
G04 #@! TA.AperFunction,Conductor*
D36*
G36*
X50025000Y17660380D02*
G01*
X50025001Y17053059D01*
X49914698Y17075000D01*
X49821750Y17075000D01*
X49670750Y17226000D01*
X48761000Y17226000D01*
X48761000Y17206000D01*
X48415000Y17206000D01*
X48415000Y17226000D01*
X48395000Y17226000D01*
X48395000Y17572000D01*
X48415000Y17572000D01*
X48415000Y17592000D01*
X48761000Y17592000D01*
X48761000Y17572000D01*
X49670750Y17572000D01*
X49852500Y17753750D01*
X49854749Y17830631D01*
X50025000Y17660380D01*
G37*
G04 #@! TD.AperFunction*
D35*
X32771500Y22960750D02*
X32953250Y22779000D01*
X33913000Y22779000D01*
X33913000Y22799000D01*
X34259000Y22799000D01*
X34259000Y22779000D01*
X34279000Y22779000D01*
X34279000Y22433000D01*
X34259000Y22433000D01*
X34259000Y21644250D01*
X34209000Y21594250D01*
X34209000Y20747000D01*
X34229000Y20747000D01*
X34229000Y20401000D01*
X34209000Y20401000D01*
X34209000Y19096000D01*
X34229000Y19096000D01*
X34229000Y18772686D01*
X34186314Y18730000D01*
X33863000Y18730000D01*
X33863000Y18750000D01*
X32953250Y18750000D01*
X32771500Y18568250D01*
X32767982Y18448000D01*
X32775074Y18376000D01*
X31711000Y18376000D01*
X31711000Y18751381D01*
X31848472Y18888853D01*
X31882896Y18917104D01*
X31995614Y19054451D01*
X32079371Y19211150D01*
X32113149Y19322500D01*
X32130948Y19381176D01*
X32132729Y19399255D01*
X32144000Y19513693D01*
X32144000Y19513699D01*
X32148363Y19557999D01*
X32144000Y19602299D01*
X32144000Y20099000D01*
X32767982Y20099000D01*
X32782019Y19956483D01*
X32823589Y19819443D01*
X32861509Y19748500D01*
X32823589Y19677557D01*
X32782019Y19540517D01*
X32767982Y19398000D01*
X32771500Y19277750D01*
X32953250Y19096000D01*
X33863000Y19096000D01*
X33863000Y20401000D01*
X32953250Y20401000D01*
X32771500Y20219250D01*
X32767982Y20099000D01*
X32144000Y20099000D01*
X32144000Y20783701D01*
X32148363Y20828001D01*
X32144000Y20872300D01*
X32144000Y20872307D01*
X32130948Y21004823D01*
X32079371Y21174850D01*
X31995614Y21331549D01*
X31966111Y21367498D01*
X31961480Y21414517D01*
X31959616Y21420661D01*
X31972000Y21542250D01*
X31870783Y21643467D01*
X31852403Y21677853D01*
X31761554Y21788554D01*
X31650853Y21879403D01*
X31647866Y21881000D01*
X32767982Y21881000D01*
X32782019Y21738483D01*
X32823589Y21601443D01*
X32891096Y21475146D01*
X32899423Y21465000D01*
X32891096Y21454854D01*
X32823589Y21328557D01*
X32782019Y21191517D01*
X32767982Y21049000D01*
X32771500Y20928750D01*
X32953250Y20747000D01*
X33863000Y20747000D01*
X33863000Y21285750D01*
X33913000Y21335750D01*
X33913000Y22433000D01*
X32953250Y22433000D01*
X32771500Y22251250D01*
X32767982Y21881000D01*
X31647866Y21881000D01*
X31617932Y21897000D01*
X31650853Y21914597D01*
X31761554Y22005446D01*
X31852403Y22116147D01*
X31870783Y22150533D01*
X31972000Y22251750D01*
X31959616Y22373339D01*
X31961480Y22379483D01*
X31967093Y22436473D01*
X32768863Y23238243D01*
X32771500Y22960750D01*
G04 #@! TA.AperFunction,Conductor*
D36*
G36*
X32771500Y22960750D02*
G01*
X32953250Y22779000D01*
X33913000Y22779000D01*
X33913000Y22799000D01*
X34259000Y22799000D01*
X34259000Y22779000D01*
X34279000Y22779000D01*
X34279000Y22433000D01*
X34259000Y22433000D01*
X34259000Y21644250D01*
X34209000Y21594250D01*
X34209000Y20747000D01*
X34229000Y20747000D01*
X34229000Y20401000D01*
X34209000Y20401000D01*
X34209000Y19096000D01*
X34229000Y19096000D01*
X34229000Y18772686D01*
X34186314Y18730000D01*
X33863000Y18730000D01*
X33863000Y18750000D01*
X32953250Y18750000D01*
X32771500Y18568250D01*
X32767982Y18448000D01*
X32775074Y18376000D01*
X31711000Y18376000D01*
X31711000Y18751381D01*
X31848472Y18888853D01*
X31882896Y18917104D01*
X31995614Y19054451D01*
X32079371Y19211150D01*
X32113149Y19322500D01*
X32130948Y19381176D01*
X32132729Y19399255D01*
X32144000Y19513693D01*
X32144000Y19513699D01*
X32148363Y19557999D01*
X32144000Y19602299D01*
X32144000Y20099000D01*
X32767982Y20099000D01*
X32782019Y19956483D01*
X32823589Y19819443D01*
X32861509Y19748500D01*
X32823589Y19677557D01*
X32782019Y19540517D01*
X32767982Y19398000D01*
X32771500Y19277750D01*
X32953250Y19096000D01*
X33863000Y19096000D01*
X33863000Y20401000D01*
X32953250Y20401000D01*
X32771500Y20219250D01*
X32767982Y20099000D01*
X32144000Y20099000D01*
X32144000Y20783701D01*
X32148363Y20828001D01*
X32144000Y20872300D01*
X32144000Y20872307D01*
X32130948Y21004823D01*
X32079371Y21174850D01*
X31995614Y21331549D01*
X31966111Y21367498D01*
X31961480Y21414517D01*
X31959616Y21420661D01*
X31972000Y21542250D01*
X31870783Y21643467D01*
X31852403Y21677853D01*
X31761554Y21788554D01*
X31650853Y21879403D01*
X31647866Y21881000D01*
X32767982Y21881000D01*
X32782019Y21738483D01*
X32823589Y21601443D01*
X32891096Y21475146D01*
X32899423Y21465000D01*
X32891096Y21454854D01*
X32823589Y21328557D01*
X32782019Y21191517D01*
X32767982Y21049000D01*
X32771500Y20928750D01*
X32953250Y20747000D01*
X33863000Y20747000D01*
X33863000Y21285750D01*
X33913000Y21335750D01*
X33913000Y22433000D01*
X32953250Y22433000D01*
X32771500Y22251250D01*
X32767982Y21881000D01*
X31647866Y21881000D01*
X31617932Y21897000D01*
X31650853Y21914597D01*
X31761554Y22005446D01*
X31852403Y22116147D01*
X31870783Y22150533D01*
X31972000Y22251750D01*
X31959616Y22373339D01*
X31961480Y22379483D01*
X31967093Y22436473D01*
X32768863Y23238243D01*
X32771500Y22960750D01*
G37*
G04 #@! TD.AperFunction*
D35*
X50279000Y21089379D02*
X50279001Y20058621D01*
X50142685Y19922306D01*
X50087823Y19938948D01*
X49955307Y19952000D01*
X49955299Y19952000D01*
X49911000Y19956363D01*
X49866701Y19952000D01*
X49738499Y19952000D01*
X49803411Y20073443D01*
X49844981Y20210483D01*
X49859018Y20353000D01*
X49855500Y20473250D01*
X49673750Y20655000D01*
X48764000Y20655000D01*
X48764000Y20635000D01*
X48418000Y20635000D01*
X48418000Y20655000D01*
X48398000Y20655000D01*
X48398000Y21001000D01*
X48418000Y21001000D01*
X48418000Y21021000D01*
X48764000Y21021000D01*
X48764000Y21001000D01*
X49673750Y21001000D01*
X49855500Y21182750D01*
X49859018Y21303000D01*
X49857048Y21323000D01*
X50045380Y21323000D01*
X50279000Y21089379D01*
G04 #@! TA.AperFunction,Conductor*
D36*
G36*
X50279000Y21089379D02*
G01*
X50279001Y20058621D01*
X50142685Y19922306D01*
X50087823Y19938948D01*
X49955307Y19952000D01*
X49955299Y19952000D01*
X49911000Y19956363D01*
X49866701Y19952000D01*
X49738499Y19952000D01*
X49803411Y20073443D01*
X49844981Y20210483D01*
X49859018Y20353000D01*
X49855500Y20473250D01*
X49673750Y20655000D01*
X48764000Y20655000D01*
X48764000Y20635000D01*
X48418000Y20635000D01*
X48418000Y20655000D01*
X48398000Y20655000D01*
X48398000Y21001000D01*
X48418000Y21001000D01*
X48418000Y21021000D01*
X48764000Y21021000D01*
X48764000Y21001000D01*
X49673750Y21001000D01*
X49855500Y21182750D01*
X49859018Y21303000D01*
X49857048Y21323000D01*
X50045380Y21323000D01*
X50279000Y21089379D01*
G37*
G04 #@! TD.AperFunction*
G04 #@! TD*
M02*
