G04 #@! TF.GenerationSoftware,KiCad,Pcbnew,5.1.10-88a1d61d58~88~ubuntu20.04.1*
G04 #@! TF.CreationDate,2021-07-03T08:26:01-04:00*
G04 #@! TF.ProjectId,ESP8285-WLED,45535038-3238-4352-9d57-4c45442e6b69,rev?*
G04 #@! TF.SameCoordinates,Original*
G04 #@! TF.FileFunction,Copper,L2,Bot*
G04 #@! TF.FilePolarity,Positive*
%FSLAX46Y46*%
G04 Gerber Fmt 4.6, Leading zero omitted, Abs format (unit mm)*
G04 Created by KiCad (PCBNEW 5.1.10-88a1d61d58~88~ubuntu20.04.1) date 2021-07-03 08:26:01*
%MOMM*%
%LPD*%
G01*
G04 APERTURE LIST*
G04 #@! TA.AperFunction,ComponentPad*
%ADD10R,0.500000X0.900000*%
G04 #@! TD*
G04 #@! TA.AperFunction,ComponentPad*
%ADD11O,3.000000X2.000000*%
G04 #@! TD*
G04 #@! TA.AperFunction,ComponentPad*
%ADD12O,2.000000X1.000000*%
G04 #@! TD*
G04 #@! TA.AperFunction,ComponentPad*
%ADD13C,2.400000*%
G04 #@! TD*
G04 #@! TA.AperFunction,ComponentPad*
%ADD14R,2.400000X2.400000*%
G04 #@! TD*
G04 #@! TA.AperFunction,ComponentPad*
%ADD15C,1.600000*%
G04 #@! TD*
G04 #@! TA.AperFunction,ComponentPad*
%ADD16R,1.600000X1.600000*%
G04 #@! TD*
G04 #@! TA.AperFunction,ViaPad*
%ADD17C,1.200000*%
G04 #@! TD*
G04 #@! TA.AperFunction,ViaPad*
%ADD18C,1.600000*%
G04 #@! TD*
G04 #@! TA.AperFunction,Conductor*
%ADD19C,0.500000*%
G04 #@! TD*
G04 #@! TA.AperFunction,Conductor*
%ADD20C,0.350000*%
G04 #@! TD*
G04 #@! TA.AperFunction,Conductor*
%ADD21C,0.250000*%
G04 #@! TD*
G04 #@! TA.AperFunction,Conductor*
%ADD22C,0.254000*%
G04 #@! TD*
G04 #@! TA.AperFunction,Conductor*
%ADD23C,0.050000*%
G04 #@! TD*
G04 #@! TA.AperFunction,Conductor*
%ADD24C,0.025400*%
G04 #@! TD*
G04 APERTURE END LIST*
D10*
G04 #@! TO.P,AE1,2*
G04 #@! TO.N,GND*
X146431000Y-115892000D03*
G04 #@! TD*
D11*
G04 #@! TO.P,J2,6*
G04 #@! TO.N,Net-(J2-Pad6)*
X92520000Y-116771000D03*
D12*
X95200000Y-117971000D03*
X95200000Y-122821000D03*
D11*
X92520000Y-124021000D03*
G04 #@! TD*
D13*
G04 #@! TO.P,J1,4*
G04 #@! TO.N,GND*
X94488000Y-112100000D03*
G04 #@! TO.P,J1,3*
G04 #@! TO.N,Net-(J1-Pad3)*
X94488000Y-108600000D03*
G04 #@! TO.P,J1,2*
G04 #@! TO.N,+12V*
X94488000Y-105100000D03*
D14*
G04 #@! TO.P,J1,1*
G04 #@! TO.N,+5V*
X94488000Y-101600000D03*
G04 #@! TD*
D15*
G04 #@! TO.P,C3,2*
G04 #@! TO.N,GND*
X96480000Y-95250000D03*
D16*
G04 #@! TO.P,C3,1*
G04 #@! TO.N,+12V*
X93980000Y-95250000D03*
G04 #@! TD*
D17*
G04 #@! TO.N,GND*
X130556000Y-111252000D03*
X132080000Y-111252000D03*
X132080000Y-109728000D03*
X130556000Y-109728000D03*
X106934000Y-121412000D03*
D18*
X145796000Y-111252000D03*
X145796000Y-108585000D03*
X145796000Y-100965000D03*
X145796000Y-98552000D03*
X145859500Y-120396000D03*
X145859500Y-122936000D03*
X145859500Y-125349000D03*
X145796000Y-96012000D03*
X145796000Y-93472000D03*
X145859500Y-117856000D03*
X104775000Y-94869000D03*
X102489000Y-96266000D03*
X116840000Y-100584000D03*
X119761000Y-113157000D03*
X114935000Y-114935000D03*
X111506000Y-116586000D03*
X105664000Y-117856000D03*
X100584000Y-124333000D03*
X99060000Y-113665000D03*
X114554000Y-103378000D03*
X141795500Y-121094500D03*
X141795500Y-125412500D03*
X143891000Y-115506500D03*
X101282500Y-110363000D03*
X108712000Y-106807000D03*
X112458500Y-106680000D03*
X101409500Y-100266500D03*
X109220000Y-111887000D03*
X134366000Y-101346000D03*
D17*
X138557000Y-104775000D03*
D18*
X134747000Y-104648000D03*
X130810000Y-97663000D03*
X123190000Y-102108000D03*
X125095000Y-102108000D03*
X140462000Y-111379000D03*
X137668000Y-100711000D03*
X131508500Y-120015000D03*
X123634500Y-119189500D03*
X124587000Y-117475000D03*
X129159000Y-120142000D03*
X111696500Y-125349000D03*
X97980500Y-121856500D03*
X127190500Y-120205500D03*
X125349000Y-120078500D03*
X127190500Y-124460000D03*
X138620500Y-115570000D03*
X138493500Y-118300500D03*
X138366500Y-121348500D03*
X133350000Y-119761000D03*
X123507500Y-109664500D03*
X121412000Y-107950000D03*
X145796000Y-106172000D03*
X145796000Y-103632000D03*
G04 #@! TO.N,+12V*
X96393000Y-105029000D03*
D17*
G04 #@! TO.N,+3V3*
X112141000Y-121793000D03*
X110617000Y-118745000D03*
X111633000Y-114046000D03*
X114998500Y-110236000D03*
X135699500Y-114490500D03*
X134112000Y-116840000D03*
X132715000Y-121920000D03*
X119570500Y-116649500D03*
X121348500Y-120015000D03*
G04 #@! TO.N,+5V*
X99060000Y-110871000D03*
D18*
G04 #@! TO.N,Net-(J1-Pad3)*
X96266000Y-108585000D03*
D17*
G04 #@! TO.N,/RST*
X134683500Y-122428000D03*
X136207500Y-115951000D03*
G04 #@! TO.N,/GPIO0*
X128905000Y-105537000D03*
X128778000Y-101219000D03*
X116205000Y-118427500D03*
X117919500Y-122428000D03*
X127000000Y-108902500D03*
G04 #@! TO.N,Net-(R10-Pad2)*
X100711000Y-107315000D03*
X110363000Y-109156500D03*
G04 #@! TO.N,/D-*
X100203000Y-119380000D03*
X100203000Y-121666000D03*
G04 #@! TO.N,/CUTXD*
X119634000Y-120142000D03*
X117729000Y-118872000D03*
G04 #@! TO.N,WLED*
X127381000Y-106616500D03*
X120650000Y-102997000D03*
G04 #@! TO.N,/5VOUT*
X109347000Y-96393000D03*
X104605000Y-105262500D03*
G04 #@! TD*
D19*
G04 #@! TO.N,+12V*
X96353288Y-105068709D02*
X96344082Y-105076263D01*
X93404018Y-105082128D02*
X93585463Y-105100000D01*
X92184374Y-104351101D02*
X92300038Y-104492038D01*
X91997136Y-104038713D02*
X92083082Y-104199507D01*
X94387555Y-105100000D02*
X94191184Y-105100000D01*
X91821000Y-103335534D02*
X91838870Y-103516979D01*
X96289600Y-105098832D02*
X96277748Y-105100000D01*
X91874439Y-103695797D02*
X91927364Y-103870269D01*
X91856494Y-98394193D02*
X91821000Y-98754577D01*
X93050728Y-104993634D02*
X93225200Y-105046559D01*
X96312675Y-105093051D02*
X96301279Y-105096508D01*
X92032261Y-97692489D02*
X91927141Y-98039024D01*
X94784250Y-105100000D02*
X94586750Y-105100000D01*
X93994814Y-105100000D02*
X93798443Y-105100000D01*
X92721490Y-104837915D02*
X92882283Y-104923861D01*
X92772467Y-96457530D02*
X92542735Y-96737459D01*
X92428959Y-104620959D02*
X92569896Y-104736623D01*
X95179250Y-105100000D02*
X94981750Y-105100000D01*
X96334180Y-105082879D02*
X96323678Y-105088493D01*
X92341547Y-97038558D02*
X92170841Y-97357926D01*
X96289600Y-105098832D02*
X96301279Y-105096508D01*
X93404018Y-105082128D02*
X93225200Y-105046559D01*
X91856494Y-98394193D02*
X91927141Y-98039024D01*
X91838870Y-103516979D02*
X91874439Y-103695797D01*
X92721490Y-104837915D02*
X92569896Y-104736623D01*
X94784250Y-105100000D02*
X94981750Y-105100000D01*
X94191184Y-105100000D02*
X93994814Y-105100000D01*
X96344082Y-105076263D02*
X96334180Y-105082879D01*
X92542735Y-96737459D02*
X92341547Y-97038558D01*
X92184374Y-104351101D02*
X92083082Y-104199507D01*
X93050728Y-104993634D02*
X92882283Y-104923861D01*
X96312675Y-105093051D02*
X96323678Y-105088493D01*
X92032261Y-97692489D02*
X92170841Y-97357926D01*
X91997136Y-104038713D02*
X91927364Y-103870269D01*
X94387555Y-105100000D02*
X94586750Y-105100000D01*
X93585463Y-105100000D02*
X93798443Y-105100000D01*
X92300038Y-104492038D02*
X92428959Y-104620959D01*
X92772467Y-96457530D02*
X93980000Y-95250000D01*
X91821000Y-103335534D02*
X91821000Y-98754577D01*
X96353288Y-105068709D02*
X96393000Y-105029000D01*
X96277748Y-105100000D02*
X95179250Y-105100000D01*
G04 #@! TO.N,+3V3*
X135663983Y-114490500D02*
X135656488Y-114491237D01*
X134989574Y-119951275D02*
X134915372Y-120195888D01*
X134817551Y-120432049D02*
X134697053Y-120657486D01*
X134555038Y-120870026D02*
X134392874Y-121067623D01*
X134644734Y-117372734D02*
X134746086Y-117496232D01*
X119745118Y-118198991D02*
X119830323Y-118358398D01*
D20*
X111098896Y-119271045D02*
X111149103Y-119364977D01*
X110972154Y-119100154D02*
X111039722Y-119182486D01*
D19*
X134169116Y-116091144D02*
X134140696Y-116184834D01*
X134834845Y-117629069D02*
X134910156Y-117769966D01*
X133797742Y-121662755D02*
X133722059Y-121724866D01*
X134252736Y-115914344D02*
X134206583Y-116000690D01*
X121347761Y-119971988D02*
X121348500Y-119979483D01*
X121337672Y-119943794D02*
X121341222Y-119950436D01*
D20*
X111252000Y-120349937D02*
X111266615Y-120498330D01*
D19*
X134971295Y-117917568D02*
X135017671Y-118070451D01*
X133463853Y-121862881D02*
X133370162Y-121891302D01*
X121328711Y-119931711D02*
X121333489Y-119937533D01*
D20*
X114893427Y-110778262D02*
X114859982Y-110819015D01*
D19*
X135048840Y-118227143D02*
X135064500Y-118386136D01*
X135634936Y-114497774D02*
X135628294Y-114501324D01*
D20*
X114983046Y-110588780D02*
X114967742Y-110639228D01*
D19*
X119570500Y-117501874D02*
X119588216Y-117681754D01*
X121344105Y-119957395D02*
X121346292Y-119964602D01*
X134206584Y-116853807D02*
X134252737Y-116940153D01*
X134369241Y-115757255D02*
X134307130Y-115832938D01*
X134140696Y-116669663D02*
X134169117Y-116763353D01*
D20*
X111241559Y-119669762D02*
X111252000Y-119775757D01*
X111396052Y-120925029D02*
X111466343Y-121056533D01*
D19*
X133640653Y-121779260D02*
X133554307Y-121825413D01*
X133274137Y-121910403D02*
X133176701Y-121920000D01*
X119930743Y-118508687D02*
X120045410Y-118648410D01*
D20*
X114947568Y-110687934D02*
X114922716Y-110734428D01*
D19*
X119623479Y-117859032D02*
X119675948Y-118031999D01*
D20*
X111189862Y-119463378D02*
X111220780Y-119565300D01*
D19*
X134121596Y-116280861D02*
X134112000Y-116378295D01*
X134112000Y-116476202D02*
X134121596Y-116573636D01*
X135064500Y-119446177D02*
X135039444Y-119700566D01*
D20*
X114998500Y-110484608D02*
X114993332Y-110537074D01*
D19*
X135649102Y-114492706D02*
X135641895Y-114494892D01*
X135622033Y-114505508D02*
X135616211Y-114510286D01*
X134307131Y-117021559D02*
X134369242Y-117097242D01*
D20*
X111295705Y-120644577D02*
X111338990Y-120787267D01*
X111549184Y-121180515D02*
X111643779Y-121295779D01*
D19*
X135017671Y-118070451D02*
X135048840Y-118227143D01*
D20*
X114983046Y-110588780D02*
X114993332Y-110537074D01*
D19*
X134697053Y-120657486D02*
X134555038Y-120870026D01*
D20*
X111466343Y-121056533D02*
X111549184Y-121180515D01*
D19*
X135628294Y-114501324D02*
X135622033Y-114505508D01*
X121347761Y-119971988D02*
X121346292Y-119964602D01*
X133722059Y-121724866D02*
X133640653Y-121779260D01*
X119588216Y-117681754D02*
X119623479Y-117859032D01*
X121337672Y-119943794D02*
X121333489Y-119937533D01*
X134140696Y-116669663D02*
X134121596Y-116573636D01*
X134989574Y-119951275D02*
X135039444Y-119700566D01*
X134140696Y-116184834D02*
X134121596Y-116280861D01*
D20*
X114893427Y-110778262D02*
X114922716Y-110734428D01*
D19*
X133370162Y-121891302D02*
X133274137Y-121910403D01*
X134746086Y-117496232D02*
X134834845Y-117629069D01*
X134252737Y-116940153D02*
X134307131Y-117021559D01*
X134252736Y-115914344D02*
X134307130Y-115832938D01*
D20*
X111098896Y-119271045D02*
X111039722Y-119182486D01*
X111266615Y-120498330D02*
X111295705Y-120644577D01*
D19*
X119830323Y-118358398D02*
X119930743Y-118508687D01*
D20*
X111241559Y-119669762D02*
X111220780Y-119565300D01*
D19*
X135656488Y-114491237D02*
X135649102Y-114492706D01*
X134915372Y-120195888D02*
X134817551Y-120432049D01*
X134206584Y-116853807D02*
X134169117Y-116763353D01*
X121341222Y-119950436D02*
X121344105Y-119957395D01*
D20*
X114967742Y-110639228D02*
X114947568Y-110687934D01*
D19*
X134169116Y-116091144D02*
X134206583Y-116000690D01*
X133463853Y-121862881D02*
X133554307Y-121825413D01*
X119745118Y-118198991D02*
X119675948Y-118031999D01*
X134910156Y-117769966D02*
X134971295Y-117917568D01*
D20*
X111149103Y-119364977D02*
X111189862Y-119463378D01*
X111396052Y-120925029D02*
X111338990Y-120787267D01*
D19*
X135634936Y-114497774D02*
X135641895Y-114494892D01*
D20*
X110972154Y-119100154D02*
X110617000Y-118745000D01*
X111252000Y-120349937D02*
X111252000Y-119775757D01*
X111643779Y-121295779D02*
X112141000Y-121793000D01*
X114859982Y-110819015D02*
X111633000Y-114046000D01*
X114998500Y-110484608D02*
X114998500Y-110236000D01*
D19*
X119570500Y-117501874D02*
X119570500Y-116649500D01*
X121328711Y-119931711D02*
X120045410Y-118648410D01*
X121348500Y-119979483D02*
X121348500Y-120015000D01*
X134644734Y-117372734D02*
X134369242Y-117097242D01*
X135064500Y-118386136D02*
X135064500Y-119446177D01*
X134392874Y-121067623D02*
X133797742Y-121662755D01*
X133176701Y-121920000D02*
X132715000Y-121920000D01*
X135663983Y-114490500D02*
X135699500Y-114490500D01*
X134369241Y-115757255D02*
X135616211Y-114510286D01*
X134112000Y-116378295D02*
X134112000Y-116476202D01*
G04 #@! TO.N,+5V*
X97641414Y-102546882D02*
X97731787Y-102715958D01*
X97129519Y-101982094D02*
X97277717Y-102103717D01*
X97917000Y-109015633D02*
X97935791Y-109206425D01*
X97805154Y-102893081D02*
X97860806Y-103076541D01*
X96252425Y-101618791D02*
X96061633Y-101600000D01*
X97413280Y-102239280D02*
X97534903Y-102387477D01*
X97973192Y-109394456D02*
X98028844Y-109577916D01*
X97898208Y-103264572D02*
X97917000Y-103455364D01*
X98102210Y-109755037D02*
X98192584Y-109924115D01*
X96801037Y-101785210D02*
X96970115Y-101875584D01*
X98299095Y-110083520D02*
X98420718Y-110231718D01*
X96440456Y-101656192D02*
X96623916Y-101711844D01*
X97641414Y-102546882D02*
X97534903Y-102387477D01*
X96252425Y-101618791D02*
X96440456Y-101656192D01*
X98192584Y-109924115D02*
X98299095Y-110083520D01*
X97129519Y-101982094D02*
X96970115Y-101875584D01*
X97860806Y-103076541D02*
X97898208Y-103264572D01*
X97935791Y-109206425D02*
X97973192Y-109394456D01*
X96801037Y-101785210D02*
X96623916Y-101711844D01*
X97731787Y-102715958D02*
X97805154Y-102893081D01*
X98028844Y-109577916D02*
X98102210Y-109755037D01*
X96061633Y-101600000D02*
X94488000Y-101600000D01*
X97277717Y-102103717D02*
X97413280Y-102239280D01*
X97917000Y-109015633D02*
X97917000Y-103455364D01*
X98420718Y-110231718D02*
X99060000Y-110871000D01*
G04 #@! TO.N,Net-(J1-Pad3)*
X96257609Y-108593388D02*
X96255664Y-108594984D01*
X96249028Y-108598531D02*
X96246621Y-108599261D01*
X96244153Y-108599753D02*
X96241649Y-108600000D01*
X96253573Y-108596382D02*
X96251354Y-108597568D01*
X96246621Y-108599261D02*
X96244153Y-108599753D01*
X96255664Y-108594984D02*
X96253573Y-108596382D01*
X96249028Y-108598531D02*
X96251354Y-108597568D01*
X96241649Y-108600000D02*
X94488000Y-108600000D01*
X96257609Y-108593388D02*
X96266000Y-108585000D01*
D21*
G04 #@! TO.N,/RST*
X135763000Y-120675709D02*
X135745252Y-120855902D01*
X135806494Y-116453864D02*
X135784852Y-116525210D01*
X135402130Y-121684267D02*
X135287265Y-121824232D01*
X135958888Y-116199609D02*
X135911591Y-116257241D01*
X135588077Y-121374034D02*
X135502724Y-121533718D01*
X135770307Y-116598333D02*
X135763000Y-116672530D01*
X135870170Y-116319231D02*
X135835025Y-116384983D01*
X135709928Y-121033487D02*
X135657368Y-121206754D01*
X135784852Y-116525210D02*
X135770307Y-116598333D01*
X135402130Y-121684267D02*
X135502724Y-121533718D01*
X135745252Y-120855902D02*
X135709928Y-121033487D01*
X135911591Y-116257241D02*
X135870170Y-116319231D01*
X135806494Y-116453864D02*
X135835025Y-116384983D01*
X135588077Y-121374034D02*
X135657368Y-121206754D01*
X135958888Y-116199609D02*
X136207500Y-115951000D01*
X135763000Y-120675709D02*
X135763000Y-116672530D01*
X135287265Y-121824232D02*
X134683500Y-122428000D01*
D20*
G04 #@! TO.N,/GPIO0*
X116310070Y-118969762D02*
X116343515Y-119010515D01*
X117345648Y-120012648D02*
X117484204Y-120181479D01*
X128863840Y-105543007D02*
X128843757Y-105580580D01*
X128905000Y-102346125D02*
X128905000Y-102441375D01*
X116220451Y-118780280D02*
X116235754Y-118830728D01*
X128905000Y-101965125D02*
X128905000Y-102060375D01*
X128655175Y-105906903D02*
X128651000Y-105949301D01*
X128874378Y-101324208D02*
X128884419Y-101342994D01*
X128849030Y-101290030D02*
X128862543Y-101306496D01*
X128395827Y-107107923D02*
X128314605Y-107206892D01*
X128651000Y-106394765D02*
X128638450Y-106522180D01*
X127118726Y-108402771D02*
X127090059Y-108437701D01*
X128613472Y-106647751D02*
X128576306Y-106770269D01*
X128712239Y-105747417D02*
X128692156Y-105784990D01*
X127064955Y-108475274D02*
X127043653Y-108515125D01*
X128527311Y-106888556D02*
X128466957Y-107001469D01*
X117605545Y-120363078D02*
X117708501Y-120555696D01*
X128820088Y-105616003D02*
X128793061Y-105648936D01*
X127026361Y-108556874D02*
X127013243Y-108600115D01*
X128902912Y-101403951D02*
X128905000Y-101425150D01*
X128892572Y-101362674D02*
X128898756Y-101383058D01*
X128905000Y-102155625D02*
X128905000Y-102250875D01*
X128905000Y-101774625D02*
X128905000Y-101869875D01*
X117792082Y-120757477D02*
X117855482Y-120966480D01*
X128905000Y-105378695D02*
X128900823Y-105421093D01*
X127004428Y-108644435D02*
X127000000Y-108689405D01*
X128675853Y-105824350D02*
X128663487Y-105865119D01*
X128762936Y-105679061D02*
X128735909Y-105711994D01*
X116205000Y-118676109D02*
X116210167Y-118728574D01*
X117898092Y-121180690D02*
X117919500Y-121398045D01*
X128892512Y-105462878D02*
X128880144Y-105503647D01*
X116255929Y-118879434D02*
X116280781Y-118925928D01*
X128712239Y-105747417D02*
X128735909Y-105711994D01*
X127013243Y-108600115D02*
X127004428Y-108644435D01*
X128395827Y-107107923D02*
X128466957Y-107001469D01*
X128900823Y-105421093D02*
X128892512Y-105462878D01*
X117484204Y-120181479D02*
X117605545Y-120363078D01*
X117855482Y-120966480D02*
X117898092Y-121180690D01*
X127090059Y-108437701D02*
X127064955Y-108475274D01*
X128874378Y-101324208D02*
X128862543Y-101306496D01*
X128905000Y-102346125D02*
X128905000Y-102250875D01*
X128638450Y-106522180D02*
X128613472Y-106647751D01*
X128843757Y-105580580D02*
X128820088Y-105616003D01*
X116220451Y-118780280D02*
X116210167Y-118728574D01*
X116310070Y-118969762D02*
X116280781Y-118925928D01*
X128902912Y-101403951D02*
X128898756Y-101383058D01*
X128905000Y-101965125D02*
X128905000Y-101869875D01*
X128655175Y-105906903D02*
X128663487Y-105865119D01*
X128884419Y-101342994D02*
X128892572Y-101362674D01*
X128692156Y-105784990D02*
X128675853Y-105824350D01*
X116235754Y-118830728D02*
X116255929Y-118879434D01*
X128576306Y-106770269D02*
X128527311Y-106888556D01*
X117708501Y-120555696D02*
X117792082Y-120757477D01*
X127043653Y-108515125D02*
X127026361Y-108556874D01*
X128905000Y-102060375D02*
X128905000Y-102155625D01*
X128863840Y-105543007D02*
X128880144Y-105503647D01*
X128905000Y-102441375D02*
X128905000Y-105378695D01*
X128905000Y-101425150D02*
X128905000Y-101774625D01*
X128849030Y-101290030D02*
X128778000Y-101219000D01*
X116205000Y-118676109D02*
X116205000Y-118427500D01*
X116343515Y-119010515D02*
X117345648Y-120012648D01*
X117919500Y-121398045D02*
X117919500Y-122428000D01*
X128793061Y-105648936D02*
X128762936Y-105679061D01*
X128651000Y-105949301D02*
X128651000Y-106394765D01*
X128314605Y-107206892D02*
X127118726Y-108402771D01*
X127000000Y-108689405D02*
X127000000Y-108902500D01*
G04 #@! TO.N,Net-(R10-Pad2)*
X101954047Y-108558047D02*
X102242209Y-108794535D01*
X103225327Y-109320022D02*
X103582054Y-109428234D01*
X109808141Y-109531235D02*
X109744543Y-109537500D01*
X109931970Y-109500217D02*
X109870817Y-109518768D01*
X110149905Y-109369593D02*
X110100505Y-109410133D01*
X110047371Y-109445637D02*
X109991012Y-109475761D01*
X102552163Y-109001639D02*
X102880924Y-109177366D01*
X103947670Y-109500961D02*
X104318654Y-109537500D01*
X110100505Y-109410133D02*
X110047371Y-109445637D01*
X109808141Y-109531235D02*
X109870817Y-109518768D01*
X102242209Y-108794535D02*
X102552163Y-109001639D01*
X103582054Y-109428234D02*
X103947670Y-109500961D01*
X109931970Y-109500217D02*
X109991012Y-109475761D01*
X103225327Y-109320022D02*
X102880924Y-109177366D01*
X101954047Y-108558047D02*
X100711000Y-107315000D01*
X110149905Y-109369593D02*
X110363000Y-109156500D01*
X109744543Y-109537500D02*
X104318654Y-109537500D01*
G04 #@! TO.N,/D-*
X100203000Y-119380000D02*
X100203000Y-121666000D01*
G04 #@! TO.N,/CUTXD*
X118503660Y-119022100D02*
X118561877Y-119069877D01*
X118374620Y-118944757D02*
X118441040Y-118980258D01*
X118159105Y-118879381D02*
X118084155Y-118872000D01*
X118232970Y-118894074D02*
X118305040Y-118915936D01*
X118159105Y-118879381D02*
X118232970Y-118894074D01*
X118503660Y-119022100D02*
X118441040Y-118980258D01*
X118374620Y-118944757D02*
X118305040Y-118915936D01*
X118084155Y-118872000D02*
X117729000Y-118872000D01*
X118561877Y-119069877D02*
X119634000Y-120142000D01*
G04 #@! TO.N,WLED*
X121324795Y-106084795D02*
X121481226Y-106213174D01*
X122014919Y-106498440D02*
X122208571Y-106557184D01*
X120709314Y-105057926D02*
X120768057Y-105251578D01*
X120650000Y-104658057D02*
X120669835Y-104859448D01*
X122407049Y-106596664D02*
X122608440Y-106616500D01*
X120845499Y-105438539D02*
X120940894Y-105617010D01*
X121053322Y-105785271D02*
X121181702Y-105941702D01*
X121649487Y-106325603D02*
X121827958Y-106420998D01*
X122208571Y-106557184D02*
X122407049Y-106596664D01*
X120709314Y-105057926D02*
X120669835Y-104859448D01*
X120940894Y-105617010D02*
X121053322Y-105785271D01*
X121481226Y-106213174D02*
X121649487Y-106325603D01*
X122014919Y-106498440D02*
X121827958Y-106420998D01*
X120768057Y-105251578D02*
X120845499Y-105438539D01*
X122608440Y-106616500D02*
X127381000Y-106616500D01*
X121324795Y-106084795D02*
X121181702Y-105941702D01*
X120650000Y-104658057D02*
X120650000Y-102997000D01*
D19*
G04 #@! TO.N,/5VOUT*
X106707312Y-99818105D02*
X106680000Y-100095420D01*
X106410794Y-101448799D02*
X106279436Y-101694552D01*
X104728022Y-103649581D02*
X104666808Y-103851377D01*
X104908126Y-103268782D02*
X104808720Y-103454758D01*
X106598322Y-100924695D02*
X106517433Y-101191353D01*
X104625669Y-104058201D02*
X104605000Y-104268062D01*
X107412152Y-98327845D02*
X107235374Y-98543249D01*
X105159060Y-102930436D02*
X105025282Y-103093445D01*
X106680000Y-100374077D02*
X106652686Y-100651392D01*
X106124623Y-101926247D02*
X105947845Y-102141652D01*
X107080561Y-98774944D02*
X106949203Y-99020698D01*
X106842565Y-99278144D02*
X106761675Y-99544802D01*
X106279436Y-101694552D02*
X106124623Y-101926247D01*
X104908126Y-103268782D02*
X105025282Y-103093445D01*
X107235374Y-98543249D02*
X107080561Y-98774944D01*
X106598322Y-100924695D02*
X106652686Y-100651392D01*
X104666808Y-103851377D02*
X104625669Y-104058201D01*
X106707312Y-99818105D02*
X106761675Y-99544802D01*
X104728022Y-103649581D02*
X104808720Y-103454758D01*
X106410794Y-101448799D02*
X106517433Y-101191353D01*
X106949203Y-99020698D02*
X106842565Y-99278144D01*
X107412152Y-98327845D02*
X109347000Y-96393000D01*
X106680000Y-100095420D02*
X106680000Y-100374077D01*
X105159060Y-102930436D02*
X105947845Y-102141652D01*
X104605000Y-104268062D02*
X104605000Y-105262500D01*
G04 #@! TD*
D22*
G04 #@! TO.N,GND*
X146558000Y-126248000D02*
X90922000Y-126248000D01*
X90922000Y-125354017D01*
X91055888Y-125463896D01*
X91355908Y-125624260D01*
X91681449Y-125723012D01*
X91935159Y-125748000D01*
X93104841Y-125748000D01*
X93358551Y-125723012D01*
X93684092Y-125624260D01*
X93984112Y-125463896D01*
X94247082Y-125248082D01*
X94462896Y-124985112D01*
X94623260Y-124685092D01*
X94722012Y-124359551D01*
X94752697Y-124048000D01*
X95760268Y-124048000D01*
X95940534Y-124030245D01*
X96171824Y-123960084D01*
X96384983Y-123846149D01*
X96571817Y-123692817D01*
X96725149Y-123505983D01*
X96839084Y-123292824D01*
X96909245Y-123061534D01*
X96932936Y-122821000D01*
X96909245Y-122580466D01*
X96839084Y-122349176D01*
X96725149Y-122136017D01*
X96571817Y-121949183D01*
X96384983Y-121795851D01*
X96171824Y-121681916D01*
X95940534Y-121611755D01*
X95760268Y-121594000D01*
X94639732Y-121594000D01*
X94459466Y-121611755D01*
X94228176Y-121681916D01*
X94015017Y-121795851D01*
X93828183Y-121949183D01*
X93674851Y-122136017D01*
X93560916Y-122349176D01*
X93552249Y-122377746D01*
X93358551Y-122318988D01*
X93104841Y-122294000D01*
X91935159Y-122294000D01*
X91681449Y-122318988D01*
X91355908Y-122417740D01*
X91055888Y-122578104D01*
X90922000Y-122687983D01*
X90922000Y-119249302D01*
X98876000Y-119249302D01*
X98876000Y-119510698D01*
X98926996Y-119767072D01*
X99027028Y-120008570D01*
X99061737Y-120060515D01*
X99074491Y-120084883D01*
X99094482Y-120120594D01*
X99148551Y-120211102D01*
X99162417Y-120233389D01*
X99213941Y-120312964D01*
X99215539Y-120315420D01*
X99256200Y-120377666D01*
X99278127Y-120414083D01*
X99285717Y-120429240D01*
X99288235Y-120435999D01*
X99292171Y-120452164D01*
X99297599Y-120493921D01*
X99298700Y-120522999D01*
X99297599Y-120552077D01*
X99292171Y-120593835D01*
X99288235Y-120610000D01*
X99285717Y-120616759D01*
X99278127Y-120631916D01*
X99256200Y-120668333D01*
X99215539Y-120730579D01*
X99213941Y-120733035D01*
X99162417Y-120812610D01*
X99148551Y-120834897D01*
X99094482Y-120925405D01*
X99074489Y-120961119D01*
X99061733Y-120985491D01*
X99027028Y-121037430D01*
X98926996Y-121278928D01*
X98876000Y-121535302D01*
X98876000Y-121796698D01*
X98926996Y-122053072D01*
X99027028Y-122294570D01*
X99172252Y-122511913D01*
X99357087Y-122696748D01*
X99574430Y-122841972D01*
X99815928Y-122942004D01*
X100072302Y-122993000D01*
X100333698Y-122993000D01*
X100590072Y-122942004D01*
X100831570Y-122841972D01*
X101048913Y-122696748D01*
X101233748Y-122511913D01*
X101378972Y-122294570D01*
X101479004Y-122053072D01*
X101530000Y-121796698D01*
X101530000Y-121535302D01*
X101479004Y-121278928D01*
X101378972Y-121037430D01*
X101344262Y-120985483D01*
X101331507Y-120961114D01*
X101311517Y-120925405D01*
X101257448Y-120834897D01*
X101243582Y-120812610D01*
X101192058Y-120733035D01*
X101190460Y-120730579D01*
X101149799Y-120668333D01*
X101127872Y-120631916D01*
X101120282Y-120616759D01*
X101117764Y-120610000D01*
X101113828Y-120593835D01*
X101108400Y-120552078D01*
X101107299Y-120523000D01*
X101108400Y-120493921D01*
X101113828Y-120452164D01*
X101117764Y-120435999D01*
X101120282Y-120429240D01*
X101127872Y-120414083D01*
X101149799Y-120377666D01*
X101190460Y-120315420D01*
X101192058Y-120312964D01*
X101243582Y-120233389D01*
X101257448Y-120211102D01*
X101311517Y-120120594D01*
X101331506Y-120084887D01*
X101344260Y-120060520D01*
X101378972Y-120008570D01*
X101479004Y-119767072D01*
X101530000Y-119510698D01*
X101530000Y-119249302D01*
X101479004Y-118992928D01*
X101378972Y-118751430D01*
X101287346Y-118614302D01*
X109290000Y-118614302D01*
X109290000Y-118875698D01*
X109340996Y-119132072D01*
X109441028Y-119373570D01*
X109586252Y-119590913D01*
X109771087Y-119775748D01*
X109988430Y-119920972D01*
X110229928Y-120021004D01*
X110294506Y-120033849D01*
X110334254Y-120044948D01*
X110350000Y-120048783D01*
X110350000Y-120394243D01*
X110351457Y-120409040D01*
X110373301Y-120630832D01*
X110373303Y-120630841D01*
X110373303Y-120630843D01*
X110416950Y-120850270D01*
X110419684Y-120864017D01*
X110485504Y-121080993D01*
X110488694Y-121091508D01*
X110542686Y-121221859D01*
X110596425Y-121354437D01*
X110637808Y-121461943D01*
X110670493Y-121552242D01*
X110697437Y-121631816D01*
X110721698Y-121707988D01*
X110746149Y-121787951D01*
X110772287Y-121874220D01*
X110773582Y-121878448D01*
X110802994Y-121973439D01*
X110805625Y-121981761D01*
X110840252Y-122089020D01*
X110843615Y-122099179D01*
X110856408Y-122136898D01*
X110864996Y-122180072D01*
X110965028Y-122421570D01*
X111110252Y-122638913D01*
X111295087Y-122823748D01*
X111512430Y-122968972D01*
X111753928Y-123069004D01*
X112010302Y-123120000D01*
X112271698Y-123120000D01*
X112528072Y-123069004D01*
X112769570Y-122968972D01*
X112986913Y-122823748D01*
X113171748Y-122638913D01*
X113316972Y-122421570D01*
X113417004Y-122180072D01*
X113468000Y-121923698D01*
X113468000Y-121662302D01*
X113417004Y-121405928D01*
X113316972Y-121164430D01*
X113171748Y-120947087D01*
X112986913Y-120762252D01*
X112769570Y-120617028D01*
X112528072Y-120516996D01*
X112449526Y-120501372D01*
X112435883Y-120497375D01*
X112378064Y-120482979D01*
X112277741Y-120462326D01*
X112244792Y-120456331D01*
X112177981Y-120445757D01*
X112171728Y-120425144D01*
X112159929Y-120365826D01*
X112154000Y-120305629D01*
X112154000Y-119731450D01*
X112152708Y-119718326D01*
X112147582Y-119666293D01*
X112140948Y-119598934D01*
X112140947Y-119598931D01*
X112135568Y-119544321D01*
X112134871Y-119537245D01*
X112134363Y-119534693D01*
X112128671Y-119478279D01*
X112128013Y-119472030D01*
X112112947Y-119334620D01*
X112111598Y-119323151D01*
X112096738Y-119204977D01*
X112094289Y-119187265D01*
X112078560Y-119082971D01*
X112074618Y-119059459D01*
X112056946Y-118963693D01*
X112051519Y-118937079D01*
X112030829Y-118844488D01*
X112024677Y-118819105D01*
X111999895Y-118724336D01*
X111994261Y-118704002D01*
X111964312Y-118601701D01*
X111960168Y-118588046D01*
X111923978Y-118472861D01*
X111921590Y-118465402D01*
X111903106Y-118408715D01*
X111893004Y-118357928D01*
X111867685Y-118296802D01*
X114878000Y-118296802D01*
X114878000Y-118558198D01*
X114928996Y-118814572D01*
X115029028Y-119056070D01*
X115174252Y-119273413D01*
X115242471Y-119341632D01*
X115292377Y-119397885D01*
X115329123Y-119436371D01*
X115414971Y-119519933D01*
X115455839Y-119556805D01*
X115537146Y-119624759D01*
X115574732Y-119654132D01*
X115653948Y-119711956D01*
X115678684Y-119729237D01*
X115758257Y-119782405D01*
X115763654Y-119785976D01*
X115839203Y-119835488D01*
X115906776Y-119881971D01*
X115973121Y-119932115D01*
X116047584Y-119995150D01*
X116143817Y-120086437D01*
X116676512Y-120619133D01*
X116758838Y-120719447D01*
X116830943Y-120827361D01*
X116892117Y-120941809D01*
X116941785Y-121061719D01*
X116979461Y-121185918D01*
X117003963Y-121309097D01*
X117007436Y-121376591D01*
X117006549Y-121390839D01*
X116989123Y-121418463D01*
X116947132Y-121479255D01*
X116944928Y-121482464D01*
X116890830Y-121561687D01*
X116873853Y-121587727D01*
X116818004Y-121677531D01*
X116793522Y-121720031D01*
X116781577Y-121742486D01*
X116743528Y-121799430D01*
X116643496Y-122040928D01*
X116592500Y-122297302D01*
X116592500Y-122558698D01*
X116643496Y-122815072D01*
X116743528Y-123056570D01*
X116888752Y-123273913D01*
X117073587Y-123458748D01*
X117290930Y-123603972D01*
X117532428Y-123704004D01*
X117788802Y-123755000D01*
X118050198Y-123755000D01*
X118306572Y-123704004D01*
X118548070Y-123603972D01*
X118765413Y-123458748D01*
X118950248Y-123273913D01*
X119095472Y-123056570D01*
X119195504Y-122815072D01*
X119246500Y-122558698D01*
X119246500Y-122297302D01*
X119195504Y-122040928D01*
X119095472Y-121799430D01*
X119088705Y-121789302D01*
X131388000Y-121789302D01*
X131388000Y-122050698D01*
X131438996Y-122307072D01*
X131539028Y-122548570D01*
X131684252Y-122765913D01*
X131869087Y-122950748D01*
X132086430Y-123095972D01*
X132327928Y-123196004D01*
X132584302Y-123247000D01*
X132845698Y-123247000D01*
X133102072Y-123196004D01*
X133343570Y-123095972D01*
X133386322Y-123067406D01*
X133440374Y-123040019D01*
X133490702Y-123015948D01*
X133507528Y-123056570D01*
X133652752Y-123273913D01*
X133837587Y-123458748D01*
X134054930Y-123603972D01*
X134296428Y-123704004D01*
X134552802Y-123755000D01*
X134814198Y-123755000D01*
X135070572Y-123704004D01*
X135312070Y-123603972D01*
X135529413Y-123458748D01*
X135714248Y-123273913D01*
X135859472Y-123056570D01*
X135957908Y-122818925D01*
X136123000Y-122818925D01*
X136123000Y-123031075D01*
X136164389Y-123239149D01*
X136245575Y-123435151D01*
X136363440Y-123611547D01*
X136513453Y-123761560D01*
X136608397Y-123825000D01*
X136513453Y-123888440D01*
X136363440Y-124038453D01*
X136245575Y-124214849D01*
X136164389Y-124410851D01*
X136123000Y-124618925D01*
X136123000Y-124831075D01*
X136164389Y-125039149D01*
X136245575Y-125235151D01*
X136363440Y-125411547D01*
X136513453Y-125561560D01*
X136689849Y-125679425D01*
X136885851Y-125760611D01*
X137093925Y-125802000D01*
X137306075Y-125802000D01*
X137514149Y-125760611D01*
X137710151Y-125679425D01*
X137886547Y-125561560D01*
X138036560Y-125411547D01*
X138154425Y-125235151D01*
X138235611Y-125039149D01*
X138277000Y-124831075D01*
X138277000Y-124618925D01*
X138235611Y-124410851D01*
X138154425Y-124214849D01*
X138036560Y-124038453D01*
X137886547Y-123888440D01*
X137791603Y-123825000D01*
X137886547Y-123761560D01*
X138036560Y-123611547D01*
X138154425Y-123435151D01*
X138235611Y-123239149D01*
X138277000Y-123031075D01*
X138277000Y-122818925D01*
X138235611Y-122610851D01*
X138154425Y-122414849D01*
X138036560Y-122238453D01*
X137886547Y-122088440D01*
X137710151Y-121970575D01*
X137514149Y-121889389D01*
X137306075Y-121848000D01*
X137093925Y-121848000D01*
X136885851Y-121889389D01*
X136689849Y-121970575D01*
X136513453Y-122088440D01*
X136363440Y-122238453D01*
X136245575Y-122414849D01*
X136164389Y-122610851D01*
X136123000Y-122818925D01*
X135957908Y-122818925D01*
X135959504Y-122815072D01*
X135971274Y-122755900D01*
X135982451Y-122720485D01*
X135993679Y-122681068D01*
X136021205Y-122572962D01*
X136028525Y-122541262D01*
X136048607Y-122444467D01*
X136051589Y-122429288D01*
X136067340Y-122344317D01*
X136080066Y-122280011D01*
X136090598Y-122237524D01*
X136101769Y-122203549D01*
X136119126Y-122162948D01*
X136150400Y-122103914D01*
X136208382Y-122011184D01*
X136234387Y-121972266D01*
X136293677Y-121861343D01*
X136293678Y-121861341D01*
X136359202Y-121738754D01*
X136374948Y-121700740D01*
X136412398Y-121610330D01*
X136412400Y-121610327D01*
X136449479Y-121520811D01*
X136460527Y-121494139D01*
X136460528Y-121494136D01*
X136460532Y-121494126D01*
X136537390Y-121240759D01*
X136561927Y-121117402D01*
X136564764Y-121103143D01*
X136578661Y-121033277D01*
X136589045Y-120981072D01*
X136589752Y-120973900D01*
X136600719Y-120862549D01*
X136601374Y-120855903D01*
X136602671Y-120842733D01*
X136602672Y-120842730D01*
X136614410Y-120723549D01*
X136614999Y-120717572D01*
X136614999Y-120717571D01*
X136615000Y-120717561D01*
X136615000Y-117218542D01*
X136836070Y-117126972D01*
X137053413Y-116981748D01*
X137238248Y-116796913D01*
X137383472Y-116579570D01*
X137483504Y-116338072D01*
X137534500Y-116081698D01*
X137534500Y-115820302D01*
X137483504Y-115563928D01*
X137383472Y-115322430D01*
X137238248Y-115105087D01*
X137053413Y-114920252D01*
X136977150Y-114869295D01*
X137026500Y-114621198D01*
X137026500Y-114359802D01*
X136975504Y-114103428D01*
X136875472Y-113861930D01*
X136730248Y-113644587D01*
X136545413Y-113459752D01*
X136328070Y-113314528D01*
X136086572Y-113214496D01*
X135830198Y-113163500D01*
X135568802Y-113163500D01*
X135312428Y-113214496D01*
X135070930Y-113314528D01*
X134853587Y-113459752D01*
X134668752Y-113644587D01*
X134523528Y-113861930D01*
X134444521Y-114052670D01*
X134432298Y-114082103D01*
X134431325Y-114084528D01*
X134423496Y-114103428D01*
X134423164Y-114105097D01*
X134388397Y-114194795D01*
X134386468Y-114199826D01*
X134355438Y-114281677D01*
X134331210Y-114342645D01*
X134312690Y-114384050D01*
X134296606Y-114414532D01*
X134277163Y-114445359D01*
X134246752Y-114486231D01*
X134198052Y-114543164D01*
X134120515Y-114624295D01*
X133644462Y-115100348D01*
X133644457Y-115100354D01*
X133644455Y-115100356D01*
X133628350Y-115119980D01*
X133596178Y-115153420D01*
X133573169Y-115178485D01*
X133478782Y-115286260D01*
X133452297Y-115318305D01*
X133376056Y-115416120D01*
X133348492Y-115453934D01*
X133286312Y-115545272D01*
X133261396Y-115584513D01*
X133209188Y-115672856D01*
X133190437Y-115706599D01*
X133144117Y-115795431D01*
X133133273Y-115817101D01*
X133088751Y-115909904D01*
X133085483Y-115916809D01*
X133040088Y-116014039D01*
X132991982Y-116114620D01*
X132964589Y-116168686D01*
X132936028Y-116211430D01*
X132835996Y-116452928D01*
X132785000Y-116709302D01*
X132785000Y-116970698D01*
X132835996Y-117227072D01*
X132936028Y-117468570D01*
X133081252Y-117685913D01*
X133266087Y-117870748D01*
X133483430Y-118015972D01*
X133724928Y-118116004D01*
X133784581Y-118127870D01*
X133796701Y-118131687D01*
X133827680Y-118140694D01*
X133920028Y-118165334D01*
X133930096Y-118167943D01*
X134006919Y-118187268D01*
X134026449Y-118192698D01*
X134030685Y-118199756D01*
X134050295Y-118247100D01*
X134068809Y-118308132D01*
X134081250Y-118370677D01*
X134087500Y-118434128D01*
X134087501Y-119398177D01*
X134071854Y-119557034D01*
X134040711Y-119713599D01*
X133994376Y-119866346D01*
X133933288Y-120013827D01*
X133858042Y-120154603D01*
X133769360Y-120287325D01*
X133668090Y-120410722D01*
X133337357Y-120741454D01*
X133102072Y-120643996D01*
X132845698Y-120593000D01*
X132584302Y-120593000D01*
X132327928Y-120643996D01*
X132086430Y-120744028D01*
X131869087Y-120889252D01*
X131684252Y-121074087D01*
X131539028Y-121291430D01*
X131438996Y-121532928D01*
X131388000Y-121789302D01*
X119088705Y-121789302D01*
X119064701Y-121753378D01*
X119050329Y-121725339D01*
X119036255Y-121699210D01*
X118983517Y-121605911D01*
X118974267Y-121590019D01*
X118925140Y-121508021D01*
X118925134Y-121508011D01*
X118885802Y-121442364D01*
X118861314Y-121398361D01*
X118847179Y-121368725D01*
X118836760Y-121341197D01*
X118825558Y-121301262D01*
X118812944Y-121236632D01*
X118806410Y-121184991D01*
X119005430Y-121317972D01*
X119246928Y-121418004D01*
X119503302Y-121469000D01*
X119764698Y-121469000D01*
X120021072Y-121418004D01*
X120262570Y-121317972D01*
X120479913Y-121172748D01*
X120565126Y-121087535D01*
X120719930Y-121190972D01*
X120961428Y-121291004D01*
X121217802Y-121342000D01*
X121479198Y-121342000D01*
X121735572Y-121291004D01*
X121977070Y-121190972D01*
X122194413Y-121045748D01*
X122379248Y-120860913D01*
X122524472Y-120643570D01*
X122624504Y-120402072D01*
X122675500Y-120145698D01*
X122675500Y-119884302D01*
X122624504Y-119627928D01*
X122524472Y-119386430D01*
X122379248Y-119169087D01*
X122194413Y-118984252D01*
X121977070Y-118839028D01*
X121786364Y-118760035D01*
X121756892Y-118747796D01*
X121754477Y-118746827D01*
X121735572Y-118738996D01*
X121733901Y-118738664D01*
X121644198Y-118703895D01*
X121639166Y-118701966D01*
X121557346Y-118670948D01*
X121496352Y-118646710D01*
X121454950Y-118628192D01*
X121424459Y-118612103D01*
X121393637Y-118592663D01*
X121352765Y-118562252D01*
X121295832Y-118513552D01*
X121214691Y-118436005D01*
X120770194Y-117991508D01*
X120716424Y-117925989D01*
X120669331Y-117855510D01*
X120629382Y-117780770D01*
X120596947Y-117702465D01*
X120576685Y-117635672D01*
X120570687Y-117597033D01*
X120569899Y-117581680D01*
X120573012Y-117575158D01*
X120598326Y-117529834D01*
X120639398Y-117460004D01*
X120644407Y-117451352D01*
X120692568Y-117366831D01*
X120706668Y-117340874D01*
X120714067Y-117326568D01*
X120746472Y-117278070D01*
X120846504Y-117036572D01*
X120897500Y-116780198D01*
X120897500Y-116518802D01*
X120846504Y-116262428D01*
X120746472Y-116020930D01*
X120601248Y-115803587D01*
X120416413Y-115618752D01*
X120199070Y-115473528D01*
X119957572Y-115373496D01*
X119701198Y-115322500D01*
X119439802Y-115322500D01*
X119183428Y-115373496D01*
X118941930Y-115473528D01*
X118724587Y-115618752D01*
X118539752Y-115803587D01*
X118394528Y-116020930D01*
X118294496Y-116262428D01*
X118243500Y-116518802D01*
X118243500Y-116780198D01*
X118294496Y-117036572D01*
X118394528Y-117278070D01*
X118416925Y-117311589D01*
X118429473Y-117337367D01*
X118472984Y-117427009D01*
X118507380Y-117500020D01*
X118533667Y-117559528D01*
X118554485Y-117611673D01*
X118573015Y-117664609D01*
X118591871Y-117727018D01*
X118612614Y-117806400D01*
X118628569Y-117875816D01*
X118579171Y-117840882D01*
X118548021Y-117820036D01*
X118456990Y-117762459D01*
X118357570Y-117696028D01*
X118116072Y-117595996D01*
X117859698Y-117545000D01*
X117598302Y-117545000D01*
X117341928Y-117595996D01*
X117266306Y-117627320D01*
X117235748Y-117581587D01*
X117050913Y-117396752D01*
X116833570Y-117251528D01*
X116592072Y-117151496D01*
X116335698Y-117100500D01*
X116074302Y-117100500D01*
X115817928Y-117151496D01*
X115576430Y-117251528D01*
X115359087Y-117396752D01*
X115174252Y-117581587D01*
X115029028Y-117798930D01*
X114928996Y-118040428D01*
X114878000Y-118296802D01*
X111867685Y-118296802D01*
X111792972Y-118116430D01*
X111647748Y-117899087D01*
X111462913Y-117714252D01*
X111245570Y-117569028D01*
X111004072Y-117468996D01*
X110747698Y-117418000D01*
X110486302Y-117418000D01*
X110229928Y-117468996D01*
X109988430Y-117569028D01*
X109771087Y-117714252D01*
X109586252Y-117899087D01*
X109441028Y-118116430D01*
X109340996Y-118357928D01*
X109290000Y-118614302D01*
X101287346Y-118614302D01*
X101233748Y-118534087D01*
X101048913Y-118349252D01*
X100831570Y-118204028D01*
X100590072Y-118103996D01*
X100333698Y-118053000D01*
X100072302Y-118053000D01*
X99815928Y-118103996D01*
X99574430Y-118204028D01*
X99357087Y-118349252D01*
X99172252Y-118534087D01*
X99027028Y-118751430D01*
X98926996Y-118992928D01*
X98876000Y-119249302D01*
X90922000Y-119249302D01*
X90922000Y-118104017D01*
X91055888Y-118213896D01*
X91355908Y-118374260D01*
X91681449Y-118473012D01*
X91935159Y-118498000D01*
X93104841Y-118498000D01*
X93358551Y-118473012D01*
X93552249Y-118414254D01*
X93560916Y-118442824D01*
X93674851Y-118655983D01*
X93828183Y-118842817D01*
X94015017Y-118996149D01*
X94228176Y-119110084D01*
X94459466Y-119180245D01*
X94639732Y-119198000D01*
X95760268Y-119198000D01*
X95940534Y-119180245D01*
X96171824Y-119110084D01*
X96384983Y-118996149D01*
X96571817Y-118842817D01*
X96725149Y-118655983D01*
X96839084Y-118442824D01*
X96909245Y-118211534D01*
X96932936Y-117971000D01*
X96909245Y-117730466D01*
X96839084Y-117499176D01*
X96725149Y-117286017D01*
X96571817Y-117099183D01*
X96384983Y-116945851D01*
X96171824Y-116831916D01*
X95940534Y-116761755D01*
X95760268Y-116744000D01*
X94752697Y-116744000D01*
X94722012Y-116432449D01*
X94623260Y-116106908D01*
X94462896Y-115806888D01*
X94247082Y-115543918D01*
X93984112Y-115328104D01*
X93684092Y-115167740D01*
X93358551Y-115068988D01*
X93104841Y-115044000D01*
X91935159Y-115044000D01*
X91681449Y-115068988D01*
X91355908Y-115167740D01*
X91055888Y-115328104D01*
X90922000Y-115437983D01*
X90922000Y-113456955D01*
X93375704Y-113456955D01*
X93494369Y-113761941D01*
X93837689Y-113923855D01*
X94206002Y-114015680D01*
X94585150Y-114033885D01*
X94960566Y-113977774D01*
X95134556Y-113915302D01*
X110306000Y-113915302D01*
X110306000Y-114176698D01*
X110356996Y-114433072D01*
X110457028Y-114674570D01*
X110602252Y-114891913D01*
X110787087Y-115076748D01*
X111004430Y-115221972D01*
X111245928Y-115322004D01*
X111502302Y-115373000D01*
X111763698Y-115373000D01*
X112020072Y-115322004D01*
X112261570Y-115221972D01*
X112478913Y-115076748D01*
X112663748Y-114891913D01*
X112808972Y-114674570D01*
X112909004Y-114433072D01*
X112921193Y-114371795D01*
X112929406Y-114345541D01*
X112940520Y-114306156D01*
X112966286Y-114203924D01*
X112972239Y-114178364D01*
X112992074Y-114085664D01*
X112992683Y-114082790D01*
X113007946Y-114010022D01*
X113018189Y-113968778D01*
X113023543Y-113952685D01*
X113026538Y-113946132D01*
X113035182Y-113931923D01*
X113060877Y-113898550D01*
X113122000Y-113832619D01*
X115059700Y-111894918D01*
X115155907Y-111803654D01*
X115230375Y-111740615D01*
X115296724Y-111690469D01*
X115364263Y-111644009D01*
X115439837Y-111594481D01*
X115445236Y-111590908D01*
X115524810Y-111537740D01*
X115549544Y-111520461D01*
X115628760Y-111462638D01*
X115666352Y-111433260D01*
X115747660Y-111365305D01*
X115788527Y-111328434D01*
X115874375Y-111244872D01*
X115911116Y-111206392D01*
X115961031Y-111150130D01*
X116029248Y-111081913D01*
X116174472Y-110864570D01*
X116274504Y-110623072D01*
X116325500Y-110366698D01*
X116325500Y-110105302D01*
X116274504Y-109848928D01*
X116174472Y-109607430D01*
X116029248Y-109390087D01*
X115844413Y-109205252D01*
X115627070Y-109060028D01*
X115385572Y-108959996D01*
X115129198Y-108909000D01*
X114867802Y-108909000D01*
X114611428Y-108959996D01*
X114369930Y-109060028D01*
X114152587Y-109205252D01*
X113967752Y-109390087D01*
X113822528Y-109607430D01*
X113722496Y-109848928D01*
X113671500Y-110105302D01*
X113671500Y-110366698D01*
X113722496Y-110623072D01*
X113730278Y-110641860D01*
X113736335Y-110667042D01*
X111846373Y-112557006D01*
X111780455Y-112618116D01*
X111747075Y-112643816D01*
X111732865Y-112652461D01*
X111726307Y-112655459D01*
X111710223Y-112660810D01*
X111668976Y-112671053D01*
X111596208Y-112686316D01*
X111593334Y-112686925D01*
X111500634Y-112706760D01*
X111475068Y-112712715D01*
X111372836Y-112738482D01*
X111333449Y-112749597D01*
X111307206Y-112757807D01*
X111245928Y-112769996D01*
X111004430Y-112870028D01*
X110787087Y-113015252D01*
X110602252Y-113200087D01*
X110457028Y-113417430D01*
X110356996Y-113658928D01*
X110306000Y-113915302D01*
X95134556Y-113915302D01*
X95317821Y-113849500D01*
X95481631Y-113761941D01*
X95600296Y-113456955D01*
X94488000Y-112344659D01*
X93375704Y-113456955D01*
X90922000Y-113456955D01*
X90922000Y-112197150D01*
X92554115Y-112197150D01*
X92610226Y-112572566D01*
X92738500Y-112929821D01*
X92826059Y-113093631D01*
X93131045Y-113212296D01*
X94243341Y-112100000D01*
X94732659Y-112100000D01*
X95844955Y-113212296D01*
X96149941Y-113093631D01*
X96311855Y-112750311D01*
X96403680Y-112381998D01*
X96421885Y-112002850D01*
X96365774Y-111627434D01*
X96237500Y-111270179D01*
X96149941Y-111106369D01*
X95844955Y-110987704D01*
X94732659Y-112100000D01*
X94243341Y-112100000D01*
X93131045Y-110987704D01*
X92826059Y-111106369D01*
X92664145Y-111449689D01*
X92572320Y-111818002D01*
X92554115Y-112197150D01*
X90922000Y-112197150D01*
X90922000Y-103915497D01*
X90925575Y-103933470D01*
X90933246Y-103958758D01*
X90986293Y-104133631D01*
X91006368Y-104199811D01*
X91108385Y-104446100D01*
X91112875Y-104456940D01*
X91208585Y-104636000D01*
X91244073Y-104702394D01*
X91386386Y-104915379D01*
X91398697Y-104933804D01*
X91570201Y-105142782D01*
X91575259Y-105148945D01*
X91578468Y-105152154D01*
X91731583Y-105336944D01*
X91739318Y-105346124D01*
X91923374Y-105560935D01*
X91937622Y-105577073D01*
X92101708Y-105757480D01*
X92124397Y-105781319D01*
X92276836Y-105934390D01*
X92308465Y-105964303D01*
X92457582Y-106097101D01*
X92495388Y-106128543D01*
X92649505Y-106248136D01*
X92687404Y-106275636D01*
X92854847Y-106389089D01*
X92886376Y-106409288D01*
X93075468Y-106523665D01*
X93097198Y-106536300D01*
X93316263Y-106658669D01*
X93328359Y-106665276D01*
X93496319Y-106754963D01*
X93575223Y-106807685D01*
X93677380Y-106850000D01*
X93575223Y-106892315D01*
X93259609Y-107103201D01*
X92991201Y-107371609D01*
X92780315Y-107687223D01*
X92635053Y-108037915D01*
X92561000Y-108410207D01*
X92561000Y-108789793D01*
X92635053Y-109162085D01*
X92780315Y-109512777D01*
X92991201Y-109828391D01*
X93259609Y-110096799D01*
X93575223Y-110307685D01*
X93669111Y-110346575D01*
X93658179Y-110350500D01*
X93494369Y-110438059D01*
X93375704Y-110743045D01*
X94488000Y-111855341D01*
X95600296Y-110743045D01*
X95481631Y-110438059D01*
X95296646Y-110350818D01*
X95400777Y-110307685D01*
X95716391Y-110096799D01*
X95777655Y-110035535D01*
X95820590Y-110053319D01*
X96115604Y-110112000D01*
X96416396Y-110112000D01*
X96711410Y-110053319D01*
X96989306Y-109938210D01*
X97095626Y-109867169D01*
X97107845Y-109907450D01*
X97107847Y-109907455D01*
X97107848Y-109907458D01*
X97217946Y-110173258D01*
X97230350Y-110196463D01*
X97331715Y-110386105D01*
X97353575Y-110427002D01*
X97427635Y-110537841D01*
X97502308Y-110651063D01*
X97560056Y-110741921D01*
X97603912Y-110814878D01*
X97636781Y-110873963D01*
X97662492Y-110924935D01*
X97685292Y-110975370D01*
X97708888Y-111033354D01*
X97735843Y-111105374D01*
X97767968Y-111195788D01*
X97776462Y-111220194D01*
X97783996Y-111258072D01*
X97884028Y-111499570D01*
X98029252Y-111716913D01*
X98214087Y-111901748D01*
X98431430Y-112046972D01*
X98672928Y-112147004D01*
X98929302Y-112198000D01*
X99190698Y-112198000D01*
X99447072Y-112147004D01*
X99688570Y-112046972D01*
X99905913Y-111901748D01*
X100090748Y-111716913D01*
X100235972Y-111499570D01*
X100336004Y-111258072D01*
X100387000Y-111001698D01*
X100387000Y-110740302D01*
X100336004Y-110483928D01*
X100235972Y-110242430D01*
X100090748Y-110025087D01*
X99905913Y-109840252D01*
X99688570Y-109695028D01*
X99447072Y-109594996D01*
X99387714Y-109583189D01*
X99372087Y-109578261D01*
X99340058Y-109568963D01*
X99245427Y-109543830D01*
X99232419Y-109540504D01*
X99151738Y-109520664D01*
X99098631Y-109506558D01*
X99092618Y-109504558D01*
X99086989Y-109498407D01*
X99044576Y-109440658D01*
X99031594Y-109421230D01*
X98986474Y-109336815D01*
X98949841Y-109248377D01*
X98922055Y-109156778D01*
X98903381Y-109062897D01*
X98894000Y-108967644D01*
X98894000Y-107184302D01*
X99384000Y-107184302D01*
X99384000Y-107445698D01*
X99434996Y-107702072D01*
X99535028Y-107943570D01*
X99680252Y-108160913D01*
X99865087Y-108345748D01*
X100082430Y-108490972D01*
X100323928Y-108591004D01*
X100385203Y-108603192D01*
X100411455Y-108611405D01*
X100450842Y-108622520D01*
X100553074Y-108648286D01*
X100578628Y-108654238D01*
X100671329Y-108674074D01*
X100674209Y-108674684D01*
X100746977Y-108689947D01*
X100788220Y-108700189D01*
X100804312Y-108705543D01*
X100810866Y-108708539D01*
X100825079Y-108717185D01*
X100858455Y-108742883D01*
X100924360Y-108803980D01*
X101347566Y-109227187D01*
X101433957Y-109298085D01*
X101704237Y-109519899D01*
X101704246Y-109519905D01*
X102056146Y-109755036D01*
X102087887Y-109776245D01*
X102494798Y-109993744D01*
X102494806Y-109993747D01*
X102494811Y-109993750D01*
X102921081Y-110170317D01*
X102921091Y-110170320D01*
X103362616Y-110304255D01*
X103362624Y-110304257D01*
X103815150Y-110394272D01*
X103815160Y-110394273D01*
X103815165Y-110394274D01*
X104274335Y-110439499D01*
X104274337Y-110439499D01*
X104274347Y-110439500D01*
X109268544Y-110439500D01*
X109410456Y-110442508D01*
X109521149Y-110449682D01*
X109618999Y-110459854D01*
X109715768Y-110472449D01*
X109813705Y-110485540D01*
X109831975Y-110487747D01*
X109928273Y-110498145D01*
X109966456Y-110501252D01*
X110065464Y-110506689D01*
X110116431Y-110507698D01*
X110223662Y-110506060D01*
X110277363Y-110503251D01*
X110398328Y-110492425D01*
X110446848Y-110486432D01*
X110465427Y-110483500D01*
X110493698Y-110483500D01*
X110750072Y-110432504D01*
X110991570Y-110332472D01*
X111208913Y-110187248D01*
X111393748Y-110002413D01*
X111538972Y-109785070D01*
X111639004Y-109543572D01*
X111690000Y-109287198D01*
X111690000Y-109025802D01*
X111639004Y-108769428D01*
X111538972Y-108527930D01*
X111393748Y-108310587D01*
X111208913Y-108125752D01*
X110991570Y-107980528D01*
X110750072Y-107880496D01*
X110493698Y-107829500D01*
X110232302Y-107829500D01*
X109975928Y-107880496D01*
X109734430Y-107980528D01*
X109517087Y-108125752D01*
X109332252Y-108310587D01*
X109187028Y-108527930D01*
X109155919Y-108603032D01*
X109141646Y-108631242D01*
X109139523Y-108635500D01*
X104362960Y-108635500D01*
X104080181Y-108607648D01*
X103801489Y-108552212D01*
X103529574Y-108469728D01*
X103267039Y-108360983D01*
X103016443Y-108227036D01*
X102780178Y-108069169D01*
X102560532Y-107888911D01*
X102199980Y-107528360D01*
X102138883Y-107462455D01*
X102113185Y-107429079D01*
X102104539Y-107414866D01*
X102101543Y-107408312D01*
X102096189Y-107392220D01*
X102085947Y-107350977D01*
X102070684Y-107278209D01*
X102070074Y-107275329D01*
X102050238Y-107182628D01*
X102044286Y-107157074D01*
X102018520Y-107054842D01*
X102007405Y-107015455D01*
X101999192Y-106989203D01*
X101987004Y-106927928D01*
X101886972Y-106686430D01*
X101741748Y-106469087D01*
X101556913Y-106284252D01*
X101339570Y-106139028D01*
X101098072Y-106038996D01*
X100841698Y-105988000D01*
X100580302Y-105988000D01*
X100323928Y-106038996D01*
X100082430Y-106139028D01*
X99865087Y-106284252D01*
X99680252Y-106469087D01*
X99535028Y-106686430D01*
X99434996Y-106927928D01*
X99384000Y-107184302D01*
X98894000Y-107184302D01*
X98894000Y-105131802D01*
X103278000Y-105131802D01*
X103278000Y-105393198D01*
X103328996Y-105649572D01*
X103429028Y-105891070D01*
X103574252Y-106108413D01*
X103759087Y-106293248D01*
X103976430Y-106438472D01*
X104217928Y-106538504D01*
X104474302Y-106589500D01*
X104735698Y-106589500D01*
X104992072Y-106538504D01*
X105233570Y-106438472D01*
X105450913Y-106293248D01*
X105635748Y-106108413D01*
X105780972Y-105891070D01*
X105881004Y-105649572D01*
X105932000Y-105393198D01*
X105932000Y-105131802D01*
X105881004Y-104875428D01*
X105780972Y-104633930D01*
X105750670Y-104588580D01*
X105741674Y-104570983D01*
X105730269Y-104549564D01*
X105682199Y-104462808D01*
X105678578Y-104456350D01*
X105637929Y-104384718D01*
X105611733Y-104336142D01*
X105600245Y-104311529D01*
X105597342Y-104303469D01*
X105596097Y-104298259D01*
X105593853Y-104279806D01*
X105592996Y-104235369D01*
X105596047Y-104187713D01*
X105615672Y-104089053D01*
X105649021Y-103979115D01*
X105692982Y-103872982D01*
X105747137Y-103771666D01*
X105810963Y-103676143D01*
X105883845Y-103587337D01*
X106604881Y-102866302D01*
X119323000Y-102866302D01*
X119323000Y-103127698D01*
X119373996Y-103384072D01*
X119474028Y-103625570D01*
X119508737Y-103677515D01*
X119521491Y-103701883D01*
X119541482Y-103737594D01*
X119595551Y-103828102D01*
X119609417Y-103850389D01*
X119660941Y-103929964D01*
X119662539Y-103932420D01*
X119703200Y-103994666D01*
X119725127Y-104031083D01*
X119732717Y-104046240D01*
X119735235Y-104052999D01*
X119739171Y-104069164D01*
X119744599Y-104110921D01*
X119748000Y-104200774D01*
X119748000Y-104702363D01*
X119748001Y-104702373D01*
X119776521Y-104991951D01*
X119778874Y-105003781D01*
X119833289Y-105277349D01*
X119833291Y-105277357D01*
X119833292Y-105277360D01*
X119917758Y-105555811D01*
X119917762Y-105555821D01*
X119917763Y-105555824D01*
X120029116Y-105824654D01*
X120029120Y-105824661D01*
X120029121Y-105824664D01*
X120150058Y-106050920D01*
X120166292Y-106081293D01*
X120327952Y-106323234D01*
X120327955Y-106323238D01*
X120327960Y-106323245D01*
X120504931Y-106538884D01*
X120512562Y-106548182D01*
X120718315Y-106753935D01*
X120718325Y-106753943D01*
X120934194Y-106931102D01*
X120943260Y-106938542D01*
X121185201Y-107100203D01*
X121185211Y-107100209D01*
X121441833Y-107237376D01*
X121441836Y-107237377D01*
X121441843Y-107237381D01*
X121710672Y-107348734D01*
X121710682Y-107348738D01*
X121982072Y-107431063D01*
X121989143Y-107433208D01*
X122273615Y-107489793D01*
X122274541Y-107489977D01*
X122564119Y-107518499D01*
X122564123Y-107518499D01*
X122564133Y-107518500D01*
X126177242Y-107518500D01*
X126267078Y-107521900D01*
X126308835Y-107527328D01*
X126325000Y-107531264D01*
X126331759Y-107533782D01*
X126346916Y-107541372D01*
X126383333Y-107563299D01*
X126445579Y-107603960D01*
X126448035Y-107605558D01*
X126477694Y-107624762D01*
X126455648Y-107638696D01*
X126420907Y-107662082D01*
X126336146Y-107722758D01*
X126294882Y-107754595D01*
X126204354Y-107829767D01*
X126167127Y-107863039D01*
X126154087Y-107871752D01*
X125969252Y-108056587D01*
X125824028Y-108273930D01*
X125723996Y-108515428D01*
X125673000Y-108771802D01*
X125673000Y-109033198D01*
X125723996Y-109289572D01*
X125824028Y-109531070D01*
X125969252Y-109748413D01*
X126154087Y-109933248D01*
X126371430Y-110078472D01*
X126612928Y-110178504D01*
X126869302Y-110229500D01*
X127130698Y-110229500D01*
X127387072Y-110178504D01*
X127628570Y-110078472D01*
X127845913Y-109933248D01*
X128030748Y-109748413D01*
X128175972Y-109531070D01*
X128276004Y-109289572D01*
X128327000Y-109033198D01*
X128327000Y-108771802D01*
X128307311Y-108672821D01*
X128299284Y-108619126D01*
X128296941Y-108604477D01*
X128282404Y-108519179D01*
X128281788Y-108515329D01*
X128983744Y-107813373D01*
X128994224Y-107800604D01*
X129121189Y-107645896D01*
X129121194Y-107645889D01*
X129121197Y-107645885D01*
X129241559Y-107465751D01*
X129243321Y-107462455D01*
X129343688Y-107274684D01*
X129343694Y-107274670D01*
X129343697Y-107274664D01*
X129426603Y-107074508D01*
X129430782Y-107060731D01*
X129463683Y-106952273D01*
X129494889Y-106855300D01*
X129518111Y-106792967D01*
X129533856Y-106757764D01*
X129541889Y-106743187D01*
X129545156Y-106738416D01*
X129551210Y-106731192D01*
X129569707Y-106712508D01*
X129607766Y-106678319D01*
X129667940Y-106627704D01*
X129697142Y-106603677D01*
X129750913Y-106567748D01*
X129935748Y-106382913D01*
X130080972Y-106165570D01*
X130181004Y-105924072D01*
X130232000Y-105667698D01*
X130232000Y-105406302D01*
X130181004Y-105149928D01*
X130080972Y-104908430D01*
X130046996Y-104857581D01*
X130033249Y-104831219D01*
X130014480Y-104797447D01*
X129959960Y-104705206D01*
X129947351Y-104684659D01*
X129895645Y-104603452D01*
X129895005Y-104602447D01*
X129854521Y-104539095D01*
X129832659Y-104501828D01*
X129824431Y-104484913D01*
X129820935Y-104475233D01*
X129816220Y-104455234D01*
X129810430Y-104409165D01*
X129807000Y-104315405D01*
X129807000Y-102426406D01*
X129810571Y-102316179D01*
X129817815Y-102249505D01*
X129826563Y-102205183D01*
X129837166Y-102168721D01*
X129853706Y-102124446D01*
X129881186Y-102060004D01*
X129917090Y-101977767D01*
X129924444Y-101960306D01*
X129962240Y-101867190D01*
X129975184Y-101832837D01*
X130012252Y-101726385D01*
X130025844Y-101683035D01*
X130033564Y-101655419D01*
X130054004Y-101606072D01*
X130105000Y-101349698D01*
X130105000Y-101088302D01*
X130054004Y-100831928D01*
X129953972Y-100590430D01*
X129808748Y-100373087D01*
X129623913Y-100188252D01*
X129406570Y-100043028D01*
X129165072Y-99942996D01*
X128908698Y-99892000D01*
X128647302Y-99892000D01*
X128390928Y-99942996D01*
X128149430Y-100043028D01*
X127932087Y-100188252D01*
X127747252Y-100373087D01*
X127602028Y-100590430D01*
X127501996Y-100831928D01*
X127451000Y-101088302D01*
X127451000Y-101349698D01*
X127501996Y-101606072D01*
X127602028Y-101847570D01*
X127747252Y-102064913D01*
X127794784Y-102112445D01*
X127813745Y-102135570D01*
X127832754Y-102157824D01*
X127899682Y-102233058D01*
X127906533Y-102240651D01*
X127962732Y-102302062D01*
X127997446Y-102341730D01*
X127998215Y-102342734D01*
X127999868Y-102354173D01*
X128003000Y-102429701D01*
X128003001Y-104315380D01*
X127999569Y-104409165D01*
X127993779Y-104455234D01*
X127989064Y-104475233D01*
X127985568Y-104484913D01*
X127977340Y-104501828D01*
X127955478Y-104539095D01*
X127914994Y-104602447D01*
X127914354Y-104603452D01*
X127862648Y-104684659D01*
X127850039Y-104705206D01*
X127795519Y-104797447D01*
X127776748Y-104831223D01*
X127763001Y-104857585D01*
X127729028Y-104908430D01*
X127628996Y-105149928D01*
X127597826Y-105306632D01*
X127511698Y-105289500D01*
X127250302Y-105289500D01*
X126993928Y-105340496D01*
X126752430Y-105440528D01*
X126700491Y-105475233D01*
X126676119Y-105487989D01*
X126640405Y-105507982D01*
X126549897Y-105562051D01*
X126527610Y-105575917D01*
X126448035Y-105627441D01*
X126445579Y-105629039D01*
X126383333Y-105669700D01*
X126346916Y-105691627D01*
X126331759Y-105699217D01*
X126325000Y-105701735D01*
X126308835Y-105705671D01*
X126267077Y-105711099D01*
X126177234Y-105714500D01*
X122652750Y-105714500D01*
X122539562Y-105703352D01*
X122428004Y-105681161D01*
X122319160Y-105648144D01*
X122214079Y-105604618D01*
X122113768Y-105551000D01*
X122019194Y-105487807D01*
X121931272Y-105415652D01*
X121850844Y-105335224D01*
X121778688Y-105247302D01*
X121715498Y-105152731D01*
X121661879Y-105052418D01*
X121618353Y-104947337D01*
X121585338Y-104838498D01*
X121563148Y-104726937D01*
X121552000Y-104613754D01*
X121552000Y-104200758D01*
X121555400Y-104110921D01*
X121560828Y-104069164D01*
X121564764Y-104052999D01*
X121567282Y-104046240D01*
X121574872Y-104031083D01*
X121596799Y-103994666D01*
X121637460Y-103932420D01*
X121639058Y-103929964D01*
X121690582Y-103850389D01*
X121704448Y-103828102D01*
X121758517Y-103737594D01*
X121778506Y-103701887D01*
X121791260Y-103677520D01*
X121825972Y-103625570D01*
X121926004Y-103384072D01*
X121977000Y-103127698D01*
X121977000Y-102866302D01*
X121926004Y-102609928D01*
X121825972Y-102368430D01*
X121680748Y-102151087D01*
X121495913Y-101966252D01*
X121278570Y-101821028D01*
X121037072Y-101720996D01*
X120780698Y-101670000D01*
X120519302Y-101670000D01*
X120262928Y-101720996D01*
X120021430Y-101821028D01*
X119804087Y-101966252D01*
X119619252Y-102151087D01*
X119474028Y-102368430D01*
X119373996Y-102609928D01*
X119323000Y-102866302D01*
X106604881Y-102866302D01*
X106672624Y-102798560D01*
X106764120Y-102687071D01*
X106910301Y-102508949D01*
X106910306Y-102508942D01*
X107118446Y-102197437D01*
X107132822Y-102170541D01*
X107284080Y-101887558D01*
X107295056Y-101867024D01*
X107438427Y-101520899D01*
X107438428Y-101520897D01*
X107438433Y-101520884D01*
X107547185Y-101162374D01*
X107563589Y-101079903D01*
X107620275Y-100794928D01*
X107622875Y-100768531D01*
X107656999Y-100422081D01*
X107656999Y-100422079D01*
X107657000Y-100422069D01*
X107657000Y-100143405D01*
X107674902Y-99961634D01*
X107710539Y-99782476D01*
X107763564Y-99607678D01*
X107833467Y-99438918D01*
X107919570Y-99277830D01*
X108021055Y-99125947D01*
X108136930Y-98984753D01*
X109189915Y-97931770D01*
X109264493Y-97860848D01*
X109313724Y-97819491D01*
X109345868Y-97796441D01*
X109366951Y-97783964D01*
X109387489Y-97774159D01*
X109419901Y-97761621D01*
X109473735Y-97743950D01*
X109551933Y-97720259D01*
X109554055Y-97719613D01*
X109649479Y-97690385D01*
X109664791Y-97685509D01*
X109685470Y-97678671D01*
X109734072Y-97669004D01*
X109975570Y-97568972D01*
X110192913Y-97423748D01*
X110377748Y-97238913D01*
X110522972Y-97021570D01*
X110623004Y-96780072D01*
X110674000Y-96523698D01*
X110674000Y-96262302D01*
X110623004Y-96005928D01*
X110522972Y-95764430D01*
X110377748Y-95547087D01*
X110192913Y-95362252D01*
X109975570Y-95217028D01*
X109734072Y-95116996D01*
X109477698Y-95066000D01*
X109216302Y-95066000D01*
X108959928Y-95116996D01*
X108718430Y-95217028D01*
X108501087Y-95362252D01*
X108316252Y-95547087D01*
X108171028Y-95764430D01*
X108070996Y-96005928D01*
X108061329Y-96054529D01*
X108054494Y-96075199D01*
X108049617Y-96090513D01*
X108020388Y-96185937D01*
X108019740Y-96188065D01*
X107996049Y-96266263D01*
X107978379Y-96320093D01*
X107965843Y-96352501D01*
X107956034Y-96373045D01*
X107943549Y-96394142D01*
X107920517Y-96426261D01*
X107879143Y-96475514D01*
X107808228Y-96550085D01*
X106789352Y-97568960D01*
X106687368Y-97670943D01*
X106449698Y-97960545D01*
X106449691Y-97960554D01*
X106241551Y-98272059D01*
X106241548Y-98272065D01*
X106064942Y-98602471D01*
X106064940Y-98602476D01*
X105921569Y-98948601D01*
X105912506Y-98978478D01*
X105812813Y-99307120D01*
X105812811Y-99307130D01*
X105739722Y-99674574D01*
X105738841Y-99683520D01*
X105716408Y-99911297D01*
X105703000Y-100047428D01*
X105703000Y-100326087D01*
X105685096Y-100507864D01*
X105649460Y-100687015D01*
X105596435Y-100861817D01*
X105526533Y-101030573D01*
X105440425Y-101191668D01*
X105338942Y-101343548D01*
X105223068Y-101484742D01*
X104434281Y-102273529D01*
X104434276Y-102273535D01*
X104239605Y-102510742D01*
X104239603Y-102510746D01*
X104239599Y-102510750D01*
X104069116Y-102765897D01*
X104069113Y-102765903D01*
X103924459Y-103036531D01*
X103924456Y-103036537D01*
X103924456Y-103036538D01*
X103862217Y-103186798D01*
X103862216Y-103186800D01*
X103807023Y-103320048D01*
X103718094Y-103613208D01*
X103717943Y-103613707D01*
X103658108Y-103914528D01*
X103658078Y-103914680D01*
X103653400Y-103962176D01*
X103639766Y-104081903D01*
X103626567Y-104168215D01*
X103613847Y-104230454D01*
X103601747Y-104275652D01*
X103588907Y-104313600D01*
X103572035Y-104355086D01*
X103547210Y-104408925D01*
X103511934Y-104480428D01*
X103467103Y-104569677D01*
X103464690Y-104574525D01*
X103453343Y-104597540D01*
X103429028Y-104633930D01*
X103328996Y-104875428D01*
X103278000Y-105131802D01*
X98894000Y-105131802D01*
X98894000Y-103407371D01*
X98893873Y-103406075D01*
X98885872Y-103324851D01*
X98879863Y-103263839D01*
X98879863Y-103263838D01*
X98871949Y-103183496D01*
X98865798Y-103121038D01*
X98809669Y-102838866D01*
X98809668Y-102838860D01*
X98726153Y-102563547D01*
X98726150Y-102563539D01*
X98616050Y-102297736D01*
X98614685Y-102295182D01*
X98480427Y-102044002D01*
X98480426Y-102044000D01*
X98480423Y-102043995D01*
X98320585Y-101804781D01*
X98317055Y-101800479D01*
X98146379Y-101592511D01*
X98138059Y-101582373D01*
X97934624Y-101378938D01*
X97913896Y-101361927D01*
X97712222Y-101196417D01*
X97712218Y-101196415D01*
X97712214Y-101196411D01*
X97473001Y-101036574D01*
X97362201Y-100977351D01*
X97315835Y-100952568D01*
X97050576Y-100808931D01*
X96830131Y-100686309D01*
X96641837Y-100578968D01*
X96473896Y-100481568D01*
X96418517Y-100449319D01*
X96418517Y-100400000D01*
X96404480Y-100257483D01*
X96362910Y-100120443D01*
X96295403Y-99994147D01*
X96204554Y-99883446D01*
X96093853Y-99792597D01*
X95967557Y-99725090D01*
X95830517Y-99683520D01*
X95688000Y-99669483D01*
X93288000Y-99669483D01*
X93145483Y-99683520D01*
X93008443Y-99725090D01*
X92882147Y-99792597D01*
X92798000Y-99861654D01*
X92798000Y-98802566D01*
X92824084Y-98537721D01*
X92876005Y-98276699D01*
X92953260Y-98022022D01*
X93055102Y-97776154D01*
X93180557Y-97541443D01*
X93328416Y-97320157D01*
X93497246Y-97114437D01*
X93537399Y-97074284D01*
X93638482Y-96980148D01*
X93705286Y-96927896D01*
X93751117Y-96899155D01*
X93787256Y-96881803D01*
X93830560Y-96866331D01*
X93897181Y-96848223D01*
X93995974Y-96825515D01*
X94118394Y-96797466D01*
X94139844Y-96792207D01*
X94184577Y-96780517D01*
X94780000Y-96780517D01*
X94922517Y-96766480D01*
X95059557Y-96724910D01*
X95185853Y-96657403D01*
X95296554Y-96566554D01*
X95387403Y-96455853D01*
X95432465Y-96371549D01*
X95517789Y-96456873D01*
X95653726Y-96320936D01*
X95723820Y-96585118D01*
X95998818Y-96706988D01*
X96292308Y-96772866D01*
X96593011Y-96780222D01*
X96889371Y-96728771D01*
X97169998Y-96620492D01*
X97236180Y-96585118D01*
X97306275Y-96320934D01*
X96480000Y-95494659D01*
X96465858Y-95508801D01*
X96221199Y-95264142D01*
X96235341Y-95250000D01*
X96724659Y-95250000D01*
X97550934Y-96076275D01*
X97815118Y-96006180D01*
X97936988Y-95731182D01*
X98002866Y-95437692D01*
X98010222Y-95136989D01*
X97958771Y-94840629D01*
X97850492Y-94560002D01*
X97815118Y-94493820D01*
X97550934Y-94423725D01*
X96724659Y-95250000D01*
X96235341Y-95250000D01*
X96221199Y-95235858D01*
X96465858Y-94991199D01*
X96480000Y-95005341D01*
X97241416Y-94243925D01*
X136123000Y-94243925D01*
X136123000Y-94456075D01*
X136164389Y-94664149D01*
X136245575Y-94860151D01*
X136363440Y-95036547D01*
X136513453Y-95186560D01*
X136608397Y-95250000D01*
X136513453Y-95313440D01*
X136363440Y-95463453D01*
X136245575Y-95639849D01*
X136164389Y-95835851D01*
X136123000Y-96043925D01*
X136123000Y-96256075D01*
X136164389Y-96464149D01*
X136245575Y-96660151D01*
X136363440Y-96836547D01*
X136513453Y-96986560D01*
X136689849Y-97104425D01*
X136885851Y-97185611D01*
X137093925Y-97227000D01*
X137306075Y-97227000D01*
X137514149Y-97185611D01*
X137710151Y-97104425D01*
X137886547Y-96986560D01*
X138036560Y-96836547D01*
X138154425Y-96660151D01*
X138235611Y-96464149D01*
X138277000Y-96256075D01*
X138277000Y-96043925D01*
X138235611Y-95835851D01*
X138154425Y-95639849D01*
X138036560Y-95463453D01*
X137886547Y-95313440D01*
X137791603Y-95250000D01*
X137886547Y-95186560D01*
X138036560Y-95036547D01*
X138154425Y-94860151D01*
X138235611Y-94664149D01*
X138277000Y-94456075D01*
X138277000Y-94243925D01*
X138235611Y-94035851D01*
X138154425Y-93839849D01*
X138036560Y-93663453D01*
X137886547Y-93513440D01*
X137710151Y-93395575D01*
X137514149Y-93314389D01*
X137306075Y-93273000D01*
X137093925Y-93273000D01*
X136885851Y-93314389D01*
X136689849Y-93395575D01*
X136513453Y-93513440D01*
X136363440Y-93663453D01*
X136245575Y-93839849D01*
X136164389Y-94035851D01*
X136123000Y-94243925D01*
X97241416Y-94243925D01*
X97306275Y-94179066D01*
X97236180Y-93914882D01*
X96961182Y-93793012D01*
X96667692Y-93727134D01*
X96366989Y-93719778D01*
X96070629Y-93771229D01*
X95790002Y-93879508D01*
X95723820Y-93914882D01*
X95653726Y-94179064D01*
X95517789Y-94043127D01*
X95432465Y-94128451D01*
X95387403Y-94044147D01*
X95296554Y-93933446D01*
X95185853Y-93842597D01*
X95059557Y-93775090D01*
X94922517Y-93733520D01*
X94780000Y-93719483D01*
X93180000Y-93719483D01*
X93037483Y-93733520D01*
X92900443Y-93775090D01*
X92774147Y-93842597D01*
X92663446Y-93933446D01*
X92572597Y-94044147D01*
X92505090Y-94170443D01*
X92463520Y-94307483D01*
X92449483Y-94450000D01*
X92449483Y-95045416D01*
X92437792Y-95090152D01*
X92432534Y-95111597D01*
X92404596Y-95233530D01*
X92381775Y-95332815D01*
X92363668Y-95399431D01*
X92348195Y-95442739D01*
X92330842Y-95478879D01*
X92302103Y-95524706D01*
X92249842Y-95591521D01*
X92155714Y-95692597D01*
X92047689Y-95800622D01*
X92047684Y-95800628D01*
X92047683Y-95800629D01*
X91802730Y-96099105D01*
X91757053Y-96154762D01*
X91502538Y-96535671D01*
X91502535Y-96535677D01*
X91286581Y-96939697D01*
X91286578Y-96939704D01*
X91286577Y-96939706D01*
X91146612Y-97277614D01*
X91111262Y-97362956D01*
X90978279Y-97801343D01*
X90978278Y-97801350D01*
X90978277Y-97801352D01*
X90922000Y-98084277D01*
X90922000Y-92192000D01*
X146558000Y-92192000D01*
X146558000Y-126248000D01*
G04 #@! TA.AperFunction,Conductor*
D23*
G36*
X146558000Y-126248000D02*
G01*
X90922000Y-126248000D01*
X90922000Y-125354017D01*
X91055888Y-125463896D01*
X91355908Y-125624260D01*
X91681449Y-125723012D01*
X91935159Y-125748000D01*
X93104841Y-125748000D01*
X93358551Y-125723012D01*
X93684092Y-125624260D01*
X93984112Y-125463896D01*
X94247082Y-125248082D01*
X94462896Y-124985112D01*
X94623260Y-124685092D01*
X94722012Y-124359551D01*
X94752697Y-124048000D01*
X95760268Y-124048000D01*
X95940534Y-124030245D01*
X96171824Y-123960084D01*
X96384983Y-123846149D01*
X96571817Y-123692817D01*
X96725149Y-123505983D01*
X96839084Y-123292824D01*
X96909245Y-123061534D01*
X96932936Y-122821000D01*
X96909245Y-122580466D01*
X96839084Y-122349176D01*
X96725149Y-122136017D01*
X96571817Y-121949183D01*
X96384983Y-121795851D01*
X96171824Y-121681916D01*
X95940534Y-121611755D01*
X95760268Y-121594000D01*
X94639732Y-121594000D01*
X94459466Y-121611755D01*
X94228176Y-121681916D01*
X94015017Y-121795851D01*
X93828183Y-121949183D01*
X93674851Y-122136017D01*
X93560916Y-122349176D01*
X93552249Y-122377746D01*
X93358551Y-122318988D01*
X93104841Y-122294000D01*
X91935159Y-122294000D01*
X91681449Y-122318988D01*
X91355908Y-122417740D01*
X91055888Y-122578104D01*
X90922000Y-122687983D01*
X90922000Y-119249302D01*
X98876000Y-119249302D01*
X98876000Y-119510698D01*
X98926996Y-119767072D01*
X99027028Y-120008570D01*
X99061737Y-120060515D01*
X99074491Y-120084883D01*
X99094482Y-120120594D01*
X99148551Y-120211102D01*
X99162417Y-120233389D01*
X99213941Y-120312964D01*
X99215539Y-120315420D01*
X99256200Y-120377666D01*
X99278127Y-120414083D01*
X99285717Y-120429240D01*
X99288235Y-120435999D01*
X99292171Y-120452164D01*
X99297599Y-120493921D01*
X99298700Y-120522999D01*
X99297599Y-120552077D01*
X99292171Y-120593835D01*
X99288235Y-120610000D01*
X99285717Y-120616759D01*
X99278127Y-120631916D01*
X99256200Y-120668333D01*
X99215539Y-120730579D01*
X99213941Y-120733035D01*
X99162417Y-120812610D01*
X99148551Y-120834897D01*
X99094482Y-120925405D01*
X99074489Y-120961119D01*
X99061733Y-120985491D01*
X99027028Y-121037430D01*
X98926996Y-121278928D01*
X98876000Y-121535302D01*
X98876000Y-121796698D01*
X98926996Y-122053072D01*
X99027028Y-122294570D01*
X99172252Y-122511913D01*
X99357087Y-122696748D01*
X99574430Y-122841972D01*
X99815928Y-122942004D01*
X100072302Y-122993000D01*
X100333698Y-122993000D01*
X100590072Y-122942004D01*
X100831570Y-122841972D01*
X101048913Y-122696748D01*
X101233748Y-122511913D01*
X101378972Y-122294570D01*
X101479004Y-122053072D01*
X101530000Y-121796698D01*
X101530000Y-121535302D01*
X101479004Y-121278928D01*
X101378972Y-121037430D01*
X101344262Y-120985483D01*
X101331507Y-120961114D01*
X101311517Y-120925405D01*
X101257448Y-120834897D01*
X101243582Y-120812610D01*
X101192058Y-120733035D01*
X101190460Y-120730579D01*
X101149799Y-120668333D01*
X101127872Y-120631916D01*
X101120282Y-120616759D01*
X101117764Y-120610000D01*
X101113828Y-120593835D01*
X101108400Y-120552078D01*
X101107299Y-120523000D01*
X101108400Y-120493921D01*
X101113828Y-120452164D01*
X101117764Y-120435999D01*
X101120282Y-120429240D01*
X101127872Y-120414083D01*
X101149799Y-120377666D01*
X101190460Y-120315420D01*
X101192058Y-120312964D01*
X101243582Y-120233389D01*
X101257448Y-120211102D01*
X101311517Y-120120594D01*
X101331506Y-120084887D01*
X101344260Y-120060520D01*
X101378972Y-120008570D01*
X101479004Y-119767072D01*
X101530000Y-119510698D01*
X101530000Y-119249302D01*
X101479004Y-118992928D01*
X101378972Y-118751430D01*
X101287346Y-118614302D01*
X109290000Y-118614302D01*
X109290000Y-118875698D01*
X109340996Y-119132072D01*
X109441028Y-119373570D01*
X109586252Y-119590913D01*
X109771087Y-119775748D01*
X109988430Y-119920972D01*
X110229928Y-120021004D01*
X110294506Y-120033849D01*
X110334254Y-120044948D01*
X110350000Y-120048783D01*
X110350000Y-120394243D01*
X110351457Y-120409040D01*
X110373301Y-120630832D01*
X110373303Y-120630841D01*
X110373303Y-120630843D01*
X110416950Y-120850270D01*
X110419684Y-120864017D01*
X110485504Y-121080993D01*
X110488694Y-121091508D01*
X110542686Y-121221859D01*
X110596425Y-121354437D01*
X110637808Y-121461943D01*
X110670493Y-121552242D01*
X110697437Y-121631816D01*
X110721698Y-121707988D01*
X110746149Y-121787951D01*
X110772287Y-121874220D01*
X110773582Y-121878448D01*
X110802994Y-121973439D01*
X110805625Y-121981761D01*
X110840252Y-122089020D01*
X110843615Y-122099179D01*
X110856408Y-122136898D01*
X110864996Y-122180072D01*
X110965028Y-122421570D01*
X111110252Y-122638913D01*
X111295087Y-122823748D01*
X111512430Y-122968972D01*
X111753928Y-123069004D01*
X112010302Y-123120000D01*
X112271698Y-123120000D01*
X112528072Y-123069004D01*
X112769570Y-122968972D01*
X112986913Y-122823748D01*
X113171748Y-122638913D01*
X113316972Y-122421570D01*
X113417004Y-122180072D01*
X113468000Y-121923698D01*
X113468000Y-121662302D01*
X113417004Y-121405928D01*
X113316972Y-121164430D01*
X113171748Y-120947087D01*
X112986913Y-120762252D01*
X112769570Y-120617028D01*
X112528072Y-120516996D01*
X112449526Y-120501372D01*
X112435883Y-120497375D01*
X112378064Y-120482979D01*
X112277741Y-120462326D01*
X112244792Y-120456331D01*
X112177981Y-120445757D01*
X112171728Y-120425144D01*
X112159929Y-120365826D01*
X112154000Y-120305629D01*
X112154000Y-119731450D01*
X112152708Y-119718326D01*
X112147582Y-119666293D01*
X112140948Y-119598934D01*
X112140947Y-119598931D01*
X112135568Y-119544321D01*
X112134871Y-119537245D01*
X112134363Y-119534693D01*
X112128671Y-119478279D01*
X112128013Y-119472030D01*
X112112947Y-119334620D01*
X112111598Y-119323151D01*
X112096738Y-119204977D01*
X112094289Y-119187265D01*
X112078560Y-119082971D01*
X112074618Y-119059459D01*
X112056946Y-118963693D01*
X112051519Y-118937079D01*
X112030829Y-118844488D01*
X112024677Y-118819105D01*
X111999895Y-118724336D01*
X111994261Y-118704002D01*
X111964312Y-118601701D01*
X111960168Y-118588046D01*
X111923978Y-118472861D01*
X111921590Y-118465402D01*
X111903106Y-118408715D01*
X111893004Y-118357928D01*
X111867685Y-118296802D01*
X114878000Y-118296802D01*
X114878000Y-118558198D01*
X114928996Y-118814572D01*
X115029028Y-119056070D01*
X115174252Y-119273413D01*
X115242471Y-119341632D01*
X115292377Y-119397885D01*
X115329123Y-119436371D01*
X115414971Y-119519933D01*
X115455839Y-119556805D01*
X115537146Y-119624759D01*
X115574732Y-119654132D01*
X115653948Y-119711956D01*
X115678684Y-119729237D01*
X115758257Y-119782405D01*
X115763654Y-119785976D01*
X115839203Y-119835488D01*
X115906776Y-119881971D01*
X115973121Y-119932115D01*
X116047584Y-119995150D01*
X116143817Y-120086437D01*
X116676512Y-120619133D01*
X116758838Y-120719447D01*
X116830943Y-120827361D01*
X116892117Y-120941809D01*
X116941785Y-121061719D01*
X116979461Y-121185918D01*
X117003963Y-121309097D01*
X117007436Y-121376591D01*
X117006549Y-121390839D01*
X116989123Y-121418463D01*
X116947132Y-121479255D01*
X116944928Y-121482464D01*
X116890830Y-121561687D01*
X116873853Y-121587727D01*
X116818004Y-121677531D01*
X116793522Y-121720031D01*
X116781577Y-121742486D01*
X116743528Y-121799430D01*
X116643496Y-122040928D01*
X116592500Y-122297302D01*
X116592500Y-122558698D01*
X116643496Y-122815072D01*
X116743528Y-123056570D01*
X116888752Y-123273913D01*
X117073587Y-123458748D01*
X117290930Y-123603972D01*
X117532428Y-123704004D01*
X117788802Y-123755000D01*
X118050198Y-123755000D01*
X118306572Y-123704004D01*
X118548070Y-123603972D01*
X118765413Y-123458748D01*
X118950248Y-123273913D01*
X119095472Y-123056570D01*
X119195504Y-122815072D01*
X119246500Y-122558698D01*
X119246500Y-122297302D01*
X119195504Y-122040928D01*
X119095472Y-121799430D01*
X119088705Y-121789302D01*
X131388000Y-121789302D01*
X131388000Y-122050698D01*
X131438996Y-122307072D01*
X131539028Y-122548570D01*
X131684252Y-122765913D01*
X131869087Y-122950748D01*
X132086430Y-123095972D01*
X132327928Y-123196004D01*
X132584302Y-123247000D01*
X132845698Y-123247000D01*
X133102072Y-123196004D01*
X133343570Y-123095972D01*
X133386322Y-123067406D01*
X133440374Y-123040019D01*
X133490702Y-123015948D01*
X133507528Y-123056570D01*
X133652752Y-123273913D01*
X133837587Y-123458748D01*
X134054930Y-123603972D01*
X134296428Y-123704004D01*
X134552802Y-123755000D01*
X134814198Y-123755000D01*
X135070572Y-123704004D01*
X135312070Y-123603972D01*
X135529413Y-123458748D01*
X135714248Y-123273913D01*
X135859472Y-123056570D01*
X135957908Y-122818925D01*
X136123000Y-122818925D01*
X136123000Y-123031075D01*
X136164389Y-123239149D01*
X136245575Y-123435151D01*
X136363440Y-123611547D01*
X136513453Y-123761560D01*
X136608397Y-123825000D01*
X136513453Y-123888440D01*
X136363440Y-124038453D01*
X136245575Y-124214849D01*
X136164389Y-124410851D01*
X136123000Y-124618925D01*
X136123000Y-124831075D01*
X136164389Y-125039149D01*
X136245575Y-125235151D01*
X136363440Y-125411547D01*
X136513453Y-125561560D01*
X136689849Y-125679425D01*
X136885851Y-125760611D01*
X137093925Y-125802000D01*
X137306075Y-125802000D01*
X137514149Y-125760611D01*
X137710151Y-125679425D01*
X137886547Y-125561560D01*
X138036560Y-125411547D01*
X138154425Y-125235151D01*
X138235611Y-125039149D01*
X138277000Y-124831075D01*
X138277000Y-124618925D01*
X138235611Y-124410851D01*
X138154425Y-124214849D01*
X138036560Y-124038453D01*
X137886547Y-123888440D01*
X137791603Y-123825000D01*
X137886547Y-123761560D01*
X138036560Y-123611547D01*
X138154425Y-123435151D01*
X138235611Y-123239149D01*
X138277000Y-123031075D01*
X138277000Y-122818925D01*
X138235611Y-122610851D01*
X138154425Y-122414849D01*
X138036560Y-122238453D01*
X137886547Y-122088440D01*
X137710151Y-121970575D01*
X137514149Y-121889389D01*
X137306075Y-121848000D01*
X137093925Y-121848000D01*
X136885851Y-121889389D01*
X136689849Y-121970575D01*
X136513453Y-122088440D01*
X136363440Y-122238453D01*
X136245575Y-122414849D01*
X136164389Y-122610851D01*
X136123000Y-122818925D01*
X135957908Y-122818925D01*
X135959504Y-122815072D01*
X135971274Y-122755900D01*
X135982451Y-122720485D01*
X135993679Y-122681068D01*
X136021205Y-122572962D01*
X136028525Y-122541262D01*
X136048607Y-122444467D01*
X136051589Y-122429288D01*
X136067340Y-122344317D01*
X136080066Y-122280011D01*
X136090598Y-122237524D01*
X136101769Y-122203549D01*
X136119126Y-122162948D01*
X136150400Y-122103914D01*
X136208382Y-122011184D01*
X136234387Y-121972266D01*
X136293677Y-121861343D01*
X136293678Y-121861341D01*
X136359202Y-121738754D01*
X136374948Y-121700740D01*
X136412398Y-121610330D01*
X136412400Y-121610327D01*
X136449479Y-121520811D01*
X136460527Y-121494139D01*
X136460528Y-121494136D01*
X136460532Y-121494126D01*
X136537390Y-121240759D01*
X136561927Y-121117402D01*
X136564764Y-121103143D01*
X136578661Y-121033277D01*
X136589045Y-120981072D01*
X136589752Y-120973900D01*
X136600719Y-120862549D01*
X136601374Y-120855903D01*
X136602671Y-120842733D01*
X136602672Y-120842730D01*
X136614410Y-120723549D01*
X136614999Y-120717572D01*
X136614999Y-120717571D01*
X136615000Y-120717561D01*
X136615000Y-117218542D01*
X136836070Y-117126972D01*
X137053413Y-116981748D01*
X137238248Y-116796913D01*
X137383472Y-116579570D01*
X137483504Y-116338072D01*
X137534500Y-116081698D01*
X137534500Y-115820302D01*
X137483504Y-115563928D01*
X137383472Y-115322430D01*
X137238248Y-115105087D01*
X137053413Y-114920252D01*
X136977150Y-114869295D01*
X137026500Y-114621198D01*
X137026500Y-114359802D01*
X136975504Y-114103428D01*
X136875472Y-113861930D01*
X136730248Y-113644587D01*
X136545413Y-113459752D01*
X136328070Y-113314528D01*
X136086572Y-113214496D01*
X135830198Y-113163500D01*
X135568802Y-113163500D01*
X135312428Y-113214496D01*
X135070930Y-113314528D01*
X134853587Y-113459752D01*
X134668752Y-113644587D01*
X134523528Y-113861930D01*
X134444521Y-114052670D01*
X134432298Y-114082103D01*
X134431325Y-114084528D01*
X134423496Y-114103428D01*
X134423164Y-114105097D01*
X134388397Y-114194795D01*
X134386468Y-114199826D01*
X134355438Y-114281677D01*
X134331210Y-114342645D01*
X134312690Y-114384050D01*
X134296606Y-114414532D01*
X134277163Y-114445359D01*
X134246752Y-114486231D01*
X134198052Y-114543164D01*
X134120515Y-114624295D01*
X133644462Y-115100348D01*
X133644457Y-115100354D01*
X133644455Y-115100356D01*
X133628350Y-115119980D01*
X133596178Y-115153420D01*
X133573169Y-115178485D01*
X133478782Y-115286260D01*
X133452297Y-115318305D01*
X133376056Y-115416120D01*
X133348492Y-115453934D01*
X133286312Y-115545272D01*
X133261396Y-115584513D01*
X133209188Y-115672856D01*
X133190437Y-115706599D01*
X133144117Y-115795431D01*
X133133273Y-115817101D01*
X133088751Y-115909904D01*
X133085483Y-115916809D01*
X133040088Y-116014039D01*
X132991982Y-116114620D01*
X132964589Y-116168686D01*
X132936028Y-116211430D01*
X132835996Y-116452928D01*
X132785000Y-116709302D01*
X132785000Y-116970698D01*
X132835996Y-117227072D01*
X132936028Y-117468570D01*
X133081252Y-117685913D01*
X133266087Y-117870748D01*
X133483430Y-118015972D01*
X133724928Y-118116004D01*
X133784581Y-118127870D01*
X133796701Y-118131687D01*
X133827680Y-118140694D01*
X133920028Y-118165334D01*
X133930096Y-118167943D01*
X134006919Y-118187268D01*
X134026449Y-118192698D01*
X134030685Y-118199756D01*
X134050295Y-118247100D01*
X134068809Y-118308132D01*
X134081250Y-118370677D01*
X134087500Y-118434128D01*
X134087501Y-119398177D01*
X134071854Y-119557034D01*
X134040711Y-119713599D01*
X133994376Y-119866346D01*
X133933288Y-120013827D01*
X133858042Y-120154603D01*
X133769360Y-120287325D01*
X133668090Y-120410722D01*
X133337357Y-120741454D01*
X133102072Y-120643996D01*
X132845698Y-120593000D01*
X132584302Y-120593000D01*
X132327928Y-120643996D01*
X132086430Y-120744028D01*
X131869087Y-120889252D01*
X131684252Y-121074087D01*
X131539028Y-121291430D01*
X131438996Y-121532928D01*
X131388000Y-121789302D01*
X119088705Y-121789302D01*
X119064701Y-121753378D01*
X119050329Y-121725339D01*
X119036255Y-121699210D01*
X118983517Y-121605911D01*
X118974267Y-121590019D01*
X118925140Y-121508021D01*
X118925134Y-121508011D01*
X118885802Y-121442364D01*
X118861314Y-121398361D01*
X118847179Y-121368725D01*
X118836760Y-121341197D01*
X118825558Y-121301262D01*
X118812944Y-121236632D01*
X118806410Y-121184991D01*
X119005430Y-121317972D01*
X119246928Y-121418004D01*
X119503302Y-121469000D01*
X119764698Y-121469000D01*
X120021072Y-121418004D01*
X120262570Y-121317972D01*
X120479913Y-121172748D01*
X120565126Y-121087535D01*
X120719930Y-121190972D01*
X120961428Y-121291004D01*
X121217802Y-121342000D01*
X121479198Y-121342000D01*
X121735572Y-121291004D01*
X121977070Y-121190972D01*
X122194413Y-121045748D01*
X122379248Y-120860913D01*
X122524472Y-120643570D01*
X122624504Y-120402072D01*
X122675500Y-120145698D01*
X122675500Y-119884302D01*
X122624504Y-119627928D01*
X122524472Y-119386430D01*
X122379248Y-119169087D01*
X122194413Y-118984252D01*
X121977070Y-118839028D01*
X121786364Y-118760035D01*
X121756892Y-118747796D01*
X121754477Y-118746827D01*
X121735572Y-118738996D01*
X121733901Y-118738664D01*
X121644198Y-118703895D01*
X121639166Y-118701966D01*
X121557346Y-118670948D01*
X121496352Y-118646710D01*
X121454950Y-118628192D01*
X121424459Y-118612103D01*
X121393637Y-118592663D01*
X121352765Y-118562252D01*
X121295832Y-118513552D01*
X121214691Y-118436005D01*
X120770194Y-117991508D01*
X120716424Y-117925989D01*
X120669331Y-117855510D01*
X120629382Y-117780770D01*
X120596947Y-117702465D01*
X120576685Y-117635672D01*
X120570687Y-117597033D01*
X120569899Y-117581680D01*
X120573012Y-117575158D01*
X120598326Y-117529834D01*
X120639398Y-117460004D01*
X120644407Y-117451352D01*
X120692568Y-117366831D01*
X120706668Y-117340874D01*
X120714067Y-117326568D01*
X120746472Y-117278070D01*
X120846504Y-117036572D01*
X120897500Y-116780198D01*
X120897500Y-116518802D01*
X120846504Y-116262428D01*
X120746472Y-116020930D01*
X120601248Y-115803587D01*
X120416413Y-115618752D01*
X120199070Y-115473528D01*
X119957572Y-115373496D01*
X119701198Y-115322500D01*
X119439802Y-115322500D01*
X119183428Y-115373496D01*
X118941930Y-115473528D01*
X118724587Y-115618752D01*
X118539752Y-115803587D01*
X118394528Y-116020930D01*
X118294496Y-116262428D01*
X118243500Y-116518802D01*
X118243500Y-116780198D01*
X118294496Y-117036572D01*
X118394528Y-117278070D01*
X118416925Y-117311589D01*
X118429473Y-117337367D01*
X118472984Y-117427009D01*
X118507380Y-117500020D01*
X118533667Y-117559528D01*
X118554485Y-117611673D01*
X118573015Y-117664609D01*
X118591871Y-117727018D01*
X118612614Y-117806400D01*
X118628569Y-117875816D01*
X118579171Y-117840882D01*
X118548021Y-117820036D01*
X118456990Y-117762459D01*
X118357570Y-117696028D01*
X118116072Y-117595996D01*
X117859698Y-117545000D01*
X117598302Y-117545000D01*
X117341928Y-117595996D01*
X117266306Y-117627320D01*
X117235748Y-117581587D01*
X117050913Y-117396752D01*
X116833570Y-117251528D01*
X116592072Y-117151496D01*
X116335698Y-117100500D01*
X116074302Y-117100500D01*
X115817928Y-117151496D01*
X115576430Y-117251528D01*
X115359087Y-117396752D01*
X115174252Y-117581587D01*
X115029028Y-117798930D01*
X114928996Y-118040428D01*
X114878000Y-118296802D01*
X111867685Y-118296802D01*
X111792972Y-118116430D01*
X111647748Y-117899087D01*
X111462913Y-117714252D01*
X111245570Y-117569028D01*
X111004072Y-117468996D01*
X110747698Y-117418000D01*
X110486302Y-117418000D01*
X110229928Y-117468996D01*
X109988430Y-117569028D01*
X109771087Y-117714252D01*
X109586252Y-117899087D01*
X109441028Y-118116430D01*
X109340996Y-118357928D01*
X109290000Y-118614302D01*
X101287346Y-118614302D01*
X101233748Y-118534087D01*
X101048913Y-118349252D01*
X100831570Y-118204028D01*
X100590072Y-118103996D01*
X100333698Y-118053000D01*
X100072302Y-118053000D01*
X99815928Y-118103996D01*
X99574430Y-118204028D01*
X99357087Y-118349252D01*
X99172252Y-118534087D01*
X99027028Y-118751430D01*
X98926996Y-118992928D01*
X98876000Y-119249302D01*
X90922000Y-119249302D01*
X90922000Y-118104017D01*
X91055888Y-118213896D01*
X91355908Y-118374260D01*
X91681449Y-118473012D01*
X91935159Y-118498000D01*
X93104841Y-118498000D01*
X93358551Y-118473012D01*
X93552249Y-118414254D01*
X93560916Y-118442824D01*
X93674851Y-118655983D01*
X93828183Y-118842817D01*
X94015017Y-118996149D01*
X94228176Y-119110084D01*
X94459466Y-119180245D01*
X94639732Y-119198000D01*
X95760268Y-119198000D01*
X95940534Y-119180245D01*
X96171824Y-119110084D01*
X96384983Y-118996149D01*
X96571817Y-118842817D01*
X96725149Y-118655983D01*
X96839084Y-118442824D01*
X96909245Y-118211534D01*
X96932936Y-117971000D01*
X96909245Y-117730466D01*
X96839084Y-117499176D01*
X96725149Y-117286017D01*
X96571817Y-117099183D01*
X96384983Y-116945851D01*
X96171824Y-116831916D01*
X95940534Y-116761755D01*
X95760268Y-116744000D01*
X94752697Y-116744000D01*
X94722012Y-116432449D01*
X94623260Y-116106908D01*
X94462896Y-115806888D01*
X94247082Y-115543918D01*
X93984112Y-115328104D01*
X93684092Y-115167740D01*
X93358551Y-115068988D01*
X93104841Y-115044000D01*
X91935159Y-115044000D01*
X91681449Y-115068988D01*
X91355908Y-115167740D01*
X91055888Y-115328104D01*
X90922000Y-115437983D01*
X90922000Y-113456955D01*
X93375704Y-113456955D01*
X93494369Y-113761941D01*
X93837689Y-113923855D01*
X94206002Y-114015680D01*
X94585150Y-114033885D01*
X94960566Y-113977774D01*
X95134556Y-113915302D01*
X110306000Y-113915302D01*
X110306000Y-114176698D01*
X110356996Y-114433072D01*
X110457028Y-114674570D01*
X110602252Y-114891913D01*
X110787087Y-115076748D01*
X111004430Y-115221972D01*
X111245928Y-115322004D01*
X111502302Y-115373000D01*
X111763698Y-115373000D01*
X112020072Y-115322004D01*
X112261570Y-115221972D01*
X112478913Y-115076748D01*
X112663748Y-114891913D01*
X112808972Y-114674570D01*
X112909004Y-114433072D01*
X112921193Y-114371795D01*
X112929406Y-114345541D01*
X112940520Y-114306156D01*
X112966286Y-114203924D01*
X112972239Y-114178364D01*
X112992074Y-114085664D01*
X112992683Y-114082790D01*
X113007946Y-114010022D01*
X113018189Y-113968778D01*
X113023543Y-113952685D01*
X113026538Y-113946132D01*
X113035182Y-113931923D01*
X113060877Y-113898550D01*
X113122000Y-113832619D01*
X115059700Y-111894918D01*
X115155907Y-111803654D01*
X115230375Y-111740615D01*
X115296724Y-111690469D01*
X115364263Y-111644009D01*
X115439837Y-111594481D01*
X115445236Y-111590908D01*
X115524810Y-111537740D01*
X115549544Y-111520461D01*
X115628760Y-111462638D01*
X115666352Y-111433260D01*
X115747660Y-111365305D01*
X115788527Y-111328434D01*
X115874375Y-111244872D01*
X115911116Y-111206392D01*
X115961031Y-111150130D01*
X116029248Y-111081913D01*
X116174472Y-110864570D01*
X116274504Y-110623072D01*
X116325500Y-110366698D01*
X116325500Y-110105302D01*
X116274504Y-109848928D01*
X116174472Y-109607430D01*
X116029248Y-109390087D01*
X115844413Y-109205252D01*
X115627070Y-109060028D01*
X115385572Y-108959996D01*
X115129198Y-108909000D01*
X114867802Y-108909000D01*
X114611428Y-108959996D01*
X114369930Y-109060028D01*
X114152587Y-109205252D01*
X113967752Y-109390087D01*
X113822528Y-109607430D01*
X113722496Y-109848928D01*
X113671500Y-110105302D01*
X113671500Y-110366698D01*
X113722496Y-110623072D01*
X113730278Y-110641860D01*
X113736335Y-110667042D01*
X111846373Y-112557006D01*
X111780455Y-112618116D01*
X111747075Y-112643816D01*
X111732865Y-112652461D01*
X111726307Y-112655459D01*
X111710223Y-112660810D01*
X111668976Y-112671053D01*
X111596208Y-112686316D01*
X111593334Y-112686925D01*
X111500634Y-112706760D01*
X111475068Y-112712715D01*
X111372836Y-112738482D01*
X111333449Y-112749597D01*
X111307206Y-112757807D01*
X111245928Y-112769996D01*
X111004430Y-112870028D01*
X110787087Y-113015252D01*
X110602252Y-113200087D01*
X110457028Y-113417430D01*
X110356996Y-113658928D01*
X110306000Y-113915302D01*
X95134556Y-113915302D01*
X95317821Y-113849500D01*
X95481631Y-113761941D01*
X95600296Y-113456955D01*
X94488000Y-112344659D01*
X93375704Y-113456955D01*
X90922000Y-113456955D01*
X90922000Y-112197150D01*
X92554115Y-112197150D01*
X92610226Y-112572566D01*
X92738500Y-112929821D01*
X92826059Y-113093631D01*
X93131045Y-113212296D01*
X94243341Y-112100000D01*
X94732659Y-112100000D01*
X95844955Y-113212296D01*
X96149941Y-113093631D01*
X96311855Y-112750311D01*
X96403680Y-112381998D01*
X96421885Y-112002850D01*
X96365774Y-111627434D01*
X96237500Y-111270179D01*
X96149941Y-111106369D01*
X95844955Y-110987704D01*
X94732659Y-112100000D01*
X94243341Y-112100000D01*
X93131045Y-110987704D01*
X92826059Y-111106369D01*
X92664145Y-111449689D01*
X92572320Y-111818002D01*
X92554115Y-112197150D01*
X90922000Y-112197150D01*
X90922000Y-103915497D01*
X90925575Y-103933470D01*
X90933246Y-103958758D01*
X90986293Y-104133631D01*
X91006368Y-104199811D01*
X91108385Y-104446100D01*
X91112875Y-104456940D01*
X91208585Y-104636000D01*
X91244073Y-104702394D01*
X91386386Y-104915379D01*
X91398697Y-104933804D01*
X91570201Y-105142782D01*
X91575259Y-105148945D01*
X91578468Y-105152154D01*
X91731583Y-105336944D01*
X91739318Y-105346124D01*
X91923374Y-105560935D01*
X91937622Y-105577073D01*
X92101708Y-105757480D01*
X92124397Y-105781319D01*
X92276836Y-105934390D01*
X92308465Y-105964303D01*
X92457582Y-106097101D01*
X92495388Y-106128543D01*
X92649505Y-106248136D01*
X92687404Y-106275636D01*
X92854847Y-106389089D01*
X92886376Y-106409288D01*
X93075468Y-106523665D01*
X93097198Y-106536300D01*
X93316263Y-106658669D01*
X93328359Y-106665276D01*
X93496319Y-106754963D01*
X93575223Y-106807685D01*
X93677380Y-106850000D01*
X93575223Y-106892315D01*
X93259609Y-107103201D01*
X92991201Y-107371609D01*
X92780315Y-107687223D01*
X92635053Y-108037915D01*
X92561000Y-108410207D01*
X92561000Y-108789793D01*
X92635053Y-109162085D01*
X92780315Y-109512777D01*
X92991201Y-109828391D01*
X93259609Y-110096799D01*
X93575223Y-110307685D01*
X93669111Y-110346575D01*
X93658179Y-110350500D01*
X93494369Y-110438059D01*
X93375704Y-110743045D01*
X94488000Y-111855341D01*
X95600296Y-110743045D01*
X95481631Y-110438059D01*
X95296646Y-110350818D01*
X95400777Y-110307685D01*
X95716391Y-110096799D01*
X95777655Y-110035535D01*
X95820590Y-110053319D01*
X96115604Y-110112000D01*
X96416396Y-110112000D01*
X96711410Y-110053319D01*
X96989306Y-109938210D01*
X97095626Y-109867169D01*
X97107845Y-109907450D01*
X97107847Y-109907455D01*
X97107848Y-109907458D01*
X97217946Y-110173258D01*
X97230350Y-110196463D01*
X97331715Y-110386105D01*
X97353575Y-110427002D01*
X97427635Y-110537841D01*
X97502308Y-110651063D01*
X97560056Y-110741921D01*
X97603912Y-110814878D01*
X97636781Y-110873963D01*
X97662492Y-110924935D01*
X97685292Y-110975370D01*
X97708888Y-111033354D01*
X97735843Y-111105374D01*
X97767968Y-111195788D01*
X97776462Y-111220194D01*
X97783996Y-111258072D01*
X97884028Y-111499570D01*
X98029252Y-111716913D01*
X98214087Y-111901748D01*
X98431430Y-112046972D01*
X98672928Y-112147004D01*
X98929302Y-112198000D01*
X99190698Y-112198000D01*
X99447072Y-112147004D01*
X99688570Y-112046972D01*
X99905913Y-111901748D01*
X100090748Y-111716913D01*
X100235972Y-111499570D01*
X100336004Y-111258072D01*
X100387000Y-111001698D01*
X100387000Y-110740302D01*
X100336004Y-110483928D01*
X100235972Y-110242430D01*
X100090748Y-110025087D01*
X99905913Y-109840252D01*
X99688570Y-109695028D01*
X99447072Y-109594996D01*
X99387714Y-109583189D01*
X99372087Y-109578261D01*
X99340058Y-109568963D01*
X99245427Y-109543830D01*
X99232419Y-109540504D01*
X99151738Y-109520664D01*
X99098631Y-109506558D01*
X99092618Y-109504558D01*
X99086989Y-109498407D01*
X99044576Y-109440658D01*
X99031594Y-109421230D01*
X98986474Y-109336815D01*
X98949841Y-109248377D01*
X98922055Y-109156778D01*
X98903381Y-109062897D01*
X98894000Y-108967644D01*
X98894000Y-107184302D01*
X99384000Y-107184302D01*
X99384000Y-107445698D01*
X99434996Y-107702072D01*
X99535028Y-107943570D01*
X99680252Y-108160913D01*
X99865087Y-108345748D01*
X100082430Y-108490972D01*
X100323928Y-108591004D01*
X100385203Y-108603192D01*
X100411455Y-108611405D01*
X100450842Y-108622520D01*
X100553074Y-108648286D01*
X100578628Y-108654238D01*
X100671329Y-108674074D01*
X100674209Y-108674684D01*
X100746977Y-108689947D01*
X100788220Y-108700189D01*
X100804312Y-108705543D01*
X100810866Y-108708539D01*
X100825079Y-108717185D01*
X100858455Y-108742883D01*
X100924360Y-108803980D01*
X101347566Y-109227187D01*
X101433957Y-109298085D01*
X101704237Y-109519899D01*
X101704246Y-109519905D01*
X102056146Y-109755036D01*
X102087887Y-109776245D01*
X102494798Y-109993744D01*
X102494806Y-109993747D01*
X102494811Y-109993750D01*
X102921081Y-110170317D01*
X102921091Y-110170320D01*
X103362616Y-110304255D01*
X103362624Y-110304257D01*
X103815150Y-110394272D01*
X103815160Y-110394273D01*
X103815165Y-110394274D01*
X104274335Y-110439499D01*
X104274337Y-110439499D01*
X104274347Y-110439500D01*
X109268544Y-110439500D01*
X109410456Y-110442508D01*
X109521149Y-110449682D01*
X109618999Y-110459854D01*
X109715768Y-110472449D01*
X109813705Y-110485540D01*
X109831975Y-110487747D01*
X109928273Y-110498145D01*
X109966456Y-110501252D01*
X110065464Y-110506689D01*
X110116431Y-110507698D01*
X110223662Y-110506060D01*
X110277363Y-110503251D01*
X110398328Y-110492425D01*
X110446848Y-110486432D01*
X110465427Y-110483500D01*
X110493698Y-110483500D01*
X110750072Y-110432504D01*
X110991570Y-110332472D01*
X111208913Y-110187248D01*
X111393748Y-110002413D01*
X111538972Y-109785070D01*
X111639004Y-109543572D01*
X111690000Y-109287198D01*
X111690000Y-109025802D01*
X111639004Y-108769428D01*
X111538972Y-108527930D01*
X111393748Y-108310587D01*
X111208913Y-108125752D01*
X110991570Y-107980528D01*
X110750072Y-107880496D01*
X110493698Y-107829500D01*
X110232302Y-107829500D01*
X109975928Y-107880496D01*
X109734430Y-107980528D01*
X109517087Y-108125752D01*
X109332252Y-108310587D01*
X109187028Y-108527930D01*
X109155919Y-108603032D01*
X109141646Y-108631242D01*
X109139523Y-108635500D01*
X104362960Y-108635500D01*
X104080181Y-108607648D01*
X103801489Y-108552212D01*
X103529574Y-108469728D01*
X103267039Y-108360983D01*
X103016443Y-108227036D01*
X102780178Y-108069169D01*
X102560532Y-107888911D01*
X102199980Y-107528360D01*
X102138883Y-107462455D01*
X102113185Y-107429079D01*
X102104539Y-107414866D01*
X102101543Y-107408312D01*
X102096189Y-107392220D01*
X102085947Y-107350977D01*
X102070684Y-107278209D01*
X102070074Y-107275329D01*
X102050238Y-107182628D01*
X102044286Y-107157074D01*
X102018520Y-107054842D01*
X102007405Y-107015455D01*
X101999192Y-106989203D01*
X101987004Y-106927928D01*
X101886972Y-106686430D01*
X101741748Y-106469087D01*
X101556913Y-106284252D01*
X101339570Y-106139028D01*
X101098072Y-106038996D01*
X100841698Y-105988000D01*
X100580302Y-105988000D01*
X100323928Y-106038996D01*
X100082430Y-106139028D01*
X99865087Y-106284252D01*
X99680252Y-106469087D01*
X99535028Y-106686430D01*
X99434996Y-106927928D01*
X99384000Y-107184302D01*
X98894000Y-107184302D01*
X98894000Y-105131802D01*
X103278000Y-105131802D01*
X103278000Y-105393198D01*
X103328996Y-105649572D01*
X103429028Y-105891070D01*
X103574252Y-106108413D01*
X103759087Y-106293248D01*
X103976430Y-106438472D01*
X104217928Y-106538504D01*
X104474302Y-106589500D01*
X104735698Y-106589500D01*
X104992072Y-106538504D01*
X105233570Y-106438472D01*
X105450913Y-106293248D01*
X105635748Y-106108413D01*
X105780972Y-105891070D01*
X105881004Y-105649572D01*
X105932000Y-105393198D01*
X105932000Y-105131802D01*
X105881004Y-104875428D01*
X105780972Y-104633930D01*
X105750670Y-104588580D01*
X105741674Y-104570983D01*
X105730269Y-104549564D01*
X105682199Y-104462808D01*
X105678578Y-104456350D01*
X105637929Y-104384718D01*
X105611733Y-104336142D01*
X105600245Y-104311529D01*
X105597342Y-104303469D01*
X105596097Y-104298259D01*
X105593853Y-104279806D01*
X105592996Y-104235369D01*
X105596047Y-104187713D01*
X105615672Y-104089053D01*
X105649021Y-103979115D01*
X105692982Y-103872982D01*
X105747137Y-103771666D01*
X105810963Y-103676143D01*
X105883845Y-103587337D01*
X106604881Y-102866302D01*
X119323000Y-102866302D01*
X119323000Y-103127698D01*
X119373996Y-103384072D01*
X119474028Y-103625570D01*
X119508737Y-103677515D01*
X119521491Y-103701883D01*
X119541482Y-103737594D01*
X119595551Y-103828102D01*
X119609417Y-103850389D01*
X119660941Y-103929964D01*
X119662539Y-103932420D01*
X119703200Y-103994666D01*
X119725127Y-104031083D01*
X119732717Y-104046240D01*
X119735235Y-104052999D01*
X119739171Y-104069164D01*
X119744599Y-104110921D01*
X119748000Y-104200774D01*
X119748000Y-104702363D01*
X119748001Y-104702373D01*
X119776521Y-104991951D01*
X119778874Y-105003781D01*
X119833289Y-105277349D01*
X119833291Y-105277357D01*
X119833292Y-105277360D01*
X119917758Y-105555811D01*
X119917762Y-105555821D01*
X119917763Y-105555824D01*
X120029116Y-105824654D01*
X120029120Y-105824661D01*
X120029121Y-105824664D01*
X120150058Y-106050920D01*
X120166292Y-106081293D01*
X120327952Y-106323234D01*
X120327955Y-106323238D01*
X120327960Y-106323245D01*
X120504931Y-106538884D01*
X120512562Y-106548182D01*
X120718315Y-106753935D01*
X120718325Y-106753943D01*
X120934194Y-106931102D01*
X120943260Y-106938542D01*
X121185201Y-107100203D01*
X121185211Y-107100209D01*
X121441833Y-107237376D01*
X121441836Y-107237377D01*
X121441843Y-107237381D01*
X121710672Y-107348734D01*
X121710682Y-107348738D01*
X121982072Y-107431063D01*
X121989143Y-107433208D01*
X122273615Y-107489793D01*
X122274541Y-107489977D01*
X122564119Y-107518499D01*
X122564123Y-107518499D01*
X122564133Y-107518500D01*
X126177242Y-107518500D01*
X126267078Y-107521900D01*
X126308835Y-107527328D01*
X126325000Y-107531264D01*
X126331759Y-107533782D01*
X126346916Y-107541372D01*
X126383333Y-107563299D01*
X126445579Y-107603960D01*
X126448035Y-107605558D01*
X126477694Y-107624762D01*
X126455648Y-107638696D01*
X126420907Y-107662082D01*
X126336146Y-107722758D01*
X126294882Y-107754595D01*
X126204354Y-107829767D01*
X126167127Y-107863039D01*
X126154087Y-107871752D01*
X125969252Y-108056587D01*
X125824028Y-108273930D01*
X125723996Y-108515428D01*
X125673000Y-108771802D01*
X125673000Y-109033198D01*
X125723996Y-109289572D01*
X125824028Y-109531070D01*
X125969252Y-109748413D01*
X126154087Y-109933248D01*
X126371430Y-110078472D01*
X126612928Y-110178504D01*
X126869302Y-110229500D01*
X127130698Y-110229500D01*
X127387072Y-110178504D01*
X127628570Y-110078472D01*
X127845913Y-109933248D01*
X128030748Y-109748413D01*
X128175972Y-109531070D01*
X128276004Y-109289572D01*
X128327000Y-109033198D01*
X128327000Y-108771802D01*
X128307311Y-108672821D01*
X128299284Y-108619126D01*
X128296941Y-108604477D01*
X128282404Y-108519179D01*
X128281788Y-108515329D01*
X128983744Y-107813373D01*
X128994224Y-107800604D01*
X129121189Y-107645896D01*
X129121194Y-107645889D01*
X129121197Y-107645885D01*
X129241559Y-107465751D01*
X129243321Y-107462455D01*
X129343688Y-107274684D01*
X129343694Y-107274670D01*
X129343697Y-107274664D01*
X129426603Y-107074508D01*
X129430782Y-107060731D01*
X129463683Y-106952273D01*
X129494889Y-106855300D01*
X129518111Y-106792967D01*
X129533856Y-106757764D01*
X129541889Y-106743187D01*
X129545156Y-106738416D01*
X129551210Y-106731192D01*
X129569707Y-106712508D01*
X129607766Y-106678319D01*
X129667940Y-106627704D01*
X129697142Y-106603677D01*
X129750913Y-106567748D01*
X129935748Y-106382913D01*
X130080972Y-106165570D01*
X130181004Y-105924072D01*
X130232000Y-105667698D01*
X130232000Y-105406302D01*
X130181004Y-105149928D01*
X130080972Y-104908430D01*
X130046996Y-104857581D01*
X130033249Y-104831219D01*
X130014480Y-104797447D01*
X129959960Y-104705206D01*
X129947351Y-104684659D01*
X129895645Y-104603452D01*
X129895005Y-104602447D01*
X129854521Y-104539095D01*
X129832659Y-104501828D01*
X129824431Y-104484913D01*
X129820935Y-104475233D01*
X129816220Y-104455234D01*
X129810430Y-104409165D01*
X129807000Y-104315405D01*
X129807000Y-102426406D01*
X129810571Y-102316179D01*
X129817815Y-102249505D01*
X129826563Y-102205183D01*
X129837166Y-102168721D01*
X129853706Y-102124446D01*
X129881186Y-102060004D01*
X129917090Y-101977767D01*
X129924444Y-101960306D01*
X129962240Y-101867190D01*
X129975184Y-101832837D01*
X130012252Y-101726385D01*
X130025844Y-101683035D01*
X130033564Y-101655419D01*
X130054004Y-101606072D01*
X130105000Y-101349698D01*
X130105000Y-101088302D01*
X130054004Y-100831928D01*
X129953972Y-100590430D01*
X129808748Y-100373087D01*
X129623913Y-100188252D01*
X129406570Y-100043028D01*
X129165072Y-99942996D01*
X128908698Y-99892000D01*
X128647302Y-99892000D01*
X128390928Y-99942996D01*
X128149430Y-100043028D01*
X127932087Y-100188252D01*
X127747252Y-100373087D01*
X127602028Y-100590430D01*
X127501996Y-100831928D01*
X127451000Y-101088302D01*
X127451000Y-101349698D01*
X127501996Y-101606072D01*
X127602028Y-101847570D01*
X127747252Y-102064913D01*
X127794784Y-102112445D01*
X127813745Y-102135570D01*
X127832754Y-102157824D01*
X127899682Y-102233058D01*
X127906533Y-102240651D01*
X127962732Y-102302062D01*
X127997446Y-102341730D01*
X127998215Y-102342734D01*
X127999868Y-102354173D01*
X128003000Y-102429701D01*
X128003001Y-104315380D01*
X127999569Y-104409165D01*
X127993779Y-104455234D01*
X127989064Y-104475233D01*
X127985568Y-104484913D01*
X127977340Y-104501828D01*
X127955478Y-104539095D01*
X127914994Y-104602447D01*
X127914354Y-104603452D01*
X127862648Y-104684659D01*
X127850039Y-104705206D01*
X127795519Y-104797447D01*
X127776748Y-104831223D01*
X127763001Y-104857585D01*
X127729028Y-104908430D01*
X127628996Y-105149928D01*
X127597826Y-105306632D01*
X127511698Y-105289500D01*
X127250302Y-105289500D01*
X126993928Y-105340496D01*
X126752430Y-105440528D01*
X126700491Y-105475233D01*
X126676119Y-105487989D01*
X126640405Y-105507982D01*
X126549897Y-105562051D01*
X126527610Y-105575917D01*
X126448035Y-105627441D01*
X126445579Y-105629039D01*
X126383333Y-105669700D01*
X126346916Y-105691627D01*
X126331759Y-105699217D01*
X126325000Y-105701735D01*
X126308835Y-105705671D01*
X126267077Y-105711099D01*
X126177234Y-105714500D01*
X122652750Y-105714500D01*
X122539562Y-105703352D01*
X122428004Y-105681161D01*
X122319160Y-105648144D01*
X122214079Y-105604618D01*
X122113768Y-105551000D01*
X122019194Y-105487807D01*
X121931272Y-105415652D01*
X121850844Y-105335224D01*
X121778688Y-105247302D01*
X121715498Y-105152731D01*
X121661879Y-105052418D01*
X121618353Y-104947337D01*
X121585338Y-104838498D01*
X121563148Y-104726937D01*
X121552000Y-104613754D01*
X121552000Y-104200758D01*
X121555400Y-104110921D01*
X121560828Y-104069164D01*
X121564764Y-104052999D01*
X121567282Y-104046240D01*
X121574872Y-104031083D01*
X121596799Y-103994666D01*
X121637460Y-103932420D01*
X121639058Y-103929964D01*
X121690582Y-103850389D01*
X121704448Y-103828102D01*
X121758517Y-103737594D01*
X121778506Y-103701887D01*
X121791260Y-103677520D01*
X121825972Y-103625570D01*
X121926004Y-103384072D01*
X121977000Y-103127698D01*
X121977000Y-102866302D01*
X121926004Y-102609928D01*
X121825972Y-102368430D01*
X121680748Y-102151087D01*
X121495913Y-101966252D01*
X121278570Y-101821028D01*
X121037072Y-101720996D01*
X120780698Y-101670000D01*
X120519302Y-101670000D01*
X120262928Y-101720996D01*
X120021430Y-101821028D01*
X119804087Y-101966252D01*
X119619252Y-102151087D01*
X119474028Y-102368430D01*
X119373996Y-102609928D01*
X119323000Y-102866302D01*
X106604881Y-102866302D01*
X106672624Y-102798560D01*
X106764120Y-102687071D01*
X106910301Y-102508949D01*
X106910306Y-102508942D01*
X107118446Y-102197437D01*
X107132822Y-102170541D01*
X107284080Y-101887558D01*
X107295056Y-101867024D01*
X107438427Y-101520899D01*
X107438428Y-101520897D01*
X107438433Y-101520884D01*
X107547185Y-101162374D01*
X107563589Y-101079903D01*
X107620275Y-100794928D01*
X107622875Y-100768531D01*
X107656999Y-100422081D01*
X107656999Y-100422079D01*
X107657000Y-100422069D01*
X107657000Y-100143405D01*
X107674902Y-99961634D01*
X107710539Y-99782476D01*
X107763564Y-99607678D01*
X107833467Y-99438918D01*
X107919570Y-99277830D01*
X108021055Y-99125947D01*
X108136930Y-98984753D01*
X109189915Y-97931770D01*
X109264493Y-97860848D01*
X109313724Y-97819491D01*
X109345868Y-97796441D01*
X109366951Y-97783964D01*
X109387489Y-97774159D01*
X109419901Y-97761621D01*
X109473735Y-97743950D01*
X109551933Y-97720259D01*
X109554055Y-97719613D01*
X109649479Y-97690385D01*
X109664791Y-97685509D01*
X109685470Y-97678671D01*
X109734072Y-97669004D01*
X109975570Y-97568972D01*
X110192913Y-97423748D01*
X110377748Y-97238913D01*
X110522972Y-97021570D01*
X110623004Y-96780072D01*
X110674000Y-96523698D01*
X110674000Y-96262302D01*
X110623004Y-96005928D01*
X110522972Y-95764430D01*
X110377748Y-95547087D01*
X110192913Y-95362252D01*
X109975570Y-95217028D01*
X109734072Y-95116996D01*
X109477698Y-95066000D01*
X109216302Y-95066000D01*
X108959928Y-95116996D01*
X108718430Y-95217028D01*
X108501087Y-95362252D01*
X108316252Y-95547087D01*
X108171028Y-95764430D01*
X108070996Y-96005928D01*
X108061329Y-96054529D01*
X108054494Y-96075199D01*
X108049617Y-96090513D01*
X108020388Y-96185937D01*
X108019740Y-96188065D01*
X107996049Y-96266263D01*
X107978379Y-96320093D01*
X107965843Y-96352501D01*
X107956034Y-96373045D01*
X107943549Y-96394142D01*
X107920517Y-96426261D01*
X107879143Y-96475514D01*
X107808228Y-96550085D01*
X106789352Y-97568960D01*
X106687368Y-97670943D01*
X106449698Y-97960545D01*
X106449691Y-97960554D01*
X106241551Y-98272059D01*
X106241548Y-98272065D01*
X106064942Y-98602471D01*
X106064940Y-98602476D01*
X105921569Y-98948601D01*
X105912506Y-98978478D01*
X105812813Y-99307120D01*
X105812811Y-99307130D01*
X105739722Y-99674574D01*
X105738841Y-99683520D01*
X105716408Y-99911297D01*
X105703000Y-100047428D01*
X105703000Y-100326087D01*
X105685096Y-100507864D01*
X105649460Y-100687015D01*
X105596435Y-100861817D01*
X105526533Y-101030573D01*
X105440425Y-101191668D01*
X105338942Y-101343548D01*
X105223068Y-101484742D01*
X104434281Y-102273529D01*
X104434276Y-102273535D01*
X104239605Y-102510742D01*
X104239603Y-102510746D01*
X104239599Y-102510750D01*
X104069116Y-102765897D01*
X104069113Y-102765903D01*
X103924459Y-103036531D01*
X103924456Y-103036537D01*
X103924456Y-103036538D01*
X103862217Y-103186798D01*
X103862216Y-103186800D01*
X103807023Y-103320048D01*
X103718094Y-103613208D01*
X103717943Y-103613707D01*
X103658108Y-103914528D01*
X103658078Y-103914680D01*
X103653400Y-103962176D01*
X103639766Y-104081903D01*
X103626567Y-104168215D01*
X103613847Y-104230454D01*
X103601747Y-104275652D01*
X103588907Y-104313600D01*
X103572035Y-104355086D01*
X103547210Y-104408925D01*
X103511934Y-104480428D01*
X103467103Y-104569677D01*
X103464690Y-104574525D01*
X103453343Y-104597540D01*
X103429028Y-104633930D01*
X103328996Y-104875428D01*
X103278000Y-105131802D01*
X98894000Y-105131802D01*
X98894000Y-103407371D01*
X98893873Y-103406075D01*
X98885872Y-103324851D01*
X98879863Y-103263839D01*
X98879863Y-103263838D01*
X98871949Y-103183496D01*
X98865798Y-103121038D01*
X98809669Y-102838866D01*
X98809668Y-102838860D01*
X98726153Y-102563547D01*
X98726150Y-102563539D01*
X98616050Y-102297736D01*
X98614685Y-102295182D01*
X98480427Y-102044002D01*
X98480426Y-102044000D01*
X98480423Y-102043995D01*
X98320585Y-101804781D01*
X98317055Y-101800479D01*
X98146379Y-101592511D01*
X98138059Y-101582373D01*
X97934624Y-101378938D01*
X97913896Y-101361927D01*
X97712222Y-101196417D01*
X97712218Y-101196415D01*
X97712214Y-101196411D01*
X97473001Y-101036574D01*
X97362201Y-100977351D01*
X97315835Y-100952568D01*
X97050576Y-100808931D01*
X96830131Y-100686309D01*
X96641837Y-100578968D01*
X96473896Y-100481568D01*
X96418517Y-100449319D01*
X96418517Y-100400000D01*
X96404480Y-100257483D01*
X96362910Y-100120443D01*
X96295403Y-99994147D01*
X96204554Y-99883446D01*
X96093853Y-99792597D01*
X95967557Y-99725090D01*
X95830517Y-99683520D01*
X95688000Y-99669483D01*
X93288000Y-99669483D01*
X93145483Y-99683520D01*
X93008443Y-99725090D01*
X92882147Y-99792597D01*
X92798000Y-99861654D01*
X92798000Y-98802566D01*
X92824084Y-98537721D01*
X92876005Y-98276699D01*
X92953260Y-98022022D01*
X93055102Y-97776154D01*
X93180557Y-97541443D01*
X93328416Y-97320157D01*
X93497246Y-97114437D01*
X93537399Y-97074284D01*
X93638482Y-96980148D01*
X93705286Y-96927896D01*
X93751117Y-96899155D01*
X93787256Y-96881803D01*
X93830560Y-96866331D01*
X93897181Y-96848223D01*
X93995974Y-96825515D01*
X94118394Y-96797466D01*
X94139844Y-96792207D01*
X94184577Y-96780517D01*
X94780000Y-96780517D01*
X94922517Y-96766480D01*
X95059557Y-96724910D01*
X95185853Y-96657403D01*
X95296554Y-96566554D01*
X95387403Y-96455853D01*
X95432465Y-96371549D01*
X95517789Y-96456873D01*
X95653726Y-96320936D01*
X95723820Y-96585118D01*
X95998818Y-96706988D01*
X96292308Y-96772866D01*
X96593011Y-96780222D01*
X96889371Y-96728771D01*
X97169998Y-96620492D01*
X97236180Y-96585118D01*
X97306275Y-96320934D01*
X96480000Y-95494659D01*
X96465858Y-95508801D01*
X96221199Y-95264142D01*
X96235341Y-95250000D01*
X96724659Y-95250000D01*
X97550934Y-96076275D01*
X97815118Y-96006180D01*
X97936988Y-95731182D01*
X98002866Y-95437692D01*
X98010222Y-95136989D01*
X97958771Y-94840629D01*
X97850492Y-94560002D01*
X97815118Y-94493820D01*
X97550934Y-94423725D01*
X96724659Y-95250000D01*
X96235341Y-95250000D01*
X96221199Y-95235858D01*
X96465858Y-94991199D01*
X96480000Y-95005341D01*
X97241416Y-94243925D01*
X136123000Y-94243925D01*
X136123000Y-94456075D01*
X136164389Y-94664149D01*
X136245575Y-94860151D01*
X136363440Y-95036547D01*
X136513453Y-95186560D01*
X136608397Y-95250000D01*
X136513453Y-95313440D01*
X136363440Y-95463453D01*
X136245575Y-95639849D01*
X136164389Y-95835851D01*
X136123000Y-96043925D01*
X136123000Y-96256075D01*
X136164389Y-96464149D01*
X136245575Y-96660151D01*
X136363440Y-96836547D01*
X136513453Y-96986560D01*
X136689849Y-97104425D01*
X136885851Y-97185611D01*
X137093925Y-97227000D01*
X137306075Y-97227000D01*
X137514149Y-97185611D01*
X137710151Y-97104425D01*
X137886547Y-96986560D01*
X138036560Y-96836547D01*
X138154425Y-96660151D01*
X138235611Y-96464149D01*
X138277000Y-96256075D01*
X138277000Y-96043925D01*
X138235611Y-95835851D01*
X138154425Y-95639849D01*
X138036560Y-95463453D01*
X137886547Y-95313440D01*
X137791603Y-95250000D01*
X137886547Y-95186560D01*
X138036560Y-95036547D01*
X138154425Y-94860151D01*
X138235611Y-94664149D01*
X138277000Y-94456075D01*
X138277000Y-94243925D01*
X138235611Y-94035851D01*
X138154425Y-93839849D01*
X138036560Y-93663453D01*
X137886547Y-93513440D01*
X137710151Y-93395575D01*
X137514149Y-93314389D01*
X137306075Y-93273000D01*
X137093925Y-93273000D01*
X136885851Y-93314389D01*
X136689849Y-93395575D01*
X136513453Y-93513440D01*
X136363440Y-93663453D01*
X136245575Y-93839849D01*
X136164389Y-94035851D01*
X136123000Y-94243925D01*
X97241416Y-94243925D01*
X97306275Y-94179066D01*
X97236180Y-93914882D01*
X96961182Y-93793012D01*
X96667692Y-93727134D01*
X96366989Y-93719778D01*
X96070629Y-93771229D01*
X95790002Y-93879508D01*
X95723820Y-93914882D01*
X95653726Y-94179064D01*
X95517789Y-94043127D01*
X95432465Y-94128451D01*
X95387403Y-94044147D01*
X95296554Y-93933446D01*
X95185853Y-93842597D01*
X95059557Y-93775090D01*
X94922517Y-93733520D01*
X94780000Y-93719483D01*
X93180000Y-93719483D01*
X93037483Y-93733520D01*
X92900443Y-93775090D01*
X92774147Y-93842597D01*
X92663446Y-93933446D01*
X92572597Y-94044147D01*
X92505090Y-94170443D01*
X92463520Y-94307483D01*
X92449483Y-94450000D01*
X92449483Y-95045416D01*
X92437792Y-95090152D01*
X92432534Y-95111597D01*
X92404596Y-95233530D01*
X92381775Y-95332815D01*
X92363668Y-95399431D01*
X92348195Y-95442739D01*
X92330842Y-95478879D01*
X92302103Y-95524706D01*
X92249842Y-95591521D01*
X92155714Y-95692597D01*
X92047689Y-95800622D01*
X92047684Y-95800628D01*
X92047683Y-95800629D01*
X91802730Y-96099105D01*
X91757053Y-96154762D01*
X91502538Y-96535671D01*
X91502535Y-96535677D01*
X91286581Y-96939697D01*
X91286578Y-96939704D01*
X91286577Y-96939706D01*
X91146612Y-97277614D01*
X91111262Y-97362956D01*
X90978279Y-97801343D01*
X90978278Y-97801350D01*
X90978277Y-97801352D01*
X90922000Y-98084277D01*
X90922000Y-92192000D01*
X146558000Y-92192000D01*
X146558000Y-126248000D01*
G37*
G04 #@! TD.AperFunction*
G04 #@! TD*
D24*
G04 #@! TO.N,+12V*
X95069335Y-105119970D02*
X93926296Y-106146011D01*
X93676857Y-106012815D01*
X93458140Y-105890641D01*
X93269495Y-105776534D01*
X93102655Y-105663490D01*
X92949206Y-105544416D01*
X92800704Y-105412165D01*
X92648718Y-105259549D01*
X92484962Y-105079505D01*
X92301102Y-104864922D01*
X92096954Y-104618542D01*
X92464716Y-104316728D01*
X92603369Y-104454787D01*
X92606044Y-104456822D01*
X92749701Y-104538648D01*
X92751975Y-104539663D01*
X92753622Y-104540091D01*
X92895894Y-104567052D01*
X92898374Y-104567273D01*
X92899887Y-104567169D01*
X93042522Y-104548737D01*
X93045359Y-104548031D01*
X93190107Y-104493676D01*
X93191709Y-104492944D01*
X93340321Y-104412139D01*
X93341055Y-104411708D01*
X93495279Y-104313923D01*
X93495412Y-104313837D01*
X93656806Y-104208668D01*
X93826936Y-104105682D01*
X93999718Y-104018230D01*
X95069335Y-105119970D01*
G04 #@! TA.AperFunction,Conductor*
D23*
G36*
X95069335Y-105119970D02*
G01*
X93926296Y-106146011D01*
X93676857Y-106012815D01*
X93458140Y-105890641D01*
X93269495Y-105776534D01*
X93102655Y-105663490D01*
X92949206Y-105544416D01*
X92800704Y-105412165D01*
X92648718Y-105259549D01*
X92484962Y-105079505D01*
X92301102Y-104864922D01*
X92096954Y-104618542D01*
X92464716Y-104316728D01*
X92603369Y-104454787D01*
X92606044Y-104456822D01*
X92749701Y-104538648D01*
X92751975Y-104539663D01*
X92753622Y-104540091D01*
X92895894Y-104567052D01*
X92898374Y-104567273D01*
X92899887Y-104567169D01*
X93042522Y-104548737D01*
X93045359Y-104548031D01*
X93190107Y-104493676D01*
X93191709Y-104492944D01*
X93340321Y-104412139D01*
X93341055Y-104411708D01*
X93495279Y-104313923D01*
X93495412Y-104313837D01*
X93656806Y-104208668D01*
X93826936Y-104105682D01*
X93999718Y-104018230D01*
X95069335Y-105119970D01*
G37*
G04 #@! TD.AperFunction*
G04 #@! TD*
D24*
G04 #@! TO.N,+12V*
X94230018Y-95996329D02*
X94087622Y-96041314D01*
X93953008Y-96076493D01*
X93830774Y-96104499D01*
X93830765Y-96104501D01*
X93717475Y-96130541D01*
X93716989Y-96130663D01*
X93609261Y-96159945D01*
X93608319Y-96160240D01*
X93502585Y-96198016D01*
X93501361Y-96198527D01*
X93394051Y-96250051D01*
X93392801Y-96250741D01*
X93280346Y-96321263D01*
X93279269Y-96322019D01*
X93158101Y-96416793D01*
X93157270Y-96417502D01*
X93032790Y-96533428D01*
X92696569Y-96197207D01*
X92812494Y-96072726D01*
X92813203Y-96071895D01*
X92907977Y-95950727D01*
X92908733Y-95949650D01*
X92979256Y-95837196D01*
X92979946Y-95835946D01*
X93031470Y-95728635D01*
X93031981Y-95727411D01*
X93069758Y-95621677D01*
X93070053Y-95620735D01*
X93099335Y-95513007D01*
X93099457Y-95512521D01*
X93125497Y-95399231D01*
X93125499Y-95399222D01*
X93153506Y-95276988D01*
X93188685Y-95142374D01*
X93233671Y-94999979D01*
X94249887Y-94980114D01*
X94230018Y-95996329D01*
G04 #@! TA.AperFunction,Conductor*
D23*
G36*
X94230018Y-95996329D02*
G01*
X94087622Y-96041314D01*
X93953008Y-96076493D01*
X93830774Y-96104499D01*
X93830765Y-96104501D01*
X93717475Y-96130541D01*
X93716989Y-96130663D01*
X93609261Y-96159945D01*
X93608319Y-96160240D01*
X93502585Y-96198016D01*
X93501361Y-96198527D01*
X93394051Y-96250051D01*
X93392801Y-96250741D01*
X93280346Y-96321263D01*
X93279269Y-96322019D01*
X93158101Y-96416793D01*
X93157270Y-96417502D01*
X93032790Y-96533428D01*
X92696569Y-96197207D01*
X92812494Y-96072726D01*
X92813203Y-96071895D01*
X92907977Y-95950727D01*
X92908733Y-95949650D01*
X92979256Y-95837196D01*
X92979946Y-95835946D01*
X93031470Y-95728635D01*
X93031981Y-95727411D01*
X93069758Y-95621677D01*
X93070053Y-95620735D01*
X93099335Y-95513007D01*
X93099457Y-95512521D01*
X93125497Y-95399231D01*
X93125499Y-95399222D01*
X93153506Y-95276988D01*
X93188685Y-95142374D01*
X93233671Y-94999979D01*
X94249887Y-94980114D01*
X94230018Y-95996329D01*
G37*
G04 #@! TD.AperFunction*
G04 #@! TD*
D24*
G04 #@! TO.N,+12V*
X96773202Y-104995477D02*
X96105291Y-105761628D01*
X95961029Y-105702087D01*
X95830834Y-105640179D01*
X95716107Y-105580512D01*
X95610149Y-105524358D01*
X95609829Y-105524195D01*
X95506305Y-105473031D01*
X95505559Y-105472692D01*
X95397846Y-105427848D01*
X95396767Y-105427455D01*
X95278240Y-105390262D01*
X95277018Y-105389944D01*
X95141056Y-105361731D01*
X95139888Y-105361545D01*
X94979865Y-105343642D01*
X94978870Y-105343570D01*
X94800448Y-105337710D01*
X94800448Y-104862243D01*
X94966520Y-104856164D01*
X94967651Y-104856072D01*
X95117111Y-104837136D01*
X95118480Y-104836886D01*
X95245008Y-104806508D01*
X95246482Y-104806058D01*
X95355991Y-104765207D01*
X95357338Y-104764614D01*
X95455742Y-104714255D01*
X95456740Y-104713685D01*
X95549954Y-104654787D01*
X95550506Y-104654418D01*
X95644443Y-104587948D01*
X95644572Y-104587855D01*
X95745033Y-104514861D01*
X95857824Y-104436382D01*
X95981515Y-104358005D01*
X96773202Y-104995477D01*
G04 #@! TA.AperFunction,Conductor*
D23*
G36*
X96773202Y-104995477D02*
G01*
X96105291Y-105761628D01*
X95961029Y-105702087D01*
X95830834Y-105640179D01*
X95716107Y-105580512D01*
X95610149Y-105524358D01*
X95609829Y-105524195D01*
X95506305Y-105473031D01*
X95505559Y-105472692D01*
X95397846Y-105427848D01*
X95396767Y-105427455D01*
X95278240Y-105390262D01*
X95277018Y-105389944D01*
X95141056Y-105361731D01*
X95139888Y-105361545D01*
X94979865Y-105343642D01*
X94978870Y-105343570D01*
X94800448Y-105337710D01*
X94800448Y-104862243D01*
X94966520Y-104856164D01*
X94967651Y-104856072D01*
X95117111Y-104837136D01*
X95118480Y-104836886D01*
X95245008Y-104806508D01*
X95246482Y-104806058D01*
X95355991Y-104765207D01*
X95357338Y-104764614D01*
X95455742Y-104714255D01*
X95456740Y-104713685D01*
X95549954Y-104654787D01*
X95550506Y-104654418D01*
X95644443Y-104587948D01*
X95644572Y-104587855D01*
X95745033Y-104514861D01*
X95857824Y-104436382D01*
X95981515Y-104358005D01*
X96773202Y-104995477D01*
G37*
G04 #@! TD.AperFunction*
G04 #@! TD*
D24*
G04 #@! TO.N,+12V*
X95655622Y-104830159D02*
X95657024Y-104831179D01*
X95686459Y-104849663D01*
X95687241Y-104850116D01*
X95731934Y-104873931D01*
X95732748Y-104874329D01*
X95789584Y-104899588D01*
X95790585Y-104899982D01*
X95856446Y-104922798D01*
X95857760Y-104923176D01*
X95929532Y-104939663D01*
X95931310Y-104939940D01*
X96005874Y-104946212D01*
X96008271Y-104946187D01*
X96082513Y-104938357D01*
X96085532Y-104937658D01*
X96156334Y-104911840D01*
X96159553Y-104910106D01*
X96214999Y-104868947D01*
X96550770Y-105204744D01*
X96456936Y-105280028D01*
X96343065Y-105338190D01*
X96223812Y-105375229D01*
X96104054Y-105395059D01*
X95988789Y-105401624D01*
X95882993Y-105398919D01*
X95791686Y-105390973D01*
X95719720Y-105381819D01*
X95672250Y-105375544D01*
X95670082Y-105375444D01*
X95653498Y-105376102D01*
X93966623Y-105100000D01*
X95649024Y-104824630D01*
X95655622Y-104830159D01*
G04 #@! TA.AperFunction,Conductor*
D23*
G36*
X95655622Y-104830159D02*
G01*
X95657024Y-104831179D01*
X95686459Y-104849663D01*
X95687241Y-104850116D01*
X95731934Y-104873931D01*
X95732748Y-104874329D01*
X95789584Y-104899588D01*
X95790585Y-104899982D01*
X95856446Y-104922798D01*
X95857760Y-104923176D01*
X95929532Y-104939663D01*
X95931310Y-104939940D01*
X96005874Y-104946212D01*
X96008271Y-104946187D01*
X96082513Y-104938357D01*
X96085532Y-104937658D01*
X96156334Y-104911840D01*
X96159553Y-104910106D01*
X96214999Y-104868947D01*
X96550770Y-105204744D01*
X96456936Y-105280028D01*
X96343065Y-105338190D01*
X96223812Y-105375229D01*
X96104054Y-105395059D01*
X95988789Y-105401624D01*
X95882993Y-105398919D01*
X95791686Y-105390973D01*
X95719720Y-105381819D01*
X95672250Y-105375544D01*
X95670082Y-105375444D01*
X95653498Y-105376102D01*
X93966623Y-105100000D01*
X95649024Y-104824630D01*
X95655622Y-104830159D01*
G37*
G04 #@! TD.AperFunction*
G04 #@! TD*
D24*
G04 #@! TO.N,+3V3*
X111177578Y-118569726D02*
X111218290Y-118694582D01*
X111254450Y-118809672D01*
X111284299Y-118911632D01*
X111308985Y-119006032D01*
X111329570Y-119098155D01*
X111347162Y-119193484D01*
X111362835Y-119297410D01*
X111377669Y-119415380D01*
X111392708Y-119552540D01*
X111407776Y-119701871D01*
X111083754Y-119733788D01*
X111066505Y-119640043D01*
X111065740Y-119637462D01*
X111032014Y-119556419D01*
X111030369Y-119553573D01*
X110983758Y-119492756D01*
X110981413Y-119490408D01*
X110923397Y-119445859D01*
X110921107Y-119444458D01*
X110853165Y-119412215D01*
X110851511Y-119411568D01*
X110775122Y-119387673D01*
X110774225Y-119387428D01*
X110690869Y-119367920D01*
X110690642Y-119367869D01*
X110601946Y-119348821D01*
X110509694Y-119326355D01*
X110423561Y-119299170D01*
X110421094Y-118542607D01*
X111177578Y-118569726D01*
G04 #@! TA.AperFunction,Conductor*
D23*
G36*
X111177578Y-118569726D02*
G01*
X111218290Y-118694582D01*
X111254450Y-118809672D01*
X111284299Y-118911632D01*
X111308985Y-119006032D01*
X111329570Y-119098155D01*
X111347162Y-119193484D01*
X111362835Y-119297410D01*
X111377669Y-119415380D01*
X111392708Y-119552540D01*
X111407776Y-119701871D01*
X111083754Y-119733788D01*
X111066505Y-119640043D01*
X111065740Y-119637462D01*
X111032014Y-119556419D01*
X111030369Y-119553573D01*
X110983758Y-119492756D01*
X110981413Y-119490408D01*
X110923397Y-119445859D01*
X110921107Y-119444458D01*
X110853165Y-119412215D01*
X110851511Y-119411568D01*
X110775122Y-119387673D01*
X110774225Y-119387428D01*
X110690869Y-119367920D01*
X110690642Y-119367869D01*
X110601946Y-119348821D01*
X110509694Y-119326355D01*
X110423561Y-119299170D01*
X110421094Y-118542607D01*
X111177578Y-118569726D01*
G37*
G04 #@! TD.AperFunction*
G04 #@! TD*
D24*
G04 #@! TO.N,+3V3*
X134573007Y-115890508D02*
X134518338Y-115955054D01*
X134516871Y-115957197D01*
X134478555Y-116027693D01*
X134477414Y-116030592D01*
X134459808Y-116098992D01*
X134459407Y-116102140D01*
X134459312Y-116169319D01*
X134459590Y-116171980D01*
X134473808Y-116238813D01*
X134474343Y-116240640D01*
X134499673Y-116308001D01*
X134500126Y-116309059D01*
X134533372Y-116377825D01*
X134533605Y-116378282D01*
X134571555Y-116449307D01*
X134610921Y-116523294D01*
X134644631Y-116593065D01*
X134103042Y-117121536D01*
X133595858Y-116559392D01*
X133655562Y-116441554D01*
X133655690Y-116441294D01*
X133708872Y-116330101D01*
X133708923Y-116329994D01*
X133755731Y-116229738D01*
X133800096Y-116137262D01*
X133846175Y-116048891D01*
X133897995Y-115961204D01*
X133959720Y-115870535D01*
X134035489Y-115773326D01*
X134129438Y-115666051D01*
X134236877Y-115554377D01*
X134573007Y-115890508D01*
G04 #@! TA.AperFunction,Conductor*
D23*
G36*
X134573007Y-115890508D02*
G01*
X134518338Y-115955054D01*
X134516871Y-115957197D01*
X134478555Y-116027693D01*
X134477414Y-116030592D01*
X134459808Y-116098992D01*
X134459407Y-116102140D01*
X134459312Y-116169319D01*
X134459590Y-116171980D01*
X134473808Y-116238813D01*
X134474343Y-116240640D01*
X134499673Y-116308001D01*
X134500126Y-116309059D01*
X134533372Y-116377825D01*
X134533605Y-116378282D01*
X134571555Y-116449307D01*
X134610921Y-116523294D01*
X134644631Y-116593065D01*
X134103042Y-117121536D01*
X133595858Y-116559392D01*
X133655562Y-116441554D01*
X133655690Y-116441294D01*
X133708872Y-116330101D01*
X133708923Y-116329994D01*
X133755731Y-116229738D01*
X133800096Y-116137262D01*
X133846175Y-116048891D01*
X133897995Y-115961204D01*
X133959720Y-115870535D01*
X134035489Y-115773326D01*
X134129438Y-115666051D01*
X134236877Y-115554377D01*
X134573007Y-115890508D01*
G37*
G04 #@! TD.AperFunction*
G04 #@! TD*
D24*
G04 #@! TO.N,+3V3*
X133031704Y-121421077D02*
X133105691Y-121460442D01*
X133176716Y-121498392D01*
X133177173Y-121498625D01*
X133245938Y-121531870D01*
X133246996Y-121532323D01*
X133314358Y-121557653D01*
X133316186Y-121558188D01*
X133383019Y-121572405D01*
X133385679Y-121572683D01*
X133452857Y-121572588D01*
X133456005Y-121572187D01*
X133524405Y-121554581D01*
X133527304Y-121553440D01*
X133597800Y-121515124D01*
X133599943Y-121513657D01*
X133664490Y-121458989D01*
X134000620Y-121795119D01*
X133888945Y-121902557D01*
X133781671Y-121996506D01*
X133684462Y-122072275D01*
X133593793Y-122134001D01*
X133506106Y-122185821D01*
X133417736Y-122231901D01*
X133325261Y-122276266D01*
X133225005Y-122323074D01*
X133224898Y-122323125D01*
X133113705Y-122376308D01*
X133113445Y-122376436D01*
X132995609Y-122436141D01*
X132433464Y-121928958D01*
X132961934Y-121387368D01*
X133031704Y-121421077D01*
G04 #@! TA.AperFunction,Conductor*
D23*
G36*
X133031704Y-121421077D02*
G01*
X133105691Y-121460442D01*
X133176716Y-121498392D01*
X133177173Y-121498625D01*
X133245938Y-121531870D01*
X133246996Y-121532323D01*
X133314358Y-121557653D01*
X133316186Y-121558188D01*
X133383019Y-121572405D01*
X133385679Y-121572683D01*
X133452857Y-121572588D01*
X133456005Y-121572187D01*
X133524405Y-121554581D01*
X133527304Y-121553440D01*
X133597800Y-121515124D01*
X133599943Y-121513657D01*
X133664490Y-121458989D01*
X134000620Y-121795119D01*
X133888945Y-121902557D01*
X133781671Y-121996506D01*
X133684462Y-122072275D01*
X133593793Y-122134001D01*
X133506106Y-122185821D01*
X133417736Y-122231901D01*
X133325261Y-122276266D01*
X133225005Y-122323074D01*
X133224898Y-122323125D01*
X133113705Y-122376308D01*
X133113445Y-122376436D01*
X132995609Y-122436141D01*
X132433464Y-121928958D01*
X132961934Y-121387368D01*
X133031704Y-121421077D01*
G37*
G04 #@! TD.AperFunction*
G04 #@! TD*
D24*
G04 #@! TO.N,+3V3*
X111581785Y-120927182D02*
X111582924Y-120929048D01*
X111642748Y-121010369D01*
X111644528Y-121012324D01*
X111709894Y-121070582D01*
X111712111Y-121072166D01*
X111783102Y-121112158D01*
X111785184Y-121113095D01*
X111861879Y-121139622D01*
X111863342Y-121140032D01*
X111945823Y-121157892D01*
X111946525Y-121158024D01*
X112034871Y-121172015D01*
X112034872Y-121172015D01*
X112128881Y-121186893D01*
X112228397Y-121207380D01*
X112325389Y-121235797D01*
X112340176Y-121992176D01*
X111583393Y-121977381D01*
X111544159Y-121861704D01*
X111509571Y-121754568D01*
X111480186Y-121659663D01*
X111453717Y-121572301D01*
X111453708Y-121572269D01*
X111427841Y-121487679D01*
X111427797Y-121487539D01*
X111400262Y-121401085D01*
X111400190Y-121400866D01*
X111368690Y-121307837D01*
X111368603Y-121307587D01*
X111330845Y-121203274D01*
X111330755Y-121203035D01*
X111284444Y-121082726D01*
X111284362Y-121082517D01*
X111231939Y-120953184D01*
X111532704Y-120828606D01*
X111581785Y-120927182D01*
G04 #@! TA.AperFunction,Conductor*
D23*
G36*
X111581785Y-120927182D02*
G01*
X111582924Y-120929048D01*
X111642748Y-121010369D01*
X111644528Y-121012324D01*
X111709894Y-121070582D01*
X111712111Y-121072166D01*
X111783102Y-121112158D01*
X111785184Y-121113095D01*
X111861879Y-121139622D01*
X111863342Y-121140032D01*
X111945823Y-121157892D01*
X111946525Y-121158024D01*
X112034871Y-121172015D01*
X112034872Y-121172015D01*
X112128881Y-121186893D01*
X112228397Y-121207380D01*
X112325389Y-121235797D01*
X112340176Y-121992176D01*
X111583393Y-121977381D01*
X111544159Y-121861704D01*
X111509571Y-121754568D01*
X111480186Y-121659663D01*
X111453717Y-121572301D01*
X111453708Y-121572269D01*
X111427841Y-121487679D01*
X111427797Y-121487539D01*
X111400262Y-121401085D01*
X111400190Y-121400866D01*
X111368690Y-121307837D01*
X111368603Y-121307587D01*
X111330845Y-121203274D01*
X111330755Y-121203035D01*
X111284444Y-121082726D01*
X111284362Y-121082517D01*
X111231939Y-120953184D01*
X111532704Y-120828606D01*
X111581785Y-120927182D01*
G37*
G04 #@! TD.AperFunction*
G04 #@! TD*
D24*
G04 #@! TO.N,+3V3*
X112580573Y-113328621D02*
X112495815Y-113420046D01*
X112495065Y-113420932D01*
X112424752Y-113512254D01*
X112423965Y-113513401D01*
X112372311Y-113598308D01*
X112371610Y-113599629D01*
X112334516Y-113680780D01*
X112334016Y-113682051D01*
X112307385Y-113762104D01*
X112307110Y-113763052D01*
X112286842Y-113844663D01*
X112286738Y-113845117D01*
X112268736Y-113930944D01*
X112248961Y-114023367D01*
X112223338Y-114125030D01*
X112190379Y-114230385D01*
X111433825Y-114245176D01*
X111448614Y-113488622D01*
X111553968Y-113455662D01*
X111655632Y-113430038D01*
X111748054Y-113410263D01*
X111833881Y-113392261D01*
X111834335Y-113392157D01*
X111915946Y-113371889D01*
X111916894Y-113371614D01*
X111996946Y-113344982D01*
X111998217Y-113344482D01*
X112079369Y-113307388D01*
X112080690Y-113306687D01*
X112165597Y-113255033D01*
X112166744Y-113254246D01*
X112258066Y-113183933D01*
X112258952Y-113183184D01*
X112350379Y-113098427D01*
X112580573Y-113328621D01*
G04 #@! TA.AperFunction,Conductor*
D23*
G36*
X112580573Y-113328621D02*
G01*
X112495815Y-113420046D01*
X112495065Y-113420932D01*
X112424752Y-113512254D01*
X112423965Y-113513401D01*
X112372311Y-113598308D01*
X112371610Y-113599629D01*
X112334516Y-113680780D01*
X112334016Y-113682051D01*
X112307385Y-113762104D01*
X112307110Y-113763052D01*
X112286842Y-113844663D01*
X112286738Y-113845117D01*
X112268736Y-113930944D01*
X112248961Y-114023367D01*
X112223338Y-114125030D01*
X112190379Y-114230385D01*
X111433825Y-114245176D01*
X111448614Y-113488622D01*
X111553968Y-113455662D01*
X111655632Y-113430038D01*
X111748054Y-113410263D01*
X111833881Y-113392261D01*
X111834335Y-113392157D01*
X111915946Y-113371889D01*
X111916894Y-113371614D01*
X111996946Y-113344982D01*
X111998217Y-113344482D01*
X112079369Y-113307388D01*
X112080690Y-113306687D01*
X112165597Y-113255033D01*
X112166744Y-113254246D01*
X112258066Y-113183933D01*
X112258952Y-113183184D01*
X112350379Y-113098427D01*
X112580573Y-113328621D01*
G37*
G04 #@! TD.AperFunction*
G04 #@! TD*
D24*
G04 #@! TO.N,+3V3*
X115444551Y-110617695D02*
X115358104Y-110715135D01*
X115272928Y-110798043D01*
X115192314Y-110865418D01*
X115113647Y-110922840D01*
X115034289Y-110975864D01*
X114952004Y-111029790D01*
X114951767Y-111029949D01*
X114864130Y-111090235D01*
X114863671Y-111090566D01*
X114768330Y-111162623D01*
X114767781Y-111163062D01*
X114662284Y-111252369D01*
X114661750Y-111252848D01*
X114552625Y-111356367D01*
X114322409Y-111126151D01*
X114385635Y-111055981D01*
X114386646Y-111054703D01*
X114438067Y-110980345D01*
X114439084Y-110978590D01*
X114473030Y-110907421D01*
X114473824Y-110905278D01*
X114492696Y-110835721D01*
X114493089Y-110833524D01*
X114499289Y-110764002D01*
X114499318Y-110762147D01*
X114495245Y-110691081D01*
X114495105Y-110689789D01*
X114483161Y-110615604D01*
X114483023Y-110614885D01*
X114465609Y-110536001D01*
X114465556Y-110535769D01*
X114445091Y-110450684D01*
X114425950Y-110366512D01*
X115065973Y-109962524D01*
X115444551Y-110617695D01*
G04 #@! TA.AperFunction,Conductor*
D23*
G36*
X115444551Y-110617695D02*
G01*
X115358104Y-110715135D01*
X115272928Y-110798043D01*
X115192314Y-110865418D01*
X115113647Y-110922840D01*
X115034289Y-110975864D01*
X114952004Y-111029790D01*
X114951767Y-111029949D01*
X114864130Y-111090235D01*
X114863671Y-111090566D01*
X114768330Y-111162623D01*
X114767781Y-111163062D01*
X114662284Y-111252369D01*
X114661750Y-111252848D01*
X114552625Y-111356367D01*
X114322409Y-111126151D01*
X114385635Y-111055981D01*
X114386646Y-111054703D01*
X114438067Y-110980345D01*
X114439084Y-110978590D01*
X114473030Y-110907421D01*
X114473824Y-110905278D01*
X114492696Y-110835721D01*
X114493089Y-110833524D01*
X114499289Y-110764002D01*
X114499318Y-110762147D01*
X114495245Y-110691081D01*
X114495105Y-110689789D01*
X114483161Y-110615604D01*
X114483023Y-110614885D01*
X114465609Y-110536001D01*
X114465556Y-110535769D01*
X114445091Y-110450684D01*
X114425950Y-110366512D01*
X115065973Y-109962524D01*
X115444551Y-110617695D01*
G37*
G04 #@! TD.AperFunction*
G04 #@! TD*
D24*
G04 #@! TO.N,+3V3*
X120095040Y-116913279D02*
X120049750Y-117000852D01*
X120001777Y-117085042D01*
X119956628Y-117161804D01*
X119956487Y-117162050D01*
X119915852Y-117234806D01*
X119915479Y-117235529D01*
X119880948Y-117307876D01*
X119880442Y-117309093D01*
X119853577Y-117384680D01*
X119853125Y-117386277D01*
X119835487Y-117468752D01*
X119835240Y-117470475D01*
X119828391Y-117563487D01*
X119828374Y-117565071D01*
X119833874Y-117672269D01*
X119834007Y-117673566D01*
X119851551Y-117786569D01*
X119385453Y-117879282D01*
X119358730Y-117750412D01*
X119358672Y-117750146D01*
X119331099Y-117630185D01*
X119331009Y-117629819D01*
X119304066Y-117526710D01*
X119303936Y-117526248D01*
X119276548Y-117435599D01*
X119276378Y-117435076D01*
X119247470Y-117352493D01*
X119247278Y-117351980D01*
X119215774Y-117273071D01*
X119215596Y-117272648D01*
X119180422Y-117193020D01*
X119180294Y-117192739D01*
X119140373Y-117108001D01*
X119140309Y-117107868D01*
X119094565Y-117013625D01*
X119094559Y-117013612D01*
X119045799Y-116913446D01*
X119570500Y-116367822D01*
X120095040Y-116913279D01*
G04 #@! TA.AperFunction,Conductor*
D23*
G36*
X120095040Y-116913279D02*
G01*
X120049750Y-117000852D01*
X120001777Y-117085042D01*
X119956628Y-117161804D01*
X119956487Y-117162050D01*
X119915852Y-117234806D01*
X119915479Y-117235529D01*
X119880948Y-117307876D01*
X119880442Y-117309093D01*
X119853577Y-117384680D01*
X119853125Y-117386277D01*
X119835487Y-117468752D01*
X119835240Y-117470475D01*
X119828391Y-117563487D01*
X119828374Y-117565071D01*
X119833874Y-117672269D01*
X119834007Y-117673566D01*
X119851551Y-117786569D01*
X119385453Y-117879282D01*
X119358730Y-117750412D01*
X119358672Y-117750146D01*
X119331099Y-117630185D01*
X119331009Y-117629819D01*
X119304066Y-117526710D01*
X119303936Y-117526248D01*
X119276548Y-117435599D01*
X119276378Y-117435076D01*
X119247470Y-117352493D01*
X119247278Y-117351980D01*
X119215774Y-117273071D01*
X119215596Y-117272648D01*
X119180422Y-117193020D01*
X119180294Y-117192739D01*
X119140373Y-117108001D01*
X119140309Y-117107868D01*
X119094565Y-117013625D01*
X119094559Y-117013612D01*
X119045799Y-116913446D01*
X119570500Y-116367822D01*
X120095040Y-116913279D01*
G37*
G04 #@! TD.AperFunction*
G04 #@! TD*
D24*
G04 #@! TO.N,+3V3*
X120799256Y-119062160D02*
X120799776Y-119062630D01*
X120890710Y-119140414D01*
X120891384Y-119140952D01*
X120974542Y-119202827D01*
X120975348Y-119203380D01*
X121053592Y-119252729D01*
X121054440Y-119253219D01*
X121130634Y-119293423D01*
X121131376Y-119293784D01*
X121208381Y-119328226D01*
X121208876Y-119328435D01*
X121289555Y-119360497D01*
X121289743Y-119360570D01*
X121376871Y-119393600D01*
X121473354Y-119430996D01*
X121573783Y-119472701D01*
X121532332Y-120228419D01*
X120778788Y-120157463D01*
X120753776Y-120058431D01*
X120731143Y-119962516D01*
X120731126Y-119962448D01*
X120710165Y-119875758D01*
X120710059Y-119875350D01*
X120687859Y-119795286D01*
X120687621Y-119794522D01*
X120661263Y-119718442D01*
X120660856Y-119717413D01*
X120627419Y-119642673D01*
X120626854Y-119641560D01*
X120583420Y-119565520D01*
X120582774Y-119564505D01*
X120526423Y-119484519D01*
X120525795Y-119483700D01*
X120453605Y-119397127D01*
X120453062Y-119396516D01*
X120370635Y-119309688D01*
X120706659Y-118973664D01*
X120799256Y-119062160D01*
G04 #@! TA.AperFunction,Conductor*
D23*
G36*
X120799256Y-119062160D02*
G01*
X120799776Y-119062630D01*
X120890710Y-119140414D01*
X120891384Y-119140952D01*
X120974542Y-119202827D01*
X120975348Y-119203380D01*
X121053592Y-119252729D01*
X121054440Y-119253219D01*
X121130634Y-119293423D01*
X121131376Y-119293784D01*
X121208381Y-119328226D01*
X121208876Y-119328435D01*
X121289555Y-119360497D01*
X121289743Y-119360570D01*
X121376871Y-119393600D01*
X121473354Y-119430996D01*
X121573783Y-119472701D01*
X121532332Y-120228419D01*
X120778788Y-120157463D01*
X120753776Y-120058431D01*
X120731143Y-119962516D01*
X120731126Y-119962448D01*
X120710165Y-119875758D01*
X120710059Y-119875350D01*
X120687859Y-119795286D01*
X120687621Y-119794522D01*
X120661263Y-119718442D01*
X120660856Y-119717413D01*
X120627419Y-119642673D01*
X120626854Y-119641560D01*
X120583420Y-119565520D01*
X120582774Y-119564505D01*
X120526423Y-119484519D01*
X120525795Y-119483700D01*
X120453605Y-119397127D01*
X120453062Y-119396516D01*
X120370635Y-119309688D01*
X120706659Y-118973664D01*
X120799256Y-119062160D01*
G37*
G04 #@! TD.AperFunction*
G04 #@! TD*
D24*
G04 #@! TO.N,+3V3*
X134669698Y-116655621D02*
X134707775Y-116764406D01*
X134707810Y-116764505D01*
X134744247Y-116865907D01*
X134744311Y-116866079D01*
X134778136Y-116956097D01*
X134778231Y-116956343D01*
X134811390Y-117039307D01*
X134811512Y-117039603D01*
X134845948Y-117119840D01*
X134846082Y-117120140D01*
X134883740Y-117201980D01*
X134883863Y-117202240D01*
X134926688Y-117290012D01*
X134926786Y-117290207D01*
X134976721Y-117388239D01*
X134976787Y-117388368D01*
X135035777Y-117500991D01*
X135035815Y-117501064D01*
X135099851Y-117621414D01*
X134680730Y-117845439D01*
X134624214Y-117751265D01*
X134623348Y-117750002D01*
X134559989Y-117668555D01*
X134558748Y-117667179D01*
X134493883Y-117605078D01*
X134492323Y-117603806D01*
X134425075Y-117557307D01*
X134423452Y-117556354D01*
X134352941Y-117521713D01*
X134351593Y-117521145D01*
X134276941Y-117494619D01*
X134276091Y-117494350D01*
X134196419Y-117472196D01*
X134196115Y-117472116D01*
X134110673Y-117450623D01*
X134018630Y-117426065D01*
X133927615Y-117397399D01*
X133912824Y-116640824D01*
X134669698Y-116655621D01*
G04 #@! TA.AperFunction,Conductor*
D23*
G36*
X134669698Y-116655621D02*
G01*
X134707775Y-116764406D01*
X134707810Y-116764505D01*
X134744247Y-116865907D01*
X134744311Y-116866079D01*
X134778136Y-116956097D01*
X134778231Y-116956343D01*
X134811390Y-117039307D01*
X134811512Y-117039603D01*
X134845948Y-117119840D01*
X134846082Y-117120140D01*
X134883740Y-117201980D01*
X134883863Y-117202240D01*
X134926688Y-117290012D01*
X134926786Y-117290207D01*
X134976721Y-117388239D01*
X134976787Y-117388368D01*
X135035777Y-117500991D01*
X135035815Y-117501064D01*
X135099851Y-117621414D01*
X134680730Y-117845439D01*
X134624214Y-117751265D01*
X134623348Y-117750002D01*
X134559989Y-117668555D01*
X134558748Y-117667179D01*
X134493883Y-117605078D01*
X134492323Y-117603806D01*
X134425075Y-117557307D01*
X134423452Y-117556354D01*
X134352941Y-117521713D01*
X134351593Y-117521145D01*
X134276941Y-117494619D01*
X134276091Y-117494350D01*
X134196419Y-117472196D01*
X134196115Y-117472116D01*
X134110673Y-117450623D01*
X134018630Y-117426065D01*
X133927615Y-117397399D01*
X133912824Y-116640824D01*
X134669698Y-116655621D01*
G37*
G04 #@! TD.AperFunction*
G04 #@! TD*
D24*
G04 #@! TO.N,+3V3*
X135912920Y-114306669D02*
X135841961Y-115060212D01*
X135742930Y-115085223D01*
X135647015Y-115107855D01*
X135646947Y-115107872D01*
X135560256Y-115128833D01*
X135559848Y-115128939D01*
X135479785Y-115151139D01*
X135479021Y-115151377D01*
X135402941Y-115177735D01*
X135401912Y-115178142D01*
X135327173Y-115211578D01*
X135326060Y-115212143D01*
X135250019Y-115255576D01*
X135249003Y-115256222D01*
X135169018Y-115312574D01*
X135168200Y-115313202D01*
X135081627Y-115385391D01*
X135081016Y-115385934D01*
X134994188Y-115468362D01*
X134658164Y-115132338D01*
X134746660Y-115039740D01*
X134747130Y-115039220D01*
X134824914Y-114948286D01*
X134825452Y-114947612D01*
X134887327Y-114864454D01*
X134887880Y-114863648D01*
X134937229Y-114785404D01*
X134937719Y-114784556D01*
X134977923Y-114708363D01*
X134978284Y-114707621D01*
X135012726Y-114630616D01*
X135012935Y-114630121D01*
X135044997Y-114549442D01*
X135045070Y-114549254D01*
X135078101Y-114462125D01*
X135115497Y-114365643D01*
X135157202Y-114265215D01*
X135912920Y-114306669D01*
G04 #@! TA.AperFunction,Conductor*
D23*
G36*
X135912920Y-114306669D02*
G01*
X135841961Y-115060212D01*
X135742930Y-115085223D01*
X135647015Y-115107855D01*
X135646947Y-115107872D01*
X135560256Y-115128833D01*
X135559848Y-115128939D01*
X135479785Y-115151139D01*
X135479021Y-115151377D01*
X135402941Y-115177735D01*
X135401912Y-115178142D01*
X135327173Y-115211578D01*
X135326060Y-115212143D01*
X135250019Y-115255576D01*
X135249003Y-115256222D01*
X135169018Y-115312574D01*
X135168200Y-115313202D01*
X135081627Y-115385391D01*
X135081016Y-115385934D01*
X134994188Y-115468362D01*
X134658164Y-115132338D01*
X134746660Y-115039740D01*
X134747130Y-115039220D01*
X134824914Y-114948286D01*
X134825452Y-114947612D01*
X134887327Y-114864454D01*
X134887880Y-114863648D01*
X134937229Y-114785404D01*
X134937719Y-114784556D01*
X134977923Y-114708363D01*
X134978284Y-114707621D01*
X135012726Y-114630616D01*
X135012935Y-114630121D01*
X135044997Y-114549442D01*
X135045070Y-114549254D01*
X135078101Y-114462125D01*
X135115497Y-114365643D01*
X135157202Y-114265215D01*
X135912920Y-114306669D01*
G37*
G04 #@! TD.AperFunction*
G04 #@! TD*
D24*
G04 #@! TO.N,+5V*
X95247152Y-100650570D02*
X95451811Y-100755649D01*
X95629613Y-100850969D01*
X95790564Y-100940790D01*
X95944829Y-101029454D01*
X96102289Y-101121149D01*
X96102308Y-101121160D01*
X96273062Y-101220192D01*
X96273144Y-101220239D01*
X96467158Y-101330841D01*
X96467274Y-101330907D01*
X96694576Y-101457343D01*
X96694703Y-101457412D01*
X96954212Y-101597935D01*
X96729961Y-102017480D01*
X96514585Y-101925211D01*
X96511900Y-101924398D01*
X96316283Y-101888109D01*
X96312863Y-101887944D01*
X96140756Y-101902968D01*
X96137485Y-101903697D01*
X95981933Y-101960777D01*
X95979649Y-101961886D01*
X95833694Y-102051765D01*
X95832472Y-102052620D01*
X95689158Y-102166043D01*
X95688730Y-102166397D01*
X95541185Y-102294033D01*
X95382692Y-102426433D01*
X95206492Y-102554273D01*
X95013034Y-102664272D01*
X93906322Y-101600000D01*
X95013445Y-100535333D01*
X95247152Y-100650570D01*
G04 #@! TA.AperFunction,Conductor*
D23*
G36*
X95247152Y-100650570D02*
G01*
X95451811Y-100755649D01*
X95629613Y-100850969D01*
X95790564Y-100940790D01*
X95944829Y-101029454D01*
X96102289Y-101121149D01*
X96102308Y-101121160D01*
X96273062Y-101220192D01*
X96273144Y-101220239D01*
X96467158Y-101330841D01*
X96467274Y-101330907D01*
X96694576Y-101457343D01*
X96694703Y-101457412D01*
X96954212Y-101597935D01*
X96729961Y-102017480D01*
X96514585Y-101925211D01*
X96511900Y-101924398D01*
X96316283Y-101888109D01*
X96312863Y-101887944D01*
X96140756Y-101902968D01*
X96137485Y-101903697D01*
X95981933Y-101960777D01*
X95979649Y-101961886D01*
X95833694Y-102051765D01*
X95832472Y-102052620D01*
X95689158Y-102166043D01*
X95688730Y-102166397D01*
X95541185Y-102294033D01*
X95382692Y-102426433D01*
X95206492Y-102554273D01*
X95013034Y-102664272D01*
X93906322Y-101600000D01*
X95013445Y-100535333D01*
X95247152Y-100650570D01*
G37*
G04 #@! TD.AperFunction*
G04 #@! TD*
D24*
G04 #@! TO.N,+5V*
X98513998Y-109967844D02*
X98514865Y-109968900D01*
X98587488Y-110048256D01*
X98588679Y-110049399D01*
X98660181Y-110109579D01*
X98661635Y-110110636D01*
X98733438Y-110155450D01*
X98734928Y-110156247D01*
X98808453Y-110189505D01*
X98809677Y-110189984D01*
X98886346Y-110215496D01*
X98887096Y-110215720D01*
X98968331Y-110237296D01*
X98968558Y-110237355D01*
X99055715Y-110258788D01*
X99149897Y-110283802D01*
X99244385Y-110313598D01*
X99259176Y-111070176D01*
X98502318Y-111055380D01*
X98465802Y-110950454D01*
X98465775Y-110950376D01*
X98430820Y-110851996D01*
X98430747Y-110851796D01*
X98398036Y-110764399D01*
X98397905Y-110764064D01*
X98365216Y-110683734D01*
X98365025Y-110683289D01*
X98330136Y-110606113D01*
X98329903Y-110605625D01*
X98290591Y-110527689D01*
X98290350Y-110527235D01*
X98244393Y-110444623D01*
X98244180Y-110444254D01*
X98189357Y-110353053D01*
X98189190Y-110352784D01*
X98123277Y-110249080D01*
X98123161Y-110248900D01*
X98050888Y-110139317D01*
X98446025Y-109875295D01*
X98513998Y-109967844D01*
G04 #@! TA.AperFunction,Conductor*
D23*
G36*
X98513998Y-109967844D02*
G01*
X98514865Y-109968900D01*
X98587488Y-110048256D01*
X98588679Y-110049399D01*
X98660181Y-110109579D01*
X98661635Y-110110636D01*
X98733438Y-110155450D01*
X98734928Y-110156247D01*
X98808453Y-110189505D01*
X98809677Y-110189984D01*
X98886346Y-110215496D01*
X98887096Y-110215720D01*
X98968331Y-110237296D01*
X98968558Y-110237355D01*
X99055715Y-110258788D01*
X99149897Y-110283802D01*
X99244385Y-110313598D01*
X99259176Y-111070176D01*
X98502318Y-111055380D01*
X98465802Y-110950454D01*
X98465775Y-110950376D01*
X98430820Y-110851996D01*
X98430747Y-110851796D01*
X98398036Y-110764399D01*
X98397905Y-110764064D01*
X98365216Y-110683734D01*
X98365025Y-110683289D01*
X98330136Y-110606113D01*
X98329903Y-110605625D01*
X98290591Y-110527689D01*
X98290350Y-110527235D01*
X98244393Y-110444623D01*
X98244180Y-110444254D01*
X98189357Y-110353053D01*
X98189190Y-110352784D01*
X98123277Y-110249080D01*
X98123161Y-110248900D01*
X98050888Y-110139317D01*
X98446025Y-109875295D01*
X98513998Y-109967844D01*
G37*
G04 #@! TD.AperFunction*
G04 #@! TD*
D24*
G04 #@! TO.N,Net-(J1-Pad3)*
X96647611Y-108577884D02*
X95928250Y-109295951D01*
X95792084Y-109228466D01*
X95668791Y-109159556D01*
X95559751Y-109094203D01*
X95458709Y-109033631D01*
X95458293Y-109033393D01*
X95359066Y-108978891D01*
X95358215Y-108978464D01*
X95254449Y-108931215D01*
X95253258Y-108930743D01*
X95138598Y-108891931D01*
X95137270Y-108891561D01*
X95005363Y-108862372D01*
X95004110Y-108862160D01*
X94848602Y-108843778D01*
X94847548Y-108843698D01*
X94674349Y-108837731D01*
X94674349Y-108362260D01*
X94844926Y-108356248D01*
X94846009Y-108356164D01*
X94999275Y-108337570D01*
X95000570Y-108337344D01*
X95130475Y-108307707D01*
X95131856Y-108307308D01*
X95244603Y-108267735D01*
X95245851Y-108267221D01*
X95347642Y-108218818D01*
X95348546Y-108218343D01*
X95445586Y-108162218D01*
X95446051Y-108161935D01*
X95544542Y-108099193D01*
X95544588Y-108099164D01*
X95650577Y-108031013D01*
X95770191Y-107958593D01*
X95901974Y-107887133D01*
X96647611Y-108577884D01*
G04 #@! TA.AperFunction,Conductor*
D23*
G36*
X96647611Y-108577884D02*
G01*
X95928250Y-109295951D01*
X95792084Y-109228466D01*
X95668791Y-109159556D01*
X95559751Y-109094203D01*
X95458709Y-109033631D01*
X95458293Y-109033393D01*
X95359066Y-108978891D01*
X95358215Y-108978464D01*
X95254449Y-108931215D01*
X95253258Y-108930743D01*
X95138598Y-108891931D01*
X95137270Y-108891561D01*
X95005363Y-108862372D01*
X95004110Y-108862160D01*
X94848602Y-108843778D01*
X94847548Y-108843698D01*
X94674349Y-108837731D01*
X94674349Y-108362260D01*
X94844926Y-108356248D01*
X94846009Y-108356164D01*
X94999275Y-108337570D01*
X95000570Y-108337344D01*
X95130475Y-108307707D01*
X95131856Y-108307308D01*
X95244603Y-108267735D01*
X95245851Y-108267221D01*
X95347642Y-108218818D01*
X95348546Y-108218343D01*
X95445586Y-108162218D01*
X95446051Y-108161935D01*
X95544542Y-108099193D01*
X95544588Y-108099164D01*
X95650577Y-108031013D01*
X95770191Y-107958593D01*
X95901974Y-107887133D01*
X96647611Y-108577884D01*
G37*
G04 #@! TD.AperFunction*
G04 #@! TD*
D24*
G04 #@! TO.N,Net-(J1-Pad3)*
X95659874Y-108358118D02*
X95660443Y-108358552D01*
X95682530Y-108374453D01*
X95683065Y-108374817D01*
X95716889Y-108396641D01*
X95717561Y-108397047D01*
X95760741Y-108421265D01*
X95761644Y-108421725D01*
X95811801Y-108444809D01*
X95813061Y-108445309D01*
X95867814Y-108463731D01*
X95869619Y-108464194D01*
X95926590Y-108474425D01*
X95929168Y-108474621D01*
X95985977Y-108473133D01*
X95989387Y-108472573D01*
X96043653Y-108455838D01*
X96045948Y-108454875D01*
X96047328Y-108454010D01*
X96087907Y-108424808D01*
X96423637Y-108760658D01*
X96346361Y-108821289D01*
X96249987Y-108866572D01*
X96148573Y-108892418D01*
X96046398Y-108902520D01*
X95947816Y-108900630D01*
X95857301Y-108890566D01*
X95779240Y-108876188D01*
X95718034Y-108861382D01*
X95677923Y-108850008D01*
X95677836Y-108849984D01*
X95663269Y-108845964D01*
X95661722Y-108845639D01*
X93976070Y-108600000D01*
X95656222Y-108355163D01*
X95659874Y-108358118D01*
G04 #@! TA.AperFunction,Conductor*
D23*
G36*
X95659874Y-108358118D02*
G01*
X95660443Y-108358552D01*
X95682530Y-108374453D01*
X95683065Y-108374817D01*
X95716889Y-108396641D01*
X95717561Y-108397047D01*
X95760741Y-108421265D01*
X95761644Y-108421725D01*
X95811801Y-108444809D01*
X95813061Y-108445309D01*
X95867814Y-108463731D01*
X95869619Y-108464194D01*
X95926590Y-108474425D01*
X95929168Y-108474621D01*
X95985977Y-108473133D01*
X95989387Y-108472573D01*
X96043653Y-108455838D01*
X96045948Y-108454875D01*
X96047328Y-108454010D01*
X96087907Y-108424808D01*
X96423637Y-108760658D01*
X96346361Y-108821289D01*
X96249987Y-108866572D01*
X96148573Y-108892418D01*
X96046398Y-108902520D01*
X95947816Y-108900630D01*
X95857301Y-108890566D01*
X95779240Y-108876188D01*
X95718034Y-108861382D01*
X95677923Y-108850008D01*
X95677836Y-108849984D01*
X95663269Y-108845964D01*
X95661722Y-108845639D01*
X93976070Y-108600000D01*
X95656222Y-108355163D01*
X95659874Y-108358118D01*
G37*
G04 #@! TD.AperFunction*
G04 #@! TD*
D24*
G04 #@! TO.N,/RST*
X136442138Y-116489161D02*
X136361377Y-116522843D01*
X136275896Y-116554369D01*
X136195087Y-116583594D01*
X136194654Y-116583760D01*
X136120203Y-116613802D01*
X136119176Y-116614270D01*
X136052444Y-116648367D01*
X136050816Y-116649359D01*
X135993165Y-116690748D01*
X135991175Y-116692521D01*
X135943967Y-116744442D01*
X135942185Y-116746960D01*
X135906779Y-116812648D01*
X135905694Y-116815375D01*
X135883452Y-116898069D01*
X135883052Y-116900419D01*
X135876217Y-116991606D01*
X135650415Y-116991606D01*
X135646940Y-116838693D01*
X135646913Y-116838111D01*
X135637257Y-116697712D01*
X135637213Y-116697212D01*
X135624074Y-116576189D01*
X135624038Y-116575892D01*
X135609835Y-116468695D01*
X135597020Y-116370039D01*
X135588001Y-116274475D01*
X135585140Y-116176393D01*
X135590803Y-116070078D01*
X135607412Y-115949774D01*
X135635584Y-115818416D01*
X136387606Y-115734427D01*
X136442138Y-116489161D01*
G04 #@! TA.AperFunction,Conductor*
D23*
G36*
X136442138Y-116489161D02*
G01*
X136361377Y-116522843D01*
X136275896Y-116554369D01*
X136195087Y-116583594D01*
X136194654Y-116583760D01*
X136120203Y-116613802D01*
X136119176Y-116614270D01*
X136052444Y-116648367D01*
X136050816Y-116649359D01*
X135993165Y-116690748D01*
X135991175Y-116692521D01*
X135943967Y-116744442D01*
X135942185Y-116746960D01*
X135906779Y-116812648D01*
X135905694Y-116815375D01*
X135883452Y-116898069D01*
X135883052Y-116900419D01*
X135876217Y-116991606D01*
X135650415Y-116991606D01*
X135646940Y-116838693D01*
X135646913Y-116838111D01*
X135637257Y-116697712D01*
X135637213Y-116697212D01*
X135624074Y-116576189D01*
X135624038Y-116575892D01*
X135609835Y-116468695D01*
X135597020Y-116370039D01*
X135588001Y-116274475D01*
X135585140Y-116176393D01*
X135590803Y-116070078D01*
X135607412Y-115949774D01*
X135635584Y-115818416D01*
X136387606Y-115734427D01*
X136442138Y-116489161D01*
G37*
G04 #@! TD.AperFunction*
G04 #@! TD*
D24*
G04 #@! TO.N,/RST*
X135580477Y-121620169D02*
X135509407Y-121733829D01*
X135508953Y-121734617D01*
X135451316Y-121843414D01*
X135450860Y-121844367D01*
X135409271Y-121941656D01*
X135408884Y-121942681D01*
X135379428Y-122032264D01*
X135379166Y-122033175D01*
X135357927Y-122118856D01*
X135357796Y-122119446D01*
X135340859Y-122205029D01*
X135340830Y-122205180D01*
X135324304Y-122294332D01*
X135304306Y-122390720D01*
X135276939Y-122498202D01*
X135240904Y-122612383D01*
X134484325Y-122627176D01*
X134499109Y-121870810D01*
X134605931Y-121839669D01*
X134711918Y-121819011D01*
X134810347Y-121806027D01*
X134902435Y-121795522D01*
X134902913Y-121795458D01*
X134989802Y-121782191D01*
X134991043Y-121781938D01*
X135073961Y-121760653D01*
X135075826Y-121760017D01*
X135156131Y-121725439D01*
X135158194Y-121724314D01*
X135237242Y-121671171D01*
X135239011Y-121669735D01*
X135318159Y-121592755D01*
X135319416Y-121591334D01*
X135392792Y-121494761D01*
X135580477Y-121620169D01*
G04 #@! TA.AperFunction,Conductor*
D23*
G36*
X135580477Y-121620169D02*
G01*
X135509407Y-121733829D01*
X135508953Y-121734617D01*
X135451316Y-121843414D01*
X135450860Y-121844367D01*
X135409271Y-121941656D01*
X135408884Y-121942681D01*
X135379428Y-122032264D01*
X135379166Y-122033175D01*
X135357927Y-122118856D01*
X135357796Y-122119446D01*
X135340859Y-122205029D01*
X135340830Y-122205180D01*
X135324304Y-122294332D01*
X135304306Y-122390720D01*
X135276939Y-122498202D01*
X135240904Y-122612383D01*
X134484325Y-122627176D01*
X134499109Y-121870810D01*
X134605931Y-121839669D01*
X134711918Y-121819011D01*
X134810347Y-121806027D01*
X134902435Y-121795522D01*
X134902913Y-121795458D01*
X134989802Y-121782191D01*
X134991043Y-121781938D01*
X135073961Y-121760653D01*
X135075826Y-121760017D01*
X135156131Y-121725439D01*
X135158194Y-121724314D01*
X135237242Y-121671171D01*
X135239011Y-121669735D01*
X135318159Y-121592755D01*
X135319416Y-121591334D01*
X135392792Y-121494761D01*
X135580477Y-121620169D01*
G37*
G04 #@! TD.AperFunction*
G04 #@! TD*
D24*
G04 #@! TO.N,/GPIO0*
X129345972Y-101367566D02*
X129313562Y-101483507D01*
X129276729Y-101589285D01*
X129239114Y-101681955D01*
X129202016Y-101766927D01*
X129201973Y-101767027D01*
X129166796Y-101849518D01*
X129166581Y-101850056D01*
X129134753Y-101935258D01*
X129134455Y-101936156D01*
X129107334Y-102029421D01*
X129107069Y-102030508D01*
X129086014Y-102137183D01*
X129085848Y-102138270D01*
X129072219Y-102263706D01*
X129072152Y-102264667D01*
X129067705Y-102401925D01*
X128742184Y-102401925D01*
X128737394Y-102286419D01*
X128737274Y-102285128D01*
X128721854Y-102178430D01*
X128721525Y-102176861D01*
X128696669Y-102087021D01*
X128696072Y-102085334D01*
X128662474Y-102008233D01*
X128661682Y-102006707D01*
X128620034Y-101938222D01*
X128619266Y-101937099D01*
X128570259Y-101873109D01*
X128569733Y-101872467D01*
X128514061Y-101808851D01*
X128513873Y-101808641D01*
X128452286Y-101741342D01*
X128385585Y-101666362D01*
X128319996Y-101586370D01*
X128719262Y-100943515D01*
X129345972Y-101367566D01*
G04 #@! TA.AperFunction,Conductor*
D23*
G36*
X129345972Y-101367566D02*
G01*
X129313562Y-101483507D01*
X129276729Y-101589285D01*
X129239114Y-101681955D01*
X129202016Y-101766927D01*
X129201973Y-101767027D01*
X129166796Y-101849518D01*
X129166581Y-101850056D01*
X129134753Y-101935258D01*
X129134455Y-101936156D01*
X129107334Y-102029421D01*
X129107069Y-102030508D01*
X129086014Y-102137183D01*
X129085848Y-102138270D01*
X129072219Y-102263706D01*
X129072152Y-102264667D01*
X129067705Y-102401925D01*
X128742184Y-102401925D01*
X128737394Y-102286419D01*
X128737274Y-102285128D01*
X128721854Y-102178430D01*
X128721525Y-102176861D01*
X128696669Y-102087021D01*
X128696072Y-102085334D01*
X128662474Y-102008233D01*
X128661682Y-102006707D01*
X128620034Y-101938222D01*
X128619266Y-101937099D01*
X128570259Y-101873109D01*
X128569733Y-101872467D01*
X128514061Y-101808851D01*
X128513873Y-101808641D01*
X128452286Y-101741342D01*
X128385585Y-101666362D01*
X128319996Y-101586370D01*
X128719262Y-100943515D01*
X129345972Y-101367566D01*
G37*
G04 #@! TD.AperFunction*
G04 #@! TD*
D24*
G04 #@! TO.N,/GPIO0*
X129072400Y-104468365D02*
X129072491Y-104469485D01*
X129087126Y-104585918D01*
X129087366Y-104587248D01*
X129110583Y-104685735D01*
X129110999Y-104687136D01*
X129141836Y-104772508D01*
X129142360Y-104773748D01*
X129179856Y-104850835D01*
X129180323Y-104851706D01*
X129223518Y-104925336D01*
X129223770Y-104925749D01*
X129271700Y-105000754D01*
X129323286Y-105081772D01*
X129377522Y-105173533D01*
X129429518Y-105273244D01*
X128905000Y-105818678D01*
X128380482Y-105273244D01*
X128432477Y-105173533D01*
X128486713Y-105081772D01*
X128538299Y-105000754D01*
X128586229Y-104925749D01*
X128586481Y-104925336D01*
X128629676Y-104851706D01*
X128630143Y-104850835D01*
X128667639Y-104773748D01*
X128668163Y-104772508D01*
X128699000Y-104687136D01*
X128699416Y-104685735D01*
X128722633Y-104587248D01*
X128722873Y-104585918D01*
X128737508Y-104469485D01*
X128737599Y-104468365D01*
X128742244Y-104341395D01*
X129067756Y-104341395D01*
X129072400Y-104468365D01*
G04 #@! TA.AperFunction,Conductor*
D23*
G36*
X129072400Y-104468365D02*
G01*
X129072491Y-104469485D01*
X129087126Y-104585918D01*
X129087366Y-104587248D01*
X129110583Y-104685735D01*
X129110999Y-104687136D01*
X129141836Y-104772508D01*
X129142360Y-104773748D01*
X129179856Y-104850835D01*
X129180323Y-104851706D01*
X129223518Y-104925336D01*
X129223770Y-104925749D01*
X129271700Y-105000754D01*
X129323286Y-105081772D01*
X129377522Y-105173533D01*
X129429518Y-105273244D01*
X128905000Y-105818678D01*
X128380482Y-105273244D01*
X128432477Y-105173533D01*
X128486713Y-105081772D01*
X128538299Y-105000754D01*
X128586229Y-104925749D01*
X128586481Y-104925336D01*
X128629676Y-104851706D01*
X128630143Y-104850835D01*
X128667639Y-104773748D01*
X128668163Y-104772508D01*
X128699000Y-104687136D01*
X128699416Y-104685735D01*
X128722633Y-104587248D01*
X128722873Y-104585918D01*
X128737508Y-104469485D01*
X128737599Y-104468365D01*
X128742244Y-104341395D01*
X129067756Y-104341395D01*
X129072400Y-104468365D01*
G37*
G04 #@! TD.AperFunction*
G04 #@! TD*
D24*
G04 #@! TO.N,/GPIO0*
X116777550Y-118558013D02*
X116758408Y-118642186D01*
X116737942Y-118727270D01*
X116737889Y-118727502D01*
X116720475Y-118806386D01*
X116720337Y-118807105D01*
X116708393Y-118881291D01*
X116708253Y-118882583D01*
X116704180Y-118953648D01*
X116704209Y-118955503D01*
X116710408Y-119025025D01*
X116710801Y-119027222D01*
X116729673Y-119096779D01*
X116730467Y-119098922D01*
X116764413Y-119170090D01*
X116765430Y-119171845D01*
X116816850Y-119246203D01*
X116817861Y-119247481D01*
X116881088Y-119317651D01*
X116650872Y-119547867D01*
X116541745Y-119444348D01*
X116541211Y-119443869D01*
X116435715Y-119354562D01*
X116435167Y-119354123D01*
X116339826Y-119282065D01*
X116339366Y-119281734D01*
X116251729Y-119221449D01*
X116251492Y-119221290D01*
X116169207Y-119167363D01*
X116089850Y-119114339D01*
X116011183Y-119056916D01*
X115930570Y-118989542D01*
X115845394Y-118906635D01*
X115758947Y-118809194D01*
X116137528Y-118154022D01*
X116777550Y-118558013D01*
G04 #@! TA.AperFunction,Conductor*
D23*
G36*
X116777550Y-118558013D02*
G01*
X116758408Y-118642186D01*
X116737942Y-118727270D01*
X116737889Y-118727502D01*
X116720475Y-118806386D01*
X116720337Y-118807105D01*
X116708393Y-118881291D01*
X116708253Y-118882583D01*
X116704180Y-118953648D01*
X116704209Y-118955503D01*
X116710408Y-119025025D01*
X116710801Y-119027222D01*
X116729673Y-119096779D01*
X116730467Y-119098922D01*
X116764413Y-119170090D01*
X116765430Y-119171845D01*
X116816850Y-119246203D01*
X116817861Y-119247481D01*
X116881088Y-119317651D01*
X116650872Y-119547867D01*
X116541745Y-119444348D01*
X116541211Y-119443869D01*
X116435715Y-119354562D01*
X116435167Y-119354123D01*
X116339826Y-119282065D01*
X116339366Y-119281734D01*
X116251729Y-119221449D01*
X116251492Y-119221290D01*
X116169207Y-119167363D01*
X116089850Y-119114339D01*
X116011183Y-119056916D01*
X115930570Y-118989542D01*
X115845394Y-118906635D01*
X115758947Y-118809194D01*
X116137528Y-118154022D01*
X116777550Y-118558013D01*
G37*
G04 #@! TD.AperFunction*
G04 #@! TD*
D24*
G04 #@! TO.N,/GPIO0*
X118082150Y-121353631D02*
X118082285Y-121354470D01*
X118105180Y-121471771D01*
X118105417Y-121472768D01*
X118133227Y-121571911D01*
X118133577Y-121572976D01*
X118166085Y-121658868D01*
X118166500Y-121659840D01*
X118203488Y-121737394D01*
X118203854Y-121738103D01*
X118245106Y-121812228D01*
X118245309Y-121812579D01*
X118290608Y-121888185D01*
X118339649Y-121970040D01*
X118392179Y-122062971D01*
X118444065Y-122164196D01*
X117919500Y-122709678D01*
X117395037Y-122164301D01*
X117446363Y-122067817D01*
X117501852Y-121978591D01*
X117555755Y-121899654D01*
X117606362Y-121826389D01*
X117606653Y-121825947D01*
X117652025Y-121754020D01*
X117652595Y-121753019D01*
X117690991Y-121677811D01*
X117691640Y-121676307D01*
X117721319Y-121593196D01*
X117721810Y-121591427D01*
X117741030Y-121495793D01*
X117741254Y-121494080D01*
X117748274Y-121381303D01*
X117748282Y-121379861D01*
X117741982Y-121257424D01*
X118065940Y-121225516D01*
X118082150Y-121353631D01*
G04 #@! TA.AperFunction,Conductor*
D23*
G36*
X118082150Y-121353631D02*
G01*
X118082285Y-121354470D01*
X118105180Y-121471771D01*
X118105417Y-121472768D01*
X118133227Y-121571911D01*
X118133577Y-121572976D01*
X118166085Y-121658868D01*
X118166500Y-121659840D01*
X118203488Y-121737394D01*
X118203854Y-121738103D01*
X118245106Y-121812228D01*
X118245309Y-121812579D01*
X118290608Y-121888185D01*
X118339649Y-121970040D01*
X118392179Y-122062971D01*
X118444065Y-122164196D01*
X117919500Y-122709678D01*
X117395037Y-122164301D01*
X117446363Y-122067817D01*
X117501852Y-121978591D01*
X117555755Y-121899654D01*
X117606362Y-121826389D01*
X117606653Y-121825947D01*
X117652025Y-121754020D01*
X117652595Y-121753019D01*
X117690991Y-121677811D01*
X117691640Y-121676307D01*
X117721319Y-121593196D01*
X117721810Y-121591427D01*
X117741030Y-121495793D01*
X117741254Y-121494080D01*
X117748274Y-121381303D01*
X117748282Y-121379861D01*
X117741982Y-121257424D01*
X118065940Y-121225516D01*
X118082150Y-121353631D01*
G37*
G04 #@! TD.AperFunction*
G04 #@! TD*
D24*
G04 #@! TO.N,/GPIO0*
X129271425Y-105996052D02*
X129194933Y-106058990D01*
X129194827Y-106059078D01*
X129122566Y-106119859D01*
X129122254Y-106120130D01*
X129059549Y-106176461D01*
X129059011Y-106176974D01*
X129004350Y-106232186D01*
X129003642Y-106232963D01*
X128955515Y-106290385D01*
X128954768Y-106291369D01*
X128911665Y-106354332D01*
X128911022Y-106355376D01*
X128871433Y-106427210D01*
X128870963Y-106428155D01*
X128833377Y-106512190D01*
X128833069Y-106512941D01*
X128795976Y-106612507D01*
X128795788Y-106613051D01*
X128761504Y-106719590D01*
X128450014Y-106625100D01*
X128482334Y-106492030D01*
X128482622Y-106490374D01*
X128495769Y-106366589D01*
X128495828Y-106364704D01*
X128491209Y-106257034D01*
X128491002Y-106255229D01*
X128472861Y-106158838D01*
X128472528Y-106157483D01*
X128445106Y-106067538D01*
X128444879Y-106066862D01*
X128412419Y-105978527D01*
X128379303Y-105887356D01*
X128349772Y-105788673D01*
X128327914Y-105677496D01*
X128318515Y-105557372D01*
X129022692Y-105281089D01*
X129271425Y-105996052D01*
G04 #@! TA.AperFunction,Conductor*
D23*
G36*
X129271425Y-105996052D02*
G01*
X129194933Y-106058990D01*
X129194827Y-106059078D01*
X129122566Y-106119859D01*
X129122254Y-106120130D01*
X129059549Y-106176461D01*
X129059011Y-106176974D01*
X129004350Y-106232186D01*
X129003642Y-106232963D01*
X128955515Y-106290385D01*
X128954768Y-106291369D01*
X128911665Y-106354332D01*
X128911022Y-106355376D01*
X128871433Y-106427210D01*
X128870963Y-106428155D01*
X128833377Y-106512190D01*
X128833069Y-106512941D01*
X128795976Y-106612507D01*
X128795788Y-106613051D01*
X128761504Y-106719590D01*
X128450014Y-106625100D01*
X128482334Y-106492030D01*
X128482622Y-106490374D01*
X128495769Y-106366589D01*
X128495828Y-106364704D01*
X128491209Y-106257034D01*
X128491002Y-106255229D01*
X128472861Y-106158838D01*
X128472528Y-106157483D01*
X128445106Y-106067538D01*
X128444879Y-106066862D01*
X128412419Y-105978527D01*
X128379303Y-105887356D01*
X128349772Y-105788673D01*
X128327914Y-105677496D01*
X128318515Y-105557372D01*
X129022692Y-105281089D01*
X129271425Y-105996052D01*
G37*
G04 #@! TD.AperFunction*
G04 #@! TD*
D24*
G04 #@! TO.N,/GPIO0*
X127719916Y-108031974D02*
X127653609Y-108105172D01*
X127652640Y-108106382D01*
X127598540Y-108183140D01*
X127597550Y-108184800D01*
X127561167Y-108257944D01*
X127560368Y-108259970D01*
X127539093Y-108331288D01*
X127538658Y-108333367D01*
X127529885Y-108404644D01*
X127529791Y-108406390D01*
X127530912Y-108479412D01*
X127530987Y-108480604D01*
X127539397Y-108557158D01*
X127539480Y-108557776D01*
X127552570Y-108639648D01*
X127552592Y-108639777D01*
X127567734Y-108728622D01*
X127581013Y-108817444D01*
X126911226Y-109169823D01*
X126585355Y-108486910D01*
X126677257Y-108398554D01*
X126767083Y-108323965D01*
X126851173Y-108263769D01*
X126932241Y-108212529D01*
X127012949Y-108164857D01*
X127012996Y-108164829D01*
X127095743Y-108115475D01*
X127096127Y-108115236D01*
X127183299Y-108058934D01*
X127183889Y-108058529D01*
X127278034Y-107989916D01*
X127278678Y-107989414D01*
X127382344Y-107903131D01*
X127382941Y-107902603D01*
X127489704Y-107801762D01*
X127719916Y-108031974D01*
G04 #@! TA.AperFunction,Conductor*
D23*
G36*
X127719916Y-108031974D02*
G01*
X127653609Y-108105172D01*
X127652640Y-108106382D01*
X127598540Y-108183140D01*
X127597550Y-108184800D01*
X127561167Y-108257944D01*
X127560368Y-108259970D01*
X127539093Y-108331288D01*
X127538658Y-108333367D01*
X127529885Y-108404644D01*
X127529791Y-108406390D01*
X127530912Y-108479412D01*
X127530987Y-108480604D01*
X127539397Y-108557158D01*
X127539480Y-108557776D01*
X127552570Y-108639648D01*
X127552592Y-108639777D01*
X127567734Y-108728622D01*
X127581013Y-108817444D01*
X126911226Y-109169823D01*
X126585355Y-108486910D01*
X126677257Y-108398554D01*
X126767083Y-108323965D01*
X126851173Y-108263769D01*
X126932241Y-108212529D01*
X127012949Y-108164857D01*
X127012996Y-108164829D01*
X127095743Y-108115475D01*
X127096127Y-108115236D01*
X127183299Y-108058934D01*
X127183889Y-108058529D01*
X127278034Y-107989916D01*
X127278678Y-107989414D01*
X127382344Y-107903131D01*
X127382941Y-107902603D01*
X127489704Y-107801762D01*
X127719916Y-108031974D01*
G37*
G04 #@! TD.AperFunction*
G04 #@! TD*
D24*
G04 #@! TO.N,Net-(R10-Pad2)*
X110589494Y-108989040D02*
X110462743Y-109735069D01*
X110331954Y-109755709D01*
X110211907Y-109766453D01*
X110105573Y-109768077D01*
X110007355Y-109762684D01*
X109911531Y-109752337D01*
X109812604Y-109739114D01*
X109812560Y-109739108D01*
X109705146Y-109725127D01*
X109704820Y-109725089D01*
X109583580Y-109712486D01*
X109583088Y-109712445D01*
X109442508Y-109703333D01*
X109441956Y-109703309D01*
X109288958Y-109700066D01*
X109288958Y-109374469D01*
X109378159Y-109369174D01*
X109379995Y-109368929D01*
X109464032Y-109351432D01*
X109466218Y-109350767D01*
X109535758Y-109322548D01*
X109537993Y-109321370D01*
X109595653Y-109283200D01*
X109597525Y-109281688D01*
X109645923Y-109234337D01*
X109647207Y-109232871D01*
X109688958Y-109177110D01*
X109689706Y-109175992D01*
X109727428Y-109112593D01*
X109727797Y-109111929D01*
X109764106Y-109041661D01*
X109764222Y-109041431D01*
X109801708Y-108965120D01*
X109838945Y-108891527D01*
X110589494Y-108989040D01*
G04 #@! TA.AperFunction,Conductor*
D23*
G36*
X110589494Y-108989040D02*
G01*
X110462743Y-109735069D01*
X110331954Y-109755709D01*
X110211907Y-109766453D01*
X110105573Y-109768077D01*
X110007355Y-109762684D01*
X109911531Y-109752337D01*
X109812604Y-109739114D01*
X109812560Y-109739108D01*
X109705146Y-109725127D01*
X109704820Y-109725089D01*
X109583580Y-109712486D01*
X109583088Y-109712445D01*
X109442508Y-109703333D01*
X109441956Y-109703309D01*
X109288958Y-109700066D01*
X109288958Y-109374469D01*
X109378159Y-109369174D01*
X109379995Y-109368929D01*
X109464032Y-109351432D01*
X109466218Y-109350767D01*
X109535758Y-109322548D01*
X109537993Y-109321370D01*
X109595653Y-109283200D01*
X109597525Y-109281688D01*
X109645923Y-109234337D01*
X109647207Y-109232871D01*
X109688958Y-109177110D01*
X109689706Y-109175992D01*
X109727428Y-109112593D01*
X109727797Y-109111929D01*
X109764106Y-109041661D01*
X109764222Y-109041431D01*
X109801708Y-108965120D01*
X109838945Y-108891527D01*
X110589494Y-108989040D01*
G37*
G04 #@! TD.AperFunction*
G04 #@! TD*
D24*
G04 #@! TO.N,Net-(R10-Pad2)*
X101268379Y-107130614D02*
X101301338Y-107235968D01*
X101326961Y-107337632D01*
X101346737Y-107430055D01*
X101364739Y-107515882D01*
X101364843Y-107516336D01*
X101385111Y-107597947D01*
X101385386Y-107598895D01*
X101412017Y-107678947D01*
X101412517Y-107680218D01*
X101449611Y-107761369D01*
X101450312Y-107762690D01*
X101501966Y-107847598D01*
X101502753Y-107848745D01*
X101573066Y-107940067D01*
X101573815Y-107940953D01*
X101658573Y-108032380D01*
X101428380Y-108262573D01*
X101336953Y-108177815D01*
X101336067Y-108177066D01*
X101244745Y-108106753D01*
X101243598Y-108105966D01*
X101158690Y-108054312D01*
X101157369Y-108053611D01*
X101076218Y-108016517D01*
X101074947Y-108016017D01*
X100994895Y-107989386D01*
X100993947Y-107989111D01*
X100912336Y-107968843D01*
X100911882Y-107968739D01*
X100826055Y-107950737D01*
X100733632Y-107930961D01*
X100631968Y-107905338D01*
X100526614Y-107872379D01*
X100511824Y-107115824D01*
X101268379Y-107130614D01*
G04 #@! TA.AperFunction,Conductor*
D23*
G36*
X101268379Y-107130614D02*
G01*
X101301338Y-107235968D01*
X101326961Y-107337632D01*
X101346737Y-107430055D01*
X101364739Y-107515882D01*
X101364843Y-107516336D01*
X101385111Y-107597947D01*
X101385386Y-107598895D01*
X101412017Y-107678947D01*
X101412517Y-107680218D01*
X101449611Y-107761369D01*
X101450312Y-107762690D01*
X101501966Y-107847598D01*
X101502753Y-107848745D01*
X101573066Y-107940067D01*
X101573815Y-107940953D01*
X101658573Y-108032380D01*
X101428380Y-108262573D01*
X101336953Y-108177815D01*
X101336067Y-108177066D01*
X101244745Y-108106753D01*
X101243598Y-108105966D01*
X101158690Y-108054312D01*
X101157369Y-108053611D01*
X101076218Y-108016517D01*
X101074947Y-108016017D01*
X100994895Y-107989386D01*
X100993947Y-107989111D01*
X100912336Y-107968843D01*
X100911882Y-107968739D01*
X100826055Y-107950737D01*
X100733632Y-107930961D01*
X100631968Y-107905338D01*
X100526614Y-107872379D01*
X100511824Y-107115824D01*
X101268379Y-107130614D01*
G37*
G04 #@! TD.AperFunction*
G04 #@! TD*
D24*
G04 #@! TO.N,/D-*
X100727508Y-119643745D02*
X100676319Y-119741542D01*
X100622545Y-119831557D01*
X100571177Y-119910890D01*
X100523218Y-119984309D01*
X100522971Y-119984703D01*
X100479595Y-120056742D01*
X100479119Y-120057607D01*
X100441344Y-120133044D01*
X100440799Y-120134296D01*
X100409646Y-120217908D01*
X100409208Y-120219337D01*
X100385694Y-120315901D01*
X100385439Y-120317269D01*
X100370584Y-120431563D01*
X100370487Y-120432720D01*
X100365772Y-120557300D01*
X100040228Y-120557300D01*
X100035512Y-120432720D01*
X100035415Y-120431563D01*
X100020560Y-120317269D01*
X100020305Y-120315901D01*
X99996791Y-120219337D01*
X99996353Y-120217908D01*
X99965200Y-120134296D01*
X99964655Y-120133044D01*
X99926880Y-120057607D01*
X99926404Y-120056742D01*
X99883028Y-119984703D01*
X99882781Y-119984309D01*
X99834822Y-119910890D01*
X99783454Y-119831557D01*
X99729680Y-119741542D01*
X99678492Y-119643745D01*
X100203000Y-119098322D01*
X100727508Y-119643745D01*
G04 #@! TA.AperFunction,Conductor*
D23*
G36*
X100727508Y-119643745D02*
G01*
X100676319Y-119741542D01*
X100622545Y-119831557D01*
X100571177Y-119910890D01*
X100523218Y-119984309D01*
X100522971Y-119984703D01*
X100479595Y-120056742D01*
X100479119Y-120057607D01*
X100441344Y-120133044D01*
X100440799Y-120134296D01*
X100409646Y-120217908D01*
X100409208Y-120219337D01*
X100385694Y-120315901D01*
X100385439Y-120317269D01*
X100370584Y-120431563D01*
X100370487Y-120432720D01*
X100365772Y-120557300D01*
X100040228Y-120557300D01*
X100035512Y-120432720D01*
X100035415Y-120431563D01*
X100020560Y-120317269D01*
X100020305Y-120315901D01*
X99996791Y-120219337D01*
X99996353Y-120217908D01*
X99965200Y-120134296D01*
X99964655Y-120133044D01*
X99926880Y-120057607D01*
X99926404Y-120056742D01*
X99883028Y-119984703D01*
X99882781Y-119984309D01*
X99834822Y-119910890D01*
X99783454Y-119831557D01*
X99729680Y-119741542D01*
X99678492Y-119643745D01*
X100203000Y-119098322D01*
X100727508Y-119643745D01*
G37*
G04 #@! TD.AperFunction*
G04 #@! TD*
D24*
G04 #@! TO.N,/D-*
X100370487Y-120613279D02*
X100370584Y-120614436D01*
X100385439Y-120728730D01*
X100385694Y-120730098D01*
X100409208Y-120826662D01*
X100409646Y-120828091D01*
X100440799Y-120911703D01*
X100441344Y-120912955D01*
X100479119Y-120988392D01*
X100479595Y-120989257D01*
X100522971Y-121061296D01*
X100523218Y-121061690D01*
X100571150Y-121135067D01*
X100622545Y-121214442D01*
X100676319Y-121304457D01*
X100727508Y-121402255D01*
X100203000Y-121947678D01*
X99678492Y-121402255D01*
X99729680Y-121304457D01*
X99783454Y-121214442D01*
X99834822Y-121135109D01*
X99882781Y-121061690D01*
X99883028Y-121061296D01*
X99926404Y-120989257D01*
X99926880Y-120988392D01*
X99964655Y-120912955D01*
X99965200Y-120911703D01*
X99996353Y-120828091D01*
X99996791Y-120826662D01*
X100020305Y-120730098D01*
X100020560Y-120728730D01*
X100035415Y-120614436D01*
X100035512Y-120613279D01*
X100040228Y-120488700D01*
X100365772Y-120488700D01*
X100370487Y-120613279D01*
G04 #@! TA.AperFunction,Conductor*
D23*
G36*
X100370487Y-120613279D02*
G01*
X100370584Y-120614436D01*
X100385439Y-120728730D01*
X100385694Y-120730098D01*
X100409208Y-120826662D01*
X100409646Y-120828091D01*
X100440799Y-120911703D01*
X100441344Y-120912955D01*
X100479119Y-120988392D01*
X100479595Y-120989257D01*
X100522971Y-121061296D01*
X100523218Y-121061690D01*
X100571150Y-121135067D01*
X100622545Y-121214442D01*
X100676319Y-121304457D01*
X100727508Y-121402255D01*
X100203000Y-121947678D01*
X99678492Y-121402255D01*
X99729680Y-121304457D01*
X99783454Y-121214442D01*
X99834822Y-121135109D01*
X99882781Y-121061690D01*
X99883028Y-121061296D01*
X99926404Y-120989257D01*
X99926880Y-120988392D01*
X99964655Y-120912955D01*
X99965200Y-120911703D01*
X99996353Y-120828091D01*
X99996791Y-120826662D01*
X100020305Y-120730098D01*
X100020560Y-120728730D01*
X100035415Y-120614436D01*
X100035512Y-120613279D01*
X100040228Y-120488700D01*
X100365772Y-120488700D01*
X100370487Y-120613279D01*
G37*
G04 #@! TD.AperFunction*
G04 #@! TD*
D24*
G04 #@! TO.N,/CUTXD*
X118152335Y-118445007D02*
X118251597Y-118515205D01*
X118335128Y-118582255D01*
X118408083Y-118648833D01*
X118475615Y-118717658D01*
X118542804Y-118791392D01*
X118614723Y-118872684D01*
X118614764Y-118872730D01*
X118696350Y-118964056D01*
X118696505Y-118964226D01*
X118792767Y-119068132D01*
X118792985Y-119068362D01*
X118900239Y-119178477D01*
X118669993Y-119408723D01*
X118603642Y-119350970D01*
X118601889Y-119349689D01*
X118530213Y-119306230D01*
X118527809Y-119305098D01*
X118458579Y-119280959D01*
X118455805Y-119280329D01*
X118387852Y-119272756D01*
X118385282Y-119272731D01*
X118317436Y-119278971D01*
X118315506Y-119279300D01*
X118246600Y-119296600D01*
X118245392Y-119296968D01*
X118174255Y-119322573D01*
X118173658Y-119322806D01*
X118099124Y-119353965D01*
X118099012Y-119354012D01*
X118020042Y-119387913D01*
X117943761Y-119418488D01*
X117448501Y-118846254D01*
X118039655Y-118373736D01*
X118152335Y-118445007D01*
G04 #@! TA.AperFunction,Conductor*
D23*
G36*
X118152335Y-118445007D02*
G01*
X118251597Y-118515205D01*
X118335128Y-118582255D01*
X118408083Y-118648833D01*
X118475615Y-118717658D01*
X118542804Y-118791392D01*
X118614723Y-118872684D01*
X118614764Y-118872730D01*
X118696350Y-118964056D01*
X118696505Y-118964226D01*
X118792767Y-119068132D01*
X118792985Y-119068362D01*
X118900239Y-119178477D01*
X118669993Y-119408723D01*
X118603642Y-119350970D01*
X118601889Y-119349689D01*
X118530213Y-119306230D01*
X118527809Y-119305098D01*
X118458579Y-119280959D01*
X118455805Y-119280329D01*
X118387852Y-119272756D01*
X118385282Y-119272731D01*
X118317436Y-119278971D01*
X118315506Y-119279300D01*
X118246600Y-119296600D01*
X118245392Y-119296968D01*
X118174255Y-119322573D01*
X118173658Y-119322806D01*
X118099124Y-119353965D01*
X118099012Y-119354012D01*
X118020042Y-119387913D01*
X117943761Y-119418488D01*
X117448501Y-118846254D01*
X118039655Y-118373736D01*
X118152335Y-118445007D01*
G37*
G04 #@! TD.AperFunction*
G04 #@! TD*
D24*
G04 #@! TO.N,/CUTXD*
X119008046Y-119279184D02*
X119008932Y-119279933D01*
X119100254Y-119350246D01*
X119101401Y-119351033D01*
X119186309Y-119402687D01*
X119187630Y-119403388D01*
X119268781Y-119440482D01*
X119270052Y-119440982D01*
X119350104Y-119467613D01*
X119351052Y-119467888D01*
X119432663Y-119488156D01*
X119433117Y-119488260D01*
X119518944Y-119506262D01*
X119611367Y-119526038D01*
X119713031Y-119551661D01*
X119818386Y-119584621D01*
X119833176Y-120341176D01*
X119076621Y-120326386D01*
X119043661Y-120221031D01*
X119018038Y-120119367D01*
X118998262Y-120026944D01*
X118980260Y-119941117D01*
X118980156Y-119940663D01*
X118959888Y-119859052D01*
X118959613Y-119858104D01*
X118932982Y-119778052D01*
X118932482Y-119776781D01*
X118895388Y-119695630D01*
X118894687Y-119694309D01*
X118843033Y-119609401D01*
X118842246Y-119608254D01*
X118771933Y-119516932D01*
X118771184Y-119516046D01*
X118686427Y-119424620D01*
X118916620Y-119194427D01*
X119008046Y-119279184D01*
G04 #@! TA.AperFunction,Conductor*
D23*
G36*
X119008046Y-119279184D02*
G01*
X119008932Y-119279933D01*
X119100254Y-119350246D01*
X119101401Y-119351033D01*
X119186309Y-119402687D01*
X119187630Y-119403388D01*
X119268781Y-119440482D01*
X119270052Y-119440982D01*
X119350104Y-119467613D01*
X119351052Y-119467888D01*
X119432663Y-119488156D01*
X119433117Y-119488260D01*
X119518944Y-119506262D01*
X119611367Y-119526038D01*
X119713031Y-119551661D01*
X119818386Y-119584621D01*
X119833176Y-120341176D01*
X119076621Y-120326386D01*
X119043661Y-120221031D01*
X119018038Y-120119367D01*
X118998262Y-120026944D01*
X118980260Y-119941117D01*
X118980156Y-119940663D01*
X118959888Y-119859052D01*
X118959613Y-119858104D01*
X118932982Y-119778052D01*
X118932482Y-119776781D01*
X118895388Y-119695630D01*
X118894687Y-119694309D01*
X118843033Y-119609401D01*
X118842246Y-119608254D01*
X118771933Y-119516932D01*
X118771184Y-119516046D01*
X118686427Y-119424620D01*
X118916620Y-119194427D01*
X119008046Y-119279184D01*
G37*
G04 #@! TD.AperFunction*
G04 #@! TD*
D24*
G04 #@! TO.N,WLED*
X127662678Y-106616500D02*
X127117255Y-107141008D01*
X127019457Y-107089819D01*
X126929442Y-107036045D01*
X126850109Y-106984677D01*
X126776690Y-106936718D01*
X126776296Y-106936471D01*
X126704257Y-106893095D01*
X126703392Y-106892619D01*
X126627955Y-106854844D01*
X126626703Y-106854299D01*
X126543091Y-106823146D01*
X126541662Y-106822708D01*
X126445098Y-106799194D01*
X126443730Y-106798939D01*
X126329436Y-106784084D01*
X126328279Y-106783987D01*
X126203700Y-106779272D01*
X126203700Y-106453728D01*
X126328279Y-106449012D01*
X126329436Y-106448915D01*
X126443730Y-106434060D01*
X126445098Y-106433805D01*
X126541662Y-106410291D01*
X126543091Y-106409853D01*
X126626703Y-106378700D01*
X126627955Y-106378155D01*
X126703392Y-106340380D01*
X126704257Y-106339904D01*
X126776296Y-106296528D01*
X126776690Y-106296281D01*
X126850109Y-106248322D01*
X126929442Y-106196954D01*
X127019457Y-106143180D01*
X127117255Y-106091992D01*
X127662678Y-106616500D01*
G04 #@! TA.AperFunction,Conductor*
D23*
G36*
X127662678Y-106616500D02*
G01*
X127117255Y-107141008D01*
X127019457Y-107089819D01*
X126929442Y-107036045D01*
X126850109Y-106984677D01*
X126776690Y-106936718D01*
X126776296Y-106936471D01*
X126704257Y-106893095D01*
X126703392Y-106892619D01*
X126627955Y-106854844D01*
X126626703Y-106854299D01*
X126543091Y-106823146D01*
X126541662Y-106822708D01*
X126445098Y-106799194D01*
X126443730Y-106798939D01*
X126329436Y-106784084D01*
X126328279Y-106783987D01*
X126203700Y-106779272D01*
X126203700Y-106453728D01*
X126328279Y-106449012D01*
X126329436Y-106448915D01*
X126443730Y-106434060D01*
X126445098Y-106433805D01*
X126541662Y-106410291D01*
X126543091Y-106409853D01*
X126626703Y-106378700D01*
X126627955Y-106378155D01*
X126703392Y-106340380D01*
X126704257Y-106339904D01*
X126776296Y-106296528D01*
X126776690Y-106296281D01*
X126850109Y-106248322D01*
X126929442Y-106196954D01*
X127019457Y-106143180D01*
X127117255Y-106091992D01*
X127662678Y-106616500D01*
G37*
G04 #@! TD.AperFunction*
G04 #@! TD*
D24*
G04 #@! TO.N,WLED*
X121174508Y-103260745D02*
X121123319Y-103358542D01*
X121069545Y-103448557D01*
X121018177Y-103527890D01*
X120970218Y-103601309D01*
X120969971Y-103601703D01*
X120926595Y-103673742D01*
X120926119Y-103674607D01*
X120888344Y-103750044D01*
X120887799Y-103751296D01*
X120856646Y-103834908D01*
X120856208Y-103836337D01*
X120832694Y-103932901D01*
X120832439Y-103934269D01*
X120817584Y-104048563D01*
X120817487Y-104049720D01*
X120812772Y-104174300D01*
X120487228Y-104174300D01*
X120482512Y-104049720D01*
X120482415Y-104048563D01*
X120467560Y-103934269D01*
X120467305Y-103932901D01*
X120443791Y-103836337D01*
X120443353Y-103834908D01*
X120412200Y-103751296D01*
X120411655Y-103750044D01*
X120373880Y-103674607D01*
X120373404Y-103673742D01*
X120330028Y-103601703D01*
X120329781Y-103601309D01*
X120281822Y-103527890D01*
X120230454Y-103448557D01*
X120176680Y-103358542D01*
X120125492Y-103260745D01*
X120650000Y-102715322D01*
X121174508Y-103260745D01*
G04 #@! TA.AperFunction,Conductor*
D23*
G36*
X121174508Y-103260745D02*
G01*
X121123319Y-103358542D01*
X121069545Y-103448557D01*
X121018177Y-103527890D01*
X120970218Y-103601309D01*
X120969971Y-103601703D01*
X120926595Y-103673742D01*
X120926119Y-103674607D01*
X120888344Y-103750044D01*
X120887799Y-103751296D01*
X120856646Y-103834908D01*
X120856208Y-103836337D01*
X120832694Y-103932901D01*
X120832439Y-103934269D01*
X120817584Y-104048563D01*
X120817487Y-104049720D01*
X120812772Y-104174300D01*
X120487228Y-104174300D01*
X120482512Y-104049720D01*
X120482415Y-104048563D01*
X120467560Y-103934269D01*
X120467305Y-103932901D01*
X120443791Y-103836337D01*
X120443353Y-103834908D01*
X120412200Y-103751296D01*
X120411655Y-103750044D01*
X120373880Y-103674607D01*
X120373404Y-103673742D01*
X120330028Y-103601703D01*
X120329781Y-103601309D01*
X120281822Y-103527890D01*
X120230454Y-103448557D01*
X120176680Y-103358542D01*
X120125492Y-103260745D01*
X120650000Y-102715322D01*
X121174508Y-103260745D01*
G37*
G04 #@! TD.AperFunction*
G04 #@! TD*
D24*
G04 #@! TO.N,/5VOUT*
X109531382Y-96950534D02*
X109432698Y-96983163D01*
X109337422Y-97012346D01*
X109251247Y-97038454D01*
X109250968Y-97038541D01*
X109171265Y-97064704D01*
X109170644Y-97064926D01*
X109094746Y-97094285D01*
X109093856Y-97094669D01*
X109019061Y-97130377D01*
X109018065Y-97130909D01*
X108941670Y-97176121D01*
X108940737Y-97176729D01*
X108860038Y-97234596D01*
X108859270Y-97235193D01*
X108771565Y-97308869D01*
X108770982Y-97309390D01*
X108682542Y-97393494D01*
X108346504Y-97057455D01*
X108430608Y-96969015D01*
X108431129Y-96968432D01*
X108504805Y-96880727D01*
X108505402Y-96879959D01*
X108563270Y-96799260D01*
X108563878Y-96798327D01*
X108609089Y-96721932D01*
X108609621Y-96720936D01*
X108645330Y-96646141D01*
X108645714Y-96645251D01*
X108675073Y-96569354D01*
X108675295Y-96568733D01*
X108701458Y-96489030D01*
X108701545Y-96488751D01*
X108727653Y-96402577D01*
X108756841Y-96307288D01*
X108789467Y-96208617D01*
X109546176Y-96193825D01*
X109531382Y-96950534D01*
G04 #@! TA.AperFunction,Conductor*
D23*
G36*
X109531382Y-96950534D02*
G01*
X109432698Y-96983163D01*
X109337422Y-97012346D01*
X109251247Y-97038454D01*
X109250968Y-97038541D01*
X109171265Y-97064704D01*
X109170644Y-97064926D01*
X109094746Y-97094285D01*
X109093856Y-97094669D01*
X109019061Y-97130377D01*
X109018065Y-97130909D01*
X108941670Y-97176121D01*
X108940737Y-97176729D01*
X108860038Y-97234596D01*
X108859270Y-97235193D01*
X108771565Y-97308869D01*
X108770982Y-97309390D01*
X108682542Y-97393494D01*
X108346504Y-97057455D01*
X108430608Y-96969015D01*
X108431129Y-96968432D01*
X108504805Y-96880727D01*
X108505402Y-96879959D01*
X108563270Y-96799260D01*
X108563878Y-96798327D01*
X108609089Y-96721932D01*
X108609621Y-96720936D01*
X108645330Y-96646141D01*
X108645714Y-96645251D01*
X108675073Y-96569354D01*
X108675295Y-96568733D01*
X108701458Y-96489030D01*
X108701545Y-96488751D01*
X108727653Y-96402577D01*
X108756841Y-96307288D01*
X108789467Y-96208617D01*
X109546176Y-96193825D01*
X109531382Y-96950534D01*
G37*
G04 #@! TD.AperFunction*
G04 #@! TD*
D24*
G04 #@! TO.N,/5VOUT*
X104860486Y-104099430D02*
X104852874Y-104218313D01*
X104852850Y-104219369D01*
X104855003Y-104331071D01*
X104855094Y-104332359D01*
X104866798Y-104428600D01*
X104867053Y-104430020D01*
X104887311Y-104514765D01*
X104887715Y-104516116D01*
X104915529Y-104593331D01*
X104915969Y-104594398D01*
X104950343Y-104668050D01*
X104950673Y-104668707D01*
X104990609Y-104742760D01*
X104990742Y-104743000D01*
X105035180Y-104821309D01*
X105083149Y-104907883D01*
X105129572Y-104998688D01*
X104605000Y-105544178D01*
X104080332Y-104998589D01*
X104128098Y-104901705D01*
X104174086Y-104810153D01*
X104174126Y-104810071D01*
X104214797Y-104727631D01*
X104214941Y-104727330D01*
X104250736Y-104649702D01*
X104250967Y-104649168D01*
X104282328Y-104572056D01*
X104282594Y-104571342D01*
X104309965Y-104490446D01*
X104310203Y-104489660D01*
X104334024Y-104400682D01*
X104334199Y-104399941D01*
X104354914Y-104298582D01*
X104355025Y-104297959D01*
X104373076Y-104179921D01*
X104373140Y-104179438D01*
X104387555Y-104052852D01*
X104860486Y-104099430D01*
G04 #@! TA.AperFunction,Conductor*
D23*
G36*
X104860486Y-104099430D02*
G01*
X104852874Y-104218313D01*
X104852850Y-104219369D01*
X104855003Y-104331071D01*
X104855094Y-104332359D01*
X104866798Y-104428600D01*
X104867053Y-104430020D01*
X104887311Y-104514765D01*
X104887715Y-104516116D01*
X104915529Y-104593331D01*
X104915969Y-104594398D01*
X104950343Y-104668050D01*
X104950673Y-104668707D01*
X104990609Y-104742760D01*
X104990742Y-104743000D01*
X105035180Y-104821309D01*
X105083149Y-104907883D01*
X105129572Y-104998688D01*
X104605000Y-105544178D01*
X104080332Y-104998589D01*
X104128098Y-104901705D01*
X104174086Y-104810153D01*
X104174126Y-104810071D01*
X104214797Y-104727631D01*
X104214941Y-104727330D01*
X104250736Y-104649702D01*
X104250967Y-104649168D01*
X104282328Y-104572056D01*
X104282594Y-104571342D01*
X104309965Y-104490446D01*
X104310203Y-104489660D01*
X104334024Y-104400682D01*
X104334199Y-104399941D01*
X104354914Y-104298582D01*
X104355025Y-104297959D01*
X104373076Y-104179921D01*
X104373140Y-104179438D01*
X104387555Y-104052852D01*
X104860486Y-104099430D01*
G37*
G04 #@! TD.AperFunction*
G04 #@! TD*
M02*
