G04 #@! TF.GenerationSoftware,KiCad,Pcbnew,5.1.10-88a1d61d58~88~ubuntu20.04.1*
G04 #@! TF.CreationDate,2021-07-02T16:48:40-04:00*
G04 #@! TF.ProjectId,ESP8285-WLED,45535038-3238-4352-9d57-4c45442e6b69,rev?*
G04 #@! TF.SameCoordinates,Original*
G04 #@! TF.FileFunction,Copper,L2,Bot*
G04 #@! TF.FilePolarity,Positive*
%FSLAX46Y46*%
G04 Gerber Fmt 4.6, Leading zero omitted, Abs format (unit mm)*
G04 Created by KiCad (PCBNEW 5.1.10-88a1d61d58~88~ubuntu20.04.1) date 2021-07-02 16:48:40*
%MOMM*%
%LPD*%
G01*
G04 APERTURE LIST*
G04 #@! TA.AperFunction,NonConductor*
%ADD10C,0.200000*%
G04 #@! TD*
G04 #@! TA.AperFunction,ComponentPad*
%ADD11R,0.500000X0.900000*%
G04 #@! TD*
G04 #@! TA.AperFunction,ComponentPad*
%ADD12O,3.000000X2.000000*%
G04 #@! TD*
G04 #@! TA.AperFunction,ComponentPad*
%ADD13O,2.000000X1.000000*%
G04 #@! TD*
G04 #@! TA.AperFunction,ComponentPad*
%ADD14C,2.400000*%
G04 #@! TD*
G04 #@! TA.AperFunction,ComponentPad*
%ADD15R,2.400000X2.400000*%
G04 #@! TD*
G04 #@! TA.AperFunction,ComponentPad*
%ADD16C,1.600000*%
G04 #@! TD*
G04 #@! TA.AperFunction,ComponentPad*
%ADD17R,1.600000X1.600000*%
G04 #@! TD*
G04 #@! TA.AperFunction,ViaPad*
%ADD18C,1.200000*%
G04 #@! TD*
G04 #@! TA.AperFunction,ViaPad*
%ADD19C,1.600000*%
G04 #@! TD*
G04 #@! TA.AperFunction,Conductor*
%ADD20C,0.500000*%
G04 #@! TD*
G04 #@! TA.AperFunction,Conductor*
%ADD21C,0.350000*%
G04 #@! TD*
G04 #@! TA.AperFunction,Conductor*
%ADD22C,0.254000*%
G04 #@! TD*
G04 #@! TA.AperFunction,Conductor*
%ADD23C,0.050000*%
G04 #@! TD*
G04 #@! TA.AperFunction,Conductor*
%ADD24C,0.025400*%
G04 #@! TD*
G04 APERTURE END LIST*
D10*
X130150238Y-93058571D02*
X129816904Y-93058571D01*
X129674047Y-93582380D02*
X130150238Y-93582380D01*
X130150238Y-92582380D01*
X129674047Y-92582380D01*
X129293095Y-93534761D02*
X129150238Y-93582380D01*
X128912142Y-93582380D01*
X128816904Y-93534761D01*
X128769285Y-93487142D01*
X128721666Y-93391904D01*
X128721666Y-93296666D01*
X128769285Y-93201428D01*
X128816904Y-93153809D01*
X128912142Y-93106190D01*
X129102619Y-93058571D01*
X129197857Y-93010952D01*
X129245476Y-92963333D01*
X129293095Y-92868095D01*
X129293095Y-92772857D01*
X129245476Y-92677619D01*
X129197857Y-92630000D01*
X129102619Y-92582380D01*
X128864523Y-92582380D01*
X128721666Y-92630000D01*
X128293095Y-93582380D02*
X128293095Y-92582380D01*
X127912142Y-92582380D01*
X127816904Y-92630000D01*
X127769285Y-92677619D01*
X127721666Y-92772857D01*
X127721666Y-92915714D01*
X127769285Y-93010952D01*
X127816904Y-93058571D01*
X127912142Y-93106190D01*
X128293095Y-93106190D01*
X127150238Y-93010952D02*
X127245476Y-92963333D01*
X127293095Y-92915714D01*
X127340714Y-92820476D01*
X127340714Y-92772857D01*
X127293095Y-92677619D01*
X127245476Y-92630000D01*
X127150238Y-92582380D01*
X126959761Y-92582380D01*
X126864523Y-92630000D01*
X126816904Y-92677619D01*
X126769285Y-92772857D01*
X126769285Y-92820476D01*
X126816904Y-92915714D01*
X126864523Y-92963333D01*
X126959761Y-93010952D01*
X127150238Y-93010952D01*
X127245476Y-93058571D01*
X127293095Y-93106190D01*
X127340714Y-93201428D01*
X127340714Y-93391904D01*
X127293095Y-93487142D01*
X127245476Y-93534761D01*
X127150238Y-93582380D01*
X126959761Y-93582380D01*
X126864523Y-93534761D01*
X126816904Y-93487142D01*
X126769285Y-93391904D01*
X126769285Y-93201428D01*
X126816904Y-93106190D01*
X126864523Y-93058571D01*
X126959761Y-93010952D01*
X126388333Y-92677619D02*
X126340714Y-92630000D01*
X126245476Y-92582380D01*
X126007380Y-92582380D01*
X125912142Y-92630000D01*
X125864523Y-92677619D01*
X125816904Y-92772857D01*
X125816904Y-92868095D01*
X125864523Y-93010952D01*
X126435952Y-93582380D01*
X125816904Y-93582380D01*
X125245476Y-93010952D02*
X125340714Y-92963333D01*
X125388333Y-92915714D01*
X125435952Y-92820476D01*
X125435952Y-92772857D01*
X125388333Y-92677619D01*
X125340714Y-92630000D01*
X125245476Y-92582380D01*
X125055000Y-92582380D01*
X124959761Y-92630000D01*
X124912142Y-92677619D01*
X124864523Y-92772857D01*
X124864523Y-92820476D01*
X124912142Y-92915714D01*
X124959761Y-92963333D01*
X125055000Y-93010952D01*
X125245476Y-93010952D01*
X125340714Y-93058571D01*
X125388333Y-93106190D01*
X125435952Y-93201428D01*
X125435952Y-93391904D01*
X125388333Y-93487142D01*
X125340714Y-93534761D01*
X125245476Y-93582380D01*
X125055000Y-93582380D01*
X124959761Y-93534761D01*
X124912142Y-93487142D01*
X124864523Y-93391904D01*
X124864523Y-93201428D01*
X124912142Y-93106190D01*
X124959761Y-93058571D01*
X125055000Y-93010952D01*
X123959761Y-92582380D02*
X124435952Y-92582380D01*
X124483571Y-93058571D01*
X124435952Y-93010952D01*
X124340714Y-92963333D01*
X124102619Y-92963333D01*
X124007380Y-93010952D01*
X123959761Y-93058571D01*
X123912142Y-93153809D01*
X123912142Y-93391904D01*
X123959761Y-93487142D01*
X124007380Y-93534761D01*
X124102619Y-93582380D01*
X124340714Y-93582380D01*
X124435952Y-93534761D01*
X124483571Y-93487142D01*
X123483571Y-93201428D02*
X122721666Y-93201428D01*
X122340714Y-92582380D02*
X122102619Y-93582380D01*
X121912142Y-92868095D01*
X121721666Y-93582380D01*
X121483571Y-92582380D01*
X120626428Y-93582380D02*
X121102619Y-93582380D01*
X121102619Y-92582380D01*
X120293095Y-93058571D02*
X119959761Y-93058571D01*
X119816904Y-93582380D02*
X120293095Y-93582380D01*
X120293095Y-92582380D01*
X119816904Y-92582380D01*
X119388333Y-93582380D02*
X119388333Y-92582380D01*
X119150238Y-92582380D01*
X119007380Y-92630000D01*
X118912142Y-92725238D01*
X118864523Y-92820476D01*
X118816904Y-93010952D01*
X118816904Y-93153809D01*
X118864523Y-93344285D01*
X118912142Y-93439523D01*
X119007380Y-93534761D01*
X119150238Y-93582380D01*
X119388333Y-93582380D01*
X117721666Y-92915714D02*
X117483571Y-93582380D01*
X117245476Y-92915714D01*
X116340714Y-93582380D02*
X116912142Y-93582380D01*
X116626428Y-93582380D02*
X116626428Y-92582380D01*
X116721666Y-92725238D01*
X116816904Y-92820476D01*
X116912142Y-92868095D01*
X115912142Y-93487142D02*
X115864523Y-93534761D01*
X115912142Y-93582380D01*
X115959761Y-93534761D01*
X115912142Y-93487142D01*
X115912142Y-93582380D01*
X115245476Y-92582380D02*
X115150238Y-92582380D01*
X115055000Y-92630000D01*
X115007380Y-92677619D01*
X114959761Y-92772857D01*
X114912142Y-92963333D01*
X114912142Y-93201428D01*
X114959761Y-93391904D01*
X115007380Y-93487142D01*
X115055000Y-93534761D01*
X115150238Y-93582380D01*
X115245476Y-93582380D01*
X115340714Y-93534761D01*
X115388333Y-93487142D01*
X115435952Y-93391904D01*
X115483571Y-93201428D01*
X115483571Y-92963333D01*
X115435952Y-92772857D01*
X115388333Y-92677619D01*
X115340714Y-92630000D01*
X115245476Y-92582380D01*
X126935952Y-95234761D02*
X127031190Y-95282380D01*
X127221666Y-95282380D01*
X127316904Y-95234761D01*
X127364523Y-95187142D01*
X127412142Y-95091904D01*
X127412142Y-94806190D01*
X127364523Y-94710952D01*
X127316904Y-94663333D01*
X127221666Y-94615714D01*
X127031190Y-94615714D01*
X126935952Y-94663333D01*
X126507380Y-94615714D02*
X126507380Y-95615714D01*
X126507380Y-94663333D02*
X126412142Y-94615714D01*
X126221666Y-94615714D01*
X126126428Y-94663333D01*
X126078809Y-94710952D01*
X126031190Y-94806190D01*
X126031190Y-95091904D01*
X126078809Y-95187142D01*
X126126428Y-95234761D01*
X126221666Y-95282380D01*
X126412142Y-95282380D01*
X126507380Y-95234761D01*
X125221666Y-95234761D02*
X125316904Y-95282380D01*
X125507380Y-95282380D01*
X125602619Y-95234761D01*
X125650238Y-95139523D01*
X125650238Y-94758571D01*
X125602619Y-94663333D01*
X125507380Y-94615714D01*
X125316904Y-94615714D01*
X125221666Y-94663333D01*
X125174047Y-94758571D01*
X125174047Y-94853809D01*
X125650238Y-94949047D01*
X124745476Y-95282380D02*
X124745476Y-94615714D01*
X124745476Y-94806190D02*
X124697857Y-94710952D01*
X124650238Y-94663333D01*
X124555000Y-94615714D01*
X124459761Y-94615714D01*
X124126428Y-95282380D02*
X124126428Y-94615714D01*
X124126428Y-94282380D02*
X124174047Y-94330000D01*
X124126428Y-94377619D01*
X124078809Y-94330000D01*
X124126428Y-94282380D01*
X124126428Y-94377619D01*
X123507380Y-95282380D02*
X123602619Y-95234761D01*
X123650238Y-95187142D01*
X123697857Y-95091904D01*
X123697857Y-94806190D01*
X123650238Y-94710952D01*
X123602619Y-94663333D01*
X123507380Y-94615714D01*
X123364523Y-94615714D01*
X123269285Y-94663333D01*
X123221666Y-94710952D01*
X123174047Y-94806190D01*
X123174047Y-95091904D01*
X123221666Y-95187142D01*
X123269285Y-95234761D01*
X123364523Y-95282380D01*
X123507380Y-95282380D01*
X122316904Y-95282380D02*
X122316904Y-94282380D01*
X122316904Y-95234761D02*
X122412142Y-95282380D01*
X122602619Y-95282380D01*
X122697857Y-95234761D01*
X122745476Y-95187142D01*
X122793095Y-95091904D01*
X122793095Y-94806190D01*
X122745476Y-94710952D01*
X122697857Y-94663333D01*
X122602619Y-94615714D01*
X122412142Y-94615714D01*
X122316904Y-94663333D01*
X121126428Y-94377619D02*
X121078809Y-94330000D01*
X120983571Y-94282380D01*
X120745476Y-94282380D01*
X120650238Y-94330000D01*
X120602619Y-94377619D01*
X120555000Y-94472857D01*
X120555000Y-94568095D01*
X120602619Y-94710952D01*
X121174047Y-95282380D01*
X120555000Y-95282380D01*
X119935952Y-94282380D02*
X119840714Y-94282380D01*
X119745476Y-94330000D01*
X119697857Y-94377619D01*
X119650238Y-94472857D01*
X119602619Y-94663333D01*
X119602619Y-94901428D01*
X119650238Y-95091904D01*
X119697857Y-95187142D01*
X119745476Y-95234761D01*
X119840714Y-95282380D01*
X119935952Y-95282380D01*
X120031190Y-95234761D01*
X120078809Y-95187142D01*
X120126428Y-95091904D01*
X120174047Y-94901428D01*
X120174047Y-94663333D01*
X120126428Y-94472857D01*
X120078809Y-94377619D01*
X120031190Y-94330000D01*
X119935952Y-94282380D01*
X119221666Y-94377619D02*
X119174047Y-94330000D01*
X119078809Y-94282380D01*
X118840714Y-94282380D01*
X118745476Y-94330000D01*
X118697857Y-94377619D01*
X118650238Y-94472857D01*
X118650238Y-94568095D01*
X118697857Y-94710952D01*
X119269285Y-95282380D01*
X118650238Y-95282380D01*
X117697857Y-95282380D02*
X118269285Y-95282380D01*
X117983571Y-95282380D02*
X117983571Y-94282380D01*
X118078809Y-94425238D01*
X118174047Y-94520476D01*
X118269285Y-94568095D01*
D11*
G04 #@! TO.P,AE1,2*
G04 #@! TO.N,GND*
X146431000Y-115892000D03*
G04 #@! TD*
D12*
G04 #@! TO.P,J2,6*
G04 #@! TO.N,Net-(J2-Pad6)*
X92520000Y-116771000D03*
D13*
X95200000Y-117971000D03*
X95200000Y-122821000D03*
D12*
X92520000Y-124021000D03*
G04 #@! TD*
D14*
G04 #@! TO.P,J1,4*
G04 #@! TO.N,GND*
X94488000Y-112100000D03*
G04 #@! TO.P,J1,3*
G04 #@! TO.N,Net-(J1-Pad3)*
X94488000Y-108600000D03*
G04 #@! TO.P,J1,2*
G04 #@! TO.N,+12V*
X94488000Y-105100000D03*
D15*
G04 #@! TO.P,J1,1*
G04 #@! TO.N,+5V*
X94488000Y-101600000D03*
G04 #@! TD*
D16*
G04 #@! TO.P,C3,2*
G04 #@! TO.N,GND*
X96480000Y-95250000D03*
D17*
G04 #@! TO.P,C3,1*
G04 #@! TO.N,+12V*
X93980000Y-95250000D03*
G04 #@! TD*
D18*
G04 #@! TO.N,GND*
X130556000Y-111252000D03*
X132080000Y-111252000D03*
X132080000Y-109728000D03*
X130556000Y-109728000D03*
X106934000Y-121412000D03*
D19*
X145542000Y-111252000D03*
X145542000Y-108585000D03*
X145542000Y-106172000D03*
X145542000Y-103632000D03*
X145542000Y-100965000D03*
X145542000Y-98552000D03*
X145542000Y-120396000D03*
X145542000Y-122936000D03*
X145542000Y-125349000D03*
X145542000Y-96012000D03*
X145542000Y-93472000D03*
X145542000Y-117856000D03*
X104775000Y-94869000D03*
X102489000Y-96266000D03*
X116840000Y-100584000D03*
X132969000Y-100965000D03*
X122555000Y-104902000D03*
X122555000Y-108077000D03*
X119761000Y-113157000D03*
X114935000Y-114935000D03*
X111506000Y-116586000D03*
X105664000Y-117856000D03*
X100584000Y-124333000D03*
X99060000Y-113665000D03*
X120650000Y-121666000D03*
X114554000Y-103378000D03*
X141795500Y-121094500D03*
X141795500Y-125412500D03*
X143891000Y-115506500D03*
X101282500Y-110363000D03*
X108712000Y-106807000D03*
X112458500Y-106680000D03*
X101409500Y-100266500D03*
X109220000Y-111887000D03*
X111696500Y-125476000D03*
X138557000Y-118364000D03*
D18*
X138811000Y-104711500D03*
D19*
X122555000Y-111315500D03*
D18*
X130315723Y-116032642D03*
D19*
X127508000Y-120777000D03*
X130175000Y-120904000D03*
X134747000Y-121285000D03*
X125222000Y-123952000D03*
X126365000Y-116713000D03*
X125984000Y-119253000D03*
X138557000Y-115697000D03*
G04 #@! TO.N,+12V*
X96393000Y-105029000D03*
D18*
G04 #@! TO.N,+3V3*
X112141000Y-121793000D03*
X110617000Y-118745000D03*
X127254000Y-104394000D03*
X111633000Y-114046000D03*
X114998500Y-110236000D03*
X134366000Y-104521000D03*
X124396500Y-112458500D03*
X135699500Y-114490500D03*
X134175500Y-117411500D03*
X132429250Y-122269250D03*
X124333000Y-120523000D03*
G04 #@! TO.N,+5V*
X99060000Y-110871000D03*
D19*
G04 #@! TO.N,Net-(J1-Pad3)*
X96266000Y-108585000D03*
D18*
G04 #@! TO.N,/GPIO0*
X125984000Y-98552000D03*
X117475000Y-118618000D03*
X118110000Y-123571000D03*
X128905000Y-105537000D03*
X127317500Y-109156500D03*
G04 #@! TO.N,Net-(R10-Pad2)*
X100711000Y-107315000D03*
X110363000Y-109156500D03*
G04 #@! TO.N,/D-*
X100203000Y-119380000D03*
X100203000Y-121666000D03*
G04 #@! TO.N,/CUTXD*
X119126000Y-119253000D03*
X121666000Y-119253000D03*
G04 #@! TO.N,WLED*
X124587000Y-102362000D03*
X127381000Y-106616500D03*
G04 #@! TO.N,/5VOUT*
X109347000Y-96393000D03*
X104605000Y-105262500D03*
G04 #@! TD*
D20*
G04 #@! TO.N,+12V*
X96353288Y-105068709D02*
X96344082Y-105076263D01*
X93404018Y-105082128D02*
X93585463Y-105100000D01*
X92184374Y-104351101D02*
X92300038Y-104492038D01*
X91997136Y-104038713D02*
X92083082Y-104199507D01*
X94387555Y-105100000D02*
X94191184Y-105100000D01*
X91821000Y-103335534D02*
X91838870Y-103516979D01*
X96289600Y-105098832D02*
X96277748Y-105100000D01*
X91874439Y-103695797D02*
X91927364Y-103870269D01*
X91856494Y-98394193D02*
X91821000Y-98754577D01*
X93050728Y-104993634D02*
X93225200Y-105046559D01*
X96312675Y-105093051D02*
X96301279Y-105096508D01*
X92032261Y-97692489D02*
X91927141Y-98039024D01*
X94784250Y-105100000D02*
X94586750Y-105100000D01*
X93994814Y-105100000D02*
X93798443Y-105100000D01*
X92721490Y-104837915D02*
X92882283Y-104923861D01*
X92772467Y-96457530D02*
X92542735Y-96737459D01*
X92428959Y-104620959D02*
X92569896Y-104736623D01*
X95179250Y-105100000D02*
X94981750Y-105100000D01*
X96334180Y-105082879D02*
X96323678Y-105088493D01*
X92341547Y-97038558D02*
X92170841Y-97357926D01*
X96289600Y-105098832D02*
X96301279Y-105096508D01*
X93404018Y-105082128D02*
X93225200Y-105046559D01*
X91856494Y-98394193D02*
X91927141Y-98039024D01*
X91838870Y-103516979D02*
X91874439Y-103695797D01*
X92721490Y-104837915D02*
X92569896Y-104736623D01*
X94784250Y-105100000D02*
X94981750Y-105100000D01*
X94191184Y-105100000D02*
X93994814Y-105100000D01*
X96344082Y-105076263D02*
X96334180Y-105082879D01*
X92542735Y-96737459D02*
X92341547Y-97038558D01*
X92184374Y-104351101D02*
X92083082Y-104199507D01*
X93050728Y-104993634D02*
X92882283Y-104923861D01*
X96312675Y-105093051D02*
X96323678Y-105088493D01*
X92032261Y-97692489D02*
X92170841Y-97357926D01*
X91997136Y-104038713D02*
X91927364Y-103870269D01*
X94387555Y-105100000D02*
X94586750Y-105100000D01*
X93585463Y-105100000D02*
X93798443Y-105100000D01*
X92300038Y-104492038D02*
X92428959Y-104620959D01*
X92772467Y-96457530D02*
X93980000Y-95250000D01*
X91821000Y-103335534D02*
X91821000Y-98754577D01*
X96353288Y-105068709D02*
X96393000Y-105029000D01*
X96277748Y-105100000D02*
X95179250Y-105100000D01*
G04 #@! TO.N,+3V3*
X134175500Y-117649625D02*
X134175500Y-117744875D01*
D21*
X111098896Y-119271045D02*
X111149103Y-119364977D01*
D20*
X134175500Y-117080951D02*
X134175500Y-117174316D01*
X131094124Y-104297124D02*
X131159989Y-104351178D01*
D21*
X110972154Y-119100154D02*
X111039722Y-119182486D01*
D20*
X134228222Y-116720249D02*
X134201988Y-116806732D01*
X134305410Y-116557048D02*
X134262807Y-116636753D01*
X135699500Y-114845654D02*
X135692117Y-114920604D01*
X134175500Y-117267682D02*
X134175500Y-117361047D01*
X127516491Y-104140363D02*
X127467092Y-104180905D01*
D21*
X111252000Y-120349937D02*
X111266615Y-120498330D01*
D20*
X134091615Y-119326592D02*
X134008539Y-119600457D01*
D21*
X114893427Y-110778262D02*
X114859982Y-110819015D01*
D20*
X133899019Y-119864861D02*
X133764111Y-120117256D01*
X135549397Y-115265160D02*
X135501620Y-115323377D01*
X127746180Y-104031730D02*
X127685026Y-104050280D01*
X127625986Y-104074736D02*
X127569626Y-104104860D01*
X131549810Y-104512647D02*
X131634606Y-104521000D01*
X135677425Y-114994470D02*
X135655562Y-115066540D01*
X130661757Y-104037974D02*
X130743294Y-104062707D01*
X130578188Y-104021351D02*
X130493392Y-104013000D01*
X124348309Y-112511103D02*
X124343288Y-112520496D01*
X124339212Y-112530336D02*
X124336120Y-112540528D01*
X134175500Y-117459125D02*
X134175500Y-117554375D01*
X132477579Y-121635602D02*
X132453531Y-121714879D01*
D21*
X114983046Y-110588780D02*
X114967742Y-110639228D01*
D20*
X130822015Y-104095314D02*
X130897160Y-104135480D01*
D21*
X111241559Y-119669762D02*
X111252000Y-119775757D01*
D20*
X131384703Y-104471290D02*
X131466240Y-104496024D01*
D21*
X111396052Y-120925029D02*
X111466343Y-121056533D01*
D20*
X134412954Y-116412043D02*
X134355620Y-116481904D01*
X132646916Y-121353081D02*
X132594360Y-121417120D01*
X127872453Y-104013000D02*
X127808856Y-104019263D01*
X132437370Y-121796132D02*
X132429250Y-121878577D01*
X135626741Y-115136120D02*
X135591239Y-115202540D01*
X134175500Y-118761092D02*
X134147448Y-119045902D01*
D21*
X114947568Y-110687934D02*
X114922716Y-110734428D01*
D20*
X133605113Y-120355213D02*
X133423557Y-120576440D01*
D21*
X111189862Y-119463378D02*
X111220780Y-119565300D01*
D20*
X131230836Y-104398517D02*
X131305981Y-104438683D01*
X132548335Y-121486003D02*
X132509282Y-121559065D01*
D21*
X114998500Y-110484608D02*
X114993332Y-110537074D01*
D20*
X124360984Y-112494014D02*
X124354227Y-112502247D01*
X134184358Y-116895371D02*
X134175500Y-116985311D01*
X124334043Y-112550974D02*
X124333000Y-112561574D01*
D21*
X111295705Y-120644577D02*
X111338990Y-120787267D01*
D20*
X130968008Y-104182819D02*
X131033873Y-104236873D01*
D21*
X111549184Y-121180515D02*
X111643779Y-121295779D01*
D20*
X124336120Y-112540528D02*
X124334043Y-112550974D01*
X130897160Y-104135480D02*
X130968008Y-104182819D01*
X134091615Y-119326592D02*
X134147448Y-119045902D01*
X127746180Y-104031730D02*
X127808856Y-104019263D01*
D21*
X114983046Y-110588780D02*
X114993332Y-110537074D01*
D20*
X135549397Y-115265160D02*
X135591239Y-115202540D01*
D21*
X111466343Y-121056533D02*
X111549184Y-121180515D01*
D20*
X134175500Y-117649625D02*
X134175500Y-117554375D01*
X133764111Y-120117256D02*
X133605113Y-120355213D01*
X134175500Y-117174316D02*
X134175500Y-117267682D01*
X127516491Y-104140363D02*
X127569626Y-104104860D01*
X130661757Y-104037974D02*
X130578188Y-104021351D01*
X132453531Y-121714879D02*
X132437370Y-121796132D01*
D21*
X114893427Y-110778262D02*
X114922716Y-110734428D01*
D20*
X131549810Y-104512647D02*
X131466240Y-104496024D01*
D21*
X111098896Y-119271045D02*
X111039722Y-119182486D01*
D20*
X132594360Y-121417120D02*
X132548335Y-121486003D01*
D21*
X111266615Y-120498330D02*
X111295705Y-120644577D01*
D20*
X131159989Y-104351178D02*
X131230836Y-104398517D01*
X135692117Y-114920604D02*
X135677425Y-114994470D01*
X134305410Y-116557048D02*
X134355620Y-116481904D01*
X134201988Y-116806732D02*
X134184358Y-116895371D01*
D21*
X111241559Y-119669762D02*
X111220780Y-119565300D01*
D20*
X124348309Y-112511103D02*
X124354227Y-112502247D01*
X127685026Y-104050280D02*
X127625986Y-104074736D01*
D21*
X114967742Y-110639228D02*
X114947568Y-110687934D01*
D20*
X134175500Y-117361047D02*
X134175500Y-117459125D01*
X134008539Y-119600457D02*
X133899019Y-119864861D01*
X132477579Y-121635602D02*
X132509282Y-121559065D01*
X124343288Y-112520496D02*
X124339212Y-112530336D01*
X134228222Y-116720249D02*
X134262807Y-116636753D01*
X131384703Y-104471290D02*
X131305981Y-104438683D01*
D21*
X111149103Y-119364977D02*
X111189862Y-119463378D01*
D20*
X130743294Y-104062707D02*
X130822015Y-104095314D01*
D21*
X111396052Y-120925029D02*
X111338990Y-120787267D01*
D20*
X135655562Y-115066540D02*
X135626741Y-115136120D01*
D21*
X110972154Y-119100154D02*
X110617000Y-118745000D01*
X111252000Y-120349937D02*
X111252000Y-119775757D01*
X111643779Y-121295779D02*
X112141000Y-121793000D01*
X114859982Y-110819015D02*
X111633000Y-114046000D01*
X114998500Y-110484608D02*
X114998500Y-110236000D01*
D20*
X130493392Y-104013000D02*
X127872453Y-104013000D01*
X131634606Y-104521000D02*
X134366000Y-104521000D01*
X127467092Y-104180905D02*
X127254000Y-104394000D01*
X131094124Y-104297124D02*
X131033873Y-104236873D01*
X135699500Y-114845654D02*
X135699500Y-114490500D01*
X135501620Y-115323377D02*
X134412954Y-116412043D01*
X134175500Y-117080951D02*
X134175500Y-116985311D01*
X124360984Y-112494014D02*
X124396500Y-112458500D01*
X124333000Y-112561574D02*
X124333000Y-120523000D01*
X132429250Y-121878577D02*
X132429250Y-122269250D01*
X132646916Y-121353081D02*
X133423557Y-120576440D01*
X134175500Y-117744875D02*
X134175500Y-118761092D01*
G04 #@! TO.N,+5V*
X97641414Y-102546882D02*
X97731787Y-102715958D01*
X97129519Y-101982094D02*
X97277717Y-102103717D01*
X97917000Y-109015633D02*
X97935791Y-109206425D01*
X97805154Y-102893081D02*
X97860806Y-103076541D01*
X96252425Y-101618791D02*
X96061633Y-101600000D01*
X97413280Y-102239280D02*
X97534903Y-102387477D01*
X97973192Y-109394456D02*
X98028844Y-109577916D01*
X97898208Y-103264572D02*
X97917000Y-103455364D01*
X98102210Y-109755037D02*
X98192584Y-109924115D01*
X96801037Y-101785210D02*
X96970115Y-101875584D01*
X98299095Y-110083520D02*
X98420718Y-110231718D01*
X96440456Y-101656192D02*
X96623916Y-101711844D01*
X97641414Y-102546882D02*
X97534903Y-102387477D01*
X96252425Y-101618791D02*
X96440456Y-101656192D01*
X98192584Y-109924115D02*
X98299095Y-110083520D01*
X97129519Y-101982094D02*
X96970115Y-101875584D01*
X97860806Y-103076541D02*
X97898208Y-103264572D01*
X97935791Y-109206425D02*
X97973192Y-109394456D01*
X96801037Y-101785210D02*
X96623916Y-101711844D01*
X97731787Y-102715958D02*
X97805154Y-102893081D01*
X98028844Y-109577916D02*
X98102210Y-109755037D01*
X96061633Y-101600000D02*
X94488000Y-101600000D01*
X97277717Y-102103717D02*
X97413280Y-102239280D01*
X97917000Y-109015633D02*
X97917000Y-103455364D01*
X98420718Y-110231718D02*
X99060000Y-110871000D01*
G04 #@! TO.N,Net-(J1-Pad3)*
X96257609Y-108593388D02*
X96255664Y-108594984D01*
X96249028Y-108598531D02*
X96246621Y-108599261D01*
X96244153Y-108599753D02*
X96241649Y-108600000D01*
X96253573Y-108596382D02*
X96251354Y-108597568D01*
X96246621Y-108599261D02*
X96244153Y-108599753D01*
X96255664Y-108594984D02*
X96253573Y-108596382D01*
X96249028Y-108598531D02*
X96251354Y-108597568D01*
X96241649Y-108600000D02*
X94488000Y-108600000D01*
X96257609Y-108593388D02*
X96266000Y-108585000D01*
D21*
G04 #@! TO.N,/GPIO0*
X127479887Y-108088435D02*
X127426634Y-108188065D01*
X128675853Y-105824350D02*
X128663486Y-105865119D01*
X126281184Y-104924515D02*
X126375779Y-105039779D01*
X128798348Y-105593120D02*
X128800512Y-105615084D01*
X127278667Y-105522384D02*
X127427060Y-105537000D01*
X117687275Y-123133511D02*
X117754843Y-123215843D01*
X128796206Y-105636730D02*
X128785802Y-105656195D01*
X126720464Y-105322655D02*
X126851968Y-105392946D01*
X128753208Y-105688789D02*
X128731905Y-105714746D01*
X127328572Y-108511338D02*
X127317500Y-108623763D01*
X128655175Y-105906903D02*
X128651000Y-105949301D01*
X128395827Y-107107923D02*
X128314605Y-107206892D01*
X127383404Y-108292435D02*
X127350611Y-108400540D01*
X128651000Y-106394765D02*
X128638450Y-106522180D01*
X128613472Y-106647751D02*
X128576306Y-106770269D01*
X117577893Y-122951020D02*
X117628101Y-123044952D01*
X128527311Y-106888556D02*
X128466957Y-107001469D01*
X125984000Y-104093937D02*
X125998614Y-104242330D01*
X126128051Y-104669029D02*
X126198342Y-104800533D01*
X128775901Y-105555668D02*
X128789902Y-105572729D01*
X117506217Y-122750697D02*
X117537135Y-122852619D01*
X128757550Y-105543406D02*
X128736430Y-105537000D01*
X117475000Y-122540240D02*
X117485439Y-122646235D01*
X126027704Y-104388577D02*
X126070989Y-104531267D01*
X126481218Y-105145218D02*
X126596482Y-105239813D01*
X127614317Y-107907179D02*
X127542650Y-107994505D01*
X126989730Y-105450008D02*
X127132420Y-105493293D01*
X128713250Y-105742665D02*
X128697422Y-105772279D01*
X117687275Y-123133511D02*
X117628101Y-123044952D01*
X128731905Y-105714746D02*
X128713250Y-105742665D01*
X117506217Y-122750697D02*
X117485439Y-122646235D01*
X128395827Y-107107923D02*
X128466957Y-107001469D01*
X125998614Y-104242330D02*
X126027704Y-104388577D01*
X127278667Y-105522384D02*
X127132420Y-105493293D01*
X126720464Y-105322655D02*
X126596482Y-105239813D01*
X126281184Y-104924515D02*
X126198342Y-104800533D01*
X128775901Y-105555668D02*
X128757550Y-105543406D01*
X128800512Y-105615084D02*
X128796206Y-105636730D01*
X127479887Y-108088435D02*
X127542650Y-107994505D01*
X128638450Y-106522180D02*
X128613472Y-106647751D01*
X127328572Y-108511338D02*
X127350611Y-108400540D01*
X128663486Y-105865119D02*
X128655175Y-105906903D01*
X126851968Y-105392946D02*
X126989730Y-105450008D01*
X117577893Y-122951020D02*
X117537135Y-122852619D01*
X127426634Y-108188065D02*
X127383404Y-108292435D01*
X128675853Y-105824350D02*
X128697422Y-105772279D01*
X128576306Y-106770269D02*
X128527311Y-106888556D01*
X126128051Y-104669029D02*
X126070989Y-104531267D01*
X128798348Y-105593120D02*
X128789902Y-105572729D01*
X117475000Y-122540240D02*
X117475000Y-118618000D01*
X117754843Y-123215843D02*
X118110000Y-123571000D01*
X125984000Y-104093937D02*
X125984000Y-98552000D01*
X127427060Y-105537000D02*
X128736430Y-105537000D01*
X126375779Y-105039779D02*
X126481218Y-105145218D01*
X128785802Y-105656195D02*
X128753208Y-105688789D01*
X128651000Y-105949301D02*
X128651000Y-106394765D01*
X128314605Y-107206892D02*
X127614317Y-107907179D01*
X127317500Y-108623763D02*
X127317500Y-109156500D01*
G04 #@! TO.N,Net-(R10-Pad2)*
X101954047Y-108558047D02*
X102242209Y-108794535D01*
X103225327Y-109320022D02*
X103582054Y-109428234D01*
X109808141Y-109531235D02*
X109744543Y-109537500D01*
X109931970Y-109500217D02*
X109870817Y-109518768D01*
X110149905Y-109369593D02*
X110100505Y-109410133D01*
X110047371Y-109445637D02*
X109991012Y-109475761D01*
X102552163Y-109001639D02*
X102880924Y-109177366D01*
X103947670Y-109500961D02*
X104318654Y-109537500D01*
X110100505Y-109410133D02*
X110047371Y-109445637D01*
X109808141Y-109531235D02*
X109870817Y-109518768D01*
X102242209Y-108794535D02*
X102552163Y-109001639D01*
X103582054Y-109428234D02*
X103947670Y-109500961D01*
X109931970Y-109500217D02*
X109991012Y-109475761D01*
X103225327Y-109320022D02*
X102880924Y-109177366D01*
X101954047Y-108558047D02*
X100711000Y-107315000D01*
X110149905Y-109369593D02*
X110363000Y-109156500D01*
X109744543Y-109537500D02*
X104318654Y-109537500D01*
G04 #@! TO.N,/D-*
X100203000Y-119380000D02*
X100203000Y-121666000D01*
G04 #@! TO.N,/CUTXD*
X119126000Y-119253000D02*
X121666000Y-119253000D01*
G04 #@! TO.N,WLED*
X126862561Y-106576955D02*
X126927424Y-106596632D01*
X124657637Y-103974709D02*
X124727596Y-104205332D01*
X125067323Y-104840916D02*
X125220212Y-105027212D01*
X126631406Y-106438406D02*
X126683802Y-106481407D01*
X126993903Y-106609856D02*
X127061358Y-106616500D01*
X124819823Y-104427988D02*
X124933430Y-104640532D01*
X126740161Y-106519065D02*
X126799939Y-106551017D01*
X124587000Y-103498499D02*
X124610621Y-103738339D01*
X126683802Y-106481407D02*
X126740161Y-106519065D01*
X124657637Y-103974709D02*
X124610621Y-103738339D01*
X125067323Y-104840916D02*
X124933430Y-104640532D01*
X126927424Y-106596632D02*
X126993903Y-106609856D01*
X124727596Y-104205332D02*
X124819823Y-104427988D01*
X126862561Y-106576955D02*
X126799939Y-106551017D01*
X124587000Y-103498499D02*
X124587000Y-102362000D01*
X125220212Y-105027212D02*
X126631406Y-106438406D01*
X127061358Y-106616500D02*
X127381000Y-106616500D01*
D20*
G04 #@! TO.N,/5VOUT*
X106707312Y-99818105D02*
X106680000Y-100095420D01*
X106410794Y-101448799D02*
X106279436Y-101694552D01*
X104728022Y-103649581D02*
X104666808Y-103851377D01*
X104908126Y-103268782D02*
X104808720Y-103454758D01*
X106598322Y-100924695D02*
X106517433Y-101191353D01*
X104625669Y-104058201D02*
X104605000Y-104268062D01*
X107412152Y-98327845D02*
X107235374Y-98543249D01*
X105159060Y-102930436D02*
X105025282Y-103093445D01*
X106680000Y-100374077D02*
X106652686Y-100651392D01*
X106124623Y-101926247D02*
X105947845Y-102141652D01*
X107080561Y-98774944D02*
X106949203Y-99020698D01*
X106842565Y-99278144D02*
X106761675Y-99544802D01*
X106279436Y-101694552D02*
X106124623Y-101926247D01*
X104908126Y-103268782D02*
X105025282Y-103093445D01*
X107235374Y-98543249D02*
X107080561Y-98774944D01*
X106598322Y-100924695D02*
X106652686Y-100651392D01*
X104666808Y-103851377D02*
X104625669Y-104058201D01*
X106707312Y-99818105D02*
X106761675Y-99544802D01*
X104728022Y-103649581D02*
X104808720Y-103454758D01*
X106410794Y-101448799D02*
X106517433Y-101191353D01*
X106949203Y-99020698D02*
X106842565Y-99278144D01*
X107412152Y-98327845D02*
X109347000Y-96393000D01*
X106680000Y-100095420D02*
X106680000Y-100374077D01*
X105159060Y-102930436D02*
X105947845Y-102141652D01*
X104605000Y-104268062D02*
X104605000Y-105262500D01*
G04 #@! TD*
D22*
G04 #@! TO.N,GND*
X113894667Y-96487000D02*
X131215334Y-96487000D01*
X131215334Y-94243925D01*
X136123000Y-94243925D01*
X136123000Y-94456075D01*
X136164389Y-94664149D01*
X136245575Y-94860151D01*
X136363440Y-95036547D01*
X136513453Y-95186560D01*
X136608397Y-95250000D01*
X136513453Y-95313440D01*
X136363440Y-95463453D01*
X136245575Y-95639849D01*
X136164389Y-95835851D01*
X136123000Y-96043925D01*
X136123000Y-96256075D01*
X136164389Y-96464149D01*
X136245575Y-96660151D01*
X136363440Y-96836547D01*
X136513453Y-96986560D01*
X136689849Y-97104425D01*
X136885851Y-97185611D01*
X137093925Y-97227000D01*
X137306075Y-97227000D01*
X137514149Y-97185611D01*
X137710151Y-97104425D01*
X137886547Y-96986560D01*
X138036560Y-96836547D01*
X138154425Y-96660151D01*
X138235611Y-96464149D01*
X138277000Y-96256075D01*
X138277000Y-96043925D01*
X138235611Y-95835851D01*
X138154425Y-95639849D01*
X138036560Y-95463453D01*
X137886547Y-95313440D01*
X137791603Y-95250000D01*
X137886547Y-95186560D01*
X138036560Y-95036547D01*
X138154425Y-94860151D01*
X138235611Y-94664149D01*
X138277000Y-94456075D01*
X138277000Y-94243925D01*
X138235611Y-94035851D01*
X138154425Y-93839849D01*
X138036560Y-93663453D01*
X137886547Y-93513440D01*
X137710151Y-93395575D01*
X137514149Y-93314389D01*
X137306075Y-93273000D01*
X137093925Y-93273000D01*
X136885851Y-93314389D01*
X136689849Y-93395575D01*
X136513453Y-93513440D01*
X136363440Y-93663453D01*
X136245575Y-93839849D01*
X136164389Y-94035851D01*
X136123000Y-94243925D01*
X131215334Y-94243925D01*
X131215334Y-92192000D01*
X146558000Y-92192000D01*
X146558000Y-122831108D01*
X146475797Y-123029563D01*
X146371000Y-123556414D01*
X146371000Y-124093586D01*
X146475797Y-124620437D01*
X146558000Y-124818892D01*
X146558000Y-126248000D01*
X90922000Y-126248000D01*
X90922000Y-125354017D01*
X91055888Y-125463896D01*
X91355908Y-125624260D01*
X91681449Y-125723012D01*
X91935159Y-125748000D01*
X93104841Y-125748000D01*
X93358551Y-125723012D01*
X93684092Y-125624260D01*
X93984112Y-125463896D01*
X94247082Y-125248082D01*
X94462896Y-124985112D01*
X94623260Y-124685092D01*
X94722012Y-124359551D01*
X94752697Y-124048000D01*
X95760268Y-124048000D01*
X95940534Y-124030245D01*
X96171824Y-123960084D01*
X96384983Y-123846149D01*
X96571817Y-123692817D01*
X96725149Y-123505983D01*
X96839084Y-123292824D01*
X96909245Y-123061534D01*
X96932936Y-122821000D01*
X96909245Y-122580466D01*
X96839084Y-122349176D01*
X96725149Y-122136017D01*
X96571817Y-121949183D01*
X96384983Y-121795851D01*
X96171824Y-121681916D01*
X95940534Y-121611755D01*
X95760268Y-121594000D01*
X94639732Y-121594000D01*
X94459466Y-121611755D01*
X94228176Y-121681916D01*
X94015017Y-121795851D01*
X93828183Y-121949183D01*
X93674851Y-122136017D01*
X93560916Y-122349176D01*
X93552249Y-122377746D01*
X93358551Y-122318988D01*
X93104841Y-122294000D01*
X91935159Y-122294000D01*
X91681449Y-122318988D01*
X91355908Y-122417740D01*
X91055888Y-122578104D01*
X90922000Y-122687983D01*
X90922000Y-119249302D01*
X98876000Y-119249302D01*
X98876000Y-119510698D01*
X98926996Y-119767072D01*
X99027028Y-120008570D01*
X99061737Y-120060515D01*
X99074491Y-120084883D01*
X99094482Y-120120594D01*
X99148551Y-120211102D01*
X99162417Y-120233389D01*
X99213941Y-120312964D01*
X99215539Y-120315420D01*
X99256200Y-120377666D01*
X99278127Y-120414083D01*
X99285717Y-120429240D01*
X99288235Y-120435999D01*
X99292171Y-120452164D01*
X99297599Y-120493921D01*
X99298700Y-120522999D01*
X99297599Y-120552077D01*
X99292171Y-120593835D01*
X99288235Y-120610000D01*
X99285717Y-120616759D01*
X99278127Y-120631916D01*
X99256200Y-120668333D01*
X99215539Y-120730579D01*
X99213941Y-120733035D01*
X99162417Y-120812610D01*
X99148551Y-120834897D01*
X99094482Y-120925405D01*
X99074489Y-120961119D01*
X99061733Y-120985491D01*
X99027028Y-121037430D01*
X98926996Y-121278928D01*
X98876000Y-121535302D01*
X98876000Y-121796698D01*
X98926996Y-122053072D01*
X99027028Y-122294570D01*
X99172252Y-122511913D01*
X99357087Y-122696748D01*
X99574430Y-122841972D01*
X99815928Y-122942004D01*
X100072302Y-122993000D01*
X100333698Y-122993000D01*
X100590072Y-122942004D01*
X100831570Y-122841972D01*
X101048913Y-122696748D01*
X101233748Y-122511913D01*
X101378972Y-122294570D01*
X101479004Y-122053072D01*
X101530000Y-121796698D01*
X101530000Y-121535302D01*
X101479004Y-121278928D01*
X101378972Y-121037430D01*
X101344262Y-120985483D01*
X101331507Y-120961114D01*
X101311517Y-120925405D01*
X101257448Y-120834897D01*
X101243582Y-120812610D01*
X101192058Y-120733035D01*
X101190460Y-120730579D01*
X101149799Y-120668333D01*
X101127872Y-120631916D01*
X101120282Y-120616759D01*
X101117764Y-120610000D01*
X101113828Y-120593835D01*
X101108400Y-120552078D01*
X101107299Y-120523000D01*
X101108400Y-120493921D01*
X101113828Y-120452164D01*
X101117764Y-120435999D01*
X101120282Y-120429240D01*
X101127872Y-120414083D01*
X101149799Y-120377666D01*
X101190460Y-120315420D01*
X101192058Y-120312964D01*
X101243582Y-120233389D01*
X101257448Y-120211102D01*
X101311517Y-120120594D01*
X101331506Y-120084887D01*
X101344260Y-120060520D01*
X101378972Y-120008570D01*
X101479004Y-119767072D01*
X101530000Y-119510698D01*
X101530000Y-119249302D01*
X101479004Y-118992928D01*
X101378972Y-118751430D01*
X101287346Y-118614302D01*
X109290000Y-118614302D01*
X109290000Y-118875698D01*
X109340996Y-119132072D01*
X109441028Y-119373570D01*
X109586252Y-119590913D01*
X109771087Y-119775748D01*
X109988430Y-119920972D01*
X110229928Y-120021004D01*
X110294506Y-120033849D01*
X110334254Y-120044948D01*
X110350000Y-120048783D01*
X110350000Y-120394243D01*
X110351579Y-120410278D01*
X110373301Y-120630832D01*
X110373303Y-120630841D01*
X110373303Y-120630843D01*
X110413892Y-120834897D01*
X110419684Y-120864017D01*
X110486016Y-121082681D01*
X110488694Y-121091508D01*
X110542686Y-121221859D01*
X110596425Y-121354437D01*
X110637808Y-121461943D01*
X110670493Y-121552242D01*
X110697437Y-121631816D01*
X110721698Y-121707988D01*
X110746149Y-121787951D01*
X110772287Y-121874220D01*
X110773582Y-121878448D01*
X110802994Y-121973439D01*
X110805625Y-121981761D01*
X110840252Y-122089020D01*
X110843615Y-122099179D01*
X110856408Y-122136898D01*
X110864996Y-122180072D01*
X110965028Y-122421570D01*
X111110252Y-122638913D01*
X111295087Y-122823748D01*
X111512430Y-122968972D01*
X111753928Y-123069004D01*
X112010302Y-123120000D01*
X112271698Y-123120000D01*
X112528072Y-123069004D01*
X112769570Y-122968972D01*
X112986913Y-122823748D01*
X113171748Y-122638913D01*
X113316972Y-122421570D01*
X113417004Y-122180072D01*
X113468000Y-121923698D01*
X113468000Y-121662302D01*
X113417004Y-121405928D01*
X113316972Y-121164430D01*
X113171748Y-120947087D01*
X112986913Y-120762252D01*
X112769570Y-120617028D01*
X112528072Y-120516996D01*
X112449526Y-120501372D01*
X112435883Y-120497375D01*
X112378064Y-120482979D01*
X112277741Y-120462326D01*
X112244792Y-120456331D01*
X112177981Y-120445757D01*
X112171728Y-120425144D01*
X112159929Y-120365826D01*
X112154000Y-120305629D01*
X112154000Y-119731450D01*
X112140948Y-119598934D01*
X112140947Y-119598931D01*
X112135414Y-119542759D01*
X112134871Y-119537245D01*
X112134363Y-119534693D01*
X112128671Y-119478279D01*
X112128013Y-119472030D01*
X112112947Y-119334620D01*
X112111598Y-119323151D01*
X112096738Y-119204977D01*
X112094289Y-119187265D01*
X112078560Y-119082971D01*
X112074618Y-119059459D01*
X112056946Y-118963693D01*
X112051519Y-118937079D01*
X112030829Y-118844488D01*
X112024677Y-118819105D01*
X111999895Y-118724336D01*
X111994261Y-118704002D01*
X111964312Y-118601701D01*
X111960168Y-118588046D01*
X111928516Y-118487302D01*
X116148000Y-118487302D01*
X116148000Y-118748698D01*
X116198996Y-119005072D01*
X116299028Y-119246570D01*
X116333737Y-119298515D01*
X116346491Y-119322883D01*
X116366482Y-119358594D01*
X116420551Y-119449102D01*
X116434417Y-119471389D01*
X116485941Y-119550964D01*
X116487539Y-119553420D01*
X116528200Y-119615666D01*
X116550127Y-119652083D01*
X116557717Y-119667240D01*
X116560235Y-119673999D01*
X116564171Y-119690164D01*
X116569599Y-119731921D01*
X116573001Y-119821784D01*
X116573000Y-122584546D01*
X116575745Y-122612415D01*
X116590181Y-122758992D01*
X116592126Y-122778744D01*
X116592631Y-122781285D01*
X116598323Y-122837702D01*
X116598981Y-122843953D01*
X116614045Y-122981364D01*
X116615395Y-122992843D01*
X116630255Y-123111018D01*
X116632704Y-123128731D01*
X116648433Y-123233025D01*
X116652376Y-123256544D01*
X116670049Y-123352310D01*
X116675476Y-123378923D01*
X116696167Y-123471515D01*
X116702320Y-123496899D01*
X116727103Y-123591668D01*
X116732737Y-123611999D01*
X116762687Y-123714301D01*
X116766830Y-123727957D01*
X116803021Y-123843142D01*
X116805410Y-123850603D01*
X116823895Y-123907293D01*
X116833996Y-123958072D01*
X116934028Y-124199570D01*
X117079252Y-124416913D01*
X117264087Y-124601748D01*
X117481430Y-124746972D01*
X117722928Y-124847004D01*
X117979302Y-124898000D01*
X118240698Y-124898000D01*
X118497072Y-124847004D01*
X118738570Y-124746972D01*
X118955913Y-124601748D01*
X119140748Y-124416913D01*
X119285972Y-124199570D01*
X119386004Y-123958072D01*
X119437000Y-123701698D01*
X119437000Y-123440302D01*
X119386004Y-123183928D01*
X119285972Y-122942430D01*
X119140748Y-122725087D01*
X118955913Y-122540252D01*
X118738570Y-122395028D01*
X118497072Y-122294996D01*
X118432498Y-122282151D01*
X118392743Y-122271050D01*
X118377000Y-122267216D01*
X118377000Y-122138552D01*
X131102250Y-122138552D01*
X131102250Y-122399948D01*
X131153246Y-122656322D01*
X131253278Y-122897820D01*
X131398502Y-123115163D01*
X131583337Y-123299998D01*
X131800680Y-123445222D01*
X132042178Y-123545254D01*
X132298552Y-123596250D01*
X132559948Y-123596250D01*
X132816322Y-123545254D01*
X133057820Y-123445222D01*
X133275163Y-123299998D01*
X133459998Y-123115163D01*
X133605222Y-122897820D01*
X133637901Y-122818925D01*
X136123000Y-122818925D01*
X136123000Y-123031075D01*
X136164389Y-123239149D01*
X136245575Y-123435151D01*
X136363440Y-123611547D01*
X136513453Y-123761560D01*
X136608397Y-123825000D01*
X136513453Y-123888440D01*
X136363440Y-124038453D01*
X136245575Y-124214849D01*
X136164389Y-124410851D01*
X136123000Y-124618925D01*
X136123000Y-124831075D01*
X136164389Y-125039149D01*
X136245575Y-125235151D01*
X136363440Y-125411547D01*
X136513453Y-125561560D01*
X136689849Y-125679425D01*
X136885851Y-125760611D01*
X137093925Y-125802000D01*
X137306075Y-125802000D01*
X137514149Y-125760611D01*
X137710151Y-125679425D01*
X137886547Y-125561560D01*
X138036560Y-125411547D01*
X138154425Y-125235151D01*
X138235611Y-125039149D01*
X138277000Y-124831075D01*
X138277000Y-124618925D01*
X138235611Y-124410851D01*
X138154425Y-124214849D01*
X138036560Y-124038453D01*
X137886547Y-123888440D01*
X137791603Y-123825000D01*
X137886547Y-123761560D01*
X138036560Y-123611547D01*
X138154425Y-123435151D01*
X138235611Y-123239149D01*
X138277000Y-123031075D01*
X138277000Y-122818925D01*
X138235611Y-122610851D01*
X138154425Y-122414849D01*
X138036560Y-122238453D01*
X137886547Y-122088440D01*
X137710151Y-121970575D01*
X137514149Y-121889389D01*
X137306075Y-121848000D01*
X137093925Y-121848000D01*
X136885851Y-121889389D01*
X136689849Y-121970575D01*
X136513453Y-122088440D01*
X136363440Y-122238453D01*
X136245575Y-122414849D01*
X136164389Y-122610851D01*
X136123000Y-122818925D01*
X133637901Y-122818925D01*
X133705254Y-122656322D01*
X133756250Y-122399948D01*
X133756250Y-122138552D01*
X133705254Y-121882178D01*
X133644992Y-121736692D01*
X134148336Y-121233348D01*
X134239832Y-121121859D01*
X134390791Y-120937915D01*
X134417063Y-120898596D01*
X134603120Y-120620143D01*
X134603124Y-120620136D01*
X134783279Y-120283089D01*
X134783282Y-120283083D01*
X134929535Y-119929999D01*
X134929536Y-119929996D01*
X134929538Y-119929991D01*
X135040477Y-119564274D01*
X135040477Y-119564273D01*
X135040479Y-119564267D01*
X135115038Y-119189436D01*
X135115943Y-119180245D01*
X135152499Y-118809096D01*
X135152499Y-118809095D01*
X135152500Y-118809085D01*
X135152500Y-118623734D01*
X135155071Y-118518116D01*
X135160717Y-118451183D01*
X135167390Y-118409546D01*
X135173856Y-118383683D01*
X135181779Y-118360775D01*
X135195891Y-118328233D01*
X135221218Y-118277360D01*
X135259681Y-118204623D01*
X135260087Y-118203853D01*
X135307219Y-118114463D01*
X135313908Y-118101463D01*
X135324338Y-118080679D01*
X135351472Y-118040070D01*
X135451504Y-117798572D01*
X135502500Y-117542198D01*
X135502500Y-117280802D01*
X135451504Y-117024428D01*
X135372643Y-116834041D01*
X136226399Y-115980285D01*
X136237898Y-115966273D01*
X136272933Y-115930162D01*
X136283343Y-115919206D01*
X136358295Y-115838667D01*
X136373441Y-115821876D01*
X136440209Y-115745500D01*
X136458485Y-115723750D01*
X136520195Y-115647329D01*
X136538705Y-115623406D01*
X136598481Y-115542732D01*
X136614416Y-115520353D01*
X136675383Y-115431218D01*
X136687299Y-115413230D01*
X136752584Y-115311425D01*
X136760481Y-115298829D01*
X136817120Y-115206399D01*
X136875472Y-115119070D01*
X136975504Y-114877572D01*
X137026500Y-114621198D01*
X137026500Y-114359802D01*
X136975504Y-114103428D01*
X136875472Y-113861930D01*
X136730248Y-113644587D01*
X136545413Y-113459752D01*
X136328070Y-113314528D01*
X136086572Y-113214496D01*
X135830198Y-113163500D01*
X135568802Y-113163500D01*
X135312428Y-113214496D01*
X135070930Y-113314528D01*
X134853587Y-113459752D01*
X134668752Y-113644587D01*
X134523528Y-113861930D01*
X134423496Y-114103428D01*
X134372500Y-114359802D01*
X134372500Y-114621198D01*
X134423496Y-114877572D01*
X134465158Y-114978152D01*
X133713555Y-115729756D01*
X133688173Y-115755138D01*
X133657372Y-115792669D01*
X133590480Y-115865745D01*
X133570732Y-115888231D01*
X133490834Y-115983074D01*
X133468281Y-116011234D01*
X133401492Y-116099009D01*
X133378741Y-116130632D01*
X133321360Y-116215074D01*
X133301745Y-116245548D01*
X133250075Y-116330394D01*
X133236167Y-116354239D01*
X133186507Y-116443222D01*
X133179017Y-116456989D01*
X133127669Y-116553846D01*
X133125796Y-116557404D01*
X133070199Y-116663693D01*
X133035156Y-116729609D01*
X132999528Y-116782930D01*
X132899496Y-117024428D01*
X132848500Y-117280802D01*
X132848500Y-117542198D01*
X132899496Y-117798572D01*
X132999528Y-118040070D01*
X133026657Y-118080671D01*
X133037088Y-118101458D01*
X133043780Y-118114463D01*
X133090912Y-118203853D01*
X133091318Y-118204623D01*
X133129781Y-118277360D01*
X133155108Y-118328233D01*
X133169220Y-118360775D01*
X133177143Y-118383683D01*
X133183609Y-118409546D01*
X133190282Y-118451183D01*
X133195928Y-118518117D01*
X133198501Y-118623776D01*
X133198501Y-118713087D01*
X133179858Y-118902370D01*
X133142751Y-119088915D01*
X133087541Y-119270921D01*
X133014758Y-119446634D01*
X132925099Y-119614375D01*
X132819437Y-119772509D01*
X132698779Y-119919531D01*
X131945645Y-120672666D01*
X131922135Y-120696176D01*
X131900169Y-120722941D01*
X131900167Y-120722943D01*
X131891197Y-120733873D01*
X131881664Y-120744130D01*
X131798532Y-120835927D01*
X131781716Y-120855165D01*
X131710765Y-120939272D01*
X131691313Y-120963352D01*
X131629160Y-121043738D01*
X131609716Y-121070092D01*
X131552982Y-121150729D01*
X131536503Y-121175191D01*
X131481805Y-121260051D01*
X131470095Y-121278841D01*
X131414052Y-121371893D01*
X131407277Y-121383379D01*
X131346509Y-121488596D01*
X131343789Y-121493347D01*
X131299042Y-121572190D01*
X131253278Y-121640680D01*
X131153246Y-121882178D01*
X131102250Y-122138552D01*
X118377000Y-122138552D01*
X118377000Y-120348503D01*
X118497430Y-120428972D01*
X118738928Y-120529004D01*
X118995302Y-120580000D01*
X119256698Y-120580000D01*
X119513072Y-120529004D01*
X119754570Y-120428972D01*
X119806520Y-120394260D01*
X119830887Y-120381506D01*
X119866594Y-120361517D01*
X119957102Y-120307448D01*
X119979389Y-120293582D01*
X120058964Y-120242058D01*
X120061420Y-120240460D01*
X120123666Y-120199799D01*
X120160083Y-120177872D01*
X120175240Y-120170282D01*
X120181999Y-120167764D01*
X120198164Y-120163828D01*
X120239921Y-120158400D01*
X120329758Y-120155000D01*
X120462242Y-120155000D01*
X120552078Y-120158400D01*
X120593835Y-120163828D01*
X120610000Y-120167764D01*
X120616759Y-120170282D01*
X120631916Y-120177872D01*
X120668333Y-120199799D01*
X120730579Y-120240460D01*
X120733035Y-120242058D01*
X120812610Y-120293582D01*
X120834897Y-120307448D01*
X120925405Y-120361517D01*
X120961114Y-120381507D01*
X120985483Y-120394262D01*
X121037430Y-120428972D01*
X121278928Y-120529004D01*
X121535302Y-120580000D01*
X121796698Y-120580000D01*
X122053072Y-120529004D01*
X122294570Y-120428972D01*
X122349450Y-120392302D01*
X123006000Y-120392302D01*
X123006000Y-120653698D01*
X123056996Y-120910072D01*
X123157028Y-121151570D01*
X123302252Y-121368913D01*
X123487087Y-121553748D01*
X123704430Y-121698972D01*
X123945928Y-121799004D01*
X124202302Y-121850000D01*
X124463698Y-121850000D01*
X124720072Y-121799004D01*
X124961570Y-121698972D01*
X125178913Y-121553748D01*
X125363748Y-121368913D01*
X125508972Y-121151570D01*
X125609004Y-120910072D01*
X125660000Y-120653698D01*
X125660000Y-120392302D01*
X125609004Y-120135928D01*
X125508972Y-119894430D01*
X125481444Y-119853232D01*
X125471657Y-119833775D01*
X125464278Y-119819502D01*
X125417471Y-119731359D01*
X125416426Y-119729397D01*
X125377867Y-119657319D01*
X125352307Y-119606781D01*
X125338263Y-119575015D01*
X125330671Y-119553552D01*
X125324581Y-119529802D01*
X125318154Y-119490800D01*
X125312585Y-119426737D01*
X125310000Y-119323851D01*
X125310000Y-113671263D01*
X125312579Y-113574488D01*
X125317852Y-113517826D01*
X125323225Y-113487718D01*
X125326948Y-113474514D01*
X125330840Y-113464692D01*
X125340827Y-113444968D01*
X125363562Y-113406692D01*
X125402630Y-113346128D01*
X125454526Y-113267157D01*
X125459878Y-113258892D01*
X125506555Y-113185722D01*
X125572472Y-113087070D01*
X125672504Y-112845572D01*
X125723500Y-112589198D01*
X125723500Y-112327802D01*
X125672504Y-112071428D01*
X125572472Y-111829930D01*
X125427248Y-111612587D01*
X125242413Y-111427752D01*
X125025070Y-111282528D01*
X124783572Y-111182496D01*
X124527198Y-111131500D01*
X124265802Y-111131500D01*
X124009428Y-111182496D01*
X123767930Y-111282528D01*
X123550587Y-111427752D01*
X123365752Y-111612587D01*
X123220528Y-111829930D01*
X123120496Y-112071428D01*
X123069500Y-112327802D01*
X123069500Y-112589198D01*
X123120496Y-112845572D01*
X123163471Y-112949323D01*
X123194288Y-113030828D01*
X123200932Y-113047758D01*
X123240424Y-113144797D01*
X123243109Y-113151305D01*
X123277725Y-113234058D01*
X123303648Y-113298279D01*
X123320426Y-113344877D01*
X123331373Y-113382185D01*
X123339976Y-113421986D01*
X123347614Y-113476255D01*
X123353480Y-113554411D01*
X123356000Y-113669542D01*
X123356001Y-119323848D01*
X123353415Y-119426720D01*
X123347845Y-119490800D01*
X123341418Y-119529802D01*
X123335328Y-119553552D01*
X123327736Y-119575015D01*
X123313692Y-119606781D01*
X123288132Y-119657319D01*
X123249573Y-119729397D01*
X123248528Y-119731359D01*
X123201721Y-119819502D01*
X123194340Y-119833780D01*
X123184555Y-119853234D01*
X123157028Y-119894430D01*
X123056996Y-120135928D01*
X123006000Y-120392302D01*
X122349450Y-120392302D01*
X122511913Y-120283748D01*
X122696748Y-120098913D01*
X122841972Y-119881570D01*
X122942004Y-119640072D01*
X122993000Y-119383698D01*
X122993000Y-119122302D01*
X122942004Y-118865928D01*
X122841972Y-118624430D01*
X122696748Y-118407087D01*
X122511913Y-118222252D01*
X122294570Y-118077028D01*
X122053072Y-117976996D01*
X121796698Y-117926000D01*
X121535302Y-117926000D01*
X121278928Y-117976996D01*
X121037430Y-118077028D01*
X120985491Y-118111733D01*
X120961119Y-118124489D01*
X120925405Y-118144482D01*
X120834897Y-118198551D01*
X120812610Y-118212417D01*
X120733035Y-118263941D01*
X120730579Y-118265539D01*
X120668333Y-118306200D01*
X120631916Y-118328127D01*
X120616759Y-118335717D01*
X120610000Y-118338235D01*
X120593835Y-118342171D01*
X120552077Y-118347599D01*
X120462234Y-118351000D01*
X120329766Y-118351000D01*
X120239921Y-118347599D01*
X120198164Y-118342171D01*
X120181999Y-118338235D01*
X120175240Y-118335717D01*
X120160083Y-118328127D01*
X120123666Y-118306200D01*
X120061420Y-118265539D01*
X120058964Y-118263941D01*
X119979389Y-118212417D01*
X119957102Y-118198551D01*
X119866594Y-118144482D01*
X119830883Y-118124491D01*
X119806515Y-118111737D01*
X119754570Y-118077028D01*
X119513072Y-117976996D01*
X119256698Y-117926000D01*
X118995302Y-117926000D01*
X118738928Y-117976996D01*
X118659457Y-118009914D01*
X118650972Y-117989430D01*
X118505748Y-117772087D01*
X118320913Y-117587252D01*
X118103570Y-117442028D01*
X117862072Y-117341996D01*
X117605698Y-117291000D01*
X117344302Y-117291000D01*
X117087928Y-117341996D01*
X116846430Y-117442028D01*
X116629087Y-117587252D01*
X116444252Y-117772087D01*
X116299028Y-117989430D01*
X116198996Y-118230928D01*
X116148000Y-118487302D01*
X111928516Y-118487302D01*
X111923978Y-118472861D01*
X111921590Y-118465402D01*
X111903106Y-118408715D01*
X111893004Y-118357928D01*
X111792972Y-118116430D01*
X111647748Y-117899087D01*
X111462913Y-117714252D01*
X111245570Y-117569028D01*
X111004072Y-117468996D01*
X110747698Y-117418000D01*
X110486302Y-117418000D01*
X110229928Y-117468996D01*
X109988430Y-117569028D01*
X109771087Y-117714252D01*
X109586252Y-117899087D01*
X109441028Y-118116430D01*
X109340996Y-118357928D01*
X109290000Y-118614302D01*
X101287346Y-118614302D01*
X101233748Y-118534087D01*
X101048913Y-118349252D01*
X100831570Y-118204028D01*
X100590072Y-118103996D01*
X100333698Y-118053000D01*
X100072302Y-118053000D01*
X99815928Y-118103996D01*
X99574430Y-118204028D01*
X99357087Y-118349252D01*
X99172252Y-118534087D01*
X99027028Y-118751430D01*
X98926996Y-118992928D01*
X98876000Y-119249302D01*
X90922000Y-119249302D01*
X90922000Y-118104017D01*
X91055888Y-118213896D01*
X91355908Y-118374260D01*
X91681449Y-118473012D01*
X91935159Y-118498000D01*
X93104841Y-118498000D01*
X93358551Y-118473012D01*
X93552249Y-118414254D01*
X93560916Y-118442824D01*
X93674851Y-118655983D01*
X93828183Y-118842817D01*
X94015017Y-118996149D01*
X94228176Y-119110084D01*
X94459466Y-119180245D01*
X94639732Y-119198000D01*
X95760268Y-119198000D01*
X95940534Y-119180245D01*
X96171824Y-119110084D01*
X96384983Y-118996149D01*
X96571817Y-118842817D01*
X96725149Y-118655983D01*
X96839084Y-118442824D01*
X96909245Y-118211534D01*
X96932936Y-117971000D01*
X96909245Y-117730466D01*
X96839084Y-117499176D01*
X96725149Y-117286017D01*
X96571817Y-117099183D01*
X96384983Y-116945851D01*
X96171824Y-116831916D01*
X95940534Y-116761755D01*
X95760268Y-116744000D01*
X94752697Y-116744000D01*
X94722012Y-116432449D01*
X94623260Y-116106908D01*
X94462896Y-115806888D01*
X94247082Y-115543918D01*
X93984112Y-115328104D01*
X93684092Y-115167740D01*
X93358551Y-115068988D01*
X93104841Y-115044000D01*
X91935159Y-115044000D01*
X91681449Y-115068988D01*
X91355908Y-115167740D01*
X91055888Y-115328104D01*
X90922000Y-115437983D01*
X90922000Y-113456955D01*
X93375704Y-113456955D01*
X93494369Y-113761941D01*
X93837689Y-113923855D01*
X94206002Y-114015680D01*
X94585150Y-114033885D01*
X94960566Y-113977774D01*
X95134556Y-113915302D01*
X110306000Y-113915302D01*
X110306000Y-114176698D01*
X110356996Y-114433072D01*
X110457028Y-114674570D01*
X110602252Y-114891913D01*
X110787087Y-115076748D01*
X111004430Y-115221972D01*
X111245928Y-115322004D01*
X111502302Y-115373000D01*
X111763698Y-115373000D01*
X112020072Y-115322004D01*
X112261570Y-115221972D01*
X112478913Y-115076748D01*
X112663748Y-114891913D01*
X112808972Y-114674570D01*
X112909004Y-114433072D01*
X112921193Y-114371795D01*
X112929406Y-114345541D01*
X112940520Y-114306156D01*
X112966286Y-114203924D01*
X112972239Y-114178364D01*
X112992074Y-114085664D01*
X112992683Y-114082790D01*
X113007946Y-114010022D01*
X113018189Y-113968778D01*
X113023543Y-113952685D01*
X113026538Y-113946132D01*
X113035182Y-113931923D01*
X113060877Y-113898550D01*
X113122000Y-113832619D01*
X115059700Y-111894918D01*
X115155907Y-111803654D01*
X115230375Y-111740615D01*
X115296724Y-111690469D01*
X115364263Y-111644009D01*
X115439837Y-111594481D01*
X115445236Y-111590908D01*
X115524810Y-111537740D01*
X115549544Y-111520461D01*
X115628760Y-111462638D01*
X115666352Y-111433260D01*
X115747660Y-111365305D01*
X115788527Y-111328434D01*
X115874375Y-111244872D01*
X115911116Y-111206392D01*
X115961031Y-111150130D01*
X116029248Y-111081913D01*
X116174472Y-110864570D01*
X116274504Y-110623072D01*
X116325500Y-110366698D01*
X116325500Y-110105302D01*
X116274504Y-109848928D01*
X116174472Y-109607430D01*
X116029248Y-109390087D01*
X115844413Y-109205252D01*
X115627070Y-109060028D01*
X115385572Y-108959996D01*
X115129198Y-108909000D01*
X114867802Y-108909000D01*
X114611428Y-108959996D01*
X114369930Y-109060028D01*
X114152587Y-109205252D01*
X113967752Y-109390087D01*
X113822528Y-109607430D01*
X113722496Y-109848928D01*
X113671500Y-110105302D01*
X113671500Y-110366698D01*
X113722496Y-110623072D01*
X113730278Y-110641860D01*
X113736335Y-110667042D01*
X111846373Y-112557006D01*
X111780455Y-112618116D01*
X111747075Y-112643816D01*
X111732865Y-112652461D01*
X111726307Y-112655459D01*
X111710223Y-112660810D01*
X111668976Y-112671053D01*
X111596208Y-112686316D01*
X111593334Y-112686925D01*
X111500634Y-112706760D01*
X111475068Y-112712715D01*
X111372836Y-112738482D01*
X111333449Y-112749597D01*
X111307206Y-112757807D01*
X111245928Y-112769996D01*
X111004430Y-112870028D01*
X110787087Y-113015252D01*
X110602252Y-113200087D01*
X110457028Y-113417430D01*
X110356996Y-113658928D01*
X110306000Y-113915302D01*
X95134556Y-113915302D01*
X95317821Y-113849500D01*
X95481631Y-113761941D01*
X95600296Y-113456955D01*
X94488000Y-112344659D01*
X93375704Y-113456955D01*
X90922000Y-113456955D01*
X90922000Y-112197150D01*
X92554115Y-112197150D01*
X92610226Y-112572566D01*
X92738500Y-112929821D01*
X92826059Y-113093631D01*
X93131045Y-113212296D01*
X94243341Y-112100000D01*
X94732659Y-112100000D01*
X95844955Y-113212296D01*
X96149941Y-113093631D01*
X96311855Y-112750311D01*
X96403680Y-112381998D01*
X96421885Y-112002850D01*
X96365774Y-111627434D01*
X96237500Y-111270179D01*
X96149941Y-111106369D01*
X95844955Y-110987704D01*
X94732659Y-112100000D01*
X94243341Y-112100000D01*
X93131045Y-110987704D01*
X92826059Y-111106369D01*
X92664145Y-111449689D01*
X92572320Y-111818002D01*
X92554115Y-112197150D01*
X90922000Y-112197150D01*
X90922000Y-103915497D01*
X90925575Y-103933470D01*
X90934852Y-103964052D01*
X90988421Y-104140647D01*
X91006368Y-104199811D01*
X91108385Y-104446100D01*
X91112875Y-104456940D01*
X91213505Y-104645205D01*
X91244073Y-104702394D01*
X91390251Y-104921163D01*
X91398697Y-104933804D01*
X91572423Y-105145489D01*
X91575259Y-105148945D01*
X91578468Y-105152154D01*
X91731583Y-105336944D01*
X91739318Y-105346124D01*
X91923374Y-105560935D01*
X91937622Y-105577073D01*
X92101708Y-105757480D01*
X92124397Y-105781319D01*
X92276836Y-105934390D01*
X92308465Y-105964303D01*
X92457582Y-106097101D01*
X92495388Y-106128543D01*
X92649505Y-106248136D01*
X92687404Y-106275636D01*
X92854847Y-106389089D01*
X92886376Y-106409288D01*
X93075468Y-106523665D01*
X93097198Y-106536300D01*
X93316263Y-106658669D01*
X93328359Y-106665276D01*
X93496319Y-106754963D01*
X93575223Y-106807685D01*
X93677380Y-106850000D01*
X93575223Y-106892315D01*
X93259609Y-107103201D01*
X92991201Y-107371609D01*
X92780315Y-107687223D01*
X92635053Y-108037915D01*
X92561000Y-108410207D01*
X92561000Y-108789793D01*
X92635053Y-109162085D01*
X92780315Y-109512777D01*
X92991201Y-109828391D01*
X93259609Y-110096799D01*
X93575223Y-110307685D01*
X93669111Y-110346575D01*
X93658179Y-110350500D01*
X93494369Y-110438059D01*
X93375704Y-110743045D01*
X94488000Y-111855341D01*
X95600296Y-110743045D01*
X95481631Y-110438059D01*
X95296646Y-110350818D01*
X95400777Y-110307685D01*
X95716391Y-110096799D01*
X95777655Y-110035535D01*
X95820590Y-110053319D01*
X96115604Y-110112000D01*
X96416396Y-110112000D01*
X96711410Y-110053319D01*
X96989306Y-109938210D01*
X97095626Y-109867169D01*
X97107845Y-109907450D01*
X97107847Y-109907455D01*
X97107848Y-109907458D01*
X97217946Y-110173258D01*
X97230350Y-110196463D01*
X97331715Y-110386105D01*
X97353575Y-110427002D01*
X97427635Y-110537841D01*
X97502308Y-110651063D01*
X97560056Y-110741921D01*
X97603912Y-110814878D01*
X97636781Y-110873963D01*
X97662492Y-110924935D01*
X97685292Y-110975370D01*
X97708888Y-111033354D01*
X97735843Y-111105374D01*
X97767968Y-111195788D01*
X97776462Y-111220194D01*
X97783996Y-111258072D01*
X97884028Y-111499570D01*
X98029252Y-111716913D01*
X98214087Y-111901748D01*
X98431430Y-112046972D01*
X98672928Y-112147004D01*
X98929302Y-112198000D01*
X99190698Y-112198000D01*
X99447072Y-112147004D01*
X99688570Y-112046972D01*
X99905913Y-111901748D01*
X100090748Y-111716913D01*
X100235972Y-111499570D01*
X100336004Y-111258072D01*
X100387000Y-111001698D01*
X100387000Y-110740302D01*
X100336004Y-110483928D01*
X100235972Y-110242430D01*
X100090748Y-110025087D01*
X99905913Y-109840252D01*
X99688570Y-109695028D01*
X99447072Y-109594996D01*
X99387714Y-109583189D01*
X99372087Y-109578261D01*
X99340058Y-109568963D01*
X99245427Y-109543830D01*
X99232419Y-109540504D01*
X99151738Y-109520664D01*
X99098631Y-109506558D01*
X99092618Y-109504558D01*
X99086989Y-109498407D01*
X99044576Y-109440658D01*
X99031594Y-109421230D01*
X98986474Y-109336815D01*
X98949841Y-109248377D01*
X98922055Y-109156778D01*
X98903381Y-109062897D01*
X98894000Y-108967644D01*
X98894000Y-107184302D01*
X99384000Y-107184302D01*
X99384000Y-107445698D01*
X99434996Y-107702072D01*
X99535028Y-107943570D01*
X99680252Y-108160913D01*
X99865087Y-108345748D01*
X100082430Y-108490972D01*
X100323928Y-108591004D01*
X100385203Y-108603192D01*
X100411455Y-108611405D01*
X100450842Y-108622520D01*
X100553074Y-108648286D01*
X100578628Y-108654238D01*
X100671329Y-108674074D01*
X100674209Y-108674684D01*
X100746977Y-108689947D01*
X100788220Y-108700189D01*
X100804312Y-108705543D01*
X100810866Y-108708539D01*
X100825079Y-108717185D01*
X100858455Y-108742883D01*
X100924360Y-108803980D01*
X101347566Y-109227187D01*
X101433957Y-109298085D01*
X101704237Y-109519899D01*
X101704246Y-109519905D01*
X102056146Y-109755036D01*
X102087887Y-109776245D01*
X102494798Y-109993744D01*
X102494806Y-109993747D01*
X102494811Y-109993750D01*
X102921081Y-110170317D01*
X102921091Y-110170320D01*
X103362616Y-110304255D01*
X103362624Y-110304257D01*
X103815150Y-110394272D01*
X103815160Y-110394273D01*
X103815165Y-110394274D01*
X104274335Y-110439499D01*
X104274337Y-110439499D01*
X104274347Y-110439500D01*
X109268544Y-110439500D01*
X109410456Y-110442508D01*
X109521149Y-110449682D01*
X109618999Y-110459854D01*
X109715768Y-110472449D01*
X109813705Y-110485540D01*
X109831975Y-110487747D01*
X109928273Y-110498145D01*
X109966456Y-110501252D01*
X110065464Y-110506689D01*
X110116431Y-110507698D01*
X110223662Y-110506060D01*
X110277363Y-110503251D01*
X110398328Y-110492425D01*
X110446848Y-110486432D01*
X110465427Y-110483500D01*
X110493698Y-110483500D01*
X110750072Y-110432504D01*
X110991570Y-110332472D01*
X111208913Y-110187248D01*
X111393748Y-110002413D01*
X111538972Y-109785070D01*
X111639004Y-109543572D01*
X111690000Y-109287198D01*
X111690000Y-109025802D01*
X111639004Y-108769428D01*
X111538972Y-108527930D01*
X111393748Y-108310587D01*
X111208913Y-108125752D01*
X110991570Y-107980528D01*
X110750072Y-107880496D01*
X110493698Y-107829500D01*
X110232302Y-107829500D01*
X109975928Y-107880496D01*
X109734430Y-107980528D01*
X109517087Y-108125752D01*
X109332252Y-108310587D01*
X109187028Y-108527930D01*
X109155919Y-108603032D01*
X109141646Y-108631242D01*
X109139523Y-108635500D01*
X104362960Y-108635500D01*
X104080181Y-108607648D01*
X103801489Y-108552212D01*
X103529574Y-108469728D01*
X103267039Y-108360983D01*
X103016443Y-108227036D01*
X102780178Y-108069169D01*
X102560532Y-107888911D01*
X102199980Y-107528360D01*
X102138883Y-107462455D01*
X102113185Y-107429079D01*
X102104539Y-107414866D01*
X102101543Y-107408312D01*
X102096189Y-107392220D01*
X102085947Y-107350977D01*
X102070684Y-107278209D01*
X102070074Y-107275329D01*
X102050238Y-107182628D01*
X102044286Y-107157074D01*
X102018520Y-107054842D01*
X102007405Y-107015455D01*
X101999192Y-106989203D01*
X101987004Y-106927928D01*
X101886972Y-106686430D01*
X101741748Y-106469087D01*
X101556913Y-106284252D01*
X101339570Y-106139028D01*
X101098072Y-106038996D01*
X100841698Y-105988000D01*
X100580302Y-105988000D01*
X100323928Y-106038996D01*
X100082430Y-106139028D01*
X99865087Y-106284252D01*
X99680252Y-106469087D01*
X99535028Y-106686430D01*
X99434996Y-106927928D01*
X99384000Y-107184302D01*
X98894000Y-107184302D01*
X98894000Y-105131802D01*
X103278000Y-105131802D01*
X103278000Y-105393198D01*
X103328996Y-105649572D01*
X103429028Y-105891070D01*
X103574252Y-106108413D01*
X103759087Y-106293248D01*
X103976430Y-106438472D01*
X104217928Y-106538504D01*
X104474302Y-106589500D01*
X104735698Y-106589500D01*
X104992072Y-106538504D01*
X105233570Y-106438472D01*
X105450913Y-106293248D01*
X105635748Y-106108413D01*
X105780972Y-105891070D01*
X105881004Y-105649572D01*
X105932000Y-105393198D01*
X105932000Y-105131802D01*
X105881004Y-104875428D01*
X105780972Y-104633930D01*
X105750670Y-104588580D01*
X105741674Y-104570983D01*
X105730269Y-104549564D01*
X105682199Y-104462808D01*
X105678578Y-104456350D01*
X105637929Y-104384718D01*
X105611733Y-104336142D01*
X105600245Y-104311529D01*
X105597342Y-104303469D01*
X105596097Y-104298259D01*
X105593853Y-104279806D01*
X105592996Y-104235369D01*
X105596047Y-104187713D01*
X105615672Y-104089053D01*
X105649021Y-103979115D01*
X105692982Y-103872982D01*
X105747137Y-103771666D01*
X105810963Y-103676143D01*
X105883845Y-103587337D01*
X106672624Y-102798560D01*
X106764120Y-102687071D01*
X106910301Y-102508949D01*
X106910306Y-102508942D01*
X107095818Y-102231302D01*
X123260000Y-102231302D01*
X123260000Y-102492698D01*
X123310996Y-102749072D01*
X123411028Y-102990570D01*
X123440815Y-103035149D01*
X123454985Y-103062948D01*
X123467326Y-103086114D01*
X123519194Y-103179385D01*
X123526673Y-103192511D01*
X123573952Y-103273519D01*
X123610981Y-103337501D01*
X123634182Y-103380930D01*
X123648025Y-103411277D01*
X123658735Y-103440879D01*
X123670256Y-103483713D01*
X123683014Y-103551307D01*
X123696485Y-103659421D01*
X123717307Y-103870839D01*
X123717309Y-103870847D01*
X123717309Y-103870851D01*
X123781612Y-104194133D01*
X123781616Y-104194145D01*
X123781616Y-104194147D01*
X123876046Y-104505441D01*
X123877301Y-104509577D01*
X124003439Y-104814102D01*
X124003443Y-104814109D01*
X124003444Y-104814112D01*
X124158823Y-105104806D01*
X124158826Y-105104810D01*
X124158830Y-105104818D01*
X124341458Y-105378137D01*
X124341960Y-105378888D01*
X124549109Y-105631300D01*
X124551072Y-105633692D01*
X125694152Y-106776773D01*
X125794667Y-106881139D01*
X125871586Y-106967304D01*
X125937865Y-107046557D01*
X126001479Y-107125615D01*
X126002798Y-107127249D01*
X126065653Y-107204904D01*
X126079596Y-107221612D01*
X126142692Y-107294962D01*
X126169425Y-107324374D01*
X126238052Y-107395850D01*
X126274149Y-107430929D01*
X126353599Y-107502963D01*
X126392980Y-107536203D01*
X126488544Y-107611229D01*
X126525494Y-107638399D01*
X126527877Y-107640038D01*
X126535087Y-107647248D01*
X126640616Y-107717760D01*
X126627224Y-107737349D01*
X126561471Y-107832943D01*
X126560051Y-107835015D01*
X126501675Y-107920515D01*
X126496852Y-107927670D01*
X126443929Y-108007194D01*
X126435861Y-108019588D01*
X126385937Y-108098019D01*
X126375978Y-108114124D01*
X126326603Y-108196344D01*
X126316671Y-108213404D01*
X126265394Y-108304295D01*
X126256926Y-108319739D01*
X126201295Y-108424182D01*
X126194814Y-108436638D01*
X126170331Y-108484823D01*
X126141528Y-108527930D01*
X126041496Y-108769428D01*
X125990500Y-109025802D01*
X125990500Y-109287198D01*
X126041496Y-109543572D01*
X126141528Y-109785070D01*
X126286752Y-110002413D01*
X126471587Y-110187248D01*
X126688930Y-110332472D01*
X126930428Y-110432504D01*
X127186802Y-110483500D01*
X127448198Y-110483500D01*
X127704572Y-110432504D01*
X127946070Y-110332472D01*
X128163413Y-110187248D01*
X128348248Y-110002413D01*
X128493472Y-109785070D01*
X128593504Y-109543572D01*
X128644500Y-109287198D01*
X128644500Y-109025802D01*
X128593504Y-108769428D01*
X128493472Y-108527930D01*
X128457200Y-108473646D01*
X128456764Y-108472813D01*
X128433287Y-108431373D01*
X128407679Y-108389437D01*
X128983744Y-107813374D01*
X129068218Y-107710442D01*
X129068219Y-107710440D01*
X129121189Y-107645896D01*
X129121194Y-107645889D01*
X129121197Y-107645885D01*
X129241559Y-107465751D01*
X129243321Y-107462455D01*
X129343688Y-107274684D01*
X129343694Y-107274670D01*
X129343697Y-107274664D01*
X129391208Y-107159961D01*
X129394645Y-107151663D01*
X129394645Y-107151662D01*
X129426603Y-107074508D01*
X129429370Y-107065385D01*
X129463683Y-106952273D01*
X129494889Y-106855300D01*
X129518111Y-106792967D01*
X129533856Y-106757764D01*
X129541889Y-106743187D01*
X129545156Y-106738416D01*
X129551210Y-106731192D01*
X129569707Y-106712508D01*
X129607766Y-106678319D01*
X129667940Y-106627704D01*
X129697142Y-106603677D01*
X129750913Y-106567748D01*
X129935748Y-106382913D01*
X130080972Y-106165570D01*
X130181004Y-105924072D01*
X130232000Y-105667698D01*
X130232000Y-105406302D01*
X130181004Y-105149928D01*
X130114759Y-104990000D01*
X130405315Y-104990000D01*
X130437223Y-105021908D01*
X130517988Y-105088190D01*
X130577288Y-105136857D01*
X130727944Y-105237523D01*
X130727954Y-105237529D01*
X130760569Y-105254962D01*
X130760570Y-105254963D01*
X130777419Y-105263969D01*
X130887751Y-105322943D01*
X130887764Y-105322948D01*
X130887767Y-105322950D01*
X130936236Y-105343026D01*
X131020999Y-105378136D01*
X131021001Y-105378136D01*
X131055169Y-105392289D01*
X131096164Y-105404724D01*
X131228559Y-105444886D01*
X131228566Y-105444887D01*
X131228568Y-105444888D01*
X131370012Y-105473023D01*
X131406271Y-105480236D01*
X131406277Y-105480237D01*
X131406279Y-105480237D01*
X131419268Y-105481516D01*
X131443076Y-105483861D01*
X131443081Y-105483863D01*
X131549788Y-105494373D01*
X131586589Y-105497998D01*
X131586593Y-105497998D01*
X131586613Y-105498000D01*
X133166851Y-105498000D01*
X133269737Y-105500585D01*
X133333800Y-105506154D01*
X133372802Y-105512581D01*
X133396552Y-105518671D01*
X133418015Y-105526263D01*
X133449781Y-105540307D01*
X133500319Y-105565867D01*
X133572397Y-105604426D01*
X133574359Y-105605471D01*
X133662502Y-105652278D01*
X133676775Y-105659657D01*
X133696232Y-105669444D01*
X133737430Y-105696972D01*
X133978928Y-105797004D01*
X134235302Y-105848000D01*
X134496698Y-105848000D01*
X134753072Y-105797004D01*
X134994570Y-105696972D01*
X135211913Y-105551748D01*
X135396748Y-105366913D01*
X135541972Y-105149570D01*
X135642004Y-104908072D01*
X135693000Y-104651698D01*
X135693000Y-104390302D01*
X135642004Y-104133928D01*
X135541972Y-103892430D01*
X135396748Y-103675087D01*
X135211913Y-103490252D01*
X134994570Y-103345028D01*
X134753072Y-103244996D01*
X134496698Y-103194000D01*
X134235302Y-103194000D01*
X133978928Y-103244996D01*
X133737430Y-103345028D01*
X133696234Y-103372555D01*
X133676780Y-103382340D01*
X133662502Y-103389721D01*
X133574359Y-103436528D01*
X133572397Y-103437573D01*
X133500319Y-103476132D01*
X133449781Y-103501692D01*
X133418015Y-103515736D01*
X133396552Y-103523328D01*
X133372802Y-103529418D01*
X133333800Y-103535845D01*
X133269720Y-103541415D01*
X133166882Y-103544000D01*
X131722686Y-103544000D01*
X131690780Y-103512094D01*
X131689992Y-103511447D01*
X131550711Y-103397142D01*
X131550707Y-103397140D01*
X131550703Y-103397136D01*
X131400046Y-103296471D01*
X131400043Y-103296470D01*
X131400041Y-103296468D01*
X131240245Y-103211054D01*
X131106997Y-103155861D01*
X131106995Y-103155861D01*
X131072832Y-103141710D01*
X131072825Y-103141708D01*
X131072818Y-103141705D01*
X130980011Y-103113554D01*
X130934816Y-103099844D01*
X130934814Y-103099844D01*
X130932890Y-103099260D01*
X130899431Y-103089110D01*
X130863161Y-103081895D01*
X130863160Y-103081895D01*
X130839852Y-103077259D01*
X130721721Y-103053761D01*
X130721707Y-103053760D01*
X130721704Y-103053759D01*
X130664792Y-103048154D01*
X130578189Y-103039625D01*
X130541385Y-103036000D01*
X128343616Y-103036000D01*
X128185842Y-103034747D01*
X128052705Y-103031760D01*
X127933106Y-103027971D01*
X127933072Y-103027970D01*
X127823905Y-103024517D01*
X127814334Y-103024278D01*
X127713700Y-103022421D01*
X127693622Y-103022328D01*
X127596325Y-103023220D01*
X127567889Y-103024037D01*
X127468733Y-103028830D01*
X127436706Y-103031088D01*
X127330496Y-103040937D01*
X127299968Y-103044420D01*
X127181508Y-103060478D01*
X127155702Y-103064449D01*
X127140899Y-103067000D01*
X127123302Y-103067000D01*
X126886000Y-103114202D01*
X126886000Y-99755758D01*
X126889400Y-99665921D01*
X126894828Y-99624164D01*
X126898764Y-99607999D01*
X126901282Y-99601240D01*
X126908872Y-99586083D01*
X126930799Y-99549666D01*
X126971460Y-99487420D01*
X126973058Y-99484964D01*
X127024582Y-99405389D01*
X127038448Y-99383102D01*
X127092517Y-99292594D01*
X127112506Y-99256887D01*
X127125260Y-99232520D01*
X127159972Y-99180570D01*
X127260004Y-98939072D01*
X127311000Y-98682698D01*
X127311000Y-98421302D01*
X127260004Y-98164928D01*
X127159972Y-97923430D01*
X127014748Y-97706087D01*
X126829913Y-97521252D01*
X126612570Y-97376028D01*
X126371072Y-97275996D01*
X126114698Y-97225000D01*
X125853302Y-97225000D01*
X125596928Y-97275996D01*
X125355430Y-97376028D01*
X125138087Y-97521252D01*
X124953252Y-97706087D01*
X124808028Y-97923430D01*
X124707996Y-98164928D01*
X124657000Y-98421302D01*
X124657000Y-98682698D01*
X124707996Y-98939072D01*
X124808028Y-99180570D01*
X124842737Y-99232515D01*
X124855491Y-99256883D01*
X124875482Y-99292594D01*
X124929551Y-99383102D01*
X124943417Y-99405389D01*
X124994941Y-99484964D01*
X124996539Y-99487420D01*
X125037200Y-99549666D01*
X125059127Y-99586083D01*
X125066717Y-99601240D01*
X125069235Y-99607999D01*
X125073171Y-99624164D01*
X125078599Y-99665921D01*
X125082001Y-99755787D01*
X125082001Y-101130702D01*
X124974072Y-101085996D01*
X124717698Y-101035000D01*
X124456302Y-101035000D01*
X124199928Y-101085996D01*
X123958430Y-101186028D01*
X123741087Y-101331252D01*
X123556252Y-101516087D01*
X123411028Y-101733430D01*
X123310996Y-101974928D01*
X123260000Y-102231302D01*
X107095818Y-102231302D01*
X107118446Y-102197437D01*
X107132822Y-102170541D01*
X107284080Y-101887558D01*
X107295056Y-101867024D01*
X107438427Y-101520899D01*
X107438428Y-101520897D01*
X107438433Y-101520884D01*
X107547185Y-101162374D01*
X107562377Y-101085996D01*
X107620275Y-100794928D01*
X107624780Y-100749194D01*
X107656999Y-100422081D01*
X107656999Y-100422079D01*
X107657000Y-100422069D01*
X107657000Y-100143405D01*
X107674902Y-99961634D01*
X107710539Y-99782476D01*
X107763564Y-99607678D01*
X107833467Y-99438918D01*
X107919570Y-99277830D01*
X108021055Y-99125947D01*
X108136930Y-98984753D01*
X109189915Y-97931770D01*
X109264493Y-97860848D01*
X109313724Y-97819491D01*
X109345868Y-97796441D01*
X109366951Y-97783964D01*
X109387489Y-97774159D01*
X109419901Y-97761621D01*
X109473735Y-97743950D01*
X109551933Y-97720259D01*
X109554055Y-97719613D01*
X109649479Y-97690385D01*
X109664791Y-97685509D01*
X109685470Y-97678671D01*
X109734072Y-97669004D01*
X109975570Y-97568972D01*
X110192913Y-97423748D01*
X110377748Y-97238913D01*
X110522972Y-97021570D01*
X110623004Y-96780072D01*
X110674000Y-96523698D01*
X110674000Y-96262302D01*
X110623004Y-96005928D01*
X110522972Y-95764430D01*
X110377748Y-95547087D01*
X110192913Y-95362252D01*
X109975570Y-95217028D01*
X109734072Y-95116996D01*
X109477698Y-95066000D01*
X109216302Y-95066000D01*
X108959928Y-95116996D01*
X108718430Y-95217028D01*
X108501087Y-95362252D01*
X108316252Y-95547087D01*
X108171028Y-95764430D01*
X108070996Y-96005928D01*
X108061329Y-96054529D01*
X108054494Y-96075199D01*
X108049617Y-96090513D01*
X108020388Y-96185937D01*
X108019740Y-96188065D01*
X107996049Y-96266263D01*
X107978379Y-96320093D01*
X107965843Y-96352501D01*
X107956034Y-96373045D01*
X107943549Y-96394142D01*
X107920517Y-96426261D01*
X107879143Y-96475514D01*
X107808228Y-96550085D01*
X106789352Y-97568960D01*
X106687368Y-97670943D01*
X106449698Y-97960545D01*
X106449691Y-97960554D01*
X106241551Y-98272059D01*
X106241548Y-98272065D01*
X106064942Y-98602471D01*
X106064940Y-98602476D01*
X105921569Y-98948601D01*
X105912506Y-98978478D01*
X105812813Y-99307120D01*
X105812811Y-99307130D01*
X105739722Y-99674574D01*
X105738841Y-99683520D01*
X105716408Y-99911297D01*
X105703000Y-100047428D01*
X105703000Y-100326087D01*
X105685096Y-100507864D01*
X105649460Y-100687015D01*
X105596435Y-100861817D01*
X105526533Y-101030573D01*
X105440425Y-101191668D01*
X105338942Y-101343548D01*
X105223068Y-101484742D01*
X104434281Y-102273529D01*
X104434276Y-102273535D01*
X104239605Y-102510742D01*
X104239603Y-102510746D01*
X104239599Y-102510750D01*
X104069116Y-102765897D01*
X104069113Y-102765903D01*
X103924459Y-103036531D01*
X103924456Y-103036537D01*
X103924456Y-103036538D01*
X103850363Y-103215415D01*
X103807023Y-103320048D01*
X103718094Y-103613208D01*
X103717943Y-103613707D01*
X103658108Y-103914528D01*
X103658078Y-103914680D01*
X103653400Y-103962176D01*
X103639766Y-104081903D01*
X103626567Y-104168215D01*
X103613847Y-104230454D01*
X103601747Y-104275652D01*
X103588907Y-104313600D01*
X103572035Y-104355086D01*
X103547210Y-104408925D01*
X103511934Y-104480428D01*
X103467103Y-104569677D01*
X103464690Y-104574525D01*
X103453343Y-104597540D01*
X103429028Y-104633930D01*
X103328996Y-104875428D01*
X103278000Y-105131802D01*
X98894000Y-105131802D01*
X98894000Y-103407371D01*
X98893873Y-103406075D01*
X98885399Y-103320048D01*
X98879863Y-103263839D01*
X98879863Y-103263838D01*
X98871149Y-103175368D01*
X98865798Y-103121038D01*
X98811763Y-102849392D01*
X98809668Y-102838860D01*
X98726153Y-102563547D01*
X98726150Y-102563539D01*
X98616050Y-102297736D01*
X98614717Y-102295242D01*
X98480427Y-102044002D01*
X98480426Y-102044000D01*
X98480423Y-102043995D01*
X98320585Y-101804781D01*
X98309093Y-101790777D01*
X98147342Y-101593685D01*
X98138059Y-101582373D01*
X97934624Y-101378938D01*
X97925210Y-101371212D01*
X97712222Y-101196417D01*
X97712218Y-101196415D01*
X97712214Y-101196411D01*
X97473001Y-101036574D01*
X97378414Y-100986017D01*
X97315835Y-100952568D01*
X97050576Y-100808931D01*
X96830131Y-100686309D01*
X96641837Y-100578968D01*
X96473896Y-100481568D01*
X96418517Y-100449319D01*
X96418517Y-100400000D01*
X96404480Y-100257483D01*
X96362910Y-100120443D01*
X96295403Y-99994147D01*
X96204554Y-99883446D01*
X96093853Y-99792597D01*
X95967557Y-99725090D01*
X95830517Y-99683520D01*
X95688000Y-99669483D01*
X93288000Y-99669483D01*
X93145483Y-99683520D01*
X93008443Y-99725090D01*
X92882147Y-99792597D01*
X92798000Y-99861654D01*
X92798000Y-98802566D01*
X92824084Y-98537721D01*
X92876005Y-98276699D01*
X92953260Y-98022022D01*
X93055102Y-97776154D01*
X93180557Y-97541443D01*
X93328416Y-97320157D01*
X93497246Y-97114437D01*
X93537399Y-97074284D01*
X93638482Y-96980148D01*
X93705286Y-96927896D01*
X93751117Y-96899155D01*
X93787256Y-96881803D01*
X93830560Y-96866331D01*
X93897181Y-96848223D01*
X93995974Y-96825515D01*
X94118394Y-96797466D01*
X94139844Y-96792207D01*
X94184577Y-96780517D01*
X94780000Y-96780517D01*
X94922517Y-96766480D01*
X95059557Y-96724910D01*
X95185853Y-96657403D01*
X95296554Y-96566554D01*
X95387403Y-96455853D01*
X95432465Y-96371549D01*
X95517789Y-96456873D01*
X95653726Y-96320936D01*
X95723820Y-96585118D01*
X95998818Y-96706988D01*
X96292308Y-96772866D01*
X96593011Y-96780222D01*
X96889371Y-96728771D01*
X97169998Y-96620492D01*
X97236180Y-96585118D01*
X97306275Y-96320934D01*
X96480000Y-95494659D01*
X96465858Y-95508801D01*
X96221199Y-95264142D01*
X96235341Y-95250000D01*
X96724659Y-95250000D01*
X97550934Y-96076275D01*
X97815118Y-96006180D01*
X97936988Y-95731182D01*
X98002866Y-95437692D01*
X98010222Y-95136989D01*
X97958771Y-94840629D01*
X97850492Y-94560002D01*
X97815118Y-94493820D01*
X97550934Y-94423725D01*
X96724659Y-95250000D01*
X96235341Y-95250000D01*
X96221199Y-95235858D01*
X96465858Y-94991199D01*
X96480000Y-95005341D01*
X97306275Y-94179066D01*
X97236180Y-93914882D01*
X96961182Y-93793012D01*
X96667692Y-93727134D01*
X96366989Y-93719778D01*
X96070629Y-93771229D01*
X95790002Y-93879508D01*
X95723820Y-93914882D01*
X95653726Y-94179064D01*
X95517789Y-94043127D01*
X95432465Y-94128451D01*
X95387403Y-94044147D01*
X95296554Y-93933446D01*
X95185853Y-93842597D01*
X95059557Y-93775090D01*
X94922517Y-93733520D01*
X94780000Y-93719483D01*
X93180000Y-93719483D01*
X93037483Y-93733520D01*
X92900443Y-93775090D01*
X92774147Y-93842597D01*
X92663446Y-93933446D01*
X92572597Y-94044147D01*
X92505090Y-94170443D01*
X92463520Y-94307483D01*
X92449483Y-94450000D01*
X92449483Y-95045416D01*
X92437792Y-95090152D01*
X92432534Y-95111597D01*
X92404596Y-95233530D01*
X92381775Y-95332815D01*
X92363668Y-95399431D01*
X92348195Y-95442739D01*
X92330842Y-95478879D01*
X92302103Y-95524706D01*
X92249842Y-95591521D01*
X92155714Y-95692597D01*
X92047689Y-95800622D01*
X92047684Y-95800628D01*
X92047683Y-95800629D01*
X91802730Y-96099105D01*
X91757053Y-96154762D01*
X91502538Y-96535671D01*
X91502535Y-96535677D01*
X91286581Y-96939697D01*
X91286578Y-96939704D01*
X91286577Y-96939706D01*
X91146612Y-97277614D01*
X91111262Y-97362956D01*
X90978279Y-97801343D01*
X90978278Y-97801350D01*
X90978277Y-97801352D01*
X90922000Y-98084277D01*
X90922000Y-92192000D01*
X113894667Y-92192000D01*
X113894667Y-96487000D01*
G04 #@! TA.AperFunction,Conductor*
D23*
G36*
X113894667Y-96487000D02*
G01*
X131215334Y-96487000D01*
X131215334Y-94243925D01*
X136123000Y-94243925D01*
X136123000Y-94456075D01*
X136164389Y-94664149D01*
X136245575Y-94860151D01*
X136363440Y-95036547D01*
X136513453Y-95186560D01*
X136608397Y-95250000D01*
X136513453Y-95313440D01*
X136363440Y-95463453D01*
X136245575Y-95639849D01*
X136164389Y-95835851D01*
X136123000Y-96043925D01*
X136123000Y-96256075D01*
X136164389Y-96464149D01*
X136245575Y-96660151D01*
X136363440Y-96836547D01*
X136513453Y-96986560D01*
X136689849Y-97104425D01*
X136885851Y-97185611D01*
X137093925Y-97227000D01*
X137306075Y-97227000D01*
X137514149Y-97185611D01*
X137710151Y-97104425D01*
X137886547Y-96986560D01*
X138036560Y-96836547D01*
X138154425Y-96660151D01*
X138235611Y-96464149D01*
X138277000Y-96256075D01*
X138277000Y-96043925D01*
X138235611Y-95835851D01*
X138154425Y-95639849D01*
X138036560Y-95463453D01*
X137886547Y-95313440D01*
X137791603Y-95250000D01*
X137886547Y-95186560D01*
X138036560Y-95036547D01*
X138154425Y-94860151D01*
X138235611Y-94664149D01*
X138277000Y-94456075D01*
X138277000Y-94243925D01*
X138235611Y-94035851D01*
X138154425Y-93839849D01*
X138036560Y-93663453D01*
X137886547Y-93513440D01*
X137710151Y-93395575D01*
X137514149Y-93314389D01*
X137306075Y-93273000D01*
X137093925Y-93273000D01*
X136885851Y-93314389D01*
X136689849Y-93395575D01*
X136513453Y-93513440D01*
X136363440Y-93663453D01*
X136245575Y-93839849D01*
X136164389Y-94035851D01*
X136123000Y-94243925D01*
X131215334Y-94243925D01*
X131215334Y-92192000D01*
X146558000Y-92192000D01*
X146558000Y-122831108D01*
X146475797Y-123029563D01*
X146371000Y-123556414D01*
X146371000Y-124093586D01*
X146475797Y-124620437D01*
X146558000Y-124818892D01*
X146558000Y-126248000D01*
X90922000Y-126248000D01*
X90922000Y-125354017D01*
X91055888Y-125463896D01*
X91355908Y-125624260D01*
X91681449Y-125723012D01*
X91935159Y-125748000D01*
X93104841Y-125748000D01*
X93358551Y-125723012D01*
X93684092Y-125624260D01*
X93984112Y-125463896D01*
X94247082Y-125248082D01*
X94462896Y-124985112D01*
X94623260Y-124685092D01*
X94722012Y-124359551D01*
X94752697Y-124048000D01*
X95760268Y-124048000D01*
X95940534Y-124030245D01*
X96171824Y-123960084D01*
X96384983Y-123846149D01*
X96571817Y-123692817D01*
X96725149Y-123505983D01*
X96839084Y-123292824D01*
X96909245Y-123061534D01*
X96932936Y-122821000D01*
X96909245Y-122580466D01*
X96839084Y-122349176D01*
X96725149Y-122136017D01*
X96571817Y-121949183D01*
X96384983Y-121795851D01*
X96171824Y-121681916D01*
X95940534Y-121611755D01*
X95760268Y-121594000D01*
X94639732Y-121594000D01*
X94459466Y-121611755D01*
X94228176Y-121681916D01*
X94015017Y-121795851D01*
X93828183Y-121949183D01*
X93674851Y-122136017D01*
X93560916Y-122349176D01*
X93552249Y-122377746D01*
X93358551Y-122318988D01*
X93104841Y-122294000D01*
X91935159Y-122294000D01*
X91681449Y-122318988D01*
X91355908Y-122417740D01*
X91055888Y-122578104D01*
X90922000Y-122687983D01*
X90922000Y-119249302D01*
X98876000Y-119249302D01*
X98876000Y-119510698D01*
X98926996Y-119767072D01*
X99027028Y-120008570D01*
X99061737Y-120060515D01*
X99074491Y-120084883D01*
X99094482Y-120120594D01*
X99148551Y-120211102D01*
X99162417Y-120233389D01*
X99213941Y-120312964D01*
X99215539Y-120315420D01*
X99256200Y-120377666D01*
X99278127Y-120414083D01*
X99285717Y-120429240D01*
X99288235Y-120435999D01*
X99292171Y-120452164D01*
X99297599Y-120493921D01*
X99298700Y-120522999D01*
X99297599Y-120552077D01*
X99292171Y-120593835D01*
X99288235Y-120610000D01*
X99285717Y-120616759D01*
X99278127Y-120631916D01*
X99256200Y-120668333D01*
X99215539Y-120730579D01*
X99213941Y-120733035D01*
X99162417Y-120812610D01*
X99148551Y-120834897D01*
X99094482Y-120925405D01*
X99074489Y-120961119D01*
X99061733Y-120985491D01*
X99027028Y-121037430D01*
X98926996Y-121278928D01*
X98876000Y-121535302D01*
X98876000Y-121796698D01*
X98926996Y-122053072D01*
X99027028Y-122294570D01*
X99172252Y-122511913D01*
X99357087Y-122696748D01*
X99574430Y-122841972D01*
X99815928Y-122942004D01*
X100072302Y-122993000D01*
X100333698Y-122993000D01*
X100590072Y-122942004D01*
X100831570Y-122841972D01*
X101048913Y-122696748D01*
X101233748Y-122511913D01*
X101378972Y-122294570D01*
X101479004Y-122053072D01*
X101530000Y-121796698D01*
X101530000Y-121535302D01*
X101479004Y-121278928D01*
X101378972Y-121037430D01*
X101344262Y-120985483D01*
X101331507Y-120961114D01*
X101311517Y-120925405D01*
X101257448Y-120834897D01*
X101243582Y-120812610D01*
X101192058Y-120733035D01*
X101190460Y-120730579D01*
X101149799Y-120668333D01*
X101127872Y-120631916D01*
X101120282Y-120616759D01*
X101117764Y-120610000D01*
X101113828Y-120593835D01*
X101108400Y-120552078D01*
X101107299Y-120523000D01*
X101108400Y-120493921D01*
X101113828Y-120452164D01*
X101117764Y-120435999D01*
X101120282Y-120429240D01*
X101127872Y-120414083D01*
X101149799Y-120377666D01*
X101190460Y-120315420D01*
X101192058Y-120312964D01*
X101243582Y-120233389D01*
X101257448Y-120211102D01*
X101311517Y-120120594D01*
X101331506Y-120084887D01*
X101344260Y-120060520D01*
X101378972Y-120008570D01*
X101479004Y-119767072D01*
X101530000Y-119510698D01*
X101530000Y-119249302D01*
X101479004Y-118992928D01*
X101378972Y-118751430D01*
X101287346Y-118614302D01*
X109290000Y-118614302D01*
X109290000Y-118875698D01*
X109340996Y-119132072D01*
X109441028Y-119373570D01*
X109586252Y-119590913D01*
X109771087Y-119775748D01*
X109988430Y-119920972D01*
X110229928Y-120021004D01*
X110294506Y-120033849D01*
X110334254Y-120044948D01*
X110350000Y-120048783D01*
X110350000Y-120394243D01*
X110351579Y-120410278D01*
X110373301Y-120630832D01*
X110373303Y-120630841D01*
X110373303Y-120630843D01*
X110413892Y-120834897D01*
X110419684Y-120864017D01*
X110486016Y-121082681D01*
X110488694Y-121091508D01*
X110542686Y-121221859D01*
X110596425Y-121354437D01*
X110637808Y-121461943D01*
X110670493Y-121552242D01*
X110697437Y-121631816D01*
X110721698Y-121707988D01*
X110746149Y-121787951D01*
X110772287Y-121874220D01*
X110773582Y-121878448D01*
X110802994Y-121973439D01*
X110805625Y-121981761D01*
X110840252Y-122089020D01*
X110843615Y-122099179D01*
X110856408Y-122136898D01*
X110864996Y-122180072D01*
X110965028Y-122421570D01*
X111110252Y-122638913D01*
X111295087Y-122823748D01*
X111512430Y-122968972D01*
X111753928Y-123069004D01*
X112010302Y-123120000D01*
X112271698Y-123120000D01*
X112528072Y-123069004D01*
X112769570Y-122968972D01*
X112986913Y-122823748D01*
X113171748Y-122638913D01*
X113316972Y-122421570D01*
X113417004Y-122180072D01*
X113468000Y-121923698D01*
X113468000Y-121662302D01*
X113417004Y-121405928D01*
X113316972Y-121164430D01*
X113171748Y-120947087D01*
X112986913Y-120762252D01*
X112769570Y-120617028D01*
X112528072Y-120516996D01*
X112449526Y-120501372D01*
X112435883Y-120497375D01*
X112378064Y-120482979D01*
X112277741Y-120462326D01*
X112244792Y-120456331D01*
X112177981Y-120445757D01*
X112171728Y-120425144D01*
X112159929Y-120365826D01*
X112154000Y-120305629D01*
X112154000Y-119731450D01*
X112140948Y-119598934D01*
X112140947Y-119598931D01*
X112135414Y-119542759D01*
X112134871Y-119537245D01*
X112134363Y-119534693D01*
X112128671Y-119478279D01*
X112128013Y-119472030D01*
X112112947Y-119334620D01*
X112111598Y-119323151D01*
X112096738Y-119204977D01*
X112094289Y-119187265D01*
X112078560Y-119082971D01*
X112074618Y-119059459D01*
X112056946Y-118963693D01*
X112051519Y-118937079D01*
X112030829Y-118844488D01*
X112024677Y-118819105D01*
X111999895Y-118724336D01*
X111994261Y-118704002D01*
X111964312Y-118601701D01*
X111960168Y-118588046D01*
X111928516Y-118487302D01*
X116148000Y-118487302D01*
X116148000Y-118748698D01*
X116198996Y-119005072D01*
X116299028Y-119246570D01*
X116333737Y-119298515D01*
X116346491Y-119322883D01*
X116366482Y-119358594D01*
X116420551Y-119449102D01*
X116434417Y-119471389D01*
X116485941Y-119550964D01*
X116487539Y-119553420D01*
X116528200Y-119615666D01*
X116550127Y-119652083D01*
X116557717Y-119667240D01*
X116560235Y-119673999D01*
X116564171Y-119690164D01*
X116569599Y-119731921D01*
X116573001Y-119821784D01*
X116573000Y-122584546D01*
X116575745Y-122612415D01*
X116590181Y-122758992D01*
X116592126Y-122778744D01*
X116592631Y-122781285D01*
X116598323Y-122837702D01*
X116598981Y-122843953D01*
X116614045Y-122981364D01*
X116615395Y-122992843D01*
X116630255Y-123111018D01*
X116632704Y-123128731D01*
X116648433Y-123233025D01*
X116652376Y-123256544D01*
X116670049Y-123352310D01*
X116675476Y-123378923D01*
X116696167Y-123471515D01*
X116702320Y-123496899D01*
X116727103Y-123591668D01*
X116732737Y-123611999D01*
X116762687Y-123714301D01*
X116766830Y-123727957D01*
X116803021Y-123843142D01*
X116805410Y-123850603D01*
X116823895Y-123907293D01*
X116833996Y-123958072D01*
X116934028Y-124199570D01*
X117079252Y-124416913D01*
X117264087Y-124601748D01*
X117481430Y-124746972D01*
X117722928Y-124847004D01*
X117979302Y-124898000D01*
X118240698Y-124898000D01*
X118497072Y-124847004D01*
X118738570Y-124746972D01*
X118955913Y-124601748D01*
X119140748Y-124416913D01*
X119285972Y-124199570D01*
X119386004Y-123958072D01*
X119437000Y-123701698D01*
X119437000Y-123440302D01*
X119386004Y-123183928D01*
X119285972Y-122942430D01*
X119140748Y-122725087D01*
X118955913Y-122540252D01*
X118738570Y-122395028D01*
X118497072Y-122294996D01*
X118432498Y-122282151D01*
X118392743Y-122271050D01*
X118377000Y-122267216D01*
X118377000Y-122138552D01*
X131102250Y-122138552D01*
X131102250Y-122399948D01*
X131153246Y-122656322D01*
X131253278Y-122897820D01*
X131398502Y-123115163D01*
X131583337Y-123299998D01*
X131800680Y-123445222D01*
X132042178Y-123545254D01*
X132298552Y-123596250D01*
X132559948Y-123596250D01*
X132816322Y-123545254D01*
X133057820Y-123445222D01*
X133275163Y-123299998D01*
X133459998Y-123115163D01*
X133605222Y-122897820D01*
X133637901Y-122818925D01*
X136123000Y-122818925D01*
X136123000Y-123031075D01*
X136164389Y-123239149D01*
X136245575Y-123435151D01*
X136363440Y-123611547D01*
X136513453Y-123761560D01*
X136608397Y-123825000D01*
X136513453Y-123888440D01*
X136363440Y-124038453D01*
X136245575Y-124214849D01*
X136164389Y-124410851D01*
X136123000Y-124618925D01*
X136123000Y-124831075D01*
X136164389Y-125039149D01*
X136245575Y-125235151D01*
X136363440Y-125411547D01*
X136513453Y-125561560D01*
X136689849Y-125679425D01*
X136885851Y-125760611D01*
X137093925Y-125802000D01*
X137306075Y-125802000D01*
X137514149Y-125760611D01*
X137710151Y-125679425D01*
X137886547Y-125561560D01*
X138036560Y-125411547D01*
X138154425Y-125235151D01*
X138235611Y-125039149D01*
X138277000Y-124831075D01*
X138277000Y-124618925D01*
X138235611Y-124410851D01*
X138154425Y-124214849D01*
X138036560Y-124038453D01*
X137886547Y-123888440D01*
X137791603Y-123825000D01*
X137886547Y-123761560D01*
X138036560Y-123611547D01*
X138154425Y-123435151D01*
X138235611Y-123239149D01*
X138277000Y-123031075D01*
X138277000Y-122818925D01*
X138235611Y-122610851D01*
X138154425Y-122414849D01*
X138036560Y-122238453D01*
X137886547Y-122088440D01*
X137710151Y-121970575D01*
X137514149Y-121889389D01*
X137306075Y-121848000D01*
X137093925Y-121848000D01*
X136885851Y-121889389D01*
X136689849Y-121970575D01*
X136513453Y-122088440D01*
X136363440Y-122238453D01*
X136245575Y-122414849D01*
X136164389Y-122610851D01*
X136123000Y-122818925D01*
X133637901Y-122818925D01*
X133705254Y-122656322D01*
X133756250Y-122399948D01*
X133756250Y-122138552D01*
X133705254Y-121882178D01*
X133644992Y-121736692D01*
X134148336Y-121233348D01*
X134239832Y-121121859D01*
X134390791Y-120937915D01*
X134417063Y-120898596D01*
X134603120Y-120620143D01*
X134603124Y-120620136D01*
X134783279Y-120283089D01*
X134783282Y-120283083D01*
X134929535Y-119929999D01*
X134929536Y-119929996D01*
X134929538Y-119929991D01*
X135040477Y-119564274D01*
X135040477Y-119564273D01*
X135040479Y-119564267D01*
X135115038Y-119189436D01*
X135115943Y-119180245D01*
X135152499Y-118809096D01*
X135152499Y-118809095D01*
X135152500Y-118809085D01*
X135152500Y-118623734D01*
X135155071Y-118518116D01*
X135160717Y-118451183D01*
X135167390Y-118409546D01*
X135173856Y-118383683D01*
X135181779Y-118360775D01*
X135195891Y-118328233D01*
X135221218Y-118277360D01*
X135259681Y-118204623D01*
X135260087Y-118203853D01*
X135307219Y-118114463D01*
X135313908Y-118101463D01*
X135324338Y-118080679D01*
X135351472Y-118040070D01*
X135451504Y-117798572D01*
X135502500Y-117542198D01*
X135502500Y-117280802D01*
X135451504Y-117024428D01*
X135372643Y-116834041D01*
X136226399Y-115980285D01*
X136237898Y-115966273D01*
X136272933Y-115930162D01*
X136283343Y-115919206D01*
X136358295Y-115838667D01*
X136373441Y-115821876D01*
X136440209Y-115745500D01*
X136458485Y-115723750D01*
X136520195Y-115647329D01*
X136538705Y-115623406D01*
X136598481Y-115542732D01*
X136614416Y-115520353D01*
X136675383Y-115431218D01*
X136687299Y-115413230D01*
X136752584Y-115311425D01*
X136760481Y-115298829D01*
X136817120Y-115206399D01*
X136875472Y-115119070D01*
X136975504Y-114877572D01*
X137026500Y-114621198D01*
X137026500Y-114359802D01*
X136975504Y-114103428D01*
X136875472Y-113861930D01*
X136730248Y-113644587D01*
X136545413Y-113459752D01*
X136328070Y-113314528D01*
X136086572Y-113214496D01*
X135830198Y-113163500D01*
X135568802Y-113163500D01*
X135312428Y-113214496D01*
X135070930Y-113314528D01*
X134853587Y-113459752D01*
X134668752Y-113644587D01*
X134523528Y-113861930D01*
X134423496Y-114103428D01*
X134372500Y-114359802D01*
X134372500Y-114621198D01*
X134423496Y-114877572D01*
X134465158Y-114978152D01*
X133713555Y-115729756D01*
X133688173Y-115755138D01*
X133657372Y-115792669D01*
X133590480Y-115865745D01*
X133570732Y-115888231D01*
X133490834Y-115983074D01*
X133468281Y-116011234D01*
X133401492Y-116099009D01*
X133378741Y-116130632D01*
X133321360Y-116215074D01*
X133301745Y-116245548D01*
X133250075Y-116330394D01*
X133236167Y-116354239D01*
X133186507Y-116443222D01*
X133179017Y-116456989D01*
X133127669Y-116553846D01*
X133125796Y-116557404D01*
X133070199Y-116663693D01*
X133035156Y-116729609D01*
X132999528Y-116782930D01*
X132899496Y-117024428D01*
X132848500Y-117280802D01*
X132848500Y-117542198D01*
X132899496Y-117798572D01*
X132999528Y-118040070D01*
X133026657Y-118080671D01*
X133037088Y-118101458D01*
X133043780Y-118114463D01*
X133090912Y-118203853D01*
X133091318Y-118204623D01*
X133129781Y-118277360D01*
X133155108Y-118328233D01*
X133169220Y-118360775D01*
X133177143Y-118383683D01*
X133183609Y-118409546D01*
X133190282Y-118451183D01*
X133195928Y-118518117D01*
X133198501Y-118623776D01*
X133198501Y-118713087D01*
X133179858Y-118902370D01*
X133142751Y-119088915D01*
X133087541Y-119270921D01*
X133014758Y-119446634D01*
X132925099Y-119614375D01*
X132819437Y-119772509D01*
X132698779Y-119919531D01*
X131945645Y-120672666D01*
X131922135Y-120696176D01*
X131900169Y-120722941D01*
X131900167Y-120722943D01*
X131891197Y-120733873D01*
X131881664Y-120744130D01*
X131798532Y-120835927D01*
X131781716Y-120855165D01*
X131710765Y-120939272D01*
X131691313Y-120963352D01*
X131629160Y-121043738D01*
X131609716Y-121070092D01*
X131552982Y-121150729D01*
X131536503Y-121175191D01*
X131481805Y-121260051D01*
X131470095Y-121278841D01*
X131414052Y-121371893D01*
X131407277Y-121383379D01*
X131346509Y-121488596D01*
X131343789Y-121493347D01*
X131299042Y-121572190D01*
X131253278Y-121640680D01*
X131153246Y-121882178D01*
X131102250Y-122138552D01*
X118377000Y-122138552D01*
X118377000Y-120348503D01*
X118497430Y-120428972D01*
X118738928Y-120529004D01*
X118995302Y-120580000D01*
X119256698Y-120580000D01*
X119513072Y-120529004D01*
X119754570Y-120428972D01*
X119806520Y-120394260D01*
X119830887Y-120381506D01*
X119866594Y-120361517D01*
X119957102Y-120307448D01*
X119979389Y-120293582D01*
X120058964Y-120242058D01*
X120061420Y-120240460D01*
X120123666Y-120199799D01*
X120160083Y-120177872D01*
X120175240Y-120170282D01*
X120181999Y-120167764D01*
X120198164Y-120163828D01*
X120239921Y-120158400D01*
X120329758Y-120155000D01*
X120462242Y-120155000D01*
X120552078Y-120158400D01*
X120593835Y-120163828D01*
X120610000Y-120167764D01*
X120616759Y-120170282D01*
X120631916Y-120177872D01*
X120668333Y-120199799D01*
X120730579Y-120240460D01*
X120733035Y-120242058D01*
X120812610Y-120293582D01*
X120834897Y-120307448D01*
X120925405Y-120361517D01*
X120961114Y-120381507D01*
X120985483Y-120394262D01*
X121037430Y-120428972D01*
X121278928Y-120529004D01*
X121535302Y-120580000D01*
X121796698Y-120580000D01*
X122053072Y-120529004D01*
X122294570Y-120428972D01*
X122349450Y-120392302D01*
X123006000Y-120392302D01*
X123006000Y-120653698D01*
X123056996Y-120910072D01*
X123157028Y-121151570D01*
X123302252Y-121368913D01*
X123487087Y-121553748D01*
X123704430Y-121698972D01*
X123945928Y-121799004D01*
X124202302Y-121850000D01*
X124463698Y-121850000D01*
X124720072Y-121799004D01*
X124961570Y-121698972D01*
X125178913Y-121553748D01*
X125363748Y-121368913D01*
X125508972Y-121151570D01*
X125609004Y-120910072D01*
X125660000Y-120653698D01*
X125660000Y-120392302D01*
X125609004Y-120135928D01*
X125508972Y-119894430D01*
X125481444Y-119853232D01*
X125471657Y-119833775D01*
X125464278Y-119819502D01*
X125417471Y-119731359D01*
X125416426Y-119729397D01*
X125377867Y-119657319D01*
X125352307Y-119606781D01*
X125338263Y-119575015D01*
X125330671Y-119553552D01*
X125324581Y-119529802D01*
X125318154Y-119490800D01*
X125312585Y-119426737D01*
X125310000Y-119323851D01*
X125310000Y-113671263D01*
X125312579Y-113574488D01*
X125317852Y-113517826D01*
X125323225Y-113487718D01*
X125326948Y-113474514D01*
X125330840Y-113464692D01*
X125340827Y-113444968D01*
X125363562Y-113406692D01*
X125402630Y-113346128D01*
X125454526Y-113267157D01*
X125459878Y-113258892D01*
X125506555Y-113185722D01*
X125572472Y-113087070D01*
X125672504Y-112845572D01*
X125723500Y-112589198D01*
X125723500Y-112327802D01*
X125672504Y-112071428D01*
X125572472Y-111829930D01*
X125427248Y-111612587D01*
X125242413Y-111427752D01*
X125025070Y-111282528D01*
X124783572Y-111182496D01*
X124527198Y-111131500D01*
X124265802Y-111131500D01*
X124009428Y-111182496D01*
X123767930Y-111282528D01*
X123550587Y-111427752D01*
X123365752Y-111612587D01*
X123220528Y-111829930D01*
X123120496Y-112071428D01*
X123069500Y-112327802D01*
X123069500Y-112589198D01*
X123120496Y-112845572D01*
X123163471Y-112949323D01*
X123194288Y-113030828D01*
X123200932Y-113047758D01*
X123240424Y-113144797D01*
X123243109Y-113151305D01*
X123277725Y-113234058D01*
X123303648Y-113298279D01*
X123320426Y-113344877D01*
X123331373Y-113382185D01*
X123339976Y-113421986D01*
X123347614Y-113476255D01*
X123353480Y-113554411D01*
X123356000Y-113669542D01*
X123356001Y-119323848D01*
X123353415Y-119426720D01*
X123347845Y-119490800D01*
X123341418Y-119529802D01*
X123335328Y-119553552D01*
X123327736Y-119575015D01*
X123313692Y-119606781D01*
X123288132Y-119657319D01*
X123249573Y-119729397D01*
X123248528Y-119731359D01*
X123201721Y-119819502D01*
X123194340Y-119833780D01*
X123184555Y-119853234D01*
X123157028Y-119894430D01*
X123056996Y-120135928D01*
X123006000Y-120392302D01*
X122349450Y-120392302D01*
X122511913Y-120283748D01*
X122696748Y-120098913D01*
X122841972Y-119881570D01*
X122942004Y-119640072D01*
X122993000Y-119383698D01*
X122993000Y-119122302D01*
X122942004Y-118865928D01*
X122841972Y-118624430D01*
X122696748Y-118407087D01*
X122511913Y-118222252D01*
X122294570Y-118077028D01*
X122053072Y-117976996D01*
X121796698Y-117926000D01*
X121535302Y-117926000D01*
X121278928Y-117976996D01*
X121037430Y-118077028D01*
X120985491Y-118111733D01*
X120961119Y-118124489D01*
X120925405Y-118144482D01*
X120834897Y-118198551D01*
X120812610Y-118212417D01*
X120733035Y-118263941D01*
X120730579Y-118265539D01*
X120668333Y-118306200D01*
X120631916Y-118328127D01*
X120616759Y-118335717D01*
X120610000Y-118338235D01*
X120593835Y-118342171D01*
X120552077Y-118347599D01*
X120462234Y-118351000D01*
X120329766Y-118351000D01*
X120239921Y-118347599D01*
X120198164Y-118342171D01*
X120181999Y-118338235D01*
X120175240Y-118335717D01*
X120160083Y-118328127D01*
X120123666Y-118306200D01*
X120061420Y-118265539D01*
X120058964Y-118263941D01*
X119979389Y-118212417D01*
X119957102Y-118198551D01*
X119866594Y-118144482D01*
X119830883Y-118124491D01*
X119806515Y-118111737D01*
X119754570Y-118077028D01*
X119513072Y-117976996D01*
X119256698Y-117926000D01*
X118995302Y-117926000D01*
X118738928Y-117976996D01*
X118659457Y-118009914D01*
X118650972Y-117989430D01*
X118505748Y-117772087D01*
X118320913Y-117587252D01*
X118103570Y-117442028D01*
X117862072Y-117341996D01*
X117605698Y-117291000D01*
X117344302Y-117291000D01*
X117087928Y-117341996D01*
X116846430Y-117442028D01*
X116629087Y-117587252D01*
X116444252Y-117772087D01*
X116299028Y-117989430D01*
X116198996Y-118230928D01*
X116148000Y-118487302D01*
X111928516Y-118487302D01*
X111923978Y-118472861D01*
X111921590Y-118465402D01*
X111903106Y-118408715D01*
X111893004Y-118357928D01*
X111792972Y-118116430D01*
X111647748Y-117899087D01*
X111462913Y-117714252D01*
X111245570Y-117569028D01*
X111004072Y-117468996D01*
X110747698Y-117418000D01*
X110486302Y-117418000D01*
X110229928Y-117468996D01*
X109988430Y-117569028D01*
X109771087Y-117714252D01*
X109586252Y-117899087D01*
X109441028Y-118116430D01*
X109340996Y-118357928D01*
X109290000Y-118614302D01*
X101287346Y-118614302D01*
X101233748Y-118534087D01*
X101048913Y-118349252D01*
X100831570Y-118204028D01*
X100590072Y-118103996D01*
X100333698Y-118053000D01*
X100072302Y-118053000D01*
X99815928Y-118103996D01*
X99574430Y-118204028D01*
X99357087Y-118349252D01*
X99172252Y-118534087D01*
X99027028Y-118751430D01*
X98926996Y-118992928D01*
X98876000Y-119249302D01*
X90922000Y-119249302D01*
X90922000Y-118104017D01*
X91055888Y-118213896D01*
X91355908Y-118374260D01*
X91681449Y-118473012D01*
X91935159Y-118498000D01*
X93104841Y-118498000D01*
X93358551Y-118473012D01*
X93552249Y-118414254D01*
X93560916Y-118442824D01*
X93674851Y-118655983D01*
X93828183Y-118842817D01*
X94015017Y-118996149D01*
X94228176Y-119110084D01*
X94459466Y-119180245D01*
X94639732Y-119198000D01*
X95760268Y-119198000D01*
X95940534Y-119180245D01*
X96171824Y-119110084D01*
X96384983Y-118996149D01*
X96571817Y-118842817D01*
X96725149Y-118655983D01*
X96839084Y-118442824D01*
X96909245Y-118211534D01*
X96932936Y-117971000D01*
X96909245Y-117730466D01*
X96839084Y-117499176D01*
X96725149Y-117286017D01*
X96571817Y-117099183D01*
X96384983Y-116945851D01*
X96171824Y-116831916D01*
X95940534Y-116761755D01*
X95760268Y-116744000D01*
X94752697Y-116744000D01*
X94722012Y-116432449D01*
X94623260Y-116106908D01*
X94462896Y-115806888D01*
X94247082Y-115543918D01*
X93984112Y-115328104D01*
X93684092Y-115167740D01*
X93358551Y-115068988D01*
X93104841Y-115044000D01*
X91935159Y-115044000D01*
X91681449Y-115068988D01*
X91355908Y-115167740D01*
X91055888Y-115328104D01*
X90922000Y-115437983D01*
X90922000Y-113456955D01*
X93375704Y-113456955D01*
X93494369Y-113761941D01*
X93837689Y-113923855D01*
X94206002Y-114015680D01*
X94585150Y-114033885D01*
X94960566Y-113977774D01*
X95134556Y-113915302D01*
X110306000Y-113915302D01*
X110306000Y-114176698D01*
X110356996Y-114433072D01*
X110457028Y-114674570D01*
X110602252Y-114891913D01*
X110787087Y-115076748D01*
X111004430Y-115221972D01*
X111245928Y-115322004D01*
X111502302Y-115373000D01*
X111763698Y-115373000D01*
X112020072Y-115322004D01*
X112261570Y-115221972D01*
X112478913Y-115076748D01*
X112663748Y-114891913D01*
X112808972Y-114674570D01*
X112909004Y-114433072D01*
X112921193Y-114371795D01*
X112929406Y-114345541D01*
X112940520Y-114306156D01*
X112966286Y-114203924D01*
X112972239Y-114178364D01*
X112992074Y-114085664D01*
X112992683Y-114082790D01*
X113007946Y-114010022D01*
X113018189Y-113968778D01*
X113023543Y-113952685D01*
X113026538Y-113946132D01*
X113035182Y-113931923D01*
X113060877Y-113898550D01*
X113122000Y-113832619D01*
X115059700Y-111894918D01*
X115155907Y-111803654D01*
X115230375Y-111740615D01*
X115296724Y-111690469D01*
X115364263Y-111644009D01*
X115439837Y-111594481D01*
X115445236Y-111590908D01*
X115524810Y-111537740D01*
X115549544Y-111520461D01*
X115628760Y-111462638D01*
X115666352Y-111433260D01*
X115747660Y-111365305D01*
X115788527Y-111328434D01*
X115874375Y-111244872D01*
X115911116Y-111206392D01*
X115961031Y-111150130D01*
X116029248Y-111081913D01*
X116174472Y-110864570D01*
X116274504Y-110623072D01*
X116325500Y-110366698D01*
X116325500Y-110105302D01*
X116274504Y-109848928D01*
X116174472Y-109607430D01*
X116029248Y-109390087D01*
X115844413Y-109205252D01*
X115627070Y-109060028D01*
X115385572Y-108959996D01*
X115129198Y-108909000D01*
X114867802Y-108909000D01*
X114611428Y-108959996D01*
X114369930Y-109060028D01*
X114152587Y-109205252D01*
X113967752Y-109390087D01*
X113822528Y-109607430D01*
X113722496Y-109848928D01*
X113671500Y-110105302D01*
X113671500Y-110366698D01*
X113722496Y-110623072D01*
X113730278Y-110641860D01*
X113736335Y-110667042D01*
X111846373Y-112557006D01*
X111780455Y-112618116D01*
X111747075Y-112643816D01*
X111732865Y-112652461D01*
X111726307Y-112655459D01*
X111710223Y-112660810D01*
X111668976Y-112671053D01*
X111596208Y-112686316D01*
X111593334Y-112686925D01*
X111500634Y-112706760D01*
X111475068Y-112712715D01*
X111372836Y-112738482D01*
X111333449Y-112749597D01*
X111307206Y-112757807D01*
X111245928Y-112769996D01*
X111004430Y-112870028D01*
X110787087Y-113015252D01*
X110602252Y-113200087D01*
X110457028Y-113417430D01*
X110356996Y-113658928D01*
X110306000Y-113915302D01*
X95134556Y-113915302D01*
X95317821Y-113849500D01*
X95481631Y-113761941D01*
X95600296Y-113456955D01*
X94488000Y-112344659D01*
X93375704Y-113456955D01*
X90922000Y-113456955D01*
X90922000Y-112197150D01*
X92554115Y-112197150D01*
X92610226Y-112572566D01*
X92738500Y-112929821D01*
X92826059Y-113093631D01*
X93131045Y-113212296D01*
X94243341Y-112100000D01*
X94732659Y-112100000D01*
X95844955Y-113212296D01*
X96149941Y-113093631D01*
X96311855Y-112750311D01*
X96403680Y-112381998D01*
X96421885Y-112002850D01*
X96365774Y-111627434D01*
X96237500Y-111270179D01*
X96149941Y-111106369D01*
X95844955Y-110987704D01*
X94732659Y-112100000D01*
X94243341Y-112100000D01*
X93131045Y-110987704D01*
X92826059Y-111106369D01*
X92664145Y-111449689D01*
X92572320Y-111818002D01*
X92554115Y-112197150D01*
X90922000Y-112197150D01*
X90922000Y-103915497D01*
X90925575Y-103933470D01*
X90934852Y-103964052D01*
X90988421Y-104140647D01*
X91006368Y-104199811D01*
X91108385Y-104446100D01*
X91112875Y-104456940D01*
X91213505Y-104645205D01*
X91244073Y-104702394D01*
X91390251Y-104921163D01*
X91398697Y-104933804D01*
X91572423Y-105145489D01*
X91575259Y-105148945D01*
X91578468Y-105152154D01*
X91731583Y-105336944D01*
X91739318Y-105346124D01*
X91923374Y-105560935D01*
X91937622Y-105577073D01*
X92101708Y-105757480D01*
X92124397Y-105781319D01*
X92276836Y-105934390D01*
X92308465Y-105964303D01*
X92457582Y-106097101D01*
X92495388Y-106128543D01*
X92649505Y-106248136D01*
X92687404Y-106275636D01*
X92854847Y-106389089D01*
X92886376Y-106409288D01*
X93075468Y-106523665D01*
X93097198Y-106536300D01*
X93316263Y-106658669D01*
X93328359Y-106665276D01*
X93496319Y-106754963D01*
X93575223Y-106807685D01*
X93677380Y-106850000D01*
X93575223Y-106892315D01*
X93259609Y-107103201D01*
X92991201Y-107371609D01*
X92780315Y-107687223D01*
X92635053Y-108037915D01*
X92561000Y-108410207D01*
X92561000Y-108789793D01*
X92635053Y-109162085D01*
X92780315Y-109512777D01*
X92991201Y-109828391D01*
X93259609Y-110096799D01*
X93575223Y-110307685D01*
X93669111Y-110346575D01*
X93658179Y-110350500D01*
X93494369Y-110438059D01*
X93375704Y-110743045D01*
X94488000Y-111855341D01*
X95600296Y-110743045D01*
X95481631Y-110438059D01*
X95296646Y-110350818D01*
X95400777Y-110307685D01*
X95716391Y-110096799D01*
X95777655Y-110035535D01*
X95820590Y-110053319D01*
X96115604Y-110112000D01*
X96416396Y-110112000D01*
X96711410Y-110053319D01*
X96989306Y-109938210D01*
X97095626Y-109867169D01*
X97107845Y-109907450D01*
X97107847Y-109907455D01*
X97107848Y-109907458D01*
X97217946Y-110173258D01*
X97230350Y-110196463D01*
X97331715Y-110386105D01*
X97353575Y-110427002D01*
X97427635Y-110537841D01*
X97502308Y-110651063D01*
X97560056Y-110741921D01*
X97603912Y-110814878D01*
X97636781Y-110873963D01*
X97662492Y-110924935D01*
X97685292Y-110975370D01*
X97708888Y-111033354D01*
X97735843Y-111105374D01*
X97767968Y-111195788D01*
X97776462Y-111220194D01*
X97783996Y-111258072D01*
X97884028Y-111499570D01*
X98029252Y-111716913D01*
X98214087Y-111901748D01*
X98431430Y-112046972D01*
X98672928Y-112147004D01*
X98929302Y-112198000D01*
X99190698Y-112198000D01*
X99447072Y-112147004D01*
X99688570Y-112046972D01*
X99905913Y-111901748D01*
X100090748Y-111716913D01*
X100235972Y-111499570D01*
X100336004Y-111258072D01*
X100387000Y-111001698D01*
X100387000Y-110740302D01*
X100336004Y-110483928D01*
X100235972Y-110242430D01*
X100090748Y-110025087D01*
X99905913Y-109840252D01*
X99688570Y-109695028D01*
X99447072Y-109594996D01*
X99387714Y-109583189D01*
X99372087Y-109578261D01*
X99340058Y-109568963D01*
X99245427Y-109543830D01*
X99232419Y-109540504D01*
X99151738Y-109520664D01*
X99098631Y-109506558D01*
X99092618Y-109504558D01*
X99086989Y-109498407D01*
X99044576Y-109440658D01*
X99031594Y-109421230D01*
X98986474Y-109336815D01*
X98949841Y-109248377D01*
X98922055Y-109156778D01*
X98903381Y-109062897D01*
X98894000Y-108967644D01*
X98894000Y-107184302D01*
X99384000Y-107184302D01*
X99384000Y-107445698D01*
X99434996Y-107702072D01*
X99535028Y-107943570D01*
X99680252Y-108160913D01*
X99865087Y-108345748D01*
X100082430Y-108490972D01*
X100323928Y-108591004D01*
X100385203Y-108603192D01*
X100411455Y-108611405D01*
X100450842Y-108622520D01*
X100553074Y-108648286D01*
X100578628Y-108654238D01*
X100671329Y-108674074D01*
X100674209Y-108674684D01*
X100746977Y-108689947D01*
X100788220Y-108700189D01*
X100804312Y-108705543D01*
X100810866Y-108708539D01*
X100825079Y-108717185D01*
X100858455Y-108742883D01*
X100924360Y-108803980D01*
X101347566Y-109227187D01*
X101433957Y-109298085D01*
X101704237Y-109519899D01*
X101704246Y-109519905D01*
X102056146Y-109755036D01*
X102087887Y-109776245D01*
X102494798Y-109993744D01*
X102494806Y-109993747D01*
X102494811Y-109993750D01*
X102921081Y-110170317D01*
X102921091Y-110170320D01*
X103362616Y-110304255D01*
X103362624Y-110304257D01*
X103815150Y-110394272D01*
X103815160Y-110394273D01*
X103815165Y-110394274D01*
X104274335Y-110439499D01*
X104274337Y-110439499D01*
X104274347Y-110439500D01*
X109268544Y-110439500D01*
X109410456Y-110442508D01*
X109521149Y-110449682D01*
X109618999Y-110459854D01*
X109715768Y-110472449D01*
X109813705Y-110485540D01*
X109831975Y-110487747D01*
X109928273Y-110498145D01*
X109966456Y-110501252D01*
X110065464Y-110506689D01*
X110116431Y-110507698D01*
X110223662Y-110506060D01*
X110277363Y-110503251D01*
X110398328Y-110492425D01*
X110446848Y-110486432D01*
X110465427Y-110483500D01*
X110493698Y-110483500D01*
X110750072Y-110432504D01*
X110991570Y-110332472D01*
X111208913Y-110187248D01*
X111393748Y-110002413D01*
X111538972Y-109785070D01*
X111639004Y-109543572D01*
X111690000Y-109287198D01*
X111690000Y-109025802D01*
X111639004Y-108769428D01*
X111538972Y-108527930D01*
X111393748Y-108310587D01*
X111208913Y-108125752D01*
X110991570Y-107980528D01*
X110750072Y-107880496D01*
X110493698Y-107829500D01*
X110232302Y-107829500D01*
X109975928Y-107880496D01*
X109734430Y-107980528D01*
X109517087Y-108125752D01*
X109332252Y-108310587D01*
X109187028Y-108527930D01*
X109155919Y-108603032D01*
X109141646Y-108631242D01*
X109139523Y-108635500D01*
X104362960Y-108635500D01*
X104080181Y-108607648D01*
X103801489Y-108552212D01*
X103529574Y-108469728D01*
X103267039Y-108360983D01*
X103016443Y-108227036D01*
X102780178Y-108069169D01*
X102560532Y-107888911D01*
X102199980Y-107528360D01*
X102138883Y-107462455D01*
X102113185Y-107429079D01*
X102104539Y-107414866D01*
X102101543Y-107408312D01*
X102096189Y-107392220D01*
X102085947Y-107350977D01*
X102070684Y-107278209D01*
X102070074Y-107275329D01*
X102050238Y-107182628D01*
X102044286Y-107157074D01*
X102018520Y-107054842D01*
X102007405Y-107015455D01*
X101999192Y-106989203D01*
X101987004Y-106927928D01*
X101886972Y-106686430D01*
X101741748Y-106469087D01*
X101556913Y-106284252D01*
X101339570Y-106139028D01*
X101098072Y-106038996D01*
X100841698Y-105988000D01*
X100580302Y-105988000D01*
X100323928Y-106038996D01*
X100082430Y-106139028D01*
X99865087Y-106284252D01*
X99680252Y-106469087D01*
X99535028Y-106686430D01*
X99434996Y-106927928D01*
X99384000Y-107184302D01*
X98894000Y-107184302D01*
X98894000Y-105131802D01*
X103278000Y-105131802D01*
X103278000Y-105393198D01*
X103328996Y-105649572D01*
X103429028Y-105891070D01*
X103574252Y-106108413D01*
X103759087Y-106293248D01*
X103976430Y-106438472D01*
X104217928Y-106538504D01*
X104474302Y-106589500D01*
X104735698Y-106589500D01*
X104992072Y-106538504D01*
X105233570Y-106438472D01*
X105450913Y-106293248D01*
X105635748Y-106108413D01*
X105780972Y-105891070D01*
X105881004Y-105649572D01*
X105932000Y-105393198D01*
X105932000Y-105131802D01*
X105881004Y-104875428D01*
X105780972Y-104633930D01*
X105750670Y-104588580D01*
X105741674Y-104570983D01*
X105730269Y-104549564D01*
X105682199Y-104462808D01*
X105678578Y-104456350D01*
X105637929Y-104384718D01*
X105611733Y-104336142D01*
X105600245Y-104311529D01*
X105597342Y-104303469D01*
X105596097Y-104298259D01*
X105593853Y-104279806D01*
X105592996Y-104235369D01*
X105596047Y-104187713D01*
X105615672Y-104089053D01*
X105649021Y-103979115D01*
X105692982Y-103872982D01*
X105747137Y-103771666D01*
X105810963Y-103676143D01*
X105883845Y-103587337D01*
X106672624Y-102798560D01*
X106764120Y-102687071D01*
X106910301Y-102508949D01*
X106910306Y-102508942D01*
X107095818Y-102231302D01*
X123260000Y-102231302D01*
X123260000Y-102492698D01*
X123310996Y-102749072D01*
X123411028Y-102990570D01*
X123440815Y-103035149D01*
X123454985Y-103062948D01*
X123467326Y-103086114D01*
X123519194Y-103179385D01*
X123526673Y-103192511D01*
X123573952Y-103273519D01*
X123610981Y-103337501D01*
X123634182Y-103380930D01*
X123648025Y-103411277D01*
X123658735Y-103440879D01*
X123670256Y-103483713D01*
X123683014Y-103551307D01*
X123696485Y-103659421D01*
X123717307Y-103870839D01*
X123717309Y-103870847D01*
X123717309Y-103870851D01*
X123781612Y-104194133D01*
X123781616Y-104194145D01*
X123781616Y-104194147D01*
X123876046Y-104505441D01*
X123877301Y-104509577D01*
X124003439Y-104814102D01*
X124003443Y-104814109D01*
X124003444Y-104814112D01*
X124158823Y-105104806D01*
X124158826Y-105104810D01*
X124158830Y-105104818D01*
X124341458Y-105378137D01*
X124341960Y-105378888D01*
X124549109Y-105631300D01*
X124551072Y-105633692D01*
X125694152Y-106776773D01*
X125794667Y-106881139D01*
X125871586Y-106967304D01*
X125937865Y-107046557D01*
X126001479Y-107125615D01*
X126002798Y-107127249D01*
X126065653Y-107204904D01*
X126079596Y-107221612D01*
X126142692Y-107294962D01*
X126169425Y-107324374D01*
X126238052Y-107395850D01*
X126274149Y-107430929D01*
X126353599Y-107502963D01*
X126392980Y-107536203D01*
X126488544Y-107611229D01*
X126525494Y-107638399D01*
X126527877Y-107640038D01*
X126535087Y-107647248D01*
X126640616Y-107717760D01*
X126627224Y-107737349D01*
X126561471Y-107832943D01*
X126560051Y-107835015D01*
X126501675Y-107920515D01*
X126496852Y-107927670D01*
X126443929Y-108007194D01*
X126435861Y-108019588D01*
X126385937Y-108098019D01*
X126375978Y-108114124D01*
X126326603Y-108196344D01*
X126316671Y-108213404D01*
X126265394Y-108304295D01*
X126256926Y-108319739D01*
X126201295Y-108424182D01*
X126194814Y-108436638D01*
X126170331Y-108484823D01*
X126141528Y-108527930D01*
X126041496Y-108769428D01*
X125990500Y-109025802D01*
X125990500Y-109287198D01*
X126041496Y-109543572D01*
X126141528Y-109785070D01*
X126286752Y-110002413D01*
X126471587Y-110187248D01*
X126688930Y-110332472D01*
X126930428Y-110432504D01*
X127186802Y-110483500D01*
X127448198Y-110483500D01*
X127704572Y-110432504D01*
X127946070Y-110332472D01*
X128163413Y-110187248D01*
X128348248Y-110002413D01*
X128493472Y-109785070D01*
X128593504Y-109543572D01*
X128644500Y-109287198D01*
X128644500Y-109025802D01*
X128593504Y-108769428D01*
X128493472Y-108527930D01*
X128457200Y-108473646D01*
X128456764Y-108472813D01*
X128433287Y-108431373D01*
X128407679Y-108389437D01*
X128983744Y-107813374D01*
X129068218Y-107710442D01*
X129068219Y-107710440D01*
X129121189Y-107645896D01*
X129121194Y-107645889D01*
X129121197Y-107645885D01*
X129241559Y-107465751D01*
X129243321Y-107462455D01*
X129343688Y-107274684D01*
X129343694Y-107274670D01*
X129343697Y-107274664D01*
X129391208Y-107159961D01*
X129394645Y-107151663D01*
X129394645Y-107151662D01*
X129426603Y-107074508D01*
X129429370Y-107065385D01*
X129463683Y-106952273D01*
X129494889Y-106855300D01*
X129518111Y-106792967D01*
X129533856Y-106757764D01*
X129541889Y-106743187D01*
X129545156Y-106738416D01*
X129551210Y-106731192D01*
X129569707Y-106712508D01*
X129607766Y-106678319D01*
X129667940Y-106627704D01*
X129697142Y-106603677D01*
X129750913Y-106567748D01*
X129935748Y-106382913D01*
X130080972Y-106165570D01*
X130181004Y-105924072D01*
X130232000Y-105667698D01*
X130232000Y-105406302D01*
X130181004Y-105149928D01*
X130114759Y-104990000D01*
X130405315Y-104990000D01*
X130437223Y-105021908D01*
X130517988Y-105088190D01*
X130577288Y-105136857D01*
X130727944Y-105237523D01*
X130727954Y-105237529D01*
X130760569Y-105254962D01*
X130760570Y-105254963D01*
X130777419Y-105263969D01*
X130887751Y-105322943D01*
X130887764Y-105322948D01*
X130887767Y-105322950D01*
X130936236Y-105343026D01*
X131020999Y-105378136D01*
X131021001Y-105378136D01*
X131055169Y-105392289D01*
X131096164Y-105404724D01*
X131228559Y-105444886D01*
X131228566Y-105444887D01*
X131228568Y-105444888D01*
X131370012Y-105473023D01*
X131406271Y-105480236D01*
X131406277Y-105480237D01*
X131406279Y-105480237D01*
X131419268Y-105481516D01*
X131443076Y-105483861D01*
X131443081Y-105483863D01*
X131549788Y-105494373D01*
X131586589Y-105497998D01*
X131586593Y-105497998D01*
X131586613Y-105498000D01*
X133166851Y-105498000D01*
X133269737Y-105500585D01*
X133333800Y-105506154D01*
X133372802Y-105512581D01*
X133396552Y-105518671D01*
X133418015Y-105526263D01*
X133449781Y-105540307D01*
X133500319Y-105565867D01*
X133572397Y-105604426D01*
X133574359Y-105605471D01*
X133662502Y-105652278D01*
X133676775Y-105659657D01*
X133696232Y-105669444D01*
X133737430Y-105696972D01*
X133978928Y-105797004D01*
X134235302Y-105848000D01*
X134496698Y-105848000D01*
X134753072Y-105797004D01*
X134994570Y-105696972D01*
X135211913Y-105551748D01*
X135396748Y-105366913D01*
X135541972Y-105149570D01*
X135642004Y-104908072D01*
X135693000Y-104651698D01*
X135693000Y-104390302D01*
X135642004Y-104133928D01*
X135541972Y-103892430D01*
X135396748Y-103675087D01*
X135211913Y-103490252D01*
X134994570Y-103345028D01*
X134753072Y-103244996D01*
X134496698Y-103194000D01*
X134235302Y-103194000D01*
X133978928Y-103244996D01*
X133737430Y-103345028D01*
X133696234Y-103372555D01*
X133676780Y-103382340D01*
X133662502Y-103389721D01*
X133574359Y-103436528D01*
X133572397Y-103437573D01*
X133500319Y-103476132D01*
X133449781Y-103501692D01*
X133418015Y-103515736D01*
X133396552Y-103523328D01*
X133372802Y-103529418D01*
X133333800Y-103535845D01*
X133269720Y-103541415D01*
X133166882Y-103544000D01*
X131722686Y-103544000D01*
X131690780Y-103512094D01*
X131689992Y-103511447D01*
X131550711Y-103397142D01*
X131550707Y-103397140D01*
X131550703Y-103397136D01*
X131400046Y-103296471D01*
X131400043Y-103296470D01*
X131400041Y-103296468D01*
X131240245Y-103211054D01*
X131106997Y-103155861D01*
X131106995Y-103155861D01*
X131072832Y-103141710D01*
X131072825Y-103141708D01*
X131072818Y-103141705D01*
X130980011Y-103113554D01*
X130934816Y-103099844D01*
X130934814Y-103099844D01*
X130932890Y-103099260D01*
X130899431Y-103089110D01*
X130863161Y-103081895D01*
X130863160Y-103081895D01*
X130839852Y-103077259D01*
X130721721Y-103053761D01*
X130721707Y-103053760D01*
X130721704Y-103053759D01*
X130664792Y-103048154D01*
X130578189Y-103039625D01*
X130541385Y-103036000D01*
X128343616Y-103036000D01*
X128185842Y-103034747D01*
X128052705Y-103031760D01*
X127933106Y-103027971D01*
X127933072Y-103027970D01*
X127823905Y-103024517D01*
X127814334Y-103024278D01*
X127713700Y-103022421D01*
X127693622Y-103022328D01*
X127596325Y-103023220D01*
X127567889Y-103024037D01*
X127468733Y-103028830D01*
X127436706Y-103031088D01*
X127330496Y-103040937D01*
X127299968Y-103044420D01*
X127181508Y-103060478D01*
X127155702Y-103064449D01*
X127140899Y-103067000D01*
X127123302Y-103067000D01*
X126886000Y-103114202D01*
X126886000Y-99755758D01*
X126889400Y-99665921D01*
X126894828Y-99624164D01*
X126898764Y-99607999D01*
X126901282Y-99601240D01*
X126908872Y-99586083D01*
X126930799Y-99549666D01*
X126971460Y-99487420D01*
X126973058Y-99484964D01*
X127024582Y-99405389D01*
X127038448Y-99383102D01*
X127092517Y-99292594D01*
X127112506Y-99256887D01*
X127125260Y-99232520D01*
X127159972Y-99180570D01*
X127260004Y-98939072D01*
X127311000Y-98682698D01*
X127311000Y-98421302D01*
X127260004Y-98164928D01*
X127159972Y-97923430D01*
X127014748Y-97706087D01*
X126829913Y-97521252D01*
X126612570Y-97376028D01*
X126371072Y-97275996D01*
X126114698Y-97225000D01*
X125853302Y-97225000D01*
X125596928Y-97275996D01*
X125355430Y-97376028D01*
X125138087Y-97521252D01*
X124953252Y-97706087D01*
X124808028Y-97923430D01*
X124707996Y-98164928D01*
X124657000Y-98421302D01*
X124657000Y-98682698D01*
X124707996Y-98939072D01*
X124808028Y-99180570D01*
X124842737Y-99232515D01*
X124855491Y-99256883D01*
X124875482Y-99292594D01*
X124929551Y-99383102D01*
X124943417Y-99405389D01*
X124994941Y-99484964D01*
X124996539Y-99487420D01*
X125037200Y-99549666D01*
X125059127Y-99586083D01*
X125066717Y-99601240D01*
X125069235Y-99607999D01*
X125073171Y-99624164D01*
X125078599Y-99665921D01*
X125082001Y-99755787D01*
X125082001Y-101130702D01*
X124974072Y-101085996D01*
X124717698Y-101035000D01*
X124456302Y-101035000D01*
X124199928Y-101085996D01*
X123958430Y-101186028D01*
X123741087Y-101331252D01*
X123556252Y-101516087D01*
X123411028Y-101733430D01*
X123310996Y-101974928D01*
X123260000Y-102231302D01*
X107095818Y-102231302D01*
X107118446Y-102197437D01*
X107132822Y-102170541D01*
X107284080Y-101887558D01*
X107295056Y-101867024D01*
X107438427Y-101520899D01*
X107438428Y-101520897D01*
X107438433Y-101520884D01*
X107547185Y-101162374D01*
X107562377Y-101085996D01*
X107620275Y-100794928D01*
X107624780Y-100749194D01*
X107656999Y-100422081D01*
X107656999Y-100422079D01*
X107657000Y-100422069D01*
X107657000Y-100143405D01*
X107674902Y-99961634D01*
X107710539Y-99782476D01*
X107763564Y-99607678D01*
X107833467Y-99438918D01*
X107919570Y-99277830D01*
X108021055Y-99125947D01*
X108136930Y-98984753D01*
X109189915Y-97931770D01*
X109264493Y-97860848D01*
X109313724Y-97819491D01*
X109345868Y-97796441D01*
X109366951Y-97783964D01*
X109387489Y-97774159D01*
X109419901Y-97761621D01*
X109473735Y-97743950D01*
X109551933Y-97720259D01*
X109554055Y-97719613D01*
X109649479Y-97690385D01*
X109664791Y-97685509D01*
X109685470Y-97678671D01*
X109734072Y-97669004D01*
X109975570Y-97568972D01*
X110192913Y-97423748D01*
X110377748Y-97238913D01*
X110522972Y-97021570D01*
X110623004Y-96780072D01*
X110674000Y-96523698D01*
X110674000Y-96262302D01*
X110623004Y-96005928D01*
X110522972Y-95764430D01*
X110377748Y-95547087D01*
X110192913Y-95362252D01*
X109975570Y-95217028D01*
X109734072Y-95116996D01*
X109477698Y-95066000D01*
X109216302Y-95066000D01*
X108959928Y-95116996D01*
X108718430Y-95217028D01*
X108501087Y-95362252D01*
X108316252Y-95547087D01*
X108171028Y-95764430D01*
X108070996Y-96005928D01*
X108061329Y-96054529D01*
X108054494Y-96075199D01*
X108049617Y-96090513D01*
X108020388Y-96185937D01*
X108019740Y-96188065D01*
X107996049Y-96266263D01*
X107978379Y-96320093D01*
X107965843Y-96352501D01*
X107956034Y-96373045D01*
X107943549Y-96394142D01*
X107920517Y-96426261D01*
X107879143Y-96475514D01*
X107808228Y-96550085D01*
X106789352Y-97568960D01*
X106687368Y-97670943D01*
X106449698Y-97960545D01*
X106449691Y-97960554D01*
X106241551Y-98272059D01*
X106241548Y-98272065D01*
X106064942Y-98602471D01*
X106064940Y-98602476D01*
X105921569Y-98948601D01*
X105912506Y-98978478D01*
X105812813Y-99307120D01*
X105812811Y-99307130D01*
X105739722Y-99674574D01*
X105738841Y-99683520D01*
X105716408Y-99911297D01*
X105703000Y-100047428D01*
X105703000Y-100326087D01*
X105685096Y-100507864D01*
X105649460Y-100687015D01*
X105596435Y-100861817D01*
X105526533Y-101030573D01*
X105440425Y-101191668D01*
X105338942Y-101343548D01*
X105223068Y-101484742D01*
X104434281Y-102273529D01*
X104434276Y-102273535D01*
X104239605Y-102510742D01*
X104239603Y-102510746D01*
X104239599Y-102510750D01*
X104069116Y-102765897D01*
X104069113Y-102765903D01*
X103924459Y-103036531D01*
X103924456Y-103036537D01*
X103924456Y-103036538D01*
X103850363Y-103215415D01*
X103807023Y-103320048D01*
X103718094Y-103613208D01*
X103717943Y-103613707D01*
X103658108Y-103914528D01*
X103658078Y-103914680D01*
X103653400Y-103962176D01*
X103639766Y-104081903D01*
X103626567Y-104168215D01*
X103613847Y-104230454D01*
X103601747Y-104275652D01*
X103588907Y-104313600D01*
X103572035Y-104355086D01*
X103547210Y-104408925D01*
X103511934Y-104480428D01*
X103467103Y-104569677D01*
X103464690Y-104574525D01*
X103453343Y-104597540D01*
X103429028Y-104633930D01*
X103328996Y-104875428D01*
X103278000Y-105131802D01*
X98894000Y-105131802D01*
X98894000Y-103407371D01*
X98893873Y-103406075D01*
X98885399Y-103320048D01*
X98879863Y-103263839D01*
X98879863Y-103263838D01*
X98871149Y-103175368D01*
X98865798Y-103121038D01*
X98811763Y-102849392D01*
X98809668Y-102838860D01*
X98726153Y-102563547D01*
X98726150Y-102563539D01*
X98616050Y-102297736D01*
X98614717Y-102295242D01*
X98480427Y-102044002D01*
X98480426Y-102044000D01*
X98480423Y-102043995D01*
X98320585Y-101804781D01*
X98309093Y-101790777D01*
X98147342Y-101593685D01*
X98138059Y-101582373D01*
X97934624Y-101378938D01*
X97925210Y-101371212D01*
X97712222Y-101196417D01*
X97712218Y-101196415D01*
X97712214Y-101196411D01*
X97473001Y-101036574D01*
X97378414Y-100986017D01*
X97315835Y-100952568D01*
X97050576Y-100808931D01*
X96830131Y-100686309D01*
X96641837Y-100578968D01*
X96473896Y-100481568D01*
X96418517Y-100449319D01*
X96418517Y-100400000D01*
X96404480Y-100257483D01*
X96362910Y-100120443D01*
X96295403Y-99994147D01*
X96204554Y-99883446D01*
X96093853Y-99792597D01*
X95967557Y-99725090D01*
X95830517Y-99683520D01*
X95688000Y-99669483D01*
X93288000Y-99669483D01*
X93145483Y-99683520D01*
X93008443Y-99725090D01*
X92882147Y-99792597D01*
X92798000Y-99861654D01*
X92798000Y-98802566D01*
X92824084Y-98537721D01*
X92876005Y-98276699D01*
X92953260Y-98022022D01*
X93055102Y-97776154D01*
X93180557Y-97541443D01*
X93328416Y-97320157D01*
X93497246Y-97114437D01*
X93537399Y-97074284D01*
X93638482Y-96980148D01*
X93705286Y-96927896D01*
X93751117Y-96899155D01*
X93787256Y-96881803D01*
X93830560Y-96866331D01*
X93897181Y-96848223D01*
X93995974Y-96825515D01*
X94118394Y-96797466D01*
X94139844Y-96792207D01*
X94184577Y-96780517D01*
X94780000Y-96780517D01*
X94922517Y-96766480D01*
X95059557Y-96724910D01*
X95185853Y-96657403D01*
X95296554Y-96566554D01*
X95387403Y-96455853D01*
X95432465Y-96371549D01*
X95517789Y-96456873D01*
X95653726Y-96320936D01*
X95723820Y-96585118D01*
X95998818Y-96706988D01*
X96292308Y-96772866D01*
X96593011Y-96780222D01*
X96889371Y-96728771D01*
X97169998Y-96620492D01*
X97236180Y-96585118D01*
X97306275Y-96320934D01*
X96480000Y-95494659D01*
X96465858Y-95508801D01*
X96221199Y-95264142D01*
X96235341Y-95250000D01*
X96724659Y-95250000D01*
X97550934Y-96076275D01*
X97815118Y-96006180D01*
X97936988Y-95731182D01*
X98002866Y-95437692D01*
X98010222Y-95136989D01*
X97958771Y-94840629D01*
X97850492Y-94560002D01*
X97815118Y-94493820D01*
X97550934Y-94423725D01*
X96724659Y-95250000D01*
X96235341Y-95250000D01*
X96221199Y-95235858D01*
X96465858Y-94991199D01*
X96480000Y-95005341D01*
X97306275Y-94179066D01*
X97236180Y-93914882D01*
X96961182Y-93793012D01*
X96667692Y-93727134D01*
X96366989Y-93719778D01*
X96070629Y-93771229D01*
X95790002Y-93879508D01*
X95723820Y-93914882D01*
X95653726Y-94179064D01*
X95517789Y-94043127D01*
X95432465Y-94128451D01*
X95387403Y-94044147D01*
X95296554Y-93933446D01*
X95185853Y-93842597D01*
X95059557Y-93775090D01*
X94922517Y-93733520D01*
X94780000Y-93719483D01*
X93180000Y-93719483D01*
X93037483Y-93733520D01*
X92900443Y-93775090D01*
X92774147Y-93842597D01*
X92663446Y-93933446D01*
X92572597Y-94044147D01*
X92505090Y-94170443D01*
X92463520Y-94307483D01*
X92449483Y-94450000D01*
X92449483Y-95045416D01*
X92437792Y-95090152D01*
X92432534Y-95111597D01*
X92404596Y-95233530D01*
X92381775Y-95332815D01*
X92363668Y-95399431D01*
X92348195Y-95442739D01*
X92330842Y-95478879D01*
X92302103Y-95524706D01*
X92249842Y-95591521D01*
X92155714Y-95692597D01*
X92047689Y-95800622D01*
X92047684Y-95800628D01*
X92047683Y-95800629D01*
X91802730Y-96099105D01*
X91757053Y-96154762D01*
X91502538Y-96535671D01*
X91502535Y-96535677D01*
X91286581Y-96939697D01*
X91286578Y-96939704D01*
X91286577Y-96939706D01*
X91146612Y-97277614D01*
X91111262Y-97362956D01*
X90978279Y-97801343D01*
X90978278Y-97801350D01*
X90978277Y-97801352D01*
X90922000Y-98084277D01*
X90922000Y-92192000D01*
X113894667Y-92192000D01*
X113894667Y-96487000D01*
G37*
G04 #@! TD.AperFunction*
G04 #@! TD*
D24*
G04 #@! TO.N,+12V*
X95069335Y-105119970D02*
X93926296Y-106146011D01*
X93676857Y-106012815D01*
X93458140Y-105890641D01*
X93269495Y-105776534D01*
X93102655Y-105663490D01*
X92949206Y-105544416D01*
X92800704Y-105412165D01*
X92648718Y-105259549D01*
X92484962Y-105079505D01*
X92301102Y-104864922D01*
X92096954Y-104618542D01*
X92464716Y-104316728D01*
X92603369Y-104454787D01*
X92606044Y-104456822D01*
X92749701Y-104538648D01*
X92751975Y-104539663D01*
X92753622Y-104540091D01*
X92895894Y-104567052D01*
X92898374Y-104567273D01*
X92899887Y-104567169D01*
X93042522Y-104548737D01*
X93045359Y-104548031D01*
X93190107Y-104493676D01*
X93191709Y-104492944D01*
X93340321Y-104412139D01*
X93341055Y-104411708D01*
X93495279Y-104313923D01*
X93495412Y-104313837D01*
X93656806Y-104208668D01*
X93826936Y-104105682D01*
X93999718Y-104018230D01*
X95069335Y-105119970D01*
G04 #@! TA.AperFunction,Conductor*
D23*
G36*
X95069335Y-105119970D02*
G01*
X93926296Y-106146011D01*
X93676857Y-106012815D01*
X93458140Y-105890641D01*
X93269495Y-105776534D01*
X93102655Y-105663490D01*
X92949206Y-105544416D01*
X92800704Y-105412165D01*
X92648718Y-105259549D01*
X92484962Y-105079505D01*
X92301102Y-104864922D01*
X92096954Y-104618542D01*
X92464716Y-104316728D01*
X92603369Y-104454787D01*
X92606044Y-104456822D01*
X92749701Y-104538648D01*
X92751975Y-104539663D01*
X92753622Y-104540091D01*
X92895894Y-104567052D01*
X92898374Y-104567273D01*
X92899887Y-104567169D01*
X93042522Y-104548737D01*
X93045359Y-104548031D01*
X93190107Y-104493676D01*
X93191709Y-104492944D01*
X93340321Y-104412139D01*
X93341055Y-104411708D01*
X93495279Y-104313923D01*
X93495412Y-104313837D01*
X93656806Y-104208668D01*
X93826936Y-104105682D01*
X93999718Y-104018230D01*
X95069335Y-105119970D01*
G37*
G04 #@! TD.AperFunction*
G04 #@! TD*
D24*
G04 #@! TO.N,+12V*
X94230018Y-95996329D02*
X94087622Y-96041314D01*
X93953008Y-96076493D01*
X93830774Y-96104499D01*
X93830765Y-96104501D01*
X93717475Y-96130541D01*
X93716989Y-96130663D01*
X93609261Y-96159945D01*
X93608319Y-96160240D01*
X93502585Y-96198016D01*
X93501361Y-96198527D01*
X93394051Y-96250051D01*
X93392801Y-96250741D01*
X93280346Y-96321263D01*
X93279269Y-96322019D01*
X93158101Y-96416793D01*
X93157270Y-96417502D01*
X93032790Y-96533428D01*
X92696569Y-96197207D01*
X92812494Y-96072726D01*
X92813203Y-96071895D01*
X92907977Y-95950727D01*
X92908733Y-95949650D01*
X92979256Y-95837196D01*
X92979946Y-95835946D01*
X93031470Y-95728635D01*
X93031981Y-95727411D01*
X93069758Y-95621677D01*
X93070053Y-95620735D01*
X93099335Y-95513007D01*
X93099457Y-95512521D01*
X93125497Y-95399231D01*
X93125499Y-95399222D01*
X93153506Y-95276988D01*
X93188685Y-95142374D01*
X93233671Y-94999979D01*
X94249887Y-94980114D01*
X94230018Y-95996329D01*
G04 #@! TA.AperFunction,Conductor*
D23*
G36*
X94230018Y-95996329D02*
G01*
X94087622Y-96041314D01*
X93953008Y-96076493D01*
X93830774Y-96104499D01*
X93830765Y-96104501D01*
X93717475Y-96130541D01*
X93716989Y-96130663D01*
X93609261Y-96159945D01*
X93608319Y-96160240D01*
X93502585Y-96198016D01*
X93501361Y-96198527D01*
X93394051Y-96250051D01*
X93392801Y-96250741D01*
X93280346Y-96321263D01*
X93279269Y-96322019D01*
X93158101Y-96416793D01*
X93157270Y-96417502D01*
X93032790Y-96533428D01*
X92696569Y-96197207D01*
X92812494Y-96072726D01*
X92813203Y-96071895D01*
X92907977Y-95950727D01*
X92908733Y-95949650D01*
X92979256Y-95837196D01*
X92979946Y-95835946D01*
X93031470Y-95728635D01*
X93031981Y-95727411D01*
X93069758Y-95621677D01*
X93070053Y-95620735D01*
X93099335Y-95513007D01*
X93099457Y-95512521D01*
X93125497Y-95399231D01*
X93125499Y-95399222D01*
X93153506Y-95276988D01*
X93188685Y-95142374D01*
X93233671Y-94999979D01*
X94249887Y-94980114D01*
X94230018Y-95996329D01*
G37*
G04 #@! TD.AperFunction*
G04 #@! TD*
D24*
G04 #@! TO.N,+12V*
X96773202Y-104995477D02*
X96105291Y-105761628D01*
X95961029Y-105702087D01*
X95830834Y-105640179D01*
X95716107Y-105580512D01*
X95610149Y-105524358D01*
X95609829Y-105524195D01*
X95506305Y-105473031D01*
X95505559Y-105472692D01*
X95397846Y-105427848D01*
X95396767Y-105427455D01*
X95278240Y-105390262D01*
X95277018Y-105389944D01*
X95141056Y-105361731D01*
X95139888Y-105361545D01*
X94979865Y-105343642D01*
X94978870Y-105343570D01*
X94800448Y-105337710D01*
X94800448Y-104862243D01*
X94966520Y-104856164D01*
X94967651Y-104856072D01*
X95117111Y-104837136D01*
X95118480Y-104836886D01*
X95245008Y-104806508D01*
X95246482Y-104806058D01*
X95355991Y-104765207D01*
X95357338Y-104764614D01*
X95455742Y-104714255D01*
X95456740Y-104713685D01*
X95549954Y-104654787D01*
X95550506Y-104654418D01*
X95644443Y-104587948D01*
X95644572Y-104587855D01*
X95745033Y-104514861D01*
X95857824Y-104436382D01*
X95981515Y-104358005D01*
X96773202Y-104995477D01*
G04 #@! TA.AperFunction,Conductor*
D23*
G36*
X96773202Y-104995477D02*
G01*
X96105291Y-105761628D01*
X95961029Y-105702087D01*
X95830834Y-105640179D01*
X95716107Y-105580512D01*
X95610149Y-105524358D01*
X95609829Y-105524195D01*
X95506305Y-105473031D01*
X95505559Y-105472692D01*
X95397846Y-105427848D01*
X95396767Y-105427455D01*
X95278240Y-105390262D01*
X95277018Y-105389944D01*
X95141056Y-105361731D01*
X95139888Y-105361545D01*
X94979865Y-105343642D01*
X94978870Y-105343570D01*
X94800448Y-105337710D01*
X94800448Y-104862243D01*
X94966520Y-104856164D01*
X94967651Y-104856072D01*
X95117111Y-104837136D01*
X95118480Y-104836886D01*
X95245008Y-104806508D01*
X95246482Y-104806058D01*
X95355991Y-104765207D01*
X95357338Y-104764614D01*
X95455742Y-104714255D01*
X95456740Y-104713685D01*
X95549954Y-104654787D01*
X95550506Y-104654418D01*
X95644443Y-104587948D01*
X95644572Y-104587855D01*
X95745033Y-104514861D01*
X95857824Y-104436382D01*
X95981515Y-104358005D01*
X96773202Y-104995477D01*
G37*
G04 #@! TD.AperFunction*
G04 #@! TD*
D24*
G04 #@! TO.N,+12V*
X95655622Y-104830159D02*
X95657024Y-104831179D01*
X95686459Y-104849663D01*
X95687241Y-104850116D01*
X95731934Y-104873931D01*
X95732748Y-104874329D01*
X95789584Y-104899588D01*
X95790585Y-104899982D01*
X95856446Y-104922798D01*
X95857760Y-104923176D01*
X95929532Y-104939663D01*
X95931310Y-104939940D01*
X96005874Y-104946212D01*
X96008271Y-104946187D01*
X96082513Y-104938357D01*
X96085532Y-104937658D01*
X96156334Y-104911840D01*
X96159553Y-104910106D01*
X96214999Y-104868947D01*
X96550770Y-105204744D01*
X96456936Y-105280028D01*
X96343065Y-105338190D01*
X96223812Y-105375229D01*
X96104054Y-105395059D01*
X95988789Y-105401624D01*
X95882993Y-105398919D01*
X95791686Y-105390973D01*
X95719720Y-105381819D01*
X95672250Y-105375544D01*
X95670082Y-105375444D01*
X95653498Y-105376102D01*
X93966623Y-105100000D01*
X95649024Y-104824630D01*
X95655622Y-104830159D01*
G04 #@! TA.AperFunction,Conductor*
D23*
G36*
X95655622Y-104830159D02*
G01*
X95657024Y-104831179D01*
X95686459Y-104849663D01*
X95687241Y-104850116D01*
X95731934Y-104873931D01*
X95732748Y-104874329D01*
X95789584Y-104899588D01*
X95790585Y-104899982D01*
X95856446Y-104922798D01*
X95857760Y-104923176D01*
X95929532Y-104939663D01*
X95931310Y-104939940D01*
X96005874Y-104946212D01*
X96008271Y-104946187D01*
X96082513Y-104938357D01*
X96085532Y-104937658D01*
X96156334Y-104911840D01*
X96159553Y-104910106D01*
X96214999Y-104868947D01*
X96550770Y-105204744D01*
X96456936Y-105280028D01*
X96343065Y-105338190D01*
X96223812Y-105375229D01*
X96104054Y-105395059D01*
X95988789Y-105401624D01*
X95882993Y-105398919D01*
X95791686Y-105390973D01*
X95719720Y-105381819D01*
X95672250Y-105375544D01*
X95670082Y-105375444D01*
X95653498Y-105376102D01*
X93966623Y-105100000D01*
X95649024Y-104824630D01*
X95655622Y-104830159D01*
G37*
G04 #@! TD.AperFunction*
G04 #@! TD*
D24*
G04 #@! TO.N,+3V3*
X111177578Y-118569726D02*
X111218290Y-118694582D01*
X111254450Y-118809672D01*
X111284299Y-118911632D01*
X111308985Y-119006032D01*
X111329570Y-119098155D01*
X111347162Y-119193484D01*
X111362835Y-119297410D01*
X111377669Y-119415380D01*
X111392708Y-119552540D01*
X111407776Y-119701871D01*
X111083754Y-119733788D01*
X111066505Y-119640043D01*
X111065740Y-119637462D01*
X111032014Y-119556419D01*
X111030369Y-119553573D01*
X110983758Y-119492756D01*
X110981413Y-119490408D01*
X110923397Y-119445859D01*
X110921107Y-119444458D01*
X110853165Y-119412215D01*
X110851511Y-119411568D01*
X110775122Y-119387673D01*
X110774225Y-119387428D01*
X110690869Y-119367920D01*
X110690642Y-119367869D01*
X110601946Y-119348821D01*
X110509694Y-119326355D01*
X110423561Y-119299170D01*
X110421094Y-118542607D01*
X111177578Y-118569726D01*
G04 #@! TA.AperFunction,Conductor*
D23*
G36*
X111177578Y-118569726D02*
G01*
X111218290Y-118694582D01*
X111254450Y-118809672D01*
X111284299Y-118911632D01*
X111308985Y-119006032D01*
X111329570Y-119098155D01*
X111347162Y-119193484D01*
X111362835Y-119297410D01*
X111377669Y-119415380D01*
X111392708Y-119552540D01*
X111407776Y-119701871D01*
X111083754Y-119733788D01*
X111066505Y-119640043D01*
X111065740Y-119637462D01*
X111032014Y-119556419D01*
X111030369Y-119553573D01*
X110983758Y-119492756D01*
X110981413Y-119490408D01*
X110923397Y-119445859D01*
X110921107Y-119444458D01*
X110853165Y-119412215D01*
X110851511Y-119411568D01*
X110775122Y-119387673D01*
X110774225Y-119387428D01*
X110690869Y-119367920D01*
X110690642Y-119367869D01*
X110601946Y-119348821D01*
X110509694Y-119326355D01*
X110423561Y-119299170D01*
X110421094Y-118542607D01*
X111177578Y-118569726D01*
G37*
G04 #@! TD.AperFunction*
G04 #@! TD*
D24*
G04 #@! TO.N,+3V3*
X127800587Y-103763850D02*
X127909686Y-103767301D01*
X128032580Y-103771194D01*
X128032697Y-103771197D01*
X128174515Y-103774379D01*
X128174699Y-103774382D01*
X128328038Y-103775600D01*
X128328038Y-104250900D01*
X128244302Y-104254950D01*
X128242821Y-104255109D01*
X128161117Y-104268777D01*
X128159327Y-104269212D01*
X128089804Y-104291552D01*
X128087855Y-104292362D01*
X128028576Y-104323017D01*
X128026742Y-104324174D01*
X127975767Y-104362783D01*
X127974298Y-104364086D01*
X127929692Y-104410292D01*
X127928678Y-104411482D01*
X127888502Y-104464925D01*
X127887882Y-104465827D01*
X127850199Y-104526149D01*
X127849868Y-104526711D01*
X127812740Y-104593552D01*
X127812609Y-104593793D01*
X127778216Y-104658990D01*
X127027507Y-104561461D01*
X127154275Y-103815298D01*
X127281107Y-103793442D01*
X127399060Y-103777453D01*
X127504738Y-103767653D01*
X127603362Y-103762886D01*
X127700205Y-103761998D01*
X127800587Y-103763850D01*
G04 #@! TA.AperFunction,Conductor*
D23*
G36*
X127800587Y-103763850D02*
G01*
X127909686Y-103767301D01*
X128032580Y-103771194D01*
X128032697Y-103771197D01*
X128174515Y-103774379D01*
X128174699Y-103774382D01*
X128328038Y-103775600D01*
X128328038Y-104250900D01*
X128244302Y-104254950D01*
X128242821Y-104255109D01*
X128161117Y-104268777D01*
X128159327Y-104269212D01*
X128089804Y-104291552D01*
X128087855Y-104292362D01*
X128028576Y-104323017D01*
X128026742Y-104324174D01*
X127975767Y-104362783D01*
X127974298Y-104364086D01*
X127929692Y-104410292D01*
X127928678Y-104411482D01*
X127888502Y-104464925D01*
X127887882Y-104465827D01*
X127850199Y-104526149D01*
X127849868Y-104526711D01*
X127812740Y-104593552D01*
X127812609Y-104593793D01*
X127778216Y-104658990D01*
X127027507Y-104561461D01*
X127154275Y-103815298D01*
X127281107Y-103793442D01*
X127399060Y-103777453D01*
X127504738Y-103767653D01*
X127603362Y-103762886D01*
X127700205Y-103761998D01*
X127800587Y-103763850D01*
G37*
G04 #@! TD.AperFunction*
G04 #@! TD*
D24*
G04 #@! TO.N,+3V3*
X132973044Y-121363726D02*
X132919414Y-121425187D01*
X132918171Y-121426874D01*
X132876535Y-121494434D01*
X132875432Y-121496702D01*
X132851240Y-121562285D01*
X132850580Y-121564906D01*
X132841484Y-121629375D01*
X132841379Y-121631870D01*
X132845029Y-121696091D01*
X132845297Y-121698059D01*
X132859345Y-121762894D01*
X132859708Y-121764220D01*
X132881805Y-121830533D01*
X132882082Y-121831284D01*
X132909878Y-121899941D01*
X132909997Y-121900225D01*
X132941144Y-121972088D01*
X132969751Y-122039657D01*
X132411142Y-122550345D01*
X131922597Y-121972111D01*
X131987053Y-121858542D01*
X132047787Y-121753384D01*
X132103630Y-121660664D01*
X132158103Y-121576153D01*
X132214527Y-121495957D01*
X132276332Y-121416021D01*
X132346956Y-121332302D01*
X132429856Y-121240760D01*
X132528329Y-121137531D01*
X132636917Y-121027599D01*
X132973044Y-121363726D01*
G04 #@! TA.AperFunction,Conductor*
D23*
G36*
X132973044Y-121363726D02*
G01*
X132919414Y-121425187D01*
X132918171Y-121426874D01*
X132876535Y-121494434D01*
X132875432Y-121496702D01*
X132851240Y-121562285D01*
X132850580Y-121564906D01*
X132841484Y-121629375D01*
X132841379Y-121631870D01*
X132845029Y-121696091D01*
X132845297Y-121698059D01*
X132859345Y-121762894D01*
X132859708Y-121764220D01*
X132881805Y-121830533D01*
X132882082Y-121831284D01*
X132909878Y-121899941D01*
X132909997Y-121900225D01*
X132941144Y-121972088D01*
X132969751Y-122039657D01*
X132411142Y-122550345D01*
X131922597Y-121972111D01*
X131987053Y-121858542D01*
X132047787Y-121753384D01*
X132103630Y-121660664D01*
X132158103Y-121576153D01*
X132214527Y-121495957D01*
X132276332Y-121416021D01*
X132346956Y-121332302D01*
X132429856Y-121240760D01*
X132528329Y-121137531D01*
X132636917Y-121027599D01*
X132973044Y-121363726D01*
G37*
G04 #@! TD.AperFunction*
G04 #@! TD*
D24*
G04 #@! TO.N,+3V3*
X134676898Y-116485000D02*
X134623117Y-116547582D01*
X134621759Y-116549495D01*
X134581983Y-116618184D01*
X134580851Y-116620761D01*
X134560012Y-116687472D01*
X134559466Y-116690363D01*
X134554827Y-116755940D01*
X134554909Y-116758536D01*
X134563728Y-116823824D01*
X134564139Y-116825737D01*
X134583677Y-116891581D01*
X134584098Y-116892778D01*
X134611616Y-116960021D01*
X134611882Y-116960626D01*
X134644639Y-117030115D01*
X134644704Y-117030249D01*
X134679890Y-117102680D01*
X134711087Y-117170845D01*
X134163202Y-117692908D01*
X133662774Y-117124840D01*
X133724468Y-117008793D01*
X133724507Y-117008717D01*
X133781209Y-116900316D01*
X133781210Y-116900316D01*
X133832502Y-116803564D01*
X133881967Y-116714931D01*
X133933354Y-116630549D01*
X133990360Y-116546660D01*
X134056753Y-116459405D01*
X134136278Y-116365005D01*
X134232674Y-116259698D01*
X134340764Y-116148866D01*
X134676898Y-116485000D01*
G04 #@! TA.AperFunction,Conductor*
D23*
G36*
X134676898Y-116485000D02*
G01*
X134623117Y-116547582D01*
X134621759Y-116549495D01*
X134581983Y-116618184D01*
X134580851Y-116620761D01*
X134560012Y-116687472D01*
X134559466Y-116690363D01*
X134554827Y-116755940D01*
X134554909Y-116758536D01*
X134563728Y-116823824D01*
X134564139Y-116825737D01*
X134583677Y-116891581D01*
X134584098Y-116892778D01*
X134611616Y-116960021D01*
X134611882Y-116960626D01*
X134644639Y-117030115D01*
X134644704Y-117030249D01*
X134679890Y-117102680D01*
X134711087Y-117170845D01*
X134163202Y-117692908D01*
X133662774Y-117124840D01*
X133724468Y-117008793D01*
X133724507Y-117008717D01*
X133781209Y-116900316D01*
X133781210Y-116900316D01*
X133832502Y-116803564D01*
X133881967Y-116714931D01*
X133933354Y-116630549D01*
X133990360Y-116546660D01*
X134056753Y-116459405D01*
X134136278Y-116365005D01*
X134232674Y-116259698D01*
X134340764Y-116148866D01*
X134676898Y-116485000D01*
G37*
G04 #@! TD.AperFunction*
G04 #@! TD*
D24*
G04 #@! TO.N,+3V3*
X136197847Y-114801262D02*
X136129844Y-114912236D01*
X136064733Y-115013770D01*
X136004001Y-115102562D01*
X135944537Y-115182815D01*
X135883148Y-115258838D01*
X135816658Y-115334896D01*
X135741930Y-115415194D01*
X135655825Y-115503944D01*
X135555210Y-115605354D01*
X135445935Y-115714653D01*
X135109823Y-115378541D01*
X135164163Y-115317294D01*
X135165277Y-115315839D01*
X135209411Y-115248670D01*
X135210464Y-115246713D01*
X135238444Y-115181640D01*
X135239190Y-115179307D01*
X135253011Y-115115399D01*
X135253294Y-115113045D01*
X135254950Y-115049371D01*
X135254844Y-115047376D01*
X135246329Y-114983003D01*
X135246051Y-114981554D01*
X135229360Y-114915553D01*
X135229095Y-114914648D01*
X135206221Y-114846087D01*
X135206063Y-114845641D01*
X135179001Y-114773589D01*
X135178974Y-114773516D01*
X135152899Y-114705357D01*
X135725247Y-114210001D01*
X136197847Y-114801262D01*
G04 #@! TA.AperFunction,Conductor*
D23*
G36*
X136197847Y-114801262D02*
G01*
X136129844Y-114912236D01*
X136064733Y-115013770D01*
X136004001Y-115102562D01*
X135944537Y-115182815D01*
X135883148Y-115258838D01*
X135816658Y-115334896D01*
X135741930Y-115415194D01*
X135655825Y-115503944D01*
X135555210Y-115605354D01*
X135445935Y-115714653D01*
X135109823Y-115378541D01*
X135164163Y-115317294D01*
X135165277Y-115315839D01*
X135209411Y-115248670D01*
X135210464Y-115246713D01*
X135238444Y-115181640D01*
X135239190Y-115179307D01*
X135253011Y-115115399D01*
X135253294Y-115113045D01*
X135254950Y-115049371D01*
X135254844Y-115047376D01*
X135246329Y-114983003D01*
X135246051Y-114981554D01*
X135229360Y-114915553D01*
X135229095Y-114914648D01*
X135206221Y-114846087D01*
X135206063Y-114845641D01*
X135179001Y-114773589D01*
X135178974Y-114773516D01*
X135152899Y-114705357D01*
X135725247Y-114210001D01*
X136197847Y-114801262D01*
G37*
G04 #@! TD.AperFunction*
G04 #@! TD*
D24*
G04 #@! TO.N,+3V3*
X111581785Y-120927182D02*
X111582924Y-120929048D01*
X111642748Y-121010369D01*
X111644528Y-121012324D01*
X111709894Y-121070582D01*
X111712111Y-121072166D01*
X111783102Y-121112158D01*
X111785184Y-121113095D01*
X111861879Y-121139622D01*
X111863342Y-121140032D01*
X111945823Y-121157892D01*
X111946525Y-121158024D01*
X112034871Y-121172015D01*
X112034872Y-121172015D01*
X112128881Y-121186893D01*
X112228397Y-121207380D01*
X112325389Y-121235797D01*
X112340176Y-121992176D01*
X111583393Y-121977381D01*
X111544159Y-121861704D01*
X111509571Y-121754568D01*
X111480186Y-121659663D01*
X111453717Y-121572301D01*
X111453708Y-121572269D01*
X111427841Y-121487679D01*
X111427797Y-121487539D01*
X111400262Y-121401085D01*
X111400190Y-121400866D01*
X111368690Y-121307837D01*
X111368603Y-121307587D01*
X111330845Y-121203274D01*
X111330755Y-121203035D01*
X111284444Y-121082726D01*
X111284362Y-121082517D01*
X111231939Y-120953184D01*
X111532704Y-120828606D01*
X111581785Y-120927182D01*
G04 #@! TA.AperFunction,Conductor*
D23*
G36*
X111581785Y-120927182D02*
G01*
X111582924Y-120929048D01*
X111642748Y-121010369D01*
X111644528Y-121012324D01*
X111709894Y-121070582D01*
X111712111Y-121072166D01*
X111783102Y-121112158D01*
X111785184Y-121113095D01*
X111861879Y-121139622D01*
X111863342Y-121140032D01*
X111945823Y-121157892D01*
X111946525Y-121158024D01*
X112034871Y-121172015D01*
X112034872Y-121172015D01*
X112128881Y-121186893D01*
X112228397Y-121207380D01*
X112325389Y-121235797D01*
X112340176Y-121992176D01*
X111583393Y-121977381D01*
X111544159Y-121861704D01*
X111509571Y-121754568D01*
X111480186Y-121659663D01*
X111453717Y-121572301D01*
X111453708Y-121572269D01*
X111427841Y-121487679D01*
X111427797Y-121487539D01*
X111400262Y-121401085D01*
X111400190Y-121400866D01*
X111368690Y-121307837D01*
X111368603Y-121307587D01*
X111330845Y-121203274D01*
X111330755Y-121203035D01*
X111284444Y-121082726D01*
X111284362Y-121082517D01*
X111231939Y-120953184D01*
X111532704Y-120828606D01*
X111581785Y-120927182D01*
G37*
G04 #@! TD.AperFunction*
G04 #@! TD*
D24*
G04 #@! TO.N,+3V3*
X112580573Y-113328621D02*
X112495815Y-113420046D01*
X112495065Y-113420932D01*
X112424752Y-113512254D01*
X112423965Y-113513401D01*
X112372311Y-113598308D01*
X112371610Y-113599629D01*
X112334516Y-113680780D01*
X112334016Y-113682051D01*
X112307385Y-113762104D01*
X112307110Y-113763052D01*
X112286842Y-113844663D01*
X112286738Y-113845117D01*
X112268736Y-113930944D01*
X112248961Y-114023367D01*
X112223338Y-114125030D01*
X112190379Y-114230385D01*
X111433825Y-114245176D01*
X111448614Y-113488622D01*
X111553968Y-113455662D01*
X111655632Y-113430038D01*
X111748054Y-113410263D01*
X111833881Y-113392261D01*
X111834335Y-113392157D01*
X111915946Y-113371889D01*
X111916894Y-113371614D01*
X111996946Y-113344982D01*
X111998217Y-113344482D01*
X112079369Y-113307388D01*
X112080690Y-113306687D01*
X112165597Y-113255033D01*
X112166744Y-113254246D01*
X112258066Y-113183933D01*
X112258952Y-113183184D01*
X112350379Y-113098427D01*
X112580573Y-113328621D01*
G04 #@! TA.AperFunction,Conductor*
D23*
G36*
X112580573Y-113328621D02*
G01*
X112495815Y-113420046D01*
X112495065Y-113420932D01*
X112424752Y-113512254D01*
X112423965Y-113513401D01*
X112372311Y-113598308D01*
X112371610Y-113599629D01*
X112334516Y-113680780D01*
X112334016Y-113682051D01*
X112307385Y-113762104D01*
X112307110Y-113763052D01*
X112286842Y-113844663D01*
X112286738Y-113845117D01*
X112268736Y-113930944D01*
X112248961Y-114023367D01*
X112223338Y-114125030D01*
X112190379Y-114230385D01*
X111433825Y-114245176D01*
X111448614Y-113488622D01*
X111553968Y-113455662D01*
X111655632Y-113430038D01*
X111748054Y-113410263D01*
X111833881Y-113392261D01*
X111834335Y-113392157D01*
X111915946Y-113371889D01*
X111916894Y-113371614D01*
X111996946Y-113344982D01*
X111998217Y-113344482D01*
X112079369Y-113307388D01*
X112080690Y-113306687D01*
X112165597Y-113255033D01*
X112166744Y-113254246D01*
X112258066Y-113183933D01*
X112258952Y-113183184D01*
X112350379Y-113098427D01*
X112580573Y-113328621D01*
G37*
G04 #@! TD.AperFunction*
G04 #@! TD*
D24*
G04 #@! TO.N,+3V3*
X115444551Y-110617695D02*
X115358104Y-110715135D01*
X115272928Y-110798043D01*
X115192314Y-110865418D01*
X115113647Y-110922840D01*
X115034289Y-110975864D01*
X114952004Y-111029790D01*
X114951767Y-111029949D01*
X114864130Y-111090235D01*
X114863671Y-111090566D01*
X114768330Y-111162623D01*
X114767781Y-111163062D01*
X114662284Y-111252369D01*
X114661750Y-111252848D01*
X114552625Y-111356367D01*
X114322409Y-111126151D01*
X114385635Y-111055981D01*
X114386646Y-111054703D01*
X114438067Y-110980345D01*
X114439084Y-110978590D01*
X114473030Y-110907421D01*
X114473824Y-110905278D01*
X114492696Y-110835721D01*
X114493089Y-110833524D01*
X114499289Y-110764002D01*
X114499318Y-110762147D01*
X114495245Y-110691081D01*
X114495105Y-110689789D01*
X114483161Y-110615604D01*
X114483023Y-110614885D01*
X114465609Y-110536001D01*
X114465556Y-110535769D01*
X114445091Y-110450684D01*
X114425950Y-110366512D01*
X115065973Y-109962524D01*
X115444551Y-110617695D01*
G04 #@! TA.AperFunction,Conductor*
D23*
G36*
X115444551Y-110617695D02*
G01*
X115358104Y-110715135D01*
X115272928Y-110798043D01*
X115192314Y-110865418D01*
X115113647Y-110922840D01*
X115034289Y-110975864D01*
X114952004Y-111029790D01*
X114951767Y-111029949D01*
X114864130Y-111090235D01*
X114863671Y-111090566D01*
X114768330Y-111162623D01*
X114767781Y-111163062D01*
X114662284Y-111252369D01*
X114661750Y-111252848D01*
X114552625Y-111356367D01*
X114322409Y-111126151D01*
X114385635Y-111055981D01*
X114386646Y-111054703D01*
X114438067Y-110980345D01*
X114439084Y-110978590D01*
X114473030Y-110907421D01*
X114473824Y-110905278D01*
X114492696Y-110835721D01*
X114493089Y-110833524D01*
X114499289Y-110764002D01*
X114499318Y-110762147D01*
X114495245Y-110691081D01*
X114495105Y-110689789D01*
X114483161Y-110615604D01*
X114483023Y-110614885D01*
X114465609Y-110536001D01*
X114465556Y-110535769D01*
X114445091Y-110450684D01*
X114425950Y-110366512D01*
X115065973Y-109962524D01*
X115444551Y-110617695D01*
G37*
G04 #@! TD.AperFunction*
G04 #@! TD*
D24*
G04 #@! TO.N,+3V3*
X134647678Y-104521000D02*
X134102143Y-105045615D01*
X134009328Y-104998927D01*
X133921283Y-104952172D01*
X133841888Y-104909699D01*
X133841629Y-104909564D01*
X133766770Y-104871704D01*
X133766174Y-104871422D01*
X133691746Y-104838515D01*
X133690845Y-104838157D01*
X133612707Y-104810518D01*
X133611627Y-104810189D01*
X133525638Y-104788139D01*
X133524548Y-104787910D01*
X133426567Y-104771766D01*
X133425602Y-104771645D01*
X133311488Y-104761725D01*
X133310707Y-104761681D01*
X133188700Y-104758615D01*
X133188700Y-104283385D01*
X133310707Y-104280318D01*
X133311488Y-104280274D01*
X133425602Y-104270354D01*
X133426567Y-104270233D01*
X133524548Y-104254089D01*
X133525638Y-104253860D01*
X133611627Y-104231810D01*
X133612707Y-104231481D01*
X133690845Y-104203842D01*
X133691746Y-104203484D01*
X133766174Y-104170577D01*
X133766770Y-104170295D01*
X133841629Y-104132435D01*
X133841888Y-104132300D01*
X133921283Y-104089827D01*
X134009292Y-104043091D01*
X134102144Y-103996385D01*
X134647678Y-104521000D01*
G04 #@! TA.AperFunction,Conductor*
D23*
G36*
X134647678Y-104521000D02*
G01*
X134102143Y-105045615D01*
X134009328Y-104998927D01*
X133921283Y-104952172D01*
X133841888Y-104909699D01*
X133841629Y-104909564D01*
X133766770Y-104871704D01*
X133766174Y-104871422D01*
X133691746Y-104838515D01*
X133690845Y-104838157D01*
X133612707Y-104810518D01*
X133611627Y-104810189D01*
X133525638Y-104788139D01*
X133524548Y-104787910D01*
X133426567Y-104771766D01*
X133425602Y-104771645D01*
X133311488Y-104761725D01*
X133310707Y-104761681D01*
X133188700Y-104758615D01*
X133188700Y-104283385D01*
X133310707Y-104280318D01*
X133311488Y-104280274D01*
X133425602Y-104270354D01*
X133426567Y-104270233D01*
X133524548Y-104254089D01*
X133525638Y-104253860D01*
X133611627Y-104231810D01*
X133612707Y-104231481D01*
X133690845Y-104203842D01*
X133691746Y-104203484D01*
X133766174Y-104170577D01*
X133766770Y-104170295D01*
X133841629Y-104132435D01*
X133841888Y-104132300D01*
X133921283Y-104089827D01*
X134009292Y-104043091D01*
X134102144Y-103996385D01*
X134647678Y-104521000D01*
G37*
G04 #@! TD.AperFunction*
G04 #@! TD*
D24*
G04 #@! TO.N,+3V3*
X124890618Y-112775866D02*
X124836305Y-112861007D01*
X124782712Y-112942561D01*
X124782653Y-112942652D01*
X124734703Y-113016984D01*
X124734456Y-113017382D01*
X124692365Y-113088246D01*
X124691954Y-113088995D01*
X124655887Y-113160220D01*
X124655410Y-113161279D01*
X124625531Y-113236696D01*
X124625115Y-113237928D01*
X124601589Y-113321368D01*
X124601310Y-113322583D01*
X124584302Y-113417876D01*
X124584159Y-113418930D01*
X124573833Y-113529906D01*
X124573783Y-113530745D01*
X124570634Y-113648874D01*
X124095425Y-113648874D01*
X124092581Y-113518942D01*
X124092548Y-113518269D01*
X124083473Y-113397364D01*
X124083385Y-113396545D01*
X124068752Y-113292578D01*
X124068589Y-113291665D01*
X124048803Y-113200127D01*
X124048576Y-113199234D01*
X124024041Y-113115616D01*
X124023804Y-113114890D01*
X123994924Y-113034681D01*
X123994752Y-113034229D01*
X123961931Y-112952919D01*
X123961870Y-112952772D01*
X123925534Y-112865907D01*
X123886130Y-112769084D01*
X123847142Y-112665969D01*
X124425995Y-112178372D01*
X124890618Y-112775866D01*
G04 #@! TA.AperFunction,Conductor*
D23*
G36*
X124890618Y-112775866D02*
G01*
X124836305Y-112861007D01*
X124782712Y-112942561D01*
X124782653Y-112942652D01*
X124734703Y-113016984D01*
X124734456Y-113017382D01*
X124692365Y-113088246D01*
X124691954Y-113088995D01*
X124655887Y-113160220D01*
X124655410Y-113161279D01*
X124625531Y-113236696D01*
X124625115Y-113237928D01*
X124601589Y-113321368D01*
X124601310Y-113322583D01*
X124584302Y-113417876D01*
X124584159Y-113418930D01*
X124573833Y-113529906D01*
X124573783Y-113530745D01*
X124570634Y-113648874D01*
X124095425Y-113648874D01*
X124092581Y-113518942D01*
X124092548Y-113518269D01*
X124083473Y-113397364D01*
X124083385Y-113396545D01*
X124068752Y-113292578D01*
X124068589Y-113291665D01*
X124048803Y-113200127D01*
X124048576Y-113199234D01*
X124024041Y-113115616D01*
X124023804Y-113114890D01*
X123994924Y-113034681D01*
X123994752Y-113034229D01*
X123961931Y-112952919D01*
X123961870Y-112952772D01*
X123925534Y-112865907D01*
X123886130Y-112769084D01*
X123847142Y-112665969D01*
X124425995Y-112178372D01*
X124890618Y-112775866D01*
G37*
G04 #@! TD.AperFunction*
G04 #@! TD*
D24*
G04 #@! TO.N,+3V3*
X124573681Y-119467707D02*
X124573725Y-119468488D01*
X124583645Y-119582602D01*
X124583766Y-119583567D01*
X124599910Y-119681548D01*
X124600139Y-119682638D01*
X124622189Y-119768627D01*
X124622518Y-119769707D01*
X124650157Y-119847845D01*
X124650515Y-119848746D01*
X124683422Y-119923174D01*
X124683704Y-119923770D01*
X124721564Y-119998629D01*
X124721699Y-119998888D01*
X124764172Y-120078283D01*
X124810927Y-120166328D01*
X124857615Y-120259143D01*
X124333000Y-120804678D01*
X123808385Y-120259144D01*
X123855091Y-120166292D01*
X123901808Y-120078318D01*
X123944300Y-119998888D01*
X123944435Y-119998629D01*
X123982295Y-119923770D01*
X123982577Y-119923174D01*
X124015484Y-119848746D01*
X124015842Y-119847845D01*
X124043481Y-119769707D01*
X124043810Y-119768627D01*
X124065860Y-119682638D01*
X124066089Y-119681548D01*
X124082233Y-119583567D01*
X124082354Y-119582602D01*
X124092274Y-119468488D01*
X124092318Y-119467707D01*
X124095385Y-119345700D01*
X124570615Y-119345700D01*
X124573681Y-119467707D01*
G04 #@! TA.AperFunction,Conductor*
D23*
G36*
X124573681Y-119467707D02*
G01*
X124573725Y-119468488D01*
X124583645Y-119582602D01*
X124583766Y-119583567D01*
X124599910Y-119681548D01*
X124600139Y-119682638D01*
X124622189Y-119768627D01*
X124622518Y-119769707D01*
X124650157Y-119847845D01*
X124650515Y-119848746D01*
X124683422Y-119923174D01*
X124683704Y-119923770D01*
X124721564Y-119998629D01*
X124721699Y-119998888D01*
X124764172Y-120078283D01*
X124810927Y-120166328D01*
X124857615Y-120259143D01*
X124333000Y-120804678D01*
X123808385Y-120259144D01*
X123855091Y-120166292D01*
X123901808Y-120078318D01*
X123944300Y-119998888D01*
X123944435Y-119998629D01*
X123982295Y-119923770D01*
X123982577Y-119923174D01*
X124015484Y-119848746D01*
X124015842Y-119847845D01*
X124043481Y-119769707D01*
X124043810Y-119768627D01*
X124065860Y-119682638D01*
X124066089Y-119681548D01*
X124082233Y-119583567D01*
X124082354Y-119582602D01*
X124092274Y-119468488D01*
X124092318Y-119467707D01*
X124095385Y-119345700D01*
X124570615Y-119345700D01*
X124573681Y-119467707D01*
G37*
G04 #@! TD.AperFunction*
G04 #@! TD*
D24*
G04 #@! TO.N,+3V3*
X134700121Y-117675363D02*
X134652837Y-117769587D01*
X134605776Y-117858842D01*
X134563152Y-117939448D01*
X134563010Y-117939725D01*
X134525172Y-118015727D01*
X134524889Y-118016334D01*
X134492113Y-118091914D01*
X134491762Y-118092816D01*
X134464324Y-118172155D01*
X134464006Y-118173225D01*
X134442184Y-118260504D01*
X134441965Y-118261575D01*
X134426035Y-118360976D01*
X134425920Y-118361918D01*
X134416160Y-118477620D01*
X134416119Y-118478379D01*
X134413106Y-118602175D01*
X133937894Y-118602175D01*
X133934880Y-118478379D01*
X133934839Y-118477620D01*
X133925079Y-118361918D01*
X133924964Y-118360976D01*
X133909034Y-118261575D01*
X133908815Y-118260504D01*
X133886993Y-118173225D01*
X133886675Y-118172155D01*
X133859237Y-118092816D01*
X133858886Y-118091914D01*
X133826110Y-118016334D01*
X133825827Y-118015727D01*
X133787989Y-117939725D01*
X133787847Y-117939448D01*
X133745223Y-117858842D01*
X133698162Y-117769587D01*
X133650879Y-117675363D01*
X134175500Y-117129822D01*
X134700121Y-117675363D01*
G04 #@! TA.AperFunction,Conductor*
D23*
G36*
X134700121Y-117675363D02*
G01*
X134652837Y-117769587D01*
X134605776Y-117858842D01*
X134563152Y-117939448D01*
X134563010Y-117939725D01*
X134525172Y-118015727D01*
X134524889Y-118016334D01*
X134492113Y-118091914D01*
X134491762Y-118092816D01*
X134464324Y-118172155D01*
X134464006Y-118173225D01*
X134442184Y-118260504D01*
X134441965Y-118261575D01*
X134426035Y-118360976D01*
X134425920Y-118361918D01*
X134416160Y-118477620D01*
X134416119Y-118478379D01*
X134413106Y-118602175D01*
X133937894Y-118602175D01*
X133934880Y-118478379D01*
X133934839Y-118477620D01*
X133925079Y-118361918D01*
X133924964Y-118360976D01*
X133909034Y-118261575D01*
X133908815Y-118260504D01*
X133886993Y-118173225D01*
X133886675Y-118172155D01*
X133859237Y-118092816D01*
X133858886Y-118091914D01*
X133826110Y-118016334D01*
X133825827Y-118015727D01*
X133787989Y-117939725D01*
X133787847Y-117939448D01*
X133745223Y-117858842D01*
X133698162Y-117769587D01*
X133650879Y-117675363D01*
X134175500Y-117129822D01*
X134700121Y-117675363D01*
G37*
G04 #@! TD.AperFunction*
G04 #@! TD*
D24*
G04 #@! TO.N,+5V*
X95247152Y-100650570D02*
X95451811Y-100755649D01*
X95629613Y-100850969D01*
X95790564Y-100940790D01*
X95944829Y-101029454D01*
X96102289Y-101121149D01*
X96102308Y-101121160D01*
X96273062Y-101220192D01*
X96273144Y-101220239D01*
X96467158Y-101330841D01*
X96467274Y-101330907D01*
X96694576Y-101457343D01*
X96694703Y-101457412D01*
X96954212Y-101597935D01*
X96729961Y-102017480D01*
X96514585Y-101925211D01*
X96511900Y-101924398D01*
X96316283Y-101888109D01*
X96312863Y-101887944D01*
X96140756Y-101902968D01*
X96137485Y-101903697D01*
X95981933Y-101960777D01*
X95979649Y-101961886D01*
X95833694Y-102051765D01*
X95832472Y-102052620D01*
X95689158Y-102166043D01*
X95688730Y-102166397D01*
X95541185Y-102294033D01*
X95382692Y-102426433D01*
X95206492Y-102554273D01*
X95013034Y-102664272D01*
X93906322Y-101600000D01*
X95013445Y-100535333D01*
X95247152Y-100650570D01*
G04 #@! TA.AperFunction,Conductor*
D23*
G36*
X95247152Y-100650570D02*
G01*
X95451811Y-100755649D01*
X95629613Y-100850969D01*
X95790564Y-100940790D01*
X95944829Y-101029454D01*
X96102289Y-101121149D01*
X96102308Y-101121160D01*
X96273062Y-101220192D01*
X96273144Y-101220239D01*
X96467158Y-101330841D01*
X96467274Y-101330907D01*
X96694576Y-101457343D01*
X96694703Y-101457412D01*
X96954212Y-101597935D01*
X96729961Y-102017480D01*
X96514585Y-101925211D01*
X96511900Y-101924398D01*
X96316283Y-101888109D01*
X96312863Y-101887944D01*
X96140756Y-101902968D01*
X96137485Y-101903697D01*
X95981933Y-101960777D01*
X95979649Y-101961886D01*
X95833694Y-102051765D01*
X95832472Y-102052620D01*
X95689158Y-102166043D01*
X95688730Y-102166397D01*
X95541185Y-102294033D01*
X95382692Y-102426433D01*
X95206492Y-102554273D01*
X95013034Y-102664272D01*
X93906322Y-101600000D01*
X95013445Y-100535333D01*
X95247152Y-100650570D01*
G37*
G04 #@! TD.AperFunction*
G04 #@! TD*
D24*
G04 #@! TO.N,+5V*
X98513998Y-109967844D02*
X98514865Y-109968900D01*
X98587488Y-110048256D01*
X98588679Y-110049399D01*
X98660181Y-110109579D01*
X98661635Y-110110636D01*
X98733438Y-110155450D01*
X98734928Y-110156247D01*
X98808453Y-110189505D01*
X98809677Y-110189984D01*
X98886346Y-110215496D01*
X98887096Y-110215720D01*
X98968331Y-110237296D01*
X98968558Y-110237355D01*
X99055715Y-110258788D01*
X99149897Y-110283802D01*
X99244385Y-110313598D01*
X99259176Y-111070176D01*
X98502318Y-111055380D01*
X98465802Y-110950454D01*
X98465775Y-110950376D01*
X98430820Y-110851996D01*
X98430747Y-110851796D01*
X98398036Y-110764399D01*
X98397905Y-110764064D01*
X98365216Y-110683734D01*
X98365025Y-110683289D01*
X98330136Y-110606113D01*
X98329903Y-110605625D01*
X98290591Y-110527689D01*
X98290350Y-110527235D01*
X98244393Y-110444623D01*
X98244180Y-110444254D01*
X98189357Y-110353053D01*
X98189190Y-110352784D01*
X98123277Y-110249080D01*
X98123161Y-110248900D01*
X98050888Y-110139317D01*
X98446025Y-109875295D01*
X98513998Y-109967844D01*
G04 #@! TA.AperFunction,Conductor*
D23*
G36*
X98513998Y-109967844D02*
G01*
X98514865Y-109968900D01*
X98587488Y-110048256D01*
X98588679Y-110049399D01*
X98660181Y-110109579D01*
X98661635Y-110110636D01*
X98733438Y-110155450D01*
X98734928Y-110156247D01*
X98808453Y-110189505D01*
X98809677Y-110189984D01*
X98886346Y-110215496D01*
X98887096Y-110215720D01*
X98968331Y-110237296D01*
X98968558Y-110237355D01*
X99055715Y-110258788D01*
X99149897Y-110283802D01*
X99244385Y-110313598D01*
X99259176Y-111070176D01*
X98502318Y-111055380D01*
X98465802Y-110950454D01*
X98465775Y-110950376D01*
X98430820Y-110851996D01*
X98430747Y-110851796D01*
X98398036Y-110764399D01*
X98397905Y-110764064D01*
X98365216Y-110683734D01*
X98365025Y-110683289D01*
X98330136Y-110606113D01*
X98329903Y-110605625D01*
X98290591Y-110527689D01*
X98290350Y-110527235D01*
X98244393Y-110444623D01*
X98244180Y-110444254D01*
X98189357Y-110353053D01*
X98189190Y-110352784D01*
X98123277Y-110249080D01*
X98123161Y-110248900D01*
X98050888Y-110139317D01*
X98446025Y-109875295D01*
X98513998Y-109967844D01*
G37*
G04 #@! TD.AperFunction*
G04 #@! TD*
D24*
G04 #@! TO.N,Net-(J1-Pad3)*
X96647611Y-108577884D02*
X95928250Y-109295951D01*
X95792084Y-109228466D01*
X95668791Y-109159556D01*
X95559751Y-109094203D01*
X95458709Y-109033631D01*
X95458293Y-109033393D01*
X95359066Y-108978891D01*
X95358215Y-108978464D01*
X95254449Y-108931215D01*
X95253258Y-108930743D01*
X95138598Y-108891931D01*
X95137270Y-108891561D01*
X95005363Y-108862372D01*
X95004110Y-108862160D01*
X94848602Y-108843778D01*
X94847548Y-108843698D01*
X94674349Y-108837731D01*
X94674349Y-108362260D01*
X94844926Y-108356248D01*
X94846009Y-108356164D01*
X94999275Y-108337570D01*
X95000570Y-108337344D01*
X95130475Y-108307707D01*
X95131856Y-108307308D01*
X95244603Y-108267735D01*
X95245851Y-108267221D01*
X95347642Y-108218818D01*
X95348546Y-108218343D01*
X95445586Y-108162218D01*
X95446051Y-108161935D01*
X95544542Y-108099193D01*
X95544588Y-108099164D01*
X95650577Y-108031013D01*
X95770191Y-107958593D01*
X95901974Y-107887133D01*
X96647611Y-108577884D01*
G04 #@! TA.AperFunction,Conductor*
D23*
G36*
X96647611Y-108577884D02*
G01*
X95928250Y-109295951D01*
X95792084Y-109228466D01*
X95668791Y-109159556D01*
X95559751Y-109094203D01*
X95458709Y-109033631D01*
X95458293Y-109033393D01*
X95359066Y-108978891D01*
X95358215Y-108978464D01*
X95254449Y-108931215D01*
X95253258Y-108930743D01*
X95138598Y-108891931D01*
X95137270Y-108891561D01*
X95005363Y-108862372D01*
X95004110Y-108862160D01*
X94848602Y-108843778D01*
X94847548Y-108843698D01*
X94674349Y-108837731D01*
X94674349Y-108362260D01*
X94844926Y-108356248D01*
X94846009Y-108356164D01*
X94999275Y-108337570D01*
X95000570Y-108337344D01*
X95130475Y-108307707D01*
X95131856Y-108307308D01*
X95244603Y-108267735D01*
X95245851Y-108267221D01*
X95347642Y-108218818D01*
X95348546Y-108218343D01*
X95445586Y-108162218D01*
X95446051Y-108161935D01*
X95544542Y-108099193D01*
X95544588Y-108099164D01*
X95650577Y-108031013D01*
X95770191Y-107958593D01*
X95901974Y-107887133D01*
X96647611Y-108577884D01*
G37*
G04 #@! TD.AperFunction*
G04 #@! TD*
D24*
G04 #@! TO.N,Net-(J1-Pad3)*
X95659874Y-108358118D02*
X95660443Y-108358552D01*
X95682530Y-108374453D01*
X95683065Y-108374817D01*
X95716889Y-108396641D01*
X95717561Y-108397047D01*
X95760741Y-108421265D01*
X95761644Y-108421725D01*
X95811801Y-108444809D01*
X95813061Y-108445309D01*
X95867814Y-108463731D01*
X95869619Y-108464194D01*
X95926590Y-108474425D01*
X95929168Y-108474621D01*
X95985977Y-108473133D01*
X95989387Y-108472573D01*
X96043653Y-108455838D01*
X96045948Y-108454875D01*
X96047328Y-108454010D01*
X96087907Y-108424808D01*
X96423637Y-108760658D01*
X96346361Y-108821289D01*
X96249987Y-108866572D01*
X96148573Y-108892418D01*
X96046398Y-108902520D01*
X95947816Y-108900630D01*
X95857301Y-108890566D01*
X95779240Y-108876188D01*
X95718034Y-108861382D01*
X95677923Y-108850008D01*
X95677836Y-108849984D01*
X95663269Y-108845964D01*
X95661722Y-108845639D01*
X93976070Y-108600000D01*
X95656222Y-108355163D01*
X95659874Y-108358118D01*
G04 #@! TA.AperFunction,Conductor*
D23*
G36*
X95659874Y-108358118D02*
G01*
X95660443Y-108358552D01*
X95682530Y-108374453D01*
X95683065Y-108374817D01*
X95716889Y-108396641D01*
X95717561Y-108397047D01*
X95760741Y-108421265D01*
X95761644Y-108421725D01*
X95811801Y-108444809D01*
X95813061Y-108445309D01*
X95867814Y-108463731D01*
X95869619Y-108464194D01*
X95926590Y-108474425D01*
X95929168Y-108474621D01*
X95985977Y-108473133D01*
X95989387Y-108472573D01*
X96043653Y-108455838D01*
X96045948Y-108454875D01*
X96047328Y-108454010D01*
X96087907Y-108424808D01*
X96423637Y-108760658D01*
X96346361Y-108821289D01*
X96249987Y-108866572D01*
X96148573Y-108892418D01*
X96046398Y-108902520D01*
X95947816Y-108900630D01*
X95857301Y-108890566D01*
X95779240Y-108876188D01*
X95718034Y-108861382D01*
X95677923Y-108850008D01*
X95677836Y-108849984D01*
X95663269Y-108845964D01*
X95661722Y-108845639D01*
X93976070Y-108600000D01*
X95656222Y-108355163D01*
X95659874Y-108358118D01*
G37*
G04 #@! TD.AperFunction*
G04 #@! TD*
D24*
G04 #@! TO.N,/GPIO0*
X117660492Y-122675956D02*
X117661257Y-122678537D01*
X117694982Y-122759580D01*
X117696627Y-122762426D01*
X117743237Y-122823243D01*
X117745582Y-122825591D01*
X117803598Y-122870141D01*
X117805888Y-122871542D01*
X117873830Y-122903784D01*
X117875484Y-122904431D01*
X117951874Y-122928326D01*
X117952771Y-122928571D01*
X118036129Y-122948079D01*
X118036356Y-122948130D01*
X118125052Y-122967178D01*
X118217300Y-122989643D01*
X118303439Y-123016831D01*
X118305906Y-123773393D01*
X117549422Y-123746274D01*
X117508698Y-123621383D01*
X117472547Y-123506326D01*
X117442697Y-123404365D01*
X117418010Y-123309964D01*
X117397424Y-123217841D01*
X117379831Y-123122512D01*
X117364157Y-123018581D01*
X117349324Y-122900623D01*
X117334287Y-122763454D01*
X117319222Y-122614123D01*
X117643245Y-122582212D01*
X117660492Y-122675956D01*
G04 #@! TA.AperFunction,Conductor*
D23*
G36*
X117660492Y-122675956D02*
G01*
X117661257Y-122678537D01*
X117694982Y-122759580D01*
X117696627Y-122762426D01*
X117743237Y-122823243D01*
X117745582Y-122825591D01*
X117803598Y-122870141D01*
X117805888Y-122871542D01*
X117873830Y-122903784D01*
X117875484Y-122904431D01*
X117951874Y-122928326D01*
X117952771Y-122928571D01*
X118036129Y-122948079D01*
X118036356Y-122948130D01*
X118125052Y-122967178D01*
X118217300Y-122989643D01*
X118303439Y-123016831D01*
X118305906Y-123773393D01*
X117549422Y-123746274D01*
X117508698Y-123621383D01*
X117472547Y-123506326D01*
X117442697Y-123404365D01*
X117418010Y-123309964D01*
X117397424Y-123217841D01*
X117379831Y-123122512D01*
X117364157Y-123018581D01*
X117349324Y-122900623D01*
X117334287Y-122763454D01*
X117319222Y-122614123D01*
X117643245Y-122582212D01*
X117660492Y-122675956D01*
G37*
G04 #@! TD.AperFunction*
G04 #@! TD*
D24*
G04 #@! TO.N,/GPIO0*
X127666972Y-108102248D02*
X127618145Y-108188899D01*
X127617164Y-108191107D01*
X127588020Y-108278276D01*
X127587417Y-108281159D01*
X127580209Y-108360857D01*
X127580298Y-108363890D01*
X127591500Y-108438384D01*
X127592127Y-108440845D01*
X127618214Y-108512401D01*
X127618916Y-108513983D01*
X127656361Y-108584870D01*
X127656820Y-108585666D01*
X127702098Y-108658151D01*
X127702218Y-108658340D01*
X127751702Y-108734534D01*
X127801765Y-108816519D01*
X127844896Y-108898827D01*
X127314293Y-109438159D01*
X126795877Y-108886636D01*
X126854218Y-108771814D01*
X126909716Y-108667620D01*
X126960826Y-108577026D01*
X127010028Y-108495093D01*
X127059810Y-108416886D01*
X127112652Y-108337483D01*
X127170919Y-108252144D01*
X127237197Y-108155787D01*
X127237217Y-108155757D01*
X127313849Y-108043661D01*
X127313897Y-108043591D01*
X127396265Y-107921365D01*
X127666972Y-108102248D01*
G04 #@! TA.AperFunction,Conductor*
D23*
G36*
X127666972Y-108102248D02*
G01*
X127618145Y-108188899D01*
X127617164Y-108191107D01*
X127588020Y-108278276D01*
X127587417Y-108281159D01*
X127580209Y-108360857D01*
X127580298Y-108363890D01*
X127591500Y-108438384D01*
X127592127Y-108440845D01*
X127618214Y-108512401D01*
X127618916Y-108513983D01*
X127656361Y-108584870D01*
X127656820Y-108585666D01*
X127702098Y-108658151D01*
X127702218Y-108658340D01*
X127751702Y-108734534D01*
X127801765Y-108816519D01*
X127844896Y-108898827D01*
X127314293Y-109438159D01*
X126795877Y-108886636D01*
X126854218Y-108771814D01*
X126909716Y-108667620D01*
X126960826Y-108577026D01*
X127010028Y-108495093D01*
X127059810Y-108416886D01*
X127112652Y-108337483D01*
X127170919Y-108252144D01*
X127237197Y-108155787D01*
X127237217Y-108155757D01*
X127313849Y-108043661D01*
X127313897Y-108043591D01*
X127396265Y-107921365D01*
X127666972Y-108102248D01*
G37*
G04 #@! TD.AperFunction*
G04 #@! TD*
D24*
G04 #@! TO.N,/GPIO0*
X117999508Y-118881745D02*
X117948319Y-118979542D01*
X117894545Y-119069557D01*
X117843177Y-119148890D01*
X117795218Y-119222309D01*
X117794971Y-119222703D01*
X117751595Y-119294742D01*
X117751119Y-119295607D01*
X117713344Y-119371044D01*
X117712799Y-119372296D01*
X117681646Y-119455908D01*
X117681208Y-119457337D01*
X117657694Y-119553901D01*
X117657439Y-119555269D01*
X117642584Y-119669563D01*
X117642487Y-119670720D01*
X117637772Y-119795300D01*
X117312228Y-119795300D01*
X117307512Y-119670720D01*
X117307415Y-119669563D01*
X117292560Y-119555269D01*
X117292305Y-119553901D01*
X117268791Y-119457337D01*
X117268353Y-119455908D01*
X117237200Y-119372296D01*
X117236655Y-119371044D01*
X117198880Y-119295607D01*
X117198404Y-119294742D01*
X117155028Y-119222703D01*
X117154781Y-119222309D01*
X117106822Y-119148890D01*
X117055454Y-119069557D01*
X117001680Y-118979542D01*
X116950492Y-118881745D01*
X117475000Y-118336322D01*
X117999508Y-118881745D01*
G04 #@! TA.AperFunction,Conductor*
D23*
G36*
X117999508Y-118881745D02*
G01*
X117948319Y-118979542D01*
X117894545Y-119069557D01*
X117843177Y-119148890D01*
X117795218Y-119222309D01*
X117794971Y-119222703D01*
X117751595Y-119294742D01*
X117751119Y-119295607D01*
X117713344Y-119371044D01*
X117712799Y-119372296D01*
X117681646Y-119455908D01*
X117681208Y-119457337D01*
X117657694Y-119553901D01*
X117657439Y-119555269D01*
X117642584Y-119669563D01*
X117642487Y-119670720D01*
X117637772Y-119795300D01*
X117312228Y-119795300D01*
X117307512Y-119670720D01*
X117307415Y-119669563D01*
X117292560Y-119555269D01*
X117292305Y-119553901D01*
X117268791Y-119457337D01*
X117268353Y-119455908D01*
X117237200Y-119372296D01*
X117236655Y-119371044D01*
X117198880Y-119295607D01*
X117198404Y-119294742D01*
X117155028Y-119222703D01*
X117154781Y-119222309D01*
X117106822Y-119148890D01*
X117055454Y-119069557D01*
X117001680Y-118979542D01*
X116950492Y-118881745D01*
X117475000Y-118336322D01*
X117999508Y-118881745D01*
G37*
G04 #@! TD.AperFunction*
G04 #@! TD*
D24*
G04 #@! TO.N,/GPIO0*
X126508508Y-98815745D02*
X126457319Y-98913542D01*
X126403545Y-99003557D01*
X126352177Y-99082890D01*
X126304218Y-99156309D01*
X126303971Y-99156703D01*
X126260595Y-99228742D01*
X126260119Y-99229607D01*
X126222344Y-99305044D01*
X126221799Y-99306296D01*
X126190646Y-99389908D01*
X126190208Y-99391337D01*
X126166694Y-99487901D01*
X126166439Y-99489269D01*
X126151584Y-99603563D01*
X126151487Y-99604720D01*
X126146772Y-99729300D01*
X125821228Y-99729300D01*
X125816512Y-99604720D01*
X125816415Y-99603563D01*
X125801560Y-99489269D01*
X125801305Y-99487901D01*
X125777791Y-99391337D01*
X125777353Y-99389908D01*
X125746200Y-99306296D01*
X125745655Y-99305044D01*
X125707880Y-99229607D01*
X125707404Y-99228742D01*
X125664028Y-99156703D01*
X125663781Y-99156309D01*
X125615822Y-99082890D01*
X125564454Y-99003557D01*
X125510680Y-98913542D01*
X125459492Y-98815745D01*
X125984000Y-98270322D01*
X126508508Y-98815745D01*
G04 #@! TA.AperFunction,Conductor*
D23*
G36*
X126508508Y-98815745D02*
G01*
X126457319Y-98913542D01*
X126403545Y-99003557D01*
X126352177Y-99082890D01*
X126304218Y-99156309D01*
X126303971Y-99156703D01*
X126260595Y-99228742D01*
X126260119Y-99229607D01*
X126222344Y-99305044D01*
X126221799Y-99306296D01*
X126190646Y-99389908D01*
X126190208Y-99391337D01*
X126166694Y-99487901D01*
X126166439Y-99489269D01*
X126151584Y-99603563D01*
X126151487Y-99604720D01*
X126146772Y-99729300D01*
X125821228Y-99729300D01*
X125816512Y-99604720D01*
X125816415Y-99603563D01*
X125801560Y-99489269D01*
X125801305Y-99487901D01*
X125777791Y-99391337D01*
X125777353Y-99389908D01*
X125746200Y-99306296D01*
X125745655Y-99305044D01*
X125707880Y-99229607D01*
X125707404Y-99228742D01*
X125664028Y-99156703D01*
X125663781Y-99156309D01*
X125615822Y-99082890D01*
X125564454Y-99003557D01*
X125510680Y-98913542D01*
X125459492Y-98815745D01*
X125984000Y-98270322D01*
X126508508Y-98815745D01*
G37*
G04 #@! TD.AperFunction*
G04 #@! TD*
D24*
G04 #@! TO.N,/GPIO0*
X129186678Y-105537000D02*
X128641244Y-106061518D01*
X128541497Y-106009506D01*
X128449740Y-105955280D01*
X128368658Y-105903668D01*
X128368657Y-105903669D01*
X128293648Y-105855750D01*
X128293235Y-105855497D01*
X128219582Y-105812305D01*
X128218711Y-105811838D01*
X128141600Y-105774346D01*
X128140360Y-105773823D01*
X128054963Y-105742990D01*
X128053563Y-105742574D01*
X127955047Y-105719361D01*
X127953717Y-105719121D01*
X127837254Y-105704489D01*
X127836135Y-105704398D01*
X127709130Y-105699755D01*
X127709130Y-105374245D01*
X127836135Y-105369601D01*
X127837254Y-105369510D01*
X127953717Y-105354878D01*
X127955047Y-105354638D01*
X128053563Y-105331425D01*
X128054963Y-105331009D01*
X128140360Y-105300176D01*
X128141600Y-105299653D01*
X128218711Y-105262161D01*
X128219582Y-105261694D01*
X128293235Y-105218502D01*
X128293648Y-105218249D01*
X128368657Y-105170330D01*
X128368658Y-105170331D01*
X128449740Y-105118719D01*
X128541497Y-105064493D01*
X128641244Y-105012482D01*
X129186678Y-105537000D01*
G04 #@! TA.AperFunction,Conductor*
D23*
G36*
X129186678Y-105537000D02*
G01*
X128641244Y-106061518D01*
X128541497Y-106009506D01*
X128449740Y-105955280D01*
X128368658Y-105903668D01*
X128368657Y-105903669D01*
X128293648Y-105855750D01*
X128293235Y-105855497D01*
X128219582Y-105812305D01*
X128218711Y-105811838D01*
X128141600Y-105774346D01*
X128140360Y-105773823D01*
X128054963Y-105742990D01*
X128053563Y-105742574D01*
X127955047Y-105719361D01*
X127953717Y-105719121D01*
X127837254Y-105704489D01*
X127836135Y-105704398D01*
X127709130Y-105699755D01*
X127709130Y-105374245D01*
X127836135Y-105369601D01*
X127837254Y-105369510D01*
X127953717Y-105354878D01*
X127955047Y-105354638D01*
X128053563Y-105331425D01*
X128054963Y-105331009D01*
X128140360Y-105300176D01*
X128141600Y-105299653D01*
X128218711Y-105262161D01*
X128219582Y-105261694D01*
X128293235Y-105218502D01*
X128293648Y-105218249D01*
X128368657Y-105170330D01*
X128368658Y-105170331D01*
X128449740Y-105118719D01*
X128541497Y-105064493D01*
X128641244Y-105012482D01*
X129186678Y-105537000D01*
G37*
G04 #@! TD.AperFunction*
G04 #@! TD*
D24*
G04 #@! TO.N,/GPIO0*
X129271425Y-105996052D02*
X129194933Y-106058990D01*
X129194827Y-106059078D01*
X129122566Y-106119859D01*
X129122254Y-106120130D01*
X129059549Y-106176461D01*
X129059011Y-106176974D01*
X129004350Y-106232186D01*
X129003642Y-106232963D01*
X128955515Y-106290385D01*
X128954768Y-106291369D01*
X128911665Y-106354332D01*
X128911022Y-106355376D01*
X128871433Y-106427210D01*
X128870963Y-106428155D01*
X128833377Y-106512190D01*
X128833069Y-106512941D01*
X128795976Y-106612507D01*
X128795788Y-106613051D01*
X128761504Y-106719590D01*
X128450014Y-106625100D01*
X128482334Y-106492030D01*
X128482622Y-106490374D01*
X128495769Y-106366589D01*
X128495828Y-106364704D01*
X128491209Y-106257034D01*
X128491002Y-106255229D01*
X128472861Y-106158838D01*
X128472528Y-106157483D01*
X128445106Y-106067538D01*
X128444879Y-106066862D01*
X128412419Y-105978527D01*
X128379303Y-105887356D01*
X128349772Y-105788673D01*
X128327914Y-105677496D01*
X128318515Y-105557372D01*
X129022692Y-105281089D01*
X129271425Y-105996052D01*
G04 #@! TA.AperFunction,Conductor*
D23*
G36*
X129271425Y-105996052D02*
G01*
X129194933Y-106058990D01*
X129194827Y-106059078D01*
X129122566Y-106119859D01*
X129122254Y-106120130D01*
X129059549Y-106176461D01*
X129059011Y-106176974D01*
X129004350Y-106232186D01*
X129003642Y-106232963D01*
X128955515Y-106290385D01*
X128954768Y-106291369D01*
X128911665Y-106354332D01*
X128911022Y-106355376D01*
X128871433Y-106427210D01*
X128870963Y-106428155D01*
X128833377Y-106512190D01*
X128833069Y-106512941D01*
X128795976Y-106612507D01*
X128795788Y-106613051D01*
X128761504Y-106719590D01*
X128450014Y-106625100D01*
X128482334Y-106492030D01*
X128482622Y-106490374D01*
X128495769Y-106366589D01*
X128495828Y-106364704D01*
X128491209Y-106257034D01*
X128491002Y-106255229D01*
X128472861Y-106158838D01*
X128472528Y-106157483D01*
X128445106Y-106067538D01*
X128444879Y-106066862D01*
X128412419Y-105978527D01*
X128379303Y-105887356D01*
X128349772Y-105788673D01*
X128327914Y-105677496D01*
X128318515Y-105557372D01*
X129022692Y-105281089D01*
X129271425Y-105996052D01*
G37*
G04 #@! TD.AperFunction*
G04 #@! TD*
D24*
G04 #@! TO.N,Net-(R10-Pad2)*
X110589494Y-108989040D02*
X110462743Y-109735069D01*
X110331954Y-109755709D01*
X110211907Y-109766453D01*
X110105573Y-109768077D01*
X110007355Y-109762684D01*
X109911531Y-109752337D01*
X109812604Y-109739114D01*
X109812560Y-109739108D01*
X109705146Y-109725127D01*
X109704820Y-109725089D01*
X109583580Y-109712486D01*
X109583088Y-109712445D01*
X109442508Y-109703333D01*
X109441956Y-109703309D01*
X109288958Y-109700066D01*
X109288958Y-109374469D01*
X109378159Y-109369174D01*
X109379995Y-109368929D01*
X109464032Y-109351432D01*
X109466218Y-109350767D01*
X109535758Y-109322548D01*
X109537993Y-109321370D01*
X109595653Y-109283200D01*
X109597525Y-109281688D01*
X109645923Y-109234337D01*
X109647207Y-109232871D01*
X109688958Y-109177110D01*
X109689706Y-109175992D01*
X109727428Y-109112593D01*
X109727797Y-109111929D01*
X109764106Y-109041661D01*
X109764222Y-109041431D01*
X109801708Y-108965120D01*
X109838945Y-108891527D01*
X110589494Y-108989040D01*
G04 #@! TA.AperFunction,Conductor*
D23*
G36*
X110589494Y-108989040D02*
G01*
X110462743Y-109735069D01*
X110331954Y-109755709D01*
X110211907Y-109766453D01*
X110105573Y-109768077D01*
X110007355Y-109762684D01*
X109911531Y-109752337D01*
X109812604Y-109739114D01*
X109812560Y-109739108D01*
X109705146Y-109725127D01*
X109704820Y-109725089D01*
X109583580Y-109712486D01*
X109583088Y-109712445D01*
X109442508Y-109703333D01*
X109441956Y-109703309D01*
X109288958Y-109700066D01*
X109288958Y-109374469D01*
X109378159Y-109369174D01*
X109379995Y-109368929D01*
X109464032Y-109351432D01*
X109466218Y-109350767D01*
X109535758Y-109322548D01*
X109537993Y-109321370D01*
X109595653Y-109283200D01*
X109597525Y-109281688D01*
X109645923Y-109234337D01*
X109647207Y-109232871D01*
X109688958Y-109177110D01*
X109689706Y-109175992D01*
X109727428Y-109112593D01*
X109727797Y-109111929D01*
X109764106Y-109041661D01*
X109764222Y-109041431D01*
X109801708Y-108965120D01*
X109838945Y-108891527D01*
X110589494Y-108989040D01*
G37*
G04 #@! TD.AperFunction*
G04 #@! TD*
D24*
G04 #@! TO.N,Net-(R10-Pad2)*
X101268379Y-107130614D02*
X101301338Y-107235968D01*
X101326961Y-107337632D01*
X101346737Y-107430055D01*
X101364739Y-107515882D01*
X101364843Y-107516336D01*
X101385111Y-107597947D01*
X101385386Y-107598895D01*
X101412017Y-107678947D01*
X101412517Y-107680218D01*
X101449611Y-107761369D01*
X101450312Y-107762690D01*
X101501966Y-107847598D01*
X101502753Y-107848745D01*
X101573066Y-107940067D01*
X101573815Y-107940953D01*
X101658573Y-108032380D01*
X101428380Y-108262573D01*
X101336953Y-108177815D01*
X101336067Y-108177066D01*
X101244745Y-108106753D01*
X101243598Y-108105966D01*
X101158690Y-108054312D01*
X101157369Y-108053611D01*
X101076218Y-108016517D01*
X101074947Y-108016017D01*
X100994895Y-107989386D01*
X100993947Y-107989111D01*
X100912336Y-107968843D01*
X100911882Y-107968739D01*
X100826055Y-107950737D01*
X100733632Y-107930961D01*
X100631968Y-107905338D01*
X100526614Y-107872379D01*
X100511824Y-107115824D01*
X101268379Y-107130614D01*
G04 #@! TA.AperFunction,Conductor*
D23*
G36*
X101268379Y-107130614D02*
G01*
X101301338Y-107235968D01*
X101326961Y-107337632D01*
X101346737Y-107430055D01*
X101364739Y-107515882D01*
X101364843Y-107516336D01*
X101385111Y-107597947D01*
X101385386Y-107598895D01*
X101412017Y-107678947D01*
X101412517Y-107680218D01*
X101449611Y-107761369D01*
X101450312Y-107762690D01*
X101501966Y-107847598D01*
X101502753Y-107848745D01*
X101573066Y-107940067D01*
X101573815Y-107940953D01*
X101658573Y-108032380D01*
X101428380Y-108262573D01*
X101336953Y-108177815D01*
X101336067Y-108177066D01*
X101244745Y-108106753D01*
X101243598Y-108105966D01*
X101158690Y-108054312D01*
X101157369Y-108053611D01*
X101076218Y-108016517D01*
X101074947Y-108016017D01*
X100994895Y-107989386D01*
X100993947Y-107989111D01*
X100912336Y-107968843D01*
X100911882Y-107968739D01*
X100826055Y-107950737D01*
X100733632Y-107930961D01*
X100631968Y-107905338D01*
X100526614Y-107872379D01*
X100511824Y-107115824D01*
X101268379Y-107130614D01*
G37*
G04 #@! TD.AperFunction*
G04 #@! TD*
D24*
G04 #@! TO.N,/D-*
X100727508Y-119643745D02*
X100676319Y-119741542D01*
X100622545Y-119831557D01*
X100571177Y-119910890D01*
X100523218Y-119984309D01*
X100522971Y-119984703D01*
X100479595Y-120056742D01*
X100479119Y-120057607D01*
X100441344Y-120133044D01*
X100440799Y-120134296D01*
X100409646Y-120217908D01*
X100409208Y-120219337D01*
X100385694Y-120315901D01*
X100385439Y-120317269D01*
X100370584Y-120431563D01*
X100370487Y-120432720D01*
X100365772Y-120557300D01*
X100040228Y-120557300D01*
X100035512Y-120432720D01*
X100035415Y-120431563D01*
X100020560Y-120317269D01*
X100020305Y-120315901D01*
X99996791Y-120219337D01*
X99996353Y-120217908D01*
X99965200Y-120134296D01*
X99964655Y-120133044D01*
X99926880Y-120057607D01*
X99926404Y-120056742D01*
X99883028Y-119984703D01*
X99882781Y-119984309D01*
X99834822Y-119910890D01*
X99783454Y-119831557D01*
X99729680Y-119741542D01*
X99678492Y-119643745D01*
X100203000Y-119098322D01*
X100727508Y-119643745D01*
G04 #@! TA.AperFunction,Conductor*
D23*
G36*
X100727508Y-119643745D02*
G01*
X100676319Y-119741542D01*
X100622545Y-119831557D01*
X100571177Y-119910890D01*
X100523218Y-119984309D01*
X100522971Y-119984703D01*
X100479595Y-120056742D01*
X100479119Y-120057607D01*
X100441344Y-120133044D01*
X100440799Y-120134296D01*
X100409646Y-120217908D01*
X100409208Y-120219337D01*
X100385694Y-120315901D01*
X100385439Y-120317269D01*
X100370584Y-120431563D01*
X100370487Y-120432720D01*
X100365772Y-120557300D01*
X100040228Y-120557300D01*
X100035512Y-120432720D01*
X100035415Y-120431563D01*
X100020560Y-120317269D01*
X100020305Y-120315901D01*
X99996791Y-120219337D01*
X99996353Y-120217908D01*
X99965200Y-120134296D01*
X99964655Y-120133044D01*
X99926880Y-120057607D01*
X99926404Y-120056742D01*
X99883028Y-119984703D01*
X99882781Y-119984309D01*
X99834822Y-119910890D01*
X99783454Y-119831557D01*
X99729680Y-119741542D01*
X99678492Y-119643745D01*
X100203000Y-119098322D01*
X100727508Y-119643745D01*
G37*
G04 #@! TD.AperFunction*
G04 #@! TD*
D24*
G04 #@! TO.N,/D-*
X100370487Y-120613279D02*
X100370584Y-120614436D01*
X100385439Y-120728730D01*
X100385694Y-120730098D01*
X100409208Y-120826662D01*
X100409646Y-120828091D01*
X100440799Y-120911703D01*
X100441344Y-120912955D01*
X100479119Y-120988392D01*
X100479595Y-120989257D01*
X100522971Y-121061296D01*
X100523218Y-121061690D01*
X100571150Y-121135067D01*
X100622545Y-121214442D01*
X100676319Y-121304457D01*
X100727508Y-121402255D01*
X100203000Y-121947678D01*
X99678492Y-121402255D01*
X99729680Y-121304457D01*
X99783454Y-121214442D01*
X99834822Y-121135109D01*
X99882781Y-121061690D01*
X99883028Y-121061296D01*
X99926404Y-120989257D01*
X99926880Y-120988392D01*
X99964655Y-120912955D01*
X99965200Y-120911703D01*
X99996353Y-120828091D01*
X99996791Y-120826662D01*
X100020305Y-120730098D01*
X100020560Y-120728730D01*
X100035415Y-120614436D01*
X100035512Y-120613279D01*
X100040228Y-120488700D01*
X100365772Y-120488700D01*
X100370487Y-120613279D01*
G04 #@! TA.AperFunction,Conductor*
D23*
G36*
X100370487Y-120613279D02*
G01*
X100370584Y-120614436D01*
X100385439Y-120728730D01*
X100385694Y-120730098D01*
X100409208Y-120826662D01*
X100409646Y-120828091D01*
X100440799Y-120911703D01*
X100441344Y-120912955D01*
X100479119Y-120988392D01*
X100479595Y-120989257D01*
X100522971Y-121061296D01*
X100523218Y-121061690D01*
X100571150Y-121135067D01*
X100622545Y-121214442D01*
X100676319Y-121304457D01*
X100727508Y-121402255D01*
X100203000Y-121947678D01*
X99678492Y-121402255D01*
X99729680Y-121304457D01*
X99783454Y-121214442D01*
X99834822Y-121135109D01*
X99882781Y-121061690D01*
X99883028Y-121061296D01*
X99926404Y-120989257D01*
X99926880Y-120988392D01*
X99964655Y-120912955D01*
X99965200Y-120911703D01*
X99996353Y-120828091D01*
X99996791Y-120826662D01*
X100020305Y-120730098D01*
X100020560Y-120728730D01*
X100035415Y-120614436D01*
X100035512Y-120613279D01*
X100040228Y-120488700D01*
X100365772Y-120488700D01*
X100370487Y-120613279D01*
G37*
G04 #@! TD.AperFunction*
G04 #@! TD*
D24*
G04 #@! TO.N,/CUTXD*
X119487542Y-118779680D02*
X119577557Y-118833454D01*
X119656890Y-118884822D01*
X119730309Y-118932781D01*
X119730703Y-118933028D01*
X119802742Y-118976404D01*
X119803607Y-118976880D01*
X119879044Y-119014655D01*
X119880296Y-119015200D01*
X119963908Y-119046353D01*
X119965337Y-119046791D01*
X120061901Y-119070305D01*
X120063269Y-119070560D01*
X120177563Y-119085415D01*
X120178720Y-119085512D01*
X120303300Y-119090228D01*
X120303300Y-119415772D01*
X120178720Y-119420487D01*
X120177563Y-119420584D01*
X120063269Y-119435439D01*
X120061901Y-119435694D01*
X119965337Y-119459208D01*
X119963908Y-119459646D01*
X119880296Y-119490799D01*
X119879044Y-119491344D01*
X119803607Y-119529119D01*
X119802742Y-119529595D01*
X119730703Y-119572971D01*
X119730309Y-119573218D01*
X119656890Y-119621177D01*
X119577557Y-119672545D01*
X119487542Y-119726319D01*
X119389745Y-119777508D01*
X118844322Y-119253000D01*
X119389745Y-118728492D01*
X119487542Y-118779680D01*
G04 #@! TA.AperFunction,Conductor*
D23*
G36*
X119487542Y-118779680D02*
G01*
X119577557Y-118833454D01*
X119656890Y-118884822D01*
X119730309Y-118932781D01*
X119730703Y-118933028D01*
X119802742Y-118976404D01*
X119803607Y-118976880D01*
X119879044Y-119014655D01*
X119880296Y-119015200D01*
X119963908Y-119046353D01*
X119965337Y-119046791D01*
X120061901Y-119070305D01*
X120063269Y-119070560D01*
X120177563Y-119085415D01*
X120178720Y-119085512D01*
X120303300Y-119090228D01*
X120303300Y-119415772D01*
X120178720Y-119420487D01*
X120177563Y-119420584D01*
X120063269Y-119435439D01*
X120061901Y-119435694D01*
X119965337Y-119459208D01*
X119963908Y-119459646D01*
X119880296Y-119490799D01*
X119879044Y-119491344D01*
X119803607Y-119529119D01*
X119802742Y-119529595D01*
X119730703Y-119572971D01*
X119730309Y-119573218D01*
X119656890Y-119621177D01*
X119577557Y-119672545D01*
X119487542Y-119726319D01*
X119389745Y-119777508D01*
X118844322Y-119253000D01*
X119389745Y-118728492D01*
X119487542Y-118779680D01*
G37*
G04 #@! TD.AperFunction*
G04 #@! TD*
D24*
G04 #@! TO.N,/CUTXD*
X121947678Y-119253000D02*
X121402255Y-119777508D01*
X121304457Y-119726319D01*
X121214442Y-119672545D01*
X121135109Y-119621177D01*
X121061690Y-119573218D01*
X121061296Y-119572971D01*
X120989257Y-119529595D01*
X120988392Y-119529119D01*
X120912955Y-119491344D01*
X120911703Y-119490799D01*
X120828091Y-119459646D01*
X120826662Y-119459208D01*
X120730098Y-119435694D01*
X120728730Y-119435439D01*
X120614436Y-119420584D01*
X120613279Y-119420487D01*
X120488700Y-119415772D01*
X120488700Y-119090228D01*
X120613279Y-119085512D01*
X120614436Y-119085415D01*
X120728730Y-119070560D01*
X120730098Y-119070305D01*
X120826662Y-119046791D01*
X120828091Y-119046353D01*
X120911703Y-119015200D01*
X120912955Y-119014655D01*
X120988392Y-118976880D01*
X120989257Y-118976404D01*
X121061296Y-118933028D01*
X121061690Y-118932781D01*
X121135109Y-118884822D01*
X121214442Y-118833454D01*
X121304457Y-118779680D01*
X121402255Y-118728492D01*
X121947678Y-119253000D01*
G04 #@! TA.AperFunction,Conductor*
D23*
G36*
X121947678Y-119253000D02*
G01*
X121402255Y-119777508D01*
X121304457Y-119726319D01*
X121214442Y-119672545D01*
X121135109Y-119621177D01*
X121061690Y-119573218D01*
X121061296Y-119572971D01*
X120989257Y-119529595D01*
X120988392Y-119529119D01*
X120912955Y-119491344D01*
X120911703Y-119490799D01*
X120828091Y-119459646D01*
X120826662Y-119459208D01*
X120730098Y-119435694D01*
X120728730Y-119435439D01*
X120614436Y-119420584D01*
X120613279Y-119420487D01*
X120488700Y-119415772D01*
X120488700Y-119090228D01*
X120613279Y-119085512D01*
X120614436Y-119085415D01*
X120728730Y-119070560D01*
X120730098Y-119070305D01*
X120826662Y-119046791D01*
X120828091Y-119046353D01*
X120911703Y-119015200D01*
X120912955Y-119014655D01*
X120988392Y-118976880D01*
X120989257Y-118976404D01*
X121061296Y-118933028D01*
X121061690Y-118932781D01*
X121135109Y-118884822D01*
X121214442Y-118833454D01*
X121304457Y-118779680D01*
X121402255Y-118728492D01*
X121947678Y-119253000D01*
G37*
G04 #@! TD.AperFunction*
G04 #@! TD*
D24*
G04 #@! TO.N,WLED*
X126527108Y-106095661D02*
X126528680Y-106096844D01*
X126599881Y-106142227D01*
X126602034Y-106143326D01*
X126670695Y-106170496D01*
X126673240Y-106171207D01*
X126740596Y-106182654D01*
X126743060Y-106182830D01*
X126810342Y-106181047D01*
X126812291Y-106180844D01*
X126880736Y-106168323D01*
X126882024Y-106168017D01*
X126952865Y-106147250D01*
X126953553Y-106147027D01*
X127028025Y-106120506D01*
X127028227Y-106120432D01*
X127107499Y-106090674D01*
X127184329Y-106063199D01*
X127660498Y-106651470D01*
X127054144Y-107104228D01*
X126944998Y-107029159D01*
X126850116Y-106954669D01*
X126771322Y-106883229D01*
X126703237Y-106812318D01*
X126640499Y-106739384D01*
X126577758Y-106661870D01*
X126509874Y-106577504D01*
X126509721Y-106577319D01*
X126431473Y-106483755D01*
X126431205Y-106483445D01*
X126337323Y-106378277D01*
X126336996Y-106377924D01*
X126230837Y-106267698D01*
X126461079Y-106037456D01*
X126527108Y-106095661D01*
G04 #@! TA.AperFunction,Conductor*
D23*
G36*
X126527108Y-106095661D02*
G01*
X126528680Y-106096844D01*
X126599881Y-106142227D01*
X126602034Y-106143326D01*
X126670695Y-106170496D01*
X126673240Y-106171207D01*
X126740596Y-106182654D01*
X126743060Y-106182830D01*
X126810342Y-106181047D01*
X126812291Y-106180844D01*
X126880736Y-106168323D01*
X126882024Y-106168017D01*
X126952865Y-106147250D01*
X126953553Y-106147027D01*
X127028025Y-106120506D01*
X127028227Y-106120432D01*
X127107499Y-106090674D01*
X127184329Y-106063199D01*
X127660498Y-106651470D01*
X127054144Y-107104228D01*
X126944998Y-107029159D01*
X126850116Y-106954669D01*
X126771322Y-106883229D01*
X126703237Y-106812318D01*
X126640499Y-106739384D01*
X126577758Y-106661870D01*
X126509874Y-106577504D01*
X126509721Y-106577319D01*
X126431473Y-106483755D01*
X126431205Y-106483445D01*
X126337323Y-106378277D01*
X126336996Y-106377924D01*
X126230837Y-106267698D01*
X126461079Y-106037456D01*
X126527108Y-106095661D01*
G37*
G04 #@! TD.AperFunction*
G04 #@! TD*
D24*
G04 #@! TO.N,WLED*
X125111448Y-102625683D02*
X125059663Y-102722506D01*
X125003308Y-102811779D01*
X124948159Y-102890696D01*
X124896164Y-102963746D01*
X124895881Y-102964161D01*
X124848990Y-103035887D01*
X124848406Y-103036874D01*
X124808521Y-103111896D01*
X124807839Y-103113412D01*
X124776817Y-103196412D01*
X124776290Y-103198221D01*
X124755985Y-103293881D01*
X124755738Y-103295651D01*
X124748009Y-103408651D01*
X124747995Y-103410148D01*
X124754097Y-103533089D01*
X124430140Y-103564994D01*
X124414224Y-103437261D01*
X124414101Y-103436476D01*
X124391981Y-103319282D01*
X124391765Y-103318338D01*
X124365076Y-103219113D01*
X124364754Y-103218091D01*
X124333602Y-103131985D01*
X124333215Y-103131035D01*
X124297708Y-103053197D01*
X124297355Y-103052484D01*
X124257598Y-102978063D01*
X124257388Y-102977685D01*
X124213488Y-102901832D01*
X124213465Y-102901792D01*
X124165572Y-102819732D01*
X124113911Y-102726832D01*
X124062421Y-102625819D01*
X124587000Y-102080322D01*
X125111448Y-102625683D01*
G04 #@! TA.AperFunction,Conductor*
D23*
G36*
X125111448Y-102625683D02*
G01*
X125059663Y-102722506D01*
X125003308Y-102811779D01*
X124948159Y-102890696D01*
X124896164Y-102963746D01*
X124895881Y-102964161D01*
X124848990Y-103035887D01*
X124848406Y-103036874D01*
X124808521Y-103111896D01*
X124807839Y-103113412D01*
X124776817Y-103196412D01*
X124776290Y-103198221D01*
X124755985Y-103293881D01*
X124755738Y-103295651D01*
X124748009Y-103408651D01*
X124747995Y-103410148D01*
X124754097Y-103533089D01*
X124430140Y-103564994D01*
X124414224Y-103437261D01*
X124414101Y-103436476D01*
X124391981Y-103319282D01*
X124391765Y-103318338D01*
X124365076Y-103219113D01*
X124364754Y-103218091D01*
X124333602Y-103131985D01*
X124333215Y-103131035D01*
X124297708Y-103053197D01*
X124297355Y-103052484D01*
X124257598Y-102978063D01*
X124257388Y-102977685D01*
X124213488Y-102901832D01*
X124213465Y-102901792D01*
X124165572Y-102819732D01*
X124113911Y-102726832D01*
X124062421Y-102625819D01*
X124587000Y-102080322D01*
X125111448Y-102625683D01*
G37*
G04 #@! TD.AperFunction*
G04 #@! TD*
D24*
G04 #@! TO.N,/5VOUT*
X109531382Y-96950534D02*
X109432698Y-96983163D01*
X109337422Y-97012346D01*
X109251247Y-97038454D01*
X109250968Y-97038541D01*
X109171265Y-97064704D01*
X109170644Y-97064926D01*
X109094746Y-97094285D01*
X109093856Y-97094669D01*
X109019061Y-97130377D01*
X109018065Y-97130909D01*
X108941670Y-97176121D01*
X108940737Y-97176729D01*
X108860038Y-97234596D01*
X108859270Y-97235193D01*
X108771565Y-97308869D01*
X108770982Y-97309390D01*
X108682542Y-97393494D01*
X108346504Y-97057455D01*
X108430608Y-96969015D01*
X108431129Y-96968432D01*
X108504805Y-96880727D01*
X108505402Y-96879959D01*
X108563270Y-96799260D01*
X108563878Y-96798327D01*
X108609089Y-96721932D01*
X108609621Y-96720936D01*
X108645330Y-96646141D01*
X108645714Y-96645251D01*
X108675073Y-96569354D01*
X108675295Y-96568733D01*
X108701458Y-96489030D01*
X108701545Y-96488751D01*
X108727653Y-96402577D01*
X108756841Y-96307288D01*
X108789467Y-96208617D01*
X109546176Y-96193825D01*
X109531382Y-96950534D01*
G04 #@! TA.AperFunction,Conductor*
D23*
G36*
X109531382Y-96950534D02*
G01*
X109432698Y-96983163D01*
X109337422Y-97012346D01*
X109251247Y-97038454D01*
X109250968Y-97038541D01*
X109171265Y-97064704D01*
X109170644Y-97064926D01*
X109094746Y-97094285D01*
X109093856Y-97094669D01*
X109019061Y-97130377D01*
X109018065Y-97130909D01*
X108941670Y-97176121D01*
X108940737Y-97176729D01*
X108860038Y-97234596D01*
X108859270Y-97235193D01*
X108771565Y-97308869D01*
X108770982Y-97309390D01*
X108682542Y-97393494D01*
X108346504Y-97057455D01*
X108430608Y-96969015D01*
X108431129Y-96968432D01*
X108504805Y-96880727D01*
X108505402Y-96879959D01*
X108563270Y-96799260D01*
X108563878Y-96798327D01*
X108609089Y-96721932D01*
X108609621Y-96720936D01*
X108645330Y-96646141D01*
X108645714Y-96645251D01*
X108675073Y-96569354D01*
X108675295Y-96568733D01*
X108701458Y-96489030D01*
X108701545Y-96488751D01*
X108727653Y-96402577D01*
X108756841Y-96307288D01*
X108789467Y-96208617D01*
X109546176Y-96193825D01*
X109531382Y-96950534D01*
G37*
G04 #@! TD.AperFunction*
G04 #@! TD*
D24*
G04 #@! TO.N,/5VOUT*
X104860486Y-104099430D02*
X104852874Y-104218313D01*
X104852850Y-104219369D01*
X104855003Y-104331071D01*
X104855094Y-104332359D01*
X104866798Y-104428600D01*
X104867053Y-104430020D01*
X104887311Y-104514765D01*
X104887715Y-104516116D01*
X104915529Y-104593331D01*
X104915969Y-104594398D01*
X104950343Y-104668050D01*
X104950673Y-104668707D01*
X104990609Y-104742760D01*
X104990742Y-104743000D01*
X105035180Y-104821309D01*
X105083149Y-104907883D01*
X105129572Y-104998688D01*
X104605000Y-105544178D01*
X104080332Y-104998589D01*
X104128098Y-104901705D01*
X104174086Y-104810153D01*
X104174126Y-104810071D01*
X104214797Y-104727631D01*
X104214941Y-104727330D01*
X104250736Y-104649702D01*
X104250967Y-104649168D01*
X104282328Y-104572056D01*
X104282594Y-104571342D01*
X104309965Y-104490446D01*
X104310203Y-104489660D01*
X104334024Y-104400682D01*
X104334199Y-104399941D01*
X104354914Y-104298582D01*
X104355025Y-104297959D01*
X104373076Y-104179921D01*
X104373140Y-104179438D01*
X104387555Y-104052852D01*
X104860486Y-104099430D01*
G04 #@! TA.AperFunction,Conductor*
D23*
G36*
X104860486Y-104099430D02*
G01*
X104852874Y-104218313D01*
X104852850Y-104219369D01*
X104855003Y-104331071D01*
X104855094Y-104332359D01*
X104866798Y-104428600D01*
X104867053Y-104430020D01*
X104887311Y-104514765D01*
X104887715Y-104516116D01*
X104915529Y-104593331D01*
X104915969Y-104594398D01*
X104950343Y-104668050D01*
X104950673Y-104668707D01*
X104990609Y-104742760D01*
X104990742Y-104743000D01*
X105035180Y-104821309D01*
X105083149Y-104907883D01*
X105129572Y-104998688D01*
X104605000Y-105544178D01*
X104080332Y-104998589D01*
X104128098Y-104901705D01*
X104174086Y-104810153D01*
X104174126Y-104810071D01*
X104214797Y-104727631D01*
X104214941Y-104727330D01*
X104250736Y-104649702D01*
X104250967Y-104649168D01*
X104282328Y-104572056D01*
X104282594Y-104571342D01*
X104309965Y-104490446D01*
X104310203Y-104489660D01*
X104334024Y-104400682D01*
X104334199Y-104399941D01*
X104354914Y-104298582D01*
X104355025Y-104297959D01*
X104373076Y-104179921D01*
X104373140Y-104179438D01*
X104387555Y-104052852D01*
X104860486Y-104099430D01*
G37*
G04 #@! TD.AperFunction*
G04 #@! TD*
M02*
