G04 #@! TF.GenerationSoftware,KiCad,Pcbnew,5.1.10-88a1d61d58~88~ubuntu20.04.1*
G04 #@! TF.CreationDate,2021-07-02T10:57:31-04:00*
G04 #@! TF.ProjectId,ESP8285-WLED,45535038-3238-4352-9d57-4c45442e6b69,rev?*
G04 #@! TF.SameCoordinates,PX55fe290PY791ddc0*
G04 #@! TF.FileFunction,Copper,L2,Bot*
G04 #@! TF.FilePolarity,Positive*
%FSLAX46Y46*%
G04 Gerber Fmt 4.6, Leading zero omitted, Abs format (unit mm)*
G04 Created by KiCad (PCBNEW 5.1.10-88a1d61d58~88~ubuntu20.04.1) date 2021-07-02 10:57:31*
%MOMM*%
%LPD*%
G01*
G04 APERTURE LIST*
G04 #@! TA.AperFunction,NonConductor*
%ADD10C,0.200000*%
G04 #@! TD*
G04 #@! TA.AperFunction,ComponentPad*
%ADD11R,0.500000X0.900000*%
G04 #@! TD*
G04 #@! TA.AperFunction,ComponentPad*
%ADD12O,3.000000X2.000000*%
G04 #@! TD*
G04 #@! TA.AperFunction,ComponentPad*
%ADD13O,2.000000X1.000000*%
G04 #@! TD*
G04 #@! TA.AperFunction,ComponentPad*
%ADD14C,2.400000*%
G04 #@! TD*
G04 #@! TA.AperFunction,ComponentPad*
%ADD15R,2.400000X2.400000*%
G04 #@! TD*
G04 #@! TA.AperFunction,ComponentPad*
%ADD16C,1.600000*%
G04 #@! TD*
G04 #@! TA.AperFunction,ComponentPad*
%ADD17R,1.600000X1.600000*%
G04 #@! TD*
G04 #@! TA.AperFunction,ViaPad*
%ADD18C,1.200000*%
G04 #@! TD*
G04 #@! TA.AperFunction,ViaPad*
%ADD19C,1.600000*%
G04 #@! TD*
G04 #@! TA.AperFunction,Conductor*
%ADD20C,0.500000*%
G04 #@! TD*
G04 #@! TA.AperFunction,Conductor*
%ADD21C,0.350000*%
G04 #@! TD*
G04 #@! TA.AperFunction,Conductor*
%ADD22C,0.250000*%
G04 #@! TD*
G04 #@! TA.AperFunction,Conductor*
%ADD23C,0.254000*%
G04 #@! TD*
G04 #@! TA.AperFunction,Conductor*
%ADD24C,0.050000*%
G04 #@! TD*
G04 APERTURE END LIST*
D10*
X39980238Y33941429D02*
X39646904Y33941429D01*
X39504047Y33417620D02*
X39980238Y33417620D01*
X39980238Y34417620D01*
X39504047Y34417620D01*
X39123095Y33465239D02*
X38980238Y33417620D01*
X38742142Y33417620D01*
X38646904Y33465239D01*
X38599285Y33512858D01*
X38551666Y33608096D01*
X38551666Y33703334D01*
X38599285Y33798572D01*
X38646904Y33846191D01*
X38742142Y33893810D01*
X38932619Y33941429D01*
X39027857Y33989048D01*
X39075476Y34036667D01*
X39123095Y34131905D01*
X39123095Y34227143D01*
X39075476Y34322381D01*
X39027857Y34370000D01*
X38932619Y34417620D01*
X38694523Y34417620D01*
X38551666Y34370000D01*
X38123095Y33417620D02*
X38123095Y34417620D01*
X37742142Y34417620D01*
X37646904Y34370000D01*
X37599285Y34322381D01*
X37551666Y34227143D01*
X37551666Y34084286D01*
X37599285Y33989048D01*
X37646904Y33941429D01*
X37742142Y33893810D01*
X38123095Y33893810D01*
X36980238Y33989048D02*
X37075476Y34036667D01*
X37123095Y34084286D01*
X37170714Y34179524D01*
X37170714Y34227143D01*
X37123095Y34322381D01*
X37075476Y34370000D01*
X36980238Y34417620D01*
X36789761Y34417620D01*
X36694523Y34370000D01*
X36646904Y34322381D01*
X36599285Y34227143D01*
X36599285Y34179524D01*
X36646904Y34084286D01*
X36694523Y34036667D01*
X36789761Y33989048D01*
X36980238Y33989048D01*
X37075476Y33941429D01*
X37123095Y33893810D01*
X37170714Y33798572D01*
X37170714Y33608096D01*
X37123095Y33512858D01*
X37075476Y33465239D01*
X36980238Y33417620D01*
X36789761Y33417620D01*
X36694523Y33465239D01*
X36646904Y33512858D01*
X36599285Y33608096D01*
X36599285Y33798572D01*
X36646904Y33893810D01*
X36694523Y33941429D01*
X36789761Y33989048D01*
X36218333Y34322381D02*
X36170714Y34370000D01*
X36075476Y34417620D01*
X35837380Y34417620D01*
X35742142Y34370000D01*
X35694523Y34322381D01*
X35646904Y34227143D01*
X35646904Y34131905D01*
X35694523Y33989048D01*
X36265952Y33417620D01*
X35646904Y33417620D01*
X35075476Y33989048D02*
X35170714Y34036667D01*
X35218333Y34084286D01*
X35265952Y34179524D01*
X35265952Y34227143D01*
X35218333Y34322381D01*
X35170714Y34370000D01*
X35075476Y34417620D01*
X34885000Y34417620D01*
X34789761Y34370000D01*
X34742142Y34322381D01*
X34694523Y34227143D01*
X34694523Y34179524D01*
X34742142Y34084286D01*
X34789761Y34036667D01*
X34885000Y33989048D01*
X35075476Y33989048D01*
X35170714Y33941429D01*
X35218333Y33893810D01*
X35265952Y33798572D01*
X35265952Y33608096D01*
X35218333Y33512858D01*
X35170714Y33465239D01*
X35075476Y33417620D01*
X34885000Y33417620D01*
X34789761Y33465239D01*
X34742142Y33512858D01*
X34694523Y33608096D01*
X34694523Y33798572D01*
X34742142Y33893810D01*
X34789761Y33941429D01*
X34885000Y33989048D01*
X33789761Y34417620D02*
X34265952Y34417620D01*
X34313571Y33941429D01*
X34265952Y33989048D01*
X34170714Y34036667D01*
X33932619Y34036667D01*
X33837380Y33989048D01*
X33789761Y33941429D01*
X33742142Y33846191D01*
X33742142Y33608096D01*
X33789761Y33512858D01*
X33837380Y33465239D01*
X33932619Y33417620D01*
X34170714Y33417620D01*
X34265952Y33465239D01*
X34313571Y33512858D01*
X33313571Y33798572D02*
X32551666Y33798572D01*
X32170714Y34417620D02*
X31932619Y33417620D01*
X31742142Y34131905D01*
X31551666Y33417620D01*
X31313571Y34417620D01*
X30456428Y33417620D02*
X30932619Y33417620D01*
X30932619Y34417620D01*
X30123095Y33941429D02*
X29789761Y33941429D01*
X29646904Y33417620D02*
X30123095Y33417620D01*
X30123095Y34417620D01*
X29646904Y34417620D01*
X29218333Y33417620D02*
X29218333Y34417620D01*
X28980238Y34417620D01*
X28837380Y34370000D01*
X28742142Y34274762D01*
X28694523Y34179524D01*
X28646904Y33989048D01*
X28646904Y33846191D01*
X28694523Y33655715D01*
X28742142Y33560477D01*
X28837380Y33465239D01*
X28980238Y33417620D01*
X29218333Y33417620D01*
X27551666Y34084286D02*
X27313571Y33417620D01*
X27075476Y34084286D01*
X26170714Y33417620D02*
X26742142Y33417620D01*
X26456428Y33417620D02*
X26456428Y34417620D01*
X26551666Y34274762D01*
X26646904Y34179524D01*
X26742142Y34131905D01*
X25742142Y33512858D02*
X25694523Y33465239D01*
X25742142Y33417620D01*
X25789761Y33465239D01*
X25742142Y33512858D01*
X25742142Y33417620D01*
X25075476Y34417620D02*
X24980238Y34417620D01*
X24885000Y34370000D01*
X24837380Y34322381D01*
X24789761Y34227143D01*
X24742142Y34036667D01*
X24742142Y33798572D01*
X24789761Y33608096D01*
X24837380Y33512858D01*
X24885000Y33465239D01*
X24980238Y33417620D01*
X25075476Y33417620D01*
X25170714Y33465239D01*
X25218333Y33512858D01*
X25265952Y33608096D01*
X25313571Y33798572D01*
X25313571Y34036667D01*
X25265952Y34227143D01*
X25218333Y34322381D01*
X25170714Y34370000D01*
X25075476Y34417620D01*
X36765952Y31765239D02*
X36861190Y31717620D01*
X37051666Y31717620D01*
X37146904Y31765239D01*
X37194523Y31812858D01*
X37242142Y31908096D01*
X37242142Y32193810D01*
X37194523Y32289048D01*
X37146904Y32336667D01*
X37051666Y32384286D01*
X36861190Y32384286D01*
X36765952Y32336667D01*
X36337380Y32384286D02*
X36337380Y31384286D01*
X36337380Y32336667D02*
X36242142Y32384286D01*
X36051666Y32384286D01*
X35956428Y32336667D01*
X35908809Y32289048D01*
X35861190Y32193810D01*
X35861190Y31908096D01*
X35908809Y31812858D01*
X35956428Y31765239D01*
X36051666Y31717620D01*
X36242142Y31717620D01*
X36337380Y31765239D01*
X35051666Y31765239D02*
X35146904Y31717620D01*
X35337380Y31717620D01*
X35432619Y31765239D01*
X35480238Y31860477D01*
X35480238Y32241429D01*
X35432619Y32336667D01*
X35337380Y32384286D01*
X35146904Y32384286D01*
X35051666Y32336667D01*
X35004047Y32241429D01*
X35004047Y32146191D01*
X35480238Y32050953D01*
X34575476Y31717620D02*
X34575476Y32384286D01*
X34575476Y32193810D02*
X34527857Y32289048D01*
X34480238Y32336667D01*
X34385000Y32384286D01*
X34289761Y32384286D01*
X33956428Y31717620D02*
X33956428Y32384286D01*
X33956428Y32717620D02*
X34004047Y32670000D01*
X33956428Y32622381D01*
X33908809Y32670000D01*
X33956428Y32717620D01*
X33956428Y32622381D01*
X33337380Y31717620D02*
X33432619Y31765239D01*
X33480238Y31812858D01*
X33527857Y31908096D01*
X33527857Y32193810D01*
X33480238Y32289048D01*
X33432619Y32336667D01*
X33337380Y32384286D01*
X33194523Y32384286D01*
X33099285Y32336667D01*
X33051666Y32289048D01*
X33004047Y32193810D01*
X33004047Y31908096D01*
X33051666Y31812858D01*
X33099285Y31765239D01*
X33194523Y31717620D01*
X33337380Y31717620D01*
X32146904Y31717620D02*
X32146904Y32717620D01*
X32146904Y31765239D02*
X32242142Y31717620D01*
X32432619Y31717620D01*
X32527857Y31765239D01*
X32575476Y31812858D01*
X32623095Y31908096D01*
X32623095Y32193810D01*
X32575476Y32289048D01*
X32527857Y32336667D01*
X32432619Y32384286D01*
X32242142Y32384286D01*
X32146904Y32336667D01*
X30956428Y32622381D02*
X30908809Y32670000D01*
X30813571Y32717620D01*
X30575476Y32717620D01*
X30480238Y32670000D01*
X30432619Y32622381D01*
X30385000Y32527143D01*
X30385000Y32431905D01*
X30432619Y32289048D01*
X31004047Y31717620D01*
X30385000Y31717620D01*
X29765952Y32717620D02*
X29670714Y32717620D01*
X29575476Y32670000D01*
X29527857Y32622381D01*
X29480238Y32527143D01*
X29432619Y32336667D01*
X29432619Y32098572D01*
X29480238Y31908096D01*
X29527857Y31812858D01*
X29575476Y31765239D01*
X29670714Y31717620D01*
X29765952Y31717620D01*
X29861190Y31765239D01*
X29908809Y31812858D01*
X29956428Y31908096D01*
X30004047Y32098572D01*
X30004047Y32336667D01*
X29956428Y32527143D01*
X29908809Y32622381D01*
X29861190Y32670000D01*
X29765952Y32717620D01*
X29051666Y32622381D02*
X29004047Y32670000D01*
X28908809Y32717620D01*
X28670714Y32717620D01*
X28575476Y32670000D01*
X28527857Y32622381D01*
X28480238Y32527143D01*
X28480238Y32431905D01*
X28527857Y32289048D01*
X29099285Y31717620D01*
X28480238Y31717620D01*
X27527857Y31717620D02*
X28099285Y31717620D01*
X27813571Y31717620D02*
X27813571Y32717620D01*
X27908809Y32574762D01*
X28004047Y32479524D01*
X28099285Y32431905D01*
D11*
G04 #@! TO.P,AE1,2*
G04 #@! TO.N,GND*
X56261000Y11108000D03*
G04 #@! TD*
D12*
G04 #@! TO.P,J2,6*
G04 #@! TO.N,Net-(J2-Pad6)*
X2350000Y10229000D03*
D13*
X5030000Y9029000D03*
X5030000Y4179000D03*
D12*
X2350000Y2979000D03*
G04 #@! TD*
D14*
G04 #@! TO.P,J1,4*
G04 #@! TO.N,GND*
X4318000Y14900000D03*
G04 #@! TO.P,J1,3*
G04 #@! TO.N,Net-(J1-Pad3)*
X4318000Y18400000D03*
G04 #@! TO.P,J1,2*
G04 #@! TO.N,+12V*
X4318000Y21900000D03*
D15*
G04 #@! TO.P,J1,1*
G04 #@! TO.N,+5V*
X4318000Y25400000D03*
G04 #@! TD*
D16*
G04 #@! TO.P,C3,2*
G04 #@! TO.N,GND*
X6310000Y31750000D03*
D17*
G04 #@! TO.P,C3,1*
G04 #@! TO.N,+12V*
X3810000Y31750000D03*
G04 #@! TD*
D18*
G04 #@! TO.N,GND*
X40386000Y15748000D03*
X41910000Y15748000D03*
X41910000Y17272000D03*
X40386000Y17272000D03*
X16764000Y5588000D03*
D19*
X54610000Y15748000D03*
X54610000Y18288000D03*
X54610000Y20828000D03*
X54610000Y23368000D03*
X54610000Y25908000D03*
X54610000Y28448000D03*
X54610000Y11684000D03*
X54610000Y6604000D03*
X54610000Y4064000D03*
X54610000Y1524000D03*
X54610000Y30988000D03*
X54610000Y33528000D03*
X54610000Y9144000D03*
D18*
X49784000Y17399000D03*
X49784000Y20828000D03*
D19*
X14478000Y15875000D03*
X14605000Y32131000D03*
X12319000Y30734000D03*
X26670000Y26416000D03*
X42799000Y26035000D03*
X41783000Y5334000D03*
X43942000Y5334000D03*
X35687000Y9017000D03*
X32385000Y22098000D03*
X32385000Y18923000D03*
X34544000Y15621000D03*
X29591000Y13843000D03*
X24765000Y12065000D03*
X21336000Y10414000D03*
X15494000Y9144000D03*
X10414000Y2667000D03*
X8890000Y13335000D03*
X11557000Y16764000D03*
X48260000Y8636000D03*
X49530000Y5969000D03*
X30480000Y5334000D03*
X24384000Y23622000D03*
X12446000Y20447000D03*
D18*
X39751000Y10160000D03*
D19*
G04 #@! TO.N,+12V*
X6223000Y21971000D03*
D18*
G04 #@! TO.N,+3V3*
X21971000Y5207000D03*
X20447000Y8255000D03*
X42291000Y11049000D03*
X44958000Y13208000D03*
X37084000Y22606000D03*
X49657000Y11430000D03*
X49784000Y15748000D03*
X42926000Y20701000D03*
X21463000Y12954000D03*
X23622000Y16764000D03*
G04 #@! TO.N,+5V*
X8890000Y16129000D03*
D19*
G04 #@! TO.N,Net-(J1-Pad3)*
X6096000Y18415000D03*
D18*
G04 #@! TO.N,/GPIO0*
X28448000Y3048000D03*
X27686000Y9017000D03*
X36830000Y17526000D03*
X37973000Y21336000D03*
X35814000Y28448000D03*
G04 #@! TO.N,/UTXD*
X32258000Y7874000D03*
X29083000Y7874000D03*
G04 #@! TO.N,Net-(R10-Pad2)*
X19304000Y19304000D03*
X10541000Y19685000D03*
G04 #@! TO.N,/D-*
X10033000Y7620000D03*
X10033000Y5334000D03*
G04 #@! TO.N,WLED*
X34417000Y24638000D03*
X37211000Y19812000D03*
G04 #@! TO.N,/5VOUT*
X19177000Y30607000D03*
X16510000Y21463000D03*
G04 #@! TD*
D20*
G04 #@! TO.N,+12V*
X4318000Y21900000D02*
X2738000Y21900000D01*
X2738000Y21900000D02*
X1651000Y22987000D01*
X1651000Y29591000D02*
X3810000Y31750000D01*
X1651000Y22987000D02*
X1651000Y29591000D01*
X6223000Y21971000D02*
X6152000Y21900000D01*
X6152000Y21900000D02*
X4318000Y21900000D01*
D21*
G04 #@! TO.N,+3V3*
X21082000Y7620000D02*
X20447000Y8255000D01*
X21082000Y6096000D02*
X21082000Y7620000D01*
X21971000Y5207000D02*
X21082000Y6096000D01*
D22*
X44958000Y12700000D02*
X44958000Y13208000D01*
X43307000Y11049000D02*
X44958000Y12700000D01*
X42291000Y11049000D02*
X43307000Y11049000D01*
X49657000Y15621000D02*
X49784000Y15748000D01*
D21*
X49657000Y11430000D02*
X49657000Y15621000D01*
X23622000Y15113000D02*
X21463000Y12954000D01*
X23622000Y16764000D02*
X23622000Y15113000D01*
X37465000Y22987000D02*
X37084000Y22606000D01*
X40640000Y22987000D02*
X37465000Y22987000D01*
X42926000Y20701000D02*
X40640000Y22987000D01*
D20*
G04 #@! TO.N,+5V*
X6604000Y25400000D02*
X4318000Y25400000D01*
X7747000Y24257000D02*
X6604000Y25400000D01*
X7747000Y17272000D02*
X7747000Y24257000D01*
X8890000Y16129000D02*
X7747000Y17272000D01*
G04 #@! TO.N,Net-(J1-Pad3)*
X6081000Y18400000D02*
X4318000Y18400000D01*
X6096000Y18415000D02*
X6081000Y18400000D01*
D21*
G04 #@! TO.N,/GPIO0*
X27686000Y3810000D02*
X27686000Y9017000D01*
X28448000Y3048000D02*
X27686000Y3810000D01*
X38481000Y18796000D02*
X37211000Y17526000D01*
X37211000Y17526000D02*
X36830000Y17526000D01*
X38481000Y20828000D02*
X38481000Y18796000D01*
X37973000Y21336000D02*
X38481000Y20828000D01*
X37973000Y21336000D02*
X36830000Y21336000D01*
X36830000Y21336000D02*
X35814000Y22352000D01*
X35814000Y22352000D02*
X35814000Y28448000D01*
D22*
G04 #@! TO.N,/UTXD*
X32258000Y7874000D02*
X29083000Y7874000D01*
D21*
G04 #@! TO.N,Net-(R10-Pad2)*
X18542000Y18542000D02*
X19304000Y19304000D01*
X11684000Y18542000D02*
X18542000Y18542000D01*
X10541000Y19685000D02*
X11684000Y18542000D01*
G04 #@! TO.N,/D-*
X10033000Y7620000D02*
X10033000Y5334000D01*
G04 #@! TO.N,WLED*
X34417000Y22606000D02*
X34417000Y24638000D01*
X37211000Y19812000D02*
X34417000Y22606000D01*
D20*
G04 #@! TO.N,/5VOUT*
X18542000Y29972000D02*
X19177000Y30607000D01*
X16510000Y27940000D02*
X18542000Y29972000D01*
X16510000Y21463000D02*
X16510000Y27940000D01*
G04 #@! TD*
D23*
G04 #@! TO.N,GND*
X23724667Y30513000D02*
X41045334Y30513000D01*
X41045334Y32756075D01*
X45953000Y32756075D01*
X45953000Y32543925D01*
X45994389Y32335851D01*
X46075575Y32139849D01*
X46193440Y31963453D01*
X46343453Y31813440D01*
X46438397Y31750000D01*
X46343453Y31686560D01*
X46193440Y31536547D01*
X46075575Y31360151D01*
X45994389Y31164149D01*
X45953000Y30956075D01*
X45953000Y30743925D01*
X45994389Y30535851D01*
X46075575Y30339849D01*
X46193440Y30163453D01*
X46343453Y30013440D01*
X46519849Y29895575D01*
X46715851Y29814389D01*
X46923925Y29773000D01*
X47136075Y29773000D01*
X47344149Y29814389D01*
X47540151Y29895575D01*
X47716547Y30013440D01*
X47866560Y30163453D01*
X47984425Y30339849D01*
X48065611Y30535851D01*
X48107000Y30743925D01*
X48107000Y30956075D01*
X48065611Y31164149D01*
X47984425Y31360151D01*
X47866560Y31536547D01*
X47716547Y31686560D01*
X47621603Y31750000D01*
X47716547Y31813440D01*
X47866560Y31963453D01*
X47984425Y32139849D01*
X48065611Y32335851D01*
X48107000Y32543925D01*
X48107000Y32756075D01*
X48065611Y32964149D01*
X47984425Y33160151D01*
X47866560Y33336547D01*
X47716547Y33486560D01*
X47540151Y33604425D01*
X47344149Y33685611D01*
X47136075Y33727000D01*
X46923925Y33727000D01*
X46715851Y33685611D01*
X46519849Y33604425D01*
X46343453Y33486560D01*
X46193440Y33336547D01*
X46075575Y33160151D01*
X45994389Y32964149D01*
X45953000Y32756075D01*
X41045334Y32756075D01*
X41045334Y34808000D01*
X56388000Y34808000D01*
X56388000Y4168892D01*
X56305797Y3970437D01*
X56201000Y3443586D01*
X56201000Y2906414D01*
X56305797Y2379563D01*
X56388000Y2181108D01*
X56388000Y752000D01*
X752000Y752000D01*
X752000Y1645983D01*
X885888Y1536104D01*
X1185908Y1375740D01*
X1511449Y1276988D01*
X1765159Y1252000D01*
X2934841Y1252000D01*
X3188551Y1276988D01*
X3514092Y1375740D01*
X3814112Y1536104D01*
X4077082Y1751918D01*
X4292896Y2014888D01*
X4453260Y2314908D01*
X4552012Y2640449D01*
X4582697Y2952000D01*
X5590268Y2952000D01*
X5770534Y2969755D01*
X6001824Y3039916D01*
X6214983Y3153851D01*
X6401817Y3307183D01*
X6555149Y3494017D01*
X6669084Y3707176D01*
X6739245Y3938466D01*
X6762936Y4179000D01*
X6739245Y4419534D01*
X6669084Y4650824D01*
X6555149Y4863983D01*
X6401817Y5050817D01*
X6214983Y5204149D01*
X6001824Y5318084D01*
X5770534Y5388245D01*
X5590268Y5406000D01*
X4469732Y5406000D01*
X4289466Y5388245D01*
X4058176Y5318084D01*
X3845017Y5204149D01*
X3658183Y5050817D01*
X3504851Y4863983D01*
X3390916Y4650824D01*
X3382249Y4622254D01*
X3188551Y4681012D01*
X2934841Y4706000D01*
X1765159Y4706000D01*
X1511449Y4681012D01*
X1185908Y4582260D01*
X885888Y4421896D01*
X752000Y4312017D01*
X752000Y7750698D01*
X8706000Y7750698D01*
X8706000Y7489302D01*
X8756996Y7232928D01*
X8857028Y6991430D01*
X9002252Y6774087D01*
X9131000Y6645339D01*
X9131001Y6308662D01*
X9002252Y6179913D01*
X8857028Y5962570D01*
X8756996Y5721072D01*
X8706000Y5464698D01*
X8706000Y5203302D01*
X8756996Y4946928D01*
X8857028Y4705430D01*
X9002252Y4488087D01*
X9187087Y4303252D01*
X9404430Y4158028D01*
X9645928Y4057996D01*
X9902302Y4007000D01*
X10163698Y4007000D01*
X10420072Y4057996D01*
X10661570Y4158028D01*
X10878913Y4303252D01*
X11063748Y4488087D01*
X11208972Y4705430D01*
X11309004Y4946928D01*
X11360000Y5203302D01*
X11360000Y5464698D01*
X11309004Y5721072D01*
X11208972Y5962570D01*
X11063748Y6179913D01*
X10935000Y6308661D01*
X10935000Y6645339D01*
X11063748Y6774087D01*
X11208972Y6991430D01*
X11309004Y7232928D01*
X11360000Y7489302D01*
X11360000Y7750698D01*
X11309004Y8007072D01*
X11208972Y8248570D01*
X11117346Y8385698D01*
X19120000Y8385698D01*
X19120000Y8124302D01*
X19170996Y7867928D01*
X19271028Y7626430D01*
X19416252Y7409087D01*
X19601087Y7224252D01*
X19818430Y7079028D01*
X20059928Y6978996D01*
X20180001Y6955112D01*
X20180000Y6140300D01*
X20175637Y6096000D01*
X20180000Y6051701D01*
X20180000Y6051694D01*
X20193052Y5919178D01*
X20244629Y5749151D01*
X20328386Y5592452D01*
X20441104Y5455104D01*
X20475523Y5426857D01*
X20644000Y5258380D01*
X20644000Y5076302D01*
X20694996Y4819928D01*
X20795028Y4578430D01*
X20940252Y4361087D01*
X21125087Y4176252D01*
X21342430Y4031028D01*
X21583928Y3930996D01*
X21840302Y3880000D01*
X22101698Y3880000D01*
X22358072Y3930996D01*
X22599570Y4031028D01*
X22816913Y4176252D01*
X23001748Y4361087D01*
X23146972Y4578430D01*
X23247004Y4819928D01*
X23298000Y5076302D01*
X23298000Y5337698D01*
X23247004Y5594072D01*
X23146972Y5835570D01*
X23001748Y6052913D01*
X22816913Y6237748D01*
X22599570Y6382972D01*
X22358072Y6483004D01*
X22101698Y6534000D01*
X21984000Y6534000D01*
X21984000Y7575693D01*
X21988364Y7620000D01*
X21970948Y7796823D01*
X21963992Y7819755D01*
X21919371Y7966850D01*
X21835614Y8123549D01*
X21808011Y8157183D01*
X21774000Y8198626D01*
X21774000Y8385698D01*
X21723004Y8642072D01*
X21622972Y8883570D01*
X21477748Y9100913D01*
X21430963Y9147698D01*
X26359000Y9147698D01*
X26359000Y8886302D01*
X26409996Y8629928D01*
X26510028Y8388430D01*
X26655252Y8171087D01*
X26784001Y8042338D01*
X26784000Y3854300D01*
X26779637Y3810000D01*
X26784000Y3765701D01*
X26784000Y3765694D01*
X26797052Y3633178D01*
X26848629Y3463151D01*
X26932386Y3306452D01*
X27045104Y3169104D01*
X27079523Y3140857D01*
X27121000Y3099380D01*
X27121000Y2917302D01*
X27171996Y2660928D01*
X27272028Y2419430D01*
X27417252Y2202087D01*
X27602087Y2017252D01*
X27819430Y1872028D01*
X28060928Y1771996D01*
X28317302Y1721000D01*
X28578698Y1721000D01*
X28835072Y1771996D01*
X29076570Y1872028D01*
X29293913Y2017252D01*
X29478748Y2202087D01*
X29623972Y2419430D01*
X29724004Y2660928D01*
X29775000Y2917302D01*
X29775000Y3178698D01*
X29724004Y3435072D01*
X29623972Y3676570D01*
X29478748Y3893913D01*
X29293913Y4078748D01*
X29140770Y4181075D01*
X45953000Y4181075D01*
X45953000Y3968925D01*
X45994389Y3760851D01*
X46075575Y3564849D01*
X46193440Y3388453D01*
X46343453Y3238440D01*
X46438397Y3175000D01*
X46343453Y3111560D01*
X46193440Y2961547D01*
X46075575Y2785151D01*
X45994389Y2589149D01*
X45953000Y2381075D01*
X45953000Y2168925D01*
X45994389Y1960851D01*
X46075575Y1764849D01*
X46193440Y1588453D01*
X46343453Y1438440D01*
X46519849Y1320575D01*
X46715851Y1239389D01*
X46923925Y1198000D01*
X47136075Y1198000D01*
X47344149Y1239389D01*
X47540151Y1320575D01*
X47716547Y1438440D01*
X47866560Y1588453D01*
X47984425Y1764849D01*
X48065611Y1960851D01*
X48107000Y2168925D01*
X48107000Y2381075D01*
X48065611Y2589149D01*
X47984425Y2785151D01*
X47866560Y2961547D01*
X47716547Y3111560D01*
X47621603Y3175000D01*
X47716547Y3238440D01*
X47866560Y3388453D01*
X47984425Y3564849D01*
X48065611Y3760851D01*
X48107000Y3968925D01*
X48107000Y4181075D01*
X48065611Y4389149D01*
X47984425Y4585151D01*
X47866560Y4761547D01*
X47716547Y4911560D01*
X47540151Y5029425D01*
X47344149Y5110611D01*
X47136075Y5152000D01*
X46923925Y5152000D01*
X46715851Y5110611D01*
X46519849Y5029425D01*
X46343453Y4911560D01*
X46193440Y4761547D01*
X46075575Y4585151D01*
X45994389Y4389149D01*
X45953000Y4181075D01*
X29140770Y4181075D01*
X29076570Y4223972D01*
X28835072Y4324004D01*
X28588000Y4373150D01*
X28588000Y6642701D01*
X28695928Y6597996D01*
X28952302Y6547000D01*
X29213698Y6547000D01*
X29470072Y6597996D01*
X29711570Y6698028D01*
X29928913Y6843252D01*
X30107661Y7022000D01*
X31233339Y7022000D01*
X31412087Y6843252D01*
X31629430Y6698028D01*
X31870928Y6597996D01*
X32127302Y6547000D01*
X32388698Y6547000D01*
X32645072Y6597996D01*
X32886570Y6698028D01*
X33103913Y6843252D01*
X33288748Y7028087D01*
X33433972Y7245430D01*
X33534004Y7486928D01*
X33585000Y7743302D01*
X33585000Y8004698D01*
X33534004Y8261072D01*
X33433972Y8502570D01*
X33288748Y8719913D01*
X33103913Y8904748D01*
X32886570Y9049972D01*
X32645072Y9150004D01*
X32388698Y9201000D01*
X32127302Y9201000D01*
X31870928Y9150004D01*
X31629430Y9049972D01*
X31412087Y8904748D01*
X31233339Y8726000D01*
X30107661Y8726000D01*
X29928913Y8904748D01*
X29711570Y9049972D01*
X29470072Y9150004D01*
X29213698Y9201000D01*
X29002398Y9201000D01*
X28962004Y9404072D01*
X28861972Y9645570D01*
X28716748Y9862913D01*
X28531913Y10047748D01*
X28314570Y10192972D01*
X28073072Y10293004D01*
X27816698Y10344000D01*
X27555302Y10344000D01*
X27298928Y10293004D01*
X27057430Y10192972D01*
X26840087Y10047748D01*
X26655252Y9862913D01*
X26510028Y9645570D01*
X26409996Y9404072D01*
X26359000Y9147698D01*
X21430963Y9147698D01*
X21292913Y9285748D01*
X21075570Y9430972D01*
X20834072Y9531004D01*
X20577698Y9582000D01*
X20316302Y9582000D01*
X20059928Y9531004D01*
X19818430Y9430972D01*
X19601087Y9285748D01*
X19416252Y9100913D01*
X19271028Y8883570D01*
X19170996Y8642072D01*
X19120000Y8385698D01*
X11117346Y8385698D01*
X11063748Y8465913D01*
X10878913Y8650748D01*
X10661570Y8795972D01*
X10420072Y8896004D01*
X10163698Y8947000D01*
X9902302Y8947000D01*
X9645928Y8896004D01*
X9404430Y8795972D01*
X9187087Y8650748D01*
X9002252Y8465913D01*
X8857028Y8248570D01*
X8756996Y8007072D01*
X8706000Y7750698D01*
X752000Y7750698D01*
X752000Y8895983D01*
X885888Y8786104D01*
X1185908Y8625740D01*
X1511449Y8526988D01*
X1765159Y8502000D01*
X2934841Y8502000D01*
X3188551Y8526988D01*
X3382249Y8585746D01*
X3390916Y8557176D01*
X3504851Y8344017D01*
X3658183Y8157183D01*
X3845017Y8003851D01*
X4058176Y7889916D01*
X4289466Y7819755D01*
X4469732Y7802000D01*
X5590268Y7802000D01*
X5770534Y7819755D01*
X6001824Y7889916D01*
X6214983Y8003851D01*
X6401817Y8157183D01*
X6555149Y8344017D01*
X6669084Y8557176D01*
X6739245Y8788466D01*
X6762936Y9029000D01*
X6739245Y9269534D01*
X6669084Y9500824D01*
X6555149Y9713983D01*
X6401817Y9900817D01*
X6214983Y10054149D01*
X6001824Y10168084D01*
X5770534Y10238245D01*
X5590268Y10256000D01*
X4582697Y10256000D01*
X4552012Y10567551D01*
X4453260Y10893092D01*
X4300066Y11179698D01*
X40964000Y11179698D01*
X40964000Y10918302D01*
X41014996Y10661928D01*
X41115028Y10420430D01*
X41260252Y10203087D01*
X41445087Y10018252D01*
X41662430Y9873028D01*
X41903928Y9772996D01*
X42160302Y9722000D01*
X42421698Y9722000D01*
X42678072Y9772996D01*
X42919570Y9873028D01*
X43136913Y10018252D01*
X43312035Y10193374D01*
X43348849Y10197000D01*
X43348852Y10197000D01*
X43474021Y10209328D01*
X43634624Y10258046D01*
X43782636Y10337161D01*
X43912370Y10443630D01*
X43939055Y10476146D01*
X45023607Y11560698D01*
X48330000Y11560698D01*
X48330000Y11299302D01*
X48380996Y11042928D01*
X48481028Y10801430D01*
X48626252Y10584087D01*
X48811087Y10399252D01*
X49028430Y10254028D01*
X49269928Y10153996D01*
X49526302Y10103000D01*
X49787698Y10103000D01*
X50044072Y10153996D01*
X50285570Y10254028D01*
X50502913Y10399252D01*
X50687748Y10584087D01*
X50832972Y10801430D01*
X50933004Y11042928D01*
X50984000Y11299302D01*
X50984000Y11560698D01*
X50933004Y11817072D01*
X50832972Y12058570D01*
X50687748Y12275913D01*
X50559000Y12404661D01*
X50559000Y14669869D01*
X50629913Y14717252D01*
X50814748Y14902087D01*
X50959972Y15119430D01*
X51060004Y15360928D01*
X51111000Y15617302D01*
X51111000Y15878698D01*
X51060004Y16135072D01*
X50959972Y16376570D01*
X50814748Y16593913D01*
X50629913Y16778748D01*
X50412570Y16923972D01*
X50171072Y17024004D01*
X49914698Y17075000D01*
X49653302Y17075000D01*
X49396928Y17024004D01*
X49155430Y16923972D01*
X48938087Y16778748D01*
X48753252Y16593913D01*
X48608028Y16376570D01*
X48507996Y16135072D01*
X48457000Y15878698D01*
X48457000Y15617302D01*
X48507996Y15360928D01*
X48608028Y15119430D01*
X48753252Y14902087D01*
X48755001Y14900338D01*
X48755000Y12404661D01*
X48626252Y12275913D01*
X48481028Y12058570D01*
X48380996Y11817072D01*
X48330000Y11560698D01*
X45023607Y11560698D01*
X45430144Y11967234D01*
X45586570Y12032028D01*
X45803913Y12177252D01*
X45988748Y12362087D01*
X46133972Y12579430D01*
X46234004Y12820928D01*
X46285000Y13077302D01*
X46285000Y13338698D01*
X46234004Y13595072D01*
X46133972Y13836570D01*
X45988748Y14053913D01*
X45803913Y14238748D01*
X45586570Y14383972D01*
X45345072Y14484004D01*
X45088698Y14535000D01*
X44827302Y14535000D01*
X44570928Y14484004D01*
X44329430Y14383972D01*
X44112087Y14238748D01*
X43927252Y14053913D01*
X43782028Y13836570D01*
X43681996Y13595072D01*
X43631000Y13338698D01*
X43631000Y13077302D01*
X43681996Y12820928D01*
X43738238Y12685148D01*
X43134471Y12081380D01*
X42919570Y12224972D01*
X42678072Y12325004D01*
X42421698Y12376000D01*
X42160302Y12376000D01*
X41903928Y12325004D01*
X41662430Y12224972D01*
X41445087Y12079748D01*
X41260252Y11894913D01*
X41115028Y11677570D01*
X41014996Y11436072D01*
X40964000Y11179698D01*
X4300066Y11179698D01*
X4292896Y11193112D01*
X4077082Y11456082D01*
X3814112Y11671896D01*
X3514092Y11832260D01*
X3188551Y11931012D01*
X2934841Y11956000D01*
X1765159Y11956000D01*
X1511449Y11931012D01*
X1185908Y11832260D01*
X885888Y11671896D01*
X752000Y11562017D01*
X752000Y13543045D01*
X3205704Y13543045D01*
X3324369Y13238059D01*
X3667689Y13076145D01*
X4036002Y12984320D01*
X4415150Y12966115D01*
X4790566Y13022226D01*
X4964556Y13084698D01*
X20136000Y13084698D01*
X20136000Y12823302D01*
X20186996Y12566928D01*
X20287028Y12325430D01*
X20432252Y12108087D01*
X20617087Y11923252D01*
X20834430Y11778028D01*
X21075928Y11677996D01*
X21332302Y11627000D01*
X21593698Y11627000D01*
X21850072Y11677996D01*
X22091570Y11778028D01*
X22308913Y11923252D01*
X22493748Y12108087D01*
X22638972Y12325430D01*
X22739004Y12566928D01*
X22790000Y12823302D01*
X22790000Y13005380D01*
X24228482Y14443861D01*
X24262896Y14472104D01*
X24375614Y14609451D01*
X24459371Y14766150D01*
X24510948Y14936177D01*
X24524000Y15068693D01*
X24524000Y15068700D01*
X24528363Y15112999D01*
X24524000Y15157299D01*
X24524000Y15789339D01*
X24652748Y15918087D01*
X24797972Y16135430D01*
X24898004Y16376928D01*
X24949000Y16633302D01*
X24949000Y16894698D01*
X24898004Y17151072D01*
X24797972Y17392570D01*
X24652748Y17609913D01*
X24467913Y17794748D01*
X24250570Y17939972D01*
X24009072Y18040004D01*
X23752698Y18091000D01*
X23491302Y18091000D01*
X23234928Y18040004D01*
X22993430Y17939972D01*
X22776087Y17794748D01*
X22591252Y17609913D01*
X22446028Y17392570D01*
X22345996Y17151072D01*
X22295000Y16894698D01*
X22295000Y16633302D01*
X22345996Y16376928D01*
X22446028Y16135430D01*
X22591252Y15918087D01*
X22720001Y15789338D01*
X22720001Y15486622D01*
X21514380Y14281000D01*
X21332302Y14281000D01*
X21075928Y14230004D01*
X20834430Y14129972D01*
X20617087Y13984748D01*
X20432252Y13799913D01*
X20287028Y13582570D01*
X20186996Y13341072D01*
X20136000Y13084698D01*
X4964556Y13084698D01*
X5147821Y13150500D01*
X5311631Y13238059D01*
X5430296Y13543045D01*
X4318000Y14655341D01*
X3205704Y13543045D01*
X752000Y13543045D01*
X752000Y14802850D01*
X2384115Y14802850D01*
X2440226Y14427434D01*
X2568500Y14070179D01*
X2656059Y13906369D01*
X2961045Y13787704D01*
X4073341Y14900000D01*
X4562659Y14900000D01*
X5674955Y13787704D01*
X5979941Y13906369D01*
X6141855Y14249689D01*
X6233680Y14618002D01*
X6251885Y14997150D01*
X6195774Y15372566D01*
X6067500Y15729821D01*
X5979941Y15893631D01*
X5674955Y16012296D01*
X4562659Y14900000D01*
X4073341Y14900000D01*
X2961045Y16012296D01*
X2656059Y15893631D01*
X2494145Y15550311D01*
X2402320Y15181998D01*
X2384115Y14802850D01*
X752000Y14802850D01*
X752000Y22596349D01*
X834724Y22441582D01*
X956814Y22292814D01*
X994098Y22262216D01*
X2013220Y21243093D01*
X2043814Y21205814D01*
X2192582Y21083724D01*
X2362309Y20993003D01*
X2546475Y20937137D01*
X2650636Y20926878D01*
X2821201Y20671609D01*
X3089609Y20403201D01*
X3405223Y20192315D01*
X3507380Y20150000D01*
X3405223Y20107685D01*
X3089609Y19896799D01*
X2821201Y19628391D01*
X2610315Y19312777D01*
X2465053Y18962085D01*
X2391000Y18589793D01*
X2391000Y18210207D01*
X2465053Y17837915D01*
X2610315Y17487223D01*
X2821201Y17171609D01*
X3089609Y16903201D01*
X3405223Y16692315D01*
X3499111Y16653425D01*
X3488179Y16649500D01*
X3324369Y16561941D01*
X3205704Y16256955D01*
X4318000Y15144659D01*
X5430296Y16256955D01*
X5311631Y16561941D01*
X5126646Y16649182D01*
X5230777Y16692315D01*
X5546391Y16903201D01*
X5607655Y16964465D01*
X5650590Y16946681D01*
X5945604Y16888000D01*
X6246396Y16888000D01*
X6541410Y16946681D01*
X6793098Y17050934D01*
X6816159Y16974913D01*
X6840003Y16896310D01*
X6930724Y16726582D01*
X7052814Y16577814D01*
X7090098Y16547216D01*
X7563000Y16074314D01*
X7563000Y15998302D01*
X7613996Y15741928D01*
X7714028Y15500430D01*
X7859252Y15283087D01*
X8044087Y15098252D01*
X8261430Y14953028D01*
X8502928Y14852996D01*
X8759302Y14802000D01*
X9020698Y14802000D01*
X9277072Y14852996D01*
X9518570Y14953028D01*
X9735913Y15098252D01*
X9920748Y15283087D01*
X10065972Y15500430D01*
X10166004Y15741928D01*
X10217000Y15998302D01*
X10217000Y16259698D01*
X10166004Y16516072D01*
X10065972Y16757570D01*
X9920748Y16974913D01*
X9735913Y17159748D01*
X9518570Y17304972D01*
X9277072Y17405004D01*
X9020698Y17456000D01*
X8944686Y17456000D01*
X8724000Y17676686D01*
X8724000Y19815698D01*
X9214000Y19815698D01*
X9214000Y19554302D01*
X9264996Y19297928D01*
X9365028Y19056430D01*
X9510252Y18839087D01*
X9695087Y18654252D01*
X9912430Y18509028D01*
X10153928Y18408996D01*
X10410302Y18358000D01*
X10592379Y18358000D01*
X11014861Y17935518D01*
X11043104Y17901104D01*
X11077517Y17872862D01*
X11077519Y17872860D01*
X11099791Y17854582D01*
X11180451Y17788386D01*
X11337150Y17704629D01*
X11507177Y17653052D01*
X11639693Y17640000D01*
X11639700Y17640000D01*
X11683999Y17635637D01*
X11728299Y17640000D01*
X18497701Y17640000D01*
X18542000Y17635637D01*
X18586299Y17640000D01*
X18586307Y17640000D01*
X18718823Y17653052D01*
X18888850Y17704629D01*
X19045549Y17788386D01*
X19182896Y17901104D01*
X19211143Y17935523D01*
X19252620Y17977000D01*
X19434698Y17977000D01*
X19691072Y18027996D01*
X19932570Y18128028D01*
X20149913Y18273252D01*
X20334748Y18458087D01*
X20479972Y18675430D01*
X20580004Y18916928D01*
X20631000Y19173302D01*
X20631000Y19434698D01*
X20580004Y19691072D01*
X20479972Y19932570D01*
X20334748Y20149913D01*
X20149913Y20334748D01*
X19932570Y20479972D01*
X19691072Y20580004D01*
X19434698Y20631000D01*
X19173302Y20631000D01*
X18916928Y20580004D01*
X18675430Y20479972D01*
X18458087Y20334748D01*
X18273252Y20149913D01*
X18128028Y19932570D01*
X18027996Y19691072D01*
X17978850Y19444000D01*
X12057621Y19444000D01*
X11868000Y19633621D01*
X11868000Y19815698D01*
X11817004Y20072072D01*
X11716972Y20313570D01*
X11571748Y20530913D01*
X11386913Y20715748D01*
X11169570Y20860972D01*
X10928072Y20961004D01*
X10671698Y21012000D01*
X10410302Y21012000D01*
X10153928Y20961004D01*
X9912430Y20860972D01*
X9695087Y20715748D01*
X9510252Y20530913D01*
X9365028Y20313570D01*
X9264996Y20072072D01*
X9214000Y19815698D01*
X8724000Y19815698D01*
X8724000Y21593698D01*
X15183000Y21593698D01*
X15183000Y21332302D01*
X15233996Y21075928D01*
X15334028Y20834430D01*
X15479252Y20617087D01*
X15664087Y20432252D01*
X15881430Y20287028D01*
X16122928Y20186996D01*
X16379302Y20136000D01*
X16640698Y20136000D01*
X16897072Y20186996D01*
X17138570Y20287028D01*
X17355913Y20432252D01*
X17540748Y20617087D01*
X17685972Y20834430D01*
X17786004Y21075928D01*
X17837000Y21332302D01*
X17837000Y21593698D01*
X17786004Y21850072D01*
X17685972Y22091570D01*
X17540748Y22308913D01*
X17487000Y22362661D01*
X17487000Y24768698D01*
X33090000Y24768698D01*
X33090000Y24507302D01*
X33140996Y24250928D01*
X33241028Y24009430D01*
X33386252Y23792087D01*
X33515001Y23663338D01*
X33515000Y22650300D01*
X33510637Y22606000D01*
X33515000Y22561701D01*
X33515000Y22561694D01*
X33528052Y22429178D01*
X33579629Y22259151D01*
X33663386Y22102452D01*
X33776104Y21965104D01*
X33810523Y21936857D01*
X35884000Y19863379D01*
X35884000Y19681302D01*
X35934996Y19424928D01*
X36035028Y19183430D01*
X36180252Y18966087D01*
X36365087Y18781252D01*
X36375703Y18774158D01*
X36201430Y18701972D01*
X35984087Y18556748D01*
X35799252Y18371913D01*
X35654028Y18154570D01*
X35553996Y17913072D01*
X35503000Y17656698D01*
X35503000Y17395302D01*
X35553996Y17138928D01*
X35654028Y16897430D01*
X35799252Y16680087D01*
X35984087Y16495252D01*
X36201430Y16350028D01*
X36442928Y16249996D01*
X36699302Y16199000D01*
X36960698Y16199000D01*
X37217072Y16249996D01*
X37458570Y16350028D01*
X37675913Y16495252D01*
X37860748Y16680087D01*
X38005972Y16897430D01*
X38106004Y17138928D01*
X38107607Y17146987D01*
X39087477Y18126857D01*
X39121896Y18155104D01*
X39234614Y18292451D01*
X39318371Y18449150D01*
X39369948Y18619177D01*
X39383000Y18751693D01*
X39383000Y18751700D01*
X39387363Y18795999D01*
X39383000Y18840299D01*
X39383000Y20783701D01*
X39387363Y20828001D01*
X39383000Y20872301D01*
X39383000Y20872307D01*
X39369948Y21004823D01*
X39318371Y21174850D01*
X39300000Y21209220D01*
X39300000Y21466698D01*
X39249004Y21723072D01*
X39148972Y21964570D01*
X39068503Y22085000D01*
X40266380Y22085000D01*
X41599000Y20752380D01*
X41599000Y20570302D01*
X41649996Y20313928D01*
X41750028Y20072430D01*
X41895252Y19855087D01*
X42080087Y19670252D01*
X42297430Y19525028D01*
X42538928Y19424996D01*
X42795302Y19374000D01*
X43056698Y19374000D01*
X43313072Y19424996D01*
X43554570Y19525028D01*
X43771913Y19670252D01*
X43956748Y19855087D01*
X44101972Y20072430D01*
X44202004Y20313928D01*
X44253000Y20570302D01*
X44253000Y20831698D01*
X44202004Y21088072D01*
X44101972Y21329570D01*
X43956748Y21546913D01*
X43771913Y21731748D01*
X43554570Y21876972D01*
X43313072Y21977004D01*
X43056698Y22028000D01*
X42874620Y22028000D01*
X41309143Y23593477D01*
X41280896Y23627896D01*
X41143549Y23740614D01*
X40986850Y23824371D01*
X40816823Y23875948D01*
X40684307Y23889000D01*
X40684299Y23889000D01*
X40640000Y23893363D01*
X40595701Y23889000D01*
X37509299Y23889000D01*
X37464999Y23893363D01*
X37430867Y23890001D01*
X37214698Y23933000D01*
X36953302Y23933000D01*
X36716000Y23885798D01*
X36716000Y27473339D01*
X36844748Y27602087D01*
X36989972Y27819430D01*
X37090004Y28060928D01*
X37141000Y28317302D01*
X37141000Y28578698D01*
X37090004Y28835072D01*
X36989972Y29076570D01*
X36844748Y29293913D01*
X36659913Y29478748D01*
X36442570Y29623972D01*
X36201072Y29724004D01*
X35944698Y29775000D01*
X35683302Y29775000D01*
X35426928Y29724004D01*
X35185430Y29623972D01*
X34968087Y29478748D01*
X34783252Y29293913D01*
X34638028Y29076570D01*
X34537996Y28835072D01*
X34487000Y28578698D01*
X34487000Y28317302D01*
X34537996Y28060928D01*
X34638028Y27819430D01*
X34783252Y27602087D01*
X34912001Y27473338D01*
X34912001Y25869298D01*
X34804072Y25914004D01*
X34547698Y25965000D01*
X34286302Y25965000D01*
X34029928Y25914004D01*
X33788430Y25813972D01*
X33571087Y25668748D01*
X33386252Y25483913D01*
X33241028Y25266570D01*
X33140996Y25025072D01*
X33090000Y24768698D01*
X17487000Y24768698D01*
X17487000Y27535314D01*
X19231687Y29280000D01*
X19307698Y29280000D01*
X19564072Y29330996D01*
X19805570Y29431028D01*
X20022913Y29576252D01*
X20207748Y29761087D01*
X20352972Y29978430D01*
X20453004Y30219928D01*
X20504000Y30476302D01*
X20504000Y30737698D01*
X20453004Y30994072D01*
X20352972Y31235570D01*
X20207748Y31452913D01*
X20022913Y31637748D01*
X19805570Y31782972D01*
X19564072Y31883004D01*
X19307698Y31934000D01*
X19046302Y31934000D01*
X18789928Y31883004D01*
X18548430Y31782972D01*
X18331087Y31637748D01*
X18146252Y31452913D01*
X18001028Y31235570D01*
X17900996Y30994072D01*
X17850000Y30737698D01*
X17850000Y30661687D01*
X15853093Y28664779D01*
X15815815Y28634186D01*
X15785222Y28596908D01*
X15785221Y28596907D01*
X15693725Y28485418D01*
X15603003Y28315690D01*
X15547137Y28131525D01*
X15528273Y27940000D01*
X15533001Y27891997D01*
X15533000Y22362661D01*
X15479252Y22308913D01*
X15334028Y22091570D01*
X15233996Y21850072D01*
X15183000Y21593698D01*
X8724000Y21593698D01*
X8724000Y24209010D01*
X8728727Y24257001D01*
X8724000Y24304993D01*
X8709863Y24448525D01*
X8653997Y24632691D01*
X8563276Y24802418D01*
X8441186Y24951186D01*
X8403907Y24981780D01*
X7328784Y26056902D01*
X7298186Y26094186D01*
X7149418Y26216276D01*
X6979691Y26306997D01*
X6795525Y26362863D01*
X6651993Y26377000D01*
X6604000Y26381727D01*
X6556007Y26377000D01*
X6248517Y26377000D01*
X6248517Y26600000D01*
X6234480Y26742517D01*
X6192910Y26879557D01*
X6125403Y27005853D01*
X6034554Y27116554D01*
X5923853Y27207403D01*
X5797557Y27274910D01*
X5660517Y27316480D01*
X5518000Y27330517D01*
X3118000Y27330517D01*
X2975483Y27316480D01*
X2838443Y27274910D01*
X2712147Y27207403D01*
X2628000Y27138346D01*
X2628000Y29186314D01*
X3661170Y30219483D01*
X4610000Y30219483D01*
X4752517Y30233520D01*
X4889557Y30275090D01*
X5015853Y30342597D01*
X5126554Y30433446D01*
X5217403Y30544147D01*
X5262465Y30628451D01*
X5347789Y30543127D01*
X5483726Y30679064D01*
X5553820Y30414882D01*
X5828818Y30293012D01*
X6122308Y30227134D01*
X6423011Y30219778D01*
X6719371Y30271229D01*
X6999998Y30379508D01*
X7066180Y30414882D01*
X7136275Y30679066D01*
X6310000Y31505341D01*
X6295858Y31491199D01*
X6051199Y31735858D01*
X6065341Y31750000D01*
X6554659Y31750000D01*
X7380934Y30923725D01*
X7645118Y30993820D01*
X7766988Y31268818D01*
X7832866Y31562308D01*
X7840222Y31863011D01*
X7788771Y32159371D01*
X7680492Y32439998D01*
X7645118Y32506180D01*
X7380934Y32576275D01*
X6554659Y31750000D01*
X6065341Y31750000D01*
X6051199Y31764142D01*
X6295858Y32008801D01*
X6310000Y31994659D01*
X7136275Y32820934D01*
X7066180Y33085118D01*
X6791182Y33206988D01*
X6497692Y33272866D01*
X6196989Y33280222D01*
X5900629Y33228771D01*
X5620002Y33120492D01*
X5553820Y33085118D01*
X5483726Y32820936D01*
X5347789Y32956873D01*
X5262465Y32871549D01*
X5217403Y32955853D01*
X5126554Y33066554D01*
X5015853Y33157403D01*
X4889557Y33224910D01*
X4752517Y33266480D01*
X4610000Y33280517D01*
X3010000Y33280517D01*
X2867483Y33266480D01*
X2730443Y33224910D01*
X2604147Y33157403D01*
X2493446Y33066554D01*
X2402597Y32955853D01*
X2335090Y32829557D01*
X2293520Y32692517D01*
X2279483Y32550000D01*
X2279483Y31601170D01*
X994093Y30315779D01*
X956815Y30285186D01*
X926222Y30247908D01*
X926221Y30247907D01*
X834725Y30136418D01*
X752000Y29981651D01*
X752000Y34808000D01*
X23724667Y34808000D01*
X23724667Y30513000D01*
G04 #@! TA.AperFunction,Conductor*
D24*
G36*
X23724667Y30513000D02*
G01*
X41045334Y30513000D01*
X41045334Y32756075D01*
X45953000Y32756075D01*
X45953000Y32543925D01*
X45994389Y32335851D01*
X46075575Y32139849D01*
X46193440Y31963453D01*
X46343453Y31813440D01*
X46438397Y31750000D01*
X46343453Y31686560D01*
X46193440Y31536547D01*
X46075575Y31360151D01*
X45994389Y31164149D01*
X45953000Y30956075D01*
X45953000Y30743925D01*
X45994389Y30535851D01*
X46075575Y30339849D01*
X46193440Y30163453D01*
X46343453Y30013440D01*
X46519849Y29895575D01*
X46715851Y29814389D01*
X46923925Y29773000D01*
X47136075Y29773000D01*
X47344149Y29814389D01*
X47540151Y29895575D01*
X47716547Y30013440D01*
X47866560Y30163453D01*
X47984425Y30339849D01*
X48065611Y30535851D01*
X48107000Y30743925D01*
X48107000Y30956075D01*
X48065611Y31164149D01*
X47984425Y31360151D01*
X47866560Y31536547D01*
X47716547Y31686560D01*
X47621603Y31750000D01*
X47716547Y31813440D01*
X47866560Y31963453D01*
X47984425Y32139849D01*
X48065611Y32335851D01*
X48107000Y32543925D01*
X48107000Y32756075D01*
X48065611Y32964149D01*
X47984425Y33160151D01*
X47866560Y33336547D01*
X47716547Y33486560D01*
X47540151Y33604425D01*
X47344149Y33685611D01*
X47136075Y33727000D01*
X46923925Y33727000D01*
X46715851Y33685611D01*
X46519849Y33604425D01*
X46343453Y33486560D01*
X46193440Y33336547D01*
X46075575Y33160151D01*
X45994389Y32964149D01*
X45953000Y32756075D01*
X41045334Y32756075D01*
X41045334Y34808000D01*
X56388000Y34808000D01*
X56388000Y4168892D01*
X56305797Y3970437D01*
X56201000Y3443586D01*
X56201000Y2906414D01*
X56305797Y2379563D01*
X56388000Y2181108D01*
X56388000Y752000D01*
X752000Y752000D01*
X752000Y1645983D01*
X885888Y1536104D01*
X1185908Y1375740D01*
X1511449Y1276988D01*
X1765159Y1252000D01*
X2934841Y1252000D01*
X3188551Y1276988D01*
X3514092Y1375740D01*
X3814112Y1536104D01*
X4077082Y1751918D01*
X4292896Y2014888D01*
X4453260Y2314908D01*
X4552012Y2640449D01*
X4582697Y2952000D01*
X5590268Y2952000D01*
X5770534Y2969755D01*
X6001824Y3039916D01*
X6214983Y3153851D01*
X6401817Y3307183D01*
X6555149Y3494017D01*
X6669084Y3707176D01*
X6739245Y3938466D01*
X6762936Y4179000D01*
X6739245Y4419534D01*
X6669084Y4650824D01*
X6555149Y4863983D01*
X6401817Y5050817D01*
X6214983Y5204149D01*
X6001824Y5318084D01*
X5770534Y5388245D01*
X5590268Y5406000D01*
X4469732Y5406000D01*
X4289466Y5388245D01*
X4058176Y5318084D01*
X3845017Y5204149D01*
X3658183Y5050817D01*
X3504851Y4863983D01*
X3390916Y4650824D01*
X3382249Y4622254D01*
X3188551Y4681012D01*
X2934841Y4706000D01*
X1765159Y4706000D01*
X1511449Y4681012D01*
X1185908Y4582260D01*
X885888Y4421896D01*
X752000Y4312017D01*
X752000Y7750698D01*
X8706000Y7750698D01*
X8706000Y7489302D01*
X8756996Y7232928D01*
X8857028Y6991430D01*
X9002252Y6774087D01*
X9131000Y6645339D01*
X9131001Y6308662D01*
X9002252Y6179913D01*
X8857028Y5962570D01*
X8756996Y5721072D01*
X8706000Y5464698D01*
X8706000Y5203302D01*
X8756996Y4946928D01*
X8857028Y4705430D01*
X9002252Y4488087D01*
X9187087Y4303252D01*
X9404430Y4158028D01*
X9645928Y4057996D01*
X9902302Y4007000D01*
X10163698Y4007000D01*
X10420072Y4057996D01*
X10661570Y4158028D01*
X10878913Y4303252D01*
X11063748Y4488087D01*
X11208972Y4705430D01*
X11309004Y4946928D01*
X11360000Y5203302D01*
X11360000Y5464698D01*
X11309004Y5721072D01*
X11208972Y5962570D01*
X11063748Y6179913D01*
X10935000Y6308661D01*
X10935000Y6645339D01*
X11063748Y6774087D01*
X11208972Y6991430D01*
X11309004Y7232928D01*
X11360000Y7489302D01*
X11360000Y7750698D01*
X11309004Y8007072D01*
X11208972Y8248570D01*
X11117346Y8385698D01*
X19120000Y8385698D01*
X19120000Y8124302D01*
X19170996Y7867928D01*
X19271028Y7626430D01*
X19416252Y7409087D01*
X19601087Y7224252D01*
X19818430Y7079028D01*
X20059928Y6978996D01*
X20180001Y6955112D01*
X20180000Y6140300D01*
X20175637Y6096000D01*
X20180000Y6051701D01*
X20180000Y6051694D01*
X20193052Y5919178D01*
X20244629Y5749151D01*
X20328386Y5592452D01*
X20441104Y5455104D01*
X20475523Y5426857D01*
X20644000Y5258380D01*
X20644000Y5076302D01*
X20694996Y4819928D01*
X20795028Y4578430D01*
X20940252Y4361087D01*
X21125087Y4176252D01*
X21342430Y4031028D01*
X21583928Y3930996D01*
X21840302Y3880000D01*
X22101698Y3880000D01*
X22358072Y3930996D01*
X22599570Y4031028D01*
X22816913Y4176252D01*
X23001748Y4361087D01*
X23146972Y4578430D01*
X23247004Y4819928D01*
X23298000Y5076302D01*
X23298000Y5337698D01*
X23247004Y5594072D01*
X23146972Y5835570D01*
X23001748Y6052913D01*
X22816913Y6237748D01*
X22599570Y6382972D01*
X22358072Y6483004D01*
X22101698Y6534000D01*
X21984000Y6534000D01*
X21984000Y7575693D01*
X21988364Y7620000D01*
X21970948Y7796823D01*
X21963992Y7819755D01*
X21919371Y7966850D01*
X21835614Y8123549D01*
X21808011Y8157183D01*
X21774000Y8198626D01*
X21774000Y8385698D01*
X21723004Y8642072D01*
X21622972Y8883570D01*
X21477748Y9100913D01*
X21430963Y9147698D01*
X26359000Y9147698D01*
X26359000Y8886302D01*
X26409996Y8629928D01*
X26510028Y8388430D01*
X26655252Y8171087D01*
X26784001Y8042338D01*
X26784000Y3854300D01*
X26779637Y3810000D01*
X26784000Y3765701D01*
X26784000Y3765694D01*
X26797052Y3633178D01*
X26848629Y3463151D01*
X26932386Y3306452D01*
X27045104Y3169104D01*
X27079523Y3140857D01*
X27121000Y3099380D01*
X27121000Y2917302D01*
X27171996Y2660928D01*
X27272028Y2419430D01*
X27417252Y2202087D01*
X27602087Y2017252D01*
X27819430Y1872028D01*
X28060928Y1771996D01*
X28317302Y1721000D01*
X28578698Y1721000D01*
X28835072Y1771996D01*
X29076570Y1872028D01*
X29293913Y2017252D01*
X29478748Y2202087D01*
X29623972Y2419430D01*
X29724004Y2660928D01*
X29775000Y2917302D01*
X29775000Y3178698D01*
X29724004Y3435072D01*
X29623972Y3676570D01*
X29478748Y3893913D01*
X29293913Y4078748D01*
X29140770Y4181075D01*
X45953000Y4181075D01*
X45953000Y3968925D01*
X45994389Y3760851D01*
X46075575Y3564849D01*
X46193440Y3388453D01*
X46343453Y3238440D01*
X46438397Y3175000D01*
X46343453Y3111560D01*
X46193440Y2961547D01*
X46075575Y2785151D01*
X45994389Y2589149D01*
X45953000Y2381075D01*
X45953000Y2168925D01*
X45994389Y1960851D01*
X46075575Y1764849D01*
X46193440Y1588453D01*
X46343453Y1438440D01*
X46519849Y1320575D01*
X46715851Y1239389D01*
X46923925Y1198000D01*
X47136075Y1198000D01*
X47344149Y1239389D01*
X47540151Y1320575D01*
X47716547Y1438440D01*
X47866560Y1588453D01*
X47984425Y1764849D01*
X48065611Y1960851D01*
X48107000Y2168925D01*
X48107000Y2381075D01*
X48065611Y2589149D01*
X47984425Y2785151D01*
X47866560Y2961547D01*
X47716547Y3111560D01*
X47621603Y3175000D01*
X47716547Y3238440D01*
X47866560Y3388453D01*
X47984425Y3564849D01*
X48065611Y3760851D01*
X48107000Y3968925D01*
X48107000Y4181075D01*
X48065611Y4389149D01*
X47984425Y4585151D01*
X47866560Y4761547D01*
X47716547Y4911560D01*
X47540151Y5029425D01*
X47344149Y5110611D01*
X47136075Y5152000D01*
X46923925Y5152000D01*
X46715851Y5110611D01*
X46519849Y5029425D01*
X46343453Y4911560D01*
X46193440Y4761547D01*
X46075575Y4585151D01*
X45994389Y4389149D01*
X45953000Y4181075D01*
X29140770Y4181075D01*
X29076570Y4223972D01*
X28835072Y4324004D01*
X28588000Y4373150D01*
X28588000Y6642701D01*
X28695928Y6597996D01*
X28952302Y6547000D01*
X29213698Y6547000D01*
X29470072Y6597996D01*
X29711570Y6698028D01*
X29928913Y6843252D01*
X30107661Y7022000D01*
X31233339Y7022000D01*
X31412087Y6843252D01*
X31629430Y6698028D01*
X31870928Y6597996D01*
X32127302Y6547000D01*
X32388698Y6547000D01*
X32645072Y6597996D01*
X32886570Y6698028D01*
X33103913Y6843252D01*
X33288748Y7028087D01*
X33433972Y7245430D01*
X33534004Y7486928D01*
X33585000Y7743302D01*
X33585000Y8004698D01*
X33534004Y8261072D01*
X33433972Y8502570D01*
X33288748Y8719913D01*
X33103913Y8904748D01*
X32886570Y9049972D01*
X32645072Y9150004D01*
X32388698Y9201000D01*
X32127302Y9201000D01*
X31870928Y9150004D01*
X31629430Y9049972D01*
X31412087Y8904748D01*
X31233339Y8726000D01*
X30107661Y8726000D01*
X29928913Y8904748D01*
X29711570Y9049972D01*
X29470072Y9150004D01*
X29213698Y9201000D01*
X29002398Y9201000D01*
X28962004Y9404072D01*
X28861972Y9645570D01*
X28716748Y9862913D01*
X28531913Y10047748D01*
X28314570Y10192972D01*
X28073072Y10293004D01*
X27816698Y10344000D01*
X27555302Y10344000D01*
X27298928Y10293004D01*
X27057430Y10192972D01*
X26840087Y10047748D01*
X26655252Y9862913D01*
X26510028Y9645570D01*
X26409996Y9404072D01*
X26359000Y9147698D01*
X21430963Y9147698D01*
X21292913Y9285748D01*
X21075570Y9430972D01*
X20834072Y9531004D01*
X20577698Y9582000D01*
X20316302Y9582000D01*
X20059928Y9531004D01*
X19818430Y9430972D01*
X19601087Y9285748D01*
X19416252Y9100913D01*
X19271028Y8883570D01*
X19170996Y8642072D01*
X19120000Y8385698D01*
X11117346Y8385698D01*
X11063748Y8465913D01*
X10878913Y8650748D01*
X10661570Y8795972D01*
X10420072Y8896004D01*
X10163698Y8947000D01*
X9902302Y8947000D01*
X9645928Y8896004D01*
X9404430Y8795972D01*
X9187087Y8650748D01*
X9002252Y8465913D01*
X8857028Y8248570D01*
X8756996Y8007072D01*
X8706000Y7750698D01*
X752000Y7750698D01*
X752000Y8895983D01*
X885888Y8786104D01*
X1185908Y8625740D01*
X1511449Y8526988D01*
X1765159Y8502000D01*
X2934841Y8502000D01*
X3188551Y8526988D01*
X3382249Y8585746D01*
X3390916Y8557176D01*
X3504851Y8344017D01*
X3658183Y8157183D01*
X3845017Y8003851D01*
X4058176Y7889916D01*
X4289466Y7819755D01*
X4469732Y7802000D01*
X5590268Y7802000D01*
X5770534Y7819755D01*
X6001824Y7889916D01*
X6214983Y8003851D01*
X6401817Y8157183D01*
X6555149Y8344017D01*
X6669084Y8557176D01*
X6739245Y8788466D01*
X6762936Y9029000D01*
X6739245Y9269534D01*
X6669084Y9500824D01*
X6555149Y9713983D01*
X6401817Y9900817D01*
X6214983Y10054149D01*
X6001824Y10168084D01*
X5770534Y10238245D01*
X5590268Y10256000D01*
X4582697Y10256000D01*
X4552012Y10567551D01*
X4453260Y10893092D01*
X4300066Y11179698D01*
X40964000Y11179698D01*
X40964000Y10918302D01*
X41014996Y10661928D01*
X41115028Y10420430D01*
X41260252Y10203087D01*
X41445087Y10018252D01*
X41662430Y9873028D01*
X41903928Y9772996D01*
X42160302Y9722000D01*
X42421698Y9722000D01*
X42678072Y9772996D01*
X42919570Y9873028D01*
X43136913Y10018252D01*
X43312035Y10193374D01*
X43348849Y10197000D01*
X43348852Y10197000D01*
X43474021Y10209328D01*
X43634624Y10258046D01*
X43782636Y10337161D01*
X43912370Y10443630D01*
X43939055Y10476146D01*
X45023607Y11560698D01*
X48330000Y11560698D01*
X48330000Y11299302D01*
X48380996Y11042928D01*
X48481028Y10801430D01*
X48626252Y10584087D01*
X48811087Y10399252D01*
X49028430Y10254028D01*
X49269928Y10153996D01*
X49526302Y10103000D01*
X49787698Y10103000D01*
X50044072Y10153996D01*
X50285570Y10254028D01*
X50502913Y10399252D01*
X50687748Y10584087D01*
X50832972Y10801430D01*
X50933004Y11042928D01*
X50984000Y11299302D01*
X50984000Y11560698D01*
X50933004Y11817072D01*
X50832972Y12058570D01*
X50687748Y12275913D01*
X50559000Y12404661D01*
X50559000Y14669869D01*
X50629913Y14717252D01*
X50814748Y14902087D01*
X50959972Y15119430D01*
X51060004Y15360928D01*
X51111000Y15617302D01*
X51111000Y15878698D01*
X51060004Y16135072D01*
X50959972Y16376570D01*
X50814748Y16593913D01*
X50629913Y16778748D01*
X50412570Y16923972D01*
X50171072Y17024004D01*
X49914698Y17075000D01*
X49653302Y17075000D01*
X49396928Y17024004D01*
X49155430Y16923972D01*
X48938087Y16778748D01*
X48753252Y16593913D01*
X48608028Y16376570D01*
X48507996Y16135072D01*
X48457000Y15878698D01*
X48457000Y15617302D01*
X48507996Y15360928D01*
X48608028Y15119430D01*
X48753252Y14902087D01*
X48755001Y14900338D01*
X48755000Y12404661D01*
X48626252Y12275913D01*
X48481028Y12058570D01*
X48380996Y11817072D01*
X48330000Y11560698D01*
X45023607Y11560698D01*
X45430144Y11967234D01*
X45586570Y12032028D01*
X45803913Y12177252D01*
X45988748Y12362087D01*
X46133972Y12579430D01*
X46234004Y12820928D01*
X46285000Y13077302D01*
X46285000Y13338698D01*
X46234004Y13595072D01*
X46133972Y13836570D01*
X45988748Y14053913D01*
X45803913Y14238748D01*
X45586570Y14383972D01*
X45345072Y14484004D01*
X45088698Y14535000D01*
X44827302Y14535000D01*
X44570928Y14484004D01*
X44329430Y14383972D01*
X44112087Y14238748D01*
X43927252Y14053913D01*
X43782028Y13836570D01*
X43681996Y13595072D01*
X43631000Y13338698D01*
X43631000Y13077302D01*
X43681996Y12820928D01*
X43738238Y12685148D01*
X43134471Y12081380D01*
X42919570Y12224972D01*
X42678072Y12325004D01*
X42421698Y12376000D01*
X42160302Y12376000D01*
X41903928Y12325004D01*
X41662430Y12224972D01*
X41445087Y12079748D01*
X41260252Y11894913D01*
X41115028Y11677570D01*
X41014996Y11436072D01*
X40964000Y11179698D01*
X4300066Y11179698D01*
X4292896Y11193112D01*
X4077082Y11456082D01*
X3814112Y11671896D01*
X3514092Y11832260D01*
X3188551Y11931012D01*
X2934841Y11956000D01*
X1765159Y11956000D01*
X1511449Y11931012D01*
X1185908Y11832260D01*
X885888Y11671896D01*
X752000Y11562017D01*
X752000Y13543045D01*
X3205704Y13543045D01*
X3324369Y13238059D01*
X3667689Y13076145D01*
X4036002Y12984320D01*
X4415150Y12966115D01*
X4790566Y13022226D01*
X4964556Y13084698D01*
X20136000Y13084698D01*
X20136000Y12823302D01*
X20186996Y12566928D01*
X20287028Y12325430D01*
X20432252Y12108087D01*
X20617087Y11923252D01*
X20834430Y11778028D01*
X21075928Y11677996D01*
X21332302Y11627000D01*
X21593698Y11627000D01*
X21850072Y11677996D01*
X22091570Y11778028D01*
X22308913Y11923252D01*
X22493748Y12108087D01*
X22638972Y12325430D01*
X22739004Y12566928D01*
X22790000Y12823302D01*
X22790000Y13005380D01*
X24228482Y14443861D01*
X24262896Y14472104D01*
X24375614Y14609451D01*
X24459371Y14766150D01*
X24510948Y14936177D01*
X24524000Y15068693D01*
X24524000Y15068700D01*
X24528363Y15112999D01*
X24524000Y15157299D01*
X24524000Y15789339D01*
X24652748Y15918087D01*
X24797972Y16135430D01*
X24898004Y16376928D01*
X24949000Y16633302D01*
X24949000Y16894698D01*
X24898004Y17151072D01*
X24797972Y17392570D01*
X24652748Y17609913D01*
X24467913Y17794748D01*
X24250570Y17939972D01*
X24009072Y18040004D01*
X23752698Y18091000D01*
X23491302Y18091000D01*
X23234928Y18040004D01*
X22993430Y17939972D01*
X22776087Y17794748D01*
X22591252Y17609913D01*
X22446028Y17392570D01*
X22345996Y17151072D01*
X22295000Y16894698D01*
X22295000Y16633302D01*
X22345996Y16376928D01*
X22446028Y16135430D01*
X22591252Y15918087D01*
X22720001Y15789338D01*
X22720001Y15486622D01*
X21514380Y14281000D01*
X21332302Y14281000D01*
X21075928Y14230004D01*
X20834430Y14129972D01*
X20617087Y13984748D01*
X20432252Y13799913D01*
X20287028Y13582570D01*
X20186996Y13341072D01*
X20136000Y13084698D01*
X4964556Y13084698D01*
X5147821Y13150500D01*
X5311631Y13238059D01*
X5430296Y13543045D01*
X4318000Y14655341D01*
X3205704Y13543045D01*
X752000Y13543045D01*
X752000Y14802850D01*
X2384115Y14802850D01*
X2440226Y14427434D01*
X2568500Y14070179D01*
X2656059Y13906369D01*
X2961045Y13787704D01*
X4073341Y14900000D01*
X4562659Y14900000D01*
X5674955Y13787704D01*
X5979941Y13906369D01*
X6141855Y14249689D01*
X6233680Y14618002D01*
X6251885Y14997150D01*
X6195774Y15372566D01*
X6067500Y15729821D01*
X5979941Y15893631D01*
X5674955Y16012296D01*
X4562659Y14900000D01*
X4073341Y14900000D01*
X2961045Y16012296D01*
X2656059Y15893631D01*
X2494145Y15550311D01*
X2402320Y15181998D01*
X2384115Y14802850D01*
X752000Y14802850D01*
X752000Y22596349D01*
X834724Y22441582D01*
X956814Y22292814D01*
X994098Y22262216D01*
X2013220Y21243093D01*
X2043814Y21205814D01*
X2192582Y21083724D01*
X2362309Y20993003D01*
X2546475Y20937137D01*
X2650636Y20926878D01*
X2821201Y20671609D01*
X3089609Y20403201D01*
X3405223Y20192315D01*
X3507380Y20150000D01*
X3405223Y20107685D01*
X3089609Y19896799D01*
X2821201Y19628391D01*
X2610315Y19312777D01*
X2465053Y18962085D01*
X2391000Y18589793D01*
X2391000Y18210207D01*
X2465053Y17837915D01*
X2610315Y17487223D01*
X2821201Y17171609D01*
X3089609Y16903201D01*
X3405223Y16692315D01*
X3499111Y16653425D01*
X3488179Y16649500D01*
X3324369Y16561941D01*
X3205704Y16256955D01*
X4318000Y15144659D01*
X5430296Y16256955D01*
X5311631Y16561941D01*
X5126646Y16649182D01*
X5230777Y16692315D01*
X5546391Y16903201D01*
X5607655Y16964465D01*
X5650590Y16946681D01*
X5945604Y16888000D01*
X6246396Y16888000D01*
X6541410Y16946681D01*
X6793098Y17050934D01*
X6816159Y16974913D01*
X6840003Y16896310D01*
X6930724Y16726582D01*
X7052814Y16577814D01*
X7090098Y16547216D01*
X7563000Y16074314D01*
X7563000Y15998302D01*
X7613996Y15741928D01*
X7714028Y15500430D01*
X7859252Y15283087D01*
X8044087Y15098252D01*
X8261430Y14953028D01*
X8502928Y14852996D01*
X8759302Y14802000D01*
X9020698Y14802000D01*
X9277072Y14852996D01*
X9518570Y14953028D01*
X9735913Y15098252D01*
X9920748Y15283087D01*
X10065972Y15500430D01*
X10166004Y15741928D01*
X10217000Y15998302D01*
X10217000Y16259698D01*
X10166004Y16516072D01*
X10065972Y16757570D01*
X9920748Y16974913D01*
X9735913Y17159748D01*
X9518570Y17304972D01*
X9277072Y17405004D01*
X9020698Y17456000D01*
X8944686Y17456000D01*
X8724000Y17676686D01*
X8724000Y19815698D01*
X9214000Y19815698D01*
X9214000Y19554302D01*
X9264996Y19297928D01*
X9365028Y19056430D01*
X9510252Y18839087D01*
X9695087Y18654252D01*
X9912430Y18509028D01*
X10153928Y18408996D01*
X10410302Y18358000D01*
X10592379Y18358000D01*
X11014861Y17935518D01*
X11043104Y17901104D01*
X11077517Y17872862D01*
X11077519Y17872860D01*
X11099791Y17854582D01*
X11180451Y17788386D01*
X11337150Y17704629D01*
X11507177Y17653052D01*
X11639693Y17640000D01*
X11639700Y17640000D01*
X11683999Y17635637D01*
X11728299Y17640000D01*
X18497701Y17640000D01*
X18542000Y17635637D01*
X18586299Y17640000D01*
X18586307Y17640000D01*
X18718823Y17653052D01*
X18888850Y17704629D01*
X19045549Y17788386D01*
X19182896Y17901104D01*
X19211143Y17935523D01*
X19252620Y17977000D01*
X19434698Y17977000D01*
X19691072Y18027996D01*
X19932570Y18128028D01*
X20149913Y18273252D01*
X20334748Y18458087D01*
X20479972Y18675430D01*
X20580004Y18916928D01*
X20631000Y19173302D01*
X20631000Y19434698D01*
X20580004Y19691072D01*
X20479972Y19932570D01*
X20334748Y20149913D01*
X20149913Y20334748D01*
X19932570Y20479972D01*
X19691072Y20580004D01*
X19434698Y20631000D01*
X19173302Y20631000D01*
X18916928Y20580004D01*
X18675430Y20479972D01*
X18458087Y20334748D01*
X18273252Y20149913D01*
X18128028Y19932570D01*
X18027996Y19691072D01*
X17978850Y19444000D01*
X12057621Y19444000D01*
X11868000Y19633621D01*
X11868000Y19815698D01*
X11817004Y20072072D01*
X11716972Y20313570D01*
X11571748Y20530913D01*
X11386913Y20715748D01*
X11169570Y20860972D01*
X10928072Y20961004D01*
X10671698Y21012000D01*
X10410302Y21012000D01*
X10153928Y20961004D01*
X9912430Y20860972D01*
X9695087Y20715748D01*
X9510252Y20530913D01*
X9365028Y20313570D01*
X9264996Y20072072D01*
X9214000Y19815698D01*
X8724000Y19815698D01*
X8724000Y21593698D01*
X15183000Y21593698D01*
X15183000Y21332302D01*
X15233996Y21075928D01*
X15334028Y20834430D01*
X15479252Y20617087D01*
X15664087Y20432252D01*
X15881430Y20287028D01*
X16122928Y20186996D01*
X16379302Y20136000D01*
X16640698Y20136000D01*
X16897072Y20186996D01*
X17138570Y20287028D01*
X17355913Y20432252D01*
X17540748Y20617087D01*
X17685972Y20834430D01*
X17786004Y21075928D01*
X17837000Y21332302D01*
X17837000Y21593698D01*
X17786004Y21850072D01*
X17685972Y22091570D01*
X17540748Y22308913D01*
X17487000Y22362661D01*
X17487000Y24768698D01*
X33090000Y24768698D01*
X33090000Y24507302D01*
X33140996Y24250928D01*
X33241028Y24009430D01*
X33386252Y23792087D01*
X33515001Y23663338D01*
X33515000Y22650300D01*
X33510637Y22606000D01*
X33515000Y22561701D01*
X33515000Y22561694D01*
X33528052Y22429178D01*
X33579629Y22259151D01*
X33663386Y22102452D01*
X33776104Y21965104D01*
X33810523Y21936857D01*
X35884000Y19863379D01*
X35884000Y19681302D01*
X35934996Y19424928D01*
X36035028Y19183430D01*
X36180252Y18966087D01*
X36365087Y18781252D01*
X36375703Y18774158D01*
X36201430Y18701972D01*
X35984087Y18556748D01*
X35799252Y18371913D01*
X35654028Y18154570D01*
X35553996Y17913072D01*
X35503000Y17656698D01*
X35503000Y17395302D01*
X35553996Y17138928D01*
X35654028Y16897430D01*
X35799252Y16680087D01*
X35984087Y16495252D01*
X36201430Y16350028D01*
X36442928Y16249996D01*
X36699302Y16199000D01*
X36960698Y16199000D01*
X37217072Y16249996D01*
X37458570Y16350028D01*
X37675913Y16495252D01*
X37860748Y16680087D01*
X38005972Y16897430D01*
X38106004Y17138928D01*
X38107607Y17146987D01*
X39087477Y18126857D01*
X39121896Y18155104D01*
X39234614Y18292451D01*
X39318371Y18449150D01*
X39369948Y18619177D01*
X39383000Y18751693D01*
X39383000Y18751700D01*
X39387363Y18795999D01*
X39383000Y18840299D01*
X39383000Y20783701D01*
X39387363Y20828001D01*
X39383000Y20872301D01*
X39383000Y20872307D01*
X39369948Y21004823D01*
X39318371Y21174850D01*
X39300000Y21209220D01*
X39300000Y21466698D01*
X39249004Y21723072D01*
X39148972Y21964570D01*
X39068503Y22085000D01*
X40266380Y22085000D01*
X41599000Y20752380D01*
X41599000Y20570302D01*
X41649996Y20313928D01*
X41750028Y20072430D01*
X41895252Y19855087D01*
X42080087Y19670252D01*
X42297430Y19525028D01*
X42538928Y19424996D01*
X42795302Y19374000D01*
X43056698Y19374000D01*
X43313072Y19424996D01*
X43554570Y19525028D01*
X43771913Y19670252D01*
X43956748Y19855087D01*
X44101972Y20072430D01*
X44202004Y20313928D01*
X44253000Y20570302D01*
X44253000Y20831698D01*
X44202004Y21088072D01*
X44101972Y21329570D01*
X43956748Y21546913D01*
X43771913Y21731748D01*
X43554570Y21876972D01*
X43313072Y21977004D01*
X43056698Y22028000D01*
X42874620Y22028000D01*
X41309143Y23593477D01*
X41280896Y23627896D01*
X41143549Y23740614D01*
X40986850Y23824371D01*
X40816823Y23875948D01*
X40684307Y23889000D01*
X40684299Y23889000D01*
X40640000Y23893363D01*
X40595701Y23889000D01*
X37509299Y23889000D01*
X37464999Y23893363D01*
X37430867Y23890001D01*
X37214698Y23933000D01*
X36953302Y23933000D01*
X36716000Y23885798D01*
X36716000Y27473339D01*
X36844748Y27602087D01*
X36989972Y27819430D01*
X37090004Y28060928D01*
X37141000Y28317302D01*
X37141000Y28578698D01*
X37090004Y28835072D01*
X36989972Y29076570D01*
X36844748Y29293913D01*
X36659913Y29478748D01*
X36442570Y29623972D01*
X36201072Y29724004D01*
X35944698Y29775000D01*
X35683302Y29775000D01*
X35426928Y29724004D01*
X35185430Y29623972D01*
X34968087Y29478748D01*
X34783252Y29293913D01*
X34638028Y29076570D01*
X34537996Y28835072D01*
X34487000Y28578698D01*
X34487000Y28317302D01*
X34537996Y28060928D01*
X34638028Y27819430D01*
X34783252Y27602087D01*
X34912001Y27473338D01*
X34912001Y25869298D01*
X34804072Y25914004D01*
X34547698Y25965000D01*
X34286302Y25965000D01*
X34029928Y25914004D01*
X33788430Y25813972D01*
X33571087Y25668748D01*
X33386252Y25483913D01*
X33241028Y25266570D01*
X33140996Y25025072D01*
X33090000Y24768698D01*
X17487000Y24768698D01*
X17487000Y27535314D01*
X19231687Y29280000D01*
X19307698Y29280000D01*
X19564072Y29330996D01*
X19805570Y29431028D01*
X20022913Y29576252D01*
X20207748Y29761087D01*
X20352972Y29978430D01*
X20453004Y30219928D01*
X20504000Y30476302D01*
X20504000Y30737698D01*
X20453004Y30994072D01*
X20352972Y31235570D01*
X20207748Y31452913D01*
X20022913Y31637748D01*
X19805570Y31782972D01*
X19564072Y31883004D01*
X19307698Y31934000D01*
X19046302Y31934000D01*
X18789928Y31883004D01*
X18548430Y31782972D01*
X18331087Y31637748D01*
X18146252Y31452913D01*
X18001028Y31235570D01*
X17900996Y30994072D01*
X17850000Y30737698D01*
X17850000Y30661687D01*
X15853093Y28664779D01*
X15815815Y28634186D01*
X15785222Y28596908D01*
X15785221Y28596907D01*
X15693725Y28485418D01*
X15603003Y28315690D01*
X15547137Y28131525D01*
X15528273Y27940000D01*
X15533001Y27891997D01*
X15533000Y22362661D01*
X15479252Y22308913D01*
X15334028Y22091570D01*
X15233996Y21850072D01*
X15183000Y21593698D01*
X8724000Y21593698D01*
X8724000Y24209010D01*
X8728727Y24257001D01*
X8724000Y24304993D01*
X8709863Y24448525D01*
X8653997Y24632691D01*
X8563276Y24802418D01*
X8441186Y24951186D01*
X8403907Y24981780D01*
X7328784Y26056902D01*
X7298186Y26094186D01*
X7149418Y26216276D01*
X6979691Y26306997D01*
X6795525Y26362863D01*
X6651993Y26377000D01*
X6604000Y26381727D01*
X6556007Y26377000D01*
X6248517Y26377000D01*
X6248517Y26600000D01*
X6234480Y26742517D01*
X6192910Y26879557D01*
X6125403Y27005853D01*
X6034554Y27116554D01*
X5923853Y27207403D01*
X5797557Y27274910D01*
X5660517Y27316480D01*
X5518000Y27330517D01*
X3118000Y27330517D01*
X2975483Y27316480D01*
X2838443Y27274910D01*
X2712147Y27207403D01*
X2628000Y27138346D01*
X2628000Y29186314D01*
X3661170Y30219483D01*
X4610000Y30219483D01*
X4752517Y30233520D01*
X4889557Y30275090D01*
X5015853Y30342597D01*
X5126554Y30433446D01*
X5217403Y30544147D01*
X5262465Y30628451D01*
X5347789Y30543127D01*
X5483726Y30679064D01*
X5553820Y30414882D01*
X5828818Y30293012D01*
X6122308Y30227134D01*
X6423011Y30219778D01*
X6719371Y30271229D01*
X6999998Y30379508D01*
X7066180Y30414882D01*
X7136275Y30679066D01*
X6310000Y31505341D01*
X6295858Y31491199D01*
X6051199Y31735858D01*
X6065341Y31750000D01*
X6554659Y31750000D01*
X7380934Y30923725D01*
X7645118Y30993820D01*
X7766988Y31268818D01*
X7832866Y31562308D01*
X7840222Y31863011D01*
X7788771Y32159371D01*
X7680492Y32439998D01*
X7645118Y32506180D01*
X7380934Y32576275D01*
X6554659Y31750000D01*
X6065341Y31750000D01*
X6051199Y31764142D01*
X6295858Y32008801D01*
X6310000Y31994659D01*
X7136275Y32820934D01*
X7066180Y33085118D01*
X6791182Y33206988D01*
X6497692Y33272866D01*
X6196989Y33280222D01*
X5900629Y33228771D01*
X5620002Y33120492D01*
X5553820Y33085118D01*
X5483726Y32820936D01*
X5347789Y32956873D01*
X5262465Y32871549D01*
X5217403Y32955853D01*
X5126554Y33066554D01*
X5015853Y33157403D01*
X4889557Y33224910D01*
X4752517Y33266480D01*
X4610000Y33280517D01*
X3010000Y33280517D01*
X2867483Y33266480D01*
X2730443Y33224910D01*
X2604147Y33157403D01*
X2493446Y33066554D01*
X2402597Y32955853D01*
X2335090Y32829557D01*
X2293520Y32692517D01*
X2279483Y32550000D01*
X2279483Y31601170D01*
X994093Y30315779D01*
X956815Y30285186D01*
X926222Y30247908D01*
X926221Y30247907D01*
X834725Y30136418D01*
X752000Y29981651D01*
X752000Y34808000D01*
X23724667Y34808000D01*
X23724667Y30513000D01*
G37*
G04 #@! TD.AperFunction*
G04 #@! TD*
M02*
